%TF.GenerationSoftware,KiCad,Pcbnew,7.0.10*%
%TF.CreationDate,2024-07-16T17:41:30-07:00*%
%TF.ProjectId,Thermistor Ring,54686572-6d69-4737-946f-722052696e67,rev?*%
%TF.SameCoordinates,Original*%
%TF.FileFunction,Legend,Top*%
%TF.FilePolarity,Positive*%
%FSLAX46Y46*%
G04 Gerber Fmt 4.6, Leading zero omitted, Abs format (unit mm)*
G04 Created by KiCad (PCBNEW 7.0.10) date 2024-07-16 17:41:30*
%MOMM*%
%LPD*%
G01*
G04 APERTURE LIST*
%ADD10C,0.150000*%
%ADD11C,0.152400*%
%ADD12C,0.120000*%
G04 APERTURE END LIST*
D10*
X69461412Y-76808596D02*
X69925736Y-76145473D01*
X69925736Y-76145473D02*
X69941355Y-76040145D01*
X69941355Y-76040145D02*
X69929661Y-75973825D01*
X69929661Y-75973825D02*
X69878960Y-75880192D01*
X69878960Y-75880192D02*
X69722931Y-75770939D01*
X69722931Y-75770939D02*
X69617603Y-75755320D01*
X69617603Y-75755320D02*
X69551283Y-75767014D01*
X69551283Y-75767014D02*
X69457649Y-75817715D01*
X69457649Y-75817715D02*
X68993326Y-76480838D01*
X68252188Y-75961888D02*
X68408217Y-76071141D01*
X68408217Y-76071141D02*
X68513545Y-76086760D01*
X68513545Y-76086760D02*
X68579865Y-76075066D01*
X68579865Y-76075066D02*
X68739819Y-76012670D01*
X68739819Y-76012670D02*
X68888079Y-75883955D01*
X68888079Y-75883955D02*
X69106584Y-75571897D01*
X69106584Y-75571897D02*
X69122203Y-75466569D01*
X69122203Y-75466569D02*
X69110509Y-75400249D01*
X69110509Y-75400249D02*
X69059808Y-75306615D01*
X69059808Y-75306615D02*
X68903779Y-75197362D01*
X68903779Y-75197362D02*
X68798451Y-75181743D01*
X68798451Y-75181743D02*
X68732131Y-75193437D01*
X68732131Y-75193437D02*
X68638497Y-75244139D01*
X68638497Y-75244139D02*
X68501931Y-75439175D01*
X68501931Y-75439175D02*
X68486312Y-75544503D01*
X68486312Y-75544503D02*
X68498006Y-75610823D01*
X68498006Y-75610823D02*
X68548708Y-75704457D01*
X68548708Y-75704457D02*
X68704737Y-75813709D01*
X68704737Y-75813709D02*
X68810064Y-75829328D01*
X68810064Y-75829328D02*
X68876385Y-75817634D01*
X68876385Y-75817634D02*
X68970018Y-75766933D01*
X64933996Y-76400802D02*
X64797430Y-76595838D01*
X64657020Y-76381258D02*
X64797430Y-76595838D01*
X64797430Y-76595838D02*
X65047092Y-76654389D01*
X64571156Y-76669927D02*
X64797430Y-76595838D01*
X64797430Y-76595838D02*
X64805199Y-76833806D01*
X64308589Y-77293973D02*
X64445155Y-77098937D01*
X64585565Y-77313517D02*
X64445155Y-77098937D01*
X64445155Y-77098937D02*
X64195493Y-77040386D01*
X64671429Y-77024848D02*
X64445155Y-77098937D01*
X64445155Y-77098937D02*
X64437386Y-76860969D01*
X65992119Y-36222192D02*
X65974689Y-36287241D01*
X65974689Y-36287241D02*
X65874781Y-36399909D01*
X65874781Y-36399909D02*
X65792302Y-36447528D01*
X65792302Y-36447528D02*
X65644775Y-36477717D01*
X65644775Y-36477717D02*
X65514677Y-36442857D01*
X65514677Y-36442857D02*
X65425819Y-36384188D01*
X65425819Y-36384188D02*
X65289341Y-36243041D01*
X65289341Y-36243041D02*
X65217913Y-36119323D01*
X65217913Y-36119323D02*
X65163914Y-35930556D01*
X65163914Y-35930556D02*
X65157534Y-35824268D01*
X65157534Y-35824268D02*
X65192394Y-35694170D01*
X65192394Y-35694170D02*
X65292302Y-35581502D01*
X65292302Y-35581502D02*
X65374781Y-35533883D01*
X65374781Y-35533883D02*
X65522308Y-35503694D01*
X65522308Y-35503694D02*
X65587357Y-35521124D01*
X65828413Y-35271978D02*
X66364524Y-34962455D01*
X66364524Y-34962455D02*
X66266325Y-35459036D01*
X66266325Y-35459036D02*
X66390043Y-35387607D01*
X66390043Y-35387607D02*
X66496331Y-35381227D01*
X66496331Y-35381227D02*
X66561380Y-35398657D01*
X66561380Y-35398657D02*
X66650238Y-35457326D01*
X66650238Y-35457326D02*
X66769286Y-35663523D01*
X66769286Y-35663523D02*
X66775666Y-35769811D01*
X66775666Y-35769811D02*
X66758236Y-35834860D01*
X66758236Y-35834860D02*
X66699567Y-35923718D01*
X66699567Y-35923718D02*
X66452131Y-36066575D01*
X66452131Y-36066575D02*
X66345843Y-36072955D01*
X66345843Y-36072955D02*
X66280794Y-36055525D01*
X54573024Y-50787850D02*
X54525405Y-50835470D01*
X54525405Y-50835470D02*
X54382548Y-50883089D01*
X54382548Y-50883089D02*
X54287310Y-50883089D01*
X54287310Y-50883089D02*
X54144453Y-50835470D01*
X54144453Y-50835470D02*
X54049215Y-50740231D01*
X54049215Y-50740231D02*
X54001596Y-50644993D01*
X54001596Y-50644993D02*
X53953977Y-50454517D01*
X53953977Y-50454517D02*
X53953977Y-50311660D01*
X53953977Y-50311660D02*
X54001596Y-50121184D01*
X54001596Y-50121184D02*
X54049215Y-50025946D01*
X54049215Y-50025946D02*
X54144453Y-49930708D01*
X54144453Y-49930708D02*
X54287310Y-49883089D01*
X54287310Y-49883089D02*
X54382548Y-49883089D01*
X54382548Y-49883089D02*
X54525405Y-49930708D01*
X54525405Y-49930708D02*
X54573024Y-49978327D01*
X54953977Y-49978327D02*
X55001596Y-49930708D01*
X55001596Y-49930708D02*
X55096834Y-49883089D01*
X55096834Y-49883089D02*
X55334929Y-49883089D01*
X55334929Y-49883089D02*
X55430167Y-49930708D01*
X55430167Y-49930708D02*
X55477786Y-49978327D01*
X55477786Y-49978327D02*
X55525405Y-50073565D01*
X55525405Y-50073565D02*
X55525405Y-50168803D01*
X55525405Y-50168803D02*
X55477786Y-50311660D01*
X55477786Y-50311660D02*
X54906358Y-50883089D01*
X54906358Y-50883089D02*
X55525405Y-50883089D01*
X86238587Y-37891403D02*
X85774263Y-38554526D01*
X85774263Y-38554526D02*
X85758644Y-38659854D01*
X85758644Y-38659854D02*
X85770338Y-38726174D01*
X85770338Y-38726174D02*
X85821039Y-38819807D01*
X85821039Y-38819807D02*
X85977068Y-38929060D01*
X85977068Y-38929060D02*
X86082396Y-38944679D01*
X86082396Y-38944679D02*
X86148716Y-38932985D01*
X86148716Y-38932985D02*
X86242350Y-38882284D01*
X86242350Y-38882284D02*
X86706673Y-38219161D01*
X87018731Y-38437666D02*
X87564833Y-38820050D01*
X87564833Y-38820050D02*
X86640191Y-39393384D01*
X82796460Y-37035333D02*
X82659894Y-37230369D01*
X82519484Y-37015789D02*
X82659894Y-37230369D01*
X82659894Y-37230369D02*
X82909556Y-37288920D01*
X82433620Y-37304458D02*
X82659894Y-37230369D01*
X82659894Y-37230369D02*
X82667663Y-37468337D01*
X82806460Y-37035334D02*
X82669894Y-37230370D01*
X82529484Y-37015790D02*
X82669894Y-37230370D01*
X82669894Y-37230370D02*
X82919556Y-37288921D01*
X82443620Y-37304459D02*
X82669894Y-37230370D01*
X82669894Y-37230370D02*
X82677663Y-37468338D01*
X92708333Y-65309580D02*
X92660714Y-65357200D01*
X92660714Y-65357200D02*
X92517857Y-65404819D01*
X92517857Y-65404819D02*
X92422619Y-65404819D01*
X92422619Y-65404819D02*
X92279762Y-65357200D01*
X92279762Y-65357200D02*
X92184524Y-65261961D01*
X92184524Y-65261961D02*
X92136905Y-65166723D01*
X92136905Y-65166723D02*
X92089286Y-64976247D01*
X92089286Y-64976247D02*
X92089286Y-64833390D01*
X92089286Y-64833390D02*
X92136905Y-64642914D01*
X92136905Y-64642914D02*
X92184524Y-64547676D01*
X92184524Y-64547676D02*
X92279762Y-64452438D01*
X92279762Y-64452438D02*
X92422619Y-64404819D01*
X92422619Y-64404819D02*
X92517857Y-64404819D01*
X92517857Y-64404819D02*
X92660714Y-64452438D01*
X92660714Y-64452438D02*
X92708333Y-64500057D01*
X93565476Y-64404819D02*
X93375000Y-64404819D01*
X93375000Y-64404819D02*
X93279762Y-64452438D01*
X93279762Y-64452438D02*
X93232143Y-64500057D01*
X93232143Y-64500057D02*
X93136905Y-64642914D01*
X93136905Y-64642914D02*
X93089286Y-64833390D01*
X93089286Y-64833390D02*
X93089286Y-65214342D01*
X93089286Y-65214342D02*
X93136905Y-65309580D01*
X93136905Y-65309580D02*
X93184524Y-65357200D01*
X93184524Y-65357200D02*
X93279762Y-65404819D01*
X93279762Y-65404819D02*
X93470238Y-65404819D01*
X93470238Y-65404819D02*
X93565476Y-65357200D01*
X93565476Y-65357200D02*
X93613095Y-65309580D01*
X93613095Y-65309580D02*
X93660714Y-65214342D01*
X93660714Y-65214342D02*
X93660714Y-64976247D01*
X93660714Y-64976247D02*
X93613095Y-64881009D01*
X93613095Y-64881009D02*
X93565476Y-64833390D01*
X93565476Y-64833390D02*
X93470238Y-64785771D01*
X93470238Y-64785771D02*
X93279762Y-64785771D01*
X93279762Y-64785771D02*
X93184524Y-64833390D01*
X93184524Y-64833390D02*
X93136905Y-64881009D01*
X93136905Y-64881009D02*
X93089286Y-64976247D01*
X58296773Y-69620916D02*
X58308467Y-69687236D01*
X58308467Y-69687236D02*
X58265535Y-69831571D01*
X58265535Y-69831571D02*
X58210909Y-69909585D01*
X58210909Y-69909585D02*
X58089962Y-69999294D01*
X58089962Y-69999294D02*
X57957321Y-70022682D01*
X57957321Y-70022682D02*
X57851993Y-70007063D01*
X57851993Y-70007063D02*
X57668651Y-69936818D01*
X57668651Y-69936818D02*
X57551630Y-69854878D01*
X57551630Y-69854878D02*
X57422914Y-69706618D01*
X57422914Y-69706618D02*
X57372213Y-69612985D01*
X57372213Y-69612985D02*
X57348824Y-69480344D01*
X57348824Y-69480344D02*
X57391757Y-69336009D01*
X57391757Y-69336009D02*
X57446383Y-69257994D01*
X57446383Y-69257994D02*
X57567330Y-69168286D01*
X57567330Y-69168286D02*
X57633650Y-69156592D01*
X58074586Y-68360828D02*
X57801454Y-68750900D01*
X57801454Y-68750900D02*
X58164213Y-69063039D01*
X58164213Y-69063039D02*
X58152519Y-68996719D01*
X58152519Y-68996719D02*
X58168138Y-68891391D01*
X58168138Y-68891391D02*
X58304704Y-68696355D01*
X58304704Y-68696355D02*
X58398338Y-68645654D01*
X58398338Y-68645654D02*
X58464658Y-68633960D01*
X58464658Y-68633960D02*
X58569986Y-68649579D01*
X58569986Y-68649579D02*
X58765022Y-68786144D01*
X58765022Y-68786144D02*
X58815723Y-68879778D01*
X58815723Y-68879778D02*
X58827417Y-68946098D01*
X58827417Y-68946098D02*
X58811798Y-69051426D01*
X58811798Y-69051426D02*
X58675232Y-69246462D01*
X58675232Y-69246462D02*
X58581599Y-69297164D01*
X58581599Y-69297164D02*
X58515278Y-69308858D01*
X59417580Y-43458811D02*
X59822342Y-44159880D01*
X59822342Y-44159880D02*
X59911200Y-44218549D01*
X59911200Y-44218549D02*
X59976249Y-44235978D01*
X59976249Y-44235978D02*
X60082537Y-44229599D01*
X60082537Y-44229599D02*
X60247495Y-44134361D01*
X60247495Y-44134361D02*
X60306164Y-44045502D01*
X60306164Y-44045502D02*
X60323593Y-43980453D01*
X60323593Y-43980453D02*
X60317214Y-43874165D01*
X60317214Y-43874165D02*
X59912452Y-43173097D01*
X60331225Y-43041290D02*
X60348654Y-42976241D01*
X60348654Y-42976241D02*
X60407323Y-42887383D01*
X60407323Y-42887383D02*
X60613520Y-42768335D01*
X60613520Y-42768335D02*
X60719808Y-42761955D01*
X60719808Y-42761955D02*
X60784857Y-42779385D01*
X60784857Y-42779385D02*
X60873715Y-42838054D01*
X60873715Y-42838054D02*
X60921334Y-42920533D01*
X60921334Y-42920533D02*
X60951524Y-43068060D01*
X60951524Y-43068060D02*
X60742366Y-43848646D01*
X60742366Y-43848646D02*
X61278477Y-43539122D01*
X60603620Y-38844628D02*
X60722668Y-39050824D01*
X60468852Y-39087393D02*
X60722668Y-39050824D01*
X60722668Y-39050824D02*
X60881245Y-38849298D01*
X60694188Y-39287210D02*
X60722668Y-39050824D01*
X60722668Y-39050824D02*
X60941624Y-39144353D01*
X60603620Y-38844628D02*
X60722668Y-39050824D01*
X60468852Y-39087393D02*
X60722668Y-39050824D01*
X60722668Y-39050824D02*
X60881245Y-38849298D01*
X60694188Y-39287210D02*
X60722668Y-39050824D01*
X60722668Y-39050824D02*
X60941624Y-39144353D01*
X93045180Y-50313095D02*
X92235657Y-50313095D01*
X92235657Y-50313095D02*
X92140419Y-50360714D01*
X92140419Y-50360714D02*
X92092800Y-50408333D01*
X92092800Y-50408333D02*
X92045180Y-50503571D01*
X92045180Y-50503571D02*
X92045180Y-50694047D01*
X92045180Y-50694047D02*
X92092800Y-50789285D01*
X92092800Y-50789285D02*
X92140419Y-50836904D01*
X92140419Y-50836904D02*
X92235657Y-50884523D01*
X92235657Y-50884523D02*
X93045180Y-50884523D01*
X93045180Y-51836904D02*
X93045180Y-51360714D01*
X93045180Y-51360714D02*
X92568990Y-51313095D01*
X92568990Y-51313095D02*
X92616609Y-51360714D01*
X92616609Y-51360714D02*
X92664228Y-51455952D01*
X92664228Y-51455952D02*
X92664228Y-51694047D01*
X92664228Y-51694047D02*
X92616609Y-51789285D01*
X92616609Y-51789285D02*
X92568990Y-51836904D01*
X92568990Y-51836904D02*
X92473752Y-51884523D01*
X92473752Y-51884523D02*
X92235657Y-51884523D01*
X92235657Y-51884523D02*
X92140419Y-51836904D01*
X92140419Y-51836904D02*
X92092800Y-51789285D01*
X92092800Y-51789285D02*
X92045180Y-51694047D01*
X92045180Y-51694047D02*
X92045180Y-51455952D01*
X92045180Y-51455952D02*
X92092800Y-51360714D01*
X92092800Y-51360714D02*
X92140419Y-51313095D01*
X94871227Y-54708326D02*
X95109322Y-54708326D01*
X95014084Y-54946421D02*
X95109322Y-54708326D01*
X95109322Y-54708326D02*
X95014084Y-54470231D01*
X95299798Y-54851183D02*
X95109322Y-54708326D01*
X95109322Y-54708326D02*
X95299798Y-54565469D01*
X95961588Y-54708327D02*
X95723493Y-54708327D01*
X95818731Y-54470232D02*
X95723493Y-54708327D01*
X95723493Y-54708327D02*
X95818731Y-54946422D01*
X95533017Y-54565470D02*
X95723493Y-54708327D01*
X95723493Y-54708327D02*
X95533017Y-54851184D01*
X56674665Y-42659474D02*
X56920391Y-42132703D01*
X56388950Y-42164602D02*
X57254976Y-41664602D01*
X57254976Y-41664602D02*
X57445452Y-41994517D01*
X57445452Y-41994517D02*
X57451832Y-42100805D01*
X57451832Y-42100805D02*
X57434402Y-42165854D01*
X57434402Y-42165854D02*
X57375733Y-42254712D01*
X57375733Y-42254712D02*
X57252015Y-42326141D01*
X57252015Y-42326141D02*
X57145727Y-42332520D01*
X57145727Y-42332520D02*
X57080678Y-42315090D01*
X57080678Y-42315090D02*
X56991820Y-42256421D01*
X56991820Y-42256421D02*
X56801343Y-41926507D01*
X57707357Y-42448149D02*
X58016880Y-42984260D01*
X58016880Y-42984260D02*
X57520299Y-42886061D01*
X57520299Y-42886061D02*
X57591728Y-43009779D01*
X57591728Y-43009779D02*
X57598108Y-43116067D01*
X57598108Y-43116067D02*
X57580678Y-43181116D01*
X57580678Y-43181116D02*
X57522009Y-43269974D01*
X57522009Y-43269974D02*
X57315812Y-43389022D01*
X57315812Y-43389022D02*
X57209524Y-43395402D01*
X57209524Y-43395402D02*
X57144475Y-43377972D01*
X57144475Y-43377972D02*
X57055617Y-43319303D01*
X57055617Y-43319303D02*
X56912760Y-43071867D01*
X56912760Y-43071867D02*
X56906380Y-42965579D01*
X56906380Y-42965579D02*
X56923810Y-42900530D01*
X84333333Y-38379819D02*
X84000000Y-37903628D01*
X83761905Y-38379819D02*
X83761905Y-37379819D01*
X83761905Y-37379819D02*
X84142857Y-37379819D01*
X84142857Y-37379819D02*
X84238095Y-37427438D01*
X84238095Y-37427438D02*
X84285714Y-37475057D01*
X84285714Y-37475057D02*
X84333333Y-37570295D01*
X84333333Y-37570295D02*
X84333333Y-37713152D01*
X84333333Y-37713152D02*
X84285714Y-37808390D01*
X84285714Y-37808390D02*
X84238095Y-37856009D01*
X84238095Y-37856009D02*
X84142857Y-37903628D01*
X84142857Y-37903628D02*
X83761905Y-37903628D01*
X84714286Y-37475057D02*
X84761905Y-37427438D01*
X84761905Y-37427438D02*
X84857143Y-37379819D01*
X84857143Y-37379819D02*
X85095238Y-37379819D01*
X85095238Y-37379819D02*
X85190476Y-37427438D01*
X85190476Y-37427438D02*
X85238095Y-37475057D01*
X85238095Y-37475057D02*
X85285714Y-37570295D01*
X85285714Y-37570295D02*
X85285714Y-37665533D01*
X85285714Y-37665533D02*
X85238095Y-37808390D01*
X85238095Y-37808390D02*
X84666667Y-38379819D01*
X84666667Y-38379819D02*
X85285714Y-38379819D01*
X89124160Y-44511076D02*
X89135854Y-44577396D01*
X89135854Y-44577396D02*
X89092922Y-44721731D01*
X89092922Y-44721731D02*
X89038296Y-44799745D01*
X89038296Y-44799745D02*
X88917349Y-44889454D01*
X88917349Y-44889454D02*
X88784708Y-44912842D01*
X88784708Y-44912842D02*
X88679380Y-44897223D01*
X88679380Y-44897223D02*
X88496038Y-44826978D01*
X88496038Y-44826978D02*
X88379017Y-44745038D01*
X88379017Y-44745038D02*
X88250301Y-44596778D01*
X88250301Y-44596778D02*
X88199600Y-44503145D01*
X88199600Y-44503145D02*
X88176211Y-44370504D01*
X88176211Y-44370504D02*
X88219144Y-44226169D01*
X88219144Y-44226169D02*
X88273770Y-44148154D01*
X88273770Y-44148154D02*
X88394717Y-44058446D01*
X88394717Y-44058446D02*
X88461037Y-44046752D01*
X89147710Y-43481187D02*
X89693812Y-43863572D01*
X88699086Y-43457718D02*
X89147629Y-44062452D01*
X89147629Y-44062452D02*
X89502700Y-43555358D01*
X54054819Y-62786904D02*
X54864342Y-62786904D01*
X54864342Y-62786904D02*
X54959580Y-62739285D01*
X54959580Y-62739285D02*
X55007200Y-62691666D01*
X55007200Y-62691666D02*
X55054819Y-62596428D01*
X55054819Y-62596428D02*
X55054819Y-62405952D01*
X55054819Y-62405952D02*
X55007200Y-62310714D01*
X55007200Y-62310714D02*
X54959580Y-62263095D01*
X54959580Y-62263095D02*
X54864342Y-62215476D01*
X54864342Y-62215476D02*
X54054819Y-62215476D01*
X54054819Y-61834523D02*
X54054819Y-61215476D01*
X54054819Y-61215476D02*
X54435771Y-61548809D01*
X54435771Y-61548809D02*
X54435771Y-61405952D01*
X54435771Y-61405952D02*
X54483390Y-61310714D01*
X54483390Y-61310714D02*
X54531009Y-61263095D01*
X54531009Y-61263095D02*
X54626247Y-61215476D01*
X54626247Y-61215476D02*
X54864342Y-61215476D01*
X54864342Y-61215476D02*
X54959580Y-61263095D01*
X54959580Y-61263095D02*
X55007200Y-61310714D01*
X55007200Y-61310714D02*
X55054819Y-61405952D01*
X55054819Y-61405952D02*
X55054819Y-61691666D01*
X55054819Y-61691666D02*
X55007200Y-61786904D01*
X55007200Y-61786904D02*
X54959580Y-61834523D01*
X51493813Y-59258941D02*
X51731908Y-59258941D01*
X51636670Y-59497036D02*
X51731908Y-59258941D01*
X51731908Y-59258941D02*
X51636670Y-59020846D01*
X51922384Y-59401798D02*
X51731908Y-59258941D01*
X51731908Y-59258941D02*
X51922384Y-59116084D01*
X51493813Y-59258941D02*
X51731908Y-59258941D01*
X51636670Y-59497036D02*
X51731908Y-59258941D01*
X51731908Y-59258941D02*
X51636670Y-59020846D01*
X51922384Y-59401798D02*
X51731908Y-59258941D01*
X51731908Y-59258941D02*
X51922384Y-59116084D01*
X88186818Y-70459575D02*
X87722495Y-69796452D01*
X87722495Y-69796452D02*
X87628861Y-69745751D01*
X87628861Y-69745751D02*
X87562541Y-69734056D01*
X87562541Y-69734056D02*
X87457213Y-69749676D01*
X87457213Y-69749676D02*
X87301184Y-69858928D01*
X87301184Y-69858928D02*
X87250483Y-69952562D01*
X87250483Y-69952562D02*
X87238789Y-70018882D01*
X87238789Y-70018882D02*
X87254408Y-70124210D01*
X87254408Y-70124210D02*
X87718731Y-70787333D01*
X86786402Y-71033232D02*
X86404017Y-70487131D01*
X87199943Y-71208724D02*
X86985282Y-70487050D01*
X86985282Y-70487050D02*
X86478188Y-70842121D01*
X86439756Y-73802658D02*
X86576322Y-73997694D01*
X86326659Y-74056246D02*
X86576322Y-73997694D01*
X86576322Y-73997694D02*
X86716732Y-73783114D01*
X86568553Y-74235663D02*
X86576322Y-73997694D01*
X86576322Y-73997694D02*
X86802596Y-74071784D01*
X87065161Y-74695831D02*
X86928595Y-74500795D01*
X87178258Y-74442243D02*
X86928595Y-74500795D01*
X86928595Y-74500795D02*
X86788185Y-74715375D01*
X86936364Y-74262826D02*
X86928595Y-74500795D01*
X86928595Y-74500795D02*
X86702321Y-74426705D01*
D11*
%TO.C,U6*%
X66479401Y-73020220D02*
X63816174Y-71155409D01*
X61951363Y-73818636D02*
X64614590Y-75683447D01*
D12*
%TO.C,C1*%
X77443926Y-76817514D02*
X77144230Y-76389504D01*
X78648080Y-75974356D02*
X78348384Y-75546346D01*
%TO.C,C3*%
X64180509Y-37988878D02*
X63728007Y-38250130D01*
X63445509Y-36715820D02*
X62993007Y-36977072D01*
%TO.C,C2*%
X54478439Y-51373270D02*
X55000943Y-51373270D01*
X54478439Y-52843270D02*
X55000943Y-52843270D01*
D11*
%TO.C,U7*%
X80975975Y-40893491D02*
X83639202Y-42758302D01*
X85504013Y-40095075D02*
X82840786Y-38230264D01*
D12*
%TO.C,C6*%
X93215678Y-63527212D02*
X92693174Y-63527212D01*
X93215678Y-62057212D02*
X92693174Y-62057212D01*
%TO.C,C5*%
X58722068Y-70034178D02*
X59021764Y-69606168D01*
X59926222Y-70877336D02*
X60225918Y-70449326D01*
D11*
%TO.C,U2*%
X63559533Y-42618219D02*
X66375155Y-40992619D01*
X64749555Y-38176997D02*
X61933933Y-39802597D01*
%TO.C,U5*%
X91215608Y-55381427D02*
X91215608Y-58632627D01*
X94466808Y-58632627D02*
X94466808Y-55381427D01*
D12*
%TO.C,R3*%
X59178271Y-40636208D02*
X59405335Y-41029494D01*
X57905213Y-41371208D02*
X58132277Y-41764494D01*
%TO.C,R2*%
X82985717Y-35621930D02*
X82531589Y-35621930D01*
X82985717Y-37091930D02*
X82531589Y-37091930D01*
%TO.C,C4*%
X88300955Y-43412270D02*
X88001259Y-43840280D01*
X87096801Y-42569112D02*
X86797105Y-42997122D01*
D11*
%TO.C,U3*%
X52988594Y-55334642D02*
X52988594Y-58585842D01*
X56239794Y-58585842D02*
X56239794Y-55334642D01*
%TO.C,U4*%
X83791608Y-71194226D02*
X81128381Y-73059037D01*
X82993192Y-75722264D02*
X85656419Y-73857453D01*
%TD*%
M02*
