%TF.GenerationSoftware,KiCad,Pcbnew,7.0.10*%
%TF.CreationDate,2024-07-16T17:41:30-07:00*%
%TF.ProjectId,Thermistor Ring,54686572-6d69-4737-946f-722052696e67,rev?*%
%TF.SameCoordinates,Original*%
%TF.FileFunction,Copper,L1,Top*%
%TF.FilePolarity,Positive*%
%FSLAX46Y46*%
G04 Gerber Fmt 4.6, Leading zero omitted, Abs format (unit mm)*
G04 Created by KiCad (PCBNEW 7.0.10) date 2024-07-16 17:41:30*
%MOMM*%
%LPD*%
G01*
G04 APERTURE LIST*
G04 Aperture macros list*
%AMRoundRect*
0 Rectangle with rounded corners*
0 $1 Rounding radius*
0 $2 $3 $4 $5 $6 $7 $8 $9 X,Y pos of 4 corners*
0 Add a 4 corners polygon primitive as box body*
4,1,4,$2,$3,$4,$5,$6,$7,$8,$9,$2,$3,0*
0 Add four circle primitives for the rounded corners*
1,1,$1+$1,$2,$3*
1,1,$1+$1,$4,$5*
1,1,$1+$1,$6,$7*
1,1,$1+$1,$8,$9*
0 Add four rect primitives between the rounded corners*
20,1,$1+$1,$2,$3,$4,$5,0*
20,1,$1+$1,$4,$5,$6,$7,0*
20,1,$1+$1,$6,$7,$8,$9,0*
20,1,$1+$1,$8,$9,$2,$3,0*%
%AMRotRect*
0 Rectangle, with rotation*
0 The origin of the aperture is its center*
0 $1 length*
0 $2 width*
0 $3 Rotation angle, in degrees counterclockwise*
0 Add horizontal line*
21,1,$1,$2,0,0,$3*%
G04 Aperture macros list end*
%TA.AperFunction,SMDPad,CuDef*%
%ADD10RotRect,1.524000X0.457200X145.000000*%
%TD*%
%TA.AperFunction,SMDPad,CuDef*%
%ADD11RoundRect,0.250000X0.532491X0.067661X0.245703X0.477237X-0.532491X-0.067661X-0.245703X-0.477237X0*%
%TD*%
%TA.AperFunction,SMDPad,CuDef*%
%ADD12RoundRect,0.250000X-0.020994X0.536362X-0.454006X0.286362X0.020994X-0.536362X0.454006X-0.286362X0*%
%TD*%
%TA.AperFunction,SMDPad,CuDef*%
%ADD13RoundRect,0.250000X-0.250000X-0.475000X0.250000X-0.475000X0.250000X0.475000X-0.250000X0.475000X0*%
%TD*%
%TA.AperFunction,SMDPad,CuDef*%
%ADD14RotRect,1.524000X0.457200X325.000000*%
%TD*%
%TA.AperFunction,SMDPad,CuDef*%
%ADD15RoundRect,0.250000X0.250000X0.475000X-0.250000X0.475000X-0.250000X-0.475000X0.250000X-0.475000X0*%
%TD*%
%TA.AperFunction,SMDPad,CuDef*%
%ADD16RoundRect,0.250000X0.245703X-0.477237X0.532491X-0.067661X-0.245703X0.477237X-0.532491X0.067661X0*%
%TD*%
%TA.AperFunction,SMDPad,CuDef*%
%ADD17RotRect,1.524000X0.457200X30.000000*%
%TD*%
%TA.AperFunction,SMDPad,CuDef*%
%ADD18R,0.457200X1.524000*%
%TD*%
%TA.AperFunction,SMDPad,CuDef*%
%ADD19RoundRect,0.250000X-0.520961X0.002332X-0.258461X-0.452332X0.520961X-0.002332X0.258461X0.452332X0*%
%TD*%
%TA.AperFunction,SMDPad,CuDef*%
%ADD20RoundRect,0.250000X0.262500X0.450000X-0.262500X0.450000X-0.262500X-0.450000X0.262500X-0.450000X0*%
%TD*%
%TA.AperFunction,SMDPad,CuDef*%
%ADD21RoundRect,0.250000X-0.245703X0.477237X-0.532491X0.067661X0.245703X-0.477237X0.532491X-0.067661X0*%
%TD*%
%TA.AperFunction,SMDPad,CuDef*%
%ADD22RotRect,1.524000X0.457200X215.000000*%
%TD*%
%TA.AperFunction,ComponentPad*%
%ADD23RoundRect,0.250000X-0.600000X-0.725000X0.600000X-0.725000X0.600000X0.725000X-0.600000X0.725000X0*%
%TD*%
%TA.AperFunction,ComponentPad*%
%ADD24O,1.700000X1.950000*%
%TD*%
%TA.AperFunction,ViaPad*%
%ADD25C,0.600000*%
%TD*%
%TA.AperFunction,ViaPad*%
%ADD26C,0.800000*%
%TD*%
%TA.AperFunction,Conductor*%
%ADD27C,0.380000*%
%TD*%
%TA.AperFunction,Conductor*%
%ADD28C,0.160000*%
%TD*%
%TA.AperFunction,Conductor*%
%ADD29C,0.100000*%
%TD*%
G04 APERTURE END LIST*
D10*
%TO.P,U6,1,SDA*%
%TO.N,/SDA*%
X65331066Y-75390892D03*
%TO.P,U6,2,SCL*%
%TO.N,/SCL*%
X65703889Y-74858445D03*
%TO.P,U6,3,ALERT*%
%TO.N,unconnected-(U6-ALERT-Pad3)*%
X66076715Y-74325995D03*
%TO.P,U6,4,GND*%
%TO.N,GND*%
X66449539Y-73793547D03*
%TO.P,U6,5,A2*%
%TO.N,/Power 3.3-5V*%
X63099698Y-71447964D03*
%TO.P,U6,6,A1*%
%TO.N,GND*%
X62726875Y-71980411D03*
%TO.P,U6,7,A0*%
X62354049Y-72512861D03*
%TO.P,U6,8,VDD*%
%TO.N,/Power 3.3-5V*%
X61981225Y-73045309D03*
%TD*%
D11*
%TO.P,C1,1*%
%TO.N,/Power 3.3-5V*%
X78441053Y-76960124D03*
%TO.P,C1,2*%
%TO.N,GND*%
X77351257Y-75403736D03*
%TD*%
D12*
%TO.P,C3,1*%
%TO.N,/Power 3.3-5V*%
X64409482Y-37007975D03*
%TO.P,C3,2*%
%TO.N,GND*%
X62764034Y-37957975D03*
%TD*%
D13*
%TO.P,C2,1*%
%TO.N,/Power 3.3-5V*%
X53789691Y-52108270D03*
%TO.P,C2,2*%
%TO.N,GND*%
X55689691Y-52108270D03*
%TD*%
D14*
%TO.P,U7,1,SDA*%
%TO.N,/SDA*%
X82124310Y-38522819D03*
%TO.P,U7,2,SCL*%
%TO.N,/SCL*%
X81751487Y-39055266D03*
%TO.P,U7,3,ALERT*%
%TO.N,unconnected-(U7-ALERT-Pad3)*%
X81378661Y-39587716D03*
%TO.P,U7,4,GND*%
%TO.N,GND*%
X81005837Y-40120164D03*
%TO.P,U7,5,A2*%
%TO.N,/Power 3.3-5V*%
X84355678Y-42465747D03*
%TO.P,U7,6,A1*%
X84728501Y-41933300D03*
%TO.P,U7,7,A0*%
%TO.N,GND*%
X85101327Y-41400850D03*
%TO.P,U7,8,VDD*%
%TO.N,/Power 3.3-5V*%
X85474151Y-40868402D03*
%TD*%
D15*
%TO.P,C6,1*%
%TO.N,/Power 3.3-5V*%
X93904426Y-62792212D03*
%TO.P,C6,2*%
%TO.N,GND*%
X92004426Y-62792212D03*
%TD*%
D16*
%TO.P,C5,1*%
%TO.N,/Power 3.3-5V*%
X58929095Y-71019946D03*
%TO.P,C5,2*%
%TO.N,GND*%
X60018891Y-69463558D03*
%TD*%
D17*
%TO.P,U2,1,SDA*%
%TO.N,/SDA*%
X61896282Y-40575584D03*
%TO.P,U2,2,SCL*%
%TO.N,/SCL*%
X62221281Y-41138499D03*
%TO.P,U2,3,ALERT*%
%TO.N,unconnected-(U2-ALERT-Pad3)*%
X62546282Y-41701417D03*
%TO.P,U2,4,GND*%
%TO.N,GND*%
X62871281Y-42264332D03*
%TO.P,U2,5,A2*%
X66412806Y-40219632D03*
%TO.P,U2,6,A1*%
%TO.N,/Power 3.3-5V*%
X66087807Y-39656717D03*
%TO.P,U2,7,A0*%
%TO.N,GND*%
X65762806Y-39093799D03*
%TO.P,U2,8,VDD*%
%TO.N,/Power 3.3-5V*%
X65437807Y-38530884D03*
%TD*%
D18*
%TO.P,U5,1,SDA*%
%TO.N,/SDA*%
X93816207Y-54962327D03*
%TO.P,U5,2,SCL*%
%TO.N,/SCL*%
X93166209Y-54962327D03*
%TO.P,U5,3,ALERT*%
%TO.N,unconnected-(U5-ALERT-Pad3)*%
X92516207Y-54962327D03*
%TO.P,U5,4,GND*%
%TO.N,GND*%
X91866209Y-54962327D03*
%TO.P,U5,5,A2*%
%TO.N,/Power 3.3-5V*%
X91866209Y-59051727D03*
%TO.P,U5,6,A1*%
%TO.N,GND*%
X92516207Y-59051727D03*
%TO.P,U5,7,A0*%
%TO.N,/Power 3.3-5V*%
X93166209Y-59051727D03*
%TO.P,U5,8,VDD*%
X93816207Y-59051727D03*
%TD*%
D19*
%TO.P,R3,1*%
%TO.N,/Power 3.3-5V*%
X58199024Y-40410103D03*
%TO.P,R3,2*%
%TO.N,/SDA*%
X59111524Y-41990599D03*
%TD*%
D20*
%TO.P,R2,2*%
%TO.N,/SCL*%
X81846153Y-36356930D03*
%TO.P,R2,1*%
%TO.N,/Power 3.3-5V*%
X83671153Y-36356930D03*
%TD*%
D21*
%TO.P,C4,1*%
%TO.N,/Power 3.3-5V*%
X88093928Y-42426502D03*
%TO.P,C4,2*%
%TO.N,GND*%
X87004132Y-43982890D03*
%TD*%
D18*
%TO.P,U3,8,VDD*%
%TO.N,/Power 3.3-5V*%
X53639195Y-54915542D03*
%TO.P,U3,7,A0*%
X54289193Y-54915542D03*
%TO.P,U3,6,A1*%
%TO.N,GND*%
X54939195Y-54915542D03*
%TO.P,U3,5,A2*%
X55589193Y-54915542D03*
%TO.P,U3,4,GND*%
X55589193Y-59004942D03*
%TO.P,U3,3,ALERT*%
%TO.N,unconnected-(U3-ALERT-Pad3)*%
X54939195Y-59004942D03*
%TO.P,U3,2,SCL*%
%TO.N,/SCL*%
X54289193Y-59004942D03*
%TO.P,U3,1,SDA*%
%TO.N,/SDA*%
X53639195Y-59004942D03*
%TD*%
D22*
%TO.P,U4,1,SDA*%
%TO.N,/SDA*%
X85626557Y-73084126D03*
%TO.P,U4,2,SCL*%
%TO.N,/SCL*%
X85253733Y-72551678D03*
%TO.P,U4,3,ALERT*%
%TO.N,unconnected-(U4-ALERT-Pad3)*%
X84880907Y-72019228D03*
%TO.P,U4,4,GND*%
%TO.N,GND*%
X84508084Y-71486781D03*
%TO.P,U4,5,A2*%
X81158243Y-73832364D03*
%TO.P,U4,6,A1*%
X81531067Y-74364812D03*
%TO.P,U4,7,A0*%
X81903893Y-74897262D03*
%TO.P,U4,8,VDD*%
%TO.N,/Power 3.3-5V*%
X82276716Y-75429709D03*
%TD*%
D23*
%TO.P,J1,1,Pin_1*%
%TO.N,GND*%
X69932085Y-37702705D03*
D24*
%TO.P,J1,2,Pin_2*%
%TO.N,/Power 3.3-5V*%
X72432085Y-37702705D03*
%TO.P,J1,3,Pin_3*%
%TO.N,/SDA*%
X74932085Y-37702705D03*
%TO.P,J1,4,Pin_4*%
%TO.N,/SCL*%
X77432085Y-37702705D03*
%TD*%
D25*
%TO.N,GND*%
X60705267Y-71268878D03*
X61385274Y-70951522D03*
X65013387Y-41857681D03*
X51977412Y-53674709D03*
X70427397Y-79294718D03*
X61842848Y-39725021D03*
X62042823Y-43254887D03*
X82486952Y-73370784D03*
X79557776Y-75483302D03*
X65210116Y-72997215D03*
X76721744Y-39480668D03*
X63800639Y-42620865D03*
X83374673Y-40915366D03*
X90994938Y-66168897D03*
X82354170Y-41784633D03*
X94485855Y-66667213D03*
X89660857Y-66442214D03*
X63254817Y-74844625D03*
X56964690Y-52008268D03*
X64647283Y-39845949D03*
X90732854Y-40165010D03*
X69102081Y-40372702D03*
X59249495Y-65783415D03*
X90187408Y-71354706D03*
X84286408Y-74723221D03*
X52896485Y-56983106D03*
X56447392Y-65154707D03*
X84267123Y-39048454D03*
X92210854Y-60767211D03*
X81190757Y-41012264D03*
X83998186Y-40460774D03*
X55266914Y-56471120D03*
X85546148Y-37081932D03*
X92525895Y-57491885D03*
X58267356Y-43606548D03*
X86837385Y-39354711D03*
X55814691Y-50483271D03*
X83335520Y-72263873D03*
X74946151Y-76256930D03*
X61732850Y-38845011D03*
X59502852Y-47845011D03*
X82453077Y-72148750D03*
X76897398Y-33674716D03*
X91310853Y-57592211D03*
X63411014Y-73422141D03*
X78963895Y-40753471D03*
X88312844Y-65135011D03*
X68282089Y-37722711D03*
X55769383Y-42248598D03*
X56301887Y-67623864D03*
X93421153Y-46706934D03*
X56400621Y-55570857D03*
X56309411Y-56955724D03*
X94777509Y-56748083D03*
X53424949Y-60918909D03*
X64920601Y-72371882D03*
X54737405Y-70564707D03*
X72647398Y-76534717D03*
X53527684Y-46416487D03*
X92160855Y-64742214D03*
X91307346Y-51366406D03*
X88464455Y-45001738D03*
X85660775Y-43107231D03*
X96337404Y-54704715D03*
X72212093Y-40022728D03*
X51689688Y-50633268D03*
X73127402Y-80734716D03*
X91895888Y-56351892D03*
X66220636Y-41180849D03*
X55596910Y-57431115D03*
X97792077Y-57042709D03*
X56284931Y-58358897D03*
X63955896Y-72888074D03*
X53668023Y-48186014D03*
X65246917Y-40804552D03*
X69982086Y-35932715D03*
X63500639Y-39223649D03*
X56762745Y-71102434D03*
X72987405Y-33734711D03*
%TO.N,/Power 3.3-5V*%
X57962641Y-48144437D03*
X58896624Y-46895543D03*
X56843512Y-48399545D03*
D26*
%TO.N,/SDA*%
X97032194Y-52087728D03*
X87085967Y-72250251D03*
X88382294Y-75109204D03*
X50804196Y-57929713D03*
X67568186Y-76471716D03*
X93222181Y-52595709D03*
D25*
X52836184Y-59961713D03*
X66044186Y-78757723D03*
%TD*%
D27*
%TO.N,/Power 3.3-5V*%
X80473610Y-77924486D02*
X80229879Y-77881510D01*
X78021751Y-78560204D02*
X77982200Y-78503721D01*
X80229879Y-77881510D02*
X79011392Y-78734706D01*
X79011392Y-78734706D02*
X78021751Y-78560204D01*
X57944366Y-71899303D02*
X57104496Y-70403408D01*
X77982200Y-78503721D02*
X75442187Y-78757723D01*
X75442187Y-78757723D02*
X70870189Y-78503722D01*
X61089861Y-74468028D02*
X58421520Y-72263922D01*
X70870189Y-78503722D02*
X67568182Y-77741721D01*
X67568182Y-77741721D02*
X63250195Y-75709714D01*
X63250195Y-75709714D02*
X61089861Y-74468028D01*
X58421520Y-72263922D02*
X57944366Y-71899303D01*
X79806508Y-77200897D02*
X79989546Y-77233172D01*
X79989546Y-77233172D02*
X80473610Y-77924486D01*
X93237706Y-66042213D02*
X91444186Y-67835731D01*
X91444186Y-67835731D02*
X89666183Y-69867720D01*
X88534128Y-72982394D02*
X81274426Y-78065692D01*
X89666183Y-69867720D02*
X88904183Y-70883713D01*
X88904183Y-70883713D02*
X88534128Y-72982394D01*
X81274426Y-78065692D02*
X80473610Y-77924486D01*
X91866207Y-59051731D02*
X91287653Y-59630282D01*
X91287653Y-59630282D02*
X91287662Y-59647383D01*
X91287662Y-59647383D02*
X90960855Y-59974189D01*
X90960855Y-59974189D02*
X90960855Y-64967211D01*
X90960855Y-64967211D02*
X92035856Y-66042213D01*
X92035856Y-66042213D02*
X93237706Y-66042213D01*
X95682610Y-63995458D02*
X94973355Y-64704713D01*
X94973355Y-64704713D02*
X93635854Y-66042212D01*
X94542217Y-63721690D02*
X94973355Y-64704713D01*
X94542217Y-63721690D02*
X93904425Y-63083898D01*
X93904425Y-63083898D02*
X93904423Y-62792214D01*
X93904423Y-62792214D02*
X93815886Y-62703672D01*
X93815886Y-62703672D02*
X93815885Y-59052037D01*
X93815885Y-59052037D02*
X93816196Y-59051733D01*
X95682608Y-53265419D02*
X95682610Y-63995458D01*
X93635854Y-66042212D02*
X93237706Y-66042213D01*
X94429478Y-52012296D02*
X95682608Y-53265419D01*
X94429484Y-50422304D02*
X94429478Y-52012296D01*
X88396161Y-42689709D02*
X90174191Y-44213710D01*
X92219476Y-48212287D02*
X94429484Y-50422304D01*
X92219474Y-46259006D02*
X92219476Y-48212287D01*
X90174191Y-44213710D02*
X92219474Y-46259006D01*
X87126186Y-41673715D02*
X88396161Y-42689709D01*
X85875112Y-40797705D02*
X87126186Y-41673715D01*
X85474148Y-40868409D02*
X85875112Y-40797705D01*
X57893992Y-70264190D02*
X57366485Y-69894829D01*
X57366485Y-69894829D02*
X57274484Y-69373054D01*
X57274484Y-69373054D02*
X58214796Y-68030149D01*
X58214796Y-68030149D02*
X59558147Y-67793281D01*
X59558147Y-67793281D02*
X62863367Y-70107622D01*
X62863367Y-70107622D02*
X63099704Y-71447957D01*
D28*
%TO.N,/SCL*%
X56900183Y-59453724D02*
X56900188Y-59922773D01*
X56900188Y-59922773D02*
X56363810Y-60459155D01*
X54811442Y-60459150D02*
X54364174Y-60011896D01*
X56363810Y-60459155D02*
X54811442Y-60459150D01*
X54364174Y-60011896D02*
X54364187Y-58357253D01*
%TO.N,/SDA*%
X59914349Y-40468288D02*
X61896283Y-40575586D01*
X60381066Y-42315592D02*
X57156376Y-46920927D01*
X50804190Y-55643730D02*
X50804196Y-57929713D01*
X61896283Y-40575586D02*
X61869348Y-40676134D01*
X61869348Y-40676134D02*
X60562381Y-41430705D01*
X60562381Y-41430705D02*
X60358926Y-42190027D01*
X57156376Y-46920927D02*
X57438504Y-48520975D01*
X60358926Y-42190027D02*
X60381066Y-42315592D01*
X57438504Y-48520975D02*
X56826209Y-49133276D01*
X56826209Y-49133276D02*
X54364690Y-49133269D01*
X51058200Y-53865731D02*
X50804190Y-55643730D01*
X54364690Y-49133269D02*
X51058198Y-52439761D01*
X51058198Y-52439761D02*
X51058200Y-53865731D01*
D27*
%TO.N,/Power 3.3-5V*%
X57962641Y-48144437D02*
X58040400Y-48585421D01*
X58040400Y-48585421D02*
X57288034Y-49659900D01*
X57288034Y-49659900D02*
X55288058Y-49659904D01*
X55288058Y-49659904D02*
X53664193Y-51283762D01*
X53664193Y-51283762D02*
X53664189Y-53357696D01*
X56900188Y-70121716D02*
X57104496Y-70403408D01*
X61981232Y-73045305D02*
X61507004Y-72713253D01*
X58964419Y-71013713D02*
X58929104Y-71019942D01*
X61507004Y-72713253D02*
X61401701Y-72731811D01*
X61401701Y-72731811D02*
X60485844Y-72090533D01*
X58929104Y-71019942D02*
X57900210Y-70299506D01*
X60485844Y-72090533D02*
X60483552Y-72077422D01*
X60483552Y-72077422D02*
X58964419Y-71013713D01*
X57900210Y-70299506D02*
X57893992Y-70264190D01*
X80275519Y-76872491D02*
X79806508Y-77200897D01*
X79806508Y-77200897D02*
X78441045Y-76960118D01*
D28*
%TO.N,/SDA*%
X97032194Y-52087728D02*
X96016194Y-48531715D01*
X96016194Y-48531715D02*
X93984179Y-44213721D01*
X83111882Y-38348692D02*
X82124317Y-38522820D01*
X93984179Y-44213721D02*
X87902396Y-38131926D01*
X87902396Y-38131926D02*
X83328652Y-38131929D01*
X83328652Y-38131929D02*
X83111882Y-38348692D01*
%TO.N,/SCL*%
X77432083Y-37702710D02*
X78052082Y-37082710D01*
X78052082Y-37082710D02*
X80402969Y-37082708D01*
X80402969Y-37082708D02*
X81487448Y-35998232D01*
X81487448Y-35998232D02*
X81555393Y-36066160D01*
X81555393Y-36066160D02*
X81555389Y-36647696D01*
X81555389Y-36647696D02*
X80825608Y-37377477D01*
X80825608Y-37377477D02*
X80825599Y-38498546D01*
D27*
%TO.N,/Power 3.3-5V*%
X81473755Y-34989424D02*
X82303652Y-34989424D01*
X82303652Y-34989424D02*
X83671154Y-36356924D01*
X64448744Y-35346138D02*
X60504212Y-37623523D01*
X60504212Y-37623523D02*
X60133418Y-39007336D01*
X65182458Y-35542742D02*
X64448744Y-35346138D01*
X68330197Y-34561733D02*
X68076178Y-34815723D01*
X72432090Y-37702712D02*
X72432079Y-36372715D01*
X72432079Y-36372715D02*
X70621095Y-34561725D01*
X68076178Y-34815723D02*
X66959808Y-34516579D01*
X72432090Y-36522720D02*
X72432090Y-37702712D01*
X66959808Y-34516579D02*
X65182458Y-35542742D01*
X81473755Y-34989424D02*
X80998223Y-34513888D01*
X74440917Y-34513886D02*
X72432090Y-36522720D01*
X80998223Y-34513888D02*
X74440917Y-34513886D01*
X70621095Y-34561725D02*
X68330197Y-34561733D01*
X60133418Y-39007336D02*
X58199029Y-40410097D01*
X58199029Y-40410097D02*
X57119943Y-41033107D01*
X57119943Y-41033107D02*
X56636999Y-42835474D01*
X56578939Y-48328657D02*
X56843512Y-48399545D01*
X56636999Y-42835474D02*
X56811996Y-43138584D01*
X56811996Y-43138584D02*
X55788276Y-46959190D01*
X55788276Y-46959190D02*
X56578939Y-48328657D01*
D28*
%TO.N,/SDA*%
X59635251Y-40744882D02*
X59111533Y-41990595D01*
D27*
%TO.N,/Power 3.3-5V*%
X53344197Y-64533716D02*
X52836183Y-63263733D01*
X52235825Y-54786079D02*
X53664181Y-53357712D01*
X84728501Y-41933301D02*
X84355672Y-42465758D01*
X57586808Y-70049107D02*
X57319596Y-70096222D01*
X67221135Y-37863989D02*
X66131210Y-37571954D01*
X87170672Y-41815572D02*
X86954079Y-42124889D01*
X84738648Y-41990857D02*
X85066881Y-42220692D01*
X67555866Y-38443790D02*
X67440075Y-38876003D01*
X53204274Y-53979816D02*
X54140007Y-54915555D01*
X52235829Y-54974083D02*
X52235825Y-54786079D01*
X93749934Y-61218903D02*
X93749943Y-60681247D01*
X57893992Y-70264190D02*
X57586808Y-70049107D01*
X67440075Y-38876003D02*
X65663707Y-39901576D01*
X67497564Y-41179057D02*
X68016633Y-39241858D01*
X65396865Y-37995926D02*
X65311940Y-38312870D01*
X54868181Y-67327723D02*
X53344197Y-64533716D01*
X59687653Y-46438845D02*
X59925650Y-45550708D01*
X84728501Y-41933301D02*
X84738648Y-41990857D01*
X93749943Y-60681247D02*
X93166197Y-60097505D01*
X86954079Y-42124889D02*
X85394762Y-42399834D01*
X52836183Y-63263733D02*
X52074184Y-59707703D01*
X66131210Y-37571954D02*
X65396865Y-37995926D01*
X80275519Y-76872491D02*
X82268355Y-75477089D01*
X52074184Y-59707703D02*
X51820184Y-55389714D01*
X65396865Y-37995926D02*
X64892179Y-37860702D01*
X85394762Y-42399834D02*
X84728501Y-41933301D01*
X53042102Y-53979816D02*
X53204274Y-53979816D01*
X82268355Y-75477089D02*
X82276712Y-75429723D01*
X51820184Y-55389714D02*
X52235829Y-54974083D01*
X59925650Y-45550708D02*
X67497564Y-41179057D01*
X68016633Y-39241858D02*
X67221135Y-37863989D01*
X58896624Y-46895543D02*
X59687653Y-46438845D01*
X52235825Y-54786079D02*
X53042102Y-53979816D01*
X64892179Y-37860702D02*
X64527470Y-37229021D01*
X56900188Y-70121716D02*
X54868181Y-67327723D01*
X57319596Y-70096222D02*
X57104496Y-70403408D01*
X65311940Y-38312870D02*
X65437815Y-38530892D01*
X54140007Y-54915555D02*
X54289191Y-54915549D01*
X93166197Y-60097505D02*
X93166204Y-59051733D01*
D28*
%TO.N,/SDA*%
X93816197Y-53189728D02*
X93816198Y-54962335D01*
X93222181Y-52595709D02*
X93816197Y-53189728D01*
X68492079Y-39212705D02*
X73422089Y-39212706D01*
X59635251Y-40744882D02*
X59914349Y-40468288D01*
X90654817Y-73579015D02*
X90682197Y-73423742D01*
X67876923Y-38119869D02*
X67871916Y-38138562D01*
X67871916Y-38138562D02*
X68492079Y-39212705D01*
X61182389Y-37658695D02*
X64500407Y-35743041D01*
X80522189Y-79519734D02*
X79252185Y-79773720D01*
X88382294Y-75109204D02*
X88451926Y-75121482D01*
X53299757Y-59961724D02*
X53639191Y-59622287D01*
X90682197Y-73423742D02*
X92968205Y-70883721D01*
X92968205Y-70883721D02*
X94746189Y-68089698D01*
X70362186Y-80027720D02*
X68838199Y-79773706D01*
X96778187Y-63263729D02*
X97286201Y-60977728D01*
X51312181Y-61231711D02*
X51820180Y-63263712D01*
X59914349Y-40468288D02*
X60523863Y-40116397D01*
X57662187Y-73169720D02*
X60710188Y-75709725D01*
X52836171Y-66057726D02*
X53852187Y-68089718D01*
X55884181Y-71137704D02*
X57662187Y-73169720D01*
X64500407Y-35743041D02*
X66871470Y-36378367D01*
X53639191Y-59622287D02*
X53639200Y-58582238D01*
X76331481Y-80155020D02*
X70489486Y-80155017D01*
X94746189Y-68089698D02*
X95762179Y-66057726D01*
X66988259Y-76573969D02*
X64989396Y-75174346D01*
X60523863Y-40116397D02*
X61182389Y-37658695D01*
X66871470Y-36378367D02*
X67876923Y-38119869D01*
X67314201Y-79265726D02*
X66044186Y-78757723D01*
X93816198Y-54962335D02*
X93816202Y-55385038D01*
X53852187Y-68089718D02*
X55884181Y-71137704D01*
X84840196Y-77741734D02*
X80522189Y-79519734D01*
X95762179Y-66057726D02*
X96778187Y-63263729D01*
X51058192Y-59961713D02*
X51312181Y-61231711D01*
X70489486Y-80155017D02*
X70362186Y-80027720D01*
X50804196Y-57929713D02*
X51058192Y-59961713D01*
X97292106Y-60971827D02*
X97292085Y-53517190D01*
X88451926Y-75121482D02*
X90654817Y-73579015D01*
X79252185Y-79773720D02*
X76458200Y-80281724D01*
X68838199Y-79773706D02*
X67314201Y-79265726D01*
X97292085Y-53517190D02*
X97032194Y-52087728D01*
X60710188Y-75709725D02*
X64266192Y-77995716D01*
X97286201Y-60977728D02*
X97292106Y-60971827D01*
X67568186Y-76471716D02*
X66988259Y-76573969D01*
X64266192Y-77995716D02*
X66044186Y-78757723D01*
X88351656Y-75282956D02*
X84840196Y-77741734D01*
X52836184Y-59961713D02*
X53299757Y-59961724D01*
X52328167Y-64787709D02*
X52836171Y-66057726D01*
X73422089Y-39212706D02*
X74883385Y-37751420D01*
X76458200Y-80281724D02*
X76331481Y-80155020D01*
X88382294Y-75109204D02*
X88351656Y-75282956D01*
X85640295Y-73006151D02*
X85626554Y-73084127D01*
X87085967Y-72250251D02*
X86793490Y-72198680D01*
X86793490Y-72198680D02*
X85640295Y-73006151D01*
D29*
X62569713Y-40446591D02*
X61982366Y-40785708D01*
D28*
X51820180Y-63263712D02*
X52328167Y-64787709D01*
%TO.N,/SCL*%
X67740434Y-72980942D02*
X58384936Y-66430157D01*
X67509944Y-75012895D02*
X66243424Y-75236223D01*
X67822176Y-72966531D02*
X68047630Y-74245041D01*
X86110191Y-45483712D02*
X87634185Y-47515733D01*
X89666184Y-63009728D02*
X88904192Y-65295718D01*
X84825922Y-69865202D02*
X80036903Y-73218519D01*
X80036903Y-73218519D02*
X79760174Y-73169721D01*
X65234736Y-74529942D02*
X65216333Y-74425527D01*
X90030553Y-53511890D02*
X92765882Y-53511881D01*
X77728189Y-73677708D02*
X74426185Y-74185728D01*
X85936251Y-69574416D02*
X85979315Y-69635897D01*
X62697187Y-41054589D02*
X61842101Y-41205370D01*
X79760174Y-73169721D02*
X77728189Y-73677708D01*
X93135895Y-55565314D02*
X93091175Y-55610031D01*
X79636347Y-40047148D02*
X79739618Y-40632761D01*
X58170182Y-50563710D02*
X57662192Y-52087706D01*
X62819711Y-40879621D02*
X62697187Y-41054589D01*
X58545958Y-49737033D02*
X58170182Y-50563710D01*
X57154198Y-54373727D02*
X56900188Y-56151719D01*
X71632169Y-73931721D02*
X68330186Y-73169715D01*
X86355093Y-71780499D02*
X85253727Y-72551673D01*
X87634185Y-47515733D02*
X88650173Y-49293725D01*
X87888180Y-66819721D02*
X85253830Y-69454075D01*
X88904192Y-65295718D02*
X87888180Y-66819721D01*
X80936738Y-38484769D02*
X80701269Y-38526292D01*
X80701269Y-38526292D02*
X79636347Y-40047148D01*
X85253830Y-69454075D02*
X85936251Y-69574416D01*
X90428185Y-55897720D02*
X90421728Y-55904188D01*
X58384936Y-66430157D02*
X57916189Y-63771715D01*
X85979315Y-69635897D02*
X86581573Y-70496007D01*
X58715896Y-49494356D02*
X58545958Y-49737033D01*
X84840163Y-44213727D02*
X86110191Y-45483712D01*
X92765882Y-53511881D02*
X93135893Y-53881891D01*
X74426185Y-74185728D02*
X71632169Y-73931721D01*
X90131855Y-54119724D02*
X90428185Y-55897720D01*
X66243424Y-75236223D02*
X65234736Y-74529942D01*
X57662192Y-52087706D02*
X57154198Y-54373727D01*
X67822176Y-72966531D02*
X67740434Y-72980942D01*
X93135893Y-53881891D02*
X93135895Y-55565314D01*
X68330186Y-73169715D02*
X67822176Y-72966531D01*
X84840187Y-69867728D02*
X84825922Y-69865202D01*
X90174179Y-60723710D02*
X89666184Y-63009728D01*
X58177208Y-46439359D02*
X58715896Y-49494356D01*
X90319328Y-59707713D02*
X90174179Y-60723710D01*
X90428181Y-58945710D02*
X90319328Y-59707713D01*
X57916189Y-63771715D02*
X57154183Y-61231717D01*
X86581573Y-70496007D02*
X86355093Y-71780499D01*
X90421735Y-58939269D02*
X90428181Y-58945710D01*
X90131850Y-53613194D02*
X90030553Y-53511890D01*
X68047630Y-74245041D02*
X67509944Y-75012895D01*
X88650173Y-49293725D02*
X89666182Y-51325716D01*
X85253830Y-69454075D02*
X84840187Y-69867728D01*
X81751487Y-39055273D02*
X80936738Y-38484769D01*
X90421728Y-55904188D02*
X90421735Y-58939269D01*
X84838254Y-44202880D02*
X84840163Y-44213727D01*
X89666182Y-51325716D02*
X90131855Y-54119724D01*
X61842101Y-41205370D02*
X58177208Y-46439359D01*
X56900188Y-56151719D02*
X56900183Y-59453724D01*
X79739618Y-40632761D02*
X84838254Y-44202880D01*
X57154183Y-61231717D02*
X56900183Y-59453724D01*
X90131855Y-54119724D02*
X90131850Y-53613194D01*
%TD*%
%TA.AperFunction,Conductor*%
%TO.N,GND*%
G36*
X60143885Y-37315511D02*
G01*
X60191755Y-37366404D01*
X60204512Y-37435100D01*
X60188546Y-37484469D01*
X60177020Y-37504433D01*
X60170060Y-37543904D01*
X60167719Y-37554462D01*
X59845055Y-38758654D01*
X59808690Y-38818314D01*
X59798075Y-38826944D01*
X58760468Y-39579385D01*
X58694641Y-39602805D01*
X58632652Y-39588331D01*
X58632317Y-39589085D01*
X58628390Y-39587336D01*
X58626601Y-39586919D01*
X58624257Y-39585496D01*
X58623405Y-39585117D01*
X58623402Y-39585116D01*
X58597352Y-39578136D01*
X58500124Y-39552083D01*
X58372674Y-39558763D01*
X58283495Y-39592995D01*
X58283490Y-39592998D01*
X57449153Y-40074703D01*
X57449141Y-40074711D01*
X57374917Y-40134817D01*
X57305407Y-40241855D01*
X57272374Y-40365132D01*
X57272374Y-40365133D01*
X57277758Y-40467866D01*
X57261609Y-40535844D01*
X57215928Y-40581742D01*
X56966151Y-40725951D01*
X56956558Y-40730945D01*
X56920230Y-40747885D01*
X56891883Y-40776231D01*
X56883912Y-40783534D01*
X56853213Y-40809293D01*
X56851301Y-40811572D01*
X56836433Y-40830949D01*
X56834722Y-40833392D01*
X56817782Y-40869719D01*
X56812791Y-40879305D01*
X56792753Y-40914015D01*
X56792750Y-40914022D01*
X56785790Y-40953488D01*
X56783450Y-40964044D01*
X56311057Y-42727035D01*
X56307805Y-42737348D01*
X56294100Y-42775005D01*
X56294098Y-42775013D01*
X56294098Y-42815094D01*
X56293626Y-42825899D01*
X56290133Y-42865820D01*
X56290395Y-42868820D01*
X56293574Y-42892964D01*
X56294098Y-42895936D01*
X56307806Y-42933598D01*
X56311058Y-42943912D01*
X56321431Y-42982624D01*
X56344421Y-43015458D01*
X56350233Y-43024581D01*
X56418338Y-43142546D01*
X56434809Y-43210447D01*
X56430725Y-43236638D01*
X55462333Y-46850756D01*
X55459081Y-46861070D01*
X55445377Y-46898724D01*
X55445375Y-46898732D01*
X55445375Y-46938811D01*
X55444903Y-46949616D01*
X55441410Y-46989537D01*
X55441672Y-46992537D01*
X55444852Y-47016689D01*
X55445375Y-47019652D01*
X55459086Y-47057325D01*
X55462337Y-47067638D01*
X55472707Y-47106339D01*
X55472708Y-47106340D01*
X55495701Y-47139180D01*
X55501511Y-47148301D01*
X55983621Y-47983337D01*
X56268833Y-48477339D01*
X56271789Y-48482458D01*
X56276783Y-48492051D01*
X56293722Y-48528376D01*
X56322054Y-48556707D01*
X56329363Y-48564683D01*
X56355125Y-48595385D01*
X56357445Y-48597332D01*
X56376757Y-48612150D01*
X56379227Y-48613879D01*
X56379229Y-48613881D01*
X56415558Y-48630820D01*
X56425141Y-48635809D01*
X56440944Y-48644933D01*
X56454758Y-48652909D01*
X56486468Y-48679091D01*
X56500401Y-48695171D01*
X56529427Y-48758725D01*
X56519484Y-48827884D01*
X56473730Y-48880688D01*
X56406691Y-48900374D01*
X56406689Y-48900374D01*
X54374021Y-48900369D01*
X54367531Y-48900199D01*
X54327444Y-48898098D01*
X54327443Y-48898098D01*
X54327442Y-48898098D01*
X54327438Y-48898099D01*
X54307445Y-48905773D01*
X54288792Y-48911298D01*
X54267845Y-48915750D01*
X54265805Y-48917233D01*
X54237364Y-48932675D01*
X54235011Y-48933577D01*
X54219865Y-48948723D01*
X54205076Y-48961353D01*
X54187748Y-48973943D01*
X54187741Y-48973950D01*
X54186481Y-48976134D01*
X54166779Y-49001808D01*
X50900114Y-52268472D01*
X50895409Y-52272937D01*
X50865569Y-52299807D01*
X50865567Y-52299810D01*
X50856854Y-52319378D01*
X50847574Y-52336470D01*
X50835910Y-52354431D01*
X50835909Y-52354433D01*
X50835514Y-52356929D01*
X50826325Y-52387947D01*
X50825298Y-52390254D01*
X50825298Y-52411672D01*
X50823771Y-52431070D01*
X50820556Y-52451372D01*
X50820421Y-52452222D01*
X50821073Y-52454657D01*
X50825298Y-52486748D01*
X50825298Y-53840361D01*
X50824052Y-53857898D01*
X50580664Y-55561551D01*
X50571385Y-55593775D01*
X50571290Y-55594226D01*
X50571290Y-55618364D01*
X50570236Y-55633184D01*
X50570168Y-55635020D01*
X50571007Y-55647412D01*
X50571290Y-55655783D01*
X50571293Y-57350360D01*
X50551609Y-57417399D01*
X50522780Y-57448736D01*
X50409861Y-57535381D01*
X50321238Y-57650878D01*
X50265527Y-57785376D01*
X50265526Y-57785378D01*
X50246525Y-57929711D01*
X50246525Y-57929714D01*
X50265526Y-58074047D01*
X50265528Y-58074052D01*
X50321236Y-58208544D01*
X50321236Y-58208545D01*
X50321238Y-58208548D01*
X50321239Y-58208549D01*
X50409863Y-58324046D01*
X50525360Y-58412670D01*
X50568915Y-58430711D01*
X50623318Y-58474552D01*
X50644504Y-58529892D01*
X50819358Y-59928740D01*
X50818553Y-59945791D01*
X50820263Y-59945812D01*
X50820105Y-59958844D01*
X50827258Y-59994607D01*
X50828708Y-60003539D01*
X50830127Y-60014894D01*
X50830162Y-60014993D01*
X50834592Y-60031283D01*
X51071794Y-61217336D01*
X51074123Y-61237241D01*
X51074227Y-61240167D01*
X51084177Y-61279969D01*
X51085470Y-61285720D01*
X51088604Y-61301387D01*
X51090537Y-61307591D01*
X51090340Y-61307652D01*
X51093252Y-61316270D01*
X51579281Y-63260390D01*
X51580562Y-63277620D01*
X51582117Y-63277445D01*
X51583577Y-63290398D01*
X51594897Y-63324360D01*
X51597555Y-63333487D01*
X51600170Y-63343945D01*
X51600511Y-63344643D01*
X51606728Y-63359853D01*
X52087736Y-64802912D01*
X52092287Y-64821002D01*
X52093538Y-64828240D01*
X52108030Y-64864470D01*
X52110536Y-64871310D01*
X52114957Y-64884574D01*
X52117578Y-64890343D01*
X52121926Y-64899212D01*
X52597468Y-66088075D01*
X52601194Y-66105318D01*
X52602443Y-66104994D01*
X52605721Y-66117607D01*
X52621214Y-66148594D01*
X52625433Y-66157987D01*
X52629016Y-66166945D01*
X52629022Y-66166954D01*
X52630084Y-66168541D01*
X52637953Y-66182069D01*
X53620200Y-68146526D01*
X53627945Y-68170183D01*
X53630942Y-68177715D01*
X53630943Y-68177718D01*
X53645256Y-68199188D01*
X53646081Y-68200425D01*
X53653814Y-68213752D01*
X53654821Y-68215767D01*
X53654823Y-68215770D01*
X53660613Y-68223032D01*
X53666830Y-68231549D01*
X55661685Y-71223829D01*
X55673894Y-71249495D01*
X55676307Y-71253814D01*
X55693505Y-71273469D01*
X55703361Y-71286342D01*
X55703970Y-71287256D01*
X55703981Y-71287269D01*
X55711447Y-71294557D01*
X55718149Y-71301634D01*
X57454580Y-73286136D01*
X57455991Y-73287748D01*
X57473933Y-73314661D01*
X57475058Y-73316947D01*
X57491485Y-73330636D01*
X57498180Y-73337171D01*
X57498259Y-73337087D01*
X57503030Y-73341507D01*
X57511896Y-73348143D01*
X57515169Y-73350592D01*
X57520251Y-73354607D01*
X57582100Y-73406148D01*
X60520283Y-75854638D01*
X60536484Y-75872802D01*
X60542605Y-75878867D01*
X60554191Y-75886314D01*
X60565699Y-75893712D01*
X60578033Y-75902763D01*
X60579894Y-75904314D01*
X60586183Y-75907630D01*
X60587951Y-75908563D01*
X60597164Y-75913940D01*
X61546156Y-76524003D01*
X64102155Y-78167137D01*
X64126081Y-78187191D01*
X64128946Y-78190284D01*
X64147080Y-78198055D01*
X64154895Y-78202207D01*
X64155032Y-78201937D01*
X64160836Y-78204860D01*
X64160840Y-78204863D01*
X64176561Y-78210814D01*
X64181470Y-78212794D01*
X65531422Y-78791352D01*
X65585286Y-78835853D01*
X65601725Y-78878393D01*
X65602663Y-78878118D01*
X65605163Y-78886633D01*
X65624263Y-78928455D01*
X65659265Y-79005097D01*
X65744550Y-79103522D01*
X65744552Y-79103523D01*
X65744552Y-79103524D01*
X65768426Y-79118866D01*
X65854110Y-79173931D01*
X65955951Y-79203835D01*
X65979068Y-79210623D01*
X65979069Y-79210623D01*
X66109304Y-79210623D01*
X66132420Y-79203835D01*
X66234262Y-79173931D01*
X66266186Y-79153414D01*
X66333224Y-79133730D01*
X66379277Y-79142599D01*
X66457608Y-79173931D01*
X67170513Y-79459091D01*
X67187267Y-79467306D01*
X67193588Y-79471020D01*
X67193589Y-79471020D01*
X67193590Y-79471021D01*
X67230623Y-79483364D01*
X67237433Y-79485859D01*
X67250432Y-79491059D01*
X67250436Y-79491059D01*
X67250437Y-79491060D01*
X67256498Y-79492775D01*
X67266107Y-79495192D01*
X68719891Y-79979768D01*
X68749052Y-79993959D01*
X68751078Y-79995298D01*
X68770195Y-79998484D01*
X68772283Y-79998832D01*
X68781402Y-80001097D01*
X68781425Y-80000996D01*
X68787771Y-80002395D01*
X68787774Y-80002396D01*
X68802740Y-80004083D01*
X68809179Y-80004981D01*
X70211083Y-80238647D01*
X70273972Y-80269085D01*
X70278375Y-80273278D01*
X70318209Y-80313112D01*
X70322676Y-80317819D01*
X70349533Y-80347646D01*
X70369095Y-80356355D01*
X70386197Y-80365640D01*
X70404160Y-80377306D01*
X70406642Y-80377699D01*
X70437684Y-80386894D01*
X70439982Y-80387917D01*
X70461402Y-80387917D01*
X70480796Y-80389443D01*
X70489998Y-80390900D01*
X70501950Y-80392793D01*
X70501950Y-80392792D01*
X70501951Y-80392793D01*
X70504373Y-80392144D01*
X70536471Y-80387917D01*
X76178638Y-80387918D01*
X76245674Y-80407603D01*
X76273199Y-80431708D01*
X76276618Y-80435738D01*
X76276620Y-80435742D01*
X76297768Y-80452084D01*
X76309619Y-80462511D01*
X76310834Y-80463726D01*
X76319095Y-80469090D01*
X76327365Y-80474955D01*
X76354963Y-80496282D01*
X76354965Y-80496282D01*
X76363763Y-80500515D01*
X76372880Y-80504014D01*
X76372884Y-80504017D01*
X76407333Y-80509471D01*
X76417261Y-80511463D01*
X76451157Y-80519723D01*
X76451158Y-80519722D01*
X76451159Y-80519723D01*
X76460913Y-80520011D01*
X76470670Y-80519499D01*
X76470675Y-80519500D01*
X76504356Y-80510472D01*
X76514258Y-80508249D01*
X79233202Y-80013888D01*
X79243025Y-80013063D01*
X79249312Y-80011805D01*
X79249315Y-80011806D01*
X79294853Y-80002698D01*
X79296926Y-80002302D01*
X79317931Y-79998484D01*
X79317934Y-79998482D01*
X79318575Y-79998366D01*
X79327567Y-79996155D01*
X80528214Y-79756040D01*
X80556030Y-79753683D01*
X80565090Y-79753940D01*
X80582820Y-79746638D01*
X80590962Y-79743700D01*
X80591861Y-79743312D01*
X80591864Y-79743312D01*
X80611790Y-79734725D01*
X80613434Y-79734032D01*
X84895996Y-77970627D01*
X84919542Y-77963568D01*
X84933232Y-77960908D01*
X84972368Y-77933503D01*
X84973196Y-77932930D01*
X85012567Y-77905994D01*
X85012568Y-77905991D01*
X85019794Y-77901048D01*
X85024508Y-77896994D01*
X88197274Y-75675375D01*
X88263478Y-75653048D01*
X88284581Y-75654011D01*
X88382293Y-75666875D01*
X88382294Y-75666875D01*
X88382295Y-75666875D01*
X88430406Y-75660541D01*
X88526630Y-75647873D01*
X88661125Y-75592163D01*
X88661126Y-75592163D01*
X88661126Y-75592162D01*
X88661130Y-75592161D01*
X88776627Y-75503537D01*
X88865251Y-75388040D01*
X88920963Y-75253540D01*
X88939388Y-75113585D01*
X88967654Y-75049689D01*
X88991204Y-75028196D01*
X89001501Y-75020986D01*
X90780759Y-73775146D01*
X90786157Y-73771574D01*
X90791784Y-73768058D01*
X90820216Y-73750293D01*
X90832194Y-73732532D01*
X90844305Y-73717307D01*
X90858910Y-73701648D01*
X90859728Y-73699271D01*
X90874175Y-73670296D01*
X90875582Y-73668211D01*
X90879300Y-73647119D01*
X90884176Y-73628269D01*
X90891145Y-73608034D01*
X90890926Y-73605532D01*
X90892339Y-73573176D01*
X90893796Y-73564917D01*
X90923741Y-73503509D01*
X90960063Y-73463151D01*
X93110976Y-71073233D01*
X93134656Y-71052816D01*
X93138118Y-71050523D01*
X93148745Y-71033821D01*
X93154109Y-71026768D01*
X93153869Y-71026594D01*
X93157686Y-71021337D01*
X93157687Y-71021333D01*
X93157693Y-71021328D01*
X93166077Y-71006797D01*
X93168806Y-71002297D01*
X94912167Y-68262679D01*
X94924611Y-68248625D01*
X94924235Y-68248325D01*
X94932360Y-68238134D01*
X94932360Y-68238133D01*
X94932362Y-68238132D01*
X94946276Y-68210302D01*
X94952561Y-68199203D01*
X94955820Y-68194083D01*
X94957740Y-68188939D01*
X94962986Y-68176883D01*
X95946040Y-66210780D01*
X95957263Y-66194917D01*
X95957234Y-66194899D01*
X95964136Y-66183844D01*
X95964139Y-66183842D01*
X95974044Y-66156598D01*
X95979678Y-66143507D01*
X95981438Y-66139988D01*
X95983348Y-66132638D01*
X95986830Y-66121440D01*
X95988224Y-66117607D01*
X96979330Y-63392090D01*
X96992599Y-63367402D01*
X96994800Y-63362581D01*
X96994800Y-63362580D01*
X96994801Y-63362579D01*
X97000497Y-63336943D01*
X97005011Y-63321468D01*
X97005430Y-63320317D01*
X97006865Y-63310076D01*
X97008609Y-63300443D01*
X97498484Y-61096061D01*
X97509790Y-61069135D01*
X97514363Y-61057234D01*
X97514362Y-61057234D01*
X97514365Y-61057231D01*
X97514768Y-61054689D01*
X97523958Y-61023683D01*
X97525006Y-61021330D01*
X97525005Y-60999975D01*
X97526538Y-60980536D01*
X97529887Y-60959446D01*
X97529218Y-60956949D01*
X97525004Y-60924905D01*
X97524985Y-53560048D01*
X97528510Y-53530691D01*
X97530084Y-53524235D01*
X97526683Y-53505533D01*
X97525364Y-53496320D01*
X97524985Y-53492718D01*
X97524985Y-53492711D01*
X97520983Y-53473887D01*
X97520295Y-53470401D01*
X97364665Y-52614392D01*
X97372040Y-52544914D01*
X97411181Y-52493835D01*
X97426527Y-52482061D01*
X97496645Y-52390680D01*
X97553072Y-52349478D01*
X97622818Y-52345323D01*
X97683739Y-52379535D01*
X97716492Y-52441252D01*
X97716937Y-52443528D01*
X97818412Y-52990000D01*
X97818848Y-52992492D01*
X97834524Y-53087693D01*
X97834910Y-53090193D01*
X97960546Y-53964013D01*
X97960880Y-53966519D01*
X97972660Y-54062271D01*
X97972944Y-54064786D01*
X98008366Y-54410854D01*
X98043701Y-54756084D01*
X98062841Y-54943076D01*
X98063063Y-54945492D01*
X98067884Y-55004434D01*
X98070928Y-55041660D01*
X98071108Y-55044182D01*
X98125106Y-55925390D01*
X98125235Y-55927917D01*
X98129170Y-56024317D01*
X98129247Y-56026844D01*
X98148240Y-56957705D01*
X98148240Y-56962765D01*
X98129247Y-57893626D01*
X98129170Y-57896153D01*
X98125235Y-57992553D01*
X98125106Y-57995080D01*
X98071108Y-58876288D01*
X98070928Y-58878810D01*
X98063064Y-58974961D01*
X98062841Y-58977394D01*
X97972944Y-59855684D01*
X97972660Y-59858199D01*
X97960880Y-59953951D01*
X97960546Y-59956457D01*
X97834910Y-60830277D01*
X97834524Y-60832777D01*
X97818848Y-60927978D01*
X97818412Y-60930470D01*
X97657241Y-61798419D01*
X97656754Y-61800901D01*
X97637197Y-61895436D01*
X97636659Y-61897908D01*
X97440232Y-62758513D01*
X97439644Y-62760972D01*
X97416241Y-62854658D01*
X97415603Y-62857107D01*
X97184230Y-63709001D01*
X97183542Y-63711434D01*
X97156357Y-63804020D01*
X97155620Y-63806441D01*
X96889659Y-64648296D01*
X96888873Y-64650699D01*
X96878032Y-64682727D01*
X96857950Y-64742049D01*
X96857132Y-64744388D01*
X96557074Y-65574641D01*
X96556190Y-65577012D01*
X96521529Y-65667123D01*
X96520597Y-65669474D01*
X96186949Y-66486736D01*
X96185968Y-66489069D01*
X96147645Y-66577726D01*
X96146618Y-66580036D01*
X95779909Y-67383017D01*
X95778835Y-67385308D01*
X95736971Y-67472239D01*
X95735850Y-67474506D01*
X95336695Y-68261860D01*
X95335529Y-68264104D01*
X95290117Y-68349326D01*
X95288904Y-68351547D01*
X94857978Y-69121941D01*
X94856721Y-69124136D01*
X94807873Y-69207430D01*
X94806571Y-69209599D01*
X94344559Y-69961810D01*
X94343214Y-69963951D01*
X94291026Y-70045158D01*
X94289636Y-70047272D01*
X93797353Y-70779974D01*
X93795921Y-70782059D01*
X93740441Y-70861102D01*
X93738967Y-70863158D01*
X93217193Y-71575191D01*
X93215676Y-71577217D01*
X93157034Y-71653909D01*
X93155478Y-71655902D01*
X92605082Y-72346079D01*
X92603484Y-72348041D01*
X92541789Y-72422246D01*
X92540153Y-72424174D01*
X91962053Y-73091337D01*
X91960376Y-73093232D01*
X91895697Y-73164868D01*
X91893984Y-73166728D01*
X91289158Y-73809750D01*
X91287407Y-73811573D01*
X91219829Y-73880546D01*
X91218039Y-73882336D01*
X90587520Y-74500120D01*
X90585695Y-74501872D01*
X90515378Y-74568012D01*
X90513518Y-74569726D01*
X89858298Y-75161304D01*
X89856404Y-75162980D01*
X89783474Y-75226174D01*
X89781545Y-75227811D01*
X89102715Y-75792192D01*
X89100755Y-75793788D01*
X89025307Y-75853957D01*
X89023312Y-75855515D01*
X88322043Y-76391727D01*
X88320017Y-76393244D01*
X88242168Y-76450290D01*
X88240114Y-76451763D01*
X87517564Y-76958921D01*
X87515478Y-76960354D01*
X87435322Y-77014208D01*
X87433208Y-77015597D01*
X86690633Y-77492820D01*
X86688492Y-77494165D01*
X86606217Y-77544699D01*
X86604048Y-77546001D01*
X85842564Y-77992575D01*
X85840369Y-77993832D01*
X85756155Y-78040938D01*
X85753935Y-78042151D01*
X84974857Y-78457302D01*
X84972611Y-78458469D01*
X84886486Y-78502130D01*
X84884220Y-78503250D01*
X84088908Y-78886252D01*
X84086617Y-78887326D01*
X83998808Y-78927427D01*
X83996497Y-78928455D01*
X83186171Y-79278722D01*
X83183839Y-79279701D01*
X83094500Y-79316174D01*
X83092148Y-79317107D01*
X82268203Y-79634033D01*
X82265833Y-79634917D01*
X82175084Y-79667714D01*
X82172697Y-79668549D01*
X81336514Y-79951603D01*
X81334108Y-79952390D01*
X81242082Y-79981462D01*
X81239664Y-79982199D01*
X80392663Y-80230901D01*
X80390228Y-80231589D01*
X80297055Y-80256894D01*
X80294608Y-80257532D01*
X79438151Y-80471484D01*
X79435690Y-80472072D01*
X79341635Y-80493539D01*
X79339164Y-80494077D01*
X78474675Y-80672921D01*
X78472192Y-80673408D01*
X78377245Y-80691038D01*
X78374754Y-80691474D01*
X77503798Y-80834889D01*
X77501299Y-80835275D01*
X77405678Y-80849024D01*
X77403170Y-80849358D01*
X76527061Y-80957132D01*
X76524547Y-80957416D01*
X76428478Y-80967249D01*
X76425959Y-80967480D01*
X75546156Y-81039431D01*
X75543633Y-81039612D01*
X75447317Y-81045514D01*
X75444791Y-81045643D01*
X74562716Y-81081653D01*
X74560188Y-81081730D01*
X74469801Y-81083574D01*
X74463694Y-81083699D01*
X74461166Y-81083725D01*
X73578400Y-81083725D01*
X73575871Y-81083699D01*
X73568816Y-81083555D01*
X73479376Y-81081730D01*
X73476848Y-81081653D01*
X72594773Y-81045643D01*
X72592247Y-81045514D01*
X72495931Y-81039612D01*
X72493408Y-81039431D01*
X71613605Y-80967480D01*
X71611086Y-80967249D01*
X71515017Y-80957416D01*
X71512503Y-80957132D01*
X70636394Y-80849358D01*
X70633886Y-80849024D01*
X70538265Y-80835275D01*
X70535766Y-80834889D01*
X69664810Y-80691474D01*
X69662319Y-80691038D01*
X69567372Y-80673408D01*
X69564889Y-80672921D01*
X68700400Y-80494077D01*
X68697929Y-80493539D01*
X68603874Y-80472072D01*
X68601413Y-80471484D01*
X67744956Y-80257532D01*
X67742509Y-80256894D01*
X67649336Y-80231589D01*
X67646901Y-80230901D01*
X66799900Y-79982199D01*
X66797482Y-79981462D01*
X66705456Y-79952390D01*
X66703070Y-79951609D01*
X66125331Y-79756041D01*
X65866867Y-79668549D01*
X65864480Y-79667714D01*
X65773731Y-79634917D01*
X65771361Y-79634033D01*
X64947416Y-79317107D01*
X64945064Y-79316174D01*
X64855725Y-79279701D01*
X64853393Y-79278722D01*
X64043067Y-78928455D01*
X64040756Y-78927427D01*
X63952947Y-78887326D01*
X63950656Y-78886252D01*
X63155344Y-78503250D01*
X63153078Y-78502130D01*
X63066953Y-78458469D01*
X63064707Y-78457302D01*
X62285629Y-78042151D01*
X62283409Y-78040938D01*
X62199195Y-77993832D01*
X62197000Y-77992575D01*
X61435516Y-77546001D01*
X61433347Y-77544699D01*
X61351072Y-77494165D01*
X61348931Y-77492820D01*
X61229157Y-77415846D01*
X60606284Y-77015549D01*
X60604242Y-77014208D01*
X60598549Y-77010383D01*
X60524034Y-76960318D01*
X60522054Y-76958958D01*
X60135082Y-76687343D01*
X59799450Y-76451763D01*
X59797396Y-76450290D01*
X59756486Y-76420312D01*
X59719506Y-76393213D01*
X59717546Y-76391746D01*
X59240199Y-76026752D01*
X59016252Y-75855515D01*
X59014257Y-75853957D01*
X58938809Y-75793788D01*
X58936849Y-75792192D01*
X58258019Y-75227811D01*
X58256090Y-75226174D01*
X58183160Y-75162980D01*
X58181266Y-75161304D01*
X57526046Y-74569726D01*
X57524186Y-74568012D01*
X57453869Y-74501872D01*
X57452044Y-74500120D01*
X57448162Y-74496316D01*
X56821460Y-73882271D01*
X56819735Y-73880546D01*
X56752157Y-73811573D01*
X56750406Y-73809750D01*
X56145580Y-73166728D01*
X56143867Y-73164868D01*
X56079188Y-73093232D01*
X56077511Y-73091337D01*
X56070666Y-73083438D01*
X55499401Y-72424162D01*
X55497775Y-72422246D01*
X55436042Y-72347994D01*
X55434528Y-72346135D01*
X54944384Y-71731514D01*
X54884086Y-71655902D01*
X54882530Y-71653909D01*
X54823888Y-71577217D01*
X54822413Y-71575248D01*
X54300580Y-70863135D01*
X54299123Y-70861102D01*
X54243643Y-70782059D01*
X54242211Y-70779974D01*
X54237507Y-70772972D01*
X53749885Y-70047207D01*
X53748579Y-70045221D01*
X53696335Y-69963927D01*
X53695005Y-69961810D01*
X53669606Y-69920458D01*
X53232982Y-69209580D01*
X53231691Y-69207430D01*
X53226721Y-69198955D01*
X53182829Y-69124112D01*
X53181586Y-69121941D01*
X53167530Y-69096812D01*
X52750616Y-68351467D01*
X52749491Y-68349407D01*
X52704014Y-68264064D01*
X52702891Y-68261904D01*
X52303705Y-67474489D01*
X52302620Y-67472293D01*
X52260692Y-67385230D01*
X52259655Y-67383017D01*
X51892946Y-66580036D01*
X51891919Y-66577726D01*
X51853596Y-66489069D01*
X51852615Y-66486736D01*
X51844889Y-66467812D01*
X51518956Y-65669447D01*
X51518059Y-65667183D01*
X51483340Y-65576922D01*
X51482512Y-65574701D01*
X51182381Y-64744244D01*
X51181673Y-64742222D01*
X51150648Y-64650568D01*
X51149919Y-64648341D01*
X50883934Y-63806410D01*
X50883207Y-63804020D01*
X50856022Y-63711434D01*
X50855334Y-63709001D01*
X50800466Y-63506983D01*
X50623932Y-62856998D01*
X50623346Y-62854747D01*
X50599913Y-62760944D01*
X50599344Y-62758564D01*
X50402895Y-61897863D01*
X50402367Y-61895436D01*
X50383466Y-61804074D01*
X50382803Y-61800870D01*
X50382323Y-61798419D01*
X50221135Y-60930374D01*
X50220730Y-60928062D01*
X50205030Y-60832714D01*
X50204666Y-60830356D01*
X50079014Y-59956427D01*
X50078684Y-59953951D01*
X50066885Y-59858039D01*
X50066636Y-59855831D01*
X49976705Y-58977202D01*
X49976516Y-58975155D01*
X49968624Y-58878653D01*
X49968460Y-58876354D01*
X49914451Y-57994956D01*
X49914335Y-57992676D01*
X49910391Y-57896063D01*
X49910319Y-57893718D01*
X49892310Y-57011012D01*
X49892284Y-57008483D01*
X49892284Y-56911987D01*
X49892310Y-56909458D01*
X49910319Y-56026748D01*
X49910391Y-56024414D01*
X49914335Y-55927785D01*
X49914450Y-55925528D01*
X49968461Y-55044103D01*
X49968623Y-55041832D01*
X49976518Y-54945298D01*
X49976703Y-54943283D01*
X50066638Y-54064623D01*
X50066883Y-54062455D01*
X50078693Y-53966448D01*
X50079010Y-53964071D01*
X50204670Y-53090085D01*
X50205025Y-53087787D01*
X50220736Y-52992375D01*
X50221129Y-52990129D01*
X50382336Y-52121980D01*
X50382796Y-52119638D01*
X50402385Y-52024949D01*
X50402885Y-52022651D01*
X50599354Y-51161861D01*
X50599902Y-51159571D01*
X50623358Y-51065675D01*
X50623919Y-51063523D01*
X50855342Y-50211439D01*
X50856022Y-50209036D01*
X50868828Y-50165422D01*
X50883225Y-50116389D01*
X50883917Y-50114116D01*
X51149939Y-49272067D01*
X51150628Y-49269960D01*
X51181694Y-49178189D01*
X51182359Y-49176288D01*
X51482515Y-48345763D01*
X51483369Y-48343475D01*
X51518072Y-48253253D01*
X51518928Y-48251092D01*
X51852656Y-47433635D01*
X51853573Y-47431455D01*
X51891920Y-47342741D01*
X51892946Y-47340434D01*
X51906046Y-47311750D01*
X52259693Y-46537371D01*
X52260657Y-46535315D01*
X52302657Y-46448101D01*
X52303665Y-46446063D01*
X52702935Y-45658482D01*
X52703972Y-45656486D01*
X52749535Y-45570982D01*
X52750568Y-45569089D01*
X53181652Y-44798412D01*
X53182780Y-44796442D01*
X53231754Y-44712934D01*
X53232927Y-44710979D01*
X53695077Y-43958545D01*
X53696279Y-43956631D01*
X53748636Y-43875162D01*
X53749822Y-43873358D01*
X54242288Y-43140383D01*
X54243598Y-43138476D01*
X54299174Y-43059296D01*
X54300513Y-43057429D01*
X54822486Y-42345124D01*
X54823821Y-42343341D01*
X54882547Y-42266538D01*
X54884019Y-42264653D01*
X55434607Y-41574236D01*
X55435962Y-41572573D01*
X55497859Y-41498123D01*
X55499314Y-41496409D01*
X56077617Y-40829012D01*
X56079129Y-40827303D01*
X56143877Y-40755590D01*
X56145520Y-40753806D01*
X56750463Y-40110660D01*
X56752157Y-40108897D01*
X56757936Y-40102999D01*
X56819849Y-40039809D01*
X56821356Y-40038302D01*
X57452154Y-39420243D01*
X57453812Y-39418651D01*
X57524236Y-39352411D01*
X57525941Y-39350840D01*
X58181369Y-38759074D01*
X58183066Y-38757572D01*
X58256176Y-38694222D01*
X58257928Y-38692735D01*
X58936877Y-38128254D01*
X58938809Y-38126682D01*
X58960446Y-38109427D01*
X59014348Y-38066441D01*
X59016144Y-38065039D01*
X59717679Y-37528624D01*
X59719381Y-37527349D01*
X59797478Y-37470120D01*
X59799381Y-37468756D01*
X60009921Y-37320978D01*
X60076098Y-37298577D01*
X60143885Y-37315511D01*
G37*
%TD.AperFunction*%
%TA.AperFunction,Conductor*%
G36*
X54797494Y-49366170D02*
G01*
X54864534Y-49385855D01*
X54910289Y-49438659D01*
X54920232Y-49507817D01*
X54891207Y-49571373D01*
X54885175Y-49577851D01*
X53436144Y-51026876D01*
X53428169Y-51034184D01*
X53397464Y-51059948D01*
X53397462Y-51059950D01*
X53377421Y-51094662D01*
X53371612Y-51103781D01*
X53348625Y-51136611D01*
X53347367Y-51139309D01*
X53338015Y-51161885D01*
X53336999Y-51164676D01*
X53330037Y-51204157D01*
X53327697Y-51214711D01*
X53314520Y-51263892D01*
X53310768Y-51262886D01*
X53292663Y-51309110D01*
X53282304Y-51320869D01*
X53209679Y-51393493D01*
X53209676Y-51393497D01*
X53151732Y-51507219D01*
X53136791Y-51601556D01*
X53136791Y-52614983D01*
X53151732Y-52709320D01*
X53151733Y-52709323D01*
X53151734Y-52709325D01*
X53209675Y-52823041D01*
X53209676Y-52823042D01*
X53209679Y-52823046D01*
X53284970Y-52898337D01*
X53318455Y-52959660D01*
X53321289Y-52986018D01*
X53321289Y-53164307D01*
X53301604Y-53231346D01*
X53284971Y-53251988D01*
X52843049Y-53693913D01*
X52820699Y-53711064D01*
X52818289Y-53713086D01*
X52792634Y-53743661D01*
X52785328Y-53751635D01*
X52046187Y-54490782D01*
X52046186Y-54490782D01*
X52007762Y-54529206D01*
X51999790Y-54536512D01*
X51969089Y-54562274D01*
X51949051Y-54596981D01*
X51943242Y-54606099D01*
X51920264Y-54638917D01*
X51920257Y-54638926D01*
X51918597Y-54642595D01*
X51909642Y-54664215D01*
X51908629Y-54666997D01*
X51901672Y-54706460D01*
X51899331Y-54717020D01*
X51888960Y-54755724D01*
X51888960Y-54755730D01*
X51888983Y-54755990D01*
X51888987Y-54756084D01*
X51888991Y-54756084D01*
X51890379Y-54771950D01*
X51876612Y-54840450D01*
X51854531Y-54870440D01*
X51582397Y-55142565D01*
X51579865Y-55145025D01*
X51540774Y-55181949D01*
X51540769Y-55181956D01*
X51528980Y-55205464D01*
X51519715Y-55220998D01*
X51504619Y-55242557D01*
X51501278Y-55255024D01*
X51492351Y-55278502D01*
X51486564Y-55290042D01*
X51486563Y-55290044D01*
X51483523Y-55316182D01*
X51480130Y-55333942D01*
X51473320Y-55359359D01*
X51473319Y-55359362D01*
X51478006Y-55412946D01*
X51478264Y-55416468D01*
X51731570Y-59722669D01*
X51731701Y-59725413D01*
X51732609Y-59750214D01*
X51733081Y-59754015D01*
X51733637Y-59757788D01*
X51739375Y-59781938D01*
X51739981Y-59784620D01*
X52249954Y-62164514D01*
X52472501Y-63203079D01*
X52500631Y-63334351D01*
X52500761Y-63334968D01*
X52506676Y-63363275D01*
X52506780Y-63363612D01*
X52506973Y-63364247D01*
X52507157Y-63364857D01*
X52518053Y-63391700D01*
X52518288Y-63392284D01*
X53020981Y-64648965D01*
X53023364Y-64655439D01*
X53028795Y-64671563D01*
X53028805Y-64671588D01*
X53029875Y-64673549D01*
X53036138Y-64686854D01*
X53036967Y-64688927D01*
X53045925Y-64703374D01*
X53049398Y-64709340D01*
X54562105Y-67482673D01*
X54564667Y-67487632D01*
X54573218Y-67505141D01*
X54573582Y-67505747D01*
X54581125Y-67517669D01*
X54581519Y-67518262D01*
X54593672Y-67533481D01*
X54597059Y-67537923D01*
X56623062Y-70323662D01*
X56623157Y-70323793D01*
X56811016Y-70582806D01*
X56818761Y-70594902D01*
X57620776Y-72023375D01*
X57631991Y-72043349D01*
X57638330Y-72056368D01*
X57651080Y-72086973D01*
X57682915Y-72121575D01*
X57687575Y-72126943D01*
X57708439Y-72152423D01*
X57717366Y-72163325D01*
X57717367Y-72163326D01*
X57745874Y-72180244D01*
X57757878Y-72188352D01*
X58206292Y-72531009D01*
X58209957Y-72533921D01*
X60791748Y-74666535D01*
X60870354Y-74731465D01*
X60870906Y-74731924D01*
X60893018Y-74750406D01*
X60893508Y-74750743D01*
X60894108Y-74751158D01*
X60894571Y-74751481D01*
X60919592Y-74765671D01*
X60920212Y-74766025D01*
X61690036Y-75208493D01*
X63060547Y-75996215D01*
X63070212Y-76002383D01*
X63077042Y-76007201D01*
X63086903Y-76011841D01*
X63095881Y-76016525D01*
X63105327Y-76021954D01*
X63105331Y-76021956D01*
X63105333Y-76021957D01*
X63113187Y-76024798D01*
X63123786Y-76029198D01*
X67228643Y-77960908D01*
X67358097Y-78021828D01*
X67372821Y-78030022D01*
X67378569Y-78033753D01*
X67378572Y-78033756D01*
X67425971Y-78053870D01*
X67430283Y-78055798D01*
X67449322Y-78064758D01*
X67449324Y-78064758D01*
X67449325Y-78064759D01*
X67454397Y-78066625D01*
X67454389Y-78066644D01*
X67456686Y-78067439D01*
X67456692Y-78067421D01*
X67461838Y-78069092D01*
X67461840Y-78069092D01*
X67461844Y-78069094D01*
X67482320Y-78073819D01*
X67486926Y-78074975D01*
X67536617Y-78088478D01*
X67536621Y-78088477D01*
X67543427Y-78089097D01*
X67560065Y-78091760D01*
X70134090Y-78685765D01*
X70792359Y-78837673D01*
X70792355Y-78837688D01*
X70792719Y-78837757D01*
X70821212Y-78844430D01*
X70821220Y-78844430D01*
X70821231Y-78844433D01*
X70821524Y-78844475D01*
X70821921Y-78844531D01*
X70822304Y-78844586D01*
X70822317Y-78844586D01*
X70822319Y-78844587D01*
X70851795Y-78846129D01*
X75418623Y-79099841D01*
X75420996Y-79099996D01*
X75446454Y-79101907D01*
X75446466Y-79101905D01*
X75449765Y-79101864D01*
X75449777Y-79101864D01*
X75453111Y-79101758D01*
X75453122Y-79101759D01*
X75478461Y-79098728D01*
X75480693Y-79098482D01*
X77819586Y-78864592D01*
X77874326Y-78871453D01*
X77885343Y-78875463D01*
X77895313Y-78879593D01*
X77931638Y-78896531D01*
X77971558Y-78900023D01*
X77982280Y-78901434D01*
X78931777Y-79068856D01*
X78942320Y-79071193D01*
X78981046Y-79081571D01*
X79020968Y-79078077D01*
X79031773Y-79077606D01*
X79071854Y-79077607D01*
X79071858Y-79077605D01*
X79074828Y-79077082D01*
X79098582Y-79071816D01*
X79101508Y-79071032D01*
X79101511Y-79071032D01*
X79137842Y-79054090D01*
X79147825Y-79049955D01*
X79185486Y-79036248D01*
X79216191Y-79010481D01*
X79224762Y-79003904D01*
X80266333Y-78274588D01*
X80332538Y-78252262D01*
X80372401Y-78260274D01*
X80373010Y-78258004D01*
X80383491Y-78260812D01*
X80423414Y-78264304D01*
X80434142Y-78265716D01*
X81194819Y-78399844D01*
X81205350Y-78402179D01*
X81244079Y-78412557D01*
X81284001Y-78409063D01*
X81294806Y-78408592D01*
X81334888Y-78408593D01*
X81334892Y-78408591D01*
X81337891Y-78408063D01*
X81361594Y-78402808D01*
X81364540Y-78402019D01*
X81364541Y-78402018D01*
X81364544Y-78402018D01*
X81400877Y-78385075D01*
X81410860Y-78380941D01*
X81428786Y-78374416D01*
X81448521Y-78367233D01*
X81471063Y-78348317D01*
X81479225Y-78341469D01*
X81487802Y-78334887D01*
X88714119Y-73274965D01*
X88723240Y-73269156D01*
X88757940Y-73249123D01*
X88783705Y-73218416D01*
X88791003Y-73210453D01*
X88793147Y-73208309D01*
X88819349Y-73182108D01*
X88819352Y-73182101D01*
X88821094Y-73179613D01*
X88834148Y-73159122D01*
X88835665Y-73156494D01*
X88835670Y-73156489D01*
X88849377Y-73118829D01*
X88853517Y-73108833D01*
X88870454Y-73072512D01*
X88873946Y-73032587D01*
X88875358Y-73021860D01*
X88877661Y-73008800D01*
X89222505Y-71053093D01*
X89245419Y-71000229D01*
X89929961Y-70087514D01*
X89935810Y-70080299D01*
X91692017Y-68073218D01*
X91697625Y-68067224D01*
X93343420Y-66421431D01*
X93404743Y-66387946D01*
X93431101Y-66385112D01*
X93615470Y-66385112D01*
X93626278Y-66385583D01*
X93666201Y-66389077D01*
X93704917Y-66378702D01*
X93715448Y-66376367D01*
X93754943Y-66369404D01*
X93754945Y-66369402D01*
X93757811Y-66368359D01*
X93780239Y-66359069D01*
X93783000Y-66357781D01*
X93783006Y-66357780D01*
X93815854Y-66334778D01*
X93824953Y-66328981D01*
X93859667Y-66308940D01*
X93885443Y-66278219D01*
X93892720Y-66270278D01*
X95212070Y-64950930D01*
X95214021Y-64949023D01*
X95253904Y-64910936D01*
X95253905Y-64910933D01*
X95254351Y-64910508D01*
X95265656Y-64897344D01*
X95910670Y-64252330D01*
X95918624Y-64245041D01*
X95931155Y-64234527D01*
X95995160Y-64206516D01*
X96064152Y-64217555D01*
X96116223Y-64264141D01*
X96134842Y-64331485D01*
X96127392Y-64371894D01*
X95550316Y-65958840D01*
X95544691Y-65971919D01*
X94546107Y-67969077D01*
X94539813Y-67980194D01*
X92787662Y-70733622D01*
X92775216Y-70750001D01*
X90542665Y-73230626D01*
X90517801Y-73251494D01*
X90516799Y-73252462D01*
X90503037Y-73272863D01*
X90493209Y-73285446D01*
X90492708Y-73286136D01*
X90486721Y-73296509D01*
X90482130Y-73303857D01*
X90461430Y-73334547D01*
X90458312Y-73342261D01*
X90455730Y-73350215D01*
X90452131Y-73384530D01*
X90425560Y-73449149D01*
X90399931Y-73473167D01*
X88774673Y-74611176D01*
X88708467Y-74633503D01*
X88656097Y-74624162D01*
X88526630Y-74570535D01*
X88526628Y-74570534D01*
X88382295Y-74551533D01*
X88382293Y-74551533D01*
X88237959Y-74570534D01*
X88237957Y-74570535D01*
X88103459Y-74626246D01*
X87987961Y-74714871D01*
X87899336Y-74830369D01*
X87843625Y-74964867D01*
X87843624Y-74964869D01*
X87824623Y-75109202D01*
X87824623Y-75109205D01*
X87843625Y-75253543D01*
X87843904Y-75254583D01*
X87843882Y-75255492D01*
X87844686Y-75261598D01*
X87843733Y-75261723D01*
X87842234Y-75324433D01*
X87803066Y-75382292D01*
X87795250Y-75388239D01*
X84738936Y-77528317D01*
X84715025Y-77541403D01*
X80465493Y-79291206D01*
X80442597Y-79298138D01*
X79209637Y-79544716D01*
X79207502Y-79545124D01*
X76601544Y-80018942D01*
X76532065Y-80011567D01*
X76487212Y-79979914D01*
X76471434Y-79962391D01*
X76471431Y-79962389D01*
X76451856Y-79953673D01*
X76434766Y-79944394D01*
X76430322Y-79941509D01*
X76416797Y-79932726D01*
X76414316Y-79932334D01*
X76383279Y-79923141D01*
X76380984Y-79922119D01*
X76359553Y-79922119D01*
X76340171Y-79920594D01*
X76319009Y-79917244D01*
X76319001Y-79917244D01*
X76316570Y-79917896D01*
X76284487Y-79922118D01*
X70639049Y-79922117D01*
X70572010Y-79902432D01*
X70534510Y-79864807D01*
X70531903Y-79860721D01*
X70516093Y-79850271D01*
X70512461Y-79847610D01*
X70509563Y-79845728D01*
X70509560Y-79845725D01*
X70490157Y-79833124D01*
X70489464Y-79832670D01*
X70449275Y-79806107D01*
X70448896Y-79805962D01*
X70447952Y-79805595D01*
X70447549Y-79805436D01*
X70400166Y-79797932D01*
X70399177Y-79797772D01*
X68904103Y-79548577D01*
X68885279Y-79543901D01*
X67397788Y-79048089D01*
X67390947Y-79045583D01*
X66557015Y-78712012D01*
X66502081Y-78668838D01*
X66484089Y-78631814D01*
X66483210Y-78628824D01*
X66483209Y-78628814D01*
X66429107Y-78510349D01*
X66343822Y-78411924D01*
X66343819Y-78411922D01*
X66343819Y-78411921D01*
X66278086Y-78369678D01*
X66234262Y-78341515D01*
X66150956Y-78317053D01*
X66109304Y-78304823D01*
X66109303Y-78304823D01*
X65979069Y-78304823D01*
X65979067Y-78304823D01*
X65854114Y-78341513D01*
X65854109Y-78341515D01*
X65833535Y-78354736D01*
X65766494Y-78374416D01*
X65717656Y-78364390D01*
X64385298Y-77793373D01*
X64367090Y-77783705D01*
X64335101Y-77763141D01*
X63310512Y-77104480D01*
X60854676Y-75525736D01*
X60842347Y-75516689D01*
X57832885Y-73008800D01*
X57818948Y-72995195D01*
X56074847Y-71001928D01*
X56064993Y-70989057D01*
X55963447Y-70836738D01*
X54058292Y-67979011D01*
X54050560Y-67965687D01*
X53051116Y-65966837D01*
X53046904Y-65957457D01*
X52548301Y-64710942D01*
X52545795Y-64704101D01*
X52538670Y-64682727D01*
X52281490Y-63911167D01*
X52045466Y-63203079D01*
X52042805Y-63193942D01*
X51540187Y-61183465D01*
X51538893Y-61177709D01*
X51514799Y-61057234D01*
X51289122Y-59928807D01*
X51287678Y-59919907D01*
X51106667Y-58471795D01*
X51117884Y-58402835D01*
X51154222Y-58358043D01*
X51198529Y-58324046D01*
X51287153Y-58208549D01*
X51342865Y-58074049D01*
X51361867Y-57929713D01*
X51342865Y-57785377D01*
X51287153Y-57650878D01*
X51198529Y-57535380D01*
X51085605Y-57448730D01*
X51044404Y-57392305D01*
X51037094Y-57350360D01*
X51037090Y-55669096D01*
X51038336Y-55651560D01*
X51041820Y-55627176D01*
X51281724Y-53947908D01*
X51290999Y-53915707D01*
X51291097Y-53915240D01*
X51291100Y-53915235D01*
X51291099Y-53891101D01*
X51292150Y-53876327D01*
X51292220Y-53874446D01*
X51292219Y-53874444D01*
X51292221Y-53874437D01*
X51291379Y-53862008D01*
X51291098Y-53853698D01*
X51291098Y-52587591D01*
X51310783Y-52520553D01*
X51327412Y-52499916D01*
X54424841Y-49402486D01*
X54486162Y-49369003D01*
X54512518Y-49366169D01*
X54797494Y-49366170D01*
G37*
%TD.AperFunction*%
%TA.AperFunction,Conductor*%
G36*
X90537807Y-60813956D02*
G01*
X90593553Y-60856077D01*
X90617677Y-60921649D01*
X90617955Y-60929943D01*
X90617955Y-64946826D01*
X90617483Y-64957635D01*
X90613989Y-64997559D01*
X90624360Y-65036265D01*
X90626700Y-65046820D01*
X90633661Y-65086292D01*
X90633662Y-65086296D01*
X90633663Y-65086299D01*
X90633664Y-65086301D01*
X90634697Y-65089139D01*
X90644026Y-65111660D01*
X90645285Y-65114360D01*
X90668280Y-65147200D01*
X90674091Y-65156323D01*
X90694125Y-65191023D01*
X90724828Y-65216785D01*
X90732804Y-65224094D01*
X91778973Y-66270264D01*
X91786281Y-66278239D01*
X91812044Y-66308942D01*
X91812045Y-66308943D01*
X91812047Y-66308944D01*
X91846740Y-66328974D01*
X91855863Y-66334786D01*
X91888702Y-66357780D01*
X91891437Y-66359055D01*
X91913942Y-66368376D01*
X91916765Y-66369403D01*
X91916768Y-66369405D01*
X91956251Y-66376366D01*
X91966796Y-66378705D01*
X92005508Y-66389078D01*
X92005508Y-66389077D01*
X92005509Y-66389078D01*
X92045436Y-66385584D01*
X92056243Y-66385113D01*
X92110510Y-66385113D01*
X92177549Y-66404798D01*
X92223304Y-66457602D01*
X92233248Y-66526760D01*
X92204223Y-66590316D01*
X92198191Y-66596794D01*
X91219563Y-67575419D01*
X91209614Y-67584349D01*
X91205888Y-67587346D01*
X91205885Y-67587349D01*
X91196359Y-67598235D01*
X91190737Y-67604245D01*
X91180504Y-67614479D01*
X91177760Y-67618398D01*
X91169514Y-67628915D01*
X89423391Y-69624470D01*
X89414856Y-69633301D01*
X89409869Y-69637973D01*
X89409865Y-69637977D01*
X89409865Y-69637978D01*
X89403180Y-69646892D01*
X89402419Y-69647906D01*
X89396546Y-69655151D01*
X89388370Y-69664495D01*
X89384828Y-69670346D01*
X89377954Y-69680524D01*
X88637523Y-70667758D01*
X88633313Y-70673063D01*
X88602643Y-70709614D01*
X88602640Y-70709619D01*
X88591542Y-70740107D01*
X88585637Y-70753730D01*
X88570976Y-70782667D01*
X88570976Y-70782669D01*
X88565267Y-70830043D01*
X88564274Y-70836738D01*
X88230020Y-72732390D01*
X88198993Y-72794993D01*
X88179027Y-72812433D01*
X81236166Y-77673877D01*
X81169960Y-77696204D01*
X81143511Y-77694418D01*
X80723612Y-77620378D01*
X80661010Y-77589351D01*
X80643570Y-77569386D01*
X80617262Y-77531815D01*
X80462854Y-77311297D01*
X80440527Y-77245090D01*
X80457537Y-77177323D01*
X80481837Y-77151015D01*
X80481832Y-77151011D01*
X80481839Y-77151003D01*
X80481900Y-77150947D01*
X80493310Y-77138595D01*
X80496775Y-77136170D01*
X80496777Y-77136167D01*
X80504017Y-77131098D01*
X80504025Y-77131091D01*
X81827505Y-76204379D01*
X81848678Y-76192461D01*
X81859008Y-76187917D01*
X82862634Y-75485170D01*
X83132058Y-75296517D01*
X83132059Y-75296516D01*
X83132062Y-75296514D01*
X83163509Y-75263664D01*
X83185555Y-75206973D01*
X83184229Y-75146160D01*
X83165914Y-75104536D01*
X83107212Y-75020702D01*
X83084886Y-74954497D01*
X83101896Y-74886729D01*
X83106654Y-74879260D01*
X83111813Y-74871766D01*
X83156673Y-74735174D01*
X83161235Y-74591464D01*
X83125127Y-74452297D01*
X83096213Y-74399841D01*
X83068782Y-74360667D01*
X83068781Y-74360666D01*
X82222270Y-74953399D01*
X82221392Y-74958383D01*
X82190365Y-75020986D01*
X82170400Y-75038425D01*
X81945393Y-75195977D01*
X81879187Y-75218304D01*
X81852738Y-75216518D01*
X81847754Y-75215639D01*
X81001242Y-75808372D01*
X81000070Y-75815022D01*
X81016982Y-75865173D01*
X80999969Y-75932940D01*
X80964203Y-75971662D01*
X80054263Y-76608812D01*
X80054262Y-76608812D01*
X79768249Y-76809080D01*
X79702043Y-76831407D01*
X79675593Y-76829621D01*
X79426618Y-76785718D01*
X79364015Y-76754691D01*
X79336700Y-76717958D01*
X79321771Y-76687348D01*
X79321769Y-76687345D01*
X79321768Y-76687343D01*
X78998606Y-76225820D01*
X78998603Y-76225816D01*
X78998601Y-76225814D01*
X78932250Y-76157106D01*
X78819559Y-76097187D01*
X78693878Y-76075026D01*
X78693877Y-76075026D01*
X78567494Y-76092788D01*
X78567491Y-76092788D01*
X78478026Y-76136425D01*
X78409142Y-76148121D01*
X78344870Y-76120719D01*
X78305615Y-76062919D01*
X78303841Y-75993072D01*
X78340111Y-75933354D01*
X78352549Y-75923396D01*
X78354884Y-75921761D01*
X78432990Y-75854262D01*
X78432994Y-75854258D01*
X78537689Y-75713626D01*
X78607132Y-75552639D01*
X78637576Y-75379981D01*
X78637576Y-75379980D01*
X78631515Y-75275922D01*
X80628416Y-75275922D01*
X80655842Y-75315091D01*
X80655851Y-75315103D01*
X80679218Y-75341855D01*
X80694422Y-75363568D01*
X80711571Y-75394680D01*
X80739002Y-75433856D01*
X80739003Y-75433856D01*
X81585514Y-74841123D01*
X81585514Y-74841122D01*
X81474928Y-74683189D01*
X81474927Y-74683189D01*
X80628416Y-75275922D01*
X78631515Y-75275922D01*
X78627382Y-75204956D01*
X78627380Y-75204949D01*
X78577099Y-75036993D01*
X78577096Y-75036987D01*
X78526783Y-74946840D01*
X78526773Y-74946825D01*
X78498112Y-74905891D01*
X78498111Y-74905891D01*
X77652079Y-75498289D01*
X77652072Y-75498296D01*
X76491190Y-76311155D01*
X76519849Y-76352085D01*
X76519868Y-76352108D01*
X76587366Y-76430214D01*
X76727999Y-76534913D01*
X76888989Y-76604357D01*
X77061648Y-76634801D01*
X77236672Y-76624607D01*
X77236677Y-76624606D01*
X77404635Y-76574322D01*
X77494795Y-76524003D01*
X77494798Y-76524002D01*
X77497102Y-76522389D01*
X77563307Y-76500058D01*
X77631075Y-76517065D01*
X77678891Y-76568010D01*
X77691573Y-76636719D01*
X77665094Y-76701377D01*
X77654369Y-76713158D01*
X77582780Y-76782290D01*
X77522861Y-76894981D01*
X77500700Y-77020662D01*
X77500700Y-77020663D01*
X77518463Y-77147049D01*
X77518465Y-77147055D01*
X77560334Y-77232898D01*
X77560335Y-77232900D01*
X77560338Y-77232905D01*
X77883493Y-77694418D01*
X77883504Y-77694433D01*
X77885911Y-77696925D01*
X77949856Y-77763142D01*
X78006713Y-77793373D01*
X78062546Y-77823060D01*
X78188227Y-77845221D01*
X78188228Y-77845221D01*
X78188229Y-77845220D01*
X78188230Y-77845221D01*
X78314615Y-77827459D01*
X78400470Y-77785584D01*
X78911059Y-77428064D01*
X78977262Y-77405739D01*
X79003709Y-77407524D01*
X79708572Y-77531817D01*
X79708586Y-77531821D01*
X79717416Y-77533377D01*
X79717417Y-77533378D01*
X79726901Y-77535050D01*
X79737446Y-77537388D01*
X79751105Y-77541048D01*
X79810765Y-77577414D01*
X79820592Y-77589709D01*
X79824548Y-77595360D01*
X79846869Y-77661568D01*
X79829851Y-77729334D01*
X79794089Y-77768048D01*
X78973131Y-78342889D01*
X78906925Y-78365216D01*
X78880476Y-78363430D01*
X78246828Y-78251701D01*
X78191209Y-78224135D01*
X78190800Y-78224721D01*
X78186945Y-78222022D01*
X78184225Y-78220674D01*
X78181968Y-78218505D01*
X78180811Y-78217716D01*
X78179541Y-78216839D01*
X78178491Y-78216104D01*
X78178361Y-78216045D01*
X78125902Y-78192370D01*
X78124507Y-78191731D01*
X78072176Y-78167329D01*
X78070941Y-78167015D01*
X78069450Y-78166626D01*
X78068284Y-78166313D01*
X78010602Y-78161987D01*
X78009071Y-78161862D01*
X77951854Y-78156856D01*
X77951849Y-78156857D01*
X77930091Y-78162687D01*
X77910339Y-78166296D01*
X75444180Y-78412913D01*
X75424963Y-78413337D01*
X70929238Y-78163573D01*
X70908233Y-78160589D01*
X67693926Y-77418826D01*
X67669010Y-77410198D01*
X66890637Y-77043902D01*
X66838360Y-76997546D01*
X66819444Y-76930286D01*
X66820326Y-76927402D01*
X66770797Y-76956525D01*
X66700982Y-76953754D01*
X66687809Y-76948453D01*
X63413493Y-75407588D01*
X63404501Y-75402898D01*
X61294972Y-74190413D01*
X61277793Y-74178508D01*
X58664525Y-72019895D01*
X58657576Y-72013306D01*
X58657555Y-72013330D01*
X58653563Y-72009686D01*
X58653558Y-72009681D01*
X58653551Y-72009676D01*
X58653546Y-72009671D01*
X58636752Y-71996837D01*
X58633075Y-71993916D01*
X58616763Y-71980442D01*
X58612307Y-71977373D01*
X58612323Y-71977348D01*
X58604329Y-71972062D01*
X58229063Y-71685300D01*
X58196229Y-71647481D01*
X58144550Y-71555435D01*
X58128895Y-71487345D01*
X58152538Y-71421597D01*
X58207974Y-71379068D01*
X58277602Y-71373262D01*
X58323796Y-71393155D01*
X58969678Y-71845406D01*
X59055533Y-71887281D01*
X59181918Y-71905043D01*
X59181918Y-71905042D01*
X59181919Y-71905043D01*
X59181920Y-71905043D01*
X59245549Y-71893823D01*
X59307604Y-71882881D01*
X59411191Y-71827802D01*
X59479625Y-71813710D01*
X59540526Y-71835711D01*
X60209715Y-72304282D01*
X60215285Y-72308182D01*
X60239266Y-72330189D01*
X60261640Y-72356932D01*
X60261644Y-72356936D01*
X60296621Y-72377198D01*
X60305574Y-72382910D01*
X61188320Y-73001004D01*
X61196889Y-73007580D01*
X61210673Y-73019148D01*
X61227579Y-73033337D01*
X61227582Y-73033338D01*
X61265257Y-73047055D01*
X61275237Y-73051189D01*
X61311585Y-73068138D01*
X61311586Y-73068138D01*
X61311588Y-73068139D01*
X61314565Y-73068937D01*
X61342180Y-73075060D01*
X61351403Y-73078418D01*
X61350901Y-73079795D01*
X61386277Y-73094447D01*
X62398933Y-73803516D01*
X62440557Y-73821832D01*
X62501370Y-73823158D01*
X62558062Y-73801112D01*
X62569295Y-73790359D01*
X62590905Y-73769672D01*
X62590905Y-73769671D01*
X62590911Y-73769666D01*
X62649614Y-73685828D01*
X62704187Y-73642207D01*
X62773685Y-73635013D01*
X62782328Y-73636929D01*
X62791133Y-73639213D01*
X62934842Y-73634651D01*
X63071438Y-73589790D01*
X63189865Y-73508258D01*
X63229265Y-73463151D01*
X63229277Y-73463135D01*
X63256697Y-73423972D01*
X63256697Y-73423971D01*
X62410186Y-72831238D01*
X62405200Y-72832118D01*
X62335761Y-72824374D01*
X62312551Y-72811580D01*
X62087539Y-72654026D01*
X62043917Y-72599451D01*
X62036549Y-72573985D01*
X62035669Y-72568998D01*
X61189158Y-71976265D01*
X61189157Y-71976265D01*
X61171892Y-72000924D01*
X61117315Y-72044549D01*
X61047817Y-72051743D01*
X60999194Y-72031376D01*
X60754104Y-71859765D01*
X60730121Y-71837756D01*
X60707754Y-71811021D01*
X60672781Y-71790760D01*
X60663816Y-71785040D01*
X60402048Y-71601748D01*
X61451399Y-71601748D01*
X62597948Y-72404571D01*
X62597949Y-72404573D01*
X63518937Y-73049454D01*
X63546368Y-73010281D01*
X63546370Y-73010278D01*
X63563517Y-72979170D01*
X63578725Y-72957452D01*
X63602085Y-72930709D01*
X63629523Y-72891521D01*
X62433354Y-72053955D01*
X62433351Y-72053951D01*
X61561984Y-71443816D01*
X61534557Y-71482987D01*
X61534555Y-71482990D01*
X61517402Y-71514106D01*
X61502205Y-71535809D01*
X61478834Y-71562567D01*
X61451399Y-71601748D01*
X60402048Y-71601748D01*
X59912712Y-71259111D01*
X59869088Y-71204534D01*
X59861043Y-71140279D01*
X59869447Y-71080487D01*
X59853379Y-70989360D01*
X59847286Y-70954803D01*
X59826645Y-70915983D01*
X59787368Y-70842113D01*
X59787367Y-70842112D01*
X59787366Y-70842110D01*
X59715771Y-70772972D01*
X59681220Y-70712243D01*
X59684988Y-70642475D01*
X59725876Y-70585819D01*
X59790904Y-70560263D01*
X59859426Y-70573921D01*
X59873028Y-70582197D01*
X59875350Y-70583822D01*
X59875362Y-70583830D01*
X59965509Y-70634143D01*
X59965510Y-70634144D01*
X60133470Y-70684428D01*
X60133475Y-70684429D01*
X60308499Y-70694623D01*
X60308500Y-70694623D01*
X60481158Y-70664179D01*
X60642148Y-70594735D01*
X60782778Y-70490039D01*
X60850292Y-70411915D01*
X60878957Y-70370975D01*
X60878958Y-70370975D01*
X59695566Y-69542357D01*
X59695563Y-69542353D01*
X58872035Y-68965715D01*
X58843370Y-69006654D01*
X58793049Y-69096812D01*
X58742767Y-69264771D01*
X58742765Y-69264778D01*
X58732571Y-69439802D01*
X58732571Y-69439803D01*
X58763015Y-69612461D01*
X58832458Y-69773448D01*
X58937157Y-69914085D01*
X59015265Y-69981585D01*
X59017596Y-69983217D01*
X59061223Y-70037792D01*
X59068419Y-70107290D01*
X59036900Y-70169646D01*
X58976671Y-70205063D01*
X58906857Y-70202295D01*
X58892118Y-70196245D01*
X58837583Y-70169646D01*
X58802657Y-70152611D01*
X58802655Y-70152610D01*
X58802654Y-70152610D01*
X58676270Y-70134848D01*
X58676269Y-70134848D01*
X58550586Y-70157010D01*
X58472140Y-70198720D01*
X58403707Y-70212812D01*
X58342804Y-70190809D01*
X58213311Y-70100137D01*
X58182858Y-70069682D01*
X58181247Y-70067381D01*
X58179565Y-70064825D01*
X58150909Y-70036171D01*
X58143580Y-70028170D01*
X58117874Y-69997520D01*
X58117871Y-69997518D01*
X58083119Y-69977442D01*
X58074023Y-69971646D01*
X57800134Y-69779868D01*
X57791551Y-69773282D01*
X57760903Y-69747565D01*
X57758266Y-69746043D01*
X57733157Y-69732971D01*
X57721586Y-69724869D01*
X57677961Y-69670293D01*
X57670593Y-69644826D01*
X57661500Y-69593258D01*
X57645756Y-69503966D01*
X57653500Y-69434530D01*
X57666294Y-69411319D01*
X58384757Y-68385245D01*
X58439332Y-68341623D01*
X58464788Y-68334257D01*
X59165975Y-68210620D01*
X59235412Y-68218364D01*
X59289641Y-68262421D01*
X59311443Y-68328802D01*
X59293895Y-68396432D01*
X59261559Y-68432194D01*
X59255006Y-68437073D01*
X59255005Y-68437073D01*
X59187496Y-68515190D01*
X59158823Y-68556139D01*
X60216280Y-69296578D01*
X61165744Y-69961399D01*
X61194412Y-69920458D01*
X61194414Y-69920456D01*
X61244731Y-69830305D01*
X61244731Y-69830303D01*
X61295014Y-69662345D01*
X61295207Y-69659040D01*
X61295976Y-69656890D01*
X61296269Y-69655231D01*
X61296552Y-69655280D01*
X61318753Y-69593258D01*
X61374126Y-69550648D01*
X61443745Y-69544739D01*
X61490121Y-69564669D01*
X62508266Y-70277582D01*
X62551891Y-70332159D01*
X62559259Y-70357624D01*
X62592412Y-70545646D01*
X62594455Y-70557228D01*
X62586711Y-70626668D01*
X62542655Y-70680897D01*
X62530141Y-70687522D01*
X62522859Y-70692161D01*
X62490017Y-70723600D01*
X62490014Y-70723604D01*
X62431309Y-70807441D01*
X62376731Y-70851065D01*
X62307232Y-70858257D01*
X62298596Y-70856343D01*
X62289789Y-70854058D01*
X62146081Y-70858620D01*
X62009485Y-70903481D01*
X61891058Y-70985013D01*
X61851658Y-71030121D01*
X61824225Y-71069298D01*
X62670735Y-71662031D01*
X62675718Y-71661153D01*
X62745157Y-71668897D01*
X62768373Y-71681693D01*
X62829391Y-71724418D01*
X62993382Y-71839246D01*
X63037006Y-71893823D01*
X63044374Y-71919288D01*
X63045252Y-71924272D01*
X63891764Y-72517005D01*
X63919192Y-72477835D01*
X63919196Y-72477829D01*
X63948109Y-72425375D01*
X63984217Y-72286208D01*
X63979655Y-72142498D01*
X63934794Y-72005903D01*
X63934793Y-72005902D01*
X63929635Y-71998409D01*
X63907832Y-71932028D01*
X63925379Y-71864398D01*
X63930196Y-71856968D01*
X63988893Y-71773140D01*
X63988894Y-71773138D01*
X63988895Y-71773137D01*
X64007211Y-71731513D01*
X64008537Y-71670700D01*
X63986491Y-71614009D01*
X63955049Y-71581163D01*
X63955050Y-71581163D01*
X63955046Y-71581160D01*
X63955045Y-71581159D01*
X63445323Y-71224248D01*
X63401701Y-71169673D01*
X63394335Y-71144214D01*
X63260821Y-70387016D01*
X63268565Y-70317579D01*
X63312622Y-70263350D01*
X63379003Y-70241548D01*
X63446633Y-70259096D01*
X63454056Y-70263908D01*
X67575298Y-73149631D01*
X67581908Y-73154259D01*
X67625533Y-73208836D01*
X67632901Y-73234300D01*
X67681179Y-73508077D01*
X67673436Y-73577516D01*
X67629380Y-73631746D01*
X67562999Y-73653549D01*
X67495368Y-73636002D01*
X67487940Y-73631186D01*
X66204076Y-72732215D01*
X66151622Y-72703302D01*
X66012454Y-72667194D01*
X65868745Y-72671756D01*
X65732149Y-72716617D01*
X65613722Y-72798149D01*
X65574322Y-72843257D01*
X65546889Y-72882434D01*
X66666342Y-73666284D01*
X66709967Y-73720861D01*
X66717160Y-73790359D01*
X66696794Y-73838983D01*
X66576801Y-74010350D01*
X66522224Y-74053974D01*
X66452725Y-74061167D01*
X66404103Y-74040801D01*
X65284648Y-73256952D01*
X65257220Y-73296124D01*
X65257211Y-73296139D01*
X65228304Y-73348579D01*
X65192196Y-73487749D01*
X65196758Y-73631459D01*
X65241619Y-73768054D01*
X65241621Y-73768058D01*
X65246779Y-73775550D01*
X65268581Y-73841931D01*
X65251033Y-73909561D01*
X65246219Y-73916988D01*
X65197792Y-73986150D01*
X65187517Y-74000824D01*
X65187516Y-74000825D01*
X65164282Y-74053626D01*
X65160284Y-74051866D01*
X65137954Y-74092347D01*
X65135771Y-74094091D01*
X65135873Y-74094198D01*
X65094202Y-74134088D01*
X64814693Y-74533268D01*
X64791456Y-74586076D01*
X64787464Y-74584319D01*
X64765066Y-74624856D01*
X64762954Y-74626544D01*
X64763050Y-74626645D01*
X64721379Y-74666535D01*
X64441869Y-75065717D01*
X64423554Y-75107339D01*
X64423553Y-75107341D01*
X64422227Y-75168155D01*
X64422227Y-75168156D01*
X64444272Y-75224845D01*
X64444274Y-75224848D01*
X64475716Y-75257694D01*
X64475721Y-75257699D01*
X65748772Y-76149098D01*
X65748773Y-76149098D01*
X65748774Y-76149099D01*
X65790398Y-76167415D01*
X65851211Y-76168741D01*
X65887341Y-76154690D01*
X65956955Y-76148738D01*
X66003405Y-76168683D01*
X66764169Y-76701377D01*
X66811732Y-76734681D01*
X66855356Y-76789258D01*
X66861172Y-76845460D01*
X66893219Y-76818328D01*
X66941274Y-76807724D01*
X66942825Y-76807696D01*
X66942826Y-76807697D01*
X66945345Y-76807653D01*
X66977503Y-76811317D01*
X66979948Y-76811927D01*
X67001056Y-76808205D01*
X67020403Y-76806342D01*
X67039472Y-76806009D01*
X67054856Y-76805742D01*
X67054897Y-76808105D01*
X67106837Y-76811151D01*
X67163303Y-76852300D01*
X67163372Y-76852391D01*
X67173031Y-76864978D01*
X67173853Y-76866049D01*
X67289350Y-76954673D01*
X67289353Y-76954674D01*
X67289354Y-76954675D01*
X67356600Y-76982529D01*
X67423850Y-77010385D01*
X67496018Y-77019886D01*
X67568185Y-77029387D01*
X67568186Y-77029387D01*
X67568187Y-77029387D01*
X67616298Y-77023053D01*
X67712522Y-77010385D01*
X67847017Y-76954675D01*
X67847018Y-76954675D01*
X67847018Y-76954674D01*
X67847022Y-76954673D01*
X67962519Y-76866049D01*
X68051143Y-76750552D01*
X68106855Y-76616052D01*
X68125857Y-76471716D01*
X68120240Y-76429054D01*
X68106855Y-76327381D01*
X68106855Y-76327380D01*
X68051143Y-76192881D01*
X67977715Y-76097187D01*
X67962520Y-76077384D01*
X67962519Y-76077383D01*
X67847022Y-75988759D01*
X67847019Y-75988758D01*
X67847017Y-75988756D01*
X67712525Y-75933048D01*
X67712520Y-75933046D01*
X67568187Y-75914045D01*
X67568185Y-75914045D01*
X67423851Y-75933046D01*
X67423849Y-75933047D01*
X67289351Y-75988758D01*
X67192703Y-76062919D01*
X67173853Y-76077383D01*
X67085229Y-76192881D01*
X67085228Y-76192882D01*
X67085225Y-76192887D01*
X67085180Y-76192965D01*
X67085124Y-76193017D01*
X67080282Y-76199329D01*
X67079296Y-76198573D01*
X67034607Y-76241174D01*
X66965998Y-76254388D01*
X66906677Y-76232526D01*
X66295909Y-75804860D01*
X66252285Y-75750283D01*
X66245092Y-75680784D01*
X66276614Y-75618430D01*
X66281287Y-75613711D01*
X66313571Y-75582806D01*
X66313571Y-75582805D01*
X66313575Y-75582802D01*
X66381939Y-75485166D01*
X66436511Y-75441544D01*
X66461969Y-75434178D01*
X66499892Y-75427491D01*
X76064937Y-75427491D01*
X76075131Y-75602515D01*
X76075133Y-75602522D01*
X76125414Y-75770478D01*
X76125417Y-75770484D01*
X76175730Y-75860631D01*
X76175740Y-75860647D01*
X76204400Y-75901579D01*
X76204401Y-75901579D01*
X77003073Y-75342342D01*
X76572891Y-74727979D01*
X76347640Y-74885702D01*
X76347629Y-74885711D01*
X76269523Y-74953209D01*
X76269519Y-74953213D01*
X76164824Y-75093845D01*
X76095381Y-75254832D01*
X76064937Y-75427490D01*
X76064937Y-75427491D01*
X66499892Y-75427491D01*
X67541230Y-75243870D01*
X67547600Y-75242919D01*
X67587457Y-75238027D01*
X67605817Y-75226995D01*
X67623216Y-75218320D01*
X67643090Y-75210291D01*
X67644833Y-75208485D01*
X67670174Y-75188328D01*
X67672326Y-75187036D01*
X67684614Y-75169486D01*
X67696989Y-75154475D01*
X67711867Y-75139069D01*
X67712724Y-75136713D01*
X67727675Y-75107992D01*
X68233075Y-74386244D01*
X68236895Y-74381082D01*
X68261637Y-74349415D01*
X68266819Y-74328628D01*
X68272987Y-74310195D01*
X68281357Y-74290479D01*
X68281313Y-74287960D01*
X68284978Y-74255792D01*
X68285588Y-74253347D01*
X68281867Y-74232248D01*
X68280005Y-74212896D01*
X68279632Y-74191485D01*
X68278563Y-74189194D01*
X68268831Y-74158327D01*
X68267575Y-74151203D01*
X68160969Y-73546657D01*
X68168712Y-73477220D01*
X68212768Y-73422990D01*
X68279149Y-73401187D01*
X68310965Y-73404300D01*
X71530304Y-74147234D01*
X71559228Y-74158393D01*
X71561779Y-74159182D01*
X71561780Y-74159182D01*
X71561782Y-74159183D01*
X71586856Y-74161462D01*
X71603505Y-74164127D01*
X71603649Y-74164161D01*
X71613712Y-74164335D01*
X71615019Y-74164358D01*
X71624097Y-74164847D01*
X74373829Y-74414828D01*
X74395217Y-74418687D01*
X74412672Y-74423447D01*
X74455695Y-74416827D01*
X74459691Y-74416281D01*
X74502938Y-74411121D01*
X74502942Y-74411118D01*
X74504438Y-74410940D01*
X74522085Y-74406612D01*
X77270097Y-73983825D01*
X77339349Y-73993086D01*
X77392602Y-74038319D01*
X77412946Y-74105161D01*
X77393923Y-74172391D01*
X77341573Y-74218664D01*
X77324518Y-74225173D01*
X77297880Y-74233148D01*
X77207710Y-74283473D01*
X76982467Y-74441188D01*
X76982467Y-74441189D01*
X77412649Y-75055553D01*
X77858344Y-74743474D01*
X80255592Y-74743474D01*
X80283027Y-74782655D01*
X80283032Y-74782662D01*
X80306392Y-74809405D01*
X80321597Y-74831119D01*
X80338748Y-74862233D01*
X80338750Y-74862238D01*
X80366176Y-74901406D01*
X80366177Y-74901406D01*
X81052340Y-74420950D01*
X81849444Y-74420950D01*
X81960030Y-74578883D01*
X81960031Y-74578883D01*
X82806542Y-73986150D01*
X82779117Y-73946982D01*
X82779099Y-73946959D01*
X82755740Y-73920216D01*
X82740534Y-73898501D01*
X82723388Y-73867395D01*
X82723380Y-73867382D01*
X82695956Y-73828217D01*
X82695955Y-73828216D01*
X81849444Y-74420949D01*
X81849444Y-74420950D01*
X81052340Y-74420950D01*
X81212688Y-74308673D01*
X81102103Y-74150742D01*
X80255592Y-74743474D01*
X77858344Y-74743474D01*
X78211322Y-74496316D01*
X78182653Y-74455372D01*
X78182649Y-74455367D01*
X78115147Y-74377257D01*
X77974514Y-74272558D01*
X77813525Y-74203114D01*
X77635940Y-74171801D01*
X77573338Y-74140774D01*
X77537447Y-74080827D01*
X77539664Y-74010992D01*
X77579285Y-73953443D01*
X77638616Y-73927127D01*
X77705484Y-73916840D01*
X77723652Y-73917034D01*
X77723620Y-73916124D01*
X77736647Y-73915661D01*
X77736647Y-73915660D01*
X77736649Y-73915661D01*
X77768700Y-73907647D01*
X77779907Y-73905390D01*
X77787797Y-73904177D01*
X77791110Y-73902922D01*
X77804962Y-73898582D01*
X79742950Y-73414093D01*
X79794554Y-73412276D01*
X79987302Y-73446264D01*
X79993596Y-73447545D01*
X80032748Y-73456585D01*
X80032749Y-73456584D01*
X80032751Y-73456585D01*
X80033527Y-73456599D01*
X80035552Y-73457232D01*
X80045451Y-73459518D01*
X80045276Y-73460272D01*
X80100213Y-73477450D01*
X80145040Y-73531044D01*
X80153775Y-73600366D01*
X80123646Y-73663405D01*
X80102489Y-73682154D01*
X80076961Y-73700028D01*
X80076957Y-73700032D01*
X80031857Y-73739426D01*
X80031856Y-73739427D01*
X79950323Y-73857856D01*
X79905462Y-73994451D01*
X79900900Y-74138161D01*
X79937008Y-74277331D01*
X79965917Y-74329774D01*
X79993353Y-74368958D01*
X80679516Y-73888502D01*
X81476620Y-73888502D01*
X81587204Y-74046433D01*
X81587205Y-74046433D01*
X82433716Y-73453700D01*
X82406282Y-73414519D01*
X82382919Y-73387773D01*
X82367710Y-73366053D01*
X82350569Y-73334955D01*
X82323131Y-73295769D01*
X81476620Y-73888501D01*
X81476620Y-73888502D01*
X80679516Y-73888502D01*
X80839864Y-73776225D01*
X80839864Y-73776224D01*
X80540120Y-73348143D01*
X80528319Y-73342295D01*
X80492429Y-73282347D01*
X80494647Y-73212513D01*
X80534267Y-73154963D01*
X80541314Y-73149643D01*
X80727682Y-73019146D01*
X80793885Y-72996821D01*
X80861653Y-73013831D01*
X80909466Y-73064779D01*
X80912908Y-73083438D01*
X81214381Y-73513984D01*
X82060892Y-72921252D01*
X82033459Y-72882073D01*
X82033457Y-72882070D01*
X81994060Y-72836966D01*
X81875632Y-72755434D01*
X81739034Y-72710573D01*
X81739038Y-72710573D01*
X81595324Y-72706011D01*
X81592624Y-72706712D01*
X81589836Y-72706623D01*
X81586514Y-72706994D01*
X81586460Y-72706516D01*
X81522790Y-72704492D01*
X81465241Y-72664869D01*
X81438250Y-72600423D01*
X81450386Y-72531616D01*
X81490361Y-72485111D01*
X83128494Y-71338074D01*
X83194697Y-71315749D01*
X83262465Y-71332759D01*
X83310278Y-71383707D01*
X83322956Y-71452417D01*
X83303873Y-71504210D01*
X83304104Y-71504325D01*
X83303044Y-71506463D01*
X83301757Y-71509957D01*
X83300169Y-71512263D01*
X83300164Y-71512273D01*
X83255303Y-71648868D01*
X83250741Y-71792578D01*
X83286849Y-71931748D01*
X83315758Y-71984191D01*
X83343194Y-72023375D01*
X84189705Y-71430642D01*
X84189705Y-71430641D01*
X83889962Y-71002562D01*
X83878148Y-70996707D01*
X83842260Y-70936758D01*
X83844480Y-70866924D01*
X83884102Y-70809376D01*
X83891157Y-70804050D01*
X84077523Y-70673556D01*
X84143729Y-70651229D01*
X84211496Y-70668239D01*
X84259309Y-70719187D01*
X84262754Y-70737862D01*
X84564222Y-71168401D01*
X85410733Y-70575669D01*
X85383300Y-70536490D01*
X85383298Y-70536487D01*
X85343901Y-70491383D01*
X85225473Y-70409851D01*
X85088875Y-70364990D01*
X85088879Y-70364990D01*
X84945166Y-70360428D01*
X84942447Y-70361134D01*
X84939639Y-70361044D01*
X84936355Y-70361411D01*
X84936302Y-70360938D01*
X84872612Y-70358914D01*
X84815064Y-70319292D01*
X84788073Y-70254846D01*
X84800208Y-70186038D01*
X84840183Y-70139533D01*
X84892016Y-70103239D01*
X84908840Y-70093337D01*
X84928268Y-70083879D01*
X84938055Y-70079628D01*
X84969870Y-70067416D01*
X84969871Y-70067415D01*
X84978503Y-70061808D01*
X84986634Y-70055465D01*
X84986641Y-70055462D01*
X85008558Y-70029379D01*
X85015787Y-70021495D01*
X85287141Y-69750135D01*
X85348461Y-69716651D01*
X85396353Y-69715701D01*
X85750236Y-69778106D01*
X85812839Y-69809134D01*
X85830277Y-69829098D01*
X86306000Y-70508497D01*
X86328327Y-70574703D01*
X86326541Y-70601153D01*
X86151400Y-71594467D01*
X86120374Y-71657070D01*
X86100407Y-71674510D01*
X85965095Y-71769255D01*
X85898888Y-71791582D01*
X85831121Y-71774571D01*
X85783309Y-71723623D01*
X85780473Y-71717619D01*
X85770105Y-71694055D01*
X85711403Y-71610221D01*
X85689077Y-71544016D01*
X85706087Y-71476248D01*
X85710845Y-71468779D01*
X85716004Y-71461285D01*
X85760864Y-71324693D01*
X85765426Y-71180983D01*
X85729318Y-71041816D01*
X85700404Y-70989360D01*
X85672973Y-70950186D01*
X85672972Y-70950185D01*
X84779096Y-71576082D01*
X84779094Y-71576086D01*
X83605433Y-72397891D01*
X83632859Y-72437060D01*
X83632869Y-72437072D01*
X83672267Y-72482178D01*
X83790694Y-72563710D01*
X83927292Y-72608571D01*
X83927288Y-72608571D01*
X84070999Y-72613133D01*
X84079800Y-72610850D01*
X84149634Y-72613065D01*
X84207185Y-72652684D01*
X84212519Y-72659751D01*
X84271218Y-72743581D01*
X84271226Y-72743590D01*
X84312892Y-72783477D01*
X84309871Y-72786632D01*
X84340270Y-72821451D01*
X84341166Y-72824107D01*
X84341302Y-72824048D01*
X84346219Y-72835225D01*
X84346220Y-72835227D01*
X84364535Y-72876851D01*
X84625204Y-73249124D01*
X84644050Y-73276038D01*
X84644052Y-73276040D01*
X84685718Y-73315927D01*
X84682699Y-73319080D01*
X84713113Y-73353942D01*
X84713994Y-73356553D01*
X84714126Y-73356496D01*
X84719043Y-73367673D01*
X84719044Y-73367675D01*
X84737359Y-73409299D01*
X84737360Y-73409301D01*
X84737361Y-73409302D01*
X84821823Y-73529926D01*
X85011710Y-73801112D01*
X85016874Y-73808486D01*
X85016876Y-73808488D01*
X85049717Y-73839927D01*
X85049718Y-73839927D01*
X85049720Y-73839929D01*
X85106412Y-73861975D01*
X85167225Y-73860649D01*
X85208849Y-73842334D01*
X86410413Y-73000989D01*
X86481899Y-72950934D01*
X86481900Y-72950933D01*
X86481903Y-72950931D01*
X86492024Y-72940359D01*
X86513347Y-72918084D01*
X86513348Y-72918083D01*
X86513347Y-72918083D01*
X86513350Y-72918081D01*
X86535396Y-72861390D01*
X86534070Y-72800577D01*
X86534069Y-72800574D01*
X86533838Y-72799531D01*
X86533995Y-72797197D01*
X86533803Y-72788367D01*
X86534593Y-72788349D01*
X86538547Y-72729820D01*
X86580197Y-72673722D01*
X86645564Y-72649046D01*
X86713895Y-72663628D01*
X86730382Y-72674316D01*
X86766171Y-72701778D01*
X86807129Y-72733207D01*
X86807135Y-72733210D01*
X86832195Y-72743590D01*
X86941631Y-72788920D01*
X87004502Y-72797197D01*
X87085966Y-72807922D01*
X87085967Y-72807922D01*
X87085968Y-72807922D01*
X87141781Y-72800574D01*
X87230303Y-72788920D01*
X87364798Y-72733210D01*
X87364799Y-72733210D01*
X87364799Y-72733209D01*
X87364803Y-72733208D01*
X87480300Y-72644584D01*
X87568924Y-72529087D01*
X87624636Y-72394587D01*
X87643638Y-72250251D01*
X87634421Y-72180244D01*
X87624636Y-72105916D01*
X87624636Y-72105915D01*
X87568924Y-71971416D01*
X87534025Y-71925934D01*
X87480301Y-71855919D01*
X87475350Y-71852120D01*
X87364803Y-71767294D01*
X87364800Y-71767293D01*
X87364798Y-71767291D01*
X87230306Y-71711583D01*
X87230301Y-71711581D01*
X87085968Y-71692580D01*
X87085966Y-71692580D01*
X86941632Y-71711581D01*
X86941630Y-71711582D01*
X86807128Y-71767295D01*
X86800095Y-71771356D01*
X86798341Y-71768318D01*
X86747992Y-71787615D01*
X86679589Y-71773377D01*
X86629741Y-71724418D01*
X86614276Y-71656281D01*
X86615919Y-71642484D01*
X86620557Y-71616178D01*
X86809318Y-70545610D01*
X86810595Y-70539331D01*
X86819639Y-70500162D01*
X86815553Y-70479140D01*
X86813350Y-70459816D01*
X86812603Y-70438403D01*
X86811498Y-70436137D01*
X86801228Y-70405444D01*
X86800748Y-70402972D01*
X86788463Y-70385427D01*
X86778588Y-70368662D01*
X86769201Y-70349415D01*
X86767269Y-70347794D01*
X86745402Y-70323930D01*
X86525185Y-70009430D01*
X86206439Y-69554215D01*
X86206401Y-69554146D01*
X86198475Y-69542830D01*
X86198475Y-69542828D01*
X86176762Y-69511830D01*
X86169470Y-69501418D01*
X86169461Y-69501405D01*
X86152265Y-69476848D01*
X86152218Y-69476788D01*
X86132384Y-69448471D01*
X86128789Y-69443041D01*
X86107531Y-69409020D01*
X86107530Y-69409019D01*
X86089748Y-69397024D01*
X86074544Y-69384932D01*
X86058850Y-69370302D01*
X86056496Y-69369492D01*
X86027512Y-69355043D01*
X86025449Y-69353652D01*
X86004321Y-69349925D01*
X85985513Y-69345062D01*
X85954983Y-69334556D01*
X85897997Y-69294128D01*
X85871915Y-69229310D01*
X85885016Y-69160679D01*
X85907649Y-69129625D01*
X88024806Y-67012464D01*
X88046203Y-66995349D01*
X88054504Y-66990101D01*
X88065085Y-66974229D01*
X88068976Y-66968941D01*
X88070170Y-66967101D01*
X88070174Y-66967098D01*
X88082425Y-66948230D01*
X88083095Y-66947213D01*
X89082845Y-65447603D01*
X89094486Y-65432737D01*
X89109486Y-65416331D01*
X89121935Y-65378980D01*
X89124346Y-65372381D01*
X89138897Y-65335799D01*
X89138896Y-65335799D01*
X89138898Y-65335797D01*
X89138897Y-65335793D01*
X89139998Y-65329351D01*
X89144593Y-65311006D01*
X89144868Y-65310182D01*
X89869163Y-63137284D01*
X89877824Y-63120634D01*
X89877387Y-63120435D01*
X89882798Y-63108576D01*
X89882797Y-63108576D01*
X89882799Y-63108575D01*
X89889544Y-63078217D01*
X89892951Y-63065919D01*
X89894873Y-63060155D01*
X89895487Y-63054703D01*
X89897657Y-63041709D01*
X90372908Y-60903043D01*
X90406666Y-60841871D01*
X90468138Y-60808660D01*
X90537807Y-60813956D01*
G37*
%TD.AperFunction*%
%TA.AperFunction,Conductor*%
G36*
X90152708Y-57829255D02*
G01*
X90186056Y-57890652D01*
X90188831Y-57916740D01*
X90188833Y-58929997D01*
X90188666Y-58936434D01*
X90185901Y-58989622D01*
X90184854Y-58989567D01*
X90184946Y-59001502D01*
X90090906Y-59659812D01*
X90090906Y-59659814D01*
X89945555Y-60677217D01*
X89943848Y-60686579D01*
X89442824Y-62941226D01*
X89439414Y-62953539D01*
X88698357Y-65176724D01*
X88683894Y-65206295D01*
X87713996Y-66661128D01*
X87698503Y-66680026D01*
X85131376Y-69247157D01*
X85116822Y-69257541D01*
X85117511Y-69258422D01*
X85107239Y-69266447D01*
X85085433Y-69292433D01*
X85078129Y-69300404D01*
X84739324Y-69639217D01*
X84722772Y-69653107D01*
X84715448Y-69658236D01*
X84698600Y-69668153D01*
X84694205Y-69670293D01*
X84679467Y-69677468D01*
X84679466Y-69677469D01*
X84677764Y-69679495D01*
X84653958Y-69701293D01*
X80024415Y-72942943D01*
X79958209Y-72965270D01*
X79931757Y-72963484D01*
X79862129Y-72951206D01*
X79861760Y-72951100D01*
X79800615Y-72940358D01*
X79800616Y-72940351D01*
X79800539Y-72940345D01*
X79770630Y-72935071D01*
X79770256Y-72935024D01*
X79751718Y-72931767D01*
X79751712Y-72931768D01*
X79740178Y-72934651D01*
X79714443Y-72938275D01*
X79702576Y-72938689D01*
X79702572Y-72938690D01*
X79691689Y-72943998D01*
X79667412Y-72952842D01*
X77687690Y-73447764D01*
X77676472Y-73450024D01*
X74433901Y-73948900D01*
X74403818Y-73949833D01*
X71677477Y-73701978D01*
X71660821Y-73699311D01*
X68409330Y-72948957D01*
X68391164Y-72943266D01*
X67965522Y-72773026D01*
X67945859Y-72763050D01*
X67937780Y-72758002D01*
X67926559Y-72752528D01*
X67902127Y-72746436D01*
X67886091Y-72741257D01*
X67885941Y-72741197D01*
X67885939Y-72741196D01*
X67885938Y-72741196D01*
X67885936Y-72741195D01*
X67881705Y-72739998D01*
X67873075Y-72737210D01*
X67855311Y-72730745D01*
X67842955Y-72729008D01*
X67820426Y-72728220D01*
X67754116Y-72706203D01*
X67753640Y-72705871D01*
X67499839Y-72528158D01*
X66419869Y-71771955D01*
X66376245Y-71717379D01*
X66369051Y-71647881D01*
X66400574Y-71585526D01*
X66460804Y-71550112D01*
X66530618Y-71552883D01*
X66546746Y-71559622D01*
X66761474Y-71667710D01*
X66761490Y-71667718D01*
X67039052Y-71790745D01*
X67490671Y-71990922D01*
X68234806Y-72277982D01*
X68992130Y-72528158D01*
X69760827Y-72740897D01*
X69760841Y-72740900D01*
X69760848Y-72740902D01*
X70539027Y-72915635D01*
X70539033Y-72915636D01*
X70539042Y-72915638D01*
X70890084Y-72976551D01*
X71324858Y-73051994D01*
X71324877Y-73051996D01*
X71324896Y-73052000D01*
X71669067Y-73094449D01*
X72116465Y-73149630D01*
X72116469Y-73149630D01*
X72116483Y-73149632D01*
X72911912Y-73208310D01*
X73709265Y-73227884D01*
X74506602Y-73208316D01*
X75302028Y-73149630D01*
X76093634Y-73051996D01*
X76879485Y-72915647D01*
X77657700Y-72740886D01*
X78426393Y-72528161D01*
X79183715Y-72277982D01*
X79927868Y-71990916D01*
X80657034Y-71667711D01*
X81369449Y-71309104D01*
X81698345Y-71122791D01*
X82063384Y-70916004D01*
X82063390Y-70916000D01*
X82063426Y-70915980D01*
X82737278Y-70489250D01*
X83389379Y-70030013D01*
X84018157Y-69539301D01*
X84622096Y-69018336D01*
X85199749Y-68468370D01*
X85749718Y-67890715D01*
X86270683Y-67286781D01*
X86761383Y-66657996D01*
X86761387Y-66657989D01*
X86762319Y-66656796D01*
X86762443Y-66656892D01*
X86770943Y-66647265D01*
X86772246Y-66645317D01*
X86773922Y-66642874D01*
X87226356Y-66000470D01*
X87228848Y-65997433D01*
X87230003Y-65995598D01*
X87233791Y-65989929D01*
X87235284Y-65987821D01*
X87237162Y-65984275D01*
X87650175Y-65332039D01*
X87653382Y-65326974D01*
X87655787Y-65323759D01*
X87657036Y-65321539D01*
X87660598Y-65315599D01*
X87661770Y-65313761D01*
X87663460Y-65310182D01*
X87714399Y-65220263D01*
X88047117Y-64632937D01*
X88049354Y-64629624D01*
X88050544Y-64627244D01*
X88053745Y-64621255D01*
X88055060Y-64618949D01*
X88056575Y-64615241D01*
X88406205Y-63920674D01*
X88408309Y-63917219D01*
X88409502Y-63914511D01*
X88412377Y-63908433D01*
X88413603Y-63906011D01*
X88414937Y-63902230D01*
X88420472Y-63889743D01*
X88730113Y-63191173D01*
X88732053Y-63187588D01*
X88732950Y-63185236D01*
X88735673Y-63178662D01*
X88736698Y-63176375D01*
X88737861Y-63172466D01*
X89017843Y-62446644D01*
X89019572Y-62443023D01*
X89020330Y-62440703D01*
X89022668Y-62434167D01*
X89023409Y-62432265D01*
X89024366Y-62428452D01*
X89268654Y-61688999D01*
X89270179Y-61685343D01*
X89270839Y-61682937D01*
X89272791Y-61676504D01*
X89273514Y-61674333D01*
X89274279Y-61670477D01*
X89299951Y-61577706D01*
X89481836Y-60920434D01*
X89483209Y-60916664D01*
X89483829Y-60913876D01*
X89485450Y-60907408D01*
X89486098Y-60905087D01*
X89486669Y-60901192D01*
X89657225Y-60141699D01*
X89658391Y-60137906D01*
X89658835Y-60135313D01*
X89660144Y-60128738D01*
X89660713Y-60126229D01*
X89661090Y-60122277D01*
X89794164Y-59355339D01*
X89795108Y-59351594D01*
X89795434Y-59348936D01*
X89796360Y-59342693D01*
X89796842Y-59339929D01*
X89797022Y-59336038D01*
X89892307Y-58563487D01*
X89893069Y-58559698D01*
X89893273Y-58556919D01*
X89893886Y-58550701D01*
X89894200Y-58548165D01*
X89894200Y-58544334D01*
X89941168Y-57907614D01*
X89965730Y-57842208D01*
X90021757Y-57800462D01*
X90091459Y-57795633D01*
X90152708Y-57829255D01*
G37*
%TD.AperFunction*%
%TA.AperFunction,Conductor*%
G36*
X53988925Y-59908747D02*
G01*
X53988958Y-59908587D01*
X54000934Y-59910969D01*
X54000935Y-59910970D01*
X54029595Y-59916671D01*
X54091506Y-59949057D01*
X54126079Y-60009774D01*
X54129232Y-60044769D01*
X54129003Y-60049139D01*
X54129004Y-60049148D01*
X54136676Y-60069134D01*
X54142202Y-60087789D01*
X54146655Y-60108739D01*
X54146655Y-60108741D01*
X54148140Y-60110784D01*
X54163580Y-60139220D01*
X54164485Y-60141579D01*
X54164487Y-60141582D01*
X54179624Y-60156718D01*
X54192262Y-60171514D01*
X54204849Y-60188838D01*
X54204850Y-60188839D01*
X54204851Y-60188840D01*
X54205520Y-60189226D01*
X54207027Y-60190096D01*
X54232708Y-60209799D01*
X54267568Y-60244658D01*
X54640153Y-60617232D01*
X54644623Y-60621943D01*
X54671487Y-60651778D01*
X54671489Y-60651780D01*
X54691055Y-60660491D01*
X54708150Y-60669772D01*
X54726117Y-60681440D01*
X54728601Y-60681833D01*
X54759638Y-60691026D01*
X54761937Y-60692050D01*
X54783353Y-60692050D01*
X54802747Y-60693576D01*
X54804781Y-60693898D01*
X54823907Y-60696927D01*
X54826333Y-60696276D01*
X54858432Y-60692050D01*
X56354505Y-60692053D01*
X56360918Y-60692221D01*
X56401058Y-60694326D01*
X56421050Y-60686651D01*
X56439702Y-60681125D01*
X56460654Y-60676673D01*
X56462686Y-60675195D01*
X56491143Y-60659745D01*
X56493491Y-60658844D01*
X56508641Y-60643692D01*
X56523425Y-60631067D01*
X56540754Y-60618478D01*
X56542013Y-60616295D01*
X56561715Y-60590618D01*
X56618767Y-60533565D01*
X56680090Y-60500081D01*
X56749782Y-60505065D01*
X56805715Y-60546937D01*
X56829202Y-60603711D01*
X56916785Y-61216789D01*
X56917027Y-61250076D01*
X56916879Y-61251223D01*
X56916880Y-61251225D01*
X56923420Y-61273024D01*
X56925705Y-61283403D01*
X56927085Y-61288887D01*
X56931832Y-61301837D01*
X56934176Y-61308879D01*
X57687107Y-63818630D01*
X57690453Y-63832729D01*
X58153951Y-66461395D01*
X58154910Y-66467812D01*
X58159805Y-66507673D01*
X58159806Y-66507678D01*
X58170835Y-66526033D01*
X58179515Y-66543442D01*
X58187538Y-66563301D01*
X58189350Y-66565050D01*
X58209498Y-66590379D01*
X58210797Y-66592542D01*
X58210799Y-66592543D01*
X58228341Y-66604826D01*
X58243352Y-66617199D01*
X58258760Y-66632079D01*
X58261126Y-66632940D01*
X58289836Y-66647886D01*
X58308748Y-66661128D01*
X59209248Y-67291664D01*
X59252873Y-67346241D01*
X59260067Y-67415739D01*
X59228544Y-67478094D01*
X59168314Y-67513508D01*
X59159657Y-67515355D01*
X58175323Y-67688918D01*
X58164603Y-67690330D01*
X58124675Y-67693824D01*
X58124674Y-67693825D01*
X58088353Y-67710760D01*
X58078367Y-67714897D01*
X58040701Y-67728607D01*
X58038106Y-67730105D01*
X58017531Y-67743212D01*
X58015084Y-67744926D01*
X57986731Y-67773277D01*
X57978763Y-67780578D01*
X57948069Y-67806335D01*
X57948064Y-67806340D01*
X57928031Y-67841040D01*
X57922219Y-67850164D01*
X57005285Y-69159680D01*
X56998700Y-69168261D01*
X56972944Y-69198955D01*
X56972942Y-69198960D01*
X56959236Y-69236615D01*
X56955098Y-69246605D01*
X56939563Y-69279921D01*
X56893391Y-69332361D01*
X56826198Y-69351514D01*
X56759316Y-69331299D01*
X56726897Y-69300452D01*
X56726862Y-69300404D01*
X55163288Y-67150500D01*
X55154713Y-67136945D01*
X55063076Y-66968941D01*
X53658526Y-64393899D01*
X53652257Y-64380580D01*
X53169280Y-63173189D01*
X53163166Y-63153128D01*
X52606907Y-60557227D01*
X52612108Y-60487554D01*
X52654153Y-60431750D01*
X52719693Y-60407537D01*
X52763090Y-60412270D01*
X52771067Y-60414613D01*
X52771068Y-60414613D01*
X52901302Y-60414613D01*
X52925399Y-60407537D01*
X53026260Y-60377921D01*
X53135820Y-60307512D01*
X53196555Y-60237418D01*
X53255330Y-60199646D01*
X53290259Y-60194623D01*
X53290458Y-60194623D01*
X53296876Y-60194791D01*
X53337006Y-60196895D01*
X53356989Y-60189223D01*
X53375647Y-60183695D01*
X53396597Y-60179244D01*
X53398632Y-60177764D01*
X53427088Y-60162314D01*
X53429438Y-60161413D01*
X53444587Y-60146262D01*
X53459373Y-60133635D01*
X53476698Y-60121050D01*
X53477956Y-60118869D01*
X53497660Y-60093189D01*
X53624223Y-59966626D01*
X53634689Y-59956160D01*
X53696012Y-59922675D01*
X53722370Y-59919841D01*
X53882850Y-59919841D01*
X53882851Y-59919841D01*
X53927453Y-59910970D01*
X53927453Y-59910969D01*
X53939432Y-59908587D01*
X53940286Y-59912885D01*
X53986091Y-59907916D01*
X53988925Y-59908747D01*
G37*
%TD.AperFunction*%
%TA.AperFunction,Conductor*%
G36*
X57659298Y-53827333D02*
G01*
X57715044Y-53869454D01*
X57739168Y-53935026D01*
X57737621Y-53964519D01*
X57633294Y-54565792D01*
X57632419Y-54569339D01*
X57632102Y-54571879D01*
X57631269Y-54577493D01*
X57630797Y-54580236D01*
X57630610Y-54583933D01*
X57535131Y-55358011D01*
X57534438Y-55361610D01*
X57534279Y-55363748D01*
X57533702Y-55369614D01*
X57533418Y-55371929D01*
X57533402Y-55375605D01*
X57476060Y-56153001D01*
X57475520Y-56156633D01*
X57475434Y-56159794D01*
X57475171Y-56165156D01*
X57474936Y-56168469D01*
X57475123Y-56172163D01*
X57455989Y-56951376D01*
X57455650Y-56954998D01*
X57455706Y-56957405D01*
X57455707Y-56963065D01*
X57455646Y-56965740D01*
X57455996Y-56969390D01*
X57475130Y-57748590D01*
X57474952Y-57752263D01*
X57475168Y-57755297D01*
X57475433Y-57760680D01*
X57475528Y-57764143D01*
X57476087Y-57767834D01*
X57533415Y-58545106D01*
X57533438Y-58548764D01*
X57533691Y-58550821D01*
X57534280Y-58556795D01*
X57534454Y-58559154D01*
X57535168Y-58562805D01*
X57630634Y-59336740D01*
X57630827Y-59340428D01*
X57631257Y-59342922D01*
X57632108Y-59348662D01*
X57632455Y-59351449D01*
X57633362Y-59355078D01*
X57766601Y-60122975D01*
X57766970Y-60126641D01*
X57767542Y-60129201D01*
X57768662Y-60134835D01*
X57769842Y-60141583D01*
X57771261Y-60146731D01*
X57771498Y-60148095D01*
X57774489Y-60161413D01*
X57946255Y-60926295D01*
X58158970Y-61694993D01*
X58158976Y-61695011D01*
X58409182Y-62452334D01*
X58409187Y-62452347D01*
X58409192Y-62452362D01*
X58695244Y-63193942D01*
X58696225Y-63196484D01*
X58770155Y-63363275D01*
X59019423Y-63925642D01*
X59019426Y-63925648D01*
X59019428Y-63925652D01*
X59378042Y-64638090D01*
X59412683Y-64699240D01*
X59769636Y-65329351D01*
X59771165Y-65332049D01*
X60189548Y-65992720D01*
X60197895Y-66005901D01*
X60197902Y-66005911D01*
X60311319Y-66166954D01*
X60657143Y-66657996D01*
X60657146Y-66657999D01*
X60657151Y-66658007D01*
X60882751Y-66947095D01*
X61147836Y-67286781D01*
X61147846Y-67286793D01*
X61147854Y-67286803D01*
X61668797Y-67890714D01*
X61668798Y-67890715D01*
X61668807Y-67890725D01*
X62107545Y-68351547D01*
X62218779Y-68468380D01*
X62218806Y-68468407D01*
X62460544Y-68698556D01*
X62495525Y-68759038D01*
X62492253Y-68828831D01*
X62451767Y-68885776D01*
X62386922Y-68911793D01*
X62318305Y-68898621D01*
X62303919Y-68889938D01*
X62297975Y-68885776D01*
X60482374Y-67614479D01*
X58639620Y-66324169D01*
X58595995Y-66269592D01*
X58588627Y-66244126D01*
X58323774Y-64742049D01*
X58154978Y-63784747D01*
X58154502Y-63764503D01*
X58153492Y-63752211D01*
X58153491Y-63752210D01*
X58153492Y-63752208D01*
X58145266Y-63724792D01*
X58141922Y-63710695D01*
X58141300Y-63707167D01*
X58138315Y-63699779D01*
X58134521Y-63688972D01*
X58128863Y-63670112D01*
X57384941Y-61190397D01*
X57380961Y-61172319D01*
X57172678Y-59714339D01*
X57134329Y-59445897D01*
X57133083Y-59428361D01*
X57133083Y-59037287D01*
X57133086Y-56177074D01*
X57134330Y-56159565D01*
X57382823Y-54420195D01*
X57384523Y-54410875D01*
X57494400Y-53916419D01*
X57528157Y-53855248D01*
X57589629Y-53822037D01*
X57659298Y-53827333D01*
G37*
%TD.AperFunction*%
%TA.AperFunction,Conductor*%
G36*
X87821601Y-38384511D02*
G01*
X87842243Y-38401145D01*
X93775450Y-44334362D01*
X93799966Y-44369244D01*
X94283578Y-45396909D01*
X95792362Y-48603047D01*
X95793158Y-48604737D01*
X95800189Y-48623469D01*
X96020105Y-49393175D01*
X96649455Y-51595909D01*
X96648945Y-51665777D01*
X96628603Y-51705459D01*
X96549236Y-51808893D01*
X96493525Y-51943391D01*
X96493524Y-51943393D01*
X96474523Y-52087726D01*
X96474523Y-52087729D01*
X96493524Y-52232062D01*
X96493526Y-52232067D01*
X96549234Y-52366559D01*
X96549234Y-52366560D01*
X96549236Y-52366563D01*
X96549237Y-52366564D01*
X96637861Y-52482061D01*
X96753358Y-52570685D01*
X96753361Y-52570686D01*
X96753362Y-52570687D01*
X96831407Y-52603014D01*
X96885811Y-52646854D01*
X96905955Y-52695394D01*
X96987424Y-53143488D01*
X97053125Y-53504861D01*
X97057185Y-53527189D01*
X97059185Y-53549370D01*
X97059204Y-60911978D01*
X97056251Y-60938878D01*
X96555875Y-63190511D01*
X96551362Y-63205987D01*
X96266042Y-63990610D01*
X96224632Y-64046887D01*
X96159371Y-64071841D01*
X96090978Y-64057551D01*
X96041168Y-64008554D01*
X96025508Y-63948237D01*
X96025508Y-53285792D01*
X96025980Y-53274985D01*
X96029472Y-53235069D01*
X96019100Y-53196361D01*
X96016762Y-53185821D01*
X96009800Y-53146331D01*
X96009798Y-53146327D01*
X96008765Y-53143488D01*
X95999457Y-53121016D01*
X95998177Y-53118273D01*
X95998175Y-53118266D01*
X95975186Y-53085436D01*
X95969377Y-53076318D01*
X95949336Y-53041606D01*
X95918633Y-53015843D01*
X95910657Y-53008534D01*
X94808697Y-51906579D01*
X94775212Y-51845256D01*
X94772378Y-51818898D01*
X94772378Y-51808893D01*
X94772382Y-50442673D01*
X94772852Y-50431913D01*
X94776349Y-50391958D01*
X94765975Y-50353243D01*
X94763637Y-50342700D01*
X94756676Y-50303217D01*
X94756674Y-50303214D01*
X94755647Y-50300391D01*
X94746321Y-50277874D01*
X94745052Y-50275153D01*
X94722062Y-50242319D01*
X94716250Y-50233196D01*
X94696216Y-50198496D01*
X94696211Y-50198490D01*
X94665511Y-50172730D01*
X94657536Y-50165422D01*
X94531235Y-50039121D01*
X92598691Y-48106570D01*
X92565208Y-48045249D01*
X92562374Y-48018900D01*
X92562374Y-46279388D01*
X92562846Y-46268580D01*
X92566339Y-46228659D01*
X92555967Y-46189953D01*
X92553626Y-46179398D01*
X92546666Y-46139918D01*
X92546665Y-46139916D01*
X92546665Y-46139915D01*
X92545637Y-46137092D01*
X92536319Y-46114596D01*
X92535042Y-46111857D01*
X92535042Y-46111855D01*
X92512053Y-46079023D01*
X92506244Y-46069905D01*
X92486202Y-46035193D01*
X92455506Y-46009436D01*
X92447530Y-46002128D01*
X92196375Y-45750972D01*
X90525301Y-44079888D01*
X90432808Y-43987394D01*
X90424675Y-43978424D01*
X90420125Y-43972884D01*
X90410952Y-43965022D01*
X90403981Y-43958566D01*
X90395444Y-43950029D01*
X90395443Y-43950028D01*
X90395442Y-43950027D01*
X90389572Y-43945917D01*
X90380000Y-43938491D01*
X89035495Y-42786077D01*
X88997405Y-42727503D01*
X88997029Y-42657635D01*
X89004743Y-42637569D01*
X89016515Y-42613432D01*
X89016517Y-42613427D01*
X89018241Y-42601162D01*
X89034280Y-42487043D01*
X89034280Y-42487041D01*
X89034280Y-42487040D01*
X89012119Y-42361359D01*
X88996802Y-42332552D01*
X88952201Y-42248669D01*
X88937631Y-42234599D01*
X88883492Y-42182317D01*
X88883489Y-42182315D01*
X88883487Y-42182313D01*
X88130689Y-41655199D01*
X88053348Y-41601044D01*
X88053347Y-41601043D01*
X88053345Y-41601042D01*
X87967490Y-41559167D01*
X87967488Y-41559166D01*
X87967487Y-41559166D01*
X87841103Y-41541404D01*
X87841102Y-41541404D01*
X87715419Y-41563566D01*
X87680479Y-41582144D01*
X87612045Y-41596236D01*
X87546857Y-41571093D01*
X87544803Y-41569485D01*
X87537404Y-41563566D01*
X87453319Y-41496296D01*
X87360592Y-41422113D01*
X87350374Y-41412967D01*
X87347446Y-41410039D01*
X87340501Y-41405176D01*
X87335081Y-41401380D01*
X87328749Y-41396638D01*
X87316971Y-41387216D01*
X87316965Y-41387212D01*
X87313335Y-41385228D01*
X87301684Y-41377996D01*
X86088487Y-40528508D01*
X86079905Y-40521923D01*
X86049204Y-40496162D01*
X86011546Y-40482455D01*
X86001556Y-40478317D01*
X85965229Y-40461378D01*
X85962362Y-40460610D01*
X85938505Y-40455321D01*
X85935573Y-40454804D01*
X85935572Y-40454804D01*
X85895491Y-40454804D01*
X85884684Y-40454332D01*
X85844765Y-40450839D01*
X85844763Y-40450839D01*
X85806051Y-40461212D01*
X85795493Y-40463553D01*
X85658828Y-40487652D01*
X85589389Y-40479908D01*
X85566177Y-40467114D01*
X85126494Y-40159245D01*
X85056442Y-40110194D01*
X85014822Y-40091880D01*
X85014820Y-40091879D01*
X84954006Y-40090553D01*
X84954003Y-40090553D01*
X84897314Y-40112598D01*
X84897312Y-40112599D01*
X84864468Y-40144040D01*
X84864460Y-40144050D01*
X84805762Y-40227879D01*
X84751185Y-40271504D01*
X84681687Y-40278696D01*
X84673051Y-40276782D01*
X84664244Y-40274497D01*
X84520533Y-40279059D01*
X84383937Y-40323920D01*
X84265510Y-40405452D01*
X84226110Y-40450560D01*
X84198677Y-40489737D01*
X85045186Y-41082470D01*
X85050172Y-41081591D01*
X85119611Y-41089334D01*
X85142822Y-41102128D01*
X85341017Y-41240905D01*
X85384640Y-41295480D01*
X85391834Y-41364978D01*
X85371467Y-41413601D01*
X85228589Y-41617652D01*
X85174012Y-41661277D01*
X85104514Y-41668471D01*
X85055891Y-41648104D01*
X84807806Y-41474394D01*
X84807803Y-41474390D01*
X83936436Y-40864255D01*
X83909008Y-40903427D01*
X83908999Y-40903442D01*
X83880092Y-40955882D01*
X83843984Y-41095052D01*
X83848546Y-41238762D01*
X83893407Y-41375357D01*
X83893409Y-41375360D01*
X83898567Y-41382853D01*
X83920368Y-41449234D01*
X83902819Y-41516864D01*
X83898006Y-41524289D01*
X83839305Y-41608124D01*
X83816068Y-41660931D01*
X83812076Y-41659174D01*
X83789678Y-41699711D01*
X83787566Y-41701399D01*
X83787662Y-41701500D01*
X83745991Y-41741390D01*
X83466481Y-42140572D01*
X83448166Y-42182194D01*
X83448165Y-42182196D01*
X83446839Y-42243010D01*
X83446839Y-42243011D01*
X83468884Y-42299700D01*
X83468886Y-42299703D01*
X83500328Y-42332549D01*
X83500333Y-42332554D01*
X84773384Y-43223953D01*
X84773385Y-43223953D01*
X84773386Y-43223954D01*
X84815010Y-43242270D01*
X84875823Y-43243596D01*
X84932515Y-43221550D01*
X84965364Y-43190104D01*
X85193527Y-42864253D01*
X85241591Y-42795611D01*
X85296168Y-42751986D01*
X85343166Y-42742734D01*
X85374373Y-42742734D01*
X85385182Y-42743206D01*
X85425101Y-42746699D01*
X85425101Y-42746698D01*
X85425104Y-42746699D01*
X85463839Y-42736320D01*
X85474377Y-42733984D01*
X86424465Y-42566461D01*
X86493902Y-42574205D01*
X86548131Y-42618262D01*
X86569933Y-42684643D01*
X86552385Y-42752273D01*
X86501059Y-42799680D01*
X86495110Y-42802435D01*
X86380876Y-42851711D01*
X86240244Y-42956408D01*
X86172737Y-43034522D01*
X86144064Y-43075471D01*
X87326004Y-43903074D01*
X88150985Y-44480731D01*
X88179653Y-44439790D01*
X88179655Y-44439788D01*
X88229972Y-44349637D01*
X88229972Y-44349635D01*
X88280255Y-44181676D01*
X88280257Y-44181669D01*
X88290451Y-44006645D01*
X88290451Y-44006644D01*
X88260007Y-43833986D01*
X88190564Y-43672999D01*
X88085865Y-43532362D01*
X88007756Y-43464861D01*
X88007755Y-43464860D01*
X88005422Y-43463227D01*
X87961797Y-43408650D01*
X87954603Y-43339152D01*
X87986126Y-43276797D01*
X88046356Y-43241383D01*
X88116170Y-43244154D01*
X88130904Y-43250202D01*
X88134507Y-43251959D01*
X88134511Y-43251962D01*
X88220366Y-43293837D01*
X88346751Y-43311599D01*
X88346751Y-43311598D01*
X88346752Y-43311599D01*
X88373658Y-43306854D01*
X88472437Y-43289437D01*
X88472439Y-43289436D01*
X88474148Y-43288848D01*
X88476350Y-43288746D01*
X88482048Y-43287742D01*
X88482177Y-43288478D01*
X88543943Y-43285635D01*
X88595213Y-43311945D01*
X89937417Y-44462387D01*
X89944401Y-44468853D01*
X91840256Y-46364721D01*
X91873740Y-46426043D01*
X91876574Y-46452401D01*
X91876574Y-48191906D01*
X91876102Y-48202711D01*
X91872610Y-48242630D01*
X91872610Y-48242631D01*
X91882983Y-48281343D01*
X91885324Y-48291903D01*
X91892284Y-48331376D01*
X91893311Y-48334197D01*
X91902642Y-48356724D01*
X91903907Y-48359437D01*
X91926898Y-48392272D01*
X91932708Y-48401393D01*
X91952743Y-48436095D01*
X91952746Y-48436098D01*
X91952747Y-48436099D01*
X91983447Y-48461859D01*
X91991422Y-48469167D01*
X92121695Y-48599441D01*
X94050263Y-50528016D01*
X94083748Y-50589339D01*
X94086582Y-50615697D01*
X94086578Y-51991908D01*
X94086106Y-52002716D01*
X94082612Y-52042644D01*
X94092987Y-52081362D01*
X94095328Y-52091922D01*
X94102286Y-52131384D01*
X94103310Y-52134199D01*
X94112645Y-52156735D01*
X94113911Y-52159450D01*
X94136896Y-52192275D01*
X94142707Y-52201396D01*
X94162748Y-52236107D01*
X94193444Y-52261864D01*
X94201419Y-52269171D01*
X95255030Y-53322776D01*
X95303389Y-53371134D01*
X95336874Y-53432458D01*
X95339708Y-53458816D01*
X95339708Y-63802062D01*
X95320023Y-63869101D01*
X95303389Y-63889743D01*
X95214127Y-63979005D01*
X95152804Y-64012490D01*
X95083112Y-64007506D01*
X95027179Y-63965634D01*
X95012890Y-63941132D01*
X94870475Y-63616417D01*
X94864264Y-63598723D01*
X94857785Y-63574538D01*
X94826185Y-63529409D01*
X94824597Y-63527086D01*
X94794025Y-63481213D01*
X94773849Y-63466382D01*
X94759624Y-63454164D01*
X94593643Y-63288182D01*
X94560160Y-63226861D01*
X94557326Y-63200503D01*
X94557326Y-62285498D01*
X94542384Y-62191161D01*
X94542383Y-62191159D01*
X94542383Y-62191157D01*
X94484442Y-62077441D01*
X94484440Y-62077439D01*
X94484437Y-62077435D01*
X94394202Y-61987200D01*
X94394198Y-61987197D01*
X94394197Y-61987196D01*
X94280481Y-61929255D01*
X94280479Y-61929254D01*
X94280476Y-61929253D01*
X94263388Y-61926547D01*
X94200253Y-61896618D01*
X94163321Y-61837307D01*
X94158785Y-61804080D01*
X94158785Y-59955972D01*
X94178470Y-59888934D01*
X94179683Y-59887081D01*
X94180126Y-59886418D01*
X94188835Y-59873385D01*
X94197707Y-59828784D01*
X94197706Y-58274671D01*
X94188835Y-58230069D01*
X94188833Y-58230067D01*
X94188833Y-58230065D01*
X94155041Y-58179493D01*
X94141205Y-58170248D01*
X94104465Y-58145699D01*
X94104464Y-58145698D01*
X94104463Y-58145698D01*
X94104461Y-58145697D01*
X94059866Y-58136827D01*
X93572553Y-58136827D01*
X93549335Y-58141445D01*
X93527949Y-58145699D01*
X93527947Y-58145699D01*
X93515972Y-58148082D01*
X93515120Y-58143798D01*
X93469130Y-58148719D01*
X93466473Y-58147938D01*
X93466445Y-58148081D01*
X93409868Y-58136827D01*
X93307521Y-58136827D01*
X93240482Y-58117142D01*
X93194727Y-58064338D01*
X93191339Y-58056160D01*
X93188161Y-58047640D01*
X93188157Y-58047633D01*
X93101997Y-57932539D01*
X93101994Y-57932536D01*
X92986900Y-57846376D01*
X92986893Y-57846372D01*
X92852186Y-57796130D01*
X92852179Y-57796128D01*
X92792651Y-57789727D01*
X92744807Y-57789727D01*
X92744807Y-60313727D01*
X92792635Y-60313727D01*
X92792646Y-60313726D01*
X92826807Y-60310053D01*
X92895567Y-60322457D01*
X92919774Y-60338355D01*
X92930169Y-60347078D01*
X92938141Y-60354383D01*
X93325094Y-60741334D01*
X93370720Y-60786959D01*
X93404205Y-60848282D01*
X93407039Y-60874643D01*
X93407033Y-61248900D01*
X93407033Y-61248908D01*
X93422738Y-61337980D01*
X93422739Y-61337983D01*
X93422740Y-61337986D01*
X93422741Y-61337987D01*
X93456373Y-61396242D01*
X93472985Y-61458240D01*
X93472985Y-61881635D01*
X93453300Y-61948674D01*
X93421871Y-61981952D01*
X93414655Y-61987194D01*
X93324414Y-62077435D01*
X93324411Y-62077439D01*
X93266467Y-62191161D01*
X93250898Y-62289463D01*
X93220969Y-62352598D01*
X93161657Y-62389529D01*
X93091795Y-62388531D01*
X93033562Y-62349921D01*
X93005448Y-62285957D01*
X93004425Y-62270065D01*
X93004425Y-62267240D01*
X93004424Y-62267224D01*
X92993931Y-62164514D01*
X92938784Y-61998092D01*
X92938782Y-61998087D01*
X92846741Y-61848866D01*
X92722771Y-61724896D01*
X92573550Y-61632855D01*
X92573545Y-61632853D01*
X92407123Y-61577706D01*
X92407116Y-61577705D01*
X92304412Y-61567212D01*
X92254426Y-61567212D01*
X92254426Y-64017211D01*
X92304398Y-64017211D01*
X92304412Y-64017210D01*
X92407123Y-64006717D01*
X92573545Y-63951570D01*
X92573550Y-63951568D01*
X92722771Y-63859527D01*
X92846741Y-63735557D01*
X92938782Y-63586336D01*
X92938784Y-63586331D01*
X92993931Y-63419909D01*
X92993932Y-63419902D01*
X93004425Y-63317198D01*
X93004425Y-63314385D01*
X93024098Y-63247342D01*
X93076895Y-63201578D01*
X93146052Y-63191623D01*
X93209612Y-63220637D01*
X93247396Y-63279409D01*
X93250898Y-63294965D01*
X93266467Y-63393262D01*
X93266468Y-63393265D01*
X93266469Y-63393267D01*
X93324410Y-63506983D01*
X93324411Y-63506984D01*
X93324414Y-63506988D01*
X93414649Y-63597223D01*
X93414653Y-63597226D01*
X93414655Y-63597228D01*
X93528371Y-63655169D01*
X93528373Y-63655169D01*
X93528375Y-63655170D01*
X93622713Y-63670112D01*
X93622718Y-63670112D01*
X93954344Y-63670112D01*
X94021383Y-63689797D01*
X94042025Y-63706431D01*
X94237608Y-63902014D01*
X94263485Y-63939890D01*
X94531208Y-64550315D01*
X94540108Y-64619616D01*
X94510128Y-64682727D01*
X94505331Y-64687801D01*
X93530139Y-65662993D01*
X93468816Y-65696478D01*
X93442458Y-65699312D01*
X93258086Y-65699312D01*
X93247279Y-65698840D01*
X93207358Y-65695347D01*
X93204375Y-65695608D01*
X93176236Y-65699313D01*
X92229252Y-65699313D01*
X92162213Y-65679628D01*
X92141571Y-65662994D01*
X91340074Y-64861497D01*
X91306589Y-64800174D01*
X91303755Y-64773816D01*
X91303755Y-64079698D01*
X91323440Y-64012659D01*
X91376244Y-63966904D01*
X91445402Y-63956960D01*
X91466759Y-63961992D01*
X91601728Y-64006717D01*
X91601735Y-64006718D01*
X91704445Y-64017211D01*
X91754425Y-64017210D01*
X91754426Y-64017210D01*
X91754426Y-61567212D01*
X91754425Y-61567211D01*
X91704455Y-61567212D01*
X91704437Y-61567213D01*
X91601728Y-61577706D01*
X91466759Y-61622431D01*
X91396931Y-61624833D01*
X91336889Y-61589101D01*
X91305696Y-61526581D01*
X91303755Y-61504725D01*
X91303755Y-60167585D01*
X91323440Y-60100546D01*
X91340068Y-60079909D01*
X91437535Y-59982442D01*
X91498854Y-59948960D01*
X91568546Y-59953944D01*
X91572673Y-59955568D01*
X91577948Y-59957753D01*
X91577951Y-59957755D01*
X91577954Y-59957755D01*
X91577955Y-59957756D01*
X91592951Y-59960738D01*
X91622552Y-59966627D01*
X91724894Y-59966626D01*
X91791931Y-59986310D01*
X91837687Y-60039113D01*
X91841073Y-60047289D01*
X91844253Y-60055815D01*
X91844255Y-60055819D01*
X91930416Y-60170914D01*
X91930419Y-60170917D01*
X92045513Y-60257077D01*
X92045520Y-60257081D01*
X92180227Y-60307323D01*
X92180234Y-60307325D01*
X92239762Y-60313726D01*
X92239779Y-60313727D01*
X92287607Y-60313727D01*
X92287607Y-57789727D01*
X92239762Y-57789727D01*
X92180234Y-57796128D01*
X92180227Y-57796130D01*
X92045520Y-57846372D01*
X92045513Y-57846376D01*
X91930419Y-57932536D01*
X91930416Y-57932539D01*
X91844256Y-58047633D01*
X91841073Y-58056167D01*
X91799198Y-58112098D01*
X91733733Y-58136512D01*
X91724894Y-58136827D01*
X91622554Y-58136827D01*
X91577950Y-58145699D01*
X91577947Y-58145700D01*
X91527375Y-58179492D01*
X91493580Y-58230070D01*
X91493579Y-58230072D01*
X91484709Y-58274667D01*
X91484709Y-58896930D01*
X91465024Y-58963969D01*
X91448390Y-58984612D01*
X91059514Y-59373485D01*
X91051592Y-59380748D01*
X91020805Y-59406610D01*
X91000846Y-59441221D01*
X90995006Y-59450393D01*
X90990231Y-59457213D01*
X90976334Y-59473775D01*
X90786334Y-59663775D01*
X90725011Y-59697260D01*
X90655319Y-59692276D01*
X90599386Y-59650404D01*
X90574969Y-59584940D01*
X90575899Y-59558559D01*
X90650363Y-59037285D01*
X90655801Y-59020099D01*
X90654825Y-59019838D01*
X90658191Y-59007251D01*
X90658194Y-59007246D01*
X90659930Y-58973852D01*
X90661010Y-58962751D01*
X90662202Y-58954413D01*
X90661989Y-58951282D01*
X90661875Y-58936463D01*
X90662044Y-58933226D01*
X90663337Y-58908371D01*
X90661638Y-58897671D01*
X90660167Y-58891009D01*
X90659364Y-58888184D01*
X90659054Y-58885967D01*
X90656916Y-58876276D01*
X90656329Y-58867581D01*
X90656489Y-58867570D01*
X90654633Y-58854264D01*
X90654628Y-55968139D01*
X90658599Y-55937011D01*
X90666055Y-55908262D01*
X90666054Y-55908260D01*
X90666055Y-55908259D01*
X90666569Y-55896672D01*
X90665951Y-55885059D01*
X90665950Y-55885058D01*
X90665951Y-55885057D01*
X90657615Y-55854054D01*
X90655057Y-55842279D01*
X90546499Y-55190927D01*
X91137609Y-55190927D01*
X91137609Y-55772171D01*
X91144010Y-55831699D01*
X91144012Y-55831706D01*
X91194254Y-55966413D01*
X91194258Y-55966420D01*
X91280418Y-56081514D01*
X91280421Y-56081517D01*
X91395515Y-56167677D01*
X91395522Y-56167681D01*
X91530229Y-56217923D01*
X91530236Y-56217925D01*
X91589764Y-56224326D01*
X91589781Y-56224327D01*
X91637609Y-56224327D01*
X91637609Y-55190927D01*
X91137609Y-55190927D01*
X90546499Y-55190927D01*
X90374661Y-54159890D01*
X90374662Y-54159883D01*
X90366441Y-54110564D01*
X90364753Y-54090187D01*
X90364752Y-53868787D01*
X90384436Y-53801748D01*
X90437240Y-53755993D01*
X90488749Y-53744787D01*
X91106326Y-53744785D01*
X91173363Y-53764469D01*
X91219118Y-53817273D01*
X91229062Y-53886432D01*
X91205591Y-53943095D01*
X91194258Y-53958233D01*
X91194254Y-53958240D01*
X91144012Y-54092947D01*
X91144010Y-54092954D01*
X91137609Y-54152482D01*
X91137609Y-54733727D01*
X91970809Y-54733727D01*
X92037848Y-54753412D01*
X92083603Y-54806216D01*
X92094809Y-54857727D01*
X92094809Y-56224327D01*
X92142637Y-56224327D01*
X92142653Y-56224326D01*
X92202181Y-56217925D01*
X92202188Y-56217923D01*
X92336895Y-56167681D01*
X92336902Y-56167677D01*
X92451996Y-56081517D01*
X92451999Y-56081514D01*
X92538160Y-55966418D01*
X92538161Y-55966417D01*
X92541341Y-55957893D01*
X92583213Y-55901959D01*
X92648677Y-55877542D01*
X92657517Y-55877226D01*
X92759863Y-55877226D01*
X92804465Y-55868355D01*
X92804465Y-55868354D01*
X92816444Y-55865972D01*
X92817300Y-55870279D01*
X92862998Y-55865281D01*
X92865938Y-55866143D01*
X92865973Y-55865972D01*
X92877950Y-55868354D01*
X92877951Y-55868355D01*
X92922552Y-55877227D01*
X93409865Y-55877226D01*
X93454467Y-55868355D01*
X93454467Y-55868354D01*
X93466446Y-55865972D01*
X93467300Y-55870270D01*
X93513105Y-55865301D01*
X93515940Y-55866133D01*
X93515973Y-55865972D01*
X93527947Y-55868353D01*
X93527949Y-55868355D01*
X93572550Y-55877227D01*
X94059863Y-55877226D01*
X94104465Y-55868355D01*
X94155041Y-55834561D01*
X94188835Y-55783985D01*
X94197707Y-55739384D01*
X94197706Y-54185271D01*
X94188835Y-54140669D01*
X94188833Y-54140667D01*
X94188833Y-54140665D01*
X94155040Y-54090091D01*
X94104207Y-54056126D01*
X94059401Y-54002514D01*
X94049097Y-53953024D01*
X94049097Y-53199057D01*
X94049267Y-53192567D01*
X94050168Y-53175374D01*
X94051368Y-53152481D01*
X94043691Y-53132482D01*
X94038168Y-53113837D01*
X94033715Y-53092883D01*
X94032234Y-53090844D01*
X94016786Y-53062391D01*
X94015887Y-53060048D01*
X94000744Y-53044905D01*
X93988106Y-53030108D01*
X93975519Y-53012783D01*
X93975518Y-53012782D01*
X93973337Y-53011523D01*
X93947657Y-52991818D01*
X93915499Y-52959660D01*
X93796529Y-52840688D01*
X93763046Y-52779367D01*
X93761273Y-52736829D01*
X93779852Y-52595709D01*
X93778783Y-52587592D01*
X93760962Y-52452222D01*
X93760850Y-52451373D01*
X93705138Y-52316874D01*
X93653868Y-52250057D01*
X93616515Y-52201377D01*
X93604653Y-52192275D01*
X93501017Y-52112752D01*
X93501014Y-52112751D01*
X93501012Y-52112749D01*
X93366520Y-52057041D01*
X93366515Y-52057039D01*
X93222182Y-52038038D01*
X93222180Y-52038038D01*
X93077846Y-52057039D01*
X93077844Y-52057040D01*
X92943346Y-52112751D01*
X92827848Y-52201376D01*
X92739223Y-52316874D01*
X92683512Y-52451372D01*
X92683511Y-52451374D01*
X92664510Y-52595707D01*
X92664510Y-52595710D01*
X92683511Y-52740043D01*
X92683513Y-52740048D01*
X92739221Y-52874540D01*
X92739221Y-52874541D01*
X92739223Y-52874544D01*
X92739224Y-52874545D01*
X92824760Y-52986018D01*
X92827849Y-52990043D01*
X92866584Y-53019765D01*
X92908091Y-53051615D01*
X92918691Y-53059748D01*
X92959894Y-53116176D01*
X92960232Y-53121863D01*
X92994520Y-53111082D01*
X93044337Y-53120498D01*
X93077845Y-53134378D01*
X93147043Y-53143488D01*
X93222180Y-53153380D01*
X93222181Y-53153380D01*
X93363293Y-53134802D01*
X93432328Y-53145567D01*
X93467157Y-53170058D01*
X93546980Y-53249880D01*
X93580463Y-53311200D01*
X93583297Y-53337559D01*
X93583297Y-53719824D01*
X93563612Y-53786863D01*
X93510808Y-53832618D01*
X93441650Y-53842562D01*
X93378094Y-53813537D01*
X93358982Y-53792713D01*
X93351934Y-53783013D01*
X93336486Y-53754563D01*
X93335583Y-53752210D01*
X93320441Y-53737068D01*
X93307805Y-53722275D01*
X93295215Y-53704946D01*
X93295213Y-53704944D01*
X93295211Y-53704942D01*
X93293034Y-53703686D01*
X93267354Y-53683981D01*
X92937175Y-53353803D01*
X92932709Y-53349097D01*
X92904738Y-53318034D01*
X92882600Y-53271909D01*
X92868119Y-53279595D01*
X92817425Y-53279414D01*
X92815388Y-53278981D01*
X92815385Y-53278981D01*
X92793969Y-53278981D01*
X92774570Y-53277454D01*
X92753420Y-53274104D01*
X92750987Y-53274756D01*
X92718894Y-53278981D01*
X90332886Y-53278988D01*
X90265847Y-53259304D01*
X90220092Y-53206500D01*
X90210574Y-53175378D01*
X89899447Y-51308631D01*
X89897885Y-51293800D01*
X89896633Y-51265836D01*
X89890055Y-51252681D01*
X89881593Y-51235757D01*
X89877118Y-51225711D01*
X89864819Y-51194429D01*
X89864816Y-51194426D01*
X89864816Y-51194425D01*
X89857632Y-51183555D01*
X89858503Y-51182978D01*
X89847931Y-51168435D01*
X89846175Y-51164924D01*
X88885967Y-49244531D01*
X88878777Y-49226872D01*
X88876948Y-49221160D01*
X88876948Y-49221157D01*
X88868230Y-49205901D01*
X88857303Y-49186778D01*
X88854055Y-49180709D01*
X88852795Y-49178189D01*
X88847538Y-49167674D01*
X88847536Y-49167671D01*
X88844036Y-49162190D01*
X88844080Y-49162161D01*
X88838725Y-49154267D01*
X88735687Y-48973950D01*
X88368505Y-48331376D01*
X87862666Y-47446151D01*
X87853627Y-47422975D01*
X87850208Y-47415600D01*
X87850208Y-47415598D01*
X87843500Y-47406654D01*
X87833837Y-47393769D01*
X87825379Y-47380898D01*
X87824255Y-47378930D01*
X87818059Y-47371987D01*
X87811396Y-47363848D01*
X86326354Y-45383764D01*
X86310131Y-45354416D01*
X86309882Y-45354032D01*
X86304383Y-45348533D01*
X86292804Y-45336954D01*
X86283096Y-45325760D01*
X86281825Y-45324391D01*
X86272465Y-45316217D01*
X86266349Y-45310501D01*
X85893240Y-44937404D01*
X85060374Y-44104566D01*
X85044049Y-44079888D01*
X85042981Y-44080609D01*
X85035694Y-44069799D01*
X85033839Y-44068006D01*
X85013714Y-44042696D01*
X85012391Y-44040493D01*
X84994899Y-44028246D01*
X84979855Y-44015841D01*
X84964495Y-44000998D01*
X84964491Y-44000996D01*
X84964489Y-44000995D01*
X84962066Y-44000112D01*
X84933399Y-43985182D01*
X84896200Y-43959135D01*
X85717812Y-43959135D01*
X85748256Y-44131793D01*
X85817699Y-44292780D01*
X85922398Y-44433417D01*
X86000507Y-44500918D01*
X86000508Y-44500919D01*
X86860594Y-45103156D01*
X86860603Y-45103162D01*
X86950750Y-45153475D01*
X86950751Y-45153476D01*
X87118711Y-45203760D01*
X87118716Y-45203761D01*
X87293740Y-45213955D01*
X87293741Y-45213955D01*
X87466399Y-45183511D01*
X87627389Y-45114067D01*
X87768019Y-45009371D01*
X87835533Y-44931247D01*
X87864198Y-44890307D01*
X87864199Y-44890307D01*
X86680807Y-44061689D01*
X86680804Y-44061685D01*
X85857276Y-43485047D01*
X85828611Y-43525986D01*
X85778290Y-43616144D01*
X85728008Y-43784103D01*
X85728006Y-43784110D01*
X85717812Y-43959134D01*
X85717812Y-43959135D01*
X84896200Y-43959135D01*
X81337506Y-41467300D01*
X81293882Y-41412723D01*
X81286689Y-41343224D01*
X81318211Y-41280870D01*
X81378441Y-41245456D01*
X81434092Y-41245677D01*
X81434108Y-41245534D01*
X81435441Y-41245682D01*
X81439777Y-41245700D01*
X81442923Y-41246516D01*
X81586630Y-41241954D01*
X81723226Y-41197093D01*
X81841653Y-41115561D01*
X81881053Y-41070454D01*
X81881065Y-41070438D01*
X81908485Y-41031275D01*
X81908485Y-41031274D01*
X81061975Y-40438542D01*
X80762304Y-40866516D01*
X80760806Y-40879943D01*
X80716747Y-40934170D01*
X80650365Y-40955968D01*
X80582735Y-40938416D01*
X80575313Y-40933604D01*
X80388699Y-40802934D01*
X80345074Y-40748357D01*
X80337882Y-40678859D01*
X80369404Y-40616504D01*
X80386100Y-40606686D01*
X80687458Y-40176302D01*
X80687457Y-40176301D01*
X80213826Y-39844661D01*
X80170201Y-39790084D01*
X80163007Y-39720586D01*
X80183371Y-39671967D01*
X80303370Y-39500591D01*
X80357944Y-39456971D01*
X80427443Y-39449778D01*
X80476065Y-39470144D01*
X81249736Y-40011874D01*
X81249737Y-40011876D01*
X82170726Y-40656758D01*
X82198154Y-40617588D01*
X82198158Y-40617582D01*
X82227071Y-40565128D01*
X82263179Y-40425961D01*
X82258617Y-40282251D01*
X82213756Y-40145656D01*
X82213755Y-40145655D01*
X82208597Y-40138162D01*
X82186794Y-40071781D01*
X82204341Y-40004151D01*
X82209140Y-39996746D01*
X82267858Y-39912889D01*
X82286174Y-39871265D01*
X82286173Y-39871265D01*
X82291094Y-39860085D01*
X82295103Y-39861849D01*
X82317314Y-39821471D01*
X82319614Y-39819632D01*
X82319502Y-39819515D01*
X82361168Y-39779628D01*
X82361168Y-39779627D01*
X82361173Y-39779623D01*
X82640684Y-39380439D01*
X82659000Y-39338815D01*
X82658999Y-39338815D01*
X82663920Y-39327635D01*
X82667926Y-39329398D01*
X82690170Y-39288991D01*
X82692434Y-39287182D01*
X82692325Y-39287068D01*
X82733991Y-39247181D01*
X82733991Y-39247180D01*
X82733996Y-39247176D01*
X83013507Y-38847992D01*
X83031823Y-38806368D01*
X83033149Y-38745555D01*
X83033147Y-38745550D01*
X83031028Y-38733530D01*
X83034363Y-38732941D01*
X83030132Y-38683504D01*
X83062758Y-38621719D01*
X83123607Y-38587381D01*
X83136306Y-38586262D01*
X83136250Y-38585904D01*
X83149123Y-38583865D01*
X83167036Y-38576989D01*
X83175819Y-38574050D01*
X83176426Y-38573804D01*
X83176430Y-38573804D01*
X83196378Y-38565743D01*
X83198170Y-38565037D01*
X83241559Y-38548384D01*
X83241559Y-38548383D01*
X83241704Y-38548328D01*
X83242382Y-38547871D01*
X83244172Y-38546686D01*
X83244913Y-38546204D01*
X83245022Y-38546090D01*
X83245026Y-38546089D01*
X83277295Y-38512672D01*
X83278758Y-38511185D01*
X83349912Y-38440033D01*
X83388802Y-38401144D01*
X83450125Y-38367660D01*
X83476471Y-38364827D01*
X87754562Y-38364826D01*
X87821601Y-38384511D01*
G37*
%TD.AperFunction*%
%TA.AperFunction,Conductor*%
G36*
X58361991Y-48970921D02*
G01*
X58397404Y-49031151D01*
X58399251Y-49039807D01*
X58460861Y-49389202D01*
X58453117Y-49458641D01*
X58440317Y-49481863D01*
X58379304Y-49568990D01*
X58359996Y-49590645D01*
X58354420Y-49595588D01*
X58354419Y-49595589D01*
X58346483Y-49613047D01*
X58342063Y-49621826D01*
X58341146Y-49623479D01*
X58333340Y-49641866D01*
X58332087Y-49644717D01*
X57981534Y-50415906D01*
X57971133Y-50431657D01*
X57971487Y-50431865D01*
X57964887Y-50443098D01*
X57955158Y-50472285D01*
X57950412Y-50484373D01*
X57948031Y-50489611D01*
X57946778Y-50495289D01*
X57943330Y-50507770D01*
X57459212Y-51960149D01*
X57450550Y-51976803D01*
X57450986Y-51977002D01*
X57445576Y-51988856D01*
X57438830Y-52019215D01*
X57435423Y-52031517D01*
X57433503Y-52037276D01*
X57432887Y-52042736D01*
X57430717Y-52055718D01*
X56940216Y-54263023D01*
X56933657Y-54279010D01*
X56935124Y-54279548D01*
X56930638Y-54291785D01*
X56925574Y-54327231D01*
X56923870Y-54336582D01*
X56921534Y-54347094D01*
X56921534Y-54347096D01*
X56921527Y-54347874D01*
X56920286Y-54364250D01*
X56676662Y-56069540D01*
X56667381Y-56101773D01*
X56667287Y-56102217D01*
X56667287Y-56126364D01*
X56666234Y-56141185D01*
X56666166Y-56143019D01*
X56667004Y-56155418D01*
X56667286Y-56163774D01*
X56667283Y-59394219D01*
X56667282Y-59394233D01*
X56667282Y-59403982D01*
X56662654Y-59437185D01*
X56662622Y-59437653D01*
X56666036Y-59461550D01*
X56667282Y-59479083D01*
X56667285Y-59774942D01*
X56647601Y-59841981D01*
X56630966Y-59862624D01*
X56522845Y-59970745D01*
X56461522Y-60004230D01*
X56391830Y-59999246D01*
X56335897Y-59957374D01*
X56311480Y-59891910D01*
X56311875Y-59869805D01*
X56317792Y-59814779D01*
X56317793Y-59814769D01*
X56317793Y-59233542D01*
X55484593Y-59233542D01*
X55417554Y-59213857D01*
X55371799Y-59161053D01*
X55360593Y-59109542D01*
X55360593Y-57742942D01*
X55817793Y-57742942D01*
X55817793Y-58776342D01*
X56317793Y-58776342D01*
X56317793Y-58195114D01*
X56317792Y-58195097D01*
X56311391Y-58135569D01*
X56311389Y-58135562D01*
X56261147Y-58000855D01*
X56261143Y-58000848D01*
X56174983Y-57885754D01*
X56174980Y-57885751D01*
X56059886Y-57799591D01*
X56059879Y-57799587D01*
X55925172Y-57749345D01*
X55925165Y-57749343D01*
X55865637Y-57742942D01*
X55817793Y-57742942D01*
X55360593Y-57742942D01*
X55312748Y-57742942D01*
X55253220Y-57749343D01*
X55253213Y-57749345D01*
X55118506Y-57799587D01*
X55118499Y-57799591D01*
X55003405Y-57885751D01*
X55003402Y-57885754D01*
X54917242Y-58000848D01*
X54914059Y-58009382D01*
X54872184Y-58065313D01*
X54806719Y-58089727D01*
X54797880Y-58090042D01*
X54695540Y-58090042D01*
X54659812Y-58097148D01*
X54650937Y-58098914D01*
X54650936Y-58098914D01*
X54638958Y-58101297D01*
X54638108Y-58097027D01*
X54591965Y-58101907D01*
X54589454Y-58101168D01*
X54589429Y-58101296D01*
X54532852Y-58090042D01*
X54045539Y-58090042D01*
X54022321Y-58094660D01*
X54000935Y-58098914D01*
X54000933Y-58098914D01*
X53988958Y-58101297D01*
X53988106Y-58097013D01*
X53942116Y-58101934D01*
X53939459Y-58101153D01*
X53939431Y-58101296D01*
X53882854Y-58090042D01*
X53395540Y-58090042D01*
X53350936Y-58098914D01*
X53350933Y-58098915D01*
X53300361Y-58132707D01*
X53266566Y-58183285D01*
X53266565Y-58183287D01*
X53257695Y-58227882D01*
X53257695Y-59467150D01*
X53238010Y-59534189D01*
X53185206Y-59579944D01*
X53116048Y-59589888D01*
X53066657Y-59571466D01*
X53026263Y-59545507D01*
X53026260Y-59545505D01*
X52942954Y-59521043D01*
X52901302Y-59508813D01*
X52901301Y-59508813D01*
X52771067Y-59508813D01*
X52771066Y-59508813D01*
X52714476Y-59525430D01*
X52646108Y-59545505D01*
X52646106Y-59545506D01*
X52646104Y-59545507D01*
X52595176Y-59578236D01*
X52528136Y-59597920D01*
X52461097Y-59578234D01*
X52415343Y-59525430D01*
X52404352Y-59481202D01*
X52404227Y-59479083D01*
X52174804Y-55578890D01*
X52190518Y-55510811D01*
X52210910Y-55483926D01*
X52463901Y-55230943D01*
X52471852Y-55223658D01*
X52502563Y-55197889D01*
X52522597Y-55163184D01*
X52528411Y-55154060D01*
X52534738Y-55145025D01*
X52551394Y-55121240D01*
X52551395Y-55121234D01*
X52552667Y-55118509D01*
X52561990Y-55096002D01*
X52563020Y-55093170D01*
X52563024Y-55093164D01*
X52569982Y-55053690D01*
X52572320Y-55043142D01*
X52582693Y-55004436D01*
X52581273Y-54988209D01*
X52595038Y-54919711D01*
X52617118Y-54889721D01*
X53035508Y-54471339D01*
X53096827Y-54437858D01*
X53166518Y-54442843D01*
X53210861Y-54471339D01*
X53221372Y-54481849D01*
X53254860Y-54543170D01*
X53257695Y-54569534D01*
X53257695Y-55692596D01*
X53266567Y-55737200D01*
X53266568Y-55737203D01*
X53298453Y-55784921D01*
X53300361Y-55787776D01*
X53350937Y-55821570D01*
X53350938Y-55821570D01*
X53350940Y-55821571D01*
X53373237Y-55826006D01*
X53395538Y-55830442D01*
X53882851Y-55830441D01*
X53927453Y-55821570D01*
X53927453Y-55821569D01*
X53939432Y-55819187D01*
X53940286Y-55823485D01*
X53986091Y-55818516D01*
X53988926Y-55819348D01*
X53988959Y-55819187D01*
X54000933Y-55821568D01*
X54000935Y-55821570D01*
X54045536Y-55830442D01*
X54147882Y-55830441D01*
X54214919Y-55850125D01*
X54260675Y-55902928D01*
X54264061Y-55911104D01*
X54267241Y-55919630D01*
X54267243Y-55919634D01*
X54353404Y-56034729D01*
X54353407Y-56034732D01*
X54468501Y-56120892D01*
X54468508Y-56120896D01*
X54603215Y-56171138D01*
X54603222Y-56171140D01*
X54662750Y-56177541D01*
X54662767Y-56177542D01*
X54710595Y-56177542D01*
X54710595Y-55144142D01*
X55167795Y-55144142D01*
X55167795Y-56177542D01*
X55215613Y-56177542D01*
X55215632Y-56177540D01*
X55250939Y-56173745D01*
X55277449Y-56173745D01*
X55312755Y-56177540D01*
X55312775Y-56177542D01*
X55360593Y-56177542D01*
X55360593Y-55144142D01*
X55817793Y-55144142D01*
X55817793Y-56177542D01*
X55865621Y-56177542D01*
X55865637Y-56177541D01*
X55925165Y-56171140D01*
X55925172Y-56171138D01*
X56059879Y-56120896D01*
X56059886Y-56120892D01*
X56174980Y-56034732D01*
X56174983Y-56034729D01*
X56261143Y-55919635D01*
X56261147Y-55919628D01*
X56311389Y-55784921D01*
X56311391Y-55784914D01*
X56317792Y-55725386D01*
X56317793Y-55725369D01*
X56317793Y-55144142D01*
X55817793Y-55144142D01*
X55360593Y-55144142D01*
X55167795Y-55144142D01*
X54710595Y-55144142D01*
X54710595Y-53653542D01*
X55167795Y-53653542D01*
X55167795Y-54686942D01*
X55360593Y-54686942D01*
X55360593Y-53653542D01*
X55817793Y-53653542D01*
X55817793Y-54686942D01*
X56317793Y-54686942D01*
X56317793Y-54105714D01*
X56317792Y-54105697D01*
X56311391Y-54046169D01*
X56311389Y-54046162D01*
X56261147Y-53911455D01*
X56261143Y-53911448D01*
X56174983Y-53796354D01*
X56174980Y-53796351D01*
X56059886Y-53710191D01*
X56059879Y-53710187D01*
X55925172Y-53659945D01*
X55925165Y-53659943D01*
X55865637Y-53653542D01*
X55817793Y-53653542D01*
X55360593Y-53653542D01*
X55312758Y-53653542D01*
X55277446Y-53657338D01*
X55250942Y-53657338D01*
X55215629Y-53653542D01*
X55167795Y-53653542D01*
X54710595Y-53653542D01*
X54662750Y-53653542D01*
X54603222Y-53659943D01*
X54603215Y-53659945D01*
X54468508Y-53710187D01*
X54468501Y-53710191D01*
X54353407Y-53796351D01*
X54353404Y-53796354D01*
X54267244Y-53911448D01*
X54264061Y-53919982D01*
X54222186Y-53975913D01*
X54156721Y-54000327D01*
X54147882Y-54000642D01*
X54045539Y-54000642D01*
X54022321Y-54005260D01*
X54000935Y-54009514D01*
X54000933Y-54009514D01*
X53988958Y-54011897D01*
X53988106Y-54007613D01*
X53942116Y-54012534D01*
X53939459Y-54011753D01*
X53939431Y-54011896D01*
X53882854Y-54000642D01*
X53882852Y-54000642D01*
X53805547Y-54000642D01*
X53738508Y-53980957D01*
X53692753Y-53928153D01*
X53682809Y-53858995D01*
X53711834Y-53795439D01*
X53717865Y-53788961D01*
X53759014Y-53747812D01*
X53892296Y-53614528D01*
X53900265Y-53607228D01*
X53930917Y-53581510D01*
X53930917Y-53581509D01*
X53930918Y-53581509D01*
X53950944Y-53546821D01*
X53956748Y-53537708D01*
X53979749Y-53504863D01*
X53979750Y-53504858D01*
X53981029Y-53502115D01*
X53990359Y-53479593D01*
X53991380Y-53476788D01*
X53991880Y-53473957D01*
X53998348Y-53437264D01*
X54000690Y-53426708D01*
X54011046Y-53388059D01*
X54007561Y-53348228D01*
X54007089Y-53337419D01*
X54007089Y-53170059D01*
X54007089Y-53102259D01*
X54026774Y-53035223D01*
X54079578Y-52989468D01*
X54111691Y-52979789D01*
X54165741Y-52971228D01*
X54165741Y-52971227D01*
X54165746Y-52971227D01*
X54279462Y-52913286D01*
X54369707Y-52823041D01*
X54427648Y-52709325D01*
X54442591Y-52614978D01*
X54442591Y-52614971D01*
X54443217Y-52611019D01*
X54473146Y-52547884D01*
X54532458Y-52510952D01*
X54602320Y-52511950D01*
X54660553Y-52550559D01*
X54688668Y-52614522D01*
X54689691Y-52630395D01*
X54689691Y-52633230D01*
X54689692Y-52633257D01*
X54700185Y-52735967D01*
X54755332Y-52902389D01*
X54755334Y-52902394D01*
X54847375Y-53051615D01*
X54971345Y-53175585D01*
X55120566Y-53267626D01*
X55120571Y-53267628D01*
X55286993Y-53322775D01*
X55287000Y-53322776D01*
X55389710Y-53333269D01*
X55439690Y-53333268D01*
X55439691Y-53333268D01*
X55439691Y-52358270D01*
X55939691Y-52358270D01*
X55939691Y-53333269D01*
X55989663Y-53333269D01*
X55989677Y-53333268D01*
X56092388Y-53322775D01*
X56258810Y-53267628D01*
X56258815Y-53267626D01*
X56408036Y-53175585D01*
X56532006Y-53051615D01*
X56624047Y-52902394D01*
X56624049Y-52902389D01*
X56679196Y-52735967D01*
X56679197Y-52735960D01*
X56689690Y-52633256D01*
X56689691Y-52633243D01*
X56689691Y-52358270D01*
X55939691Y-52358270D01*
X55439691Y-52358270D01*
X55439691Y-50883270D01*
X55939691Y-50883270D01*
X55939691Y-51858270D01*
X56689690Y-51858270D01*
X56689690Y-51583298D01*
X56689689Y-51583283D01*
X56679196Y-51480572D01*
X56624049Y-51314150D01*
X56624047Y-51314145D01*
X56532006Y-51164924D01*
X56408036Y-51040954D01*
X56258815Y-50948913D01*
X56258810Y-50948911D01*
X56092388Y-50893764D01*
X56092381Y-50893763D01*
X55989677Y-50883270D01*
X55939691Y-50883270D01*
X55439691Y-50883270D01*
X55439690Y-50883269D01*
X55389720Y-50883270D01*
X55389702Y-50883271D01*
X55286993Y-50893764D01*
X55120571Y-50948911D01*
X55120566Y-50948913D01*
X54971345Y-51040954D01*
X54847375Y-51164924D01*
X54755334Y-51314145D01*
X54755332Y-51314150D01*
X54700185Y-51480572D01*
X54700184Y-51480579D01*
X54689691Y-51583283D01*
X54689691Y-51586117D01*
X54670006Y-51653156D01*
X54617202Y-51698911D01*
X54548044Y-51708855D01*
X54484488Y-51679830D01*
X54446714Y-51621052D01*
X54443218Y-51605515D01*
X54427649Y-51507219D01*
X54427648Y-51507217D01*
X54427648Y-51507215D01*
X54369707Y-51393499D01*
X54369705Y-51393497D01*
X54369702Y-51393493D01*
X54292230Y-51316021D01*
X54258745Y-51254698D01*
X54263729Y-51185006D01*
X54292230Y-51140659D01*
X54296279Y-51136610D01*
X55393775Y-50039118D01*
X55455094Y-50005636D01*
X55481443Y-50002802D01*
X57226565Y-50002800D01*
X57254670Y-50006500D01*
X57257679Y-50006763D01*
X57257686Y-50006765D01*
X57297612Y-50003271D01*
X57308419Y-50002800D01*
X57318036Y-50002800D01*
X57318037Y-50002800D01*
X57327514Y-50001128D01*
X57338231Y-49999718D01*
X57378151Y-49996226D01*
X57378153Y-49996224D01*
X57381093Y-49995437D01*
X57404276Y-49988127D01*
X57407114Y-49987093D01*
X57407123Y-49987092D01*
X57441839Y-49967047D01*
X57451417Y-49962060D01*
X57487747Y-49945122D01*
X57490230Y-49943383D01*
X57509530Y-49928573D01*
X57511841Y-49926633D01*
X57511841Y-49926631D01*
X57511847Y-49926629D01*
X57537619Y-49895913D01*
X57544898Y-49887970D01*
X57551712Y-49881157D01*
X57557238Y-49873263D01*
X57563814Y-49864694D01*
X57573626Y-49853001D01*
X57589575Y-49833994D01*
X57589575Y-49833992D01*
X57589577Y-49833991D01*
X57591092Y-49831367D01*
X57604177Y-49806228D01*
X58175562Y-48990213D01*
X58230138Y-48946591D01*
X58299636Y-48939399D01*
X58361991Y-48970921D01*
G37*
%TD.AperFunction*%
%TA.AperFunction,Conductor*%
G36*
X64330956Y-43486949D02*
G01*
X64374147Y-43541870D01*
X64380788Y-43611423D01*
X64348772Y-43673526D01*
X64330430Y-43689336D01*
X64040248Y-43893710D01*
X64032345Y-43898065D01*
X64026708Y-43903696D01*
X64022913Y-43911004D01*
X64015081Y-43923424D01*
X64012531Y-43921816D01*
X64000761Y-43945768D01*
X63985676Y-43959696D01*
X63400355Y-44416467D01*
X63400338Y-44416481D01*
X62796447Y-44937421D01*
X62218780Y-45487404D01*
X61668816Y-46065049D01*
X61147837Y-46668989D01*
X60706935Y-47233967D01*
X60675329Y-47262561D01*
X60664584Y-47269338D01*
X60657250Y-47273143D01*
X60651637Y-47278751D01*
X60647283Y-47286641D01*
X60200614Y-47920863D01*
X60198402Y-47923604D01*
X60197210Y-47925476D01*
X60194176Y-47930015D01*
X60192550Y-47932334D01*
X60190814Y-47935564D01*
X59773782Y-48594135D01*
X59771651Y-48597019D01*
X59770069Y-48599786D01*
X59767491Y-48604089D01*
X59765848Y-48606708D01*
X59764318Y-48609919D01*
X59573592Y-48946591D01*
X59379955Y-49288400D01*
X59377953Y-49291419D01*
X59376742Y-49293812D01*
X59374163Y-49298635D01*
X59372767Y-49301112D01*
X59371359Y-49304490D01*
X59020933Y-50000674D01*
X59019048Y-50003826D01*
X59017823Y-50006572D01*
X59015502Y-50011481D01*
X59014163Y-50014157D01*
X59012928Y-50017598D01*
X58697085Y-50730141D01*
X58695372Y-50733363D01*
X58694301Y-50736117D01*
X58692253Y-50741061D01*
X58690991Y-50743931D01*
X58689928Y-50747435D01*
X58409351Y-51474775D01*
X58407806Y-51478081D01*
X58407047Y-51480369D01*
X58405126Y-51485739D01*
X58404294Y-51487904D01*
X58403393Y-51491417D01*
X58158753Y-52231975D01*
X58157349Y-52235379D01*
X58156584Y-52238124D01*
X58154977Y-52243422D01*
X58154188Y-52245827D01*
X58153465Y-52249376D01*
X57977133Y-52886563D01*
X57940282Y-52945924D01*
X57877187Y-52975938D01*
X57807882Y-52967076D01*
X57754369Y-52922152D01*
X57733640Y-52855428D01*
X57736577Y-52826599D01*
X57885553Y-52156190D01*
X57888957Y-52143899D01*
X58385207Y-50655126D01*
X58389950Y-50643048D01*
X58744336Y-49863425D01*
X58755641Y-49843624D01*
X58901341Y-49635557D01*
X58905152Y-49630408D01*
X58929901Y-49598733D01*
X58935079Y-49577965D01*
X58941252Y-49559512D01*
X58949623Y-49539797D01*
X58949579Y-49537277D01*
X58953244Y-49505110D01*
X58953854Y-49502665D01*
X58953853Y-49502662D01*
X58953854Y-49502660D01*
X58950137Y-49481584D01*
X58948271Y-49462201D01*
X58947899Y-49440803D01*
X58946831Y-49438512D01*
X58937098Y-49407642D01*
X58933846Y-49389202D01*
X58594643Y-47465516D01*
X58602387Y-47396078D01*
X58646443Y-47341848D01*
X58712824Y-47320046D01*
X58751691Y-47325006D01*
X58831507Y-47348443D01*
X58961742Y-47348443D01*
X58984201Y-47341848D01*
X59086700Y-47311751D01*
X59196260Y-47241342D01*
X59281545Y-47142917D01*
X59310765Y-47078932D01*
X59356518Y-47026132D01*
X59361544Y-47023068D01*
X59841461Y-46745990D01*
X59851026Y-46741010D01*
X59887360Y-46724070D01*
X59915704Y-46695725D01*
X59923673Y-46688424D01*
X59954381Y-46662658D01*
X59954383Y-46662653D01*
X59956336Y-46660327D01*
X59971126Y-46641054D01*
X59972867Y-46638568D01*
X59972867Y-46638566D01*
X59972869Y-46638565D01*
X59989811Y-46602232D01*
X59994795Y-46592656D01*
X60014844Y-46557934D01*
X60021804Y-46518457D01*
X60024141Y-46507914D01*
X60206807Y-45826260D01*
X60243172Y-45766603D01*
X60264573Y-45750976D01*
X64197031Y-43480568D01*
X64264929Y-43464096D01*
X64330956Y-43486949D01*
G37*
%TD.AperFunction*%
%TA.AperFunction,Conductor*%
G36*
X80871863Y-34876471D02*
G01*
X80892504Y-34893103D01*
X81164952Y-35165554D01*
X81216875Y-35217477D01*
X81224184Y-35225454D01*
X81249943Y-35256153D01*
X81284658Y-35276195D01*
X81293756Y-35281991D01*
X81326602Y-35304991D01*
X81326606Y-35304992D01*
X81329332Y-35306263D01*
X81351851Y-35315591D01*
X81354665Y-35316615D01*
X81354667Y-35316616D01*
X81361207Y-35317769D01*
X81423811Y-35348792D01*
X81459705Y-35408737D01*
X81457492Y-35478572D01*
X81417875Y-35536124D01*
X81395976Y-35550370D01*
X81343885Y-35576911D01*
X81343876Y-35576918D01*
X81253641Y-35667153D01*
X81253638Y-35667157D01*
X81195694Y-35780879D01*
X81180753Y-35875216D01*
X81180753Y-35924193D01*
X81161068Y-35991232D01*
X81144434Y-36011874D01*
X80342817Y-36813489D01*
X80281494Y-36846974D01*
X80255136Y-36849808D01*
X78172546Y-36849808D01*
X78105507Y-36830123D01*
X78096645Y-36823864D01*
X77965323Y-36722212D01*
X77965320Y-36722211D01*
X77965319Y-36722210D01*
X77782194Y-36632383D01*
X77584735Y-36581258D01*
X77584737Y-36581258D01*
X77448929Y-36574370D01*
X77381027Y-36570927D01*
X77381026Y-36570927D01*
X77381024Y-36570927D01*
X77179413Y-36601813D01*
X77179407Y-36601814D01*
X76988143Y-36672650D01*
X76988136Y-36672653D01*
X76815033Y-36780549D01*
X76667204Y-36921071D01*
X76667203Y-36921073D01*
X76550680Y-37088486D01*
X76470244Y-37275924D01*
X76429185Y-37475719D01*
X76429185Y-37878567D01*
X76444647Y-38030629D01*
X76505705Y-38225235D01*
X76505708Y-38225241D01*
X76505709Y-38225244D01*
X76603343Y-38401145D01*
X76604697Y-38403585D01*
X76604697Y-38403586D01*
X76728955Y-38548328D01*
X76737557Y-38558348D01*
X76898851Y-38683200D01*
X77081976Y-38773027D01*
X77279435Y-38824152D01*
X77483143Y-38834483D01*
X77684761Y-38803596D01*
X77876034Y-38732757D01*
X78049132Y-38624864D01*
X78167097Y-38512730D01*
X78196965Y-38484338D01*
X78196965Y-38484337D01*
X78196968Y-38484335D01*
X78313489Y-38316924D01*
X78393926Y-38129485D01*
X78434985Y-37929690D01*
X78434985Y-37526844D01*
X78427389Y-37452150D01*
X78440190Y-37383467D01*
X78488094Y-37332604D01*
X78550749Y-37315608D01*
X80393638Y-37315608D01*
X80400128Y-37315778D01*
X80401540Y-37315852D01*
X80440216Y-37317879D01*
X80440221Y-37317876D01*
X80449302Y-37316439D01*
X80518596Y-37325390D01*
X80572050Y-37370384D01*
X80592693Y-37437134D01*
X80592706Y-37438912D01*
X80592700Y-38249663D01*
X80573015Y-38316702D01*
X80547096Y-38341852D01*
X80548415Y-38343266D01*
X80538882Y-38352155D01*
X80526597Y-38369700D01*
X80514227Y-38384707D01*
X80499343Y-38400120D01*
X80499341Y-38400124D01*
X80498481Y-38402488D01*
X80483537Y-38431194D01*
X79450919Y-39905916D01*
X79447063Y-39911127D01*
X79422339Y-39942776D01*
X79422338Y-39942777D01*
X79417159Y-39963551D01*
X79410988Y-39981995D01*
X79402618Y-40001715D01*
X79402618Y-40001717D01*
X79402662Y-40004247D01*
X79399002Y-40036380D01*
X79398389Y-40038836D01*
X79398389Y-40038846D01*
X79402107Y-40059928D01*
X79403972Y-40079299D01*
X79404345Y-40100708D01*
X79404346Y-40100710D01*
X79405413Y-40102999D01*
X79415144Y-40133862D01*
X79476618Y-40482455D01*
X79507672Y-40658553D01*
X79508637Y-40664022D01*
X79509594Y-40670428D01*
X79514488Y-40710279D01*
X79525521Y-40728642D01*
X79534195Y-40746041D01*
X79539277Y-40758617D01*
X79542224Y-40765910D01*
X79544030Y-40767654D01*
X79564183Y-40792989D01*
X79565480Y-40795147D01*
X79583032Y-40807437D01*
X79598040Y-40819808D01*
X79613447Y-40834686D01*
X79615805Y-40835544D01*
X79644515Y-40850488D01*
X82432173Y-42802435D01*
X84647780Y-44353826D01*
X84662823Y-44366232D01*
X84676100Y-44379062D01*
X84677613Y-44380548D01*
X85768193Y-45471091D01*
X85927572Y-45630464D01*
X85939093Y-45643748D01*
X87434531Y-47637694D01*
X87442992Y-47650572D01*
X88443036Y-49400662D01*
X88446283Y-49406728D01*
X89400007Y-51314150D01*
X89433869Y-51381872D01*
X89445273Y-51416941D01*
X89664721Y-52733617D01*
X89656325Y-52802981D01*
X89611762Y-52856794D01*
X89545179Y-52877972D01*
X89477717Y-52859791D01*
X89430793Y-52808022D01*
X89422900Y-52787076D01*
X89409885Y-52740048D01*
X89274282Y-52250054D01*
X89273527Y-52246238D01*
X89272741Y-52243870D01*
X89270862Y-52237675D01*
X89270155Y-52235105D01*
X89268639Y-52231471D01*
X89258704Y-52201396D01*
X89029393Y-51507215D01*
X89024423Y-51492170D01*
X89023490Y-51488439D01*
X89022551Y-51486007D01*
X89020444Y-51480116D01*
X89019640Y-51477675D01*
X89017988Y-51474187D01*
X89014549Y-51465272D01*
X88737881Y-50748057D01*
X88736736Y-50744205D01*
X88735593Y-50741643D01*
X88733013Y-50735413D01*
X88732186Y-50733254D01*
X88730327Y-50729782D01*
X88541241Y-50303217D01*
X88414925Y-50018258D01*
X88413621Y-50014557D01*
X88412267Y-50011872D01*
X88409574Y-50006177D01*
X88408446Y-50003627D01*
X88406430Y-50000282D01*
X88221522Y-49632938D01*
X88056636Y-49305371D01*
X88055147Y-49301718D01*
X88053600Y-49298990D01*
X88050645Y-49293461D01*
X88049691Y-49291562D01*
X88047622Y-49288439D01*
X87690032Y-48657197D01*
X87663608Y-48610551D01*
X87661988Y-48607100D01*
X87660315Y-48604452D01*
X87657311Y-48599441D01*
X87655844Y-48596858D01*
X87653585Y-48593819D01*
X87237120Y-47936142D01*
X87235288Y-47932689D01*
X87233628Y-47930335D01*
X87230146Y-47925124D01*
X87229079Y-47923436D01*
X87226731Y-47920547D01*
X86773950Y-47277668D01*
X86772118Y-47274990D01*
X86771435Y-47273964D01*
X86771283Y-47274117D01*
X86753859Y-47256694D01*
X86747764Y-47254167D01*
X86697502Y-47215911D01*
X86270687Y-46668988D01*
X85749730Y-46065045D01*
X85199751Y-45487402D01*
X84622088Y-44937433D01*
X84622082Y-44937428D01*
X84622077Y-44937423D01*
X84622056Y-44937404D01*
X84018166Y-44416478D01*
X84018151Y-44416465D01*
X83504794Y-44015841D01*
X83471254Y-43989666D01*
X83432950Y-43939286D01*
X83430468Y-43933282D01*
X83413404Y-43916190D01*
X83412773Y-43915768D01*
X83400739Y-43903739D01*
X83398775Y-43901723D01*
X83396385Y-43900083D01*
X83360999Y-43875162D01*
X82887753Y-43541870D01*
X82753929Y-43447622D01*
X82751031Y-43445247D01*
X82748729Y-43443787D01*
X82743812Y-43440500D01*
X82741910Y-43439162D01*
X82738666Y-43437410D01*
X82080367Y-43020543D01*
X82077362Y-43018302D01*
X82074448Y-43016642D01*
X82069717Y-43013806D01*
X82067331Y-43012302D01*
X82064024Y-43010730D01*
X81385687Y-42626454D01*
X81382609Y-42624410D01*
X81380377Y-42623284D01*
X81375209Y-42620521D01*
X81372715Y-42619110D01*
X81369208Y-42617660D01*
X80714413Y-42288067D01*
X80673331Y-42267388D01*
X80670120Y-42265469D01*
X80667639Y-42264366D01*
X80662363Y-42261870D01*
X80659946Y-42260656D01*
X80656421Y-42259391D01*
X80260708Y-42083980D01*
X79944307Y-41943726D01*
X79940945Y-41941922D01*
X79938272Y-41940890D01*
X79932711Y-41938586D01*
X79930274Y-41937506D01*
X79926645Y-41936404D01*
X79926616Y-41936393D01*
X79353485Y-41715313D01*
X79199833Y-41656043D01*
X79196443Y-41654438D01*
X79193626Y-41653503D01*
X79188272Y-41651588D01*
X79186107Y-41650757D01*
X79182609Y-41649859D01*
X78442508Y-41405373D01*
X78439000Y-41403910D01*
X78436049Y-41403091D01*
X78430465Y-41401397D01*
X78428306Y-41400686D01*
X78424721Y-41399953D01*
X77673459Y-41192048D01*
X77669921Y-41190776D01*
X77666958Y-41190107D01*
X77661382Y-41188710D01*
X77659012Y-41188057D01*
X77655393Y-41187505D01*
X76894688Y-41016691D01*
X76891118Y-41015612D01*
X76888365Y-41015131D01*
X76882731Y-41014011D01*
X76880165Y-41013438D01*
X76876499Y-41013068D01*
X76108292Y-40879764D01*
X76104791Y-40878899D01*
X76101973Y-40878543D01*
X76096685Y-40877758D01*
X76093851Y-40877274D01*
X76090229Y-40877087D01*
X75316345Y-40781631D01*
X75312693Y-40780917D01*
X75310333Y-40780743D01*
X75304359Y-40780154D01*
X75302302Y-40779901D01*
X75298644Y-40779878D01*
X74521024Y-40722523D01*
X74517373Y-40721980D01*
X74514282Y-40721897D01*
X74508814Y-40721628D01*
X74505818Y-40721414D01*
X74502134Y-40721592D01*
X73722929Y-40702468D01*
X73719272Y-40702118D01*
X73716607Y-40702179D01*
X73710948Y-40702179D01*
X73708523Y-40702123D01*
X73704911Y-40702461D01*
X72925458Y-40721592D01*
X72921798Y-40721414D01*
X72918702Y-40721634D01*
X72913340Y-40721897D01*
X72910183Y-40721983D01*
X72906547Y-40722524D01*
X72129143Y-40779874D01*
X72125467Y-40779890D01*
X72123152Y-40780174D01*
X72117286Y-40780751D01*
X72115147Y-40780910D01*
X72111552Y-40781602D01*
X71337471Y-40877065D01*
X71333776Y-40877252D01*
X71331037Y-40877723D01*
X71325423Y-40878556D01*
X71322880Y-40878873D01*
X71319330Y-40879749D01*
X70551213Y-41013028D01*
X70547550Y-41013393D01*
X70544710Y-41014024D01*
X70539281Y-41015103D01*
X70536750Y-41015547D01*
X70533267Y-41016587D01*
X69772149Y-41187507D01*
X69768597Y-41188050D01*
X69766015Y-41188757D01*
X69760796Y-41190064D01*
X69758122Y-41190672D01*
X69754724Y-41191874D01*
X69002919Y-41399933D01*
X68999373Y-41400655D01*
X68996967Y-41401445D01*
X68991669Y-41403052D01*
X68988924Y-41403817D01*
X68985518Y-41405222D01*
X68245002Y-41649839D01*
X68241558Y-41650721D01*
X68239159Y-41651639D01*
X68234097Y-41653449D01*
X68231462Y-41654327D01*
X68228186Y-41655862D01*
X67500949Y-41936393D01*
X67497347Y-41937486D01*
X67494782Y-41938621D01*
X67489398Y-41940852D01*
X67487031Y-41941767D01*
X67483765Y-41943501D01*
X66924536Y-42191397D01*
X66855271Y-42200570D01*
X66792043Y-42170838D01*
X66754926Y-42111643D01*
X66755705Y-42041777D01*
X66794132Y-41983424D01*
X66812285Y-41970649D01*
X67651370Y-41486202D01*
X67660935Y-41481222D01*
X67697278Y-41464277D01*
X67725630Y-41435923D01*
X67733571Y-41428647D01*
X67764293Y-41402870D01*
X67764294Y-41402867D01*
X67764296Y-41402866D01*
X67766239Y-41400550D01*
X67781035Y-41381268D01*
X67782781Y-41378773D01*
X67782785Y-41378770D01*
X67799726Y-41342437D01*
X67804722Y-41332843D01*
X67824754Y-41298147D01*
X67824754Y-41298146D01*
X67824755Y-41298145D01*
X67831715Y-41258668D01*
X67834055Y-41248115D01*
X68293344Y-39534018D01*
X68329708Y-39474360D01*
X68392555Y-39443831D01*
X68438899Y-39444824D01*
X68442573Y-39445605D01*
X68442575Y-39445605D01*
X73412754Y-39445605D01*
X73419246Y-39445775D01*
X73459336Y-39447877D01*
X73459339Y-39447876D01*
X73479323Y-39440205D01*
X73497978Y-39434677D01*
X73518934Y-39430224D01*
X73520969Y-39428745D01*
X73549420Y-39413297D01*
X73551769Y-39412396D01*
X73566921Y-39397242D01*
X73581698Y-39384621D01*
X73599034Y-39372028D01*
X73600290Y-39369851D01*
X73619995Y-39344168D01*
X74257075Y-38707094D01*
X74318395Y-38673612D01*
X74388087Y-38678596D01*
X74399351Y-38683445D01*
X74581976Y-38773027D01*
X74779435Y-38824152D01*
X74983143Y-38834483D01*
X75184761Y-38803596D01*
X75376034Y-38732757D01*
X75549132Y-38624864D01*
X75667097Y-38512730D01*
X75696965Y-38484338D01*
X75696965Y-38484337D01*
X75696968Y-38484335D01*
X75813489Y-38316924D01*
X75893926Y-38129485D01*
X75934985Y-37929690D01*
X75934985Y-37526844D01*
X75932597Y-37503354D01*
X75919522Y-37374780D01*
X75858464Y-37180174D01*
X75858462Y-37180171D01*
X75858461Y-37180166D01*
X75759474Y-37001826D01*
X75759472Y-37001823D01*
X75626615Y-36847064D01*
X75626614Y-36847063D01*
X75626613Y-36847062D01*
X75465319Y-36722210D01*
X75282194Y-36632383D01*
X75084735Y-36581258D01*
X75084737Y-36581258D01*
X74948929Y-36574370D01*
X74881027Y-36570927D01*
X74881026Y-36570927D01*
X74881024Y-36570927D01*
X74679413Y-36601813D01*
X74679407Y-36601814D01*
X74488143Y-36672650D01*
X74488136Y-36672653D01*
X74315033Y-36780549D01*
X74167204Y-36921071D01*
X74167203Y-36921073D01*
X74050680Y-37088486D01*
X73970244Y-37275924D01*
X73929185Y-37475719D01*
X73929185Y-37878567D01*
X73944648Y-38030629D01*
X74001004Y-38210252D01*
X74002291Y-38280110D01*
X73970372Y-38335054D01*
X73361937Y-38943486D01*
X73300614Y-38976971D01*
X73274256Y-38979805D01*
X72900828Y-38979805D01*
X72833789Y-38960120D01*
X72788034Y-38907316D01*
X72778090Y-38838158D01*
X72807115Y-38774602D01*
X72857760Y-38739524D01*
X72876034Y-38732757D01*
X73049132Y-38624864D01*
X73167097Y-38512730D01*
X73196965Y-38484338D01*
X73196965Y-38484337D01*
X73196968Y-38484335D01*
X73313489Y-38316924D01*
X73393926Y-38129485D01*
X73434985Y-37929690D01*
X73434985Y-37526844D01*
X73432597Y-37503354D01*
X73419522Y-37374780D01*
X73358464Y-37180174D01*
X73358462Y-37180171D01*
X73358461Y-37180166D01*
X73259474Y-37001826D01*
X73259472Y-37001823D01*
X73126615Y-36847064D01*
X73126614Y-36847063D01*
X73126613Y-36847062D01*
X72965319Y-36722210D01*
X72954778Y-36717039D01*
X72903261Y-36669842D01*
X72885437Y-36602284D01*
X72906968Y-36535814D01*
X72921701Y-36518041D01*
X74546632Y-34893104D01*
X74607955Y-34859620D01*
X74634312Y-34856786D01*
X80804827Y-34856786D01*
X80871863Y-34876471D01*
G37*
%TD.AperFunction*%
%TA.AperFunction,Conductor*%
G36*
X60397526Y-39328924D02*
G01*
X60446176Y-39379074D01*
X60459990Y-39447564D01*
X60456229Y-39468935D01*
X60337159Y-39913319D01*
X60300794Y-39972980D01*
X60279383Y-39988614D01*
X59850989Y-40235940D01*
X59833228Y-40244393D01*
X59829402Y-40245853D01*
X59819750Y-40252098D01*
X59796319Y-40263944D01*
X59785572Y-40268014D01*
X59785571Y-40268014D01*
X59776691Y-40276815D01*
X59756766Y-40292847D01*
X59746275Y-40299634D01*
X59746274Y-40299635D01*
X59744726Y-40302010D01*
X59723834Y-40326429D01*
X59721720Y-40328331D01*
X59719933Y-40330792D01*
X59706912Y-40345965D01*
X59474739Y-40576056D01*
X59472335Y-40578376D01*
X59439740Y-40608982D01*
X59433205Y-40624525D01*
X59422592Y-40644459D01*
X59413350Y-40658552D01*
X59413349Y-40658553D01*
X59412204Y-40665581D01*
X59404129Y-40693683D01*
X59220638Y-41130135D01*
X59176510Y-41184306D01*
X59168329Y-41189464D01*
X59167217Y-41190107D01*
X58361653Y-41655199D01*
X58361641Y-41655207D01*
X58287417Y-41715313D01*
X58217907Y-41822351D01*
X58184874Y-41945628D01*
X58191221Y-42066731D01*
X58191554Y-42073079D01*
X58204694Y-42107311D01*
X58225786Y-42162256D01*
X58425909Y-42508879D01*
X58519995Y-42671841D01*
X58580109Y-42746076D01*
X58687146Y-42815586D01*
X58810423Y-42848618D01*
X58937874Y-42841939D01*
X59027053Y-42807706D01*
X59759835Y-42384633D01*
X59827733Y-42368161D01*
X59893760Y-42391013D01*
X59936951Y-42445935D01*
X59943592Y-42515488D01*
X59923408Y-42563144D01*
X56970946Y-46779696D01*
X56967086Y-46784912D01*
X56942374Y-46816543D01*
X56942371Y-46816549D01*
X56937189Y-46837331D01*
X56931017Y-46855775D01*
X56922649Y-46875489D01*
X56922647Y-46875500D01*
X56922691Y-46878020D01*
X56919030Y-46910159D01*
X56918418Y-46912612D01*
X56918418Y-46912621D01*
X56922137Y-46933718D01*
X56924001Y-46953073D01*
X56924375Y-46974487D01*
X56924376Y-46974489D01*
X56925440Y-46976771D01*
X56935173Y-47007642D01*
X57076528Y-47809321D01*
X57068784Y-47878760D01*
X57024727Y-47932989D01*
X56958346Y-47954791D01*
X56919476Y-47949830D01*
X56908629Y-47946645D01*
X56825921Y-47946645D01*
X56758882Y-47926960D01*
X56718534Y-47884645D01*
X56715136Y-47878760D01*
X56181932Y-46955224D01*
X56165460Y-46887325D01*
X56169545Y-46861132D01*
X56170926Y-46855981D01*
X57137936Y-43247016D01*
X57141189Y-43236702D01*
X57154895Y-43199049D01*
X57154895Y-43158975D01*
X57155367Y-43148165D01*
X57158861Y-43108237D01*
X57158594Y-43105198D01*
X57155426Y-43081127D01*
X57154896Y-43078128D01*
X57154897Y-43078124D01*
X57141183Y-43040448D01*
X57137934Y-43030141D01*
X57127563Y-42991432D01*
X57127561Y-42991429D01*
X57127561Y-42991428D01*
X57104580Y-42958609D01*
X57098766Y-42949484D01*
X57030655Y-42831510D01*
X57014183Y-42763610D01*
X57018266Y-42737424D01*
X57401104Y-41308657D01*
X57437468Y-41249000D01*
X57458871Y-41233371D01*
X57558827Y-41175662D01*
X57626726Y-41159190D01*
X57688357Y-41179054D01*
X57774646Y-41235090D01*
X57897923Y-41268122D01*
X58025374Y-41261443D01*
X58114553Y-41227210D01*
X58948895Y-40745502D01*
X58948899Y-40745498D01*
X58948906Y-40745494D01*
X58990343Y-40711939D01*
X59023131Y-40685388D01*
X59092641Y-40578351D01*
X59125673Y-40455074D01*
X59118994Y-40327623D01*
X59104752Y-40290524D01*
X59099104Y-40220884D01*
X59132003Y-40159245D01*
X59147709Y-40145712D01*
X60263662Y-39336456D01*
X60329486Y-39313038D01*
X60397526Y-39328924D01*
G37*
%TD.AperFunction*%
%TA.AperFunction,Conductor*%
G36*
X62882079Y-37684848D02*
G01*
X62917539Y-37723855D01*
X63092500Y-38026896D01*
X63593038Y-38893854D01*
X63636333Y-38868858D01*
X63720029Y-38808422D01*
X63720031Y-38808420D01*
X63836587Y-38677444D01*
X63919798Y-38523122D01*
X63965174Y-38353775D01*
X63970273Y-38178523D01*
X63934819Y-38006824D01*
X63892545Y-37912614D01*
X63892542Y-37912607D01*
X63891140Y-37910179D01*
X63874664Y-37842280D01*
X63897513Y-37776252D01*
X63952432Y-37733059D01*
X64021985Y-37726414D01*
X64084090Y-37758427D01*
X64094889Y-37770137D01*
X64117822Y-37798456D01*
X64157523Y-37847482D01*
X64264559Y-37916993D01*
X64387836Y-37950025D01*
X64467220Y-37945864D01*
X64535197Y-37962012D01*
X64581095Y-38007690D01*
X64585030Y-38014505D01*
X64590025Y-38024102D01*
X64606961Y-38060419D01*
X64606963Y-38060421D01*
X64606964Y-38060422D01*
X64635302Y-38088760D01*
X64642611Y-38096736D01*
X64668368Y-38127432D01*
X64670689Y-38129379D01*
X64689992Y-38144191D01*
X64692468Y-38145924D01*
X64692469Y-38145925D01*
X64728800Y-38162866D01*
X64738376Y-38167850D01*
X64773094Y-38187894D01*
X64773098Y-38187894D01*
X64773099Y-38187895D01*
X64812565Y-38194854D01*
X64823096Y-38197187D01*
X64827396Y-38198339D01*
X64887061Y-38234688D01*
X64917604Y-38297528D01*
X64909325Y-38366906D01*
X64864852Y-38420794D01*
X64857327Y-38425506D01*
X64775509Y-38472744D01*
X64574107Y-38589024D01*
X64574106Y-38589025D01*
X64574104Y-38589026D01*
X64539915Y-38619008D01*
X64539915Y-38619009D01*
X64513013Y-38673560D01*
X64513013Y-38673561D01*
X64513013Y-38673562D01*
X64509134Y-38732757D01*
X64509035Y-38734260D01*
X64523650Y-38777318D01*
X64523652Y-38777323D01*
X64574822Y-38865952D01*
X64591295Y-38933852D01*
X64568442Y-38999879D01*
X64563057Y-39006897D01*
X64557262Y-39013915D01*
X64500665Y-39146083D01*
X64483594Y-39288846D01*
X64483595Y-39288848D01*
X64507436Y-39430629D01*
X64531666Y-39485402D01*
X64555582Y-39526824D01*
X65846479Y-38781526D01*
X66741429Y-38264826D01*
X66752929Y-38221907D01*
X66789293Y-38162247D01*
X66852140Y-38131717D01*
X66904793Y-38134223D01*
X66945577Y-38145151D01*
X67005236Y-38181514D01*
X67020872Y-38202927D01*
X67162218Y-38447749D01*
X67178690Y-38515649D01*
X67174606Y-38541837D01*
X67163265Y-38584169D01*
X67126903Y-38643831D01*
X67064057Y-38674362D01*
X67011398Y-38671855D01*
X66970030Y-38660771D01*
X66075079Y-39177471D01*
X66073768Y-39182366D01*
X66037403Y-39242026D01*
X66015993Y-39257659D01*
X65778122Y-39394994D01*
X65710222Y-39411467D01*
X65684029Y-39407382D01*
X65679132Y-39406070D01*
X64784181Y-39922770D01*
X64784181Y-39922772D01*
X64808087Y-39964179D01*
X64808101Y-39964200D01*
X64843412Y-40012559D01*
X64843413Y-40012561D01*
X64954286Y-40104105D01*
X65074856Y-40155736D01*
X65128734Y-40200221D01*
X65150009Y-40266773D01*
X65149167Y-40284446D01*
X65133594Y-40414679D01*
X65133595Y-40414681D01*
X65157436Y-40556462D01*
X65181666Y-40611235D01*
X65205582Y-40652657D01*
X66100531Y-40135958D01*
X66101841Y-40131070D01*
X66138204Y-40071409D01*
X66159603Y-40055783D01*
X66369147Y-39934802D01*
X66437042Y-39918331D01*
X66503069Y-39941184D01*
X66538529Y-39980191D01*
X66663078Y-40195918D01*
X66679551Y-40263819D01*
X66656698Y-40329845D01*
X66617691Y-40365305D01*
X66365586Y-40510858D01*
X66365584Y-40510858D01*
X65434181Y-41048603D01*
X65434181Y-41048605D01*
X65458087Y-41090012D01*
X65458101Y-41090033D01*
X65493412Y-41138392D01*
X65493413Y-41138394D01*
X65604286Y-41229938D01*
X65736452Y-41286534D01*
X65879215Y-41303605D01*
X65879217Y-41303604D01*
X66020998Y-41279763D01*
X66075771Y-41255533D01*
X67054306Y-40690575D01*
X67122206Y-40674102D01*
X67188233Y-40696955D01*
X67231424Y-40751876D01*
X67238065Y-40821429D01*
X67236081Y-40830055D01*
X67216402Y-40903500D01*
X67180038Y-40963160D01*
X67158627Y-40978794D01*
X59771859Y-45243551D01*
X59762264Y-45248546D01*
X59725942Y-45265482D01*
X59725941Y-45265483D01*
X59697592Y-45293830D01*
X59689624Y-45301131D01*
X59658925Y-45326891D01*
X59656989Y-45329198D01*
X59642153Y-45348533D01*
X59640434Y-45350988D01*
X59623490Y-45387321D01*
X59618498Y-45396909D01*
X59598460Y-45431617D01*
X59598457Y-45431623D01*
X59591497Y-45471091D01*
X59589156Y-45481650D01*
X59406495Y-46163288D01*
X59370129Y-46222948D01*
X59348721Y-46238579D01*
X59024045Y-46426030D01*
X58962045Y-46442643D01*
X58831506Y-46442643D01*
X58702277Y-46480589D01*
X58632407Y-46480589D01*
X58573629Y-46442815D01*
X58544603Y-46379260D01*
X58554546Y-46310101D01*
X58565762Y-46290494D01*
X60804466Y-43093305D01*
X61892656Y-43093305D01*
X61916562Y-43134712D01*
X61916576Y-43134733D01*
X61951887Y-43183092D01*
X61951888Y-43183094D01*
X62062761Y-43274638D01*
X62194927Y-43331234D01*
X62337690Y-43348305D01*
X62337692Y-43348304D01*
X62479473Y-43324463D01*
X62534253Y-43300229D01*
X63936906Y-42490408D01*
X63936920Y-42490398D01*
X63985279Y-42455087D01*
X63985281Y-42455086D01*
X64076825Y-42344213D01*
X64133421Y-42212047D01*
X64150492Y-42069284D01*
X64150491Y-42069282D01*
X64126650Y-41927501D01*
X64102416Y-41872722D01*
X64078503Y-41831305D01*
X62824061Y-42555558D01*
X62824059Y-42555558D01*
X61892656Y-43093303D01*
X61892656Y-43093305D01*
X60804466Y-43093305D01*
X61379504Y-42272068D01*
X61434081Y-42228445D01*
X61503580Y-42221252D01*
X61565934Y-42252774D01*
X61601348Y-42313004D01*
X61604202Y-42357915D01*
X61592069Y-42459379D01*
X61592070Y-42459381D01*
X61615911Y-42601162D01*
X61640141Y-42655935D01*
X61664057Y-42697357D01*
X62954954Y-41952059D01*
X63849904Y-41435359D01*
X63825992Y-41393941D01*
X63790671Y-41345568D01*
X63679800Y-41254025D01*
X63547634Y-41197429D01*
X63404871Y-41180359D01*
X63395897Y-41181868D01*
X63326522Y-41173571D01*
X63272645Y-41129085D01*
X63267950Y-41121584D01*
X63216782Y-41032958D01*
X63216781Y-41032957D01*
X63216780Y-41032955D01*
X63186796Y-40998764D01*
X63186794Y-40998763D01*
X63178743Y-40989582D01*
X63182030Y-40986699D01*
X63154792Y-40949402D01*
X63154123Y-40946637D01*
X63153978Y-40946687D01*
X63135437Y-40892064D01*
X63135436Y-40892062D01*
X62891779Y-40470037D01*
X62861795Y-40435846D01*
X62861793Y-40435845D01*
X62853742Y-40426664D01*
X62857024Y-40423785D01*
X62829764Y-40386405D01*
X62829116Y-40383725D01*
X62828979Y-40383772D01*
X62810438Y-40329149D01*
X62800579Y-40312073D01*
X62566780Y-39907122D01*
X62536796Y-39872931D01*
X62482242Y-39846028D01*
X62421545Y-39842050D01*
X62421544Y-39842050D01*
X62421543Y-39842050D01*
X62378485Y-39856665D01*
X61599954Y-40306150D01*
X61532054Y-40322623D01*
X61531251Y-40322582D01*
X60874112Y-40287005D01*
X60808234Y-40263725D01*
X60765401Y-40208524D01*
X60759211Y-40138930D01*
X60761040Y-40131093D01*
X60764605Y-40117789D01*
X61151330Y-38674480D01*
X62023008Y-38674480D01*
X62160496Y-38912616D01*
X62220942Y-38996325D01*
X62220949Y-38996333D01*
X62351914Y-39112882D01*
X62506234Y-39196091D01*
X62675589Y-39241471D01*
X62850841Y-39246569D01*
X63022540Y-39211116D01*
X63116745Y-39168845D01*
X63160026Y-39143855D01*
X62672527Y-38299480D01*
X62672526Y-38299480D01*
X62023008Y-38674479D01*
X62023008Y-38674480D01*
X61151330Y-38674480D01*
X61355101Y-37913981D01*
X61391465Y-37854323D01*
X61454311Y-37823794D01*
X61523687Y-37832088D01*
X61577565Y-37876574D01*
X61590441Y-37902967D01*
X61590478Y-37902951D01*
X61590989Y-37904091D01*
X61592859Y-37907923D01*
X61593245Y-37909119D01*
X61635522Y-38003335D01*
X61635526Y-38003343D01*
X61773007Y-38241467D01*
X61773008Y-38241467D01*
X62748152Y-37678468D01*
X62816052Y-37661995D01*
X62882079Y-37684848D01*
G37*
%TD.AperFunction*%
%TA.AperFunction,Conductor*%
G36*
X74463695Y-32836773D02*
G01*
X74560350Y-32838745D01*
X74562555Y-32838812D01*
X75444884Y-32874831D01*
X75447225Y-32874951D01*
X75543713Y-32880863D01*
X75546072Y-32881032D01*
X76426050Y-32952998D01*
X76428384Y-32953212D01*
X76524649Y-32963065D01*
X76526962Y-32963326D01*
X77403264Y-33071124D01*
X77405591Y-33071434D01*
X77501320Y-33085198D01*
X77503778Y-33085578D01*
X78374783Y-33229001D01*
X78377217Y-33229427D01*
X78472289Y-33247081D01*
X78474581Y-33247530D01*
X79339225Y-33426406D01*
X79341574Y-33426917D01*
X79435793Y-33448422D01*
X79438047Y-33448961D01*
X80228157Y-33646337D01*
X80294608Y-33662938D01*
X80297055Y-33663576D01*
X80390262Y-33688890D01*
X80392629Y-33689559D01*
X81239720Y-33938288D01*
X81242056Y-33939000D01*
X81334218Y-33968116D01*
X81336377Y-33968822D01*
X82172797Y-34251956D01*
X82174988Y-34252722D01*
X82265950Y-34285596D01*
X82268083Y-34286392D01*
X83092214Y-34603389D01*
X83094432Y-34604269D01*
X83183886Y-34640788D01*
X83186126Y-34641729D01*
X83996540Y-34992034D01*
X83998808Y-34993043D01*
X84086617Y-35033144D01*
X84088870Y-35034200D01*
X84884246Y-35417233D01*
X84886486Y-35418340D01*
X84972654Y-35462023D01*
X84974777Y-35463126D01*
X85674876Y-35836190D01*
X85753935Y-35878319D01*
X85756155Y-35879532D01*
X85840369Y-35926638D01*
X85842564Y-35927895D01*
X86206357Y-36141242D01*
X86465719Y-36293346D01*
X86604048Y-36374469D01*
X86606217Y-36375771D01*
X86688492Y-36426305D01*
X86690576Y-36427614D01*
X87433331Y-36904954D01*
X87435271Y-36906228D01*
X87515572Y-36960180D01*
X87517467Y-36961482D01*
X88052435Y-37336975D01*
X88240114Y-37468707D01*
X88242168Y-37470180D01*
X88320090Y-37527281D01*
X88321988Y-37528702D01*
X89023312Y-38064955D01*
X89025307Y-38066513D01*
X89100755Y-38126682D01*
X89102715Y-38128278D01*
X89781545Y-38692659D01*
X89783474Y-38694296D01*
X89856404Y-38757490D01*
X89858298Y-38759166D01*
X89893232Y-38790707D01*
X90471755Y-39313038D01*
X90513518Y-39350744D01*
X90515378Y-39352458D01*
X90585695Y-39418598D01*
X90587514Y-39420344D01*
X91218105Y-40038200D01*
X91219829Y-40039924D01*
X91287407Y-40108897D01*
X91289158Y-40110720D01*
X91893984Y-40753742D01*
X91895697Y-40755602D01*
X91960376Y-40827238D01*
X91962046Y-40829125D01*
X92322979Y-41245664D01*
X92540153Y-41496296D01*
X92541789Y-41498224D01*
X92591890Y-41558485D01*
X92603484Y-41572429D01*
X92605054Y-41574357D01*
X92800103Y-41818941D01*
X93155478Y-42264568D01*
X93157034Y-42266561D01*
X93215676Y-42343253D01*
X93217175Y-42345255D01*
X93515226Y-42751986D01*
X93738967Y-43057312D01*
X93740441Y-43059368D01*
X93795921Y-43138411D01*
X93797353Y-43140496D01*
X94226504Y-43779234D01*
X94247552Y-43845858D01*
X94229239Y-43913285D01*
X94177380Y-43960107D01*
X94108438Y-43971459D01*
X94044304Y-43943737D01*
X94035897Y-43936068D01*
X93789165Y-43689336D01*
X88073679Y-37973839D01*
X88069209Y-37969129D01*
X88042349Y-37939297D01*
X88022784Y-37930586D01*
X88005689Y-37921304D01*
X87987725Y-37909638D01*
X87985234Y-37909243D01*
X87954200Y-37900050D01*
X87951901Y-37899026D01*
X87951900Y-37899026D01*
X87930484Y-37899026D01*
X87911085Y-37897499D01*
X87889934Y-37894148D01*
X87889934Y-37894149D01*
X87887501Y-37894801D01*
X87855408Y-37899026D01*
X83337986Y-37899027D01*
X83331499Y-37898857D01*
X83291412Y-37896756D01*
X83291401Y-37896758D01*
X83271406Y-37904433D01*
X83252758Y-37909957D01*
X83231806Y-37914410D01*
X83231805Y-37914411D01*
X83229764Y-37915894D01*
X83201332Y-37931332D01*
X83198978Y-37932235D01*
X83198975Y-37932236D01*
X83198975Y-37932237D01*
X83191915Y-37939297D01*
X83183826Y-37947385D01*
X83169040Y-37960013D01*
X83151705Y-37972608D01*
X83150447Y-37974788D01*
X83130744Y-38000464D01*
X83026769Y-38104435D01*
X82965445Y-38137919D01*
X82960621Y-38138868D01*
X82436417Y-38231297D01*
X82366978Y-38223553D01*
X82343764Y-38210757D01*
X81905799Y-37904091D01*
X81706601Y-37764611D01*
X81664981Y-37746297D01*
X81664979Y-37746296D01*
X81604165Y-37744970D01*
X81604162Y-37744970D01*
X81547473Y-37767015D01*
X81547471Y-37767016D01*
X81514628Y-37798456D01*
X81514627Y-37798457D01*
X81284076Y-38127718D01*
X81229499Y-38171342D01*
X81160000Y-38178535D01*
X81097646Y-38147013D01*
X81062232Y-38086783D01*
X81058501Y-38056600D01*
X81058506Y-37525307D01*
X81078191Y-37458270D01*
X81094820Y-37437634D01*
X81314380Y-37218074D01*
X81375701Y-37184591D01*
X81445393Y-37189575D01*
X81457132Y-37194736D01*
X81457600Y-37194888D01*
X81551940Y-37209830D01*
X81551945Y-37209830D01*
X82140366Y-37209830D01*
X82234703Y-37194888D01*
X82234703Y-37194887D01*
X82234708Y-37194887D01*
X82348424Y-37136946D01*
X82438669Y-37046701D01*
X82496610Y-36932985D01*
X82497444Y-36927718D01*
X82511553Y-36838643D01*
X82511553Y-35981618D01*
X82531238Y-35914579D01*
X82584042Y-35868824D01*
X82653200Y-35858880D01*
X82716756Y-35887905D01*
X82723224Y-35893927D01*
X82804853Y-35975556D01*
X82969434Y-36140137D01*
X83002919Y-36201460D01*
X83005753Y-36227818D01*
X83005753Y-36838643D01*
X83020694Y-36932980D01*
X83020695Y-36932983D01*
X83020696Y-36932985D01*
X83070445Y-37030623D01*
X83078638Y-37046702D01*
X83078641Y-37046706D01*
X83168876Y-37136941D01*
X83168880Y-37136944D01*
X83168882Y-37136946D01*
X83282598Y-37194887D01*
X83282600Y-37194887D01*
X83282602Y-37194888D01*
X83376940Y-37209830D01*
X83376945Y-37209830D01*
X83965366Y-37209830D01*
X84059703Y-37194888D01*
X84059703Y-37194887D01*
X84059708Y-37194887D01*
X84173424Y-37136946D01*
X84263669Y-37046701D01*
X84321610Y-36932985D01*
X84322444Y-36927718D01*
X84336553Y-36838643D01*
X84336553Y-35875216D01*
X84321611Y-35780879D01*
X84321610Y-35780877D01*
X84321610Y-35780875D01*
X84263669Y-35667159D01*
X84263667Y-35667157D01*
X84263664Y-35667153D01*
X84173429Y-35576918D01*
X84173425Y-35576915D01*
X84173424Y-35576914D01*
X84059708Y-35518973D01*
X84059706Y-35518972D01*
X84059703Y-35518971D01*
X83965366Y-35504030D01*
X83965361Y-35504030D01*
X83376945Y-35504030D01*
X83376940Y-35504030D01*
X83375664Y-35504232D01*
X83375175Y-35504168D01*
X83372084Y-35504412D01*
X83372032Y-35503762D01*
X83306372Y-35495268D01*
X83268601Y-35469437D01*
X82560535Y-34761373D01*
X82553226Y-34753397D01*
X82527464Y-34722694D01*
X82492764Y-34702660D01*
X82483641Y-34696849D01*
X82450801Y-34673854D01*
X82448101Y-34672595D01*
X82425580Y-34663266D01*
X82422742Y-34662233D01*
X82422740Y-34662232D01*
X82422737Y-34662231D01*
X82422733Y-34662230D01*
X82383261Y-34655269D01*
X82372706Y-34652929D01*
X82334000Y-34642558D01*
X82333999Y-34642558D01*
X82294077Y-34646052D01*
X82283268Y-34646524D01*
X81667153Y-34646524D01*
X81600114Y-34626839D01*
X81579471Y-34610205D01*
X81255099Y-34285830D01*
X81247792Y-34277855D01*
X81245358Y-34274954D01*
X81222035Y-34247159D01*
X81222032Y-34247157D01*
X81222031Y-34247156D01*
X81187332Y-34227123D01*
X81178208Y-34221310D01*
X81145377Y-34198321D01*
X81142679Y-34197063D01*
X81120122Y-34187719D01*
X81117311Y-34186696D01*
X81077837Y-34179735D01*
X81067281Y-34177394D01*
X81028570Y-34167022D01*
X80988644Y-34170514D01*
X80977840Y-34170986D01*
X74461299Y-34170986D01*
X74450492Y-34170514D01*
X74444297Y-34169972D01*
X74410570Y-34167020D01*
X74371858Y-34177393D01*
X74361303Y-34179732D01*
X74321832Y-34186693D01*
X74319035Y-34187710D01*
X74296456Y-34197063D01*
X74293761Y-34198320D01*
X74260931Y-34221308D01*
X74251810Y-34227119D01*
X74217105Y-34247156D01*
X74217103Y-34247157D01*
X74191341Y-34277859D01*
X74184035Y-34285832D01*
X72594767Y-35875106D01*
X72533444Y-35908591D01*
X72463753Y-35903607D01*
X72419405Y-35875106D01*
X70877976Y-34333672D01*
X70870668Y-34325697D01*
X70844914Y-34295005D01*
X70844906Y-34294995D01*
X70810194Y-34274954D01*
X70801085Y-34269151D01*
X70768247Y-34246158D01*
X70765528Y-34244890D01*
X70743010Y-34235562D01*
X70740183Y-34234533D01*
X70740182Y-34234533D01*
X70726658Y-34232148D01*
X70700708Y-34227572D01*
X70690151Y-34225231D01*
X70651442Y-34214859D01*
X70611514Y-34218353D01*
X70600706Y-34218825D01*
X68350601Y-34218831D01*
X68339791Y-34218359D01*
X68299873Y-34214865D01*
X68299869Y-34214866D01*
X68261141Y-34225240D01*
X68250593Y-34227578D01*
X68211104Y-34234541D01*
X68208252Y-34235579D01*
X68185842Y-34244861D01*
X68183064Y-34246156D01*
X68150217Y-34269152D01*
X68141109Y-34274954D01*
X68106385Y-34295004D01*
X68106382Y-34295006D01*
X68080632Y-34325694D01*
X68073319Y-34333674D01*
X68024335Y-34382652D01*
X67963010Y-34416133D01*
X67904564Y-34414739D01*
X67068259Y-34190642D01*
X67057946Y-34187391D01*
X67020271Y-34173679D01*
X67020269Y-34173679D01*
X66980202Y-34173679D01*
X66969392Y-34173207D01*
X66929463Y-34169712D01*
X66926493Y-34169972D01*
X66902308Y-34173156D01*
X66899341Y-34173679D01*
X66861691Y-34187383D01*
X66851376Y-34190635D01*
X66812663Y-34201008D01*
X66812658Y-34201010D01*
X66779833Y-34223994D01*
X66770713Y-34229804D01*
X65178494Y-35149081D01*
X65110594Y-35165554D01*
X65084401Y-35161469D01*
X64653006Y-35045874D01*
X64557170Y-35020194D01*
X64546855Y-35016941D01*
X64535035Y-35012639D01*
X64478770Y-34971214D01*
X64453834Y-34905945D01*
X64468143Y-34837556D01*
X64517155Y-34787760D01*
X64528219Y-34782307D01*
X64853509Y-34641698D01*
X64855606Y-34640818D01*
X64945201Y-34604241D01*
X64947282Y-34603415D01*
X65771544Y-34286368D01*
X65773551Y-34285620D01*
X65864637Y-34252700D01*
X65866701Y-34251978D01*
X66703253Y-33968800D01*
X66705288Y-33968134D01*
X66797564Y-33938982D01*
X66799787Y-33938305D01*
X67646990Y-33689543D01*
X67649251Y-33688904D01*
X67742549Y-33663565D01*
X67744917Y-33662947D01*
X68601565Y-33448949D01*
X68603728Y-33448432D01*
X68698032Y-33426908D01*
X68700299Y-33426414D01*
X69565022Y-33247522D01*
X69567238Y-33247088D01*
X69662381Y-33229421D01*
X69664748Y-33229006D01*
X70535818Y-33085572D01*
X70538216Y-33085202D01*
X70633999Y-33071430D01*
X70636272Y-33071128D01*
X71512627Y-32963323D01*
X71514895Y-32963067D01*
X71611198Y-32953210D01*
X71613494Y-32953000D01*
X72493507Y-32881031D01*
X72495838Y-32880864D01*
X72592350Y-32874950D01*
X72594669Y-32874832D01*
X73477017Y-32838811D01*
X73479209Y-32838745D01*
X73575871Y-32836773D01*
X73578398Y-32836747D01*
X74461168Y-32836747D01*
X74463695Y-32836773D01*
G37*
%TD.AperFunction*%
%TA.AperFunction,Conductor*%
G36*
X67057861Y-34897850D02*
G01*
X67947963Y-35136362D01*
X67968265Y-35143752D01*
X67986041Y-35152043D01*
X68009145Y-35154065D01*
X68009180Y-35154071D01*
X68051575Y-35157780D01*
X68051574Y-35157781D01*
X68051580Y-35157780D01*
X68106099Y-35162554D01*
X68106699Y-35162610D01*
X68106889Y-35162591D01*
X68110022Y-35161650D01*
X68165243Y-35146854D01*
X68165250Y-35146854D01*
X68165250Y-35146852D01*
X68176808Y-35143756D01*
X68216175Y-35133210D01*
X68223124Y-35131789D01*
X68223223Y-35131743D01*
X68228248Y-35127845D01*
X68270638Y-35098164D01*
X68297415Y-35079417D01*
X68297416Y-35079414D01*
X68304140Y-35074708D01*
X68304158Y-35074693D01*
X68322383Y-35061933D01*
X68333630Y-35045870D01*
X68347523Y-35029313D01*
X68435902Y-34940943D01*
X68497226Y-34907463D01*
X68523569Y-34904631D01*
X70427699Y-34904625D01*
X70494738Y-34924309D01*
X70515379Y-34940943D01*
X70672592Y-35098157D01*
X72040319Y-36465888D01*
X72073804Y-36527211D01*
X72068820Y-36596903D01*
X72026948Y-36652836D01*
X71995706Y-36669849D01*
X71993536Y-36670652D01*
X71988137Y-36672652D01*
X71988136Y-36672653D01*
X71815033Y-36780549D01*
X71667204Y-36921071D01*
X71667203Y-36921073D01*
X71550679Y-37088488D01*
X71550678Y-37088489D01*
X71520034Y-37159899D01*
X71475507Y-37213742D01*
X71408939Y-37234965D01*
X71341464Y-37216829D01*
X71294505Y-37165093D01*
X71282084Y-37110998D01*
X71282084Y-36927733D01*
X71282083Y-36927717D01*
X71271590Y-36825007D01*
X71216443Y-36658585D01*
X71216441Y-36658580D01*
X71124400Y-36509359D01*
X71000430Y-36385389D01*
X70851209Y-36293348D01*
X70851204Y-36293346D01*
X70684782Y-36238199D01*
X70684775Y-36238198D01*
X70582071Y-36227705D01*
X70182085Y-36227705D01*
X70182085Y-37294686D01*
X70067284Y-37242259D01*
X69966060Y-37227705D01*
X69898110Y-37227705D01*
X69796886Y-37242259D01*
X69682085Y-37294686D01*
X69682085Y-36227705D01*
X69282113Y-36227705D01*
X69282097Y-36227706D01*
X69179387Y-36238199D01*
X69012965Y-36293346D01*
X69012960Y-36293348D01*
X68863739Y-36385389D01*
X68739769Y-36509359D01*
X68647728Y-36658580D01*
X68647726Y-36658585D01*
X68592579Y-36825007D01*
X68592578Y-36825014D01*
X68582085Y-36927718D01*
X68582085Y-37452705D01*
X69528116Y-37452705D01*
X69495566Y-37503354D01*
X69457085Y-37634410D01*
X69457085Y-37771000D01*
X69495566Y-37902056D01*
X69528116Y-37952705D01*
X68582086Y-37952705D01*
X68582086Y-38440033D01*
X68562401Y-38507072D01*
X68509597Y-38552827D01*
X68440439Y-38562771D01*
X68376883Y-38533746D01*
X68350699Y-38502034D01*
X68258217Y-38341852D01*
X68124021Y-38109421D01*
X68115648Y-38091867D01*
X68111191Y-38080257D01*
X68103633Y-38048774D01*
X68103372Y-38046292D01*
X68103372Y-38046291D01*
X68092651Y-38027721D01*
X68084285Y-38010183D01*
X68076601Y-37990171D01*
X68074832Y-37988402D01*
X68055120Y-37962715D01*
X67077828Y-36269989D01*
X67074730Y-36264283D01*
X67063734Y-36242703D01*
X67056510Y-36228524D01*
X67039865Y-36215045D01*
X67025757Y-36201657D01*
X67011424Y-36185738D01*
X67011422Y-36185737D01*
X67011420Y-36185735D01*
X67009115Y-36184709D01*
X66981527Y-36167802D01*
X66979567Y-36166215D01*
X66958876Y-36160671D01*
X66940533Y-36154175D01*
X66920976Y-36145467D01*
X66920975Y-36145467D01*
X66918459Y-36145467D01*
X66886365Y-36141242D01*
X65772111Y-35842678D01*
X65712451Y-35806313D01*
X65681922Y-35743466D01*
X65690217Y-35674090D01*
X65734702Y-35620212D01*
X65742178Y-35615531D01*
X66963772Y-34910236D01*
X67031669Y-34893765D01*
X67057861Y-34897850D01*
G37*
%TD.AperFunction*%
%TD*%
M02*
