%TF.GenerationSoftware,KiCad,Pcbnew,7.0.10*%
%TF.CreationDate,2024-07-16T17:41:30-07:00*%
%TF.ProjectId,Thermistor Ring,54686572-6d69-4737-946f-722052696e67,rev?*%
%TF.SameCoordinates,Original*%
%TF.FileFunction,Paste,Top*%
%TF.FilePolarity,Positive*%
%FSLAX46Y46*%
G04 Gerber Fmt 4.6, Leading zero omitted, Abs format (unit mm)*
G04 Created by KiCad (PCBNEW 7.0.10) date 2024-07-16 17:41:30*
%MOMM*%
%LPD*%
G01*
G04 APERTURE LIST*
G04 Aperture macros list*
%AMRoundRect*
0 Rectangle with rounded corners*
0 $1 Rounding radius*
0 $2 $3 $4 $5 $6 $7 $8 $9 X,Y pos of 4 corners*
0 Add a 4 corners polygon primitive as box body*
4,1,4,$2,$3,$4,$5,$6,$7,$8,$9,$2,$3,0*
0 Add four circle primitives for the rounded corners*
1,1,$1+$1,$2,$3*
1,1,$1+$1,$4,$5*
1,1,$1+$1,$6,$7*
1,1,$1+$1,$8,$9*
0 Add four rect primitives between the rounded corners*
20,1,$1+$1,$2,$3,$4,$5,0*
20,1,$1+$1,$4,$5,$6,$7,0*
20,1,$1+$1,$6,$7,$8,$9,0*
20,1,$1+$1,$8,$9,$2,$3,0*%
%AMRotRect*
0 Rectangle, with rotation*
0 The origin of the aperture is its center*
0 $1 length*
0 $2 width*
0 $3 Rotation angle, in degrees counterclockwise*
0 Add horizontal line*
21,1,$1,$2,0,0,$3*%
G04 Aperture macros list end*
%ADD10RotRect,1.524000X0.457200X145.000000*%
%ADD11RoundRect,0.250000X0.532491X0.067661X0.245703X0.477237X-0.532491X-0.067661X-0.245703X-0.477237X0*%
%ADD12RoundRect,0.250000X-0.020994X0.536362X-0.454006X0.286362X0.020994X-0.536362X0.454006X-0.286362X0*%
%ADD13RoundRect,0.250000X-0.250000X-0.475000X0.250000X-0.475000X0.250000X0.475000X-0.250000X0.475000X0*%
%ADD14RotRect,1.524000X0.457200X325.000000*%
%ADD15RoundRect,0.250000X0.250000X0.475000X-0.250000X0.475000X-0.250000X-0.475000X0.250000X-0.475000X0*%
%ADD16RoundRect,0.250000X0.245703X-0.477237X0.532491X-0.067661X-0.245703X0.477237X-0.532491X0.067661X0*%
%ADD17RotRect,1.524000X0.457200X30.000000*%
%ADD18R,0.457200X1.524000*%
%ADD19RoundRect,0.250000X-0.520961X0.002332X-0.258461X-0.452332X0.520961X-0.002332X0.258461X0.452332X0*%
%ADD20RoundRect,0.250000X0.262500X0.450000X-0.262500X0.450000X-0.262500X-0.450000X0.262500X-0.450000X0*%
%ADD21RoundRect,0.250000X-0.245703X0.477237X-0.532491X0.067661X0.245703X-0.477237X0.532491X-0.067661X0*%
%ADD22RotRect,1.524000X0.457200X215.000000*%
G04 APERTURE END LIST*
D10*
%TO.C,U6*%
X65331066Y-75390892D03*
X65703889Y-74858445D03*
X66076715Y-74325995D03*
X66449539Y-73793547D03*
X63099698Y-71447964D03*
X62726875Y-71980411D03*
X62354049Y-72512861D03*
X61981225Y-73045309D03*
%TD*%
D11*
%TO.C,C1*%
X78441053Y-76960124D03*
X77351257Y-75403736D03*
%TD*%
D12*
%TO.C,C3*%
X64409482Y-37007975D03*
X62764034Y-37957975D03*
%TD*%
D13*
%TO.C,C2*%
X53789691Y-52108270D03*
X55689691Y-52108270D03*
%TD*%
D14*
%TO.C,U7*%
X82124310Y-38522819D03*
X81751487Y-39055266D03*
X81378661Y-39587716D03*
X81005837Y-40120164D03*
X84355678Y-42465747D03*
X84728501Y-41933300D03*
X85101327Y-41400850D03*
X85474151Y-40868402D03*
%TD*%
D15*
%TO.C,C6*%
X93904426Y-62792212D03*
X92004426Y-62792212D03*
%TD*%
D16*
%TO.C,C5*%
X58929095Y-71019946D03*
X60018891Y-69463558D03*
%TD*%
D17*
%TO.C,U2*%
X61896282Y-40575584D03*
X62221281Y-41138499D03*
X62546282Y-41701417D03*
X62871281Y-42264332D03*
X66412806Y-40219632D03*
X66087807Y-39656717D03*
X65762806Y-39093799D03*
X65437807Y-38530884D03*
%TD*%
D18*
%TO.C,U5*%
X93816207Y-54962327D03*
X93166209Y-54962327D03*
X92516207Y-54962327D03*
X91866209Y-54962327D03*
X91866209Y-59051727D03*
X92516207Y-59051727D03*
X93166209Y-59051727D03*
X93816207Y-59051727D03*
%TD*%
D19*
%TO.C,R3*%
X58199024Y-40410103D03*
X59111524Y-41990599D03*
%TD*%
D20*
%TO.C,R2*%
X81846153Y-36356930D03*
X83671153Y-36356930D03*
%TD*%
D21*
%TO.C,C4*%
X88093928Y-42426502D03*
X87004132Y-43982890D03*
%TD*%
D18*
%TO.C,U3*%
X53639195Y-54915542D03*
X54289193Y-54915542D03*
X54939195Y-54915542D03*
X55589193Y-54915542D03*
X55589193Y-59004942D03*
X54939195Y-59004942D03*
X54289193Y-59004942D03*
X53639195Y-59004942D03*
%TD*%
D22*
%TO.C,U4*%
X85626557Y-73084126D03*
X85253733Y-72551678D03*
X84880907Y-72019228D03*
X84508084Y-71486781D03*
X81158243Y-73832364D03*
X81531067Y-74364812D03*
X81903893Y-74897262D03*
X82276716Y-75429709D03*
%TD*%
M02*
