M48
; DRILL file {KiCad 7.0.10} date Tue 16 Jul 2024 05:41:39 PM PDT
; FORMAT={-:-/ absolute / metric / decimal}
; #@! TF.CreationDate,2024-07-16T17:41:39-07:00
; #@! TF.GenerationSoftware,Kicad,Pcbnew,7.0.10
; #@! TF.FileFunction,Plated,1,2,PTH
FMAT,2
METRIC
; #@! TA.AperFunction,Plated,PTH,ViaDrill
T1C0.300
; #@! TA.AperFunction,Plated,PTH,ViaDrill
T2C0.400
; #@! TA.AperFunction,Plated,PTH,ComponentDrill
T3C0.950
%
G90
G05
T1
X51.69Y-50.633
X51.977Y-53.675
X52.836Y-59.962
X52.896Y-56.983
X53.425Y-60.919
X53.528Y-46.416
X53.668Y-48.186
X54.737Y-70.565
X55.267Y-56.471
X55.597Y-57.431
X55.769Y-42.249
X55.815Y-50.483
X56.285Y-58.359
X56.302Y-67.624
X56.309Y-56.956
X56.401Y-55.571
X56.447Y-65.155
X56.763Y-71.102
X56.844Y-48.4
X56.965Y-52.008
X57.963Y-48.144
X58.267Y-43.607
X58.897Y-46.896
X59.249Y-65.783
X59.503Y-47.845
X60.705Y-71.269
X61.385Y-70.952
X61.733Y-38.845
X61.843Y-39.725
X62.043Y-43.255
X63.255Y-74.845
X63.411Y-73.422
X63.501Y-39.224
X63.801Y-42.621
X63.956Y-72.888
X64.647Y-39.846
X64.921Y-72.372
X65.013Y-41.858
X65.21Y-72.997
X65.247Y-40.805
X66.044Y-78.758
X66.221Y-41.181
X68.282Y-37.723
X69.102Y-40.373
X69.982Y-35.933
X70.427Y-79.295
X72.212Y-40.023
X72.647Y-76.535
X72.987Y-33.735
X73.127Y-80.735
X74.946Y-76.257
X76.722Y-39.481
X76.897Y-33.675
X78.964Y-40.753
X79.558Y-75.483
X81.191Y-41.012
X82.354Y-41.785
X82.453Y-72.149
X82.487Y-73.371
X83.336Y-72.264
X83.375Y-40.915
X83.998Y-40.461
X84.267Y-39.048
X84.286Y-74.723
X85.546Y-37.082
X85.661Y-43.107
X86.837Y-39.355
X88.313Y-65.135
X88.464Y-45.002
X89.661Y-66.442
X90.187Y-71.355
X90.733Y-40.165
X90.995Y-66.169
X91.307Y-51.366
X91.311Y-57.592
X91.896Y-56.352
X92.161Y-64.742
X92.211Y-60.767
X92.526Y-57.492
X93.421Y-46.707
X94.486Y-66.667
X94.778Y-56.748
X96.337Y-54.705
X97.792Y-57.043
T2
X50.804Y-57.93
X67.568Y-76.472
X87.086Y-72.25
X88.382Y-75.109
X93.222Y-52.596
X97.032Y-52.088
T3
X69.932Y-37.703
X72.432Y-37.703
X74.932Y-37.703
X77.432Y-37.703
M30
