%TF.GenerationSoftware,KiCad,Pcbnew,7.0.10*%
%TF.CreationDate,2024-07-16T17:41:30-07:00*%
%TF.ProjectId,Thermistor Ring,54686572-6d69-4737-946f-722052696e67,rev?*%
%TF.SameCoordinates,Original*%
%TF.FileFunction,Legend,Bot*%
%TF.FilePolarity,Positive*%
%FSLAX46Y46*%
G04 Gerber Fmt 4.6, Leading zero omitted, Abs format (unit mm)*
G04 Created by KiCad (PCBNEW 7.0.10) date 2024-07-16 17:41:30*
%MOMM*%
%LPD*%
G01*
G04 APERTURE LIST*
%ADD10C,0.150000*%
%ADD11C,0.120000*%
G04 APERTURE END LIST*
D10*
X74199598Y-35321314D02*
X74199598Y-36035599D01*
X74199598Y-36035599D02*
X74247217Y-36178456D01*
X74247217Y-36178456D02*
X74342455Y-36273695D01*
X74342455Y-36273695D02*
X74485312Y-36321314D01*
X74485312Y-36321314D02*
X74580550Y-36321314D01*
X73199598Y-36321314D02*
X73771026Y-36321314D01*
X73485312Y-36321314D02*
X73485312Y-35321314D01*
X73485312Y-35321314D02*
X73580550Y-35464171D01*
X73580550Y-35464171D02*
X73675788Y-35559409D01*
X73675788Y-35559409D02*
X73771026Y-35607028D01*
D11*
%TO.C,J1*%
X67082085Y-40452705D02*
X67082085Y-39202705D01*
X67372085Y-34192705D02*
X79992085Y-34192705D01*
X67372085Y-40162705D02*
X67372085Y-34192705D01*
X67382085Y-37902705D02*
X68132085Y-37902705D01*
X67382085Y-39402705D02*
X69182085Y-39402705D01*
X67382085Y-40152705D02*
X67382085Y-39402705D01*
X68132085Y-34952705D02*
X73682085Y-34952705D01*
X68132085Y-37902705D02*
X68132085Y-34952705D01*
X68332085Y-40452705D02*
X67082085Y-40452705D01*
X69182085Y-39402705D02*
X69182085Y-40152705D01*
X69182085Y-40152705D02*
X67382085Y-40152705D01*
X70682085Y-39402705D02*
X76682085Y-39402705D01*
X70682085Y-40152705D02*
X70682085Y-39402705D01*
X76682085Y-39402705D02*
X76682085Y-40152705D01*
X76682085Y-40152705D02*
X70682085Y-40152705D01*
X78182085Y-39402705D02*
X79982085Y-39402705D01*
X78182085Y-40152705D02*
X78182085Y-39402705D01*
X79232085Y-34952705D02*
X73682085Y-34952705D01*
X79232085Y-37902705D02*
X79232085Y-34952705D01*
X79982085Y-37902705D02*
X79232085Y-37902705D01*
X79982085Y-39402705D02*
X79982085Y-40152705D01*
X79982085Y-40152705D02*
X78182085Y-40152705D01*
X79992085Y-34192705D02*
X79992085Y-40162705D01*
X79992085Y-40162705D02*
X67372085Y-40162705D01*
%TD*%
M02*
