%TF.GenerationSoftware,KiCad,Pcbnew,7.0.10*%
%TF.CreationDate,2024-07-08T17:56:43-07:00*%
%TF.ProjectId,Thermistor Ring,54686572-6d69-4737-946f-722052696e67,rev?*%
%TF.SameCoordinates,Original*%
%TF.FileFunction,Profile,NP*%
%FSLAX46Y46*%
G04 Gerber Fmt 4.6, Leading zero omitted, Abs format (unit mm)*
G04 Created by KiCad (PCBNEW 7.0.10) date 2024-07-08 17:56:43*
%MOMM*%
%LPD*%
G01*
G04 APERTURE LIST*
%TA.AperFunction,Profile*%
%ADD10C,0.100000*%
%TD*%
G04 APERTURE END LIST*
D10*
X58605282Y-54741490D02*
X58546580Y-55537226D01*
X60446549Y-48671629D02*
X60087795Y-49384342D01*
X89802560Y-50113796D02*
X89479213Y-49384344D01*
X77954991Y-40390758D02*
X77168827Y-40254345D01*
X73190090Y-72513130D02*
X73985839Y-72571821D01*
X76376919Y-72513122D02*
X77168830Y-72415451D01*
X77954995Y-72279042D02*
X78733517Y-72104220D01*
X62871743Y-64936377D02*
X61760722Y-66047396D01*
X65099525Y-69392246D02*
X65751882Y-69851680D01*
X60839841Y-64692412D02*
X61266713Y-65366528D01*
X74783510Y-72591399D02*
X75581173Y-72571826D01*
X90727645Y-59506383D02*
X90864054Y-58720221D01*
X70064488Y-71891412D02*
X70833494Y-72104207D01*
X61726152Y-66018885D02*
X61757696Y-66050427D01*
X85049716Y-46081805D02*
X86711414Y-47743515D01*
X86711414Y-47743515D02*
X87822434Y-46632490D01*
X58546580Y-55537226D02*
X58526995Y-56334892D01*
X73985839Y-72571821D02*
X74783510Y-72591399D01*
X64533431Y-66598084D02*
X66195138Y-68259779D01*
X83388011Y-44420108D02*
X84499036Y-43309089D01*
X58526995Y-56334892D02*
X58546579Y-57132570D01*
X90864054Y-58720221D02*
X90961729Y-57928317D01*
X59226998Y-51615878D02*
X59014187Y-52384896D01*
X71612015Y-40390751D02*
X70833501Y-40565576D01*
X59014193Y-60284902D02*
X59227004Y-61053910D01*
X60087791Y-63285439D02*
X60446551Y-63998153D01*
X88300299Y-47303271D02*
X87840852Y-46650906D01*
X58839363Y-59506384D02*
X59014193Y-60284902D01*
X83815137Y-69851679D02*
X84467487Y-69392239D01*
X91020423Y-55537226D02*
X90961725Y-54741475D01*
X65751882Y-69851680D02*
X66425989Y-70278565D01*
X77168827Y-40254345D02*
X76376923Y-40156668D01*
X89120454Y-48671631D02*
X88727178Y-47977388D01*
X59227004Y-61053910D02*
X59477287Y-61811547D01*
X59477287Y-61811547D02*
X59764454Y-62555989D01*
X90961729Y-57928317D02*
X91020427Y-57132557D01*
X84467495Y-43277545D02*
X84499036Y-43309089D01*
X81734061Y-41639187D02*
X81004605Y-41315839D01*
X74783505Y-40078396D02*
X73985842Y-40097973D01*
X70833501Y-40565576D02*
X70064496Y-40778395D01*
X84467495Y-43277545D02*
X83815126Y-42818106D01*
X90552816Y-60284908D02*
X90727645Y-59506383D01*
X91020427Y-57132557D02*
X91040017Y-56334891D01*
X69306854Y-41028676D02*
X68562412Y-41315843D01*
X91040017Y-56334891D02*
X91020423Y-55537226D01*
X80260153Y-71641116D02*
X81004601Y-71353954D01*
X81734049Y-71030599D02*
X82446756Y-70671854D01*
X73190090Y-40156680D02*
X72398185Y-40254338D01*
X59014187Y-52384896D02*
X58839361Y-53163415D01*
X78733520Y-40565578D02*
X77954991Y-40390758D01*
X85049718Y-66587903D02*
X86711403Y-64926199D01*
X58839361Y-53163415D02*
X58702953Y-53949569D01*
X76376923Y-40156668D02*
X75581178Y-40097971D01*
X59764454Y-62555989D02*
X60087791Y-63285439D01*
X73985842Y-40097973D02*
X73190090Y-40156680D01*
X87840855Y-66018884D02*
X87822464Y-66037269D01*
X79502523Y-40778392D02*
X78733520Y-40565578D01*
X68562412Y-41315843D02*
X67832953Y-41639194D01*
X61726156Y-46650905D02*
X61266707Y-47303271D01*
X81004605Y-41315839D02*
X80260159Y-41028680D01*
X90340005Y-51615884D02*
X90089726Y-50858248D01*
X72398185Y-40254338D02*
X71612015Y-40390751D01*
X88727169Y-64692407D02*
X89120462Y-63998155D01*
X67832955Y-71030607D02*
X68562409Y-71353948D01*
X89479213Y-49384344D02*
X89120454Y-48671631D01*
X60446551Y-63998153D02*
X60839841Y-64692412D01*
X69306855Y-71641114D02*
X70064488Y-71891412D01*
X64543615Y-46081809D02*
X62864236Y-47761197D01*
X70064496Y-40778395D02*
X69306854Y-41028676D01*
X59477280Y-50858242D02*
X59226998Y-51615878D01*
X75581173Y-72571826D02*
X76376919Y-72513122D01*
X68562409Y-71353948D02*
X69306855Y-71641114D01*
X66425991Y-42391230D02*
X65751865Y-42818109D01*
X83815126Y-42818106D02*
X83141010Y-42391224D01*
X60839837Y-47977378D02*
X60446549Y-48671629D01*
X90089726Y-61811548D02*
X90340016Y-61053915D01*
X85049715Y-66587900D02*
X83370336Y-68267288D01*
X90864056Y-53949571D02*
X90727643Y-53163409D01*
X67832953Y-41639194D02*
X67120241Y-41997940D01*
X70833494Y-72104207D02*
X71612017Y-72279031D01*
X64543615Y-46081809D02*
X66207288Y-44418141D01*
X90340016Y-61053915D02*
X90552816Y-60284908D01*
X87840855Y-66018884D02*
X88300292Y-65366527D01*
X64533431Y-66598084D02*
X62871743Y-64936377D01*
X67120235Y-70671849D02*
X67832955Y-71030607D01*
X58702955Y-58720220D02*
X58839363Y-59506384D01*
X87840852Y-46650906D02*
X87822434Y-46632490D01*
X75581178Y-40097971D02*
X74783505Y-40078396D01*
X85049716Y-46081805D02*
X83388011Y-44420108D01*
X59764452Y-50113811D02*
X59477280Y-50858242D01*
X86711403Y-64926199D02*
X87822426Y-66037231D01*
X84481361Y-69378300D02*
X84467461Y-69392201D01*
X80260159Y-41028680D02*
X79502523Y-40778392D01*
X89802551Y-62555988D02*
X90089726Y-61811548D01*
X90552823Y-52384892D02*
X90340005Y-51615884D01*
X90727643Y-53163409D02*
X90552823Y-52384892D01*
X61266707Y-47303271D02*
X60839837Y-47977378D01*
X88300292Y-65366527D02*
X88727169Y-64692407D01*
X66205921Y-44420707D02*
X65094307Y-43309085D01*
X83141015Y-70278569D02*
X83815137Y-69851679D01*
X65099525Y-69392246D02*
X65081099Y-69373834D01*
X90961725Y-54741475D02*
X90864056Y-53949571D01*
X60087795Y-49384342D02*
X59764452Y-50113811D01*
X72398179Y-72415443D02*
X73190090Y-72513130D01*
X88727178Y-47977388D02*
X88300299Y-47303271D01*
X67120241Y-41997940D02*
X66425991Y-42391230D01*
X79502516Y-71891403D02*
X80260153Y-71641116D01*
X82446762Y-41997934D02*
X81734061Y-41639187D01*
X62864236Y-47761197D02*
X61753211Y-46650171D01*
X83370336Y-68267288D02*
X84481361Y-69378300D01*
X65751865Y-42818109D02*
X65099514Y-43277552D01*
X61726156Y-46650905D02*
X61753955Y-46650910D01*
X77168830Y-72415451D02*
X77954995Y-72279042D01*
X71612017Y-72279031D02*
X72398179Y-72415443D01*
X90089726Y-50858248D02*
X89802560Y-50113796D01*
X83141010Y-42391224D02*
X82446762Y-41997934D01*
X82446756Y-70671854D02*
X83141015Y-70278569D01*
X89120462Y-63998155D02*
X89479217Y-63285450D01*
X58605280Y-57928315D02*
X58702955Y-58720220D01*
X58546579Y-57132570D02*
X58605280Y-57928315D01*
X66195138Y-68259779D02*
X65084122Y-69370800D01*
X65099514Y-43277552D02*
X65099516Y-43314300D01*
X81004601Y-71353954D02*
X81734049Y-71030599D01*
X89479217Y-63285450D02*
X89802551Y-62555988D01*
X61266713Y-65366528D02*
X61726152Y-66018885D01*
X58702953Y-53949569D02*
X58605282Y-54741490D01*
X78733517Y-72104220D02*
X79502516Y-71891403D01*
X66425989Y-70278565D02*
X67120235Y-70671849D01*
X99219519Y-56334891D02*
G75*
G03*
X50959499Y-56334891I-24130010J0D01*
G01*
X50959499Y-56334891D02*
G75*
G03*
X99219519Y-56334891I24130010J0D01*
G01*
M02*
