M48
; DRILL file {KiCad 7.0.10} date Mon 08 Jul 2024 05:56:50 PM PDT
; FORMAT={-:-/ absolute / metric / decimal}
; #@! TF.CreationDate,2024-07-08T17:56:50-07:00
; #@! TF.GenerationSoftware,Kicad,Pcbnew,7.0.10
; #@! TF.FileFunction,Plated,1,2,PTH
FMAT,2
METRIC
; #@! TA.AperFunction,Plated,PTH,ViaDrill
T1C0.300
; #@! TA.AperFunction,Plated,PTH,ViaDrill
T2C0.400
; #@! TA.AperFunction,Plated,PTH,ComponentDrill
T3C0.950
%
G90
G05
T1
X51.957Y-51.439
X53.047Y-53.049
X53.906Y-59.336
X53.966Y-56.358
X54.495Y-60.294
X54.597Y-45.791
X54.738Y-47.561
X55.807Y-69.939
X56.337Y-55.846
X56.667Y-56.806
X56.74Y-50.426
X57.355Y-57.734
X57.379Y-56.33
X57.47Y-54.946
X57.517Y-64.529
X57.551Y-41.476
X57.913Y-47.774
X58.1Y-52.016
X59.032Y-47.519
X59.735Y-72.48
X59.966Y-46.27
X60.263Y-69.313
X60.573Y-47.22
X60.612Y-65.345
X60.743Y-41.446
X62.803Y-38.22
X62.913Y-39.1
X63.113Y-42.63
X64.325Y-74.219
X64.481Y-72.797
X64.57Y-38.598
X64.87Y-41.996
X65.026Y-72.263
X65.717Y-39.221
X65.99Y-71.747
X66.083Y-41.232
X66.28Y-72.372
X66.317Y-40.179
X67.114Y-78.132
X67.29Y-40.556
X69.352Y-37.097
X70.172Y-39.747
X71.052Y-35.307
X71.497Y-78.669
X73.282Y-39.397
X73.717Y-75.909
X74.057Y-33.109
X74.197Y-80.109
X77.791Y-38.855
X77.967Y-33.049
X78.437Y-75.476
X80.034Y-40.128
X81.184Y-74.029
X82.26Y-40.387
X83.424Y-41.159
X83.523Y-71.523
X83.557Y-72.745
X84.405Y-71.639
X84.444Y-40.29
X84.737Y-35.399
X85.068Y-39.835
X85.337Y-38.423
X85.356Y-74.098
X86.73Y-42.482
X87.907Y-38.729
X89.383Y-64.51
X89.534Y-44.376
X91.257Y-70.729
X91.295Y-65.414
X91.803Y-39.54
X92.064Y-56.441
X92.065Y-65.544
X92.377Y-50.741
X92.796Y-59.747
X92.966Y-55.727
X93.444Y-62.618
X93.596Y-56.867
X95.057Y-45.629
X95.847Y-56.123
X96.307Y-63.429
X97.407Y-54.079
X98.862Y-56.417
T2
X51.874Y-57.304
X68.638Y-75.846
X88.156Y-71.625
X89.452Y-74.484
X94.292Y-51.97
X98.102Y-51.462
T3
X71.002Y-37.077
X73.502Y-37.077
X76.002Y-37.077
X78.502Y-37.077
M30
