%TF.GenerationSoftware,KiCad,Pcbnew,7.0.10*%
%TF.CreationDate,2024-07-08T17:56:43-07:00*%
%TF.ProjectId,Thermistor Ring,54686572-6d69-4737-946f-722052696e67,rev?*%
%TF.SameCoordinates,Original*%
%TF.FileFunction,Legend,Top*%
%TF.FilePolarity,Positive*%
%FSLAX46Y46*%
G04 Gerber Fmt 4.6, Leading zero omitted, Abs format (unit mm)*
G04 Created by KiCad (PCBNEW 7.0.10) date 2024-07-08 17:56:43*
%MOMM*%
%LPD*%
G01*
G04 APERTURE LIST*
%ADD10C,0.150000*%
%ADD11C,0.120000*%
%ADD12C,0.152400*%
G04 APERTURE END LIST*
D10*
X93857481Y-63197633D02*
X93809862Y-63245253D01*
X93809862Y-63245253D02*
X93667005Y-63292872D01*
X93667005Y-63292872D02*
X93571767Y-63292872D01*
X93571767Y-63292872D02*
X93428910Y-63245253D01*
X93428910Y-63245253D02*
X93333672Y-63150014D01*
X93333672Y-63150014D02*
X93286053Y-63054776D01*
X93286053Y-63054776D02*
X93238434Y-62864300D01*
X93238434Y-62864300D02*
X93238434Y-62721443D01*
X93238434Y-62721443D02*
X93286053Y-62530967D01*
X93286053Y-62530967D02*
X93333672Y-62435729D01*
X93333672Y-62435729D02*
X93428910Y-62340491D01*
X93428910Y-62340491D02*
X93571767Y-62292872D01*
X93571767Y-62292872D02*
X93667005Y-62292872D01*
X93667005Y-62292872D02*
X93809862Y-62340491D01*
X93809862Y-62340491D02*
X93857481Y-62388110D01*
X94714624Y-62292872D02*
X94524148Y-62292872D01*
X94524148Y-62292872D02*
X94428910Y-62340491D01*
X94428910Y-62340491D02*
X94381291Y-62388110D01*
X94381291Y-62388110D02*
X94286053Y-62530967D01*
X94286053Y-62530967D02*
X94238434Y-62721443D01*
X94238434Y-62721443D02*
X94238434Y-63102395D01*
X94238434Y-63102395D02*
X94286053Y-63197633D01*
X94286053Y-63197633D02*
X94333672Y-63245253D01*
X94333672Y-63245253D02*
X94428910Y-63292872D01*
X94428910Y-63292872D02*
X94619386Y-63292872D01*
X94619386Y-63292872D02*
X94714624Y-63245253D01*
X94714624Y-63245253D02*
X94762243Y-63197633D01*
X94762243Y-63197633D02*
X94809862Y-63102395D01*
X94809862Y-63102395D02*
X94809862Y-62864300D01*
X94809862Y-62864300D02*
X94762243Y-62769062D01*
X94762243Y-62769062D02*
X94714624Y-62721443D01*
X94714624Y-62721443D02*
X94619386Y-62673824D01*
X94619386Y-62673824D02*
X94428910Y-62673824D01*
X94428910Y-62673824D02*
X94333672Y-62721443D01*
X94333672Y-62721443D02*
X94286053Y-62769062D01*
X94286053Y-62769062D02*
X94238434Y-62864300D01*
X60319335Y-69702278D02*
X60331029Y-69768598D01*
X60331029Y-69768598D02*
X60288097Y-69912933D01*
X60288097Y-69912933D02*
X60233471Y-69990947D01*
X60233471Y-69990947D02*
X60112524Y-70080656D01*
X60112524Y-70080656D02*
X59979883Y-70104044D01*
X59979883Y-70104044D02*
X59874555Y-70088425D01*
X59874555Y-70088425D02*
X59691213Y-70018180D01*
X59691213Y-70018180D02*
X59574192Y-69936240D01*
X59574192Y-69936240D02*
X59445476Y-69787980D01*
X59445476Y-69787980D02*
X59394775Y-69694347D01*
X59394775Y-69694347D02*
X59371386Y-69561706D01*
X59371386Y-69561706D02*
X59414319Y-69417371D01*
X59414319Y-69417371D02*
X59468945Y-69339356D01*
X59468945Y-69339356D02*
X59589892Y-69249648D01*
X59589892Y-69249648D02*
X59656212Y-69237954D01*
X60097148Y-68442190D02*
X59824016Y-68832262D01*
X59824016Y-68832262D02*
X60186775Y-69144401D01*
X60186775Y-69144401D02*
X60175081Y-69078081D01*
X60175081Y-69078081D02*
X60190700Y-68972753D01*
X60190700Y-68972753D02*
X60327266Y-68777717D01*
X60327266Y-68777717D02*
X60420900Y-68727016D01*
X60420900Y-68727016D02*
X60487220Y-68715322D01*
X60487220Y-68715322D02*
X60592548Y-68730941D01*
X60592548Y-68730941D02*
X60787584Y-68867506D01*
X60787584Y-68867506D02*
X60838285Y-68961140D01*
X60838285Y-68961140D02*
X60849979Y-69027460D01*
X60849979Y-69027460D02*
X60834360Y-69132788D01*
X60834360Y-69132788D02*
X60697794Y-69327824D01*
X60697794Y-69327824D02*
X60604161Y-69378526D01*
X60604161Y-69378526D02*
X60537840Y-69390220D01*
X65596519Y-73677671D02*
X66060843Y-73014548D01*
X66060843Y-73014548D02*
X66076462Y-72909220D01*
X66076462Y-72909220D02*
X66064768Y-72842900D01*
X66064768Y-72842900D02*
X66014067Y-72749267D01*
X66014067Y-72749267D02*
X65858038Y-72640014D01*
X65858038Y-72640014D02*
X65752710Y-72624395D01*
X65752710Y-72624395D02*
X65686390Y-72636089D01*
X65686390Y-72636089D02*
X65592756Y-72686790D01*
X65592756Y-72686790D02*
X65128433Y-73349913D01*
X64387295Y-72830963D02*
X64543324Y-72940216D01*
X64543324Y-72940216D02*
X64648652Y-72955835D01*
X64648652Y-72955835D02*
X64714972Y-72944141D01*
X64714972Y-72944141D02*
X64874926Y-72881745D01*
X64874926Y-72881745D02*
X65023186Y-72753030D01*
X65023186Y-72753030D02*
X65241691Y-72440972D01*
X65241691Y-72440972D02*
X65257310Y-72335644D01*
X65257310Y-72335644D02*
X65245616Y-72269324D01*
X65245616Y-72269324D02*
X65194915Y-72175690D01*
X65194915Y-72175690D02*
X65038886Y-72066437D01*
X65038886Y-72066437D02*
X64933558Y-72050818D01*
X64933558Y-72050818D02*
X64867238Y-72062512D01*
X64867238Y-72062512D02*
X64773604Y-72113214D01*
X64773604Y-72113214D02*
X64637038Y-72308250D01*
X64637038Y-72308250D02*
X64621419Y-72413578D01*
X64621419Y-72413578D02*
X64633113Y-72479898D01*
X64633113Y-72479898D02*
X64683815Y-72573532D01*
X64683815Y-72573532D02*
X64839844Y-72682784D01*
X64839844Y-72682784D02*
X64945171Y-72698403D01*
X64945171Y-72698403D02*
X65011492Y-72686709D01*
X65011492Y-72686709D02*
X65105125Y-72636008D01*
X66003721Y-75775449D02*
X65867155Y-75970485D01*
X65726745Y-75755905D02*
X65867155Y-75970485D01*
X65867155Y-75970485D02*
X66116817Y-76029036D01*
X65640881Y-76044574D02*
X65867155Y-75970485D01*
X65867155Y-75970485D02*
X65874924Y-76208453D01*
X65378314Y-76668620D02*
X65514880Y-76473584D01*
X65655290Y-76688164D02*
X65514880Y-76473584D01*
X65514880Y-76473584D02*
X65265218Y-76415033D01*
X65741154Y-76399495D02*
X65514880Y-76473584D01*
X65514880Y-76473584D02*
X65507111Y-76235616D01*
X83998302Y-38985341D02*
X83533978Y-39648464D01*
X83533978Y-39648464D02*
X83518359Y-39753792D01*
X83518359Y-39753792D02*
X83530053Y-39820112D01*
X83530053Y-39820112D02*
X83580754Y-39913745D01*
X83580754Y-39913745D02*
X83736783Y-40022998D01*
X83736783Y-40022998D02*
X83842111Y-40038617D01*
X83842111Y-40038617D02*
X83908431Y-40026923D01*
X83908431Y-40026923D02*
X84002065Y-39976222D01*
X84002065Y-39976222D02*
X84466388Y-39313099D01*
X84778446Y-39531604D02*
X85324548Y-39913988D01*
X85324548Y-39913988D02*
X84399906Y-40487322D01*
X83876181Y-36409989D02*
X83739615Y-36605025D01*
X83599205Y-36390445D02*
X83739615Y-36605025D01*
X83739615Y-36605025D02*
X83989277Y-36663576D01*
X83513341Y-36679114D02*
X83739615Y-36605025D01*
X83739615Y-36605025D02*
X83747384Y-36842993D01*
X83866181Y-36409988D02*
X83729615Y-36605024D01*
X83589205Y-36390444D02*
X83729615Y-36605024D01*
X83729615Y-36605024D02*
X83979277Y-36663575D01*
X83503341Y-36679113D02*
X83729615Y-36605024D01*
X83729615Y-36605024D02*
X83737384Y-36842992D01*
X64291845Y-39681075D02*
X64696607Y-40382144D01*
X64696607Y-40382144D02*
X64785465Y-40440813D01*
X64785465Y-40440813D02*
X64850514Y-40458242D01*
X64850514Y-40458242D02*
X64956802Y-40451863D01*
X64956802Y-40451863D02*
X65121760Y-40356625D01*
X65121760Y-40356625D02*
X65180429Y-40267766D01*
X65180429Y-40267766D02*
X65197858Y-40202717D01*
X65197858Y-40202717D02*
X65191479Y-40096429D01*
X65191479Y-40096429D02*
X64786717Y-39395361D01*
X65205490Y-39263554D02*
X65222919Y-39198505D01*
X65222919Y-39198505D02*
X65281588Y-39109647D01*
X65281588Y-39109647D02*
X65487785Y-38990599D01*
X65487785Y-38990599D02*
X65594073Y-38984219D01*
X65594073Y-38984219D02*
X65659122Y-39001649D01*
X65659122Y-39001649D02*
X65747980Y-39060318D01*
X65747980Y-39060318D02*
X65795599Y-39142797D01*
X65795599Y-39142797D02*
X65825789Y-39290324D01*
X65825789Y-39290324D02*
X65616631Y-40070910D01*
X65616631Y-40070910D02*
X66152742Y-39761386D01*
X61673341Y-38219284D02*
X61792389Y-38425480D01*
X61538573Y-38462049D02*
X61792389Y-38425480D01*
X61792389Y-38425480D02*
X61950966Y-38223954D01*
X61763909Y-38661866D02*
X61792389Y-38425480D01*
X61792389Y-38425480D02*
X62011345Y-38519009D01*
X61673341Y-38219284D02*
X61792389Y-38425480D01*
X61538573Y-38462049D02*
X61792389Y-38425480D01*
X61792389Y-38425480D02*
X61950966Y-38223954D01*
X61763909Y-38661866D02*
X61792389Y-38425480D01*
X61792389Y-38425480D02*
X62011345Y-38519009D01*
X94456104Y-55619776D02*
X93646581Y-55619776D01*
X93646581Y-55619776D02*
X93551343Y-55667395D01*
X93551343Y-55667395D02*
X93503724Y-55715014D01*
X93503724Y-55715014D02*
X93456104Y-55810252D01*
X93456104Y-55810252D02*
X93456104Y-56000728D01*
X93456104Y-56000728D02*
X93503724Y-56095966D01*
X93503724Y-56095966D02*
X93551343Y-56143585D01*
X93551343Y-56143585D02*
X93646581Y-56191204D01*
X93646581Y-56191204D02*
X94456104Y-56191204D01*
X94456104Y-57143585D02*
X94456104Y-56667395D01*
X94456104Y-56667395D02*
X93979914Y-56619776D01*
X93979914Y-56619776D02*
X94027533Y-56667395D01*
X94027533Y-56667395D02*
X94075152Y-56762633D01*
X94075152Y-56762633D02*
X94075152Y-57000728D01*
X94075152Y-57000728D02*
X94027533Y-57095966D01*
X94027533Y-57095966D02*
X93979914Y-57143585D01*
X93979914Y-57143585D02*
X93884676Y-57191204D01*
X93884676Y-57191204D02*
X93646581Y-57191204D01*
X93646581Y-57191204D02*
X93551343Y-57143585D01*
X93551343Y-57143585D02*
X93503724Y-57095966D01*
X93503724Y-57095966D02*
X93456104Y-57000728D01*
X93456104Y-57000728D02*
X93456104Y-56762633D01*
X93456104Y-56762633D02*
X93503724Y-56667395D01*
X93503724Y-56667395D02*
X93551343Y-56619776D01*
X95940943Y-54082980D02*
X96179038Y-54082980D01*
X96083800Y-54321075D02*
X96179038Y-54082980D01*
X96179038Y-54082980D02*
X96083800Y-53844885D01*
X96369514Y-54225837D02*
X96179038Y-54082980D01*
X96179038Y-54082980D02*
X96369514Y-53940123D01*
X97031304Y-54082981D02*
X96793209Y-54082981D01*
X96888447Y-53844886D02*
X96793209Y-54082981D01*
X96793209Y-54082981D02*
X96888447Y-54321076D01*
X96602733Y-53940124D02*
X96793209Y-54082981D01*
X96793209Y-54082981D02*
X96602733Y-54225838D01*
X55138734Y-57096799D02*
X55948257Y-57096799D01*
X55948257Y-57096799D02*
X56043495Y-57049180D01*
X56043495Y-57049180D02*
X56091115Y-57001561D01*
X56091115Y-57001561D02*
X56138734Y-56906323D01*
X56138734Y-56906323D02*
X56138734Y-56715847D01*
X56138734Y-56715847D02*
X56091115Y-56620609D01*
X56091115Y-56620609D02*
X56043495Y-56572990D01*
X56043495Y-56572990D02*
X55948257Y-56525371D01*
X55948257Y-56525371D02*
X55138734Y-56525371D01*
X55138734Y-56144418D02*
X55138734Y-55525371D01*
X55138734Y-55525371D02*
X55519686Y-55858704D01*
X55519686Y-55858704D02*
X55519686Y-55715847D01*
X55519686Y-55715847D02*
X55567305Y-55620609D01*
X55567305Y-55620609D02*
X55614924Y-55572990D01*
X55614924Y-55572990D02*
X55710162Y-55525371D01*
X55710162Y-55525371D02*
X55948257Y-55525371D01*
X55948257Y-55525371D02*
X56043495Y-55572990D01*
X56043495Y-55572990D02*
X56091115Y-55620609D01*
X56091115Y-55620609D02*
X56138734Y-55715847D01*
X56138734Y-55715847D02*
X56138734Y-56001561D01*
X56138734Y-56001561D02*
X56091115Y-56096799D01*
X56091115Y-56096799D02*
X56043495Y-56144418D01*
X52563534Y-58633594D02*
X52801629Y-58633594D01*
X52706391Y-58871689D02*
X52801629Y-58633594D01*
X52801629Y-58633594D02*
X52706391Y-58395499D01*
X52992105Y-58776451D02*
X52801629Y-58633594D01*
X52801629Y-58633594D02*
X52992105Y-58490737D01*
X52563534Y-58633594D02*
X52801629Y-58633594D01*
X52706391Y-58871689D02*
X52801629Y-58633594D01*
X52801629Y-58633594D02*
X52706391Y-58395499D01*
X52992105Y-58776451D02*
X52801629Y-58633594D01*
X52801629Y-58633594D02*
X52992105Y-58490737D01*
X85398939Y-72842469D02*
X84934616Y-72179346D01*
X84934616Y-72179346D02*
X84840982Y-72128645D01*
X84840982Y-72128645D02*
X84774662Y-72116950D01*
X84774662Y-72116950D02*
X84669334Y-72132570D01*
X84669334Y-72132570D02*
X84513305Y-72241822D01*
X84513305Y-72241822D02*
X84462604Y-72335456D01*
X84462604Y-72335456D02*
X84450910Y-72401776D01*
X84450910Y-72401776D02*
X84466529Y-72507104D01*
X84466529Y-72507104D02*
X84930852Y-73170227D01*
X83998523Y-73416126D02*
X83616138Y-72870025D01*
X84412064Y-73591618D02*
X84197403Y-72869944D01*
X84197403Y-72869944D02*
X83690309Y-73225015D01*
X87509477Y-73177307D02*
X87646043Y-73372343D01*
X87396380Y-73430895D02*
X87646043Y-73372343D01*
X87646043Y-73372343D02*
X87786453Y-73157763D01*
X87638274Y-73610312D02*
X87646043Y-73372343D01*
X87646043Y-73372343D02*
X87872317Y-73446433D01*
X88134882Y-74070480D02*
X87998316Y-73875444D01*
X88247979Y-73816892D02*
X87998316Y-73875444D01*
X87998316Y-73875444D02*
X87857906Y-74090024D01*
X88006085Y-73637475D02*
X87998316Y-73875444D01*
X87998316Y-73875444D02*
X87772042Y-73801354D01*
X67061839Y-35596842D02*
X67044409Y-35661891D01*
X67044409Y-35661891D02*
X66944501Y-35774559D01*
X66944501Y-35774559D02*
X66862022Y-35822178D01*
X66862022Y-35822178D02*
X66714495Y-35852367D01*
X66714495Y-35852367D02*
X66584397Y-35817507D01*
X66584397Y-35817507D02*
X66495539Y-35758838D01*
X66495539Y-35758838D02*
X66359061Y-35617691D01*
X66359061Y-35617691D02*
X66287633Y-35493973D01*
X66287633Y-35493973D02*
X66233634Y-35305206D01*
X66233634Y-35305206D02*
X66227254Y-35198918D01*
X66227254Y-35198918D02*
X66262114Y-35068820D01*
X66262114Y-35068820D02*
X66362022Y-34956152D01*
X66362022Y-34956152D02*
X66444501Y-34908533D01*
X66444501Y-34908533D02*
X66592028Y-34878344D01*
X66592028Y-34878344D02*
X66657077Y-34895774D01*
X66898133Y-34646628D02*
X67434244Y-34337105D01*
X67434244Y-34337105D02*
X67336045Y-34833686D01*
X67336045Y-34833686D02*
X67459763Y-34762257D01*
X67459763Y-34762257D02*
X67566051Y-34755877D01*
X67566051Y-34755877D02*
X67631100Y-34773307D01*
X67631100Y-34773307D02*
X67719958Y-34831976D01*
X67719958Y-34831976D02*
X67839006Y-35038173D01*
X67839006Y-35038173D02*
X67845386Y-35144461D01*
X67845386Y-35144461D02*
X67827956Y-35209510D01*
X67827956Y-35209510D02*
X67769287Y-35298368D01*
X67769287Y-35298368D02*
X67521851Y-35441225D01*
X67521851Y-35441225D02*
X67415563Y-35447605D01*
X67415563Y-35447605D02*
X67350514Y-35430175D01*
X55624507Y-50693386D02*
X55576888Y-50741006D01*
X55576888Y-50741006D02*
X55434031Y-50788625D01*
X55434031Y-50788625D02*
X55338793Y-50788625D01*
X55338793Y-50788625D02*
X55195936Y-50741006D01*
X55195936Y-50741006D02*
X55100698Y-50645767D01*
X55100698Y-50645767D02*
X55053079Y-50550529D01*
X55053079Y-50550529D02*
X55005460Y-50360053D01*
X55005460Y-50360053D02*
X55005460Y-50217196D01*
X55005460Y-50217196D02*
X55053079Y-50026720D01*
X55053079Y-50026720D02*
X55100698Y-49931482D01*
X55100698Y-49931482D02*
X55195936Y-49836244D01*
X55195936Y-49836244D02*
X55338793Y-49788625D01*
X55338793Y-49788625D02*
X55434031Y-49788625D01*
X55434031Y-49788625D02*
X55576888Y-49836244D01*
X55576888Y-49836244D02*
X55624507Y-49883863D01*
X56005460Y-49883863D02*
X56053079Y-49836244D01*
X56053079Y-49836244D02*
X56148317Y-49788625D01*
X56148317Y-49788625D02*
X56386412Y-49788625D01*
X56386412Y-49788625D02*
X56481650Y-49836244D01*
X56481650Y-49836244D02*
X56529269Y-49883863D01*
X56529269Y-49883863D02*
X56576888Y-49979101D01*
X56576888Y-49979101D02*
X56576888Y-50074339D01*
X56576888Y-50074339D02*
X56529269Y-50217196D01*
X56529269Y-50217196D02*
X55957841Y-50788625D01*
X55957841Y-50788625D02*
X56576888Y-50788625D01*
X58268132Y-40788417D02*
X58513858Y-40261646D01*
X57982417Y-40293545D02*
X58848443Y-39793545D01*
X58848443Y-39793545D02*
X59038919Y-40123460D01*
X59038919Y-40123460D02*
X59045299Y-40229748D01*
X59045299Y-40229748D02*
X59027869Y-40294797D01*
X59027869Y-40294797D02*
X58969200Y-40383655D01*
X58969200Y-40383655D02*
X58845482Y-40455084D01*
X58845482Y-40455084D02*
X58739194Y-40461463D01*
X58739194Y-40461463D02*
X58674145Y-40444033D01*
X58674145Y-40444033D02*
X58585287Y-40385364D01*
X58585287Y-40385364D02*
X58394810Y-40055450D01*
X59300824Y-40577092D02*
X59610347Y-41113203D01*
X59610347Y-41113203D02*
X59113766Y-41015004D01*
X59113766Y-41015004D02*
X59185195Y-41138722D01*
X59185195Y-41138722D02*
X59191575Y-41245010D01*
X59191575Y-41245010D02*
X59174145Y-41310059D01*
X59174145Y-41310059D02*
X59115476Y-41398917D01*
X59115476Y-41398917D02*
X58909279Y-41517965D01*
X58909279Y-41517965D02*
X58802991Y-41524345D01*
X58802991Y-41524345D02*
X58737942Y-41506915D01*
X58737942Y-41506915D02*
X58649084Y-41448246D01*
X58649084Y-41448246D02*
X58506227Y-41200810D01*
X58506227Y-41200810D02*
X58499847Y-41094522D01*
X58499847Y-41094522D02*
X58517277Y-41029473D01*
X84648300Y-35443239D02*
X84172109Y-35776572D01*
X84648300Y-36014667D02*
X83648300Y-36014667D01*
X83648300Y-36014667D02*
X83648300Y-35633715D01*
X83648300Y-35633715D02*
X83695919Y-35538477D01*
X83695919Y-35538477D02*
X83743538Y-35490858D01*
X83743538Y-35490858D02*
X83838776Y-35443239D01*
X83838776Y-35443239D02*
X83981633Y-35443239D01*
X83981633Y-35443239D02*
X84076871Y-35490858D01*
X84076871Y-35490858D02*
X84124490Y-35538477D01*
X84124490Y-35538477D02*
X84172109Y-35633715D01*
X84172109Y-35633715D02*
X84172109Y-36014667D01*
X83743538Y-35062286D02*
X83695919Y-35014667D01*
X83695919Y-35014667D02*
X83648300Y-34919429D01*
X83648300Y-34919429D02*
X83648300Y-34681334D01*
X83648300Y-34681334D02*
X83695919Y-34586096D01*
X83695919Y-34586096D02*
X83743538Y-34538477D01*
X83743538Y-34538477D02*
X83838776Y-34490858D01*
X83838776Y-34490858D02*
X83934014Y-34490858D01*
X83934014Y-34490858D02*
X84076871Y-34538477D01*
X84076871Y-34538477D02*
X84648300Y-35109905D01*
X84648300Y-35109905D02*
X84648300Y-34490858D01*
X90193880Y-43885728D02*
X90205574Y-43952048D01*
X90205574Y-43952048D02*
X90162642Y-44096383D01*
X90162642Y-44096383D02*
X90108016Y-44174397D01*
X90108016Y-44174397D02*
X89987069Y-44264106D01*
X89987069Y-44264106D02*
X89854428Y-44287494D01*
X89854428Y-44287494D02*
X89749100Y-44271875D01*
X89749100Y-44271875D02*
X89565758Y-44201630D01*
X89565758Y-44201630D02*
X89448737Y-44119690D01*
X89448737Y-44119690D02*
X89320021Y-43971430D01*
X89320021Y-43971430D02*
X89269320Y-43877797D01*
X89269320Y-43877797D02*
X89245931Y-43745156D01*
X89245931Y-43745156D02*
X89288864Y-43600821D01*
X89288864Y-43600821D02*
X89343490Y-43522806D01*
X89343490Y-43522806D02*
X89464437Y-43433098D01*
X89464437Y-43433098D02*
X89530757Y-43421404D01*
X90217430Y-42855839D02*
X90763532Y-43238224D01*
X89768806Y-42832370D02*
X90217349Y-43437104D01*
X90217349Y-43437104D02*
X90572420Y-42930010D01*
D11*
%TO.C,C6*%
X94285400Y-60423053D02*
X93762896Y-60423053D01*
X94285400Y-61893053D02*
X93762896Y-61893053D01*
%TO.C,C5*%
X61948784Y-70958698D02*
X62248480Y-70530688D01*
X60744630Y-70115540D02*
X61044326Y-69687530D01*
D12*
%TO.C,U6*%
X67549126Y-72394867D02*
X64885899Y-70530056D01*
X63021088Y-73193283D02*
X65684315Y-75058094D01*
%TO.C,U7*%
X82045696Y-40268146D02*
X84708923Y-42132957D01*
X86573734Y-39469730D02*
X83910507Y-37604919D01*
%TO.C,U2*%
X64629254Y-41992875D02*
X67444876Y-40367275D01*
X65819276Y-37551653D02*
X63003654Y-39177253D01*
%TO.C,U5*%
X92285324Y-54756081D02*
X92285324Y-58007281D01*
X95536524Y-58007281D02*
X95536524Y-54756081D01*
%TO.C,U3*%
X57309515Y-57960495D02*
X57309515Y-54709295D01*
X54058315Y-54709295D02*
X54058315Y-57960495D01*
%TO.C,U4*%
X84861329Y-70568875D02*
X82198102Y-72433686D01*
X84062913Y-75096913D02*
X86726140Y-73232102D01*
D11*
%TO.C,C1*%
X80055641Y-76052960D02*
X79755945Y-75624950D01*
X81259795Y-75209802D02*
X80960099Y-74781792D01*
%TO.C,C3*%
X64515229Y-36090470D02*
X64062727Y-36351722D01*
X65250229Y-37363528D02*
X64797727Y-37624780D01*
%TO.C,C2*%
X55529922Y-51278806D02*
X56052426Y-51278806D01*
X55529922Y-52748806D02*
X56052426Y-52748806D01*
%TO.C,R3*%
X60771738Y-38765151D02*
X60998802Y-39158437D01*
X59498680Y-39500151D02*
X59725744Y-39893437D01*
%TO.C,R2*%
X81808481Y-35049509D02*
X81808481Y-35503637D01*
X83278481Y-35049509D02*
X83278481Y-35503637D01*
%TO.C,C4*%
X89370675Y-42786922D02*
X89070979Y-43214932D01*
X88166521Y-41943764D02*
X87866825Y-42371774D01*
%TD*%
M02*
