%TF.GenerationSoftware,KiCad,Pcbnew,7.0.10*%
%TF.CreationDate,2024-07-08T17:56:43-07:00*%
%TF.ProjectId,Thermistor Ring,54686572-6d69-4737-946f-722052696e67,rev?*%
%TF.SameCoordinates,Original*%
%TF.FileFunction,Legend,Bot*%
%TF.FilePolarity,Positive*%
%FSLAX46Y46*%
G04 Gerber Fmt 4.6, Leading zero omitted, Abs format (unit mm)*
G04 Created by KiCad (PCBNEW 7.0.10) date 2024-07-08 17:56:43*
%MOMM*%
%LPD*%
G01*
G04 APERTURE LIST*
%ADD10C,0.150000*%
%ADD11C,0.120000*%
G04 APERTURE END LIST*
D10*
X75269320Y-34695971D02*
X75269320Y-35410256D01*
X75269320Y-35410256D02*
X75316939Y-35553113D01*
X75316939Y-35553113D02*
X75412177Y-35648352D01*
X75412177Y-35648352D02*
X75555034Y-35695971D01*
X75555034Y-35695971D02*
X75650272Y-35695971D01*
X74269320Y-35695971D02*
X74840748Y-35695971D01*
X74555034Y-35695971D02*
X74555034Y-34695971D01*
X74555034Y-34695971D02*
X74650272Y-34838828D01*
X74650272Y-34838828D02*
X74745510Y-34934066D01*
X74745510Y-34934066D02*
X74840748Y-34981685D01*
D11*
%TO.C,J1*%
X68151807Y-39827362D02*
X68151807Y-38577362D01*
X68441807Y-33567362D02*
X81061807Y-33567362D01*
X68441807Y-39537362D02*
X68441807Y-33567362D01*
X68451807Y-37277362D02*
X69201807Y-37277362D01*
X68451807Y-38777362D02*
X70251807Y-38777362D01*
X68451807Y-39527362D02*
X68451807Y-38777362D01*
X69201807Y-34327362D02*
X74751807Y-34327362D01*
X69201807Y-37277362D02*
X69201807Y-34327362D01*
X69401807Y-39827362D02*
X68151807Y-39827362D01*
X70251807Y-38777362D02*
X70251807Y-39527362D01*
X70251807Y-39527362D02*
X68451807Y-39527362D01*
X71751807Y-38777362D02*
X77751807Y-38777362D01*
X71751807Y-39527362D02*
X71751807Y-38777362D01*
X77751807Y-38777362D02*
X77751807Y-39527362D01*
X77751807Y-39527362D02*
X71751807Y-39527362D01*
X79251807Y-38777362D02*
X81051807Y-38777362D01*
X79251807Y-39527362D02*
X79251807Y-38777362D01*
X80301807Y-34327362D02*
X74751807Y-34327362D01*
X80301807Y-37277362D02*
X80301807Y-34327362D01*
X81051807Y-37277362D02*
X80301807Y-37277362D01*
X81051807Y-38777362D02*
X81051807Y-39527362D01*
X81051807Y-39527362D02*
X79251807Y-39527362D01*
X81061807Y-33567362D02*
X81061807Y-39537362D01*
X81061807Y-39537362D02*
X68441807Y-39537362D01*
%TD*%
M02*
