%TF.GenerationSoftware,KiCad,Pcbnew,7.0.10*%
%TF.CreationDate,2024-04-03T19:42:33-07:00*%
%TF.ProjectId,Thermistor Ring,54686572-6d69-4737-946f-722052696e67,rev?*%
%TF.SameCoordinates,Original*%
%TF.FileFunction,Soldermask,Top*%
%TF.FilePolarity,Negative*%
%FSLAX46Y46*%
G04 Gerber Fmt 4.6, Leading zero omitted, Abs format (unit mm)*
G04 Created by KiCad (PCBNEW 7.0.10) date 2024-04-03 19:42:33*
%MOMM*%
%LPD*%
G01*
G04 APERTURE LIST*
G04 Aperture macros list*
%AMRoundRect*
0 Rectangle with rounded corners*
0 $1 Rounding radius*
0 $2 $3 $4 $5 $6 $7 $8 $9 X,Y pos of 4 corners*
0 Add a 4 corners polygon primitive as box body*
4,1,4,$2,$3,$4,$5,$6,$7,$8,$9,$2,$3,0*
0 Add four circle primitives for the rounded corners*
1,1,$1+$1,$2,$3*
1,1,$1+$1,$4,$5*
1,1,$1+$1,$6,$7*
1,1,$1+$1,$8,$9*
0 Add four rect primitives between the rounded corners*
20,1,$1+$1,$2,$3,$4,$5,0*
20,1,$1+$1,$4,$5,$6,$7,0*
20,1,$1+$1,$6,$7,$8,$9,0*
20,1,$1+$1,$8,$9,$2,$3,0*%
%AMRotRect*
0 Rectangle, with rotation*
0 The origin of the aperture is its center*
0 $1 length*
0 $2 width*
0 $3 Rotation angle, in degrees counterclockwise*
0 Add horizontal line*
21,1,$1,$2,0,0,$3*%
G04 Aperture macros list end*
%ADD10C,3.000000*%
%ADD11RotRect,0.812800X0.254000X145.000000*%
%ADD12RotRect,1.752600X1.549400X145.000000*%
%ADD13RoundRect,0.250000X0.536362X0.020994X0.286362X0.454006X-0.536362X-0.020994X-0.286362X-0.454006X0*%
%ADD14RoundRect,0.225000X0.327703X0.075733X-0.040915X0.333843X-0.327703X-0.075733X0.040915X-0.333843X0*%
%ADD15RoundRect,0.250000X-0.020994X0.536362X-0.454006X0.286362X0.020994X-0.536362X0.454006X-0.286362X0*%
%ADD16RoundRect,0.250000X-0.250000X-0.475000X0.250000X-0.475000X0.250000X0.475000X-0.250000X0.475000X0*%
%ADD17RotRect,0.812800X0.254000X325.000000*%
%ADD18RotRect,1.752600X1.549400X325.000000*%
%ADD19RoundRect,0.225000X0.225000X0.250000X-0.225000X0.250000X-0.225000X-0.250000X0.225000X-0.250000X0*%
%ADD20RoundRect,0.225000X0.075733X-0.327703X0.333843X0.040915X-0.075733X0.327703X-0.333843X-0.040915X0*%
%ADD21RotRect,0.812800X0.254000X30.000000*%
%ADD22RotRect,1.752600X1.549400X30.000000*%
%ADD23R,0.254000X0.812800*%
%ADD24R,1.549400X1.752600*%
%ADD25RotRect,1.805236X0.612132X235.000000*%
%ADD26RoundRect,0.250000X-0.519182X-0.043082X-0.218055X-0.473137X0.519182X0.043082X0.218055X0.473137X0*%
%ADD27RoundRect,0.250000X-0.450000X0.262500X-0.450000X-0.262500X0.450000X-0.262500X0.450000X0.262500X0*%
%ADD28RoundRect,0.250000X-0.245703X0.477237X-0.532491X0.067661X0.245703X-0.477237X0.532491X-0.067661X0*%
%ADD29RotRect,0.812800X0.254000X215.000000*%
%ADD30RotRect,1.752600X1.549400X215.000000*%
%ADD31RoundRect,0.250000X-0.600000X-0.725000X0.600000X-0.725000X0.600000X0.725000X-0.600000X0.725000X0*%
%ADD32O,1.700000X1.950000*%
G04 APERTURE END LIST*
D10*
%TO.C,REF\u002A\u002A*%
X91827286Y-45869988D03*
%TD*%
%TO.C,REF\u002A\u002A*%
X57187287Y-61459990D03*
%TD*%
%TO.C,REF\u002A\u002A*%
X77607284Y-75229990D03*
%TD*%
D11*
%TO.C,U6*%
X66933995Y-73350047D03*
X67220783Y-72940470D03*
X67507572Y-72530894D03*
X67794360Y-72121317D03*
X65505649Y-70518745D03*
X65218861Y-70928322D03*
X64932072Y-71337898D03*
X64645284Y-71747475D03*
D12*
X66219822Y-71934396D03*
%TD*%
D13*
%TO.C,C1*%
X82493625Y-75047416D03*
X81543625Y-73401968D03*
%TD*%
D14*
%TO.C,C8*%
X57693843Y-46595218D03*
X56424157Y-45706174D03*
%TD*%
D15*
%TO.C,C3*%
X66531918Y-35744011D03*
X64886470Y-36694011D03*
%TD*%
D16*
%TO.C,C2*%
X55775888Y-51154126D03*
X57675888Y-51154126D03*
%TD*%
D17*
%TO.C,U7*%
X84530259Y-37593613D03*
X84243471Y-38003190D03*
X83956682Y-38412766D03*
X83669894Y-38822343D03*
X85958605Y-40424915D03*
X86245393Y-40015338D03*
X86532182Y-39605762D03*
X86818970Y-39196185D03*
D18*
X85244432Y-39009264D03*
%TD*%
D19*
%TO.C,C6*%
X95754382Y-59733876D03*
X94204382Y-59733876D03*
%TD*%
D20*
%TO.C,C5*%
X62348561Y-70616139D03*
X63237605Y-69346453D03*
%TD*%
D14*
%TO.C,C7*%
X61444308Y-41839739D03*
X60174622Y-40950695D03*
%TD*%
D21*
%TO.C,U2*%
X64574149Y-38961565D03*
X64824150Y-39394579D03*
X65074150Y-39827591D03*
X65324150Y-40260605D03*
X67743825Y-38863605D03*
X67493824Y-38430591D03*
X67243824Y-37997579D03*
X66993824Y-37564565D03*
D22*
X66158987Y-38912585D03*
%TD*%
D23*
%TO.C,U5*%
X95595638Y-54125003D03*
X95095637Y-54125003D03*
X94595637Y-54125003D03*
X94095636Y-54125003D03*
X94095636Y-56919003D03*
X94595637Y-56919003D03*
X95095637Y-56919003D03*
X95595638Y-56919003D03*
D24*
X94845637Y-55522003D03*
%TD*%
D25*
%TO.C,U1*%
X59596844Y-43005281D03*
X58818649Y-42460382D03*
X58040454Y-41915484D03*
X56720674Y-43800325D03*
X58277064Y-44890122D03*
%TD*%
D26*
%TO.C,R3*%
X61394067Y-37462664D03*
X62440843Y-38957616D03*
%TD*%
D27*
%TO.C,R2*%
X83526182Y-33823138D03*
X83526182Y-35648138D03*
%TD*%
D28*
%TO.C,C4*%
X90098361Y-40941477D03*
X89008565Y-42497865D03*
%TD*%
D23*
%TO.C,U3*%
X55868635Y-56872221D03*
X56368636Y-56872221D03*
X56868636Y-56872221D03*
X57368637Y-56872221D03*
X57368637Y-54078221D03*
X56868636Y-54078221D03*
X56368636Y-54078221D03*
X55868635Y-54078221D03*
D24*
X56618636Y-55475221D03*
%TD*%
D29*
%TO.C,U4*%
X86971365Y-71786303D03*
X86684577Y-71376726D03*
X86397788Y-70967150D03*
X86111000Y-70557573D03*
X83822289Y-72160145D03*
X84109077Y-72569722D03*
X84395866Y-72979298D03*
X84682654Y-73388875D03*
D30*
X85396827Y-71973224D03*
%TD*%
D31*
%TO.C,J1*%
X71936524Y-36217686D03*
D32*
X74436524Y-36217686D03*
X76936524Y-36217686D03*
X79436524Y-36217686D03*
%TD*%
M02*
