%TF.GenerationSoftware,KiCad,Pcbnew,7.0.10*%
%TF.CreationDate,2024-04-03T19:42:33-07:00*%
%TF.ProjectId,Thermistor Ring,54686572-6d69-4737-946f-722052696e67,rev?*%
%TF.SameCoordinates,Original*%
%TF.FileFunction,Copper,L1,Top*%
%TF.FilePolarity,Positive*%
%FSLAX46Y46*%
G04 Gerber Fmt 4.6, Leading zero omitted, Abs format (unit mm)*
G04 Created by KiCad (PCBNEW 7.0.10) date 2024-04-03 19:42:33*
%MOMM*%
%LPD*%
G01*
G04 APERTURE LIST*
G04 Aperture macros list*
%AMRoundRect*
0 Rectangle with rounded corners*
0 $1 Rounding radius*
0 $2 $3 $4 $5 $6 $7 $8 $9 X,Y pos of 4 corners*
0 Add a 4 corners polygon primitive as box body*
4,1,4,$2,$3,$4,$5,$6,$7,$8,$9,$2,$3,0*
0 Add four circle primitives for the rounded corners*
1,1,$1+$1,$2,$3*
1,1,$1+$1,$4,$5*
1,1,$1+$1,$6,$7*
1,1,$1+$1,$8,$9*
0 Add four rect primitives between the rounded corners*
20,1,$1+$1,$2,$3,$4,$5,0*
20,1,$1+$1,$4,$5,$6,$7,0*
20,1,$1+$1,$6,$7,$8,$9,0*
20,1,$1+$1,$8,$9,$2,$3,0*%
%AMRotRect*
0 Rectangle, with rotation*
0 The origin of the aperture is its center*
0 $1 length*
0 $2 width*
0 $3 Rotation angle, in degrees counterclockwise*
0 Add horizontal line*
21,1,$1,$2,0,0,$3*%
G04 Aperture macros list end*
%TA.AperFunction,SMDPad,CuDef*%
%ADD10C,1.500000*%
%TD*%
%TA.AperFunction,SMDPad,CuDef*%
%ADD11RotRect,0.812800X0.254000X145.000000*%
%TD*%
%TA.AperFunction,SMDPad,CuDef*%
%ADD12RotRect,1.752600X1.549400X145.000000*%
%TD*%
%TA.AperFunction,SMDPad,CuDef*%
%ADD13RoundRect,0.250000X0.536362X0.020994X0.286362X0.454006X-0.536362X-0.020994X-0.286362X-0.454006X0*%
%TD*%
%TA.AperFunction,SMDPad,CuDef*%
%ADD14RoundRect,0.225000X0.327703X0.075733X-0.040915X0.333843X-0.327703X-0.075733X0.040915X-0.333843X0*%
%TD*%
%TA.AperFunction,SMDPad,CuDef*%
%ADD15RoundRect,0.250000X-0.020994X0.536362X-0.454006X0.286362X0.020994X-0.536362X0.454006X-0.286362X0*%
%TD*%
%TA.AperFunction,SMDPad,CuDef*%
%ADD16RoundRect,0.250000X-0.250000X-0.475000X0.250000X-0.475000X0.250000X0.475000X-0.250000X0.475000X0*%
%TD*%
%TA.AperFunction,SMDPad,CuDef*%
%ADD17RotRect,0.812800X0.254000X325.000000*%
%TD*%
%TA.AperFunction,SMDPad,CuDef*%
%ADD18RotRect,1.752600X1.549400X325.000000*%
%TD*%
%TA.AperFunction,SMDPad,CuDef*%
%ADD19RoundRect,0.225000X0.225000X0.250000X-0.225000X0.250000X-0.225000X-0.250000X0.225000X-0.250000X0*%
%TD*%
%TA.AperFunction,SMDPad,CuDef*%
%ADD20RoundRect,0.225000X0.075733X-0.327703X0.333843X0.040915X-0.075733X0.327703X-0.333843X-0.040915X0*%
%TD*%
%TA.AperFunction,SMDPad,CuDef*%
%ADD21RotRect,0.812800X0.254000X30.000000*%
%TD*%
%TA.AperFunction,SMDPad,CuDef*%
%ADD22RotRect,1.752600X1.549400X30.000000*%
%TD*%
%TA.AperFunction,SMDPad,CuDef*%
%ADD23R,0.254000X0.812800*%
%TD*%
%TA.AperFunction,SMDPad,CuDef*%
%ADD24R,1.549400X1.752600*%
%TD*%
%TA.AperFunction,SMDPad,CuDef*%
%ADD25RotRect,1.805236X0.612132X235.000000*%
%TD*%
%TA.AperFunction,SMDPad,CuDef*%
%ADD26RoundRect,0.250000X-0.519182X-0.043082X-0.218055X-0.473137X0.519182X0.043082X0.218055X0.473137X0*%
%TD*%
%TA.AperFunction,SMDPad,CuDef*%
%ADD27RoundRect,0.250000X-0.450000X0.262500X-0.450000X-0.262500X0.450000X-0.262500X0.450000X0.262500X0*%
%TD*%
%TA.AperFunction,SMDPad,CuDef*%
%ADD28RoundRect,0.250000X-0.245703X0.477237X-0.532491X0.067661X0.245703X-0.477237X0.532491X-0.067661X0*%
%TD*%
%TA.AperFunction,SMDPad,CuDef*%
%ADD29RotRect,0.812800X0.254000X215.000000*%
%TD*%
%TA.AperFunction,SMDPad,CuDef*%
%ADD30RotRect,1.752600X1.549400X215.000000*%
%TD*%
%TA.AperFunction,ComponentPad*%
%ADD31RoundRect,0.250000X-0.600000X-0.725000X0.600000X-0.725000X0.600000X0.725000X-0.600000X0.725000X0*%
%TD*%
%TA.AperFunction,ComponentPad*%
%ADD32O,1.700000X1.950000*%
%TD*%
%TA.AperFunction,ViaPad*%
%ADD33C,0.600000*%
%TD*%
%TA.AperFunction,ViaPad*%
%ADD34C,0.800000*%
%TD*%
%TA.AperFunction,Conductor*%
%ADD35C,0.160000*%
%TD*%
%TA.AperFunction,Conductor*%
%ADD36C,0.380000*%
%TD*%
%TA.AperFunction,Conductor*%
%ADD37C,0.100000*%
%TD*%
G04 APERTURE END LIST*
D10*
%TO.P,REF\u002A\u002A,*%
%TO.N,*%
X91827286Y-45869988D03*
%TD*%
%TO.P,REF\u002A\u002A,*%
%TO.N,*%
X57187287Y-61459990D03*
%TD*%
%TO.P,REF\u002A\u002A,*%
%TO.N,*%
X77607284Y-75229990D03*
%TD*%
D11*
%TO.P,U6,1,SDA*%
%TO.N,/SDA*%
X66933995Y-73350047D03*
%TO.P,U6,2,SCL*%
%TO.N,/SCL*%
X67220783Y-72940470D03*
%TO.P,U6,3,ALERT*%
%TO.N,GND*%
X67507572Y-72530894D03*
%TO.P,U6,4,GND*%
X67794360Y-72121317D03*
%TO.P,U6,5,A2*%
%TO.N,/VDD*%
X65505649Y-70518745D03*
%TO.P,U6,6,A1*%
%TO.N,GND*%
X65218861Y-70928322D03*
%TO.P,U6,7,A0*%
X64932072Y-71337898D03*
%TO.P,U6,8,VDD*%
%TO.N,/VDD*%
X64645284Y-71747475D03*
D12*
%TO.P,U6,9,EPAD*%
%TO.N,GND*%
X66219822Y-71934396D03*
%TD*%
D13*
%TO.P,C1,1*%
%TO.N,/VDD*%
X82493625Y-75047416D03*
%TO.P,C1,2*%
%TO.N,GND*%
X81543625Y-73401968D03*
%TD*%
D14*
%TO.P,C8,1*%
%TO.N,/VDD*%
X57693843Y-46595218D03*
%TO.P,C8,2*%
%TO.N,GND*%
X56424157Y-45706174D03*
%TD*%
D15*
%TO.P,C3,1*%
%TO.N,/VDD*%
X66531918Y-35744011D03*
%TO.P,C3,2*%
%TO.N,GND*%
X64886470Y-36694011D03*
%TD*%
D16*
%TO.P,C2,1*%
%TO.N,/VDD*%
X55775888Y-51154126D03*
%TO.P,C2,2*%
%TO.N,GND*%
X57675888Y-51154126D03*
%TD*%
D17*
%TO.P,U7,1,SDA*%
%TO.N,/SDA*%
X84530259Y-37593613D03*
%TO.P,U7,2,SCL*%
%TO.N,/SCL*%
X84243471Y-38003190D03*
%TO.P,U7,3,ALERT*%
%TO.N,GND*%
X83956682Y-38412766D03*
%TO.P,U7,4,GND*%
X83669894Y-38822343D03*
%TO.P,U7,5,A2*%
%TO.N,/VDD*%
X85958605Y-40424915D03*
%TO.P,U7,6,A1*%
X86245393Y-40015338D03*
%TO.P,U7,7,A0*%
%TO.N,GND*%
X86532182Y-39605762D03*
%TO.P,U7,8,VDD*%
%TO.N,/VDD*%
X86818970Y-39196185D03*
D18*
%TO.P,U7,9,EPAD*%
%TO.N,GND*%
X85244432Y-39009264D03*
%TD*%
D19*
%TO.P,C6,1*%
%TO.N,/VDD*%
X95754382Y-59733876D03*
%TO.P,C6,2*%
%TO.N,GND*%
X94204382Y-59733876D03*
%TD*%
D20*
%TO.P,C5,1*%
%TO.N,/VDD*%
X62348561Y-70616139D03*
%TO.P,C5,2*%
%TO.N,GND*%
X63237605Y-69346453D03*
%TD*%
D14*
%TO.P,C7,1*%
%TO.N,/Power 3.3-5V*%
X61444308Y-41839739D03*
%TO.P,C7,2*%
%TO.N,GND*%
X60174622Y-40950695D03*
%TD*%
D21*
%TO.P,U2,1,SDA*%
%TO.N,/SDA*%
X64574149Y-38961565D03*
%TO.P,U2,2,SCL*%
%TO.N,/SCL*%
X64824150Y-39394579D03*
%TO.P,U2,3,ALERT*%
%TO.N,GND*%
X65074150Y-39827591D03*
%TO.P,U2,4,GND*%
X65324150Y-40260605D03*
%TO.P,U2,5,A2*%
X67743825Y-38863605D03*
%TO.P,U2,6,A1*%
%TO.N,/VDD*%
X67493824Y-38430591D03*
%TO.P,U2,7,A0*%
%TO.N,GND*%
X67243824Y-37997579D03*
%TO.P,U2,8,VDD*%
%TO.N,/VDD*%
X66993824Y-37564565D03*
D22*
%TO.P,U2,9,EPAD*%
%TO.N,GND*%
X66158987Y-38912585D03*
%TD*%
D23*
%TO.P,U5,1,SDA*%
%TO.N,/SDA*%
X95595638Y-54125003D03*
%TO.P,U5,2,SCL*%
%TO.N,/SCL*%
X95095637Y-54125003D03*
%TO.P,U5,3,ALERT*%
%TO.N,GND*%
X94595637Y-54125003D03*
%TO.P,U5,4,GND*%
X94095636Y-54125003D03*
%TO.P,U5,5,A2*%
%TO.N,/VDD*%
X94095636Y-56919003D03*
%TO.P,U5,6,A1*%
%TO.N,GND*%
X94595637Y-56919003D03*
%TO.P,U5,7,A0*%
%TO.N,/VDD*%
X95095637Y-56919003D03*
%TO.P,U5,8,VDD*%
X95595638Y-56919003D03*
D24*
%TO.P,U5,9,EPAD*%
%TO.N,GND*%
X94845637Y-55522003D03*
%TD*%
D25*
%TO.P,U1,1,IN*%
%TO.N,/Power 3.3-5V*%
X59596844Y-43005281D03*
%TO.P,U1,2,GND*%
%TO.N,GND*%
X58818649Y-42460382D03*
%TO.P,U1,3,EN*%
%TO.N,/Power 3.3-5V*%
X58040454Y-41915484D03*
%TO.P,U1,4,NC*%
%TO.N,GND*%
X56720674Y-43800325D03*
%TO.P,U1,5,OUT*%
%TO.N,/VDD*%
X58277064Y-44890122D03*
%TD*%
D26*
%TO.P,R3,1*%
%TO.N,/Power 3.3-5V*%
X61394067Y-37462664D03*
%TO.P,R3,2*%
%TO.N,/SDA*%
X62440843Y-38957616D03*
%TD*%
D27*
%TO.P,R2,1*%
%TO.N,/Power 3.3-5V*%
X83526182Y-33823138D03*
%TO.P,R2,2*%
%TO.N,/SCL*%
X83526182Y-35648138D03*
%TD*%
D28*
%TO.P,C4,1*%
%TO.N,/VDD*%
X90098361Y-40941477D03*
%TO.P,C4,2*%
%TO.N,GND*%
X89008565Y-42497865D03*
%TD*%
D23*
%TO.P,U3,1,SDA*%
%TO.N,/SDA*%
X55868635Y-56872221D03*
%TO.P,U3,2,SCL*%
%TO.N,/SCL*%
X56368636Y-56872221D03*
%TO.P,U3,3,ALERT*%
%TO.N,GND*%
X56868636Y-56872221D03*
%TO.P,U3,4,GND*%
X57368637Y-56872221D03*
%TO.P,U3,5,A2*%
X57368637Y-54078221D03*
%TO.P,U3,6,A1*%
X56868636Y-54078221D03*
%TO.P,U3,7,A0*%
%TO.N,/VDD*%
X56368636Y-54078221D03*
%TO.P,U3,8,VDD*%
X55868635Y-54078221D03*
D24*
%TO.P,U3,9,EPAD*%
%TO.N,GND*%
X56618636Y-55475221D03*
%TD*%
D29*
%TO.P,U4,1,SDA*%
%TO.N,/SDA*%
X86971365Y-71786303D03*
%TO.P,U4,2,SCL*%
%TO.N,/SCL*%
X86684577Y-71376726D03*
%TO.P,U4,3,ALERT*%
%TO.N,GND*%
X86397788Y-70967150D03*
%TO.P,U4,4,GND*%
X86111000Y-70557573D03*
%TO.P,U4,5,A2*%
X83822289Y-72160145D03*
%TO.P,U4,6,A1*%
X84109077Y-72569722D03*
%TO.P,U4,7,A0*%
X84395866Y-72979298D03*
%TO.P,U4,8,VDD*%
%TO.N,/VDD*%
X84682654Y-73388875D03*
D30*
%TO.P,U4,9,EPAD*%
%TO.N,GND*%
X85396827Y-71973224D03*
%TD*%
D31*
%TO.P,J1,1,Pin_1*%
%TO.N,GND*%
X71936524Y-36217686D03*
D32*
%TO.P,J1,2,Pin_2*%
%TO.N,/Power 3.3-5V*%
X74436524Y-36217686D03*
%TO.P,J1,3,Pin_3*%
%TO.N,/SDA*%
X76936524Y-36217686D03*
%TO.P,J1,4,Pin_4*%
%TO.N,/SCL*%
X79436524Y-36217686D03*
%TD*%
D33*
%TO.N,GND*%
X75131838Y-79249688D03*
X67017822Y-40372657D03*
X53981845Y-52189686D03*
X72431839Y-77809681D03*
X63847288Y-38239990D03*
X64215069Y-40915827D03*
X83351201Y-71463329D03*
X82808342Y-72759770D03*
X68586657Y-71469125D03*
X78726189Y-37995637D03*
X87321066Y-70011054D03*
X65805073Y-41135830D03*
X82699863Y-37903929D03*
X92999378Y-64683870D03*
X84358609Y-40299605D03*
X97241838Y-62569684D03*
X92229374Y-64553875D03*
X65259253Y-73359601D03*
X59035062Y-51155833D03*
X67998935Y-37346027D03*
X92737288Y-38679989D03*
X71106521Y-38887685D03*
X63277288Y-66789987D03*
X92191837Y-69869686D03*
X86290852Y-73238201D03*
X54900924Y-55498079D03*
X58451833Y-63669684D03*
X86271564Y-37563440D03*
X92963395Y-54087647D03*
X83195192Y-39527235D03*
X87662090Y-40236621D03*
X57375066Y-52805833D03*
X85671842Y-34539689D03*
X94389386Y-57983878D03*
X60854431Y-39882845D03*
X94182075Y-58702061D03*
X88841838Y-37869687D03*
X57675074Y-49565825D03*
X86891547Y-69053441D03*
X80041555Y-74163437D03*
X63737288Y-37359989D03*
X61507288Y-46359992D03*
X84457510Y-70663728D03*
X78901836Y-32189683D03*
X92998932Y-55581246D03*
X63778765Y-70598816D03*
X81567288Y-39479991D03*
X90317288Y-63649991D03*
X70286525Y-36237685D03*
X60138507Y-39405946D03*
X62093005Y-68643516D03*
X95991836Y-44769688D03*
X58405060Y-54085834D03*
X58313841Y-55470703D03*
X96781948Y-55263050D03*
X55429376Y-59433879D03*
X67134074Y-70654779D03*
X56741842Y-69079684D03*
X74651835Y-75049684D03*
X55532120Y-44931461D03*
X94251560Y-61013441D03*
X93311787Y-49881376D03*
X90468892Y-43516708D03*
X87665216Y-41622209D03*
X98341841Y-53219684D03*
X68818918Y-73126347D03*
X74216525Y-38537689D03*
X52891841Y-50579688D03*
X94247316Y-52777046D03*
X68225067Y-39695827D03*
X57125877Y-58134117D03*
X99796524Y-55557685D03*
X58289364Y-56873863D03*
X64357982Y-70046363D03*
X55672457Y-46700990D03*
X68925069Y-38335827D03*
X71986527Y-34447685D03*
X65505072Y-37738615D03*
X60911839Y-71739685D03*
X74991837Y-32249678D03*
D34*
%TO.N,/SDA*%
X99036623Y-50602701D03*
X88622629Y-71176689D03*
X90386737Y-73624173D03*
X52808631Y-56444692D03*
X69572624Y-74986686D03*
X95226624Y-51110685D03*
D33*
X54840622Y-58476690D03*
X68048625Y-77272693D03*
%TO.N,/VDD*%
X59967077Y-46659410D03*
X60901060Y-45410521D03*
X58847954Y-46914509D03*
%TD*%
D35*
%TO.N,/SCL*%
X64824146Y-39394593D02*
X64815122Y-39428302D01*
X64815122Y-39428302D02*
X64199421Y-39783783D01*
X60261575Y-45407612D02*
X60720327Y-48009322D01*
X60550399Y-48252002D02*
X60174621Y-49078691D01*
X64199421Y-39783783D02*
X60261575Y-45407612D01*
X58904623Y-54666693D02*
X58904625Y-57968699D01*
X60720327Y-48009322D02*
X60550399Y-48252002D01*
X60174621Y-49078691D02*
X59666628Y-50602687D01*
X59666628Y-50602687D02*
X59158632Y-52888696D01*
X59158632Y-52888696D02*
X58904623Y-54666693D01*
%TO.N,/SDA*%
X63180226Y-39728711D02*
X62579665Y-40586399D01*
X62579665Y-40586399D02*
X62704875Y-41296503D01*
X59442951Y-47035951D02*
X59008328Y-47656655D01*
X62704875Y-41296503D02*
X59290696Y-46172459D01*
X59290696Y-46172459D02*
X59442951Y-47035951D01*
X52808625Y-54158697D02*
X52808631Y-56444692D01*
X59008328Y-47656655D02*
X56004718Y-48186270D01*
X53062637Y-52380697D02*
X52808625Y-54158697D01*
X56004718Y-48186270D02*
X53068473Y-52379655D01*
X53068473Y-52379655D02*
X53062637Y-52380697D01*
D36*
%TO.N,/VDD*%
X59967077Y-46659410D02*
X60044834Y-47100398D01*
X60044834Y-47100398D02*
X59292481Y-48174872D01*
X59292481Y-48174872D02*
X57778106Y-48441896D01*
X57778106Y-48441896D02*
X55668629Y-50551382D01*
X55668629Y-50551382D02*
X55668632Y-51872678D01*
D35*
%TO.N,/SDA*%
X90386737Y-73624173D02*
X90356097Y-73797930D01*
X90356097Y-73797930D02*
X86844627Y-76256700D01*
X69318641Y-77780692D02*
X68048625Y-77272693D01*
X86844627Y-76256700D02*
X82526628Y-78034704D01*
X72493921Y-78669989D02*
X72366621Y-78542695D01*
X82526628Y-78034704D02*
X81256624Y-78288698D01*
X81256624Y-78288698D02*
X78462629Y-78796695D01*
X78462629Y-78796695D02*
X78335921Y-78669993D01*
X78335921Y-78669993D02*
X72493921Y-78669989D01*
X72366621Y-78542695D02*
X70842636Y-78288689D01*
X70842636Y-78288689D02*
X69318641Y-77780692D01*
%TO.N,GND*%
X94595637Y-56919003D02*
X94582849Y-56585339D01*
D36*
%TO.N,/Power 3.3-5V*%
X57820037Y-40665402D02*
X59710719Y-37965230D01*
X74436522Y-34887684D02*
X72625541Y-33076698D01*
X61833801Y-41283503D02*
X61444314Y-41839743D01*
X72625541Y-33076698D02*
X70334634Y-33076697D01*
X61609841Y-36657415D02*
X61087085Y-37404001D01*
X58040459Y-41915485D02*
X57820037Y-40665402D01*
X70334634Y-33076697D02*
X70080621Y-33330688D01*
X68446128Y-33330698D02*
X68067410Y-33549328D01*
X74436523Y-36217688D02*
X74436527Y-35037686D01*
X67333712Y-33352745D02*
X61609841Y-36657415D01*
X61444325Y-41839742D02*
X59596854Y-43005268D01*
X74436527Y-35037686D02*
X76445349Y-33028857D01*
X61087085Y-37404001D02*
X61468563Y-39567529D01*
X70080621Y-33330688D02*
X68446128Y-33330698D01*
X59979922Y-37712013D02*
X61394073Y-37462666D01*
X76445349Y-33028857D02*
X82731891Y-33028855D01*
X59710719Y-37965230D02*
X59979922Y-37712013D01*
X74436523Y-36217688D02*
X74436522Y-34887684D01*
X61540049Y-39617570D02*
X61833801Y-41283503D01*
X61468563Y-39567529D02*
X61540049Y-39617570D01*
X82731891Y-33028855D02*
X83526181Y-33823122D01*
X68067410Y-33549328D02*
X67333712Y-33352745D01*
D35*
%TO.N,/SDA*%
X69572624Y-74986686D02*
X66934009Y-73350073D01*
X89638626Y-36378692D02*
X88170386Y-35350639D01*
X92659256Y-72093980D02*
X92686632Y-71938705D01*
X98020635Y-47046685D02*
X95988623Y-42728693D01*
X95988623Y-42728693D02*
X89638626Y-36378692D01*
X90386737Y-73624173D02*
X90456367Y-73636450D01*
X75426529Y-37727687D02*
X76887813Y-36266390D01*
X92686632Y-71938705D02*
X94972646Y-69398701D01*
X94972646Y-69398701D02*
X96750624Y-66604681D01*
X98782628Y-61778699D02*
X99290631Y-59492701D01*
X53316612Y-59746691D02*
X53824625Y-61778689D01*
X85894798Y-35751883D02*
X84671334Y-37499166D01*
X69399427Y-36630585D02*
X70496521Y-37727685D01*
X59666631Y-71684695D02*
X62714628Y-74224704D01*
X54840615Y-64572692D02*
X55856627Y-66604686D01*
X88622629Y-71176689D02*
X86971370Y-71786306D01*
X57888622Y-69652688D02*
X59666631Y-71684695D01*
X62440856Y-38957619D02*
X63150055Y-36310898D01*
X96750624Y-66604681D02*
X97766622Y-64572694D01*
X63180226Y-39728711D02*
X63200726Y-39734191D01*
X63180226Y-39728711D02*
X62832206Y-39635452D01*
X63200726Y-39734191D02*
X63895761Y-39332901D01*
X84671334Y-37499166D02*
X84530242Y-37593612D01*
X54840622Y-58476690D02*
X55304195Y-58476695D01*
X63150055Y-36310898D02*
X66642059Y-34294776D01*
X68281288Y-34734012D02*
X69376289Y-36630588D01*
X69376289Y-36630588D02*
X69399427Y-36630585D01*
X55856627Y-66604686D02*
X57888622Y-69652688D01*
X97766622Y-64572694D02*
X98782628Y-61778699D01*
X53062632Y-58476689D02*
X53316612Y-59746691D01*
X52808631Y-56444692D02*
X53062632Y-58476689D01*
X99296531Y-59486801D02*
X99296523Y-52032167D01*
X90456367Y-73636450D02*
X92659256Y-72093980D01*
X55304195Y-58476695D02*
X55868634Y-57912268D01*
X95226624Y-51110685D02*
X95595634Y-54125017D01*
X99296523Y-52032167D02*
X99036623Y-50602701D01*
X62832206Y-39635452D02*
X62440856Y-38957619D01*
X62714628Y-74224704D02*
X66270630Y-76510691D01*
X99290631Y-59492701D02*
X99296531Y-59486801D01*
X66642059Y-34294776D02*
X68281288Y-34734012D01*
X66270630Y-76510691D02*
X68048625Y-77272693D01*
X55868634Y-57912268D02*
X55868625Y-56872219D01*
X70496521Y-37727685D02*
X75426529Y-37727687D01*
X88170386Y-35350639D02*
X85894798Y-35751883D01*
X54332608Y-63302688D02*
X54840615Y-64572692D01*
X99036623Y-50602701D02*
X98020635Y-47046685D01*
D37*
X64574157Y-38961569D02*
X63986805Y-39300677D01*
D35*
X53824625Y-61778689D02*
X54332608Y-63302688D01*
%TO.N,/SCL*%
X83559822Y-35838908D02*
X82811406Y-36907747D01*
X70052065Y-72760005D02*
X69514385Y-73527877D01*
X59158620Y-59746700D02*
X58904625Y-57968699D01*
X91670625Y-61524703D02*
X90908626Y-63810696D01*
X83526171Y-35648123D02*
X83559822Y-35838908D01*
X86830363Y-68380180D02*
X82041342Y-71733493D01*
X91670625Y-49840691D02*
X92136286Y-52634700D01*
X80056520Y-35597686D02*
X83475734Y-35597687D01*
X62922597Y-67539587D02*
X60534945Y-64129668D01*
X60534945Y-64129668D02*
X59920623Y-62286687D01*
X82705699Y-37041271D02*
X82086594Y-37925461D01*
X69826616Y-71481499D02*
X69774414Y-71495486D01*
X82041342Y-71733493D02*
X81764615Y-71684702D01*
X82836714Y-37018176D02*
X82705699Y-37041271D01*
X79732627Y-72192692D02*
X76430624Y-72700695D01*
X83475734Y-35597687D02*
X83526171Y-35648123D01*
X86842697Y-42717853D02*
X86844606Y-42728699D01*
X81764615Y-71684702D02*
X79732627Y-72192692D01*
X82086594Y-37925461D02*
X82380723Y-39593551D01*
X79436523Y-36217682D02*
X80056520Y-35597686D01*
X73636610Y-72446701D02*
X70334629Y-71684686D01*
X94533033Y-52212086D02*
X94546425Y-52192976D01*
X89892612Y-65334696D02*
X87258259Y-67969055D01*
X90908626Y-63810696D02*
X89892612Y-65334696D01*
X88586013Y-69010979D02*
X88377917Y-70191010D01*
X94784321Y-52359564D02*
X95095621Y-54125010D01*
X92432624Y-54412695D02*
X92426169Y-54419153D01*
X88377917Y-70191010D02*
X86684584Y-71376726D01*
X69826616Y-71481499D02*
X70052065Y-72760005D01*
X59920623Y-62286687D02*
X59158620Y-59746700D01*
X86844606Y-42728699D02*
X88114623Y-43998695D01*
X76430624Y-72700695D02*
X73636610Y-72446701D01*
X92136286Y-52634700D02*
X92432624Y-54412695D01*
X83352347Y-37379213D02*
X82836714Y-37018176D01*
X88114623Y-43998695D02*
X89638627Y-46030706D01*
X94546425Y-52192976D02*
X94784321Y-52359564D01*
X57899188Y-58974124D02*
X56815879Y-58974125D01*
X70334629Y-71684686D02*
X69826616Y-71481499D01*
X82811406Y-36907747D02*
X82830043Y-37013522D01*
X86844619Y-68382696D02*
X86830363Y-68380180D01*
X92178625Y-59238693D02*
X91670625Y-61524703D01*
X69514385Y-73527877D02*
X68352279Y-73732770D01*
X87940693Y-68089383D02*
X87258259Y-67969055D01*
X92323771Y-58222690D02*
X92178625Y-59238693D01*
X92432613Y-57460680D02*
X92323771Y-58222690D01*
X82830043Y-37013522D02*
X83352347Y-37379213D01*
X58904625Y-57968699D02*
X57899188Y-58974124D01*
X69774414Y-71495486D02*
X62922597Y-67539587D01*
X92426170Y-57454242D02*
X92432613Y-57460680D01*
X89638627Y-46030706D02*
X90654616Y-47808684D01*
X68352279Y-73732770D02*
X67220771Y-72940496D01*
X83352347Y-37379213D02*
X84243457Y-38003195D01*
X87258259Y-67969055D02*
X86844619Y-68382696D01*
X90654616Y-47808684D02*
X91670625Y-49840691D01*
X92426169Y-54419153D02*
X92426170Y-57454242D01*
X92136286Y-52634700D02*
X94533033Y-52212086D01*
X56815879Y-58974125D02*
X56368617Y-58526870D01*
X87983755Y-68150867D02*
X88586013Y-69010979D01*
X56368617Y-58526870D02*
X56368625Y-56872227D01*
X82380723Y-39593551D02*
X86842697Y-42717853D01*
X87983755Y-68150867D02*
X87940693Y-68089383D01*
D36*
%TO.N,/VDD*%
X67253261Y-36596372D02*
X66993827Y-37564577D01*
X95664403Y-61236284D02*
X95664399Y-57968703D01*
X54240264Y-53301057D02*
X55046548Y-52494790D01*
X55348634Y-63048693D02*
X54840626Y-61778706D01*
X62170348Y-71720987D02*
X61444626Y-71176698D01*
X60174635Y-70160694D02*
X60181272Y-70198294D01*
X55856621Y-53142686D02*
X56364622Y-53142702D01*
X87886698Y-39654614D02*
X89130627Y-40188693D01*
X54240264Y-53301057D02*
X55668617Y-51872688D01*
X60714235Y-68642504D02*
X61167366Y-67995375D01*
X58290295Y-47012847D02*
X57693849Y-46595209D01*
X65407582Y-69962510D02*
X65505659Y-70518761D01*
X88114629Y-72954698D02*
X85574642Y-74478696D01*
X56364622Y-53142702D02*
X56368631Y-54078221D01*
X92178631Y-42728691D02*
X94223923Y-44773982D01*
X55856621Y-53142686D02*
X55868628Y-54078213D01*
X63741570Y-71187642D02*
X63406128Y-71246790D01*
X62310382Y-67793827D02*
X65407582Y-69962510D01*
X61167366Y-67995375D02*
X62310382Y-67793827D01*
X83288619Y-75748683D02*
X81510631Y-76764675D01*
X93261280Y-58193145D02*
X93261281Y-61413172D01*
X95095606Y-58537483D02*
X95754380Y-59196221D01*
X61444626Y-71176698D02*
X60504843Y-70424854D01*
X96433917Y-50527270D02*
X97687047Y-51780396D01*
X54240268Y-53489055D02*
X54240264Y-53301057D01*
X85574642Y-74478696D02*
X84594914Y-75022985D01*
X93292091Y-58162361D02*
X93261280Y-58193145D01*
X60901060Y-45410521D02*
X61692098Y-44953817D01*
X69502006Y-39694028D02*
X69872194Y-38312502D01*
X81510631Y-76764675D02*
X79986625Y-77018696D01*
X58847954Y-46914509D02*
X58583378Y-46843632D01*
X89175106Y-40330542D02*
X88958519Y-40639860D01*
X96277802Y-61849691D02*
X95664403Y-61236284D01*
X94223923Y-44773982D02*
X94223923Y-46727264D01*
X61692098Y-44953817D02*
X61930082Y-44065687D01*
X59898429Y-68779176D02*
X59906626Y-68784908D01*
X82800728Y-74706615D02*
X84682653Y-73388874D01*
X69572620Y-76256701D02*
X65254632Y-74224685D01*
X95754380Y-59196221D02*
X95754370Y-59733871D01*
X68135651Y-36086923D02*
X67401302Y-36510899D01*
X97687046Y-58302246D02*
X97004613Y-58984677D01*
X89892613Y-71430691D02*
X88114629Y-72954698D01*
X95095606Y-58537483D02*
X95095636Y-56919008D01*
X60174635Y-70160694D02*
X58904637Y-68636694D01*
X86536966Y-40829910D02*
X85958597Y-40424908D01*
X61897911Y-70179224D02*
X59898429Y-68779176D01*
X93448625Y-66350699D02*
X91670624Y-68382693D01*
X56872618Y-65842702D02*
X55348634Y-63048693D01*
X87407943Y-40913275D02*
X87098627Y-40696689D01*
X60181272Y-70198294D02*
X60504843Y-70424854D01*
X77446629Y-77272691D02*
X72874644Y-77018697D01*
X67401302Y-36510899D02*
X67253261Y-36596372D01*
X88958519Y-40639860D02*
X87407943Y-40913275D01*
X94205689Y-62357578D02*
X96005695Y-62357578D01*
X95480626Y-63302694D02*
X93448625Y-66350699D01*
X95664399Y-57968703D02*
X95595622Y-56919006D01*
X62487982Y-70592391D02*
X61897911Y-70179224D01*
X89130627Y-40188693D02*
X90400611Y-41204683D01*
X87071326Y-40735666D02*
X86536966Y-40829910D01*
X96750625Y-61016689D02*
X95480626Y-63302694D01*
X63476628Y-72700687D02*
X62896052Y-72265264D01*
X55208708Y-52494781D02*
X55856621Y-53142686D01*
X69190381Y-37131583D02*
X69089098Y-37509559D01*
X61930082Y-44065687D02*
X69502006Y-39694028D01*
X83288619Y-75748683D02*
X82493628Y-75047426D01*
X69089098Y-37509559D02*
X67565711Y-38389096D01*
X90400611Y-41204683D02*
X92178631Y-42728691D01*
X54840626Y-61778706D02*
X54078631Y-58222674D01*
X64645298Y-71747492D02*
X63741570Y-71187642D01*
X87098627Y-40696689D02*
X86245381Y-40015336D01*
X79986625Y-77018696D02*
X77446629Y-77272691D01*
X54078631Y-58222674D02*
X53824628Y-53904692D01*
X72874644Y-77018697D02*
X69572620Y-76256701D01*
X59906626Y-68784908D02*
X60714235Y-68642504D01*
X67401302Y-36510899D02*
X66896616Y-36375673D01*
X62896052Y-72265264D02*
X62170348Y-71720987D01*
X63406128Y-71246790D02*
X62490289Y-70605507D01*
X97687047Y-51780396D02*
X97687046Y-58302246D01*
X55046548Y-52494790D02*
X55208708Y-52494781D01*
X53824628Y-53904692D02*
X54240268Y-53489055D01*
X69872194Y-38312502D02*
X68669913Y-36230080D01*
X86818960Y-39196169D02*
X87886698Y-39654614D01*
X94095622Y-56919011D02*
X93292078Y-57722563D01*
X59898429Y-68779176D02*
X59108937Y-68918383D01*
X94223923Y-46727264D02*
X96433917Y-48937274D01*
X91670624Y-68382693D02*
X90908618Y-69398692D01*
X93292078Y-57722563D02*
X93292091Y-58162361D01*
X87098627Y-40696689D02*
X87071326Y-40735666D01*
X60504843Y-70424854D02*
X60174635Y-70160694D01*
X90908618Y-69398692D02*
X89892613Y-71430691D01*
X62490289Y-70605507D02*
X62487982Y-70592391D01*
X66896616Y-36375673D02*
X66531909Y-35744005D01*
X93261281Y-61413172D02*
X94205689Y-62357578D01*
X58904637Y-68636694D02*
X56872618Y-65842702D01*
X58583378Y-46843632D02*
X58290295Y-47012847D01*
X57693854Y-46595195D02*
X58277061Y-44890111D01*
X68669913Y-36230080D02*
X68135651Y-36086923D01*
X97004613Y-58984677D02*
X96750625Y-61016689D01*
X84594914Y-75022985D02*
X83288619Y-75748683D01*
X65254632Y-74224685D02*
X63476628Y-72700687D01*
X96433917Y-48937274D02*
X96433917Y-50527270D01*
%TD*%
%TA.AperFunction,Conductor*%
%TO.N,/Power 3.3-5V*%
G36*
X58672531Y-38993688D02*
G01*
X58717494Y-39024537D01*
X59723200Y-39714553D01*
X59767343Y-39768712D01*
X59775198Y-39838139D01*
X59753858Y-39889004D01*
X57753768Y-42681539D01*
X57698729Y-42724579D01*
X57629158Y-42731031D01*
X57581545Y-42710707D01*
X56562268Y-41992657D01*
X56518799Y-41937956D01*
X56511804Y-41868438D01*
X56532300Y-41819886D01*
X58501002Y-39024534D01*
X58555696Y-38981061D01*
X58625214Y-38974057D01*
X58672531Y-38993688D01*
G37*
%TD.AperFunction*%
%TD*%
%TA.AperFunction,Conductor*%
%TO.N,/VDD*%
G36*
X58692579Y-43876322D02*
G01*
X59255373Y-44270395D01*
X59822971Y-44663037D01*
X59866906Y-44717365D01*
X59874495Y-44786821D01*
X59853904Y-44836278D01*
X58988794Y-46068188D01*
X57964268Y-47614209D01*
X57910826Y-47659218D01*
X57841535Y-47668189D01*
X57789781Y-47647286D01*
X57333594Y-47327861D01*
X56662537Y-46857981D01*
X56618913Y-46803406D01*
X56611719Y-46733908D01*
X56631093Y-46686725D01*
X58518893Y-43908210D01*
X58572848Y-43863823D01*
X58642238Y-43855652D01*
X58692579Y-43876322D01*
G37*
%TD.AperFunction*%
%TD*%
%TA.AperFunction,Conductor*%
%TO.N,/Power 3.3-5V*%
G36*
X61461696Y-40599091D02*
G01*
X62353385Y-41275896D01*
X62394883Y-41332107D01*
X62399404Y-41401830D01*
X62379991Y-41445790D01*
X61431653Y-42800159D01*
X61429599Y-42803006D01*
X60248362Y-44392260D01*
X60192572Y-44434323D01*
X60122898Y-44439546D01*
X60080813Y-44421964D01*
X59342151Y-43937276D01*
X59339054Y-43935176D01*
X58901036Y-43628465D01*
X58857412Y-43573888D01*
X58850220Y-43504389D01*
X58870466Y-43455939D01*
X59984687Y-41859036D01*
X60039189Y-41815324D01*
X60108675Y-41808015D01*
X60159072Y-41829538D01*
X60312849Y-41940818D01*
X60312850Y-41940819D01*
X61287046Y-40624108D01*
X61342742Y-40581925D01*
X61412405Y-40576550D01*
X61461696Y-40599091D01*
G37*
%TD.AperFunction*%
%TD*%
%TA.AperFunction,Conductor*%
%TO.N,GND*%
G36*
X60772846Y-40331671D02*
G01*
X57347080Y-45312746D01*
X55861479Y-44334539D01*
X56910437Y-42836491D01*
X57605378Y-43261059D01*
X56789525Y-44426214D01*
X57026723Y-44530294D01*
X60065422Y-39836321D01*
X60772846Y-40331671D01*
G37*
%TD.AperFunction*%
%TD*%
%TA.AperFunction,Conductor*%
%TO.N,GND*%
G36*
X60699722Y-37900064D02*
G01*
X60753389Y-37943311D01*
X60907977Y-38164084D01*
X60907979Y-38164086D01*
X60907986Y-38164096D01*
X60910794Y-38167546D01*
X60936738Y-38224288D01*
X61171153Y-39553762D01*
X61172956Y-39570810D01*
X61173222Y-39578181D01*
X61183012Y-39621786D01*
X61184137Y-39627406D01*
X61187148Y-39644475D01*
X61188580Y-39649714D01*
X61191415Y-39659211D01*
X61197015Y-39684154D01*
X61200459Y-39689292D01*
X61213533Y-39714719D01*
X61215709Y-39720512D01*
X61215711Y-39720516D01*
X61232739Y-39739585D01*
X61243248Y-39753135D01*
X61249563Y-39762557D01*
X61263586Y-39783478D01*
X61282698Y-39830984D01*
X61374858Y-40353647D01*
X61367114Y-40423086D01*
X61323058Y-40477315D01*
X61296729Y-40491115D01*
X61279048Y-40497823D01*
X61279046Y-40497824D01*
X61223344Y-40540011D01*
X61202243Y-40561349D01*
X61202228Y-40561367D01*
X60361081Y-41698248D01*
X60305384Y-41740433D01*
X60235721Y-41745808D01*
X60203765Y-41733715D01*
X60203602Y-41734047D01*
X60200491Y-41732508D01*
X60150109Y-41710992D01*
X60150107Y-41710991D01*
X60097642Y-41703094D01*
X60097640Y-41703094D01*
X60097639Y-41703094D01*
X60028153Y-41710403D01*
X59973183Y-41733023D01*
X59918681Y-41776735D01*
X59918673Y-41776743D01*
X59898169Y-41798663D01*
X59898166Y-41798666D01*
X59898166Y-41798667D01*
X59788636Y-41955646D01*
X58783948Y-43395564D01*
X58773121Y-43415266D01*
X58773120Y-43415268D01*
X58752878Y-43463707D01*
X58752876Y-43463714D01*
X58749213Y-43488561D01*
X58740037Y-43520415D01*
X58728369Y-43546929D01*
X58728368Y-43546936D01*
X58727495Y-43586902D01*
X58729617Y-43598934D01*
X58727478Y-43599310D01*
X58732068Y-43652967D01*
X58699440Y-43714751D01*
X58638589Y-43749086D01*
X58625049Y-43751447D01*
X58560509Y-43759046D01*
X58560508Y-43759047D01*
X58505824Y-43782348D01*
X58505822Y-43782350D01*
X58451870Y-43826734D01*
X58431624Y-43848926D01*
X58431623Y-43848927D01*
X56543827Y-46627437D01*
X56533498Y-46646654D01*
X56514124Y-46693838D01*
X56506779Y-46744768D01*
X56513973Y-46814265D01*
X56513973Y-46814267D01*
X56513974Y-46814269D01*
X56536505Y-46869278D01*
X56560003Y-46898674D01*
X56580130Y-46923854D01*
X56587427Y-46930702D01*
X56602025Y-46944402D01*
X56602030Y-46944406D01*
X56602032Y-46944407D01*
X56800172Y-47083146D01*
X57428911Y-47523394D01*
X57444337Y-47534195D01*
X57487962Y-47588772D01*
X57495156Y-47658270D01*
X57463633Y-47720625D01*
X57403403Y-47756039D01*
X57394746Y-47757886D01*
X56000624Y-48003706D01*
X55978263Y-48005587D01*
X55961443Y-48005474D01*
X55961439Y-48005475D01*
X55930078Y-48021667D01*
X55923328Y-48024898D01*
X55891051Y-48039166D01*
X55889603Y-48040285D01*
X55888006Y-48041302D01*
X55885068Y-48043717D01*
X55883767Y-48045081D01*
X55882380Y-48046293D01*
X55862134Y-48075206D01*
X55857659Y-48081203D01*
X55835709Y-48108837D01*
X55834953Y-48110487D01*
X55823803Y-48129948D01*
X52962841Y-52215819D01*
X52957341Y-52221605D01*
X52957952Y-52222089D01*
X52956809Y-52223532D01*
X52943613Y-52237186D01*
X52920179Y-52269651D01*
X52916900Y-52273990D01*
X52893064Y-52304131D01*
X52892786Y-52304822D01*
X52890630Y-52309844D01*
X52890332Y-52310496D01*
X52884897Y-52348539D01*
X52884010Y-52353903D01*
X52876608Y-52393285D01*
X52875790Y-52412291D01*
X52637362Y-54081207D01*
X52631444Y-54099520D01*
X52631728Y-54099590D01*
X52628125Y-54114209D01*
X52628125Y-54137060D01*
X52626880Y-54154581D01*
X52626840Y-54154866D01*
X52626840Y-54154867D01*
X52627509Y-54161552D01*
X52628125Y-54173896D01*
X52628128Y-55898038D01*
X52608444Y-55965077D01*
X52571168Y-56002353D01*
X52477505Y-56062547D01*
X52477503Y-56062548D01*
X52477503Y-56062549D01*
X52471695Y-56069252D01*
X52383254Y-56171318D01*
X52383253Y-56171320D01*
X52323465Y-56302235D01*
X52302984Y-56444692D01*
X52323465Y-56587148D01*
X52367836Y-56684305D01*
X52383254Y-56718065D01*
X52477503Y-56826835D01*
X52598578Y-56904645D01*
X52609462Y-56907840D01*
X52668240Y-56945614D01*
X52697266Y-57009169D01*
X52697570Y-57011438D01*
X52876340Y-58441601D01*
X52877177Y-58462465D01*
X52876911Y-58468459D01*
X52883454Y-58501178D01*
X52884902Y-58510100D01*
X52886243Y-58520824D01*
X52888064Y-58528099D01*
X52888017Y-58528110D01*
X52890683Y-58537323D01*
X53128310Y-59725551D01*
X53130361Y-59745911D01*
X53139746Y-59783454D01*
X53141039Y-59789203D01*
X53143914Y-59803580D01*
X53146082Y-59810160D01*
X53148602Y-59818874D01*
X53635429Y-61766131D01*
X53638734Y-61786282D01*
X53639318Y-61793556D01*
X53639319Y-61793559D01*
X53639319Y-61793560D01*
X53649693Y-61824686D01*
X53652349Y-61833808D01*
X53654829Y-61843730D01*
X53657324Y-61850241D01*
X53661346Y-61859644D01*
X54143147Y-63305095D01*
X54148315Y-63327132D01*
X54148494Y-63328417D01*
X54161695Y-63361418D01*
X54164201Y-63368258D01*
X54168301Y-63380559D01*
X54171514Y-63387338D01*
X54171217Y-63387478D01*
X54175387Y-63395649D01*
X54651334Y-64585504D01*
X54657158Y-64604247D01*
X54659274Y-64613622D01*
X54673507Y-64642087D01*
X54677724Y-64651477D01*
X54681165Y-64660078D01*
X54681167Y-64660081D01*
X54683243Y-64663870D01*
X54689983Y-64675040D01*
X55670476Y-66635997D01*
X55675726Y-66653966D01*
X55676654Y-66653632D01*
X55681763Y-66667790D01*
X55681764Y-66667792D01*
X55695926Y-66689035D01*
X55703656Y-66702356D01*
X55704984Y-66705011D01*
X55707604Y-66708088D01*
X55716359Y-66719686D01*
X57708356Y-69707691D01*
X57715927Y-69725025D01*
X57716571Y-69724693D01*
X57723485Y-69738065D01*
X57723486Y-69738067D01*
X57739652Y-69756543D01*
X57749503Y-69769410D01*
X57750595Y-69771049D01*
X57754306Y-69774445D01*
X57763905Y-69784261D01*
X59184301Y-71407567D01*
X59457137Y-71719380D01*
X59497805Y-71765857D01*
X59510038Y-71785551D01*
X59516901Y-71794878D01*
X59532653Y-71808005D01*
X59542362Y-71817483D01*
X59545219Y-71820045D01*
X59545223Y-71820049D01*
X59546433Y-71820895D01*
X59552652Y-71825245D01*
X59560966Y-71831599D01*
X60900774Y-72948110D01*
X62556517Y-74327902D01*
X62568505Y-74342249D01*
X62569251Y-74341544D01*
X62579598Y-74352479D01*
X62601200Y-74366366D01*
X62613530Y-74375414D01*
X62615912Y-74377399D01*
X62619406Y-74379100D01*
X62632180Y-74386282D01*
X66089484Y-76608820D01*
X66132097Y-76636214D01*
X66152338Y-76654319D01*
X66158631Y-76659069D01*
X66158634Y-76659070D01*
X66158635Y-76659071D01*
X66176178Y-76666589D01*
X66184706Y-76671118D01*
X66184710Y-76671111D01*
X66191462Y-76674377D01*
X66201354Y-76677761D01*
X66210064Y-76681111D01*
X67584054Y-77269968D01*
X67637918Y-77314468D01*
X67657680Y-77364544D01*
X67662977Y-77397993D01*
X67662977Y-77397994D01*
X67675854Y-77423266D01*
X67720575Y-77511035D01*
X67720577Y-77511037D01*
X67720579Y-77511040D01*
X67810277Y-77600738D01*
X67810279Y-77600739D01*
X67810283Y-77600743D01*
X67923321Y-77658339D01*
X67923322Y-77658339D01*
X67923324Y-77658340D01*
X68048622Y-77678185D01*
X68048625Y-77678185D01*
X68048628Y-77678185D01*
X68173925Y-77658340D01*
X68173927Y-77658339D01*
X68173929Y-77658339D01*
X68278970Y-77604817D01*
X68347637Y-77591921D01*
X68381312Y-77600170D01*
X69198104Y-77926882D01*
X69218274Y-77937177D01*
X69219354Y-77937859D01*
X69219356Y-77937861D01*
X69253074Y-77949100D01*
X69259910Y-77951604D01*
X69271952Y-77956421D01*
X69271953Y-77956421D01*
X69271955Y-77956422D01*
X69271956Y-77956422D01*
X69279204Y-77958348D01*
X69279119Y-77958666D01*
X69288050Y-77960759D01*
X70737943Y-78444054D01*
X70758189Y-78454727D01*
X70769077Y-78459419D01*
X70789396Y-78462805D01*
X70802780Y-78466130D01*
X70806342Y-78466854D01*
X70806349Y-78466857D01*
X70815273Y-78467572D01*
X70825727Y-78468860D01*
X72240696Y-78704696D01*
X72303587Y-78735135D01*
X72307970Y-78739307D01*
X72346725Y-78778060D01*
X72361089Y-78795296D01*
X72370643Y-78809137D01*
X72370645Y-78809139D01*
X72401910Y-78825547D01*
X72408384Y-78829198D01*
X72438619Y-78847475D01*
X72438620Y-78847475D01*
X72440331Y-78848008D01*
X72442080Y-78848732D01*
X72445819Y-78849775D01*
X72447698Y-78850061D01*
X72449430Y-78850488D01*
X72449432Y-78850489D01*
X72484722Y-78850489D01*
X72492205Y-78850714D01*
X72527435Y-78852845D01*
X72529198Y-78852522D01*
X72551557Y-78850489D01*
X78209799Y-78850491D01*
X78276835Y-78870176D01*
X78297473Y-78886806D01*
X78334720Y-78924052D01*
X78366233Y-78955653D01*
X78373612Y-78957963D01*
X78400710Y-78970181D01*
X78407327Y-78974181D01*
X78414604Y-78974621D01*
X78444181Y-78980061D01*
X78451146Y-78982242D01*
X78458753Y-78980858D01*
X78488426Y-78979084D01*
X78496143Y-78979551D01*
X78502797Y-78976555D01*
X78531508Y-78967629D01*
X81231288Y-78476763D01*
X81239427Y-78476211D01*
X81248395Y-78474417D01*
X81248397Y-78474418D01*
X81289447Y-78466207D01*
X81291522Y-78465811D01*
X81310476Y-78462366D01*
X81310479Y-78462364D01*
X81312660Y-78461968D01*
X81320073Y-78460082D01*
X82518410Y-78220421D01*
X82554207Y-78218547D01*
X82554215Y-78218548D01*
X82568228Y-78212776D01*
X82576642Y-78209665D01*
X82583512Y-78207402D01*
X82583518Y-78207401D01*
X82596704Y-78201207D01*
X82602145Y-78198811D01*
X86876102Y-76438940D01*
X86907542Y-76430609D01*
X86911715Y-76430075D01*
X86924815Y-76420901D01*
X86932566Y-76416030D01*
X86933617Y-76415259D01*
X86933619Y-76415259D01*
X86948673Y-76404229D01*
X86950721Y-76402761D01*
X90187993Y-74135988D01*
X90254197Y-74113662D01*
X90294046Y-74118586D01*
X90314776Y-74124673D01*
X90314778Y-74124673D01*
X90458699Y-74124673D01*
X90458699Y-74124672D01*
X90596790Y-74084126D01*
X90717865Y-74006316D01*
X90812114Y-73897546D01*
X90871902Y-73766630D01*
X90892384Y-73624173D01*
X90892384Y-73624171D01*
X90892384Y-73616048D01*
X90912069Y-73549009D01*
X90945259Y-73514474D01*
X92740118Y-72257707D01*
X92759592Y-72246552D01*
X92774888Y-72239544D01*
X92781348Y-72231182D01*
X92796465Y-72211614D01*
X92801210Y-72205842D01*
X92824440Y-72179267D01*
X92824442Y-72179258D01*
X92825267Y-72177663D01*
X92826286Y-72176064D01*
X92827956Y-72172574D01*
X92828563Y-72170777D01*
X92829287Y-72169136D01*
X92829290Y-72169133D01*
X92835419Y-72134366D01*
X92836942Y-72127035D01*
X92839814Y-72115036D01*
X92845153Y-72092733D01*
X92845151Y-72092728D01*
X92845140Y-72090930D01*
X92847021Y-72068561D01*
X92849236Y-72055998D01*
X92879182Y-71994579D01*
X95074228Y-69555650D01*
X95095234Y-69538688D01*
X95101040Y-69533141D01*
X95101043Y-69533140D01*
X95111315Y-69516995D01*
X95117161Y-69509304D01*
X95117160Y-69509303D01*
X95121471Y-69503161D01*
X95126373Y-69493995D01*
X95131094Y-69485914D01*
X96871446Y-66751020D01*
X96883858Y-66737891D01*
X96882411Y-66736659D01*
X96892169Y-66725196D01*
X96892172Y-66725195D01*
X96905051Y-66699435D01*
X96911345Y-66688322D01*
X96914672Y-66683095D01*
X96914918Y-66682365D01*
X96921516Y-66666505D01*
X97902693Y-64704161D01*
X97913818Y-64689466D01*
X97912669Y-64688696D01*
X97921048Y-64676191D01*
X97921051Y-64676189D01*
X97930270Y-64650834D01*
X97935890Y-64637766D01*
X97937868Y-64633813D01*
X97938437Y-64631289D01*
X97942862Y-64616205D01*
X97943801Y-64613623D01*
X98933688Y-61891456D01*
X98943167Y-61875110D01*
X98942489Y-61874774D01*
X98949176Y-61861287D01*
X98949179Y-61861285D01*
X98954528Y-61837213D01*
X98959039Y-61821742D01*
X98959751Y-61819787D01*
X98960277Y-61814887D01*
X98962514Y-61801271D01*
X99454643Y-59586702D01*
X99469575Y-59549452D01*
X99474016Y-59542107D01*
X99474016Y-59542101D01*
X99474547Y-59540401D01*
X99475271Y-59538651D01*
X99476318Y-59534896D01*
X99476603Y-59533023D01*
X99477028Y-59531295D01*
X99477031Y-59531290D01*
X99477030Y-59495999D01*
X99477256Y-59488513D01*
X99479387Y-59453291D01*
X99479384Y-59453285D01*
X99479062Y-59451524D01*
X99477029Y-59429172D01*
X99477023Y-52078727D01*
X99481854Y-52047135D01*
X99482070Y-52043649D01*
X99479023Y-52026890D01*
X99478191Y-52017668D01*
X99477928Y-52017701D01*
X99477023Y-52010254D01*
X99477023Y-52010250D01*
X99474029Y-51998106D01*
X99472428Y-51990620D01*
X99386034Y-51515445D01*
X99312585Y-51111472D01*
X99319960Y-51041993D01*
X99361134Y-50990756D01*
X99361046Y-50990654D01*
X99361610Y-50990165D01*
X99363727Y-50987531D01*
X99367552Y-50984972D01*
X99367749Y-50984845D01*
X99367748Y-50984845D01*
X99367751Y-50984844D01*
X99462000Y-50876074D01*
X99472462Y-50853163D01*
X99518213Y-50800362D01*
X99585252Y-50780675D01*
X99652292Y-50800357D01*
X99698049Y-50853160D01*
X99707172Y-50882036D01*
X99822847Y-51504976D01*
X99823283Y-51507468D01*
X99838959Y-51602669D01*
X99839345Y-51605169D01*
X99964982Y-52478990D01*
X99965316Y-52481498D01*
X99977094Y-52577245D01*
X99977378Y-52579758D01*
X100067274Y-53458039D01*
X100067505Y-53460558D01*
X100075363Y-53556645D01*
X100075544Y-53559168D01*
X100129541Y-54440366D01*
X100129670Y-54442892D01*
X100133605Y-54539289D01*
X100133682Y-54541817D01*
X100152675Y-55472679D01*
X100152675Y-55477739D01*
X100133682Y-56408601D01*
X100133605Y-56411129D01*
X100129670Y-56507526D01*
X100129541Y-56510052D01*
X100075544Y-57391250D01*
X100075363Y-57393773D01*
X100067505Y-57489860D01*
X100067274Y-57492379D01*
X99977378Y-58370660D01*
X99977094Y-58373173D01*
X99965316Y-58468920D01*
X99964982Y-58471428D01*
X99839345Y-59345249D01*
X99838959Y-59347749D01*
X99823283Y-59442950D01*
X99822847Y-59445442D01*
X99661672Y-60313413D01*
X99661185Y-60315895D01*
X99641638Y-60410382D01*
X99641100Y-60412854D01*
X99444654Y-61273543D01*
X99444066Y-61276002D01*
X99420692Y-61369572D01*
X99420054Y-61372021D01*
X99188658Y-62224004D01*
X99187970Y-62226438D01*
X99160800Y-62318969D01*
X99160063Y-62321389D01*
X98894106Y-63163231D01*
X98893319Y-63165634D01*
X98862391Y-63257002D01*
X98861556Y-63259390D01*
X98561495Y-64089652D01*
X98560611Y-64092023D01*
X98525982Y-64182051D01*
X98525050Y-64184402D01*
X98191363Y-65001757D01*
X98190383Y-65004089D01*
X98152095Y-65092667D01*
X98151067Y-65094978D01*
X97784353Y-65897970D01*
X97783279Y-65900261D01*
X97741407Y-65987209D01*
X97740286Y-65989476D01*
X97341131Y-66776830D01*
X97339965Y-66779074D01*
X97294553Y-66864296D01*
X97293340Y-66866517D01*
X96862414Y-67636912D01*
X96861157Y-67639107D01*
X96812309Y-67722401D01*
X96811007Y-67724570D01*
X96348979Y-68476807D01*
X96347634Y-68478948D01*
X96295483Y-68560097D01*
X96294093Y-68562211D01*
X95801775Y-69294964D01*
X95800343Y-69297049D01*
X95744894Y-69376048D01*
X95743420Y-69378104D01*
X95221611Y-70090185D01*
X95220095Y-70092210D01*
X95161492Y-70168853D01*
X95159935Y-70170847D01*
X94609509Y-70861059D01*
X94607911Y-70863021D01*
X94546235Y-70937203D01*
X94544599Y-70939131D01*
X93966490Y-71606305D01*
X93964813Y-71608200D01*
X93900134Y-71679836D01*
X93898421Y-71681695D01*
X93293573Y-72324742D01*
X93291820Y-72326568D01*
X93224289Y-72395490D01*
X93222501Y-72397278D01*
X92591958Y-73015088D01*
X92590133Y-73016840D01*
X92519815Y-73082980D01*
X92517956Y-73084694D01*
X91862763Y-73676249D01*
X91860868Y-73677925D01*
X91787884Y-73741166D01*
X91785955Y-73742803D01*
X91107185Y-74307135D01*
X91105223Y-74308733D01*
X91029716Y-74368947D01*
X91027723Y-74370503D01*
X90326465Y-74906706D01*
X90324440Y-74908222D01*
X90246608Y-74965257D01*
X90244552Y-74966731D01*
X89521995Y-75473891D01*
X89519911Y-75475323D01*
X89439810Y-75529141D01*
X89437695Y-75530530D01*
X88695003Y-76007829D01*
X88692862Y-76009175D01*
X88610709Y-76059634D01*
X88608540Y-76060936D01*
X87846983Y-76507554D01*
X87844787Y-76508812D01*
X87760611Y-76555896D01*
X87758392Y-76557108D01*
X86979297Y-76972268D01*
X86977051Y-76973435D01*
X86890926Y-77017096D01*
X86888660Y-77018216D01*
X86093322Y-77401231D01*
X86091031Y-77402306D01*
X86003278Y-77442381D01*
X86000967Y-77443408D01*
X85190571Y-77793705D01*
X85188239Y-77794684D01*
X85098981Y-77831124D01*
X85096629Y-77832057D01*
X84272676Y-78148986D01*
X84270306Y-78149870D01*
X84179486Y-78182693D01*
X84177099Y-78183528D01*
X83340964Y-78466564D01*
X83338560Y-78467351D01*
X83246522Y-78496428D01*
X83244102Y-78497165D01*
X82397086Y-78745872D01*
X82394652Y-78746560D01*
X82301511Y-78771857D01*
X82299063Y-78772495D01*
X81442602Y-78986446D01*
X81440142Y-78987034D01*
X81346067Y-79008506D01*
X81343595Y-79009044D01*
X80479104Y-79187888D01*
X80476622Y-79188375D01*
X80381704Y-79206001D01*
X80379212Y-79206437D01*
X79508215Y-79349859D01*
X79505715Y-79350245D01*
X79410142Y-79363986D01*
X79407635Y-79364320D01*
X78531504Y-79472097D01*
X78528990Y-79472381D01*
X78432921Y-79482214D01*
X78430402Y-79482445D01*
X77550596Y-79554396D01*
X77548074Y-79554577D01*
X77451764Y-79560479D01*
X77449237Y-79560608D01*
X76567160Y-79596618D01*
X76564632Y-79596695D01*
X76474245Y-79598539D01*
X76468138Y-79598664D01*
X76465610Y-79598690D01*
X75582844Y-79598690D01*
X75580315Y-79598664D01*
X75573260Y-79598520D01*
X75483820Y-79596695D01*
X75481292Y-79596618D01*
X74599215Y-79560608D01*
X74596688Y-79560479D01*
X74500378Y-79554577D01*
X74497856Y-79554396D01*
X73618050Y-79482445D01*
X73615531Y-79482214D01*
X73519462Y-79472381D01*
X73516948Y-79472097D01*
X72640817Y-79364320D01*
X72638310Y-79363986D01*
X72542737Y-79350245D01*
X72540237Y-79349859D01*
X71669240Y-79206437D01*
X71666748Y-79206001D01*
X71571830Y-79188375D01*
X71569348Y-79187888D01*
X70704857Y-79009044D01*
X70702385Y-79008506D01*
X70608310Y-78987034D01*
X70605850Y-78986446D01*
X69749389Y-78772495D01*
X69746941Y-78771857D01*
X69653800Y-78746560D01*
X69651366Y-78745872D01*
X68804350Y-78497165D01*
X68801930Y-78496428D01*
X68709892Y-78467351D01*
X68707488Y-78466564D01*
X67871353Y-78183528D01*
X67868966Y-78182693D01*
X67778146Y-78149870D01*
X67775776Y-78148986D01*
X66951823Y-77832057D01*
X66949471Y-77831124D01*
X66860213Y-77794684D01*
X66857881Y-77793705D01*
X66047485Y-77443408D01*
X66045208Y-77442396D01*
X65957350Y-77402272D01*
X65955130Y-77401231D01*
X65159792Y-77018216D01*
X65157526Y-77017096D01*
X65071401Y-76973435D01*
X65069155Y-76972268D01*
X64290060Y-76557108D01*
X64287841Y-76555896D01*
X64203665Y-76508812D01*
X64201469Y-76507554D01*
X63439912Y-76060936D01*
X63437743Y-76059634D01*
X63355590Y-76009175D01*
X63353449Y-76007829D01*
X62610757Y-75530530D01*
X62608642Y-75529141D01*
X62528541Y-75475323D01*
X62526457Y-75473891D01*
X61900003Y-75034185D01*
X61803879Y-74966716D01*
X61801844Y-74965257D01*
X61741722Y-74921200D01*
X61723991Y-74908206D01*
X61721987Y-74906706D01*
X61705036Y-74893745D01*
X61451098Y-74699576D01*
X61020729Y-74370503D01*
X61018736Y-74368947D01*
X60943229Y-74308733D01*
X60941267Y-74307135D01*
X60901718Y-74274254D01*
X60262483Y-73742791D01*
X60260568Y-73741166D01*
X60238943Y-73722428D01*
X60187569Y-73677912D01*
X60185752Y-73676305D01*
X59530496Y-73084694D01*
X59528637Y-73082980D01*
X59458319Y-73016840D01*
X59456494Y-73015088D01*
X59364459Y-72924912D01*
X59005255Y-72572961D01*
X58825951Y-72397278D01*
X58824163Y-72395490D01*
X58796994Y-72367761D01*
X58756596Y-72326530D01*
X58754879Y-72324742D01*
X58150031Y-71681695D01*
X58148318Y-71679836D01*
X58083639Y-71608200D01*
X58081962Y-71606305D01*
X58069056Y-71591411D01*
X57713862Y-71181495D01*
X57503853Y-70939131D01*
X57502217Y-70937203D01*
X57456155Y-70881801D01*
X57440526Y-70863002D01*
X57438966Y-70861088D01*
X56888483Y-70170804D01*
X56886994Y-70168897D01*
X56828346Y-70092196D01*
X56826841Y-70090185D01*
X56780613Y-70027101D01*
X56305023Y-69378091D01*
X56303558Y-69376048D01*
X56248109Y-69297049D01*
X56246677Y-69294964D01*
X56184403Y-69202277D01*
X55754322Y-68562155D01*
X55753049Y-68560219D01*
X55700751Y-68478841D01*
X55699498Y-68476846D01*
X55237407Y-67724507D01*
X55236180Y-67722464D01*
X55187256Y-67639040D01*
X55186078Y-67636982D01*
X54755068Y-66866437D01*
X54753943Y-66864377D01*
X54708466Y-66779034D01*
X54707343Y-66776874D01*
X54308157Y-65989459D01*
X54307072Y-65987263D01*
X54265143Y-65900197D01*
X54264099Y-65897970D01*
X53897369Y-65094943D01*
X53896357Y-65092667D01*
X53858069Y-65004089D01*
X53857089Y-65001757D01*
X53729596Y-64689466D01*
X53523375Y-64184335D01*
X53522509Y-64182150D01*
X53487795Y-64091901D01*
X53486992Y-64089746D01*
X53186881Y-63259347D01*
X53186077Y-63257048D01*
X53155133Y-63165634D01*
X53154346Y-63163231D01*
X53081054Y-62931237D01*
X52888361Y-62321297D01*
X52887680Y-62319063D01*
X52860444Y-62226305D01*
X52859831Y-62224138D01*
X52628362Y-61371886D01*
X52627795Y-61369709D01*
X52604368Y-61275929D01*
X52603815Y-61273617D01*
X52407340Y-60412801D01*
X52406825Y-60410435D01*
X52387259Y-60315854D01*
X52386780Y-60313413D01*
X52225588Y-59445346D01*
X52225183Y-59443034D01*
X52209483Y-59347686D01*
X52209119Y-59345327D01*
X52083456Y-58471327D01*
X52083149Y-58469023D01*
X52071349Y-58373093D01*
X52071082Y-58370735D01*
X51981168Y-57492279D01*
X51980955Y-57489956D01*
X51973083Y-57393692D01*
X51972914Y-57391338D01*
X51918905Y-56509934D01*
X51918788Y-56507647D01*
X51914844Y-56411030D01*
X51914772Y-56408696D01*
X51896763Y-55525986D01*
X51896737Y-55523457D01*
X51896737Y-55426961D01*
X51896763Y-55424432D01*
X51904782Y-55031402D01*
X51914773Y-54541714D01*
X51914843Y-54539395D01*
X51918788Y-54442762D01*
X51918904Y-54440497D01*
X51972915Y-53559068D01*
X51973082Y-53556742D01*
X51980957Y-53460444D01*
X51981167Y-53458156D01*
X52071084Y-52579662D01*
X52071346Y-52577348D01*
X52083153Y-52481370D01*
X52083453Y-52479114D01*
X52209123Y-51605062D01*
X52209478Y-51602763D01*
X52225189Y-51507351D01*
X52225582Y-51505105D01*
X52386795Y-50636925D01*
X52387251Y-50634602D01*
X52406833Y-50539944D01*
X52407330Y-50537661D01*
X52603826Y-49676757D01*
X52604357Y-49674535D01*
X52627808Y-49580661D01*
X52628350Y-49578578D01*
X52859846Y-48726227D01*
X52860429Y-48724165D01*
X52887697Y-48631301D01*
X52888344Y-48629174D01*
X53154360Y-47787141D01*
X53155117Y-47784831D01*
X53186098Y-47693308D01*
X53186858Y-47691134D01*
X53487016Y-46860605D01*
X53487771Y-46858581D01*
X53522535Y-46768201D01*
X53523346Y-46766155D01*
X53857124Y-45948575D01*
X53858033Y-45946413D01*
X53896403Y-45857647D01*
X53897334Y-45855552D01*
X54264148Y-45052342D01*
X54265108Y-45050295D01*
X54307109Y-44963079D01*
X54308117Y-44961041D01*
X54625727Y-44334539D01*
X55861479Y-44334539D01*
X57347080Y-45312746D01*
X60772846Y-40331671D01*
X60065422Y-39836321D01*
X57026723Y-44530294D01*
X56789525Y-44426214D01*
X57605378Y-43261059D01*
X56910437Y-42836491D01*
X55861479Y-44334539D01*
X54625727Y-44334539D01*
X54707387Y-44173460D01*
X54708424Y-44171464D01*
X54753987Y-44085960D01*
X54755020Y-44084067D01*
X55186127Y-43313349D01*
X55187208Y-43311462D01*
X55236231Y-43227868D01*
X55237350Y-43226005D01*
X55699554Y-42473480D01*
X55700695Y-42471665D01*
X55753106Y-42390112D01*
X55754259Y-42388358D01*
X56188795Y-41741605D01*
X56242516Y-41696941D01*
X56311863Y-41688411D01*
X56374813Y-41718726D01*
X56411381Y-41778262D01*
X56414332Y-41829238D01*
X56406834Y-41878998D01*
X56413829Y-41948520D01*
X56413829Y-41948521D01*
X56436201Y-42003589D01*
X56436202Y-42003590D01*
X56436203Y-42003592D01*
X56465899Y-42040961D01*
X56479672Y-42058293D01*
X56501503Y-42078899D01*
X56501506Y-42078901D01*
X56501509Y-42078904D01*
X56501514Y-42078908D01*
X56501516Y-42078909D01*
X57520775Y-42796947D01*
X57520781Y-42796950D01*
X57520786Y-42796954D01*
X57532764Y-42803632D01*
X57540132Y-42807740D01*
X57594126Y-42830787D01*
X57616565Y-42843254D01*
X57723912Y-42918419D01*
X57751270Y-42930458D01*
X57777918Y-42931040D01*
X57791240Y-42931331D01*
X57791240Y-42931330D01*
X57791242Y-42931331D01*
X57828505Y-42916839D01*
X57850095Y-42896171D01*
X58896890Y-41401191D01*
X58908929Y-41373833D01*
X58909802Y-41333861D01*
X58909801Y-41333860D01*
X58907681Y-41321831D01*
X58910953Y-41321253D01*
X58906708Y-41271595D01*
X58927419Y-41224064D01*
X58935175Y-41213236D01*
X59839628Y-39950435D01*
X59851143Y-39929819D01*
X59872483Y-39878954D01*
X59880029Y-39826278D01*
X59879299Y-39819830D01*
X59877701Y-39805698D01*
X59872174Y-39756851D01*
X59856886Y-39720516D01*
X59849121Y-39702060D01*
X59849120Y-39702059D01*
X59849120Y-39702058D01*
X59804977Y-39647899D01*
X59782886Y-39627560D01*
X59782883Y-39627558D01*
X59782880Y-39627555D01*
X59290665Y-39289846D01*
X59246522Y-39235687D01*
X59238667Y-39166260D01*
X59259240Y-39116477D01*
X59924217Y-38166792D01*
X59940825Y-38147604D01*
X60088814Y-38008402D01*
X60151132Y-37976809D01*
X60152160Y-37976623D01*
X60630283Y-37892320D01*
X60699722Y-37900064D01*
G37*
%TD.AperFunction*%
%TA.AperFunction,Conductor*%
G36*
X88146957Y-35558041D02*
G01*
X88170171Y-35570836D01*
X89474938Y-36484427D01*
X89513277Y-36511272D01*
X89529834Y-36525165D01*
X90159356Y-37154688D01*
X95823414Y-42818750D01*
X95847930Y-42853632D01*
X96388519Y-44002375D01*
X97844359Y-47096010D01*
X97846819Y-47101236D01*
X97853850Y-47119967D01*
X98234430Y-48452021D01*
X98712792Y-50126315D01*
X98712282Y-50196183D01*
X98687277Y-50241582D01*
X98611246Y-50329328D01*
X98611245Y-50329329D01*
X98551457Y-50460244D01*
X98530976Y-50602701D01*
X98551457Y-50745157D01*
X98611245Y-50876072D01*
X98611246Y-50876074D01*
X98705495Y-50984844D01*
X98826570Y-51062654D01*
X98869621Y-51075294D01*
X98928399Y-51113068D01*
X98956687Y-51172090D01*
X99051559Y-51693887D01*
X99113133Y-52032549D01*
X99114023Y-52037441D01*
X99116023Y-52059623D01*
X99116029Y-59409270D01*
X99114036Y-59422374D01*
X99114055Y-59422376D01*
X99111917Y-59457704D01*
X99109190Y-59477113D01*
X98610728Y-61720178D01*
X98606215Y-61735654D01*
X97602973Y-64494548D01*
X97597348Y-64507627D01*
X96596204Y-66509908D01*
X96589910Y-66521025D01*
X94833971Y-69280412D01*
X94821524Y-69296792D01*
X92591262Y-71774850D01*
X92576231Y-71788985D01*
X92570999Y-71793141D01*
X92550781Y-71819308D01*
X92544835Y-71826435D01*
X92537810Y-71834241D01*
X92533503Y-71840378D01*
X92533494Y-71840371D01*
X92528254Y-71848464D01*
X92516599Y-71863549D01*
X92513439Y-71870699D01*
X92508413Y-71885240D01*
X92506485Y-71892804D01*
X92506336Y-71911853D01*
X92504454Y-71932423D01*
X92503393Y-71938437D01*
X92472361Y-72001037D01*
X92452402Y-72018468D01*
X90779300Y-73189980D01*
X90713094Y-73212307D01*
X90645327Y-73195297D01*
X90641156Y-73192732D01*
X90596790Y-73164220D01*
X90596789Y-73164219D01*
X90596785Y-73164217D01*
X90458700Y-73123673D01*
X90458698Y-73123673D01*
X90314776Y-73123673D01*
X90314773Y-73123673D01*
X90176686Y-73164218D01*
X90055610Y-73242029D01*
X89961360Y-73350799D01*
X89961359Y-73350801D01*
X89901571Y-73481716D01*
X89881090Y-73624173D01*
X89899855Y-73754692D01*
X89901572Y-73766630D01*
X89903409Y-73770652D01*
X89904037Y-73775022D01*
X89904070Y-73775134D01*
X89904053Y-73775138D01*
X89913350Y-73839811D01*
X89884323Y-73903366D01*
X89861737Y-73923735D01*
X86768675Y-76089530D01*
X86744764Y-76102615D01*
X82485190Y-77856562D01*
X82462295Y-77863494D01*
X81223853Y-78111176D01*
X81221717Y-78111584D01*
X78588867Y-78590283D01*
X78519387Y-78582908D01*
X78464925Y-78539141D01*
X78464880Y-78539076D01*
X78459197Y-78530843D01*
X78427947Y-78514441D01*
X78421428Y-78510765D01*
X78391225Y-78492508D01*
X78391224Y-78492507D01*
X78391223Y-78492507D01*
X78391221Y-78492506D01*
X78389492Y-78491968D01*
X78387745Y-78491244D01*
X78384030Y-78490208D01*
X78382161Y-78489924D01*
X78380411Y-78489492D01*
X78345113Y-78489492D01*
X78337634Y-78489266D01*
X78302403Y-78487136D01*
X78300627Y-78487462D01*
X78278289Y-78489491D01*
X72620045Y-78489489D01*
X72553006Y-78469804D01*
X72532364Y-78453170D01*
X72531923Y-78452729D01*
X72520950Y-78437101D01*
X72520573Y-78437408D01*
X72511099Y-78425707D01*
X72492275Y-78411443D01*
X72479487Y-78400295D01*
X72478754Y-78399562D01*
X72473655Y-78396480D01*
X72462915Y-78389193D01*
X72440182Y-78371966D01*
X72431227Y-78368108D01*
X72421924Y-78365209D01*
X72421923Y-78365209D01*
X72417439Y-78364937D01*
X72393451Y-78363487D01*
X72380552Y-78362026D01*
X70895878Y-78114572D01*
X70877052Y-78109896D01*
X69384202Y-77612281D01*
X69377362Y-77609775D01*
X68514072Y-77264464D01*
X68459138Y-77221290D01*
X68437651Y-77168730D01*
X68434271Y-77147389D01*
X68376675Y-77034351D01*
X68376671Y-77034347D01*
X68376670Y-77034345D01*
X68286972Y-76944647D01*
X68286969Y-76944645D01*
X68286967Y-76944643D01*
X68173929Y-76887047D01*
X68173928Y-76887046D01*
X68173925Y-76887045D01*
X68048628Y-76867201D01*
X68048622Y-76867201D01*
X67923324Y-76887045D01*
X67923320Y-76887046D01*
X67830562Y-76934309D01*
X67761893Y-76947205D01*
X67725422Y-76937798D01*
X66365074Y-76354789D01*
X66346866Y-76345121D01*
X65969632Y-76102615D01*
X64828181Y-75368829D01*
X62828059Y-74083043D01*
X62815730Y-74073996D01*
X59800609Y-71561383D01*
X59786673Y-71547779D01*
X58037595Y-69548837D01*
X58027740Y-69535965D01*
X57783641Y-69169816D01*
X56017325Y-66520334D01*
X56009593Y-66507010D01*
X56008745Y-66505314D01*
X55007718Y-64503287D01*
X55003506Y-64493907D01*
X54503517Y-63243952D01*
X54501012Y-63237111D01*
X53999559Y-61732702D01*
X53996899Y-61723566D01*
X53493482Y-59709949D01*
X53492187Y-59704191D01*
X53459773Y-59542107D01*
X53241803Y-58452177D01*
X53240360Y-58443280D01*
X53055533Y-56964667D01*
X53066750Y-56895705D01*
X53111537Y-56844972D01*
X53114353Y-56843161D01*
X53139759Y-56826835D01*
X53234008Y-56718065D01*
X53293796Y-56587149D01*
X53314278Y-56444692D01*
X53293796Y-56302235D01*
X53234008Y-56171319D01*
X53139759Y-56062549D01*
X53046087Y-56002349D01*
X53000334Y-55949548D01*
X52989128Y-55898039D01*
X52989125Y-54180340D01*
X52990371Y-54162804D01*
X52991505Y-54154866D01*
X53229725Y-52487391D01*
X53250903Y-52433809D01*
X56080232Y-48393114D01*
X56134808Y-48349492D01*
X56160266Y-48342126D01*
X57359489Y-48130672D01*
X57428928Y-48138416D01*
X57483157Y-48182473D01*
X57504959Y-48248854D01*
X57487411Y-48316484D01*
X57468702Y-48340469D01*
X55509315Y-50299864D01*
X55496367Y-50311133D01*
X55493944Y-50312963D01*
X55437092Y-50336717D01*
X55424497Y-50338552D01*
X55424495Y-50338553D01*
X55319402Y-50389929D01*
X55236691Y-50472640D01*
X55185314Y-50577734D01*
X55175388Y-50645865D01*
X55175388Y-51662386D01*
X55185314Y-51730517D01*
X55216909Y-51795146D01*
X55228667Y-51864019D01*
X55201324Y-51928316D01*
X55193190Y-51937287D01*
X54875058Y-52255423D01*
X54852666Y-52273162D01*
X54847437Y-52276400D01*
X54847434Y-52276402D01*
X54832134Y-52296665D01*
X54820860Y-52309622D01*
X54080946Y-53049544D01*
X54068000Y-53060810D01*
X54062160Y-53065220D01*
X54032021Y-53098282D01*
X54028072Y-53102418D01*
X54015825Y-53114667D01*
X54015818Y-53114674D01*
X54005206Y-53125285D01*
X54000148Y-53133248D01*
X53988995Y-53145482D01*
X53988992Y-53145488D01*
X53987595Y-53149095D01*
X53977452Y-53169487D01*
X53969913Y-53181684D01*
X53969912Y-53181689D01*
X53969911Y-53181691D01*
X53964064Y-53206549D01*
X53958988Y-53222942D01*
X53949763Y-53246757D01*
X53949763Y-53252965D01*
X53946470Y-53281351D01*
X53945047Y-53287401D01*
X53945047Y-53287420D01*
X53947048Y-53301761D01*
X53936813Y-53370877D01*
X53911918Y-53406573D01*
X53658223Y-53660266D01*
X53634632Y-53678315D01*
X53632987Y-53679717D01*
X53612513Y-53705011D01*
X53603829Y-53714659D01*
X53600189Y-53718300D01*
X53600178Y-53718312D01*
X53594315Y-53726871D01*
X53588409Y-53734794D01*
X53564659Y-53764138D01*
X53559196Y-53774243D01*
X53558818Y-53774039D01*
X53558525Y-53774638D01*
X53558917Y-53774811D01*
X53554277Y-53785318D01*
X53545634Y-53822064D01*
X53542988Y-53831593D01*
X53531440Y-53867541D01*
X53529996Y-53878938D01*
X53529568Y-53878883D01*
X53529511Y-53879546D01*
X53529941Y-53879566D01*
X53529410Y-53891044D01*
X53534625Y-53928429D01*
X53535600Y-53938276D01*
X53785976Y-58194607D01*
X53784637Y-58221452D01*
X53783200Y-58230440D01*
X53783200Y-58230443D01*
X53787952Y-58252617D01*
X53789086Y-58260970D01*
X53789349Y-58260931D01*
X53790214Y-58266609D01*
X53795072Y-58286158D01*
X53795980Y-58290080D01*
X54547852Y-61798875D01*
X54550597Y-61823496D01*
X54550736Y-61836178D01*
X54558967Y-61856756D01*
X54562165Y-61865738D01*
X54562213Y-61865893D01*
X54571358Y-61887775D01*
X54572078Y-61889534D01*
X55059508Y-63108075D01*
X55067334Y-63138083D01*
X55067601Y-63140125D01*
X55081805Y-63166166D01*
X55088071Y-63179480D01*
X55088908Y-63181573D01*
X55088911Y-63181579D01*
X55095995Y-63192746D01*
X55100145Y-63199792D01*
X56593641Y-65937904D01*
X56604637Y-65965489D01*
X56605739Y-65969645D01*
X56605740Y-65969649D01*
X56605741Y-65969650D01*
X56618550Y-65987263D01*
X56621878Y-65991838D01*
X56630448Y-66005384D01*
X56630473Y-66005429D01*
X56630484Y-66005447D01*
X56640241Y-66017411D01*
X56644427Y-66022843D01*
X57742963Y-67533312D01*
X58583956Y-68689664D01*
X58632398Y-68756270D01*
X58640222Y-68771410D01*
X58641095Y-68770922D01*
X58646702Y-68780946D01*
X58646703Y-68780947D01*
X58646704Y-68780950D01*
X58672737Y-68812190D01*
X58677743Y-68818618D01*
X58685531Y-68829327D01*
X58687175Y-68830881D01*
X58697256Y-68841613D01*
X58813257Y-68980814D01*
X58837606Y-69027487D01*
X58843048Y-69047388D01*
X58843048Y-69047389D01*
X58907604Y-69134726D01*
X58907609Y-69134731D01*
X58962995Y-69169816D01*
X58991898Y-69195184D01*
X59884907Y-70266795D01*
X59903709Y-70304958D01*
X59905177Y-70304328D01*
X59909710Y-70314886D01*
X59913194Y-70320086D01*
X59926250Y-70345477D01*
X59928448Y-70351327D01*
X59945437Y-70370345D01*
X59955971Y-70383926D01*
X59968656Y-70402857D01*
X59970168Y-70405113D01*
X59975287Y-70408697D01*
X59996636Y-70427659D01*
X60000805Y-70432326D01*
X60000808Y-70432327D01*
X60000810Y-70432329D01*
X60023514Y-70443921D01*
X60038246Y-70452781D01*
X60179450Y-70551650D01*
X60327379Y-70655228D01*
X60333720Y-70659977D01*
X60442194Y-70746758D01*
X61212568Y-71363073D01*
X61226461Y-71376055D01*
X61226880Y-71376512D01*
X61226883Y-71376516D01*
X61245142Y-71390210D01*
X61265122Y-71405195D01*
X61268184Y-71407567D01*
X61275112Y-71413109D01*
X61284168Y-71420354D01*
X61284176Y-71420358D01*
X61288955Y-71423506D01*
X61288793Y-71423751D01*
X61295828Y-71428225D01*
X61941303Y-71912328D01*
X61949079Y-71918160D01*
X61949085Y-71918165D01*
X62747736Y-72517153D01*
X62747756Y-72517167D01*
X63291534Y-72924992D01*
X63297833Y-72930045D01*
X63701488Y-73276034D01*
X65049703Y-74431643D01*
X65058756Y-74440230D01*
X65080252Y-74462786D01*
X65081801Y-74464411D01*
X65081802Y-74464412D01*
X65115184Y-74480121D01*
X65124407Y-74484944D01*
X65156347Y-74503394D01*
X65156348Y-74503394D01*
X65156350Y-74503395D01*
X65167184Y-74507216D01*
X65167093Y-74507473D01*
X65184865Y-74512912D01*
X69419504Y-76505705D01*
X69436348Y-76515307D01*
X69454383Y-76527549D01*
X69454386Y-76527551D01*
X69501659Y-76538459D01*
X69504937Y-76539265D01*
X69551877Y-76551504D01*
X69551879Y-76551503D01*
X69552333Y-76551622D01*
X69570427Y-76554328D01*
X71516072Y-77003318D01*
X72769140Y-77292484D01*
X72792399Y-77300346D01*
X72800050Y-77303809D01*
X72804310Y-77305738D01*
X72826424Y-77306965D01*
X72835063Y-77307789D01*
X72835549Y-77307809D01*
X72835552Y-77307810D01*
X72859694Y-77308824D01*
X72861134Y-77308894D01*
X77385971Y-77560268D01*
X77412162Y-77564569D01*
X77421500Y-77567153D01*
X77443467Y-77564955D01*
X77451668Y-77564778D01*
X77451656Y-77564448D01*
X77457383Y-77564236D01*
X77457392Y-77564237D01*
X77477989Y-77561558D01*
X77481563Y-77561146D01*
X79952333Y-77314073D01*
X79969313Y-77314966D01*
X79969334Y-77313945D01*
X79980816Y-77314169D01*
X79980822Y-77314171D01*
X80021017Y-77307470D01*
X80029028Y-77306404D01*
X80042315Y-77305076D01*
X80044381Y-77304471D01*
X80058797Y-77301173D01*
X81555280Y-77051739D01*
X81557129Y-77051447D01*
X81607610Y-77043842D01*
X81624249Y-77034332D01*
X81643243Y-77025517D01*
X81661244Y-77018948D01*
X81670748Y-77010618D01*
X81690936Y-76996225D01*
X83375855Y-76033417D01*
X83390695Y-76026202D01*
X83399869Y-76022474D01*
X83399872Y-76022474D01*
X83434469Y-76000259D01*
X83441214Y-75996226D01*
X84688520Y-75303300D01*
X84688522Y-75303300D01*
X85659077Y-74764107D01*
X85676123Y-74756262D01*
X85677531Y-74755738D01*
X85677538Y-74755737D01*
X85718193Y-74731342D01*
X85721719Y-74729305D01*
X85739251Y-74719567D01*
X85739255Y-74719563D01*
X85739258Y-74719562D01*
X85743991Y-74716328D01*
X85744131Y-74716533D01*
X85751073Y-74711614D01*
X88228178Y-73225345D01*
X88250733Y-73214735D01*
X88262455Y-73210602D01*
X88279286Y-73196173D01*
X88286668Y-73190319D01*
X88287164Y-73189954D01*
X88287172Y-73189950D01*
X88304752Y-73174366D01*
X88306246Y-73173065D01*
X90032478Y-71693416D01*
X90047579Y-71682392D01*
X90053306Y-71677188D01*
X90083563Y-71649695D01*
X90086201Y-71647367D01*
X90102107Y-71633735D01*
X90102112Y-71633728D01*
X90106096Y-71629618D01*
X90106346Y-71629860D01*
X90111932Y-71623919D01*
X90128158Y-71609178D01*
X90132558Y-71600376D01*
X90146848Y-71578108D01*
X90150401Y-71573691D01*
X90153013Y-71570444D01*
X90159656Y-71549542D01*
X90166919Y-71531652D01*
X91151735Y-69562033D01*
X91163439Y-69543096D01*
X91893648Y-68569492D01*
X91899526Y-68562241D01*
X93634510Y-66579408D01*
X93656469Y-66559657D01*
X93660213Y-66557023D01*
X93675272Y-66534431D01*
X93684612Y-66522235D01*
X93684967Y-66521744D01*
X93684974Y-66521737D01*
X93692992Y-66508176D01*
X93696530Y-66502546D01*
X95688915Y-63513964D01*
X95701165Y-63500343D01*
X95700864Y-63500093D01*
X95708193Y-63491245D01*
X95708197Y-63491243D01*
X95726429Y-63458423D01*
X95731639Y-63449878D01*
X95737268Y-63441437D01*
X95737271Y-63441430D01*
X95739370Y-63436510D01*
X95745033Y-63424936D01*
X95769687Y-63380559D01*
X96245534Y-62524031D01*
X96254975Y-62509527D01*
X96270244Y-62489308D01*
X96272013Y-62483087D01*
X96282881Y-62456805D01*
X96972942Y-61214691D01*
X96977920Y-61207307D01*
X96980652Y-61202232D01*
X96980655Y-61202230D01*
X97005233Y-61156584D01*
X97005859Y-61155441D01*
X97017640Y-61134237D01*
X97017641Y-61134233D01*
X97017921Y-61133730D01*
X97021630Y-61126132D01*
X97032147Y-61106604D01*
X97033777Y-61093559D01*
X97039205Y-61069656D01*
X97043367Y-61057196D01*
X97042485Y-61038576D01*
X97043302Y-61017348D01*
X97275231Y-59161823D01*
X97303079Y-59097745D01*
X97310581Y-59089536D01*
X97846363Y-58553756D01*
X97859319Y-58542484D01*
X97865141Y-58538087D01*
X97865144Y-58538086D01*
X97895306Y-58504997D01*
X97899197Y-58500922D01*
X97911494Y-58488627D01*
X97911498Y-58488620D01*
X97915083Y-58484304D01*
X97921106Y-58476696D01*
X97938312Y-58457824D01*
X97940557Y-58452028D01*
X97953885Y-58426741D01*
X97957396Y-58421618D01*
X97963243Y-58396754D01*
X97968321Y-58380361D01*
X97977546Y-58356550D01*
X97977546Y-58350336D01*
X97980840Y-58321944D01*
X97982263Y-58315895D01*
X97978735Y-58290603D01*
X97977546Y-58273473D01*
X97977546Y-51845598D01*
X97978737Y-51828454D01*
X97979744Y-51821230D01*
X97979746Y-51821226D01*
X97977677Y-51776524D01*
X97977546Y-51770791D01*
X97977547Y-51753478D01*
X97977545Y-51753472D01*
X97977034Y-51747946D01*
X97975908Y-51738243D01*
X97975551Y-51730517D01*
X97974729Y-51712734D01*
X97972218Y-51707049D01*
X97963762Y-51679739D01*
X97963645Y-51679112D01*
X97962622Y-51673638D01*
X97949182Y-51651931D01*
X97941174Y-51636739D01*
X97930861Y-51613383D01*
X97930860Y-51613380D01*
X97926466Y-51608986D01*
X97908719Y-51586580D01*
X97905448Y-51581297D01*
X97905447Y-51581296D01*
X97885066Y-51565905D01*
X97872112Y-51554632D01*
X96760736Y-50443258D01*
X96727251Y-50381935D01*
X96724417Y-50355577D01*
X96724417Y-49002469D01*
X96725606Y-48985338D01*
X96726613Y-48978109D01*
X96726615Y-48978105D01*
X96724549Y-48933409D01*
X96724417Y-48927685D01*
X96724417Y-48910352D01*
X96723903Y-48904817D01*
X96722778Y-48895117D01*
X96721600Y-48869614D01*
X96721599Y-48869611D01*
X96721599Y-48869610D01*
X96719087Y-48863921D01*
X96710634Y-48836623D01*
X96709492Y-48830518D01*
X96709491Y-48830514D01*
X96696050Y-48808806D01*
X96688046Y-48793621D01*
X96677731Y-48770259D01*
X96673335Y-48765863D01*
X96655587Y-48743455D01*
X96652317Y-48738173D01*
X96631942Y-48722787D01*
X96618986Y-48711514D01*
X96426280Y-48518807D01*
X96037424Y-48129948D01*
X94550741Y-46643253D01*
X94517257Y-46581930D01*
X94514423Y-46555572D01*
X94514423Y-44839176D01*
X94515612Y-44822045D01*
X94516620Y-44814814D01*
X94516621Y-44814812D01*
X94514555Y-44770124D01*
X94514423Y-44764399D01*
X94514423Y-44747067D01*
X94513905Y-44741489D01*
X94512783Y-44731818D01*
X94511605Y-44706320D01*
X94509095Y-44700637D01*
X94500638Y-44673325D01*
X94499498Y-44667224D01*
X94486058Y-44645517D01*
X94478050Y-44630325D01*
X94467737Y-44606969D01*
X94467736Y-44606966D01*
X94463343Y-44602573D01*
X94445595Y-44580166D01*
X94442324Y-44574882D01*
X94421942Y-44559491D01*
X94408988Y-44548218D01*
X92427268Y-42566499D01*
X92416551Y-42552074D01*
X92416119Y-42552422D01*
X92408917Y-42543468D01*
X92379769Y-42518484D01*
X92372786Y-42512017D01*
X92365016Y-42504247D01*
X92365012Y-42504243D01*
X92361286Y-42501690D01*
X92350672Y-42493544D01*
X90975961Y-41315226D01*
X90937871Y-41256652D01*
X90937496Y-41186783D01*
X90945887Y-41165352D01*
X90967990Y-41121426D01*
X90986183Y-41005874D01*
X90965870Y-40890674D01*
X90909253Y-40788313D01*
X90859136Y-40741102D01*
X90026451Y-40158050D01*
X89964946Y-40127102D01*
X89849395Y-40108909D01*
X89849391Y-40108909D01*
X89734197Y-40129221D01*
X89734195Y-40129222D01*
X89680982Y-40158654D01*
X89612791Y-40173875D01*
X89547195Y-40149813D01*
X89543505Y-40146973D01*
X89328365Y-39974861D01*
X89319049Y-39966609D01*
X89315279Y-39962916D01*
X89295135Y-39943180D01*
X89281082Y-39937146D01*
X89261307Y-39928655D01*
X89251881Y-39924128D01*
X89219413Y-39906813D01*
X89208458Y-39903363D01*
X89208534Y-39903119D01*
X89190556Y-39898279D01*
X87980122Y-39378582D01*
X87980122Y-39378581D01*
X87980120Y-39378581D01*
X86908839Y-38918614D01*
X86908830Y-38918611D01*
X86829585Y-38900828D01*
X86828483Y-38900789D01*
X86826573Y-38900152D01*
X86818375Y-38898313D01*
X86818561Y-38897483D01*
X86762195Y-38878705D01*
X86761822Y-38878444D01*
X86670373Y-38814411D01*
X86608447Y-38771050D01*
X86608445Y-38771049D01*
X86608443Y-38771048D01*
X86581090Y-38759011D01*
X86581084Y-38759010D01*
X86541118Y-38758137D01*
X86541115Y-38758138D01*
X86492473Y-38777056D01*
X86491908Y-38775603D01*
X86438120Y-38791163D01*
X86407476Y-38787190D01*
X86328112Y-38766598D01*
X86184404Y-38771161D01*
X86047807Y-38816022D01*
X85929379Y-38897554D01*
X85889982Y-38942659D01*
X85862545Y-38981840D01*
X86500992Y-39428885D01*
X86527989Y-39424124D01*
X86528788Y-39423486D01*
X86535642Y-39422775D01*
X86551575Y-39419966D01*
X86551775Y-39421102D01*
X86598285Y-39416281D01*
X86642627Y-39438687D01*
X86644907Y-39435286D01*
X86649812Y-39438573D01*
X86655204Y-39445042D01*
X86660645Y-39447792D01*
X86662226Y-39449301D01*
X86662297Y-39449370D01*
X86660420Y-39451301D01*
X86694545Y-39492245D01*
X86698523Y-39524275D01*
X86700139Y-39523991D01*
X86709057Y-39574571D01*
X87347505Y-40021619D01*
X87374931Y-39982452D01*
X87374936Y-39982444D01*
X87403849Y-39929990D01*
X87406466Y-39919905D01*
X87442356Y-39859958D01*
X87504958Y-39828930D01*
X87574397Y-39836673D01*
X87575264Y-39837040D01*
X87711340Y-39895466D01*
X87711343Y-39895468D01*
X87722188Y-39900124D01*
X87722190Y-39900126D01*
X87768584Y-39920045D01*
X87796821Y-39932169D01*
X87808410Y-39937145D01*
X87808413Y-39937145D01*
X88434658Y-40206022D01*
X88488492Y-40250559D01*
X88509704Y-40317131D01*
X88491556Y-40384602D01*
X88439811Y-40431552D01*
X88407269Y-40442080D01*
X87526581Y-40597373D01*
X87457142Y-40589629D01*
X87433924Y-40576832D01*
X87312638Y-40491906D01*
X87297905Y-40478193D01*
X87289784Y-40471305D01*
X87270617Y-40460366D01*
X87254710Y-40449571D01*
X87213010Y-40416272D01*
X87172909Y-40359059D01*
X87170104Y-40289246D01*
X87188813Y-40248254D01*
X87201817Y-40229682D01*
X86501778Y-39739510D01*
X86501731Y-39739479D01*
X85716857Y-39189904D01*
X85689430Y-39229074D01*
X85689424Y-39229083D01*
X85660514Y-39281533D01*
X85660513Y-39281536D01*
X85624404Y-39420700D01*
X85628967Y-39564411D01*
X85673828Y-39701007D01*
X85720323Y-39768542D01*
X85742125Y-39834923D01*
X85739667Y-39861217D01*
X85739213Y-39882005D01*
X85718070Y-39948598D01*
X85664279Y-39993189D01*
X85660192Y-39994863D01*
X85643492Y-40001358D01*
X85643488Y-40001360D01*
X85621898Y-40022028D01*
X85621896Y-40022032D01*
X85464856Y-40246309D01*
X85452816Y-40273668D01*
X85452816Y-40273669D01*
X85451943Y-40313639D01*
X85466436Y-40350902D01*
X85477216Y-40362164D01*
X85487104Y-40372493D01*
X85640325Y-40479779D01*
X85683143Y-40532433D01*
X85687030Y-40541488D01*
X85724473Y-40597373D01*
X85747484Y-40631718D01*
X86316931Y-41030472D01*
X86330269Y-41041261D01*
X86335641Y-41046259D01*
X86335644Y-41046263D01*
X86373418Y-41070189D01*
X86378196Y-41073373D01*
X86392383Y-41083308D01*
X86397188Y-41086049D01*
X86405813Y-41090709D01*
X86427394Y-41104379D01*
X86433479Y-41105581D01*
X86460695Y-41114315D01*
X86466346Y-41116880D01*
X86491851Y-41118322D01*
X86508873Y-41120474D01*
X86533944Y-41125427D01*
X86540053Y-41124349D01*
X86568587Y-41122662D01*
X86574781Y-41123013D01*
X86599092Y-41115141D01*
X86615733Y-41111001D01*
X87018963Y-41039883D01*
X87088400Y-41047624D01*
X87111619Y-41060421D01*
X87187919Y-41113848D01*
X87201266Y-41124645D01*
X87206611Y-41129619D01*
X87206613Y-41129621D01*
X87244413Y-41153565D01*
X87249156Y-41156726D01*
X87263369Y-41166679D01*
X87268216Y-41169444D01*
X87276797Y-41174080D01*
X87298358Y-41187738D01*
X87298359Y-41187738D01*
X87298362Y-41187740D01*
X87304463Y-41188945D01*
X87331671Y-41197678D01*
X87333505Y-41198510D01*
X87337330Y-41200246D01*
X87362819Y-41201687D01*
X87379851Y-41203840D01*
X87404910Y-41208791D01*
X87411022Y-41207712D01*
X87439562Y-41206026D01*
X87445765Y-41206377D01*
X87470070Y-41198506D01*
X87486711Y-41194366D01*
X88944759Y-40937266D01*
X88961837Y-40935464D01*
X88969133Y-40935202D01*
X88969134Y-40935201D01*
X88969136Y-40935202D01*
X89012812Y-40925400D01*
X89018407Y-40924280D01*
X89025788Y-40922979D01*
X89035469Y-40921273D01*
X89035470Y-40921272D01*
X89035474Y-40921272D01*
X89035477Y-40921270D01*
X89040853Y-40919800D01*
X89050186Y-40917014D01*
X89075108Y-40911422D01*
X89075109Y-40911421D01*
X89085544Y-40909080D01*
X89155267Y-40913611D01*
X89211472Y-40955117D01*
X89229596Y-40988730D01*
X89230850Y-40992276D01*
X89282746Y-41086103D01*
X89287469Y-41094641D01*
X89337586Y-41141852D01*
X90170271Y-41724904D01*
X90231776Y-41755852D01*
X90347328Y-41774045D01*
X90462527Y-41753732D01*
X90467571Y-41750942D01*
X90535758Y-41735717D01*
X90601355Y-41759775D01*
X90608274Y-41765289D01*
X91865911Y-42843257D01*
X91977494Y-42938899D01*
X91984477Y-42945366D01*
X92954515Y-43915404D01*
X93897104Y-44857992D01*
X93930589Y-44919315D01*
X93933423Y-44945673D01*
X93933423Y-46662066D01*
X93932235Y-46679192D01*
X93931225Y-46686431D01*
X93933291Y-46731118D01*
X93933423Y-46736844D01*
X93933423Y-46754177D01*
X93933935Y-46759709D01*
X93935061Y-46769410D01*
X93936241Y-46794924D01*
X93938752Y-46800611D01*
X93947205Y-46827910D01*
X93948347Y-46834018D01*
X93948347Y-46834020D01*
X93948347Y-46834021D01*
X93948348Y-46834022D01*
X93961789Y-46855732D01*
X93969792Y-46870914D01*
X93980110Y-46894281D01*
X93984503Y-46898674D01*
X94002248Y-46921076D01*
X94005521Y-46926362D01*
X94025892Y-46941745D01*
X94038849Y-46953019D01*
X96107099Y-49021284D01*
X96140583Y-49082606D01*
X96143417Y-49108964D01*
X96143417Y-50462074D01*
X96142229Y-50479200D01*
X96141219Y-50486439D01*
X96141219Y-50486440D01*
X96141219Y-50486441D01*
X96142113Y-50505777D01*
X96143285Y-50531126D01*
X96143417Y-50536852D01*
X96143417Y-50554186D01*
X96143929Y-50559713D01*
X96145055Y-50569418D01*
X96146235Y-50594934D01*
X96148747Y-50600624D01*
X96157197Y-50627911D01*
X96158339Y-50634023D01*
X96158341Y-50634028D01*
X96171783Y-50655737D01*
X96179789Y-50670925D01*
X96190105Y-50694288D01*
X96194497Y-50698680D01*
X96212242Y-50721082D01*
X96215516Y-50726369D01*
X96215516Y-50726370D01*
X96235896Y-50741760D01*
X96248851Y-50753033D01*
X97202873Y-51707053D01*
X97360227Y-51864406D01*
X97393712Y-51925729D01*
X97396546Y-51952087D01*
X97396546Y-58130553D01*
X97376861Y-58197592D01*
X97360227Y-58218234D01*
X96810658Y-58767801D01*
X96803549Y-58774376D01*
X96774583Y-58799136D01*
X96759324Y-58827472D01*
X96752451Y-58838751D01*
X96734263Y-58865304D01*
X96733764Y-58866433D01*
X96723464Y-58893592D01*
X96723090Y-58894764D01*
X96719098Y-58926699D01*
X96716763Y-58939704D01*
X96709396Y-58971027D01*
X96709338Y-58972282D01*
X96709557Y-59003032D01*
X96472327Y-60900971D01*
X96457680Y-60945811D01*
X96297185Y-61234702D01*
X96247420Y-61283745D01*
X96179040Y-61298098D01*
X96113756Y-61273204D01*
X96101107Y-61262163D01*
X95991218Y-61152272D01*
X95957735Y-61090951D01*
X95954901Y-61064601D01*
X95954901Y-60426363D01*
X95974586Y-60359325D01*
X96027390Y-60313570D01*
X96062718Y-60303425D01*
X96064927Y-60303135D01*
X96168961Y-60254623D01*
X96250129Y-60173455D01*
X96298641Y-60069421D01*
X96304882Y-60022015D01*
X96304881Y-59445738D01*
X96298641Y-59398331D01*
X96250129Y-59294297D01*
X96168961Y-59213129D01*
X96099776Y-59180867D01*
X96047338Y-59134696D01*
X96030293Y-59091269D01*
X96029957Y-59089468D01*
X96016505Y-59067741D01*
X96008511Y-59052574D01*
X95998189Y-59029199D01*
X95993801Y-59024811D01*
X95976060Y-59002415D01*
X95973477Y-58998244D01*
X95954899Y-58932962D01*
X95954899Y-58032233D01*
X95957475Y-58015428D01*
X95956460Y-58015307D01*
X95957828Y-58003901D01*
X95957636Y-58000976D01*
X95955164Y-57963237D01*
X95954899Y-57955131D01*
X95954899Y-57941784D01*
X95954506Y-57939683D01*
X95952657Y-57924993D01*
X95951649Y-57909608D01*
X95883741Y-56873153D01*
X95863627Y-56794459D01*
X95846201Y-56770041D01*
X95823283Y-56704038D01*
X95823137Y-56698013D01*
X95823137Y-56502708D01*
X95823136Y-56502700D01*
X95817307Y-56473390D01*
X95795095Y-56440145D01*
X95761939Y-56417993D01*
X95761851Y-56417934D01*
X95761849Y-56417933D01*
X95761846Y-56417932D01*
X95732539Y-56412103D01*
X95458743Y-56412103D01*
X95458735Y-56412104D01*
X95429426Y-56417933D01*
X95414524Y-56427890D01*
X95347846Y-56448765D01*
X95280467Y-56430278D01*
X95276749Y-56427889D01*
X95261938Y-56417993D01*
X95261850Y-56417934D01*
X95261849Y-56417933D01*
X95251696Y-56411150D01*
X95252561Y-56409854D01*
X95208965Y-56374717D01*
X95194643Y-56347336D01*
X95165991Y-56270516D01*
X95165987Y-56270509D01*
X95079827Y-56155415D01*
X95079824Y-56155412D01*
X94964730Y-56069252D01*
X94964723Y-56069248D01*
X94830016Y-56019006D01*
X94830009Y-56019004D01*
X94770481Y-56012603D01*
X94722637Y-56012603D01*
X94722637Y-57825403D01*
X94739896Y-57842662D01*
X94748156Y-57845088D01*
X94793911Y-57897892D01*
X94805117Y-57949405D01*
X94805107Y-58472282D01*
X94803919Y-58489402D01*
X94802907Y-58496657D01*
X94802907Y-58496660D01*
X94802907Y-58496661D01*
X94804361Y-58528099D01*
X94804974Y-58541348D01*
X94805106Y-58547076D01*
X94805106Y-58564400D01*
X94805609Y-58569842D01*
X94806744Y-58579628D01*
X94807925Y-58605152D01*
X94807925Y-58605153D01*
X94810434Y-58610834D01*
X94818887Y-58638132D01*
X94822139Y-58655527D01*
X94818111Y-58656280D01*
X94822155Y-58704169D01*
X94789460Y-58765917D01*
X94728572Y-58800187D01*
X94661657Y-58797075D01*
X94576990Y-58769020D01*
X94477704Y-58758876D01*
X94454382Y-58758876D01*
X94454382Y-60708875D01*
X94477690Y-60708875D01*
X94477704Y-60708874D01*
X94576989Y-60698731D01*
X94737863Y-60645423D01*
X94737874Y-60645418D01*
X94882110Y-60556451D01*
X94882114Y-60556448D01*
X95001954Y-60436608D01*
X95001957Y-60436604D01*
X95090924Y-60292368D01*
X95090931Y-60292353D01*
X95099029Y-60267915D01*
X95138800Y-60210469D01*
X95203316Y-60183645D01*
X95272092Y-60195959D01*
X95304416Y-60219236D01*
X95337582Y-60252402D01*
X95371067Y-60313725D01*
X95373901Y-60340083D01*
X95373901Y-61171090D01*
X95372714Y-61188207D01*
X95371704Y-61195447D01*
X95373770Y-61240146D01*
X95373902Y-61245864D01*
X95373902Y-61263203D01*
X95374414Y-61268725D01*
X95375540Y-61278427D01*
X95376720Y-61303943D01*
X95379234Y-61309637D01*
X95387684Y-61336926D01*
X95388826Y-61343038D01*
X95388829Y-61343044D01*
X95402269Y-61364751D01*
X95410275Y-61379940D01*
X95420586Y-61403293D01*
X95420588Y-61403295D01*
X95420589Y-61403298D01*
X95420591Y-61403300D01*
X95424980Y-61407689D01*
X95442726Y-61430093D01*
X95446000Y-61435381D01*
X95446001Y-61435382D01*
X95446002Y-61435383D01*
X95459565Y-61445625D01*
X95466377Y-61450769D01*
X95479332Y-61462042D01*
X95818537Y-61801252D01*
X95857764Y-61840479D01*
X95891248Y-61901803D01*
X95886263Y-61971494D01*
X95878480Y-61988375D01*
X95870193Y-62003293D01*
X95820430Y-62052339D01*
X95761795Y-62067078D01*
X94377380Y-62067078D01*
X94310341Y-62047393D01*
X94289699Y-62030759D01*
X93588099Y-61329160D01*
X93554614Y-61267837D01*
X93551780Y-61241479D01*
X93551780Y-60777670D01*
X93571465Y-60710631D01*
X93624269Y-60664876D01*
X93693427Y-60654932D01*
X93714785Y-60659964D01*
X93831776Y-60698732D01*
X93931065Y-60708875D01*
X93954382Y-60708874D01*
X93954382Y-58758875D01*
X93931075Y-58758876D01*
X93931056Y-58758877D01*
X93831774Y-58769020D01*
X93714784Y-58807787D01*
X93644956Y-58810189D01*
X93584914Y-58774457D01*
X93553721Y-58711937D01*
X93551780Y-58690081D01*
X93551780Y-58332035D01*
X93560003Y-58293094D01*
X93559753Y-58293036D01*
X93562283Y-58282295D01*
X93562368Y-58281897D01*
X93562384Y-58281857D01*
X93562389Y-58281851D01*
X93568268Y-58256898D01*
X93573334Y-58240553D01*
X93582593Y-58216656D01*
X93582592Y-58210540D01*
X93585898Y-58182093D01*
X93587302Y-58176139D01*
X93583769Y-58150741D01*
X93582589Y-58133688D01*
X93582582Y-57894249D01*
X93602265Y-57827211D01*
X93618893Y-57806574D01*
X93852469Y-57572996D01*
X93913789Y-57539513D01*
X93983481Y-57544497D01*
X94039414Y-57586368D01*
X94111446Y-57682590D01*
X94111449Y-57682593D01*
X94226543Y-57768753D01*
X94226550Y-57768757D01*
X94361257Y-57818999D01*
X94361264Y-57819001D01*
X94420792Y-57825402D01*
X94420809Y-57825403D01*
X94468637Y-57825403D01*
X94468637Y-56012603D01*
X94420792Y-56012603D01*
X94361264Y-56019004D01*
X94361257Y-56019006D01*
X94226550Y-56069248D01*
X94226543Y-56069252D01*
X94111449Y-56155412D01*
X94111446Y-56155415D01*
X94025286Y-56270509D01*
X94025282Y-56270516D01*
X93996631Y-56347335D01*
X93954760Y-56403269D01*
X93931816Y-56416334D01*
X93896178Y-56440145D01*
X93873968Y-56473388D01*
X93873965Y-56473394D01*
X93868136Y-56502701D01*
X93868136Y-56684305D01*
X93848451Y-56751344D01*
X93831818Y-56771986D01*
X93132758Y-57471051D01*
X93119813Y-57482316D01*
X93113973Y-57486726D01*
X93083832Y-57519791D01*
X93079881Y-57523930D01*
X93067626Y-57536186D01*
X93064099Y-57540433D01*
X93058017Y-57548111D01*
X93040807Y-57566991D01*
X93040805Y-57566994D01*
X93038556Y-57572800D01*
X93025240Y-57598062D01*
X93021728Y-57603188D01*
X93021726Y-57603193D01*
X93015878Y-57628055D01*
X93010802Y-57644446D01*
X93001576Y-57668263D01*
X93001576Y-57674483D01*
X92998283Y-57702868D01*
X92996861Y-57708911D01*
X92996861Y-57708918D01*
X93000389Y-57734208D01*
X93001578Y-57751335D01*
X93001586Y-58023477D01*
X92993364Y-58062415D01*
X92993617Y-58062475D01*
X92991070Y-58073280D01*
X92991000Y-58073613D01*
X92990982Y-58073652D01*
X92985103Y-58098598D01*
X92980037Y-58114943D01*
X92970780Y-58138838D01*
X92970780Y-58144963D01*
X92967474Y-58173403D01*
X92966069Y-58179364D01*
X92966069Y-58179367D01*
X92966641Y-58183484D01*
X92969598Y-58204744D01*
X92970780Y-58221824D01*
X92970780Y-61347982D01*
X92969592Y-61365105D01*
X92968583Y-61372341D01*
X92970648Y-61417028D01*
X92970780Y-61422747D01*
X92970780Y-61440086D01*
X92971294Y-61445625D01*
X92972419Y-61455322D01*
X92973599Y-61480836D01*
X92976111Y-61486526D01*
X92984561Y-61513813D01*
X92985703Y-61519925D01*
X92985705Y-61519930D01*
X92999147Y-61541639D01*
X93007153Y-61556827D01*
X93017469Y-61580190D01*
X93021861Y-61584582D01*
X93039606Y-61606984D01*
X93042880Y-61612271D01*
X93042880Y-61612272D01*
X93063260Y-61627662D01*
X93076215Y-61638935D01*
X93738841Y-62301560D01*
X93954170Y-62516888D01*
X93965442Y-62529840D01*
X93969850Y-62535677D01*
X94002906Y-62565811D01*
X94007030Y-62569748D01*
X94019308Y-62582026D01*
X94019309Y-62582027D01*
X94023597Y-62585587D01*
X94031240Y-62591640D01*
X94050111Y-62608844D01*
X94055909Y-62611090D01*
X94081190Y-62624415D01*
X94086318Y-62627928D01*
X94111168Y-62633772D01*
X94127565Y-62638849D01*
X94151385Y-62648078D01*
X94157600Y-62648078D01*
X94185990Y-62651371D01*
X94192041Y-62652795D01*
X94214848Y-62649613D01*
X94217331Y-62649267D01*
X94234462Y-62648078D01*
X95301241Y-62648078D01*
X95368280Y-62667763D01*
X95414035Y-62720567D01*
X95423979Y-62789725D01*
X95409636Y-62832298D01*
X95234827Y-63146953D01*
X95229606Y-63155516D01*
X93221977Y-66166962D01*
X93212122Y-66179834D01*
X91492448Y-68145169D01*
X91478853Y-68156734D01*
X91479267Y-68157185D01*
X91470804Y-68164951D01*
X91447584Y-68195910D01*
X91441709Y-68203158D01*
X91434279Y-68211649D01*
X91434271Y-68211661D01*
X91432127Y-68215286D01*
X91424601Y-68226554D01*
X90699881Y-69192838D01*
X90684074Y-69210207D01*
X90673076Y-69220201D01*
X90673071Y-69220206D01*
X90663254Y-69239839D01*
X90661613Y-69242794D01*
X90648596Y-69269150D01*
X90648327Y-69269693D01*
X89670214Y-71225908D01*
X89640004Y-71264600D01*
X89229872Y-71616147D01*
X89166161Y-71644831D01*
X89097057Y-71634516D01*
X89044499Y-71588479D01*
X89025175Y-71521335D01*
X89044859Y-71454958D01*
X89048002Y-71450066D01*
X89048006Y-71450062D01*
X89107794Y-71319146D01*
X89128276Y-71176689D01*
X89107794Y-71034232D01*
X89048006Y-70903316D01*
X88953757Y-70794546D01*
X88832682Y-70716736D01*
X88832680Y-70716735D01*
X88832678Y-70716734D01*
X88832679Y-70716734D01*
X88694592Y-70676189D01*
X88694590Y-70676189D01*
X88550668Y-70676189D01*
X88550665Y-70676189D01*
X88412578Y-70716734D01*
X88291502Y-70794545D01*
X88197252Y-70903315D01*
X88197251Y-70903317D01*
X88137464Y-71034230D01*
X88137463Y-71034234D01*
X88128362Y-71097535D01*
X88099337Y-71161090D01*
X88048570Y-71196213D01*
X87445123Y-71418996D01*
X87375415Y-71423748D01*
X87314204Y-71390058D01*
X87308077Y-71383422D01*
X87282722Y-71359150D01*
X87247908Y-71298572D01*
X87251372Y-71228788D01*
X87292014Y-71171955D01*
X87297328Y-71168016D01*
X88458785Y-70354734D01*
X88478251Y-70343583D01*
X88493543Y-70336579D01*
X88515127Y-70308643D01*
X88519884Y-70302859D01*
X88543099Y-70276298D01*
X88543099Y-70276296D01*
X88543102Y-70276294D01*
X88543102Y-70276290D01*
X88543911Y-70274725D01*
X88544927Y-70273130D01*
X88546627Y-70269578D01*
X88547232Y-70267786D01*
X88547942Y-70266176D01*
X88547948Y-70266170D01*
X88554080Y-70231392D01*
X88555597Y-70224085D01*
X88563814Y-70189760D01*
X88563813Y-70189759D01*
X88563814Y-70189758D01*
X88563802Y-70187969D01*
X88565682Y-70165601D01*
X88758964Y-69069571D01*
X88764843Y-69047927D01*
X88770707Y-69032148D01*
X88766213Y-68997109D01*
X88765487Y-68989665D01*
X88763123Y-68954486D01*
X88763122Y-68954484D01*
X88762575Y-68952768D01*
X88762165Y-68950922D01*
X88760878Y-68947267D01*
X88760039Y-68945573D01*
X88759389Y-68943895D01*
X88759388Y-68943893D01*
X88759388Y-68943892D01*
X88739138Y-68914973D01*
X88735036Y-68908720D01*
X88716580Y-68878647D01*
X88715291Y-68877375D01*
X88700807Y-68860231D01*
X88517455Y-68598378D01*
X88166266Y-68096828D01*
X88166241Y-68096780D01*
X88131150Y-68046677D01*
X88131142Y-68046665D01*
X88114919Y-68023496D01*
X88114880Y-68023446D01*
X88104424Y-68008518D01*
X88093255Y-67989024D01*
X88086259Y-67973753D01*
X88086258Y-67973752D01*
X88058310Y-67952158D01*
X88052549Y-67947423D01*
X88025960Y-67924189D01*
X88025957Y-67924186D01*
X88024386Y-67923376D01*
X88022789Y-67922358D01*
X88019264Y-67920671D01*
X88017476Y-67920068D01*
X88015851Y-67919349D01*
X87981071Y-67913217D01*
X87973756Y-67911699D01*
X87939422Y-67903485D01*
X87937650Y-67903498D01*
X87915279Y-67901617D01*
X87886845Y-67896603D01*
X87865654Y-67892867D01*
X87803052Y-67861840D01*
X87767161Y-67801893D01*
X87769378Y-67732059D01*
X87799504Y-67683071D01*
X89989254Y-65493318D01*
X90017539Y-65472152D01*
X90018118Y-65471837D01*
X90026711Y-65458946D01*
X90032286Y-65451242D01*
X90035738Y-65446835D01*
X90035743Y-65446831D01*
X90043616Y-65433805D01*
X90046509Y-65429248D01*
X91040412Y-63938416D01*
X91057641Y-63917820D01*
X91065795Y-63909981D01*
X91078701Y-63871260D01*
X91079677Y-63868450D01*
X91093510Y-63830122D01*
X91093509Y-63830118D01*
X91095918Y-63823445D01*
X91098285Y-63812508D01*
X91823330Y-61637374D01*
X91832189Y-61621624D01*
X91830486Y-61620780D01*
X91837175Y-61607291D01*
X91837176Y-61607288D01*
X91843420Y-61579185D01*
X91846826Y-61566888D01*
X91848793Y-61560990D01*
X91848855Y-61560206D01*
X91851408Y-61543237D01*
X92342229Y-59334532D01*
X92348287Y-59315028D01*
X92351015Y-59308266D01*
X92351019Y-59308262D01*
X92355656Y-59275798D01*
X92357366Y-59266417D01*
X92359581Y-59256454D01*
X92360262Y-59249513D01*
X92360867Y-59239324D01*
X92492422Y-58318448D01*
X92492427Y-58318436D01*
X92496167Y-58292255D01*
X92610465Y-57492035D01*
X92611219Y-57487400D01*
X92618172Y-57449383D01*
X92614141Y-57436465D01*
X92609130Y-57411882D01*
X92607286Y-57393459D01*
X92606669Y-57381109D01*
X92606669Y-54497905D01*
X92609399Y-54479953D01*
X92610420Y-54462987D01*
X92616420Y-54431643D01*
X92617982Y-54426904D01*
X92616331Y-54417004D01*
X92614869Y-54389155D01*
X92615473Y-54379143D01*
X92613423Y-54374591D01*
X92604174Y-54344063D01*
X92588830Y-54252003D01*
X93468636Y-54252003D01*
X93468636Y-54579247D01*
X93475037Y-54638775D01*
X93475039Y-54638782D01*
X93525281Y-54773489D01*
X93525285Y-54773496D01*
X93611445Y-54888590D01*
X93611448Y-54888593D01*
X93726542Y-54974753D01*
X93726549Y-54974757D01*
X93861256Y-55024999D01*
X93861263Y-55025001D01*
X93920791Y-55031402D01*
X93920808Y-55031403D01*
X93968636Y-55031403D01*
X93968636Y-54252003D01*
X93468636Y-54252003D01*
X92588830Y-54252003D01*
X92546496Y-53998003D01*
X93468636Y-53998003D01*
X93968636Y-53998003D01*
X93968636Y-53218603D01*
X94222636Y-53218603D01*
X94222636Y-55031403D01*
X94270464Y-55031403D01*
X94270477Y-55031402D01*
X94332379Y-55024746D01*
X94358893Y-55024746D01*
X94420795Y-55031402D01*
X94420809Y-55031403D01*
X94468637Y-55031403D01*
X94468637Y-53218603D01*
X94420806Y-53218603D01*
X94358886Y-53225260D01*
X94332376Y-53225259D01*
X94270480Y-53218603D01*
X94222636Y-53218603D01*
X93968636Y-53218603D01*
X93920791Y-53218603D01*
X93861263Y-53225004D01*
X93861256Y-53225006D01*
X93726549Y-53275248D01*
X93726542Y-53275252D01*
X93611448Y-53361412D01*
X93611445Y-53361415D01*
X93525285Y-53476509D01*
X93525281Y-53476516D01*
X93475039Y-53611223D01*
X93475037Y-53611230D01*
X93468636Y-53670758D01*
X93468636Y-53998003D01*
X92546496Y-53998003D01*
X92363922Y-52902574D01*
X92372318Y-52833212D01*
X92416881Y-52779399D01*
X92464700Y-52760075D01*
X94472659Y-52406016D01*
X94542097Y-52413760D01*
X94565310Y-52426555D01*
X94577475Y-52435073D01*
X94621097Y-52489651D01*
X94628463Y-52515112D01*
X94736822Y-53129638D01*
X94729078Y-53199078D01*
X94722637Y-53208676D01*
X94722637Y-55031403D01*
X94770465Y-55031403D01*
X94770481Y-55031402D01*
X94830009Y-55025001D01*
X94830016Y-55024999D01*
X94964723Y-54974757D01*
X94964730Y-54974753D01*
X95079824Y-54888593D01*
X95079827Y-54888590D01*
X95165987Y-54773496D01*
X95165992Y-54773487D01*
X95194643Y-54696670D01*
X95236514Y-54640736D01*
X95259450Y-54627675D01*
X95261848Y-54626072D01*
X95261850Y-54626072D01*
X95276747Y-54616118D01*
X95343422Y-54595240D01*
X95410803Y-54613724D01*
X95414517Y-54616111D01*
X95429425Y-54626072D01*
X95429428Y-54626072D01*
X95429429Y-54626073D01*
X95437484Y-54627675D01*
X95458739Y-54631903D01*
X95732536Y-54631902D01*
X95761851Y-54626072D01*
X95795095Y-54603860D01*
X95817307Y-54570616D01*
X95823138Y-54541302D01*
X95823137Y-53708705D01*
X95817307Y-53679390D01*
X95795095Y-53646146D01*
X95761851Y-53623934D01*
X95761848Y-53623933D01*
X95759350Y-53622264D01*
X95714543Y-53568653D01*
X95705157Y-53534232D01*
X95472189Y-51631180D01*
X95483581Y-51562248D01*
X95528230Y-51511800D01*
X95557752Y-51492828D01*
X95652001Y-51384058D01*
X95711789Y-51253142D01*
X95732271Y-51110685D01*
X95711789Y-50968228D01*
X95652001Y-50837312D01*
X95557752Y-50728542D01*
X95436677Y-50650732D01*
X95436675Y-50650731D01*
X95436673Y-50650730D01*
X95436674Y-50650730D01*
X95298587Y-50610185D01*
X95298585Y-50610185D01*
X95154663Y-50610185D01*
X95154660Y-50610185D01*
X95016573Y-50650730D01*
X94895497Y-50728541D01*
X94801247Y-50837311D01*
X94801246Y-50837313D01*
X94741458Y-50968228D01*
X94720977Y-51110685D01*
X94741458Y-51253141D01*
X94801246Y-51384056D01*
X94801247Y-51384058D01*
X94895496Y-51492828D01*
X95016571Y-51570638D01*
X95025991Y-51573404D01*
X95084770Y-51611175D01*
X95113798Y-51674729D01*
X95114142Y-51677315D01*
X95178770Y-52205245D01*
X95167377Y-52274179D01*
X95120524Y-52326011D01*
X95053087Y-52344285D01*
X94986475Y-52323198D01*
X94942274Y-52270442D01*
X94931426Y-52245899D01*
X94931422Y-52245896D01*
X94930326Y-52244477D01*
X94929306Y-52242876D01*
X94926851Y-52239889D01*
X94925481Y-52238582D01*
X94924296Y-52237226D01*
X94895379Y-52216977D01*
X94889380Y-52212501D01*
X94861751Y-52190554D01*
X94860113Y-52189804D01*
X94840648Y-52178651D01*
X94695716Y-52077163D01*
X94682650Y-52063914D01*
X94681884Y-52064768D01*
X94670687Y-52054706D01*
X94670686Y-52054705D01*
X94647633Y-52042396D01*
X94634915Y-52034587D01*
X94632014Y-52032556D01*
X94632007Y-52032551D01*
X94628789Y-52031305D01*
X94615151Y-52025054D01*
X94592194Y-52012797D01*
X94592191Y-52012796D01*
X94581258Y-52010019D01*
X94570074Y-52008584D01*
X94544226Y-52011546D01*
X94529233Y-52012349D01*
X94503220Y-52012164D01*
X94492245Y-52014787D01*
X94481676Y-52018714D01*
X94465695Y-52029586D01*
X94417483Y-52049175D01*
X92407643Y-52403566D01*
X92338204Y-52395822D01*
X92283975Y-52351766D01*
X92263798Y-52301835D01*
X91853306Y-49838848D01*
X91851644Y-49816028D01*
X91851965Y-49799760D01*
X91835932Y-49767696D01*
X91832974Y-49761335D01*
X91818791Y-49728412D01*
X91818790Y-49728411D01*
X91818789Y-49728408D01*
X91818380Y-49727869D01*
X91806300Y-49708432D01*
X90953933Y-48003706D01*
X90841823Y-47779488D01*
X90833475Y-47757999D01*
X90833407Y-47757763D01*
X90833407Y-47757758D01*
X90815513Y-47726445D01*
X90812273Y-47720389D01*
X90806258Y-47708358D01*
X90802121Y-47702105D01*
X90802452Y-47701885D01*
X90797232Y-47694452D01*
X90795275Y-47691028D01*
X89994415Y-46289526D01*
X89822755Y-45989121D01*
X89816517Y-45971467D01*
X89815608Y-45971854D01*
X89809720Y-45957999D01*
X89809720Y-45957997D01*
X89794399Y-45937568D01*
X89785940Y-45924695D01*
X89784470Y-45922122D01*
X89781685Y-45919197D01*
X89772300Y-45908103D01*
X89743718Y-45869993D01*
X90321643Y-45869993D01*
X90342176Y-46117800D01*
X90342178Y-46117812D01*
X90403222Y-46358869D01*
X90503112Y-46586594D01*
X90639119Y-46794770D01*
X90639122Y-46794773D01*
X90807542Y-46977726D01*
X91003777Y-47130462D01*
X91222476Y-47248816D01*
X91457672Y-47329559D01*
X91702951Y-47370488D01*
X91951621Y-47370488D01*
X92196900Y-47329559D01*
X92432096Y-47248816D01*
X92650795Y-47130462D01*
X92847030Y-46977726D01*
X93015450Y-46794773D01*
X93151459Y-46586595D01*
X93251349Y-46358869D01*
X93312394Y-46117809D01*
X93317558Y-46055492D01*
X93332929Y-45869993D01*
X93332929Y-45869982D01*
X93312395Y-45622175D01*
X93312393Y-45622163D01*
X93251349Y-45381106D01*
X93151459Y-45153381D01*
X93015452Y-44945205D01*
X92970992Y-44896909D01*
X92847030Y-44762250D01*
X92650795Y-44609514D01*
X92650793Y-44609513D01*
X92650792Y-44609512D01*
X92432097Y-44491160D01*
X92432088Y-44491157D01*
X92196902Y-44410417D01*
X91951621Y-44369488D01*
X91702951Y-44369488D01*
X91457669Y-44410417D01*
X91222483Y-44491157D01*
X91222474Y-44491160D01*
X91003779Y-44609512D01*
X90827053Y-44747064D01*
X90807542Y-44762250D01*
X90798155Y-44772447D01*
X90639119Y-44945205D01*
X90503112Y-45153381D01*
X90403222Y-45381106D01*
X90342178Y-45622163D01*
X90342176Y-45622175D01*
X90321643Y-45869982D01*
X90321643Y-45869993D01*
X89743718Y-45869993D01*
X88290517Y-43932387D01*
X88281752Y-43915252D01*
X88281502Y-43915404D01*
X88273713Y-43902521D01*
X88273713Y-43902519D01*
X88257556Y-43886362D01*
X88246037Y-43873081D01*
X88245872Y-43872861D01*
X88245867Y-43872856D01*
X88240667Y-43868602D01*
X88231503Y-43860309D01*
X87597031Y-43225848D01*
X87017637Y-42646464D01*
X86991887Y-42608877D01*
X86989837Y-42604234D01*
X86989835Y-42604232D01*
X86988677Y-42602732D01*
X86987661Y-42601137D01*
X86985290Y-42598251D01*
X86983926Y-42596950D01*
X86982670Y-42595513D01*
X86953801Y-42575299D01*
X86947768Y-42570796D01*
X86920182Y-42548869D01*
X86920180Y-42548868D01*
X86918443Y-42548072D01*
X86899012Y-42536935D01*
X86877140Y-42521620D01*
X86809289Y-42474110D01*
X87722245Y-42474110D01*
X87752689Y-42646768D01*
X87822132Y-42807755D01*
X87926831Y-42948392D01*
X88004940Y-43015893D01*
X88004941Y-43015894D01*
X88865027Y-43618131D01*
X88865036Y-43618137D01*
X88955183Y-43668450D01*
X88955184Y-43668451D01*
X89123144Y-43718735D01*
X89123149Y-43718736D01*
X89298173Y-43728930D01*
X89298174Y-43728930D01*
X89470832Y-43698486D01*
X89631822Y-43629042D01*
X89772452Y-43524346D01*
X89839966Y-43446222D01*
X89868631Y-43405282D01*
X89868632Y-43405282D01*
X88685240Y-42576664D01*
X88685237Y-42576660D01*
X87861709Y-42000022D01*
X87833044Y-42040961D01*
X87782723Y-42131119D01*
X87732441Y-42299078D01*
X87732439Y-42299085D01*
X87722245Y-42474109D01*
X87722245Y-42474110D01*
X86809289Y-42474110D01*
X85547283Y-41590446D01*
X88148497Y-41590446D01*
X88947171Y-42149683D01*
X90155418Y-42995706D01*
X90184086Y-42954765D01*
X90184088Y-42954763D01*
X90234405Y-42864612D01*
X90234405Y-42864610D01*
X90284688Y-42696651D01*
X90284690Y-42696644D01*
X90294884Y-42521620D01*
X90294884Y-42521619D01*
X90264440Y-42348961D01*
X90194997Y-42187974D01*
X90090298Y-42047337D01*
X90012189Y-41979836D01*
X90012188Y-41979835D01*
X89152102Y-41377598D01*
X89152093Y-41377592D01*
X89061946Y-41327279D01*
X89061945Y-41327278D01*
X88893985Y-41276994D01*
X88893980Y-41276993D01*
X88718956Y-41266799D01*
X88718955Y-41266799D01*
X88546297Y-41297243D01*
X88385307Y-41366687D01*
X88244677Y-41471383D01*
X88177170Y-41549497D01*
X88148497Y-41590446D01*
X85547283Y-41590446D01*
X82587569Y-39518036D01*
X82543945Y-39463460D01*
X82536579Y-39438001D01*
X82531429Y-39408795D01*
X83414293Y-39408795D01*
X83414294Y-39408796D01*
X83682334Y-39596480D01*
X83682343Y-39596486D01*
X83734793Y-39625396D01*
X83734796Y-39625397D01*
X83873960Y-39661505D01*
X84017671Y-39656943D01*
X84154268Y-39612082D01*
X84272695Y-39530550D01*
X84312093Y-39485444D01*
X84312103Y-39485432D01*
X84339529Y-39446263D01*
X83701082Y-38999218D01*
X83701081Y-38999218D01*
X83414293Y-39408795D01*
X82531429Y-39408795D01*
X82395391Y-38637281D01*
X82762116Y-38637281D01*
X82766679Y-38780992D01*
X82811540Y-38917588D01*
X82893073Y-39036017D01*
X82893074Y-39036018D01*
X82938174Y-39075412D01*
X82938182Y-39075419D01*
X83206228Y-39263107D01*
X83206229Y-39263107D01*
X83493016Y-38853531D01*
X82854569Y-38406485D01*
X82827142Y-38445655D01*
X82827136Y-38445664D01*
X82798226Y-38498114D01*
X82798225Y-38498117D01*
X82762116Y-38637281D01*
X82395391Y-38637281D01*
X82318008Y-38198421D01*
X83000257Y-38198421D01*
X83654315Y-38656396D01*
X83654339Y-38656413D01*
X84485217Y-39238200D01*
X84512643Y-39199033D01*
X84512652Y-39199019D01*
X84542716Y-39144478D01*
X84557920Y-39122764D01*
X84598882Y-39075867D01*
X84598891Y-39075855D01*
X84626317Y-39036686D01*
X83926278Y-38546514D01*
X83926231Y-38546483D01*
X83141357Y-37996908D01*
X83113930Y-38036078D01*
X83113920Y-38036094D01*
X83083860Y-38090630D01*
X83068656Y-38112344D01*
X83027693Y-38159240D01*
X83000257Y-38198421D01*
X82318008Y-38198421D01*
X82287489Y-38025339D01*
X82286253Y-38018328D01*
X82293997Y-37948889D01*
X82306793Y-37925674D01*
X82650784Y-37434394D01*
X82732852Y-37317185D01*
X82787429Y-37273560D01*
X82856927Y-37266366D01*
X82905547Y-37286730D01*
X82950412Y-37318142D01*
X83231959Y-37515267D01*
X83232134Y-37515389D01*
X83232135Y-37515390D01*
X83238148Y-37519600D01*
X83238147Y-37519600D01*
X83238150Y-37519601D01*
X83297125Y-37560897D01*
X83340748Y-37615473D01*
X83347940Y-37684972D01*
X83319396Y-37744036D01*
X83314484Y-37749659D01*
X83314482Y-37749662D01*
X83287045Y-37788844D01*
X83941103Y-38246819D01*
X83941127Y-38246836D01*
X84772005Y-38828623D01*
X84799431Y-38789456D01*
X84799436Y-38789448D01*
X84828349Y-38736993D01*
X84828350Y-38736991D01*
X84864459Y-38597827D01*
X84859896Y-38454116D01*
X84815035Y-38317520D01*
X84815032Y-38317515D01*
X84768541Y-38249985D01*
X84746738Y-38183604D01*
X84749195Y-38157332D01*
X84749258Y-38154440D01*
X84749259Y-38154438D01*
X84749650Y-38136521D01*
X84770791Y-38069932D01*
X84824580Y-38025339D01*
X84828655Y-38023670D01*
X84845375Y-38017168D01*
X84866965Y-37996500D01*
X85024008Y-37772218D01*
X85036047Y-37744861D01*
X85036920Y-37704888D01*
X85022428Y-37667626D01*
X85001760Y-37646035D01*
X84960465Y-37617120D01*
X84916841Y-37562544D01*
X84909647Y-37493046D01*
X84930012Y-37444424D01*
X85970311Y-35958727D01*
X86024887Y-35915105D01*
X86050344Y-35907739D01*
X88077521Y-35550297D01*
X88146957Y-35558041D01*
G37*
%TD.AperFunction*%
%TA.AperFunction,Conductor*%
G36*
X62261181Y-68117471D02*
G01*
X62284398Y-68130268D01*
X62599019Y-68350568D01*
X62642644Y-68405145D01*
X62649837Y-68474643D01*
X62621718Y-68533220D01*
X62595701Y-68563325D01*
X62595696Y-68563332D01*
X62582324Y-68582428D01*
X63554420Y-69263096D01*
X64179670Y-69700900D01*
X64179671Y-69700900D01*
X64193039Y-69681810D01*
X64193049Y-69681794D01*
X64212438Y-69647056D01*
X64262298Y-69598110D01*
X64330706Y-69583891D01*
X64391838Y-69605913D01*
X64816160Y-69903026D01*
X64859785Y-69957603D01*
X64866979Y-70027101D01*
X64835456Y-70089456D01*
X64783730Y-70122410D01*
X64734485Y-70138583D01*
X64616058Y-70220114D01*
X64576661Y-70265219D01*
X64549224Y-70304400D01*
X65187671Y-70751445D01*
X65214252Y-70746758D01*
X65215875Y-70745461D01*
X65229798Y-70744017D01*
X65238255Y-70742526D01*
X65238361Y-70743129D01*
X65285372Y-70738254D01*
X65319306Y-70749774D01*
X65324701Y-70752530D01*
X65375447Y-70800558D01*
X65386787Y-70846556D01*
X65386818Y-70846551D01*
X65386897Y-70847002D01*
X65392172Y-70868396D01*
X65391183Y-70871307D01*
X65395736Y-70897131D01*
X66034184Y-71344179D01*
X66061610Y-71305012D01*
X66061615Y-71305004D01*
X66090528Y-71252549D01*
X66090530Y-71252546D01*
X66126638Y-71113383D01*
X66122075Y-70969672D01*
X66077214Y-70833076D01*
X66077211Y-70833071D01*
X66030719Y-70765540D01*
X66008916Y-70699160D01*
X66011374Y-70672870D01*
X66011633Y-70661039D01*
X66012310Y-70630020D01*
X65997818Y-70592758D01*
X65977150Y-70571167D01*
X65977149Y-70571166D01*
X65828393Y-70467005D01*
X65784768Y-70412428D01*
X65777401Y-70386963D01*
X65773135Y-70362769D01*
X65704987Y-69976263D01*
X65703184Y-69959181D01*
X65702922Y-69951898D01*
X65702923Y-69951893D01*
X65693122Y-69908220D01*
X65692009Y-69902659D01*
X65688995Y-69885559D01*
X65688992Y-69885551D01*
X65687532Y-69880211D01*
X65684734Y-69870834D01*
X65679144Y-69845921D01*
X65679142Y-69845918D01*
X65679142Y-69845917D01*
X65675685Y-69840758D01*
X65662617Y-69815339D01*
X65660433Y-69809523D01*
X65660431Y-69809521D01*
X65660431Y-69809520D01*
X65643423Y-69790473D01*
X65632900Y-69776904D01*
X65618689Y-69755694D01*
X65618688Y-69755693D01*
X65618689Y-69755693D01*
X65613600Y-69752130D01*
X65592235Y-69733149D01*
X65588096Y-69728514D01*
X65588095Y-69728513D01*
X65588094Y-69728512D01*
X65565340Y-69716889D01*
X65550640Y-69708046D01*
X64273438Y-68813739D01*
X64229815Y-68759163D01*
X64222622Y-68689664D01*
X64254144Y-68627310D01*
X64314374Y-68591896D01*
X64384189Y-68594667D01*
X64406559Y-68604776D01*
X69107985Y-71319146D01*
X69622063Y-71615949D01*
X69670279Y-71666516D01*
X69682179Y-71701802D01*
X69852403Y-72667134D01*
X69844659Y-72736574D01*
X69831861Y-72759792D01*
X69438873Y-73321026D01*
X69384296Y-73364651D01*
X69358830Y-73372018D01*
X68445146Y-73533111D01*
X68375706Y-73525366D01*
X68352493Y-73512571D01*
X68167122Y-73382776D01*
X68123496Y-73328199D01*
X68116302Y-73258701D01*
X68144855Y-73199625D01*
X68149770Y-73193997D01*
X68149781Y-73193983D01*
X68177207Y-73154814D01*
X67477168Y-72664642D01*
X67477121Y-72664611D01*
X66692247Y-72115036D01*
X66664820Y-72154206D01*
X66664814Y-72154215D01*
X66635904Y-72206665D01*
X66635903Y-72206668D01*
X66599794Y-72345832D01*
X66604357Y-72489543D01*
X66649218Y-72626139D01*
X66695713Y-72693674D01*
X66717515Y-72760055D01*
X66715057Y-72786349D01*
X66714603Y-72807137D01*
X66693460Y-72873730D01*
X66639669Y-72918321D01*
X66635582Y-72919995D01*
X66618882Y-72926490D01*
X66618878Y-72926492D01*
X66597288Y-72947160D01*
X66597286Y-72947164D01*
X66440246Y-73171441D01*
X66428206Y-73198800D01*
X66428206Y-73198801D01*
X66427333Y-73238771D01*
X66428601Y-73242030D01*
X66441826Y-73276034D01*
X66462494Y-73297625D01*
X67144518Y-73775182D01*
X67171876Y-73787221D01*
X67198524Y-73787803D01*
X67211846Y-73788094D01*
X67211846Y-73788093D01*
X67211848Y-73788094D01*
X67211849Y-73788093D01*
X67223878Y-73785973D01*
X67224325Y-73788512D01*
X67276562Y-73784041D01*
X67317259Y-73800187D01*
X69011421Y-74850998D01*
X69058015Y-74903061D01*
X69069065Y-74972052D01*
X69068798Y-74974018D01*
X69066977Y-74986684D01*
X69066977Y-74986685D01*
X69087458Y-75129142D01*
X69124505Y-75210261D01*
X69147247Y-75260059D01*
X69241496Y-75368829D01*
X69362571Y-75446639D01*
X69362574Y-75446640D01*
X69362573Y-75446640D01*
X69500660Y-75487185D01*
X69500662Y-75487186D01*
X69500663Y-75487186D01*
X69644586Y-75487186D01*
X69644586Y-75487185D01*
X69782677Y-75446639D01*
X69903752Y-75368829D01*
X69998001Y-75260059D01*
X70057789Y-75129143D01*
X70078271Y-74986686D01*
X70057789Y-74844229D01*
X69998001Y-74713313D01*
X69903752Y-74604543D01*
X69782677Y-74526733D01*
X69782675Y-74526732D01*
X69782673Y-74526731D01*
X69782674Y-74526731D01*
X69644587Y-74486186D01*
X69644585Y-74486186D01*
X69500663Y-74486186D01*
X69500660Y-74486186D01*
X69362575Y-74526730D01*
X69362568Y-74526733D01*
X69335579Y-74544078D01*
X69268539Y-74563760D01*
X69203183Y-74545136D01*
X68500990Y-74109598D01*
X68454395Y-74057534D01*
X68443345Y-73988543D01*
X68471348Y-73924531D01*
X68529514Y-73885820D01*
X68544809Y-73882108D01*
X69518485Y-73710438D01*
X69540835Y-73708558D01*
X69557660Y-73708672D01*
X69589040Y-73692469D01*
X69595735Y-73689265D01*
X69628047Y-73674984D01*
X69628049Y-73674981D01*
X69629473Y-73673882D01*
X69631068Y-73672865D01*
X69634060Y-73670406D01*
X69635366Y-73669037D01*
X69636717Y-73667854D01*
X69636723Y-73667852D01*
X69656982Y-73638917D01*
X69661434Y-73632952D01*
X69683391Y-73605312D01*
X69683391Y-73605309D01*
X69684140Y-73603676D01*
X69695302Y-73584192D01*
X69716879Y-73553378D01*
X69762115Y-73488775D01*
X80255030Y-73488775D01*
X80290483Y-73660474D01*
X80332757Y-73754684D01*
X80332761Y-73754692D01*
X80357742Y-73797960D01*
X80357743Y-73797960D01*
X81202118Y-73310461D01*
X81202118Y-73310460D01*
X80827119Y-72660942D01*
X80827118Y-72660942D01*
X80588983Y-72798430D01*
X80505274Y-72858876D01*
X80505266Y-72858883D01*
X80388717Y-72989848D01*
X80305508Y-73144168D01*
X80260128Y-73313523D01*
X80255030Y-73488775D01*
X69762115Y-73488775D01*
X70184051Y-72886199D01*
X70198533Y-72869059D01*
X70210509Y-72857243D01*
X70211853Y-72853029D01*
X70221237Y-72823606D01*
X70223723Y-72816558D01*
X70236456Y-72783653D01*
X70236454Y-72783643D01*
X70236682Y-72781879D01*
X70237094Y-72780021D01*
X70237472Y-72776152D01*
X70237427Y-72774255D01*
X70237546Y-72772476D01*
X70237548Y-72772472D01*
X70231418Y-72737714D01*
X70230341Y-72730300D01*
X70228174Y-72711390D01*
X70226325Y-72695254D01*
X70226324Y-72695252D01*
X70225695Y-72693557D01*
X70219813Y-72671899D01*
X70211952Y-72627322D01*
X70100056Y-71992769D01*
X70107800Y-71923331D01*
X70151855Y-71869101D01*
X70218236Y-71847298D01*
X70250057Y-71850412D01*
X70250689Y-71850558D01*
X70250691Y-71850559D01*
X70271205Y-71855293D01*
X70285377Y-71859734D01*
X70287944Y-71860415D01*
X70287948Y-71860417D01*
X70296376Y-71861594D01*
X70307106Y-71863578D01*
X71062898Y-72037996D01*
X73394192Y-72576001D01*
X73543992Y-72610571D01*
X73561560Y-72618006D01*
X73561728Y-72617520D01*
X73575960Y-72622431D01*
X73575962Y-72622432D01*
X73599596Y-72624580D01*
X73616256Y-72627248D01*
X73617378Y-72627507D01*
X73623218Y-72627419D01*
X73636268Y-72627913D01*
X76377717Y-72877129D01*
X76406746Y-72883336D01*
X76414099Y-72885861D01*
X76457985Y-72879109D01*
X76501760Y-72872448D01*
X76501760Y-72872447D01*
X76516092Y-72870267D01*
X76516861Y-72870051D01*
X79501051Y-72410942D01*
X81260131Y-72410942D01*
X81635130Y-73060461D01*
X81635131Y-73060461D01*
X82113859Y-72784067D01*
X83152653Y-72784067D01*
X83180077Y-72823232D01*
X83180093Y-72823252D01*
X83221054Y-72870149D01*
X83236258Y-72891862D01*
X83266315Y-72946393D01*
X83293753Y-72985578D01*
X83843117Y-72600909D01*
X84285953Y-72600909D01*
X84427053Y-72802420D01*
X85065500Y-72355375D01*
X85038067Y-72316197D01*
X85038060Y-72316189D01*
X84997096Y-72269289D01*
X84981891Y-72247574D01*
X84951838Y-72193050D01*
X84951833Y-72193043D01*
X84924399Y-72153863D01*
X84285954Y-72600908D01*
X84285953Y-72600909D01*
X83843117Y-72600909D01*
X83932200Y-72538532D01*
X83791100Y-72337021D01*
X83152653Y-72784067D01*
X82113859Y-72784067D01*
X82479504Y-72572962D01*
X82479504Y-72572961D01*
X82454522Y-72529690D01*
X82454520Y-72529686D01*
X82394068Y-72445968D01*
X82280840Y-72345206D01*
X82914511Y-72345206D01*
X82950620Y-72484370D01*
X82950621Y-72484373D01*
X82979527Y-72536816D01*
X83006965Y-72576001D01*
X83556328Y-72191332D01*
X83999165Y-72191332D01*
X84140265Y-72392844D01*
X84140266Y-72392844D01*
X84778711Y-71945800D01*
X84751278Y-71906621D01*
X84751271Y-71906613D01*
X84710312Y-71859719D01*
X84695107Y-71838004D01*
X84665050Y-71783473D01*
X84665045Y-71783466D01*
X84637611Y-71744286D01*
X83999166Y-72191331D01*
X83999165Y-72191332D01*
X83556328Y-72191332D01*
X83645411Y-72128955D01*
X83358624Y-71719380D01*
X83090569Y-71907075D01*
X83045469Y-71946469D01*
X83045468Y-71946470D01*
X82963935Y-72064899D01*
X82919074Y-72201495D01*
X82914511Y-72345206D01*
X82280840Y-72345206D01*
X82263094Y-72329414D01*
X82108772Y-72246203D01*
X81939425Y-72200827D01*
X81764173Y-72195728D01*
X81592474Y-72231182D01*
X81498264Y-72273456D01*
X81498256Y-72273460D01*
X81260131Y-72410941D01*
X81260131Y-72410942D01*
X79501051Y-72410942D01*
X79701679Y-72380076D01*
X79720116Y-72378636D01*
X79733238Y-72378592D01*
X79733243Y-72378593D01*
X79762754Y-72371214D01*
X79773972Y-72368955D01*
X79781732Y-72367761D01*
X79783087Y-72367381D01*
X79798506Y-72362277D01*
X79899531Y-72337021D01*
X81745510Y-71875531D01*
X81797107Y-71873714D01*
X81982750Y-71906446D01*
X82004408Y-71912328D01*
X82020170Y-71918185D01*
X82020173Y-71918186D01*
X82055200Y-71913693D01*
X82062612Y-71912970D01*
X82097840Y-71910601D01*
X82097848Y-71910595D01*
X82099521Y-71910063D01*
X82101385Y-71909650D01*
X82105074Y-71908349D01*
X82106762Y-71907513D01*
X82108426Y-71906868D01*
X82108429Y-71906868D01*
X82137351Y-71886615D01*
X82143586Y-71882524D01*
X82173675Y-71864058D01*
X82173676Y-71864055D01*
X82174936Y-71862780D01*
X82192080Y-71848294D01*
X82584253Y-71573691D01*
X83566688Y-71573691D01*
X83853476Y-71983267D01*
X84491923Y-71536222D01*
X84464490Y-71497045D01*
X84425090Y-71451937D01*
X84306663Y-71370405D01*
X84170065Y-71325544D01*
X84170068Y-71325544D01*
X84026355Y-71320981D01*
X83887191Y-71357090D01*
X83887188Y-71357091D01*
X83834738Y-71386001D01*
X83834729Y-71386007D01*
X83566688Y-71573690D01*
X83566688Y-71573691D01*
X82584253Y-71573691D01*
X83144366Y-71181495D01*
X85441364Y-71181495D01*
X85468788Y-71220660D01*
X85468804Y-71220680D01*
X85509765Y-71267577D01*
X85524969Y-71289290D01*
X85555026Y-71343821D01*
X85582464Y-71383006D01*
X86428976Y-70790273D01*
X87067422Y-70343227D01*
X87039989Y-70304049D01*
X87039982Y-70304041D01*
X86999023Y-70257147D01*
X86983818Y-70235432D01*
X86953761Y-70180901D01*
X86953756Y-70180894D01*
X86926323Y-70141715D01*
X86116783Y-70708562D01*
X86116781Y-70708562D01*
X85441364Y-71181495D01*
X83144366Y-71181495D01*
X83771123Y-70742634D01*
X85203222Y-70742634D01*
X85239331Y-70881798D01*
X85239332Y-70881801D01*
X85268238Y-70934244D01*
X85295676Y-70973429D01*
X85934122Y-70526383D01*
X85647335Y-70116808D01*
X85379280Y-70304503D01*
X85334180Y-70343897D01*
X85334179Y-70343898D01*
X85252646Y-70462327D01*
X85207785Y-70598923D01*
X85203222Y-70742634D01*
X83771123Y-70742634D01*
X84872959Y-69971119D01*
X85855399Y-69971119D01*
X86142187Y-70380695D01*
X86780634Y-69933650D01*
X86753201Y-69894473D01*
X86713801Y-69849365D01*
X86595374Y-69767833D01*
X86458776Y-69722972D01*
X86458779Y-69722972D01*
X86315066Y-69718409D01*
X86175902Y-69754518D01*
X86175899Y-69754519D01*
X86123449Y-69783429D01*
X86123440Y-69783435D01*
X85855399Y-69971118D01*
X85855399Y-69971119D01*
X84872959Y-69971119D01*
X86862532Y-68578003D01*
X86895988Y-68561439D01*
X86901080Y-68559814D01*
X86901088Y-68559814D01*
X86906628Y-68556414D01*
X86934590Y-68543719D01*
X86940793Y-68541787D01*
X86946822Y-68535756D01*
X86969658Y-68517744D01*
X86976930Y-68513283D01*
X86980258Y-68507694D01*
X86999108Y-68483470D01*
X87273808Y-68208770D01*
X87335129Y-68175287D01*
X87383016Y-68174337D01*
X87785149Y-68245241D01*
X87847752Y-68276267D01*
X87865191Y-68296232D01*
X88314456Y-68937846D01*
X88365809Y-69011186D01*
X88388136Y-69077392D01*
X88386350Y-69103845D01*
X88222063Y-70035456D01*
X88191035Y-70098058D01*
X88171072Y-70115495D01*
X87423861Y-70638711D01*
X87357655Y-70661039D01*
X87289887Y-70644030D01*
X87244138Y-70596991D01*
X87240544Y-70590471D01*
X87213111Y-70551292D01*
X86403571Y-71118139D01*
X86403569Y-71118139D01*
X85728152Y-71591072D01*
X85755576Y-71630237D01*
X85755585Y-71630249D01*
X85794986Y-71675357D01*
X85913413Y-71756889D01*
X86050011Y-71801750D01*
X86050008Y-71801750D01*
X86193719Y-71806313D01*
X86273081Y-71785721D01*
X86342915Y-71787937D01*
X86366767Y-71799233D01*
X86369460Y-71800280D01*
X86369461Y-71800281D01*
X86384971Y-71806313D01*
X86386159Y-71806775D01*
X86441505Y-71849419D01*
X86465010Y-71915217D01*
X86465185Y-71919635D01*
X86465576Y-71937549D01*
X86465577Y-71937551D01*
X86477615Y-71964908D01*
X86634659Y-72189189D01*
X86656249Y-72209858D01*
X86693512Y-72224350D01*
X86733484Y-72223477D01*
X86760841Y-72211439D01*
X87215959Y-71892760D01*
X87244124Y-71878016D01*
X88168128Y-71536889D01*
X88237836Y-71532138D01*
X88283395Y-71555040D01*
X88284040Y-71554037D01*
X88291500Y-71558831D01*
X88291501Y-71558832D01*
X88412576Y-71636642D01*
X88412579Y-71636643D01*
X88412578Y-71636643D01*
X88550665Y-71677188D01*
X88550667Y-71677189D01*
X88550668Y-71677189D01*
X88694591Y-71677189D01*
X88694591Y-71677188D01*
X88752981Y-71660044D01*
X88841192Y-71634144D01*
X88841619Y-71635598D01*
X88901063Y-71627048D01*
X88964621Y-71656068D01*
X89002400Y-71714843D01*
X89002405Y-71784713D01*
X88964635Y-71843494D01*
X88964124Y-71843934D01*
X87952106Y-72711390D01*
X87935205Y-72723572D01*
X85431103Y-74226040D01*
X85427524Y-74228107D01*
X84444552Y-74774199D01*
X84444551Y-74774199D01*
X83544021Y-75274478D01*
X83475858Y-75289827D01*
X83410218Y-75265888D01*
X83367940Y-75210261D01*
X83362448Y-75140607D01*
X83364023Y-75134007D01*
X83383681Y-75060643D01*
X83375628Y-74943945D01*
X83360801Y-74906706D01*
X83350159Y-74879976D01*
X83323328Y-74833503D01*
X83306855Y-74765603D01*
X83329707Y-74699576D01*
X83359589Y-74669929D01*
X84871327Y-73611398D01*
X84928168Y-73553378D01*
X84950276Y-73501883D01*
X84993095Y-73449226D01*
X85154153Y-73336453D01*
X85174823Y-73314862D01*
X85176535Y-73310461D01*
X85189315Y-73277602D01*
X85189315Y-73277600D01*
X85188176Y-73225417D01*
X85189734Y-73225382D01*
X85193505Y-73169525D01*
X85207724Y-73142078D01*
X85254218Y-73074544D01*
X85254219Y-73074543D01*
X85299080Y-72937947D01*
X85303643Y-72794236D01*
X85267534Y-72655072D01*
X85267533Y-72655070D01*
X85238622Y-72602619D01*
X85211189Y-72563440D01*
X84572741Y-73010486D01*
X84568505Y-73034512D01*
X84571266Y-73042699D01*
X84554253Y-73110466D01*
X84518479Y-73149194D01*
X84513564Y-73152635D01*
X84447357Y-73174958D01*
X84391111Y-73160834D01*
X84364677Y-73156174D01*
X83726229Y-73603220D01*
X83721993Y-73627244D01*
X83724753Y-73635425D01*
X83707745Y-73703193D01*
X83671975Y-73741922D01*
X82967779Y-74235007D01*
X82901573Y-74257334D01*
X82864562Y-74253207D01*
X82814208Y-74239715D01*
X82697510Y-74247767D01*
X82633543Y-74273236D01*
X82633533Y-74273241D01*
X81753213Y-74781495D01*
X81753209Y-74781497D01*
X81753209Y-74781498D01*
X81699168Y-74824161D01*
X81699167Y-74824161D01*
X81699166Y-74824163D01*
X81633843Y-74921199D01*
X81633842Y-74921200D01*
X81603569Y-75034185D01*
X81603569Y-75034190D01*
X81611622Y-75150889D01*
X81637090Y-75214855D01*
X81920346Y-75705468D01*
X81920351Y-75705476D01*
X81963015Y-75759518D01*
X82060052Y-75824841D01*
X82116099Y-75839859D01*
X82175756Y-75876221D01*
X82206286Y-75939068D01*
X82197992Y-76008444D01*
X82153507Y-76062322D01*
X82145524Y-76067294D01*
X81430873Y-76475666D01*
X81389739Y-76490317D01*
X79952263Y-76729915D01*
X79944214Y-76730987D01*
X78061442Y-76919261D01*
X77992777Y-76906344D01*
X77941995Y-76858355D01*
X77925219Y-76790529D01*
X77947776Y-76724401D01*
X78002504Y-76680965D01*
X78008841Y-76678595D01*
X78024162Y-76673335D01*
X78212094Y-76608818D01*
X78430793Y-76490464D01*
X78627028Y-76337728D01*
X78795448Y-76154775D01*
X78931457Y-75946597D01*
X79031347Y-75718871D01*
X79092392Y-75477811D01*
X79094975Y-75446639D01*
X79112927Y-75229995D01*
X79112927Y-75229984D01*
X79092393Y-74982177D01*
X79092391Y-74982165D01*
X79031347Y-74741108D01*
X78931457Y-74513383D01*
X78795450Y-74305207D01*
X78747580Y-74253207D01*
X78727111Y-74230972D01*
X80607743Y-74230972D01*
X80632728Y-74274246D01*
X80632734Y-74274254D01*
X80693181Y-74357967D01*
X80824155Y-74474521D01*
X80978477Y-74557732D01*
X81147824Y-74603108D01*
X81323076Y-74608207D01*
X81494775Y-74572753D01*
X81588985Y-74530479D01*
X81588993Y-74530475D01*
X82498266Y-74005505D01*
X82581975Y-73945059D01*
X82581983Y-73945052D01*
X82698532Y-73814087D01*
X82781741Y-73659767D01*
X82827121Y-73490412D01*
X82832219Y-73315160D01*
X82807128Y-73193644D01*
X83439441Y-73193644D01*
X83466865Y-73232809D01*
X83466874Y-73232820D01*
X83507844Y-73279726D01*
X83523049Y-73301441D01*
X83553104Y-73355969D01*
X83580542Y-73395154D01*
X84218987Y-72948110D01*
X84218988Y-72948109D01*
X84077888Y-72746597D01*
X83439441Y-73193644D01*
X82807128Y-73193644D01*
X82796766Y-73143461D01*
X82754497Y-73049260D01*
X82754495Y-73049256D01*
X82729505Y-73005974D01*
X81488573Y-73722427D01*
X81488569Y-73722428D01*
X80607743Y-74230972D01*
X78727111Y-74230972D01*
X78627028Y-74122252D01*
X78430793Y-73969516D01*
X78430791Y-73969515D01*
X78430790Y-73969514D01*
X78212095Y-73851162D01*
X78212086Y-73851159D01*
X77976900Y-73770419D01*
X77731619Y-73729490D01*
X77482949Y-73729490D01*
X77237667Y-73770419D01*
X77002481Y-73851159D01*
X77002472Y-73851162D01*
X76783777Y-73969514D01*
X76587541Y-74122251D01*
X76419117Y-74305207D01*
X76283110Y-74513383D01*
X76183220Y-74741108D01*
X76122176Y-74982165D01*
X76122174Y-74982177D01*
X76101641Y-75229984D01*
X76101641Y-75229995D01*
X76122174Y-75477802D01*
X76122176Y-75477814D01*
X76183220Y-75718871D01*
X76283110Y-75946596D01*
X76419117Y-76154772D01*
X76419120Y-76154775D01*
X76587540Y-76337728D01*
X76783775Y-76490464D01*
X77002474Y-76608818D01*
X77237670Y-76689561D01*
X77482949Y-76730490D01*
X77488007Y-76731334D01*
X77487689Y-76733239D01*
X77545093Y-76755375D01*
X77586345Y-76811767D01*
X77590560Y-76881509D01*
X77556401Y-76942459D01*
X77494712Y-76975266D01*
X77482032Y-76977200D01*
X77449786Y-76980425D01*
X77430568Y-76980850D01*
X72926291Y-76730617D01*
X72905287Y-76727633D01*
X69681125Y-75983604D01*
X69656208Y-75974976D01*
X65429036Y-73985698D01*
X65401137Y-73967649D01*
X63713969Y-72521511D01*
X63702903Y-72508635D01*
X63702141Y-72509335D01*
X63694370Y-72500867D01*
X63661717Y-72476377D01*
X63655422Y-72471327D01*
X63645251Y-72462609D01*
X63645246Y-72462606D01*
X63645245Y-72462605D01*
X63643435Y-72461559D01*
X63631072Y-72453394D01*
X63105269Y-72059051D01*
X63101198Y-72055998D01*
X62388091Y-71521169D01*
X62388091Y-71521168D01*
X62356617Y-71497563D01*
X62314795Y-71441592D01*
X62309873Y-71371896D01*
X62343413Y-71310603D01*
X62404767Y-71277173D01*
X62413908Y-71276194D01*
X62424292Y-71274362D01*
X62424294Y-71274363D01*
X62537339Y-71254430D01*
X62636749Y-71197036D01*
X62638268Y-71195377D01*
X62640477Y-71194042D01*
X62644146Y-71191099D01*
X62644539Y-71191589D01*
X62698072Y-71159250D01*
X62767914Y-71161190D01*
X62800812Y-71177575D01*
X63186104Y-71447362D01*
X63199449Y-71458158D01*
X63204798Y-71463136D01*
X63242596Y-71487080D01*
X63247362Y-71490256D01*
X63261549Y-71500190D01*
X63266417Y-71502967D01*
X63274972Y-71507588D01*
X63283977Y-71513293D01*
X63296408Y-71521168D01*
X63296546Y-71521255D01*
X63302644Y-71522459D01*
X63329859Y-71531194D01*
X63335514Y-71533761D01*
X63361003Y-71535202D01*
X63378033Y-71537354D01*
X63403094Y-71542306D01*
X63409214Y-71541226D01*
X63437743Y-71539541D01*
X63443949Y-71539892D01*
X63468244Y-71532024D01*
X63484900Y-71527880D01*
X63636229Y-71501197D01*
X63705666Y-71508941D01*
X63723056Y-71517898D01*
X64515196Y-72008621D01*
X64515197Y-72008621D01*
X64515198Y-72008622D01*
X64540597Y-72018468D01*
X64590928Y-72037979D01*
X64624478Y-72037986D01*
X64691511Y-72057685D01*
X64695523Y-72060378D01*
X64855807Y-72172610D01*
X64883165Y-72184649D01*
X64909813Y-72185231D01*
X64923135Y-72185522D01*
X64923135Y-72185521D01*
X64923137Y-72185522D01*
X64960400Y-72171030D01*
X64960399Y-72171030D01*
X64971781Y-72166604D01*
X64972345Y-72168056D01*
X65026124Y-72152496D01*
X65056779Y-72156470D01*
X65136138Y-72177060D01*
X65279849Y-72172498D01*
X65416446Y-72127637D01*
X65534873Y-72046105D01*
X65574271Y-72000999D01*
X65574281Y-72000987D01*
X65601707Y-71961818D01*
X65523379Y-71906972D01*
X66837935Y-71906972D01*
X67491993Y-72364947D01*
X67492017Y-72364964D01*
X68322895Y-72946751D01*
X68350321Y-72907584D01*
X68350330Y-72907570D01*
X68380394Y-72853029D01*
X68395598Y-72831315D01*
X68436560Y-72784418D01*
X68436569Y-72784406D01*
X68463995Y-72745237D01*
X67763956Y-72255065D01*
X67763909Y-72255034D01*
X67528398Y-72090127D01*
X67971236Y-72090127D01*
X68609683Y-72537174D01*
X68637109Y-72498007D01*
X68637114Y-72497999D01*
X68666027Y-72445544D01*
X68666028Y-72445542D01*
X68702137Y-72306378D01*
X68697574Y-72162667D01*
X68652713Y-72026071D01*
X68571180Y-71907642D01*
X68571179Y-71907641D01*
X68526079Y-71868247D01*
X68258023Y-71680552D01*
X67971236Y-72090127D01*
X67528398Y-72090127D01*
X66979035Y-71705459D01*
X66951608Y-71744629D01*
X66951598Y-71744645D01*
X66921538Y-71799181D01*
X66906334Y-71820895D01*
X66865371Y-71867791D01*
X66837935Y-71906972D01*
X65523379Y-71906972D01*
X64963260Y-71514773D01*
X64938753Y-71519095D01*
X64932943Y-71523739D01*
X64863444Y-71530925D01*
X64820655Y-71514398D01*
X64815546Y-71511233D01*
X64768923Y-71459194D01*
X64757835Y-71390210D01*
X64758579Y-71388281D01*
X64755195Y-71369087D01*
X64116747Y-70922040D01*
X64107650Y-70935033D01*
X64053072Y-70978658D01*
X63983574Y-70985850D01*
X63940772Y-70969320D01*
X63896356Y-70941804D01*
X63895303Y-70941145D01*
X63864499Y-70921632D01*
X63851152Y-70913177D01*
X63851150Y-70913176D01*
X63851148Y-70913175D01*
X63851149Y-70913175D01*
X63833491Y-70909686D01*
X63812717Y-70903658D01*
X63795940Y-70897155D01*
X63795938Y-70897154D01*
X63795935Y-70897154D01*
X63782139Y-70897151D01*
X63758140Y-70894800D01*
X63744607Y-70892126D01*
X63744601Y-70892126D01*
X63726879Y-70895250D01*
X63705335Y-70897132D01*
X63687334Y-70897128D01*
X63687332Y-70897129D01*
X63674455Y-70902113D01*
X63651227Y-70908590D01*
X63524765Y-70930888D01*
X63455326Y-70923144D01*
X63432109Y-70910346D01*
X63151667Y-70713976D01*
X64262435Y-70713976D01*
X64916493Y-71171951D01*
X64916517Y-71171968D01*
X65747395Y-71753755D01*
X65774821Y-71714588D01*
X65774826Y-71714581D01*
X65804887Y-71660044D01*
X65820091Y-71638330D01*
X65861061Y-71591422D01*
X65861070Y-71591411D01*
X65888496Y-71552242D01*
X65810166Y-71497395D01*
X67124723Y-71497395D01*
X67763170Y-71944440D01*
X67763171Y-71944440D01*
X68049959Y-71534863D01*
X68049959Y-71534862D01*
X67781919Y-71347179D01*
X67781910Y-71347173D01*
X67729460Y-71318263D01*
X67729457Y-71318262D01*
X67590292Y-71282153D01*
X67446582Y-71286716D01*
X67309985Y-71331577D01*
X67191557Y-71413109D01*
X67152160Y-71458214D01*
X67124723Y-71497395D01*
X65810166Y-71497395D01*
X65188457Y-71062070D01*
X65188410Y-71062039D01*
X64403536Y-70512464D01*
X64376109Y-70551634D01*
X64376099Y-70551650D01*
X64346043Y-70606179D01*
X64330839Y-70627893D01*
X64289871Y-70674795D01*
X64262435Y-70713976D01*
X63151667Y-70713976D01*
X63063367Y-70652147D01*
X63019742Y-70597570D01*
X63012375Y-70572107D01*
X63004234Y-70525937D01*
X63011977Y-70456502D01*
X63056033Y-70402272D01*
X63122414Y-70380469D01*
X63161915Y-70385617D01*
X63186579Y-70393001D01*
X63186590Y-70393003D01*
X63355778Y-70402857D01*
X63355780Y-70402856D01*
X63522679Y-70373428D01*
X63522684Y-70373426D01*
X63678307Y-70306298D01*
X63814251Y-70205093D01*
X63879513Y-70129573D01*
X63892883Y-70110477D01*
X63892883Y-70110476D01*
X62914280Y-69425252D01*
X62914277Y-69425248D01*
X62295538Y-68992004D01*
X62282159Y-69011111D01*
X62233524Y-69098252D01*
X62233523Y-69098255D01*
X62184916Y-69260617D01*
X62175061Y-69429808D01*
X62175062Y-69429810D01*
X62204492Y-69596717D01*
X62204492Y-69596718D01*
X62271617Y-69752334D01*
X62271618Y-69752337D01*
X62286996Y-69772992D01*
X62311241Y-69838521D01*
X62296209Y-69906754D01*
X62246674Y-69956029D01*
X62209065Y-69969157D01*
X62176017Y-69974984D01*
X62106578Y-69967240D01*
X62083364Y-69954444D01*
X62069719Y-69944890D01*
X62069718Y-69944889D01*
X60864106Y-69100713D01*
X60820481Y-69046136D01*
X60813287Y-68976638D01*
X60844810Y-68914283D01*
X60858686Y-68903048D01*
X60858652Y-68903010D01*
X60867225Y-68895354D01*
X60886272Y-68878344D01*
X60899836Y-68867825D01*
X60921050Y-68853613D01*
X60924615Y-68848520D01*
X60943595Y-68827157D01*
X60948235Y-68823014D01*
X60959856Y-68800261D01*
X60968697Y-68785564D01*
X61306851Y-68302637D01*
X61361427Y-68259014D01*
X61386889Y-68251647D01*
X62191743Y-68109727D01*
X62261181Y-68117471D01*
G37*
%TD.AperFunction*%
%TA.AperFunction,Conductor*%
G36*
X66968775Y-41575734D02*
G01*
X67011966Y-41630655D01*
X67018607Y-41700208D01*
X66986591Y-41762311D01*
X66963187Y-41781503D01*
X66693218Y-41952456D01*
X66690073Y-41954158D01*
X66687948Y-41955646D01*
X66683497Y-41958620D01*
X66681327Y-41960002D01*
X66678544Y-41962261D01*
X66044685Y-42408675D01*
X66036780Y-42413032D01*
X66031143Y-42418662D01*
X66027348Y-42425970D01*
X66019516Y-42438390D01*
X66016967Y-42436783D01*
X66005186Y-42460752D01*
X65990110Y-42474671D01*
X65404794Y-42931447D01*
X64800872Y-43452403D01*
X64223208Y-44002382D01*
X63673243Y-44580024D01*
X63152289Y-45183958D01*
X62711356Y-45748962D01*
X62679727Y-45777570D01*
X62668994Y-45784336D01*
X62661670Y-45788136D01*
X62656032Y-45793779D01*
X62651674Y-45801685D01*
X62205057Y-46435829D01*
X62202844Y-46438571D01*
X62201650Y-46440447D01*
X62198616Y-46444986D01*
X62196990Y-46447305D01*
X62195254Y-46450535D01*
X61778115Y-47109275D01*
X61775946Y-47112221D01*
X61774642Y-47114513D01*
X61771777Y-47119294D01*
X61770500Y-47121319D01*
X61768946Y-47124556D01*
X61384096Y-47803913D01*
X61382129Y-47806912D01*
X61381269Y-47808618D01*
X61378503Y-47813794D01*
X61377167Y-47816155D01*
X61375728Y-47819621D01*
X61025370Y-48515655D01*
X61023485Y-48518807D01*
X61022261Y-48521550D01*
X61019940Y-48526459D01*
X61018602Y-48529134D01*
X61017367Y-48532574D01*
X60701525Y-49245108D01*
X60699812Y-49248329D01*
X60698742Y-49251081D01*
X60696694Y-49256025D01*
X60695432Y-49258895D01*
X60694368Y-49262402D01*
X60413848Y-49989614D01*
X60412310Y-49992895D01*
X60411433Y-49995528D01*
X60409623Y-50000590D01*
X60408705Y-50002988D01*
X60407824Y-50006429D01*
X60163191Y-50746954D01*
X60161788Y-50750357D01*
X60161023Y-50753100D01*
X60159416Y-50758398D01*
X60158627Y-50760803D01*
X60157904Y-50764351D01*
X59949783Y-51516405D01*
X59948587Y-51519813D01*
X59948064Y-51522123D01*
X59946703Y-51527561D01*
X59945981Y-51530190D01*
X59945436Y-51533801D01*
X59774566Y-52294713D01*
X59773526Y-52298196D01*
X59773082Y-52300727D01*
X59772003Y-52306156D01*
X59771372Y-52308996D01*
X59771007Y-52312659D01*
X59637730Y-53080763D01*
X59636854Y-53084313D01*
X59636537Y-53086856D01*
X59635704Y-53092470D01*
X59635233Y-53095209D01*
X59635046Y-53098903D01*
X59539616Y-53872645D01*
X59538908Y-53876266D01*
X59538719Y-53878793D01*
X59538154Y-53884535D01*
X59537859Y-53886947D01*
X59537844Y-53890598D01*
X59480472Y-54668304D01*
X59479949Y-54671890D01*
X59479870Y-54674770D01*
X59479607Y-54680129D01*
X59479372Y-54683442D01*
X59479559Y-54687138D01*
X59460432Y-55466357D01*
X59460093Y-55469975D01*
X59460149Y-55472379D01*
X59460150Y-55478038D01*
X59460089Y-55480717D01*
X59460439Y-55484373D01*
X59479568Y-56263559D01*
X59479390Y-56267229D01*
X59479606Y-56270261D01*
X59479871Y-56275652D01*
X59479957Y-56278812D01*
X59480500Y-56282461D01*
X59537859Y-57060066D01*
X59537881Y-57063713D01*
X59538146Y-57065873D01*
X59538722Y-57071720D01*
X59538926Y-57074464D01*
X59539659Y-57078156D01*
X59635062Y-57851659D01*
X59635249Y-57855283D01*
X59635733Y-57858116D01*
X59636518Y-57863404D01*
X59636875Y-57866228D01*
X59637737Y-57869718D01*
X59771035Y-58637948D01*
X59771404Y-58641607D01*
X59771977Y-58644174D01*
X59773097Y-58649808D01*
X59774272Y-58656525D01*
X59775697Y-58661697D01*
X59775931Y-58663047D01*
X59950691Y-59441272D01*
X59950694Y-59441284D01*
X60163417Y-60209983D01*
X60163422Y-60209998D01*
X60413612Y-60967314D01*
X60413613Y-60967316D01*
X60700651Y-61711438D01*
X60700669Y-61711481D01*
X61023863Y-62440610D01*
X61099888Y-62591644D01*
X61382480Y-63153054D01*
X61578438Y-63498969D01*
X61775603Y-63847014D01*
X61775623Y-63847048D01*
X62050052Y-64280420D01*
X62202320Y-64520878D01*
X62661584Y-65172977D01*
X63152286Y-65801752D01*
X63152291Y-65801758D01*
X63316254Y-65991838D01*
X63673245Y-66405693D01*
X64223215Y-66983346D01*
X64800873Y-67533311D01*
X64800878Y-67533316D01*
X64800883Y-67533320D01*
X64800904Y-67533339D01*
X65404815Y-68054282D01*
X65655083Y-68249593D01*
X66033590Y-68544983D01*
X66685685Y-69004238D01*
X66685691Y-69004242D01*
X66801207Y-69077392D01*
X67359528Y-69430947D01*
X68053506Y-69824080D01*
X68765933Y-70182684D01*
X68964522Y-70270712D01*
X69495085Y-70505894D01*
X69495090Y-70505896D01*
X69495097Y-70505899D01*
X70239245Y-70792956D01*
X70996577Y-71043137D01*
X71765267Y-71255870D01*
X72543484Y-71430616D01*
X72925482Y-71496900D01*
X73329296Y-71566971D01*
X73329315Y-71566973D01*
X73329334Y-71566977D01*
X74120929Y-71664610D01*
X74916355Y-71723287D01*
X75713705Y-71742857D01*
X76511053Y-71723285D01*
X77306483Y-71664609D01*
X77306499Y-71664607D01*
X77306500Y-71664607D01*
X77556803Y-71633735D01*
X78098072Y-71566976D01*
X78098095Y-71566971D01*
X78098116Y-71566969D01*
X78435722Y-71508389D01*
X78883922Y-71430620D01*
X79662128Y-71255868D01*
X80430829Y-71043141D01*
X81188164Y-70792955D01*
X81932308Y-70505898D01*
X82661476Y-70182684D01*
X83373896Y-69824076D01*
X84067872Y-69430947D01*
X84741720Y-69004238D01*
X84757098Y-68993408D01*
X85042210Y-68792609D01*
X85393815Y-68544981D01*
X86022592Y-68054280D01*
X86626536Y-67533312D01*
X86639377Y-67521087D01*
X87204176Y-66983351D01*
X87204187Y-66983341D01*
X87754155Y-66405692D01*
X88275122Y-65801750D01*
X88765822Y-65172974D01*
X88765826Y-65172968D01*
X88766759Y-65171773D01*
X88766882Y-65171869D01*
X88775331Y-65162312D01*
X88776585Y-65160432D01*
X88778350Y-65157856D01*
X89230552Y-64515787D01*
X89233143Y-64512652D01*
X89234325Y-64510767D01*
X89238355Y-64504733D01*
X89239589Y-64502996D01*
X89241483Y-64499433D01*
X89657824Y-63841951D01*
X89660230Y-63838735D01*
X89661478Y-63836516D01*
X89665040Y-63830576D01*
X89666211Y-63828740D01*
X89667898Y-63825165D01*
X90051549Y-63147924D01*
X90053789Y-63144604D01*
X90054981Y-63142222D01*
X90058182Y-63136233D01*
X90059496Y-63133928D01*
X90061012Y-63130220D01*
X90410628Y-62435656D01*
X90412772Y-62432137D01*
X90413851Y-62429676D01*
X90416890Y-62423248D01*
X90418004Y-62421056D01*
X90419358Y-62417214D01*
X90734555Y-61706137D01*
X90736495Y-61702554D01*
X90737391Y-61700204D01*
X90740114Y-61693630D01*
X90741139Y-61691342D01*
X90742305Y-61687427D01*
X90765360Y-61627662D01*
X91022295Y-60961594D01*
X91024002Y-60958012D01*
X91024807Y-60955559D01*
X91027052Y-60949283D01*
X91027863Y-60947193D01*
X91028811Y-60943414D01*
X91273092Y-60203973D01*
X91274617Y-60200317D01*
X91275277Y-60197911D01*
X91277229Y-60191478D01*
X91277952Y-60189307D01*
X91278715Y-60185457D01*
X91486363Y-59435092D01*
X91487693Y-59431410D01*
X91488290Y-59428737D01*
X91489854Y-59422494D01*
X91490506Y-59420147D01*
X91491075Y-59416315D01*
X91492657Y-59409270D01*
X91661659Y-58656678D01*
X91662824Y-58652886D01*
X91663268Y-58650292D01*
X91664577Y-58643717D01*
X91665146Y-58641210D01*
X91665524Y-58637250D01*
X91665778Y-58635787D01*
X91798540Y-57870657D01*
X91799532Y-57866773D01*
X91799852Y-57864119D01*
X91800844Y-57857428D01*
X91801268Y-57855020D01*
X91801453Y-57851064D01*
X91896757Y-57078370D01*
X91897537Y-57074472D01*
X91897694Y-57072253D01*
X91898379Y-57065316D01*
X91898629Y-57063342D01*
X91898631Y-57059403D01*
X91955894Y-56283079D01*
X91956495Y-56279171D01*
X91956565Y-56276187D01*
X91956881Y-56269765D01*
X91957098Y-56266877D01*
X91956886Y-56262937D01*
X91975982Y-55485024D01*
X91976379Y-55481099D01*
X91976311Y-55478517D01*
X91976312Y-55471889D01*
X91976373Y-55469605D01*
X91975990Y-55465726D01*
X91956893Y-54687779D01*
X91957115Y-54683805D01*
X91956879Y-54680647D01*
X91956566Y-54674266D01*
X91956503Y-54671559D01*
X91955919Y-54667694D01*
X91898656Y-53891373D01*
X91898663Y-53887530D01*
X91898316Y-53884715D01*
X91897713Y-53878592D01*
X91897525Y-53876046D01*
X91896787Y-53872322D01*
X91864126Y-53607509D01*
X91875456Y-53538565D01*
X91922262Y-53486690D01*
X91989683Y-53468356D01*
X92056314Y-53489383D01*
X92100999Y-53543095D01*
X92109506Y-53571945D01*
X92243982Y-54378783D01*
X92245669Y-54399169D01*
X92245669Y-54409997D01*
X92245444Y-54417456D01*
X92243319Y-54452703D01*
X92243632Y-54454405D01*
X92245669Y-54476787D01*
X92245669Y-57426631D01*
X92243647Y-57448932D01*
X92240611Y-57465535D01*
X92241527Y-57480564D01*
X92240203Y-57480644D01*
X92242807Y-57512999D01*
X92148089Y-58176135D01*
X92148089Y-58176139D01*
X92001592Y-59201591D01*
X91999885Y-59210953D01*
X91497832Y-61470201D01*
X91494422Y-61482514D01*
X90750283Y-63714931D01*
X90735820Y-63744502D01*
X90235783Y-64494548D01*
X89759150Y-65209487D01*
X89743657Y-65228384D01*
X87156030Y-67816015D01*
X87133223Y-67834010D01*
X87125925Y-67838489D01*
X87125923Y-67838491D01*
X87122608Y-67844060D01*
X87103748Y-67868299D01*
X86777509Y-68194538D01*
X86760949Y-68208433D01*
X86734387Y-68227031D01*
X86728116Y-68231145D01*
X86698052Y-68249591D01*
X86696745Y-68250916D01*
X86679625Y-68265376D01*
X82041126Y-71513293D01*
X81974919Y-71535620D01*
X81948471Y-71533834D01*
X81805536Y-71508632D01*
X81797794Y-71507011D01*
X81763997Y-71498800D01*
X81763995Y-71498800D01*
X81747165Y-71503007D01*
X81725423Y-71506428D01*
X81708116Y-71507592D01*
X81704235Y-71508830D01*
X81675362Y-71520959D01*
X79702494Y-72014169D01*
X79691275Y-72016429D01*
X76439973Y-72516632D01*
X76409892Y-72517565D01*
X73673619Y-72268820D01*
X73656962Y-72266153D01*
X70398064Y-71514080D01*
X70379898Y-71508389D01*
X69939906Y-71332408D01*
X69919381Y-71320030D01*
X69915238Y-71317962D01*
X69913320Y-71316740D01*
X69908792Y-71314665D01*
X69905048Y-71312873D01*
X69904426Y-71312562D01*
X69889229Y-71309672D01*
X69880613Y-71307427D01*
X69880543Y-71307694D01*
X69873299Y-71305768D01*
X69873297Y-71305768D01*
X69873294Y-71305767D01*
X69873292Y-71305767D01*
X69864056Y-71304476D01*
X69853989Y-71302642D01*
X69826550Y-71296463D01*
X69818309Y-71294607D01*
X69803467Y-71293362D01*
X69801891Y-71293063D01*
X69802650Y-71289058D01*
X69760700Y-71279142D01*
X69760070Y-71278780D01*
X63071310Y-67417022D01*
X63031735Y-67380759D01*
X61431213Y-65094978D01*
X60708225Y-64062445D01*
X60692164Y-64030535D01*
X60657714Y-63927185D01*
X60093305Y-62233942D01*
X60092172Y-62230361D01*
X59978135Y-61850241D01*
X59338062Y-59716681D01*
X59334082Y-59698603D01*
X59087679Y-57973758D01*
X59086660Y-57948752D01*
X59087481Y-57935190D01*
X59087479Y-57935186D01*
X59087156Y-57933422D01*
X59085123Y-57911070D01*
X59085123Y-54688335D01*
X59086369Y-54670799D01*
X59087503Y-54662862D01*
X59335666Y-52925774D01*
X59337365Y-52916455D01*
X59839422Y-50657171D01*
X59842826Y-50644880D01*
X60340807Y-49150920D01*
X60345550Y-49138842D01*
X60703082Y-48352293D01*
X60714392Y-48332485D01*
X60719650Y-48324976D01*
X60852314Y-48135514D01*
X60866793Y-48118378D01*
X60878770Y-48106562D01*
X60889494Y-48072939D01*
X60891982Y-48065884D01*
X60904719Y-48032969D01*
X60904718Y-48032964D01*
X60904946Y-48031196D01*
X60905354Y-48029356D01*
X60905734Y-48025462D01*
X60905690Y-48023563D01*
X60905808Y-48021797D01*
X60905810Y-48021792D01*
X60899681Y-47987034D01*
X60898609Y-47979665D01*
X60894587Y-47944569D01*
X60894586Y-47944567D01*
X60894586Y-47944566D01*
X60893956Y-47942871D01*
X60888075Y-47921213D01*
X60868684Y-47811239D01*
X60530658Y-45894203D01*
X60538402Y-45824765D01*
X60582459Y-45770536D01*
X60648840Y-45748734D01*
X60709067Y-45762187D01*
X60771069Y-45793779D01*
X60775756Y-45796167D01*
X60775759Y-45796168D01*
X60901057Y-45816013D01*
X60901060Y-45816013D01*
X60901063Y-45816013D01*
X61026360Y-45796168D01*
X61026361Y-45796168D01*
X61026362Y-45796167D01*
X61026364Y-45796167D01*
X61139402Y-45738571D01*
X61229110Y-45648863D01*
X61279067Y-45550816D01*
X61327039Y-45500023D01*
X61780894Y-45237990D01*
X61796319Y-45230458D01*
X61803078Y-45227718D01*
X61803085Y-45227717D01*
X61840770Y-45203571D01*
X61845616Y-45200622D01*
X61860659Y-45191939D01*
X61860666Y-45191932D01*
X61865218Y-45188710D01*
X61873034Y-45182901D01*
X61894533Y-45169128D01*
X61898202Y-45164111D01*
X61917625Y-45143132D01*
X61922340Y-45139093D01*
X61934418Y-45116600D01*
X61943565Y-45102076D01*
X61958643Y-45081460D01*
X61960252Y-45075456D01*
X61970780Y-45048888D01*
X61973723Y-45043409D01*
X61976862Y-45018053D01*
X61980146Y-45001210D01*
X61986912Y-44975963D01*
X62166244Y-44306713D01*
X62202609Y-44247054D01*
X62224015Y-44231424D01*
X66834849Y-41569353D01*
X66902748Y-41552881D01*
X66968775Y-41575734D01*
G37*
%TD.AperFunction*%
%TA.AperFunction,Conductor*%
G36*
X56107453Y-58031227D02*
G01*
X56163386Y-58073099D01*
X56187802Y-58138563D01*
X56188118Y-58147408D01*
X56188117Y-58499198D01*
X56186086Y-58521548D01*
X56183054Y-58538092D01*
X56183054Y-58538096D01*
X56193552Y-58571785D01*
X56195562Y-58578996D01*
X56204008Y-58613261D01*
X56204858Y-58614880D01*
X56205582Y-58616627D01*
X56207463Y-58619963D01*
X56208584Y-58621486D01*
X56209528Y-58623048D01*
X56234476Y-58647995D01*
X56239610Y-58653449D01*
X56257169Y-58673268D01*
X56263012Y-58679863D01*
X56263013Y-58679863D01*
X56264493Y-58680885D01*
X56281734Y-58695251D01*
X56646925Y-59060437D01*
X56668680Y-59082192D01*
X56683048Y-59099433D01*
X56692603Y-59113275D01*
X56723864Y-59129681D01*
X56730372Y-59133352D01*
X56756567Y-59149188D01*
X56760574Y-59151610D01*
X56760575Y-59151610D01*
X56762283Y-59152142D01*
X56764035Y-59152867D01*
X56767770Y-59153909D01*
X56769651Y-59154195D01*
X56771382Y-59154621D01*
X56771390Y-59154625D01*
X56806680Y-59154624D01*
X56814165Y-59154849D01*
X56849390Y-59156981D01*
X56849393Y-59156979D01*
X56851157Y-59156657D01*
X56873519Y-59154624D01*
X57871515Y-59154624D01*
X57893867Y-59156655D01*
X57910411Y-59159687D01*
X57910411Y-59159686D01*
X57910412Y-59159687D01*
X57944103Y-59149188D01*
X57951297Y-59147181D01*
X57985581Y-59138732D01*
X57985582Y-59138730D01*
X57987172Y-59137897D01*
X57988919Y-59137173D01*
X57992298Y-59135267D01*
X57993821Y-59134147D01*
X57995359Y-59133216D01*
X57995361Y-59133216D01*
X58008967Y-59119610D01*
X58020322Y-59108255D01*
X58025778Y-59103119D01*
X58025845Y-59103059D01*
X58052182Y-59079728D01*
X58052185Y-59079719D01*
X58053199Y-59078252D01*
X58067570Y-59061005D01*
X58601630Y-58526952D01*
X58662950Y-58493471D01*
X58732641Y-58498455D01*
X58788575Y-58540327D01*
X58812061Y-58597101D01*
X58972680Y-59721454D01*
X58972194Y-59740920D01*
X58972199Y-59740920D01*
X58972948Y-59755954D01*
X58979178Y-59776721D01*
X58982662Y-59792546D01*
X58983032Y-59793918D01*
X58985990Y-59801250D01*
X58989767Y-59812016D01*
X59731056Y-62282958D01*
X59733566Y-62296307D01*
X59735317Y-62301560D01*
X59741926Y-62321389D01*
X59747923Y-62339378D01*
X59749056Y-62342957D01*
X59754034Y-62359550D01*
X59754358Y-62360291D01*
X59758381Y-62370756D01*
X60354328Y-64158612D01*
X60359683Y-64182047D01*
X60361569Y-64196751D01*
X60361571Y-64196757D01*
X60382945Y-64227283D01*
X60386202Y-64232178D01*
X60406895Y-64264933D01*
X60420152Y-64280420D01*
X62554313Y-67328317D01*
X62576640Y-67394523D01*
X62559630Y-67462290D01*
X62508682Y-67510103D01*
X62439972Y-67522781D01*
X62428697Y-67521087D01*
X62413856Y-67518154D01*
X62386652Y-67509423D01*
X62380996Y-67506856D01*
X62380994Y-67506855D01*
X62380992Y-67506854D01*
X62380990Y-67506854D01*
X62355492Y-67505412D01*
X62338469Y-67503260D01*
X62313415Y-67498311D01*
X62307287Y-67499391D01*
X62278774Y-67501076D01*
X62272559Y-67500724D01*
X62248263Y-67508591D01*
X62231602Y-67512736D01*
X61181119Y-67697967D01*
X61164048Y-67699771D01*
X61156751Y-67700033D01*
X61113102Y-67709827D01*
X61107494Y-67710950D01*
X61090407Y-67713963D01*
X61085090Y-67715417D01*
X61075696Y-67718220D01*
X61050779Y-67723811D01*
X61050778Y-67723811D01*
X61045604Y-67727278D01*
X61020201Y-67740336D01*
X61014376Y-67742524D01*
X60995325Y-67759536D01*
X60981761Y-67770055D01*
X60960550Y-67784267D01*
X60956984Y-67789361D01*
X60938009Y-67810718D01*
X60936447Y-67812113D01*
X60933365Y-67814866D01*
X60933365Y-67814867D01*
X60921747Y-67837610D01*
X60912896Y-67852322D01*
X60574749Y-68335238D01*
X60520172Y-68378863D01*
X60494707Y-68386230D01*
X59943483Y-68483426D01*
X59912954Y-68483115D01*
X59912948Y-68483778D01*
X59901464Y-68483659D01*
X59895341Y-68484739D01*
X59866821Y-68486425D01*
X59860600Y-68486073D01*
X59860426Y-68486095D01*
X59836253Y-68493939D01*
X59819517Y-68498108D01*
X59321632Y-68585897D01*
X59252193Y-68578153D01*
X59204840Y-68543163D01*
X59136560Y-68461226D01*
X59131537Y-68454778D01*
X57123357Y-65693564D01*
X57114781Y-65680007D01*
X55615472Y-62931237D01*
X55609200Y-62917914D01*
X55509137Y-62667763D01*
X55123417Y-61703489D01*
X55117303Y-61683427D01*
X55069425Y-61459995D01*
X55681644Y-61459995D01*
X55702177Y-61707802D01*
X55702179Y-61707814D01*
X55763223Y-61948871D01*
X55863113Y-62176596D01*
X55999120Y-62384772D01*
X55999123Y-62384775D01*
X56167543Y-62567728D01*
X56363778Y-62720464D01*
X56582477Y-62838818D01*
X56817673Y-62919561D01*
X57062952Y-62960490D01*
X57311622Y-62960490D01*
X57556901Y-62919561D01*
X57792097Y-62838818D01*
X58010796Y-62720464D01*
X58207031Y-62567728D01*
X58375451Y-62384775D01*
X58511460Y-62176597D01*
X58611350Y-61948871D01*
X58672395Y-61707811D01*
X58672831Y-61702554D01*
X58692930Y-61459995D01*
X58692930Y-61459984D01*
X58672396Y-61212177D01*
X58672394Y-61212165D01*
X58611350Y-60971108D01*
X58511460Y-60743383D01*
X58375453Y-60535207D01*
X58284682Y-60436604D01*
X58207031Y-60352252D01*
X58010796Y-60199516D01*
X58010794Y-60199515D01*
X58010793Y-60199514D01*
X57792098Y-60081162D01*
X57792089Y-60081159D01*
X57556903Y-60000419D01*
X57311622Y-59959490D01*
X57062952Y-59959490D01*
X56817670Y-60000419D01*
X56582484Y-60081159D01*
X56582475Y-60081162D01*
X56363780Y-60199514D01*
X56167544Y-60352251D01*
X55999120Y-60535207D01*
X55863113Y-60743383D01*
X55763223Y-60971108D01*
X55702179Y-61212165D01*
X55702177Y-61212177D01*
X55681644Y-61459984D01*
X55681644Y-61459995D01*
X55069425Y-61459995D01*
X54542557Y-59001235D01*
X54547759Y-58931562D01*
X54589804Y-58875759D01*
X54655344Y-58851546D01*
X54705252Y-58861741D01*
X54706039Y-58859321D01*
X54715321Y-58862337D01*
X54840619Y-58882182D01*
X54840622Y-58882182D01*
X54840625Y-58882182D01*
X54965922Y-58862337D01*
X54965923Y-58862337D01*
X54965924Y-58862336D01*
X54965926Y-58862336D01*
X55078964Y-58804740D01*
X55168672Y-58715032D01*
X55168673Y-58715029D01*
X55173556Y-58708309D01*
X55228885Y-58665643D01*
X55273870Y-58657193D01*
X55276528Y-58657193D01*
X55298873Y-58659225D01*
X55315418Y-58662258D01*
X55349125Y-58651753D01*
X55356294Y-58649754D01*
X55390586Y-58641304D01*
X55390587Y-58641302D01*
X55392165Y-58640475D01*
X55393913Y-58639751D01*
X55397320Y-58637829D01*
X55398841Y-58636710D01*
X55400366Y-58635788D01*
X55400366Y-58635787D01*
X55400368Y-58635787D01*
X55425341Y-58610812D01*
X55430763Y-58605709D01*
X55457188Y-58582301D01*
X55457190Y-58582294D01*
X55458210Y-58580819D01*
X55472579Y-58563575D01*
X55976439Y-58059724D01*
X56037761Y-58026242D01*
X56107453Y-58031227D01*
G37*
%TD.AperFunction*%
%TA.AperFunction,Conductor*%
G36*
X60396062Y-47352216D02*
G01*
X60431476Y-47412446D01*
X60433323Y-47421102D01*
X60461345Y-47580020D01*
X60516161Y-47890900D01*
X60520667Y-47916451D01*
X60512923Y-47985891D01*
X60500125Y-48009108D01*
X60428855Y-48110891D01*
X60405883Y-48135041D01*
X60404487Y-48136810D01*
X60397715Y-48151707D01*
X60393185Y-48159646D01*
X60393497Y-48159813D01*
X60389970Y-48166423D01*
X60385213Y-48178717D01*
X60382456Y-48185276D01*
X60034428Y-48950915D01*
X60023963Y-48965714D01*
X60025491Y-48966679D01*
X60017452Y-48979405D01*
X60008434Y-49006455D01*
X60003695Y-49018526D01*
X60001233Y-49023944D01*
X60001229Y-49023955D01*
X60001035Y-49024996D01*
X59996790Y-49041388D01*
X59513919Y-50490019D01*
X59505076Y-50505777D01*
X59506765Y-50506615D01*
X59500076Y-50520103D01*
X59493832Y-50548203D01*
X59490424Y-50560505D01*
X59488462Y-50566391D01*
X59488458Y-50566411D01*
X59488394Y-50567208D01*
X59485841Y-50584156D01*
X58995027Y-52792850D01*
X58988973Y-52812346D01*
X58986237Y-52819126D01*
X58981596Y-52851607D01*
X58979892Y-52860956D01*
X58977677Y-52870925D01*
X58976996Y-52877863D01*
X58976388Y-52888065D01*
X58733360Y-54589203D01*
X58727442Y-54607516D01*
X58727726Y-54607586D01*
X58724123Y-54622205D01*
X58724123Y-54645055D01*
X58722878Y-54662585D01*
X58722837Y-54662867D01*
X58723506Y-54669545D01*
X58724123Y-54681895D01*
X58724123Y-57842569D01*
X58704438Y-57909608D01*
X58687804Y-57930251D01*
X57860740Y-58757306D01*
X57799416Y-58790790D01*
X57773059Y-58793624D01*
X56942004Y-58793624D01*
X56874965Y-58773939D01*
X56854330Y-58757311D01*
X56585435Y-58488421D01*
X56551951Y-58427100D01*
X56549117Y-58400741D01*
X56549117Y-58350336D01*
X56549119Y-57901109D01*
X56568804Y-57834071D01*
X56621608Y-57788316D01*
X56686383Y-57777822D01*
X56693810Y-57778621D01*
X56741636Y-57778621D01*
X56741636Y-55965821D01*
X56995636Y-55965821D01*
X56995636Y-57778621D01*
X57043464Y-57778621D01*
X57043477Y-57778620D01*
X57105379Y-57771964D01*
X57131893Y-57771964D01*
X57193795Y-57778620D01*
X57193809Y-57778621D01*
X57241637Y-57778621D01*
X57241637Y-56999221D01*
X57495637Y-56999221D01*
X57495637Y-57778621D01*
X57543465Y-57778621D01*
X57543481Y-57778620D01*
X57603009Y-57772219D01*
X57603016Y-57772217D01*
X57737723Y-57721975D01*
X57737730Y-57721971D01*
X57852824Y-57635811D01*
X57852827Y-57635808D01*
X57938987Y-57520714D01*
X57938991Y-57520707D01*
X57989233Y-57386000D01*
X57989235Y-57385993D01*
X57995636Y-57326465D01*
X57995637Y-57326448D01*
X57995637Y-56999221D01*
X57495637Y-56999221D01*
X57241637Y-56999221D01*
X57241637Y-55965821D01*
X57495637Y-55965821D01*
X57495637Y-56745221D01*
X57995637Y-56745221D01*
X57995637Y-56417993D01*
X57995636Y-56417976D01*
X57989235Y-56358448D01*
X57989233Y-56358441D01*
X57938991Y-56223734D01*
X57938987Y-56223727D01*
X57852827Y-56108633D01*
X57852824Y-56108630D01*
X57737730Y-56022470D01*
X57737723Y-56022466D01*
X57603016Y-55972224D01*
X57603009Y-55972222D01*
X57543481Y-55965821D01*
X57495637Y-55965821D01*
X57241637Y-55965821D01*
X57193806Y-55965821D01*
X57131886Y-55972478D01*
X57105376Y-55972477D01*
X57043480Y-55965821D01*
X56995636Y-55965821D01*
X56741636Y-55965821D01*
X56693791Y-55965821D01*
X56634263Y-55972222D01*
X56634256Y-55972224D01*
X56499549Y-56022466D01*
X56499542Y-56022470D01*
X56384448Y-56108630D01*
X56384445Y-56108633D01*
X56298285Y-56223727D01*
X56298282Y-56223733D01*
X56269629Y-56300555D01*
X56227757Y-56356488D01*
X56204822Y-56369549D01*
X56187522Y-56381108D01*
X56120844Y-56401983D01*
X56053465Y-56383496D01*
X56049747Y-56381107D01*
X56034848Y-56371152D01*
X56034843Y-56371150D01*
X56005536Y-56365321D01*
X55731740Y-56365321D01*
X55731732Y-56365322D01*
X55702422Y-56371151D01*
X55669177Y-56393363D01*
X55646967Y-56426606D01*
X55646964Y-56426612D01*
X55641135Y-56455919D01*
X55641135Y-57288515D01*
X55641136Y-57288523D01*
X55646965Y-57317833D01*
X55646966Y-57317835D01*
X55667233Y-57348169D01*
X55688109Y-57414847D01*
X55688129Y-57417055D01*
X55688132Y-57786138D01*
X55668448Y-57853178D01*
X55651812Y-57873821D01*
X55315655Y-58209970D01*
X55254332Y-58243455D01*
X55184640Y-58238469D01*
X55140294Y-58209969D01*
X55078969Y-58148644D01*
X55078966Y-58148642D01*
X55078964Y-58148640D01*
X54965926Y-58091044D01*
X54965925Y-58091043D01*
X54965922Y-58091042D01*
X54840625Y-58071198D01*
X54840619Y-58071198D01*
X54715321Y-58091042D01*
X54715320Y-58091042D01*
X54639959Y-58129441D01*
X54602280Y-58148640D01*
X54602279Y-58148641D01*
X54602273Y-58148644D01*
X54573696Y-58177222D01*
X54512372Y-58210707D01*
X54442681Y-58205721D01*
X54386748Y-58163849D01*
X54362332Y-58098384D01*
X54362230Y-58096822D01*
X54358371Y-58031227D01*
X54125557Y-54073450D01*
X54141271Y-54005371D01*
X54161662Y-53978488D01*
X54399579Y-53740572D01*
X54412534Y-53729298D01*
X54418363Y-53724894D01*
X54418371Y-53724891D01*
X54448529Y-53691806D01*
X54452423Y-53687727D01*
X54464716Y-53675436D01*
X54464720Y-53675429D01*
X54468286Y-53671135D01*
X54474328Y-53663504D01*
X54491537Y-53644628D01*
X54493779Y-53638839D01*
X54507109Y-53613548D01*
X54510618Y-53608427D01*
X54516465Y-53583564D01*
X54521541Y-53567172D01*
X54530769Y-53543353D01*
X54530768Y-53537147D01*
X54534064Y-53508743D01*
X54535485Y-53502704D01*
X54533483Y-53488354D01*
X54543713Y-53419240D01*
X54568608Y-53383543D01*
X55039951Y-52912210D01*
X55101274Y-52878726D01*
X55170966Y-52883712D01*
X55215311Y-52912210D01*
X55521707Y-53218603D01*
X55531999Y-53228894D01*
X55565484Y-53290217D01*
X55568308Y-53314985D01*
X55578497Y-54108856D01*
X55578498Y-54108862D01*
X55594445Y-54188498D01*
X55594446Y-54188499D01*
X55621716Y-54231305D01*
X55641135Y-54297929D01*
X55641135Y-54494515D01*
X55641136Y-54494523D01*
X55646965Y-54523833D01*
X55669177Y-54557078D01*
X55683941Y-54566942D01*
X55702422Y-54579290D01*
X55702425Y-54579290D01*
X55702426Y-54579291D01*
X55712282Y-54581251D01*
X55731736Y-54585121D01*
X56005533Y-54585120D01*
X56034848Y-54579290D01*
X56049745Y-54569336D01*
X56116420Y-54548458D01*
X56183801Y-54566942D01*
X56187515Y-54569329D01*
X56202359Y-54579247D01*
X56212578Y-54586075D01*
X56211711Y-54587371D01*
X56255304Y-54622501D01*
X56269629Y-54649886D01*
X56298282Y-54726709D01*
X56298285Y-54726714D01*
X56384445Y-54841808D01*
X56384448Y-54841811D01*
X56499542Y-54927971D01*
X56499549Y-54927975D01*
X56634256Y-54978217D01*
X56634263Y-54978219D01*
X56693791Y-54984620D01*
X56693808Y-54984621D01*
X56741636Y-54984621D01*
X56741636Y-53171821D01*
X56995636Y-53171821D01*
X56995636Y-54984621D01*
X57043464Y-54984621D01*
X57043477Y-54984620D01*
X57105379Y-54977964D01*
X57131893Y-54977964D01*
X57193795Y-54984620D01*
X57193809Y-54984621D01*
X57241637Y-54984621D01*
X57241637Y-54205221D01*
X57495637Y-54205221D01*
X57495637Y-54984621D01*
X57543465Y-54984621D01*
X57543481Y-54984620D01*
X57603009Y-54978219D01*
X57603016Y-54978217D01*
X57737723Y-54927975D01*
X57737730Y-54927971D01*
X57852824Y-54841811D01*
X57852827Y-54841808D01*
X57938987Y-54726714D01*
X57938991Y-54726707D01*
X57989233Y-54592000D01*
X57989235Y-54591993D01*
X57995636Y-54532465D01*
X57995637Y-54532448D01*
X57995637Y-54205221D01*
X57495637Y-54205221D01*
X57241637Y-54205221D01*
X57241637Y-53171821D01*
X57495637Y-53171821D01*
X57495637Y-53951221D01*
X57995637Y-53951221D01*
X57995637Y-53623993D01*
X57995636Y-53623976D01*
X57989235Y-53564448D01*
X57989233Y-53564441D01*
X57938991Y-53429734D01*
X57938987Y-53429727D01*
X57852827Y-53314633D01*
X57852824Y-53314630D01*
X57737730Y-53228470D01*
X57737723Y-53228466D01*
X57603016Y-53178224D01*
X57603009Y-53178222D01*
X57543481Y-53171821D01*
X57495637Y-53171821D01*
X57241637Y-53171821D01*
X57193806Y-53171821D01*
X57131886Y-53178478D01*
X57105376Y-53178477D01*
X57043480Y-53171821D01*
X56995636Y-53171821D01*
X56741636Y-53171821D01*
X56728968Y-53159153D01*
X56705069Y-53152136D01*
X56659314Y-53099332D01*
X56652249Y-53072820D01*
X56652019Y-53072886D01*
X56646865Y-53054772D01*
X56642426Y-53041617D01*
X56639738Y-53034765D01*
X56621590Y-53005734D01*
X56615733Y-52995271D01*
X56600468Y-52964612D01*
X56600468Y-52964611D01*
X56600465Y-52964608D01*
X56596054Y-52958766D01*
X56587136Y-52948072D01*
X56582166Y-52942667D01*
X56554756Y-52922152D01*
X56545518Y-52914514D01*
X56520212Y-52891444D01*
X56520209Y-52891442D01*
X56520208Y-52891441D01*
X56520205Y-52891440D01*
X56513974Y-52887581D01*
X56501788Y-52880827D01*
X56495221Y-52877592D01*
X56462240Y-52868360D01*
X56450874Y-52864577D01*
X56418937Y-52852204D01*
X56411745Y-52850860D01*
X56397911Y-52848960D01*
X56390626Y-52848316D01*
X56356545Y-52851621D01*
X56344575Y-52852200D01*
X56028312Y-52852190D01*
X55961273Y-52832503D01*
X55940635Y-52815872D01*
X55626129Y-52501370D01*
X55592644Y-52440047D01*
X55597628Y-52370355D01*
X55626126Y-52326009D01*
X55827931Y-52124201D01*
X55840888Y-52112928D01*
X55846720Y-52108523D01*
X55846731Y-52108518D01*
X55876923Y-52075396D01*
X55880857Y-52071275D01*
X55893066Y-52059068D01*
X55893069Y-52059063D01*
X55896701Y-52054689D01*
X55902664Y-52047159D01*
X55919898Y-52028255D01*
X55919897Y-52028255D01*
X55927348Y-52020084D01*
X55987060Y-51983805D01*
X56018981Y-51979626D01*
X56059149Y-51979626D01*
X56081859Y-51976317D01*
X56127281Y-51969699D01*
X56232371Y-51918324D01*
X56315086Y-51835609D01*
X56366461Y-51730519D01*
X56376388Y-51662386D01*
X56376388Y-51404126D01*
X56675889Y-51404126D01*
X56675889Y-51679112D01*
X56686382Y-51781823D01*
X56741529Y-51948245D01*
X56741531Y-51948250D01*
X56833572Y-52097471D01*
X56957542Y-52221441D01*
X57106763Y-52313482D01*
X57106768Y-52313484D01*
X57273190Y-52368631D01*
X57273197Y-52368632D01*
X57375907Y-52379125D01*
X57425887Y-52379124D01*
X57425888Y-52379124D01*
X57425888Y-51404126D01*
X57925888Y-51404126D01*
X57925888Y-52379125D01*
X57975860Y-52379125D01*
X57975874Y-52379124D01*
X58078585Y-52368631D01*
X58245007Y-52313484D01*
X58245012Y-52313482D01*
X58394233Y-52221441D01*
X58518203Y-52097471D01*
X58610244Y-51948250D01*
X58610246Y-51948245D01*
X58665393Y-51781823D01*
X58665394Y-51781816D01*
X58675887Y-51679112D01*
X58675888Y-51679099D01*
X58675888Y-51404126D01*
X57925888Y-51404126D01*
X57425888Y-51404126D01*
X56675889Y-51404126D01*
X56376388Y-51404126D01*
X56376388Y-50904126D01*
X56675888Y-50904126D01*
X57425888Y-50904126D01*
X57425888Y-49929126D01*
X57925888Y-49929126D01*
X57925888Y-50904126D01*
X58675887Y-50904126D01*
X58675887Y-50629154D01*
X58675886Y-50629139D01*
X58665393Y-50526428D01*
X58610246Y-50360006D01*
X58610244Y-50360001D01*
X58518203Y-50210780D01*
X58394233Y-50086810D01*
X58245012Y-49994769D01*
X58245007Y-49994767D01*
X58078585Y-49939620D01*
X58078578Y-49939619D01*
X57975874Y-49929126D01*
X57925888Y-49929126D01*
X57425888Y-49929126D01*
X57425887Y-49929125D01*
X57375917Y-49929126D01*
X57375899Y-49929127D01*
X57273190Y-49939620D01*
X57106768Y-49994767D01*
X57106763Y-49994769D01*
X56957542Y-50086810D01*
X56833572Y-50210780D01*
X56741531Y-50360001D01*
X56741529Y-50360006D01*
X56686382Y-50526428D01*
X56686381Y-50526435D01*
X56675888Y-50629139D01*
X56675888Y-50904126D01*
X56376388Y-50904126D01*
X56376388Y-50645866D01*
X56374662Y-50634023D01*
X56366461Y-50577734D01*
X56365495Y-50575759D01*
X56315086Y-50472643D01*
X56315085Y-50472642D01*
X56315085Y-50472641D01*
X56310757Y-50466580D01*
X56287821Y-50400582D01*
X56304207Y-50332661D01*
X56323989Y-50306846D01*
X57891110Y-48739720D01*
X57952431Y-48706237D01*
X57957212Y-48705295D01*
X59278727Y-48472277D01*
X59295809Y-48470475D01*
X59303093Y-48470213D01*
X59303098Y-48470214D01*
X59346762Y-48460415D01*
X59352294Y-48459306D01*
X59369434Y-48456285D01*
X59369439Y-48456283D01*
X59369445Y-48456282D01*
X59374823Y-48454811D01*
X59384164Y-48452022D01*
X59409070Y-48446434D01*
X59414229Y-48442976D01*
X59439656Y-48429906D01*
X59441726Y-48429128D01*
X59445470Y-48427722D01*
X59464513Y-48410715D01*
X59478089Y-48400188D01*
X59499297Y-48385979D01*
X59502859Y-48380891D01*
X59521841Y-48359523D01*
X59526480Y-48355382D01*
X59538098Y-48332636D01*
X59546947Y-48317926D01*
X59547957Y-48316484D01*
X60209634Y-47371510D01*
X60264209Y-47327887D01*
X60333707Y-47320693D01*
X60396062Y-47352216D01*
G37*
%TD.AperFunction*%
%TA.AperFunction,Conductor*%
G36*
X76468139Y-31351756D02*
G01*
X76564794Y-31353728D01*
X76566999Y-31353795D01*
X77449343Y-31389815D01*
X77451654Y-31389933D01*
X77548136Y-31395845D01*
X77550538Y-31396017D01*
X78430494Y-31467981D01*
X78432828Y-31468195D01*
X78529093Y-31478048D01*
X78531405Y-31478309D01*
X79407698Y-31586106D01*
X79410082Y-31586424D01*
X79505803Y-31600186D01*
X79508123Y-31600544D01*
X80379302Y-31743996D01*
X80381619Y-31744402D01*
X80476654Y-31762049D01*
X80479074Y-31762524D01*
X81343630Y-31941381D01*
X81346033Y-31941904D01*
X81440177Y-31963392D01*
X81442568Y-31963963D01*
X82299193Y-32177957D01*
X82301386Y-32178528D01*
X82394750Y-32203885D01*
X82396986Y-32204517D01*
X83244145Y-32453266D01*
X83246484Y-32453978D01*
X83338582Y-32483074D01*
X83340943Y-32483847D01*
X84177182Y-32766919D01*
X84179437Y-32767708D01*
X84270338Y-32800560D01*
X84272614Y-32801409D01*
X85096722Y-33118398D01*
X85098885Y-33119256D01*
X85188309Y-33155763D01*
X85190506Y-33156686D01*
X86001012Y-33507030D01*
X86003155Y-33507982D01*
X86091188Y-33548185D01*
X86093242Y-33549149D01*
X86888686Y-33932215D01*
X86890926Y-33933322D01*
X86977094Y-33977005D01*
X86979217Y-33978108D01*
X87568499Y-34292121D01*
X87758392Y-34393310D01*
X87760583Y-34394507D01*
X87844846Y-34441639D01*
X87846957Y-34442849D01*
X88608563Y-34889496D01*
X88610642Y-34890744D01*
X88692914Y-34941276D01*
X88695003Y-34942589D01*
X89437695Y-35419888D01*
X89439810Y-35421277D01*
X89519911Y-35475095D01*
X89521995Y-35476527D01*
X89622245Y-35546892D01*
X90244613Y-35983731D01*
X90246552Y-35985120D01*
X90324493Y-36042236D01*
X90326413Y-36043673D01*
X90852990Y-36446309D01*
X91027723Y-36579915D01*
X91029716Y-36581471D01*
X91046474Y-36594835D01*
X91105259Y-36641714D01*
X91107149Y-36643254D01*
X91785987Y-37207642D01*
X91787853Y-37209226D01*
X91860896Y-37272518D01*
X91862689Y-37274104D01*
X92482034Y-37833291D01*
X92517956Y-37865724D01*
X92519815Y-37867438D01*
X92590133Y-37933578D01*
X92591949Y-37935321D01*
X92843503Y-38181795D01*
X93222501Y-38553140D01*
X93224289Y-38554928D01*
X93230005Y-38560762D01*
X93291853Y-38623885D01*
X93293573Y-38625676D01*
X93898421Y-39268723D01*
X93900134Y-39270582D01*
X93964813Y-39342218D01*
X93966483Y-39344105D01*
X94038128Y-39426788D01*
X94544599Y-40011287D01*
X94546235Y-40013215D01*
X94607911Y-40087397D01*
X94609504Y-40089353D01*
X95159750Y-40779340D01*
X95159935Y-40779571D01*
X95161480Y-40781549D01*
X95190793Y-40819886D01*
X95220095Y-40858208D01*
X95221611Y-40860233D01*
X95743420Y-41572314D01*
X95744894Y-41574370D01*
X95800343Y-41653369D01*
X95801775Y-41655454D01*
X96065071Y-42047337D01*
X96234209Y-42299078D01*
X96294093Y-42388207D01*
X96295434Y-42390246D01*
X96347669Y-42471526D01*
X96348979Y-42473611D01*
X96811007Y-43225848D01*
X96812309Y-43228017D01*
X96861157Y-43311311D01*
X96862412Y-43313503D01*
X97251989Y-44009976D01*
X97293340Y-44083901D01*
X97294553Y-44086122D01*
X97339965Y-44171344D01*
X97341131Y-44173588D01*
X97740286Y-44960942D01*
X97741407Y-44963209D01*
X97783279Y-45050157D01*
X97784353Y-45052448D01*
X98151067Y-45855440D01*
X98152095Y-45857751D01*
X98190383Y-45946329D01*
X98191363Y-45948661D01*
X98525050Y-46766016D01*
X98525982Y-46768367D01*
X98543636Y-46814265D01*
X98560611Y-46858395D01*
X98561495Y-46860766D01*
X98861556Y-47691028D01*
X98862391Y-47693416D01*
X98893319Y-47784784D01*
X98894106Y-47787187D01*
X99160063Y-48629029D01*
X99160800Y-48631449D01*
X99187970Y-48723980D01*
X99188658Y-48726414D01*
X99420054Y-49578397D01*
X99420692Y-49580846D01*
X99444066Y-49674416D01*
X99444654Y-49676875D01*
X99535709Y-50075814D01*
X99531436Y-50145553D01*
X99490137Y-50201911D01*
X99424925Y-50226994D01*
X99356504Y-50212840D01*
X99347779Y-50207723D01*
X99338735Y-50201911D01*
X99246676Y-50142748D01*
X99246673Y-50142746D01*
X99144385Y-50112712D01*
X99085607Y-50074938D01*
X99060091Y-50027800D01*
X98867172Y-49352574D01*
X98207765Y-47044615D01*
X98204825Y-47019680D01*
X98202899Y-47010086D01*
X98202898Y-47010083D01*
X98194447Y-46992126D01*
X98190308Y-46981096D01*
X98188171Y-46976030D01*
X98188169Y-46976028D01*
X98188169Y-46976025D01*
X98183335Y-46967582D01*
X98178755Y-46958781D01*
X98171991Y-46944407D01*
X96160884Y-42670839D01*
X96154699Y-42654936D01*
X96152154Y-42646768D01*
X96147714Y-42632519D01*
X96127443Y-42612247D01*
X96118834Y-42602693D01*
X96114175Y-42596950D01*
X96100777Y-42580433D01*
X96100773Y-42580431D01*
X96088771Y-42571352D01*
X96089890Y-42569871D01*
X96074909Y-42559714D01*
X95296698Y-41781503D01*
X92165751Y-38650554D01*
X89799769Y-36284570D01*
X89781967Y-36260206D01*
X89778600Y-36256355D01*
X89778599Y-36256352D01*
X89771257Y-36251211D01*
X89763978Y-36246114D01*
X89756766Y-36240062D01*
X89756668Y-36240189D01*
X89750765Y-36235564D01*
X89740752Y-36229512D01*
X89733776Y-36224968D01*
X89714598Y-36211540D01*
X88757493Y-35541379D01*
X88296584Y-35218653D01*
X88279438Y-35204168D01*
X88267626Y-35192196D01*
X88233995Y-35181468D01*
X88226948Y-35178983D01*
X88194031Y-35166247D01*
X88194029Y-35166247D01*
X88194027Y-35166246D01*
X88192218Y-35166014D01*
X88190368Y-35165604D01*
X88186574Y-35165234D01*
X88184684Y-35165278D01*
X88182855Y-35165155D01*
X88148088Y-35171284D01*
X88140687Y-35172360D01*
X88105631Y-35176379D01*
X88103937Y-35177009D01*
X88082281Y-35182889D01*
X85890704Y-35569319D01*
X85868343Y-35571200D01*
X85851525Y-35571087D01*
X85851520Y-35571088D01*
X85820166Y-35587276D01*
X85813419Y-35590505D01*
X85781133Y-35604777D01*
X85779683Y-35605898D01*
X85778086Y-35606915D01*
X85775148Y-35609330D01*
X85773847Y-35610694D01*
X85772460Y-35611906D01*
X85752214Y-35640819D01*
X85747739Y-35646816D01*
X85725789Y-35674450D01*
X85725033Y-35676100D01*
X85713883Y-35695561D01*
X84634300Y-37237362D01*
X84579723Y-37280986D01*
X84510224Y-37288179D01*
X84461602Y-37267813D01*
X84377930Y-37209226D01*
X84319736Y-37168478D01*
X84319734Y-37168477D01*
X84319732Y-37168476D01*
X84292379Y-37156439D01*
X84292373Y-37156438D01*
X84252407Y-37155565D01*
X84252404Y-37155566D01*
X84215146Y-37170056D01*
X84215142Y-37170058D01*
X84193552Y-37190726D01*
X84193550Y-37190730D01*
X84036510Y-37415008D01*
X84022373Y-37447131D01*
X83977352Y-37500562D01*
X83910591Y-37521170D01*
X83843286Y-37502413D01*
X83837753Y-37498756D01*
X83829599Y-37493046D01*
X83517169Y-37274274D01*
X83517161Y-37274264D01*
X83508065Y-37267895D01*
X83506265Y-37266168D01*
X83493520Y-37257672D01*
X83491241Y-37256115D01*
X83459717Y-37234044D01*
X83449306Y-37226754D01*
X83449304Y-37226753D01*
X83449304Y-37226752D01*
X83436767Y-37217974D01*
X83436767Y-37217973D01*
X83436760Y-37217969D01*
X83348881Y-37156438D01*
X83120812Y-36996749D01*
X83077187Y-36942174D01*
X83069992Y-36872676D01*
X83090358Y-36824053D01*
X83447496Y-36314013D01*
X83502073Y-36270389D01*
X83549070Y-36261138D01*
X84009443Y-36261138D01*
X84042304Y-36256350D01*
X84077575Y-36251211D01*
X84182665Y-36199836D01*
X84265380Y-36117121D01*
X84316755Y-36012031D01*
X84326682Y-35943898D01*
X84326682Y-35352378D01*
X84316755Y-35284245D01*
X84265380Y-35179155D01*
X84265378Y-35179153D01*
X84265378Y-35179152D01*
X84182667Y-35096441D01*
X84077573Y-35045064D01*
X84009443Y-35035138D01*
X84009442Y-35035138D01*
X83042922Y-35035138D01*
X83042921Y-35035138D01*
X82974790Y-35045064D01*
X82869696Y-35096441D01*
X82786985Y-35179152D01*
X82735608Y-35284246D01*
X82731701Y-35311064D01*
X82702557Y-35374565D01*
X82643708Y-35412229D01*
X82608997Y-35417186D01*
X80159069Y-35417186D01*
X80092030Y-35397501D01*
X80083168Y-35391242D01*
X79941899Y-35281891D01*
X79941895Y-35281889D01*
X79870335Y-35246787D01*
X79768340Y-35196756D01*
X79768338Y-35196755D01*
X79768335Y-35196754D01*
X79768337Y-35196754D01*
X79581206Y-35148302D01*
X79581200Y-35148301D01*
X79452488Y-35141773D01*
X79388134Y-35138510D01*
X79388133Y-35138510D01*
X79388131Y-35138510D01*
X79197057Y-35167781D01*
X79197045Y-35167784D01*
X79015775Y-35234920D01*
X79015766Y-35234924D01*
X78851720Y-35337174D01*
X78711604Y-35470363D01*
X78601170Y-35629028D01*
X78524937Y-35806673D01*
X78486024Y-35996029D01*
X78486024Y-36390893D01*
X78500678Y-36535008D01*
X78558546Y-36719445D01*
X78558553Y-36719460D01*
X78652363Y-36888474D01*
X78652366Y-36888479D01*
X78778282Y-37035152D01*
X78778283Y-37035154D01*
X78931148Y-37153480D01*
X78931151Y-37153482D01*
X79104708Y-37238616D01*
X79104712Y-37238617D01*
X79104710Y-37238617D01*
X79291841Y-37287069D01*
X79291844Y-37287069D01*
X79291850Y-37287071D01*
X79484914Y-37296862D01*
X79675998Y-37267589D01*
X79857277Y-37200450D01*
X80021331Y-37098195D01*
X80161443Y-36965009D01*
X80271877Y-36806344D01*
X80348111Y-36628698D01*
X80387024Y-36439342D01*
X80387024Y-36044480D01*
X80384365Y-36018335D01*
X80373830Y-35914731D01*
X80386632Y-35846044D01*
X80434536Y-35795182D01*
X80497194Y-35778186D01*
X82601682Y-35778186D01*
X82668721Y-35797871D01*
X82714476Y-35850675D01*
X82725682Y-35902186D01*
X82725682Y-35943898D01*
X82735608Y-36012029D01*
X82786985Y-36117123D01*
X82869697Y-36199835D01*
X82901080Y-36215177D01*
X82952663Y-36262304D01*
X82970578Y-36329838D01*
X82949138Y-36396337D01*
X82948195Y-36397702D01*
X82679431Y-36781532D01*
X82664941Y-36798683D01*
X82652976Y-36810486D01*
X82648857Y-36823392D01*
X82609720Y-36881272D01*
X82603880Y-36884879D01*
X82603946Y-36884965D01*
X82590570Y-36895296D01*
X82588977Y-36896311D01*
X82586060Y-36898708D01*
X82584750Y-36900082D01*
X82583359Y-36901297D01*
X82563119Y-36930203D01*
X82558637Y-36936208D01*
X82536693Y-36963831D01*
X82535931Y-36965494D01*
X82524782Y-36984953D01*
X81954605Y-37799265D01*
X81940124Y-37816407D01*
X81928151Y-37828220D01*
X81928150Y-37828222D01*
X81917423Y-37861848D01*
X81914936Y-37868902D01*
X81902201Y-37901816D01*
X81901969Y-37903631D01*
X81901558Y-37905484D01*
X81901188Y-37909270D01*
X81901233Y-37911163D01*
X81901110Y-37912991D01*
X81907237Y-37947741D01*
X81908314Y-37955148D01*
X81912334Y-37990214D01*
X81912965Y-37991912D01*
X81918843Y-38013564D01*
X82198159Y-39597644D01*
X82200040Y-39620005D01*
X82199927Y-39636826D01*
X82199928Y-39636829D01*
X82216123Y-39668196D01*
X82219356Y-39674951D01*
X82233617Y-39707215D01*
X82234727Y-39708651D01*
X82235747Y-39710252D01*
X82238181Y-39713212D01*
X82239546Y-39714515D01*
X82240746Y-39715888D01*
X82269657Y-39736131D01*
X82275646Y-39740599D01*
X82303290Y-39762559D01*
X82303295Y-39762560D01*
X82304931Y-39763310D01*
X82324405Y-39774467D01*
X86672228Y-42818839D01*
X86693658Y-42839291D01*
X86697465Y-42842317D01*
X86697466Y-42842318D01*
X86711700Y-42853632D01*
X86718709Y-42859203D01*
X86729232Y-42868592D01*
X87971688Y-44111027D01*
X87983207Y-44124308D01*
X89338519Y-45931395D01*
X89482850Y-46123836D01*
X89491310Y-46136713D01*
X90451226Y-47816562D01*
X90493705Y-47890900D01*
X90496952Y-47896966D01*
X91488703Y-49880458D01*
X91500107Y-49915528D01*
X91841314Y-51962799D01*
X91832918Y-52032162D01*
X91788355Y-52085975D01*
X91721772Y-52107153D01*
X91654309Y-52088971D01*
X91607386Y-52037203D01*
X91598015Y-52010358D01*
X91491138Y-51534409D01*
X91490576Y-51530548D01*
X91489856Y-51527961D01*
X91488289Y-51521702D01*
X91487715Y-51519131D01*
X91486390Y-51515452D01*
X91278724Y-50765025D01*
X91277969Y-50761211D01*
X91277184Y-50758845D01*
X91275305Y-50752650D01*
X91274598Y-50750081D01*
X91273084Y-50746451D01*
X91028853Y-50007144D01*
X91027921Y-50003415D01*
X91026982Y-50000984D01*
X91024875Y-49995093D01*
X91024071Y-49992652D01*
X91022419Y-49989164D01*
X91003307Y-49939620D01*
X90742339Y-49263096D01*
X90741218Y-49259317D01*
X90739925Y-49256404D01*
X90737537Y-49250638D01*
X90736563Y-49248108D01*
X90734728Y-49244688D01*
X90651798Y-49057602D01*
X90419362Y-48533235D01*
X90418032Y-48529460D01*
X90416794Y-48527015D01*
X90413927Y-48520953D01*
X90412921Y-48518668D01*
X90410872Y-48515268D01*
X90328208Y-48351044D01*
X90061001Y-47820200D01*
X90059512Y-47816562D01*
X90058052Y-47813990D01*
X90055080Y-47808430D01*
X90053961Y-47806201D01*
X90051824Y-47803002D01*
X89875579Y-47491880D01*
X89668041Y-47125517D01*
X89666422Y-47122066D01*
X89664749Y-47119418D01*
X89661745Y-47114407D01*
X89660279Y-47111825D01*
X89658021Y-47108788D01*
X89484023Y-46834018D01*
X89241428Y-46450922D01*
X89239579Y-46447449D01*
X89238194Y-46445493D01*
X89234471Y-46439920D01*
X89233363Y-46438161D01*
X89230902Y-46435152D01*
X88888274Y-45948661D01*
X88778383Y-45792629D01*
X88776547Y-45789947D01*
X88775903Y-45788980D01*
X88775743Y-45789141D01*
X88758298Y-45771666D01*
X88757996Y-45771541D01*
X88757150Y-45771191D01*
X88752194Y-45769136D01*
X88701938Y-45730882D01*
X88617093Y-45622163D01*
X88573154Y-45565859D01*
X88275123Y-45183965D01*
X87754182Y-44580048D01*
X87754172Y-44580036D01*
X87750590Y-44576274D01*
X87394238Y-44201992D01*
X87204197Y-44002389D01*
X87204189Y-44002381D01*
X87157514Y-43957943D01*
X86626531Y-43452404D01*
X86022589Y-42931435D01*
X86022456Y-42931331D01*
X85475674Y-42504623D01*
X85437368Y-42454241D01*
X85435372Y-42449413D01*
X85434897Y-42448264D01*
X85434896Y-42448263D01*
X85417695Y-42431054D01*
X85417142Y-42430684D01*
X85405193Y-42418734D01*
X85403201Y-42416692D01*
X85400840Y-42415073D01*
X84894251Y-42058293D01*
X84758114Y-41962415D01*
X84755239Y-41960070D01*
X84753232Y-41958798D01*
X84748237Y-41955460D01*
X84746136Y-41953981D01*
X84742810Y-41952197D01*
X84084813Y-41535528D01*
X84081806Y-41533285D01*
X84078891Y-41531625D01*
X84074160Y-41528789D01*
X84071771Y-41527284D01*
X84068459Y-41525709D01*
X83972562Y-41471383D01*
X83390551Y-41141672D01*
X83387404Y-41139565D01*
X83384828Y-41138266D01*
X83379604Y-41135473D01*
X83377373Y-41134210D01*
X83373919Y-41132772D01*
X82677767Y-40782362D01*
X82674558Y-40780444D01*
X82672074Y-40779340D01*
X82666798Y-40776844D01*
X82664381Y-40775630D01*
X82660854Y-40774364D01*
X81948745Y-40458709D01*
X81945380Y-40456904D01*
X81942705Y-40455871D01*
X81937144Y-40453567D01*
X81934707Y-40452487D01*
X81931078Y-40451385D01*
X81204266Y-40171024D01*
X81200876Y-40169419D01*
X81198059Y-40168484D01*
X81192705Y-40166569D01*
X81190539Y-40165737D01*
X81187039Y-40164839D01*
X80446949Y-39920343D01*
X80443439Y-39918880D01*
X80440489Y-39918061D01*
X80434905Y-39916367D01*
X80432743Y-39915655D01*
X80429159Y-39914922D01*
X79677447Y-39706895D01*
X79673941Y-39705650D01*
X79671433Y-39705085D01*
X79665765Y-39703665D01*
X79663414Y-39703016D01*
X79659765Y-39702462D01*
X78899127Y-39531655D01*
X78895560Y-39530577D01*
X78892808Y-39530096D01*
X78887174Y-39528976D01*
X78884607Y-39528403D01*
X78880948Y-39528034D01*
X78113054Y-39394794D01*
X78109432Y-39393889D01*
X78106638Y-39393541D01*
X78100898Y-39392690D01*
X78098405Y-39392260D01*
X78094715Y-39392067D01*
X77320780Y-39296609D01*
X77317128Y-39295896D01*
X77314767Y-39295721D01*
X77308793Y-39295132D01*
X77306736Y-39294879D01*
X77303078Y-39294856D01*
X76525806Y-39237527D01*
X76522115Y-39236968D01*
X76518652Y-39236873D01*
X76513269Y-39236608D01*
X76510235Y-39236392D01*
X76506562Y-39236570D01*
X75727376Y-39217439D01*
X75723720Y-39217089D01*
X75721042Y-39217150D01*
X75715383Y-39217149D01*
X75712981Y-39217093D01*
X75709360Y-39217432D01*
X74930133Y-39236562D01*
X74926425Y-39236375D01*
X74923177Y-39236606D01*
X74917780Y-39236872D01*
X74914912Y-39236950D01*
X74911314Y-39237475D01*
X74133582Y-39294846D01*
X74129906Y-39294862D01*
X74127591Y-39295146D01*
X74121725Y-39295723D01*
X74119588Y-39295882D01*
X74115992Y-39296574D01*
X73341908Y-39392044D01*
X73338214Y-39392231D01*
X73335475Y-39392702D01*
X73329861Y-39393535D01*
X73327318Y-39393852D01*
X73323768Y-39394728D01*
X72555658Y-39528006D01*
X72551995Y-39528371D01*
X72549155Y-39529002D01*
X72543726Y-39530081D01*
X72541195Y-39530525D01*
X72537712Y-39531565D01*
X71776726Y-39702455D01*
X71773131Y-39702999D01*
X71770508Y-39703719D01*
X71765183Y-39705052D01*
X71762424Y-39705678D01*
X71758964Y-39706907D01*
X71007355Y-39914904D01*
X71003806Y-39915627D01*
X71001401Y-39916416D01*
X70996103Y-39918023D01*
X70993360Y-39918788D01*
X70989957Y-39920191D01*
X70249433Y-40164824D01*
X70245992Y-40165705D01*
X70243594Y-40166623D01*
X70238532Y-40168433D01*
X70235899Y-40169310D01*
X70232618Y-40170848D01*
X69505401Y-40451368D01*
X69501894Y-40452432D01*
X69499024Y-40453694D01*
X69494080Y-40455742D01*
X69491328Y-40456812D01*
X69488107Y-40458525D01*
X68775572Y-40774368D01*
X68772132Y-40775603D01*
X68769457Y-40776941D01*
X68764548Y-40779262D01*
X68761805Y-40780486D01*
X68758653Y-40782371D01*
X68250519Y-41038146D01*
X68181787Y-41050705D01*
X68117177Y-41024111D01*
X68077200Y-40966808D01*
X68074551Y-40896988D01*
X68110069Y-40836820D01*
X68132764Y-40820000D01*
X69590795Y-39978204D01*
X69606221Y-39970672D01*
X69612989Y-39967929D01*
X69612988Y-39967929D01*
X69612994Y-39967928D01*
X69650705Y-39943766D01*
X69655506Y-39940844D01*
X69670568Y-39932149D01*
X69670572Y-39932145D01*
X69670578Y-39932142D01*
X69675121Y-39928926D01*
X69682951Y-39923107D01*
X69704439Y-39909340D01*
X69704439Y-39909339D01*
X69704442Y-39909338D01*
X69708111Y-39904319D01*
X69727526Y-39883349D01*
X69732249Y-39879304D01*
X69744328Y-39856808D01*
X69753478Y-39842282D01*
X69768552Y-39821670D01*
X69770159Y-39815670D01*
X69780688Y-39789098D01*
X69783631Y-39783619D01*
X69786767Y-39758279D01*
X69790053Y-39741424D01*
X70135923Y-38450652D01*
X70141506Y-38434413D01*
X70144344Y-38427706D01*
X70144351Y-38427697D01*
X70153922Y-38383992D01*
X70155279Y-38378417D01*
X70155670Y-38376959D01*
X70159762Y-38361690D01*
X70159763Y-38361674D01*
X70160709Y-38356147D01*
X70162120Y-38346560D01*
X70167586Y-38321604D01*
X70166631Y-38315457D01*
X70165532Y-38286896D01*
X70166010Y-38280708D01*
X70158646Y-38256264D01*
X70154844Y-38239520D01*
X70150927Y-38214281D01*
X70147818Y-38208897D01*
X70136475Y-38182659D01*
X70134685Y-38176715D01*
X70133347Y-38174999D01*
X70118985Y-38156577D01*
X70109390Y-38142336D01*
X69974333Y-37908411D01*
X69833769Y-37664946D01*
X69817297Y-37597048D01*
X69840150Y-37531021D01*
X69895071Y-37487830D01*
X69964624Y-37481189D01*
X70026727Y-37513205D01*
X70028838Y-37515267D01*
X70349317Y-37835747D01*
X70363685Y-37852987D01*
X70373241Y-37866832D01*
X70373244Y-37866834D01*
X70373245Y-37866835D01*
X70404505Y-37883241D01*
X70411005Y-37886907D01*
X70441214Y-37905169D01*
X70441215Y-37905169D01*
X70442926Y-37905702D01*
X70444678Y-37906427D01*
X70448415Y-37907469D01*
X70450287Y-37907754D01*
X70452029Y-37908183D01*
X70452032Y-37908185D01*
X70487329Y-37908185D01*
X70494813Y-37908410D01*
X70530030Y-37910541D01*
X70530034Y-37910539D01*
X70531796Y-37910217D01*
X70554152Y-37908185D01*
X75398865Y-37908185D01*
X75421209Y-37910217D01*
X75437754Y-37913250D01*
X75464609Y-37904881D01*
X75471448Y-37902750D01*
X75478642Y-37900743D01*
X75512922Y-37892295D01*
X75512929Y-37892288D01*
X75514494Y-37891468D01*
X75516252Y-37890740D01*
X75519651Y-37888823D01*
X75521177Y-37887700D01*
X75522695Y-37886780D01*
X75522704Y-37886778D01*
X75547673Y-37861806D01*
X75553092Y-37856704D01*
X75579523Y-37833291D01*
X75579525Y-37833284D01*
X75580545Y-37831809D01*
X75594910Y-37814570D01*
X76255195Y-37154278D01*
X76316517Y-37120794D01*
X76386209Y-37125778D01*
X76418773Y-37143901D01*
X76431151Y-37153482D01*
X76604708Y-37238616D01*
X76604712Y-37238617D01*
X76604710Y-37238617D01*
X76791841Y-37287069D01*
X76791844Y-37287069D01*
X76791850Y-37287071D01*
X76984914Y-37296862D01*
X77175998Y-37267589D01*
X77357277Y-37200450D01*
X77521331Y-37098195D01*
X77661443Y-36965009D01*
X77771877Y-36806344D01*
X77848111Y-36628698D01*
X77887024Y-36439342D01*
X77887024Y-36044480D01*
X77884366Y-36018335D01*
X77872369Y-35900363D01*
X77814501Y-35715926D01*
X77814499Y-35715922D01*
X77814498Y-35715918D01*
X77720683Y-35546895D01*
X77720682Y-35546894D01*
X77720681Y-35546892D01*
X77594765Y-35400219D01*
X77594764Y-35400217D01*
X77441899Y-35281891D01*
X77441895Y-35281889D01*
X77370335Y-35246787D01*
X77268340Y-35196756D01*
X77268338Y-35196755D01*
X77268335Y-35196754D01*
X77268337Y-35196754D01*
X77081206Y-35148302D01*
X77081200Y-35148301D01*
X76952488Y-35141773D01*
X76888134Y-35138510D01*
X76888133Y-35138510D01*
X76888131Y-35138510D01*
X76697057Y-35167781D01*
X76697045Y-35167784D01*
X76515775Y-35234920D01*
X76515766Y-35234924D01*
X76351720Y-35337174D01*
X76211604Y-35470363D01*
X76101170Y-35629028D01*
X76024937Y-35806673D01*
X75986024Y-35996029D01*
X75986024Y-36390893D01*
X76000678Y-36535008D01*
X76058546Y-36719445D01*
X76061030Y-36725232D01*
X76058758Y-36726206D01*
X76071665Y-36783668D01*
X76047690Y-36849295D01*
X76035606Y-36863337D01*
X75388081Y-37510866D01*
X75326757Y-37544351D01*
X75300399Y-37547185D01*
X73267034Y-37547185D01*
X73199995Y-37527500D01*
X73154240Y-37474696D01*
X73144296Y-37405538D01*
X73161496Y-37358088D01*
X73220877Y-37261816D01*
X73220882Y-37261805D01*
X73276029Y-37095383D01*
X73276030Y-37095376D01*
X73286523Y-36992672D01*
X73286523Y-36661874D01*
X73306207Y-36594835D01*
X73359011Y-36549080D01*
X73428170Y-36539136D01*
X73491725Y-36568161D01*
X73528836Y-36624752D01*
X73558547Y-36719448D01*
X73558553Y-36719460D01*
X73652363Y-36888474D01*
X73652366Y-36888479D01*
X73778282Y-37035152D01*
X73778283Y-37035154D01*
X73931148Y-37153480D01*
X73931151Y-37153482D01*
X74104708Y-37238616D01*
X74104712Y-37238617D01*
X74104710Y-37238617D01*
X74291841Y-37287069D01*
X74291844Y-37287069D01*
X74291850Y-37287071D01*
X74484914Y-37296862D01*
X74675998Y-37267589D01*
X74857277Y-37200450D01*
X75021331Y-37098195D01*
X75161443Y-36965009D01*
X75271877Y-36806344D01*
X75348111Y-36628698D01*
X75387024Y-36439342D01*
X75387024Y-36044480D01*
X75384366Y-36018335D01*
X75372369Y-35900363D01*
X75314501Y-35715926D01*
X75314499Y-35715922D01*
X75314498Y-35715918D01*
X75220683Y-35546895D01*
X75220682Y-35546894D01*
X75220681Y-35546892D01*
X75094765Y-35400219D01*
X75094764Y-35400217D01*
X74941899Y-35281891D01*
X74941895Y-35281889D01*
X74923453Y-35272843D01*
X74870333Y-35246786D01*
X74818815Y-35199590D01*
X74800990Y-35132032D01*
X74822520Y-35065562D01*
X74837259Y-35047781D01*
X76529361Y-33355672D01*
X76590682Y-33322189D01*
X76617030Y-33319355D01*
X82560202Y-33319355D01*
X82627241Y-33339040D01*
X82647880Y-33355671D01*
X82693628Y-33401416D01*
X82727115Y-33462738D01*
X82728654Y-33506973D01*
X82725682Y-33527378D01*
X82725682Y-33527383D01*
X82725682Y-34118898D01*
X82735608Y-34187029D01*
X82786985Y-34292123D01*
X82869696Y-34374834D01*
X82869697Y-34374834D01*
X82869699Y-34374836D01*
X82974789Y-34426211D01*
X83008855Y-34431174D01*
X83042921Y-34436138D01*
X83042922Y-34436138D01*
X84009443Y-34436138D01*
X84032153Y-34432829D01*
X84077575Y-34426211D01*
X84182665Y-34374836D01*
X84265380Y-34292121D01*
X84316755Y-34187031D01*
X84326682Y-34118898D01*
X84326682Y-33527378D01*
X84326649Y-33527154D01*
X84316755Y-33459246D01*
X84316755Y-33459245D01*
X84265380Y-33354155D01*
X84265378Y-33354153D01*
X84265378Y-33354152D01*
X84182667Y-33271441D01*
X84077573Y-33220064D01*
X84009443Y-33210138D01*
X84009442Y-33210138D01*
X83375376Y-33210138D01*
X83308337Y-33190453D01*
X83287696Y-33173821D01*
X82983405Y-32869539D01*
X82972130Y-32856582D01*
X82967732Y-32850758D01*
X82934651Y-32820600D01*
X82930531Y-32816666D01*
X82918268Y-32804404D01*
X82918264Y-32804401D01*
X82913999Y-32800860D01*
X82906344Y-32794796D01*
X82887469Y-32777589D01*
X82887468Y-32777588D01*
X82882451Y-32775645D01*
X82881664Y-32775340D01*
X82856389Y-32762017D01*
X82851259Y-32758503D01*
X82826398Y-32752655D01*
X82810003Y-32747578D01*
X82799961Y-32743688D01*
X82786195Y-32738355D01*
X82779975Y-32738355D01*
X82751586Y-32735061D01*
X82745535Y-32733638D01*
X82745534Y-32733638D01*
X82720245Y-32737166D01*
X82703114Y-32738355D01*
X76510536Y-32738355D01*
X76493416Y-32737167D01*
X76486184Y-32736158D01*
X76441490Y-32738224D01*
X76435772Y-32738356D01*
X76418438Y-32738356D01*
X76412890Y-32738871D01*
X76403202Y-32739995D01*
X76377686Y-32741175D01*
X76371995Y-32743688D01*
X76344708Y-32752138D01*
X76338595Y-32753281D01*
X76338593Y-32753281D01*
X76338591Y-32753282D01*
X76338589Y-32753282D01*
X76338589Y-32753283D01*
X76316873Y-32766728D01*
X76301691Y-32774729D01*
X76295216Y-32777589D01*
X76278330Y-32785045D01*
X76273931Y-32789444D01*
X76251541Y-32807179D01*
X76246253Y-32810453D01*
X76246248Y-32810457D01*
X76230858Y-32830837D01*
X76219587Y-32843788D01*
X74599205Y-34464175D01*
X74537882Y-34497660D01*
X74468191Y-34492676D01*
X74423843Y-34464175D01*
X74251791Y-34292123D01*
X72877057Y-32917385D01*
X72865782Y-32904429D01*
X72861382Y-32898602D01*
X72861381Y-32898600D01*
X72853725Y-32891621D01*
X72828322Y-32868463D01*
X72824197Y-32864525D01*
X72811922Y-32852250D01*
X72811921Y-32852249D01*
X72811918Y-32852246D01*
X72807675Y-32848723D01*
X72799995Y-32842640D01*
X72781119Y-32825432D01*
X72781117Y-32825431D01*
X72775315Y-32823183D01*
X72750042Y-32809861D01*
X72744914Y-32806349D01*
X72744910Y-32806346D01*
X72720052Y-32800499D01*
X72703658Y-32795422D01*
X72679850Y-32786199D01*
X72679845Y-32786198D01*
X72679844Y-32786197D01*
X72679839Y-32786197D01*
X72673617Y-32786197D01*
X72645250Y-32782905D01*
X72639196Y-32781481D01*
X72639186Y-32781481D01*
X72613900Y-32785008D01*
X72596772Y-32786197D01*
X70399827Y-32786197D01*
X70382688Y-32785007D01*
X70375477Y-32784000D01*
X70375476Y-32784000D01*
X70375474Y-32784000D01*
X70342163Y-32785538D01*
X70330775Y-32786065D01*
X70325055Y-32786197D01*
X70307714Y-32786197D01*
X70302191Y-32786708D01*
X70292497Y-32787832D01*
X70283409Y-32788252D01*
X70266982Y-32789012D01*
X70261279Y-32791530D01*
X70233999Y-32799976D01*
X70227882Y-32801119D01*
X70227873Y-32801123D01*
X70206169Y-32814561D01*
X70190978Y-32822568D01*
X70167630Y-32832876D01*
X70167626Y-32832878D01*
X70163222Y-32837282D01*
X70140843Y-32855008D01*
X70135537Y-32858293D01*
X70135533Y-32858297D01*
X70120149Y-32878668D01*
X70108876Y-32891621D01*
X69996616Y-33003873D01*
X69935292Y-33037356D01*
X69908939Y-33040189D01*
X68490991Y-33040196D01*
X68464463Y-33037325D01*
X68455248Y-33035307D01*
X68455244Y-33035306D01*
X68433155Y-33038733D01*
X68424885Y-33039376D01*
X68424913Y-33039669D01*
X68419210Y-33040197D01*
X68419208Y-33040198D01*
X68419205Y-33040198D01*
X68419200Y-33040199D01*
X68399030Y-33043969D01*
X68395265Y-33044613D01*
X68347917Y-33051960D01*
X68347457Y-33052123D01*
X68346338Y-33052422D01*
X68345440Y-33052771D01*
X68341860Y-33054095D01*
X68340883Y-33054439D01*
X68339815Y-33054950D01*
X68339373Y-33055121D01*
X68298659Y-33080328D01*
X68295381Y-33082288D01*
X68070850Y-33211908D01*
X68002949Y-33228377D01*
X67976763Y-33224293D01*
X67578525Y-33117591D01*
X67518864Y-33081227D01*
X67488334Y-33018381D01*
X67496628Y-32949005D01*
X67541113Y-32895126D01*
X67566086Y-32882089D01*
X67775907Y-32801382D01*
X67778050Y-32800583D01*
X67869076Y-32767686D01*
X67871205Y-32766941D01*
X68707572Y-32483826D01*
X68709813Y-32483092D01*
X68802022Y-32453961D01*
X68804249Y-32453283D01*
X69651521Y-32204501D01*
X69653652Y-32203899D01*
X69747114Y-32178515D01*
X69749207Y-32177970D01*
X70605932Y-31963952D01*
X70608231Y-31963402D01*
X70702461Y-31941895D01*
X70704782Y-31941390D01*
X71569417Y-31762516D01*
X71571762Y-31762056D01*
X71666866Y-31744396D01*
X71669116Y-31744002D01*
X72540363Y-31600539D01*
X72542621Y-31600190D01*
X72638397Y-31586420D01*
X72640727Y-31586109D01*
X73517073Y-31478306D01*
X73519339Y-31478050D01*
X73615642Y-31468193D01*
X73617939Y-31467983D01*
X74497930Y-31396016D01*
X74500303Y-31395846D01*
X74596809Y-31389932D01*
X74599098Y-31389815D01*
X75481461Y-31353794D01*
X75483653Y-31353728D01*
X75580315Y-31351756D01*
X75582842Y-31351730D01*
X76465612Y-31351730D01*
X76468139Y-31351756D01*
G37*
%TD.AperFunction*%
%TA.AperFunction,Conductor*%
G36*
X65748863Y-35102590D02*
G01*
X65792054Y-35157512D01*
X65798695Y-35227065D01*
X65779801Y-35272843D01*
X65754493Y-35310437D01*
X65724217Y-35423427D01*
X65724217Y-35423428D01*
X65732269Y-35540125D01*
X65757738Y-35604092D01*
X65757743Y-35604102D01*
X66264872Y-36482473D01*
X66266000Y-36484427D01*
X66308663Y-36538468D01*
X66405700Y-36603792D01*
X66405701Y-36603792D01*
X66405702Y-36603793D01*
X66449541Y-36615538D01*
X66518691Y-36634067D01*
X66635389Y-36626014D01*
X66643823Y-36622655D01*
X66713388Y-36616145D01*
X66762885Y-36637765D01*
X66768978Y-36642221D01*
X66774975Y-36643827D01*
X66801549Y-36654357D01*
X66807029Y-36657300D01*
X66807032Y-36657300D01*
X66813213Y-36659267D01*
X66871130Y-36698348D01*
X66898724Y-36762538D01*
X66895397Y-36809526D01*
X66734606Y-37409593D01*
X66698240Y-37469253D01*
X66676832Y-37484886D01*
X66519551Y-37575693D01*
X66497076Y-37595401D01*
X66479393Y-37631257D01*
X66479393Y-37631259D01*
X66476861Y-37669915D01*
X66475981Y-37683341D01*
X66474425Y-37683239D01*
X66465793Y-37738565D01*
X66449243Y-37764656D01*
X66397041Y-37827879D01*
X66340442Y-37960050D01*
X66340442Y-37960051D01*
X66323371Y-38102814D01*
X66323372Y-38102816D01*
X66347213Y-38244598D01*
X66347215Y-38244604D01*
X66371448Y-38299380D01*
X66395357Y-38340792D01*
X66395358Y-38340792D01*
X67070338Y-37951093D01*
X67076742Y-37927192D01*
X67074912Y-37919646D01*
X67097764Y-37853619D01*
X67131874Y-37821140D01*
X67136938Y-37817895D01*
X67204002Y-37798306D01*
X67271014Y-37818084D01*
X67272087Y-37819211D01*
X67290309Y-37824093D01*
X67965288Y-37434394D01*
X67965288Y-37434393D01*
X67941379Y-37392980D01*
X67906056Y-37344603D01*
X67906056Y-37344602D01*
X67795190Y-37253063D01*
X67663017Y-37196465D01*
X67543677Y-37182194D01*
X67479449Y-37154688D01*
X67440287Y-37096825D01*
X67438625Y-37026980D01*
X67487761Y-36843602D01*
X67524126Y-36783946D01*
X67531291Y-36777911D01*
X67557226Y-36757690D01*
X67571482Y-36748085D01*
X67585633Y-36739916D01*
X67585641Y-36739909D01*
X68132212Y-36424347D01*
X68200109Y-36407875D01*
X68226299Y-36411959D01*
X68428883Y-36466242D01*
X68488543Y-36502607D01*
X68504176Y-36524017D01*
X68852957Y-37128126D01*
X68869430Y-37196026D01*
X68865344Y-37222221D01*
X68852935Y-37268530D01*
X68816570Y-37328190D01*
X68795161Y-37343822D01*
X68240927Y-37663812D01*
X68173027Y-37680285D01*
X68118171Y-37661299D01*
X68092288Y-37654364D01*
X67417310Y-38044062D01*
X67412179Y-38063210D01*
X67416923Y-38082765D01*
X67394070Y-38148791D01*
X67373744Y-38171026D01*
X67369107Y-38174999D01*
X67305390Y-38203669D01*
X67236288Y-38193341D01*
X67216823Y-38176284D01*
X67197337Y-38171063D01*
X66522357Y-38560762D01*
X66546269Y-38602177D01*
X66546273Y-38602184D01*
X66581591Y-38650554D01*
X66581591Y-38650555D01*
X66692457Y-38742094D01*
X66692459Y-38742095D01*
X66757455Y-38769927D01*
X66811333Y-38814411D01*
X66832609Y-38880963D01*
X66831767Y-38898638D01*
X66823372Y-38968840D01*
X66823373Y-38968842D01*
X66847214Y-39110624D01*
X66847216Y-39110630D01*
X66871449Y-39165406D01*
X66895358Y-39206818D01*
X66895359Y-39206818D01*
X67409308Y-38910090D01*
X67917309Y-38910090D01*
X68167308Y-39343102D01*
X68167309Y-39343102D01*
X68450691Y-39179492D01*
X68450705Y-39179483D01*
X68499064Y-39144172D01*
X68499070Y-39144166D01*
X68590607Y-39033304D01*
X68647206Y-38901133D01*
X68647206Y-38901132D01*
X68664277Y-38758369D01*
X68664276Y-38758367D01*
X68640435Y-38616585D01*
X68640432Y-38616576D01*
X68616207Y-38561817D01*
X68592289Y-38520390D01*
X67917309Y-38910089D01*
X67917309Y-38910090D01*
X67409308Y-38910090D01*
X67570337Y-38817120D01*
X67576077Y-38795697D01*
X67572729Y-38781896D01*
X67595581Y-38715868D01*
X67650501Y-38672677D01*
X67655384Y-38670840D01*
X67661143Y-38668811D01*
X67730914Y-38665100D01*
X67761058Y-38682281D01*
X67790311Y-38690120D01*
X68465289Y-38300420D01*
X68471603Y-38276857D01*
X68469567Y-38268466D01*
X68492417Y-38202438D01*
X68531424Y-38166975D01*
X68970888Y-37913249D01*
X69115019Y-37830034D01*
X69182919Y-37813561D01*
X69248946Y-37836413D01*
X69284406Y-37875421D01*
X69350682Y-37990214D01*
X69518397Y-38280708D01*
X69534766Y-38309059D01*
X69551239Y-38376959D01*
X69547154Y-38403153D01*
X69265841Y-39452999D01*
X69229475Y-39512660D01*
X69208066Y-39528292D01*
X61955117Y-43715790D01*
X61887217Y-43732263D01*
X61821190Y-43709410D01*
X61777999Y-43654489D01*
X61771358Y-43584936D01*
X61791539Y-43537285D01*
X63691550Y-40823788D01*
X64602683Y-40823788D01*
X64626595Y-40865203D01*
X64626599Y-40865210D01*
X64661917Y-40913580D01*
X64661917Y-40913581D01*
X64772783Y-41005120D01*
X64904956Y-41061718D01*
X64904955Y-41061718D01*
X65047719Y-41078789D01*
X65047720Y-41078789D01*
X65189501Y-41054948D01*
X65244274Y-41030718D01*
X65527663Y-40867103D01*
X65527663Y-40867102D01*
X65277664Y-40434089D01*
X65277663Y-40434089D01*
X64602683Y-40823788D01*
X63691550Y-40823788D01*
X63994750Y-40390774D01*
X64352683Y-40390774D01*
X64376595Y-40432189D01*
X64376601Y-40432199D01*
X64413321Y-40482488D01*
X64426575Y-40505445D01*
X64451770Y-40562399D01*
X64451774Y-40562406D01*
X64475683Y-40603818D01*
X64475684Y-40603818D01*
X64989634Y-40307090D01*
X65497634Y-40307090D01*
X65747633Y-40740102D01*
X65747634Y-40740102D01*
X66031016Y-40576492D01*
X66031030Y-40576483D01*
X66079389Y-40541172D01*
X66079395Y-40541166D01*
X66170932Y-40430304D01*
X66227531Y-40298133D01*
X66227531Y-40298132D01*
X66244602Y-40155369D01*
X66244601Y-40155367D01*
X66220760Y-40013585D01*
X66220757Y-40013576D01*
X66196532Y-39958817D01*
X66172614Y-39917390D01*
X65497634Y-40307089D01*
X65497634Y-40307090D01*
X64989634Y-40307090D01*
X65370635Y-40087120D01*
X66045614Y-39697420D01*
X66045614Y-39697419D01*
X66021705Y-39656006D01*
X65984976Y-39605703D01*
X65971722Y-39582746D01*
X65946530Y-39525798D01*
X65922614Y-39484376D01*
X65064118Y-39980029D01*
X65064116Y-39980029D01*
X64352683Y-40390774D01*
X63994750Y-40390774D01*
X64111124Y-40224574D01*
X64165699Y-40180951D01*
X64217374Y-40175602D01*
X65120635Y-39654106D01*
X65514361Y-39426788D01*
X67022358Y-39426788D01*
X67046270Y-39468203D01*
X67046274Y-39468210D01*
X67081592Y-39516580D01*
X67081592Y-39516581D01*
X67192458Y-39608120D01*
X67324631Y-39664718D01*
X67324630Y-39664718D01*
X67467394Y-39681789D01*
X67467395Y-39681789D01*
X67609176Y-39657948D01*
X67663949Y-39633718D01*
X67947338Y-39470103D01*
X67947338Y-39470102D01*
X67697339Y-39037089D01*
X67697338Y-39037089D01*
X67022358Y-39426788D01*
X65514361Y-39426788D01*
X65795614Y-39264406D01*
X65795614Y-39264405D01*
X65771705Y-39222992D01*
X65736382Y-39174615D01*
X65736382Y-39174614D01*
X65625516Y-39083075D01*
X65493343Y-39026477D01*
X65493344Y-39026477D01*
X65350580Y-39009406D01*
X65350579Y-39009406D01*
X65269722Y-39023003D01*
X65200347Y-39014708D01*
X65177575Y-39001379D01*
X65174982Y-39000100D01*
X65158909Y-38992173D01*
X65107492Y-38944869D01*
X65089811Y-38877274D01*
X65090020Y-38872890D01*
X65091194Y-38854975D01*
X65081587Y-38826673D01*
X64979904Y-38650555D01*
X64944688Y-38589559D01*
X64944686Y-38589557D01*
X64939006Y-38583080D01*
X64924981Y-38567086D01*
X64903301Y-38556394D01*
X64889124Y-38549402D01*
X64875824Y-38548530D01*
X64849227Y-38546788D01*
X64849226Y-38546788D01*
X64849225Y-38546788D01*
X64820927Y-38556394D01*
X64820920Y-38556397D01*
X64099880Y-38972690D01*
X64099874Y-38972694D01*
X64077401Y-38992401D01*
X64059717Y-39028259D01*
X64056557Y-39040055D01*
X64053483Y-39039231D01*
X64036161Y-39086508D01*
X63998467Y-39120160D01*
X63972885Y-39134930D01*
X63915881Y-39151442D01*
X63844039Y-39154339D01*
X63844034Y-39154340D01*
X63219692Y-39514814D01*
X63151792Y-39531288D01*
X63125595Y-39527202D01*
X63071839Y-39512797D01*
X63012179Y-39476431D01*
X62981651Y-39413584D01*
X62989948Y-39344208D01*
X63032809Y-39291451D01*
X63188309Y-39182570D01*
X63238426Y-39135358D01*
X63295043Y-39032997D01*
X63315356Y-38917798D01*
X63297163Y-38802246D01*
X63297162Y-38802244D01*
X63297162Y-38802243D01*
X63281466Y-38771050D01*
X63266215Y-38740740D01*
X62926933Y-38256196D01*
X62926931Y-38256193D01*
X62926929Y-38256191D01*
X62887723Y-38214571D01*
X62856084Y-38152276D01*
X62858208Y-38097453D01*
X63042275Y-37410516D01*
X64145444Y-37410516D01*
X64282932Y-37648652D01*
X64343378Y-37732361D01*
X64343385Y-37732369D01*
X64474350Y-37848918D01*
X64628670Y-37932127D01*
X64798025Y-37977507D01*
X64973277Y-37982605D01*
X65144976Y-37947152D01*
X65239181Y-37904881D01*
X65282462Y-37879891D01*
X64794963Y-37035516D01*
X64794962Y-37035516D01*
X64145444Y-37410515D01*
X64145444Y-37410516D01*
X63042275Y-37410516D01*
X63291760Y-36479441D01*
X63328124Y-36419783D01*
X63349529Y-36404153D01*
X63495525Y-36319862D01*
X63563422Y-36303390D01*
X63629449Y-36326242D01*
X63672639Y-36381163D01*
X63681470Y-36430855D01*
X63680230Y-36473461D01*
X63715684Y-36645161D01*
X63757958Y-36739371D01*
X63757962Y-36739379D01*
X63895443Y-36977503D01*
X63895444Y-36977503D01*
X64870588Y-36414504D01*
X64938488Y-36398031D01*
X65004515Y-36420884D01*
X65039975Y-36459891D01*
X65208853Y-36752396D01*
X65715474Y-37629890D01*
X65758769Y-37604894D01*
X65842465Y-37544458D01*
X65842467Y-37544456D01*
X65959023Y-37413480D01*
X66042234Y-37259158D01*
X66087610Y-37089811D01*
X66092709Y-36914559D01*
X66057255Y-36742860D01*
X66014981Y-36648650D01*
X66014977Y-36648642D01*
X65490007Y-35739369D01*
X65429561Y-35655660D01*
X65429554Y-35655652D01*
X65298587Y-35539102D01*
X65261063Y-35518869D01*
X65211398Y-35469725D01*
X65196186Y-35401532D01*
X65220257Y-35335939D01*
X65257909Y-35302343D01*
X65614940Y-35096209D01*
X65682836Y-35079738D01*
X65748863Y-35102590D01*
G37*
%TD.AperFunction*%
%TA.AperFunction,Conductor*%
G36*
X72520889Y-33386882D02*
G01*
X72541530Y-33403515D01*
X72934139Y-33796126D01*
X74108560Y-34970551D01*
X74142045Y-35031874D01*
X74143689Y-35041095D01*
X74144832Y-35049286D01*
X74146022Y-35066423D01*
X74146022Y-35100375D01*
X74126337Y-35167414D01*
X74073533Y-35213169D01*
X74065089Y-35216656D01*
X74015773Y-35234921D01*
X74015768Y-35234923D01*
X73851720Y-35337174D01*
X73711604Y-35470363D01*
X73601170Y-35629028D01*
X73524474Y-35807752D01*
X73479947Y-35861596D01*
X73413378Y-35882819D01*
X73345903Y-35864684D01*
X73298945Y-35812947D01*
X73286523Y-35758852D01*
X73286523Y-35442714D01*
X73286522Y-35442698D01*
X73276029Y-35339988D01*
X73220882Y-35173566D01*
X73220880Y-35173561D01*
X73128839Y-35024340D01*
X73004869Y-34900370D01*
X72855648Y-34808329D01*
X72855643Y-34808327D01*
X72689221Y-34753180D01*
X72689214Y-34753179D01*
X72586510Y-34742686D01*
X72186524Y-34742686D01*
X72186524Y-35809667D01*
X72071723Y-35757240D01*
X71970499Y-35742686D01*
X71902549Y-35742686D01*
X71801325Y-35757240D01*
X71686524Y-35809667D01*
X71686524Y-34742686D01*
X71286552Y-34742686D01*
X71286536Y-34742687D01*
X71183826Y-34753180D01*
X71017404Y-34808327D01*
X71017399Y-34808329D01*
X70868178Y-34900370D01*
X70744208Y-35024340D01*
X70652167Y-35173561D01*
X70652165Y-35173566D01*
X70597018Y-35339988D01*
X70597017Y-35339995D01*
X70586524Y-35442699D01*
X70586524Y-35967686D01*
X71532555Y-35967686D01*
X71500005Y-36018335D01*
X71461524Y-36149391D01*
X71461524Y-36285981D01*
X71500005Y-36417037D01*
X71532555Y-36467686D01*
X70586525Y-36467686D01*
X70586525Y-36992672D01*
X70597018Y-37095383D01*
X70652165Y-37261805D01*
X70652169Y-37261814D01*
X70684774Y-37314675D01*
X70703214Y-37382067D01*
X70682291Y-37448731D01*
X70628649Y-37493500D01*
X70559318Y-37502161D01*
X70496311Y-37471964D01*
X70491563Y-37467461D01*
X69546610Y-36522502D01*
X69532251Y-36505274D01*
X69522684Y-36491418D01*
X69511413Y-36481435D01*
X69512968Y-36479678D01*
X69478439Y-36446517D01*
X69044869Y-35695561D01*
X68451437Y-34667719D01*
X68442023Y-34647351D01*
X68436378Y-34631510D01*
X68410432Y-34607574D01*
X68405097Y-34602346D01*
X68380645Y-34576889D01*
X68380644Y-34576888D01*
X68379114Y-34575921D01*
X68377612Y-34574768D01*
X68374302Y-34572812D01*
X68372568Y-34572053D01*
X68370975Y-34571175D01*
X68336877Y-34562038D01*
X68329711Y-34559884D01*
X68296245Y-34548712D01*
X68294443Y-34548567D01*
X68272338Y-34544745D01*
X66907088Y-34178923D01*
X66847428Y-34142558D01*
X66816899Y-34079711D01*
X66825194Y-34010335D01*
X66869679Y-33956457D01*
X66877173Y-33951766D01*
X67330277Y-33690167D01*
X67398174Y-33673695D01*
X67424361Y-33677779D01*
X67929260Y-33813059D01*
X67945510Y-33818646D01*
X67952201Y-33821478D01*
X67952203Y-33821480D01*
X67968087Y-33824959D01*
X67995909Y-33831053D01*
X68001471Y-33832406D01*
X68018228Y-33836897D01*
X68018233Y-33836897D01*
X68023790Y-33837847D01*
X68033372Y-33839259D01*
X68058295Y-33844719D01*
X68064449Y-33843763D01*
X68093005Y-33842665D01*
X68099210Y-33843144D01*
X68123646Y-33835781D01*
X68140396Y-33831978D01*
X68165619Y-33828065D01*
X68171006Y-33824954D01*
X68197249Y-33813608D01*
X68203202Y-33811816D01*
X68223327Y-33796124D01*
X68237567Y-33786528D01*
X68495190Y-33637805D01*
X68557179Y-33621196D01*
X70015428Y-33621188D01*
X70032567Y-33622378D01*
X70039773Y-33623383D01*
X70039779Y-33623385D01*
X70084476Y-33621320D01*
X70090198Y-33621188D01*
X70107543Y-33621188D01*
X70113128Y-33620670D01*
X70122769Y-33619550D01*
X70148270Y-33618373D01*
X70153961Y-33615859D01*
X70181268Y-33607404D01*
X70187381Y-33606262D01*
X70209093Y-33592817D01*
X70224267Y-33584820D01*
X70247626Y-33574508D01*
X70252025Y-33570108D01*
X70274425Y-33552366D01*
X70279721Y-33549088D01*
X70295105Y-33528714D01*
X70306380Y-33515759D01*
X70418637Y-33403512D01*
X70479961Y-33370030D01*
X70506314Y-33367197D01*
X72453850Y-33367197D01*
X72520889Y-33386882D01*
G37*
%TD.AperFunction*%
%TD*%
M02*
