M48
; DRILL file {KiCad 7.0.10} date Wed 03 Apr 2024 07:42:42 PM PDT
; FORMAT={-:-/ absolute / metric / decimal}
; #@! TF.CreationDate,2024-04-03T19:42:42-07:00
; #@! TF.GenerationSoftware,Kicad,Pcbnew,7.0.10
; #@! TF.FileFunction,Plated,1,2,PTH
FMAT,2
METRIC
; #@! TA.AperFunction,Plated,PTH,ViaDrill
T1C0.300
; #@! TA.AperFunction,Plated,PTH,ViaDrill
T2C0.400
; #@! TA.AperFunction,Plated,PTH,ComponentDrill
T3C0.950
%
G90
G05
T1
X52.892Y-50.58
X53.982Y-52.19
X54.841Y-58.477
X54.901Y-55.498
X55.429Y-59.434
X55.532Y-44.931
X55.672Y-46.701
X56.742Y-69.08
X57.126Y-58.134
X57.375Y-52.806
X57.675Y-49.566
X58.289Y-56.874
X58.314Y-55.471
X58.405Y-54.086
X58.452Y-63.67
X58.848Y-46.915
X59.035Y-51.156
X59.967Y-46.659
X60.139Y-39.406
X60.854Y-39.883
X60.901Y-45.411
X60.912Y-71.74
X61.507Y-46.36
X62.093Y-68.644
X63.277Y-66.79
X63.737Y-37.36
X63.779Y-70.599
X63.847Y-38.24
X64.215Y-40.916
X64.358Y-70.046
X65.259Y-73.36
X65.505Y-37.739
X65.805Y-41.136
X67.018Y-40.373
X67.134Y-70.655
X67.999Y-37.346
X68.049Y-77.273
X68.225Y-39.696
X68.587Y-71.469
X68.819Y-73.126
X68.925Y-38.336
X70.287Y-36.238
X71.107Y-38.888
X71.987Y-34.448
X72.432Y-77.81
X74.217Y-38.538
X74.652Y-75.05
X74.992Y-32.25
X75.132Y-79.25
X78.726Y-37.996
X78.902Y-32.19
X80.042Y-74.163
X81.567Y-39.48
X82.7Y-37.904
X82.808Y-72.76
X83.195Y-39.527
X83.351Y-71.463
X84.359Y-40.3
X84.458Y-70.664
X85.672Y-34.54
X86.272Y-37.563
X86.291Y-73.238
X86.892Y-69.053
X87.321Y-70.011
X87.662Y-40.237
X87.665Y-41.622
X88.842Y-37.87
X90.317Y-63.65
X90.469Y-43.517
X92.192Y-69.87
X92.229Y-64.554
X92.737Y-38.68
X92.963Y-54.088
X92.999Y-55.581
X92.999Y-64.684
X93.312Y-49.881
X94.182Y-58.702
X94.247Y-52.777
X94.252Y-61.013
X94.389Y-57.984
X95.992Y-44.77
X96.782Y-55.263
X97.242Y-62.57
X98.342Y-53.22
X99.797Y-55.558
T2
X52.809Y-56.445
X69.573Y-74.987
X88.623Y-71.177
X90.387Y-73.624
X95.227Y-51.111
X99.037Y-50.603
T3
X71.937Y-36.218
X74.437Y-36.218
X76.937Y-36.218
X79.437Y-36.218
M30
