%TF.GenerationSoftware,KiCad,Pcbnew,7.0.10*%
%TF.CreationDate,2024-04-03T19:42:33-07:00*%
%TF.ProjectId,Thermistor Ring,54686572-6d69-4737-946f-722052696e67,rev?*%
%TF.SameCoordinates,Original*%
%TF.FileFunction,Copper,L2,Bot*%
%TF.FilePolarity,Positive*%
%FSLAX46Y46*%
G04 Gerber Fmt 4.6, Leading zero omitted, Abs format (unit mm)*
G04 Created by KiCad (PCBNEW 7.0.10) date 2024-04-03 19:42:33*
%MOMM*%
%LPD*%
G01*
G04 APERTURE LIST*
G04 Aperture macros list*
%AMRoundRect*
0 Rectangle with rounded corners*
0 $1 Rounding radius*
0 $2 $3 $4 $5 $6 $7 $8 $9 X,Y pos of 4 corners*
0 Add a 4 corners polygon primitive as box body*
4,1,4,$2,$3,$4,$5,$6,$7,$8,$9,$2,$3,0*
0 Add four circle primitives for the rounded corners*
1,1,$1+$1,$2,$3*
1,1,$1+$1,$4,$5*
1,1,$1+$1,$6,$7*
1,1,$1+$1,$8,$9*
0 Add four rect primitives between the rounded corners*
20,1,$1+$1,$2,$3,$4,$5,0*
20,1,$1+$1,$4,$5,$6,$7,0*
20,1,$1+$1,$6,$7,$8,$9,0*
20,1,$1+$1,$8,$9,$2,$3,0*%
G04 Aperture macros list end*
%TA.AperFunction,ComponentPad*%
%ADD10RoundRect,0.250000X-0.600000X-0.725000X0.600000X-0.725000X0.600000X0.725000X-0.600000X0.725000X0*%
%TD*%
%TA.AperFunction,ComponentPad*%
%ADD11O,1.700000X1.950000*%
%TD*%
%TA.AperFunction,ViaPad*%
%ADD12C,0.600000*%
%TD*%
%TA.AperFunction,ViaPad*%
%ADD13C,0.800000*%
%TD*%
%TA.AperFunction,Conductor*%
%ADD14C,0.380000*%
%TD*%
%TA.AperFunction,Conductor*%
%ADD15C,0.160000*%
%TD*%
G04 APERTURE END LIST*
D10*
%TO.P,J1,1,Pin_1*%
%TO.N,GND*%
X71936524Y-36217686D03*
D11*
%TO.P,J1,2,Pin_2*%
%TO.N,/Power 3.3-5V*%
X74436524Y-36217686D03*
%TO.P,J1,3,Pin_3*%
%TO.N,/SDA*%
X76936524Y-36217686D03*
%TO.P,J1,4,Pin_4*%
%TO.N,/SCL*%
X79436524Y-36217686D03*
%TD*%
D12*
%TO.N,GND*%
X75131838Y-79249688D03*
X67017822Y-40372657D03*
X53981845Y-52189686D03*
X72431839Y-77809681D03*
X63847288Y-38239990D03*
X64215069Y-40915827D03*
X83351201Y-71463329D03*
X82808342Y-72759770D03*
X68586657Y-71469125D03*
X78726189Y-37995637D03*
X87321066Y-70011054D03*
X65805073Y-41135830D03*
X82699863Y-37903929D03*
X92999378Y-64683870D03*
X84358609Y-40299605D03*
X97241838Y-62569684D03*
X92229374Y-64553875D03*
X65259253Y-73359601D03*
X59035062Y-51155833D03*
X67998935Y-37346027D03*
X92737288Y-38679989D03*
X71106521Y-38887685D03*
X63277288Y-66789987D03*
X92191837Y-69869686D03*
X86290852Y-73238201D03*
X54900924Y-55498079D03*
X58451833Y-63669684D03*
X86271564Y-37563440D03*
X92963395Y-54087647D03*
X83195192Y-39527235D03*
X87662090Y-40236621D03*
X57375066Y-52805833D03*
X85671842Y-34539689D03*
X94389386Y-57983878D03*
X60854431Y-39882845D03*
X94182075Y-58702061D03*
X88841838Y-37869687D03*
X57675074Y-49565825D03*
X86891547Y-69053441D03*
X80041555Y-74163437D03*
X63737288Y-37359989D03*
X61507288Y-46359992D03*
X84457510Y-70663728D03*
X78901836Y-32189683D03*
X92998932Y-55581246D03*
X63778765Y-70598816D03*
X81567288Y-39479991D03*
X90317288Y-63649991D03*
X70286525Y-36237685D03*
X60138507Y-39405946D03*
X62093005Y-68643516D03*
X95991836Y-44769688D03*
X58405060Y-54085834D03*
X58313841Y-55470703D03*
X96781948Y-55263050D03*
X55429376Y-59433879D03*
X67134074Y-70654779D03*
X56741842Y-69079684D03*
X74651835Y-75049684D03*
X55532120Y-44931461D03*
X94251560Y-61013441D03*
X93311787Y-49881376D03*
X90468892Y-43516708D03*
X87665216Y-41622209D03*
X98341841Y-53219684D03*
X68818918Y-73126347D03*
X74216525Y-38537689D03*
X52891841Y-50579688D03*
X94247316Y-52777046D03*
X68225067Y-39695827D03*
X57125877Y-58134117D03*
X99796524Y-55557685D03*
X58289364Y-56873863D03*
X64357982Y-70046363D03*
X55672457Y-46700990D03*
X68925069Y-38335827D03*
X71986527Y-34447685D03*
X65505072Y-37738615D03*
X60911839Y-71739685D03*
X74991837Y-32249678D03*
D13*
%TO.N,/SDA*%
X99036623Y-50602701D03*
X88622629Y-71176689D03*
X90386737Y-73624173D03*
X52808631Y-56444692D03*
X69572624Y-74986686D03*
X95226624Y-51110685D03*
D12*
X54840622Y-58476690D03*
X68048625Y-77272693D03*
%TO.N,/VDD*%
X59967077Y-46659410D03*
X60901060Y-45410521D03*
X58847954Y-46914509D03*
%TD*%
D14*
%TO.N,/Power 3.3-5V*%
X74387827Y-35155220D02*
X74406619Y-35174013D01*
D15*
%TO.N,/SDA*%
X90386737Y-73624173D02*
X90329283Y-73614033D01*
X99036623Y-50602701D02*
X95226624Y-51110685D01*
X68048625Y-77272693D02*
X69572624Y-74986686D01*
X90329283Y-73614033D02*
X88622629Y-71176689D01*
X52808631Y-56444692D02*
X52900188Y-56444695D01*
X54840635Y-58385128D02*
X54840622Y-58476690D01*
X52900188Y-56444695D02*
X54840635Y-58385128D01*
D14*
%TO.N,/VDD*%
X60901060Y-45410521D02*
X59967077Y-46659410D01*
X59967077Y-46659410D02*
X59988794Y-46713361D01*
X59988794Y-46713361D02*
X58847954Y-46914509D01*
%TD*%
%TA.AperFunction,Conductor*%
%TO.N,GND*%
G36*
X76468139Y-31351756D02*
G01*
X76564794Y-31353728D01*
X76566999Y-31353795D01*
X77449343Y-31389815D01*
X77451654Y-31389933D01*
X77548136Y-31395845D01*
X77550538Y-31396017D01*
X78430494Y-31467981D01*
X78432828Y-31468195D01*
X78529093Y-31478048D01*
X78531405Y-31478309D01*
X79407698Y-31586106D01*
X79410082Y-31586424D01*
X79505803Y-31600186D01*
X79508123Y-31600544D01*
X80379302Y-31743996D01*
X80381619Y-31744402D01*
X80476654Y-31762049D01*
X80479074Y-31762524D01*
X81343630Y-31941381D01*
X81346033Y-31941904D01*
X81440177Y-31963392D01*
X81442568Y-31963963D01*
X82299193Y-32177957D01*
X82301386Y-32178528D01*
X82394750Y-32203885D01*
X82396986Y-32204517D01*
X83244145Y-32453266D01*
X83246484Y-32453978D01*
X83338582Y-32483074D01*
X83340943Y-32483847D01*
X84177182Y-32766919D01*
X84179437Y-32767708D01*
X84270338Y-32800560D01*
X84272614Y-32801409D01*
X85096722Y-33118398D01*
X85098885Y-33119256D01*
X85188309Y-33155763D01*
X85190506Y-33156686D01*
X86001012Y-33507030D01*
X86003155Y-33507982D01*
X86091188Y-33548185D01*
X86093242Y-33549149D01*
X86888686Y-33932215D01*
X86890926Y-33933322D01*
X86977094Y-33977005D01*
X86979217Y-33978108D01*
X87716917Y-34371209D01*
X87758392Y-34393310D01*
X87760583Y-34394507D01*
X87844846Y-34441639D01*
X87846957Y-34442849D01*
X88608563Y-34889496D01*
X88610642Y-34890744D01*
X88692914Y-34941276D01*
X88695003Y-34942589D01*
X89437695Y-35419888D01*
X89439810Y-35421277D01*
X89519911Y-35475095D01*
X89521995Y-35476527D01*
X90244613Y-35983731D01*
X90246552Y-35985120D01*
X90324493Y-36042236D01*
X90326413Y-36043673D01*
X90880947Y-36467686D01*
X91027723Y-36579915D01*
X91029716Y-36581471D01*
X91105259Y-36641714D01*
X91107149Y-36643254D01*
X91785987Y-37207642D01*
X91787853Y-37209226D01*
X91860896Y-37272518D01*
X91862689Y-37274104D01*
X92517956Y-37865724D01*
X92519815Y-37867438D01*
X92590133Y-37933578D01*
X92591958Y-37935330D01*
X93222501Y-38553140D01*
X93224289Y-38554928D01*
X93291853Y-38623885D01*
X93293573Y-38625676D01*
X93898421Y-39268723D01*
X93900134Y-39270582D01*
X93964813Y-39342218D01*
X93966483Y-39344105D01*
X94009589Y-39393852D01*
X94544599Y-40011287D01*
X94546235Y-40013215D01*
X94607911Y-40087397D01*
X94609504Y-40089353D01*
X95159750Y-40779340D01*
X95159935Y-40779571D01*
X95161492Y-40781565D01*
X95220095Y-40858208D01*
X95221611Y-40860233D01*
X95743420Y-41572314D01*
X95744894Y-41574370D01*
X95800343Y-41653369D01*
X95801775Y-41655454D01*
X96294093Y-42388207D01*
X96295434Y-42390246D01*
X96347669Y-42471526D01*
X96348979Y-42473611D01*
X96811007Y-43225848D01*
X96812309Y-43228017D01*
X96861157Y-43311311D01*
X96862414Y-43313506D01*
X97293340Y-44083901D01*
X97294553Y-44086122D01*
X97339965Y-44171344D01*
X97341131Y-44173588D01*
X97740286Y-44960942D01*
X97741407Y-44963209D01*
X97783279Y-45050157D01*
X97784353Y-45052448D01*
X98151067Y-45855440D01*
X98152095Y-45857751D01*
X98190383Y-45946329D01*
X98191363Y-45948661D01*
X98525050Y-46766016D01*
X98525982Y-46768367D01*
X98560611Y-46858395D01*
X98561495Y-46860766D01*
X98861556Y-47691028D01*
X98862391Y-47693416D01*
X98893319Y-47784784D01*
X98894106Y-47787187D01*
X99160063Y-48629029D01*
X99160800Y-48631449D01*
X99187970Y-48723980D01*
X99188658Y-48726414D01*
X99420054Y-49578397D01*
X99420692Y-49580846D01*
X99444066Y-49674416D01*
X99444654Y-49676875D01*
X99535709Y-50075814D01*
X99531436Y-50145553D01*
X99490137Y-50201911D01*
X99424925Y-50226994D01*
X99356504Y-50212840D01*
X99347779Y-50207723D01*
X99246676Y-50142748D01*
X99246674Y-50142747D01*
X99246672Y-50142746D01*
X99246673Y-50142746D01*
X99108586Y-50102201D01*
X99108584Y-50102201D01*
X98964662Y-50102201D01*
X98964659Y-50102201D01*
X98826572Y-50142746D01*
X98705496Y-50220557D01*
X98611246Y-50329327D01*
X98611245Y-50329329D01*
X98567749Y-50424572D01*
X98521994Y-50477376D01*
X98471343Y-50495972D01*
X95745146Y-50859453D01*
X95676093Y-50848801D01*
X95635045Y-50817744D01*
X95557752Y-50728542D01*
X95436677Y-50650732D01*
X95436675Y-50650731D01*
X95436673Y-50650730D01*
X95436674Y-50650730D01*
X95298587Y-50610185D01*
X95298585Y-50610185D01*
X95154663Y-50610185D01*
X95154660Y-50610185D01*
X95016573Y-50650730D01*
X94895497Y-50728541D01*
X94801247Y-50837311D01*
X94801246Y-50837313D01*
X94741458Y-50968228D01*
X94720977Y-51110685D01*
X94741458Y-51253141D01*
X94801246Y-51384056D01*
X94801247Y-51384058D01*
X94895496Y-51492828D01*
X95016571Y-51570638D01*
X95016574Y-51570639D01*
X95016573Y-51570639D01*
X95154660Y-51611184D01*
X95154662Y-51611185D01*
X95154663Y-51611185D01*
X95298586Y-51611185D01*
X95298586Y-51611184D01*
X95436677Y-51570638D01*
X95557752Y-51492828D01*
X95652001Y-51384058D01*
X95695499Y-51288809D01*
X95741252Y-51236009D01*
X95791900Y-51217413D01*
X98518100Y-50853931D01*
X98587152Y-50864583D01*
X98628199Y-50895639D01*
X98705495Y-50984844D01*
X98826570Y-51062654D01*
X98826573Y-51062655D01*
X98826572Y-51062655D01*
X98964659Y-51103200D01*
X98964661Y-51103201D01*
X98964662Y-51103201D01*
X99108585Y-51103201D01*
X99108585Y-51103200D01*
X99246676Y-51062654D01*
X99367751Y-50984844D01*
X99462000Y-50876074D01*
X99472462Y-50853163D01*
X99518213Y-50800362D01*
X99585252Y-50780675D01*
X99652292Y-50800357D01*
X99698049Y-50853160D01*
X99707172Y-50882036D01*
X99822847Y-51504976D01*
X99823283Y-51507468D01*
X99838959Y-51602669D01*
X99839345Y-51605169D01*
X99964982Y-52478990D01*
X99965316Y-52481498D01*
X99977094Y-52577245D01*
X99977378Y-52579758D01*
X100067274Y-53458039D01*
X100067505Y-53460558D01*
X100075363Y-53556645D01*
X100075544Y-53559168D01*
X100129541Y-54440366D01*
X100129670Y-54442892D01*
X100133605Y-54539289D01*
X100133682Y-54541817D01*
X100152675Y-55472679D01*
X100152675Y-55477739D01*
X100133682Y-56408601D01*
X100133605Y-56411129D01*
X100129670Y-56507526D01*
X100129541Y-56510052D01*
X100075544Y-57391250D01*
X100075363Y-57393773D01*
X100067505Y-57489860D01*
X100067274Y-57492379D01*
X99977378Y-58370660D01*
X99977094Y-58373173D01*
X99965316Y-58468920D01*
X99964982Y-58471428D01*
X99839345Y-59345249D01*
X99838959Y-59347749D01*
X99823283Y-59442950D01*
X99822847Y-59445442D01*
X99661672Y-60313413D01*
X99661185Y-60315895D01*
X99641638Y-60410382D01*
X99641100Y-60412854D01*
X99444654Y-61273543D01*
X99444066Y-61276002D01*
X99420692Y-61369572D01*
X99420054Y-61372021D01*
X99188658Y-62224004D01*
X99187970Y-62226438D01*
X99160800Y-62318969D01*
X99160063Y-62321389D01*
X98894106Y-63163231D01*
X98893319Y-63165634D01*
X98862391Y-63257002D01*
X98861556Y-63259390D01*
X98561495Y-64089652D01*
X98560611Y-64092023D01*
X98525982Y-64182051D01*
X98525050Y-64184402D01*
X98191363Y-65001757D01*
X98190383Y-65004089D01*
X98152095Y-65092667D01*
X98151067Y-65094978D01*
X97784353Y-65897970D01*
X97783279Y-65900261D01*
X97741407Y-65987209D01*
X97740286Y-65989476D01*
X97341131Y-66776830D01*
X97339965Y-66779074D01*
X97294553Y-66864296D01*
X97293340Y-66866517D01*
X96862414Y-67636912D01*
X96861157Y-67639107D01*
X96812309Y-67722401D01*
X96811007Y-67724570D01*
X96348979Y-68476807D01*
X96347634Y-68478948D01*
X96295483Y-68560097D01*
X96294093Y-68562211D01*
X95801775Y-69294964D01*
X95800343Y-69297049D01*
X95744894Y-69376048D01*
X95743420Y-69378104D01*
X95221611Y-70090185D01*
X95220095Y-70092210D01*
X95161492Y-70168853D01*
X95159935Y-70170847D01*
X94609509Y-70861059D01*
X94607911Y-70863021D01*
X94546235Y-70937203D01*
X94544599Y-70939131D01*
X93966490Y-71606305D01*
X93964813Y-71608200D01*
X93900134Y-71679836D01*
X93898421Y-71681695D01*
X93293573Y-72324742D01*
X93291820Y-72326568D01*
X93224289Y-72395490D01*
X93222501Y-72397278D01*
X92591958Y-73015088D01*
X92590133Y-73016840D01*
X92519815Y-73082980D01*
X92517956Y-73084694D01*
X91862763Y-73676249D01*
X91860868Y-73677925D01*
X91787884Y-73741166D01*
X91785955Y-73742803D01*
X91107185Y-74307135D01*
X91105223Y-74308733D01*
X91029716Y-74368947D01*
X91027723Y-74370503D01*
X90326465Y-74906706D01*
X90324440Y-74908222D01*
X90246608Y-74965257D01*
X90244552Y-74966731D01*
X89521995Y-75473891D01*
X89519911Y-75475323D01*
X89439810Y-75529141D01*
X89437695Y-75530530D01*
X88695003Y-76007829D01*
X88692862Y-76009175D01*
X88610709Y-76059634D01*
X88608540Y-76060936D01*
X87846983Y-76507554D01*
X87844787Y-76508812D01*
X87760611Y-76555896D01*
X87758392Y-76557108D01*
X86979297Y-76972268D01*
X86977051Y-76973435D01*
X86890926Y-77017096D01*
X86888660Y-77018216D01*
X86093322Y-77401231D01*
X86091031Y-77402306D01*
X86003278Y-77442381D01*
X86000967Y-77443408D01*
X85190571Y-77793705D01*
X85188239Y-77794684D01*
X85098981Y-77831124D01*
X85096629Y-77832057D01*
X84272676Y-78148986D01*
X84270306Y-78149870D01*
X84179486Y-78182693D01*
X84177099Y-78183528D01*
X83340964Y-78466564D01*
X83338560Y-78467351D01*
X83246522Y-78496428D01*
X83244102Y-78497165D01*
X82397086Y-78745872D01*
X82394652Y-78746560D01*
X82301511Y-78771857D01*
X82299063Y-78772495D01*
X81442602Y-78986446D01*
X81440142Y-78987034D01*
X81346067Y-79008506D01*
X81343595Y-79009044D01*
X80479104Y-79187888D01*
X80476622Y-79188375D01*
X80381704Y-79206001D01*
X80379212Y-79206437D01*
X79508215Y-79349859D01*
X79505715Y-79350245D01*
X79410142Y-79363986D01*
X79407635Y-79364320D01*
X78531504Y-79472097D01*
X78528990Y-79472381D01*
X78432921Y-79482214D01*
X78430402Y-79482445D01*
X77550596Y-79554396D01*
X77548074Y-79554577D01*
X77451764Y-79560479D01*
X77449237Y-79560608D01*
X76567160Y-79596618D01*
X76564632Y-79596695D01*
X76474245Y-79598539D01*
X76468138Y-79598664D01*
X76465610Y-79598690D01*
X75582844Y-79598690D01*
X75580315Y-79598664D01*
X75573260Y-79598520D01*
X75483820Y-79596695D01*
X75481292Y-79596618D01*
X74599215Y-79560608D01*
X74596688Y-79560479D01*
X74500378Y-79554577D01*
X74497856Y-79554396D01*
X73618050Y-79482445D01*
X73615531Y-79482214D01*
X73519462Y-79472381D01*
X73516948Y-79472097D01*
X72640817Y-79364320D01*
X72638310Y-79363986D01*
X72542737Y-79350245D01*
X72540237Y-79349859D01*
X71669240Y-79206437D01*
X71666748Y-79206001D01*
X71571830Y-79188375D01*
X71569348Y-79187888D01*
X70704857Y-79009044D01*
X70702385Y-79008506D01*
X70608310Y-78987034D01*
X70605850Y-78986446D01*
X69749389Y-78772495D01*
X69746941Y-78771857D01*
X69653800Y-78746560D01*
X69651366Y-78745872D01*
X68804350Y-78497165D01*
X68801930Y-78496428D01*
X68709892Y-78467351D01*
X68707488Y-78466564D01*
X67871353Y-78183528D01*
X67868966Y-78182693D01*
X67778146Y-78149870D01*
X67775776Y-78148986D01*
X66951823Y-77832057D01*
X66949471Y-77831124D01*
X66860213Y-77794684D01*
X66857881Y-77793705D01*
X66047485Y-77443408D01*
X66045208Y-77442396D01*
X65957350Y-77402272D01*
X65955130Y-77401231D01*
X65688225Y-77272696D01*
X67643133Y-77272696D01*
X67662977Y-77397993D01*
X67662977Y-77397994D01*
X67675854Y-77423266D01*
X67720575Y-77511035D01*
X67720577Y-77511037D01*
X67720579Y-77511040D01*
X67810277Y-77600738D01*
X67810279Y-77600739D01*
X67810283Y-77600743D01*
X67923321Y-77658339D01*
X67923322Y-77658339D01*
X67923324Y-77658340D01*
X68048622Y-77678185D01*
X68048625Y-77678185D01*
X68048628Y-77678185D01*
X68173925Y-77658340D01*
X68173926Y-77658340D01*
X68173927Y-77658339D01*
X68173929Y-77658339D01*
X68286967Y-77600743D01*
X68376675Y-77511035D01*
X68434271Y-77397997D01*
X68434271Y-77397995D01*
X68434272Y-77397994D01*
X68434272Y-77397993D01*
X68454117Y-77272696D01*
X68454117Y-77272689D01*
X68434272Y-77147392D01*
X68434272Y-77147391D01*
X68430327Y-77139649D01*
X68417431Y-77070979D01*
X68437638Y-77014571D01*
X68535885Y-76867201D01*
X68936995Y-76265532D01*
X69419080Y-75542403D01*
X69472645Y-75497542D01*
X69522254Y-75487186D01*
X69644586Y-75487186D01*
X69644586Y-75487185D01*
X69782677Y-75446639D01*
X69903752Y-75368829D01*
X69998001Y-75260059D01*
X70057789Y-75129143D01*
X70078271Y-74986686D01*
X70057789Y-74844229D01*
X69998001Y-74713313D01*
X69903752Y-74604543D01*
X69782677Y-74526733D01*
X69782675Y-74526732D01*
X69782673Y-74526731D01*
X69782674Y-74526731D01*
X69644587Y-74486186D01*
X69644585Y-74486186D01*
X69500663Y-74486186D01*
X69500660Y-74486186D01*
X69362573Y-74526731D01*
X69241497Y-74604542D01*
X69147247Y-74713312D01*
X69147246Y-74713314D01*
X69087458Y-74844229D01*
X69066977Y-74986686D01*
X69087458Y-75129143D01*
X69087459Y-75129144D01*
X69129203Y-75220551D01*
X69139147Y-75289709D01*
X69119583Y-75340845D01*
X68138448Y-76812552D01*
X68084883Y-76857413D01*
X68054672Y-76866242D01*
X67923324Y-76887045D01*
X67923323Y-76887045D01*
X67847962Y-76925444D01*
X67810283Y-76944643D01*
X67810282Y-76944644D01*
X67810277Y-76944647D01*
X67720579Y-77034345D01*
X67720576Y-77034350D01*
X67662977Y-77147391D01*
X67662977Y-77147392D01*
X67643133Y-77272689D01*
X67643133Y-77272696D01*
X65688225Y-77272696D01*
X65159792Y-77018216D01*
X65157526Y-77017096D01*
X65071401Y-76973435D01*
X65069155Y-76972268D01*
X64290060Y-76557108D01*
X64287841Y-76555896D01*
X64203665Y-76508812D01*
X64201469Y-76507554D01*
X63439912Y-76060936D01*
X63437743Y-76059634D01*
X63355590Y-76009175D01*
X63353449Y-76007829D01*
X62610757Y-75530530D01*
X62608642Y-75529141D01*
X62528541Y-75475323D01*
X62526457Y-75473891D01*
X62004095Y-75107247D01*
X61803879Y-74966716D01*
X61801844Y-74965257D01*
X61724012Y-74908222D01*
X61721987Y-74906706D01*
X61640278Y-74844229D01*
X61469062Y-74713312D01*
X61020729Y-74370503D01*
X61018736Y-74368947D01*
X60943229Y-74308733D01*
X60941267Y-74307135D01*
X60721804Y-74124673D01*
X60262483Y-73742791D01*
X60260568Y-73741166D01*
X60187584Y-73677925D01*
X60185752Y-73676304D01*
X59573668Y-73123673D01*
X59530496Y-73084694D01*
X59528637Y-73082980D01*
X59458319Y-73016840D01*
X59456494Y-73015088D01*
X58825951Y-72397278D01*
X58824163Y-72395490D01*
X58812187Y-72383267D01*
X58756596Y-72326530D01*
X58754879Y-72324742D01*
X58150031Y-71681695D01*
X58148318Y-71679836D01*
X58083639Y-71608200D01*
X58081962Y-71606305D01*
X58047883Y-71566976D01*
X57593975Y-71043138D01*
X57503853Y-70939131D01*
X57502217Y-70937203D01*
X57440541Y-70863021D01*
X57438967Y-70861088D01*
X56888483Y-70170804D01*
X56886994Y-70168897D01*
X56828346Y-70092196D01*
X56826841Y-70090185D01*
X56631836Y-69824074D01*
X56305023Y-69378091D01*
X56303558Y-69376048D01*
X56248109Y-69297049D01*
X56246677Y-69294964D01*
X55754322Y-68562155D01*
X55753049Y-68560219D01*
X55700751Y-68478841D01*
X55699498Y-68476846D01*
X55237407Y-67724507D01*
X55236180Y-67722464D01*
X55187256Y-67639040D01*
X55186078Y-67636982D01*
X54755068Y-66866437D01*
X54753943Y-66864377D01*
X54708466Y-66779034D01*
X54707343Y-66776874D01*
X54308157Y-65989459D01*
X54307072Y-65987263D01*
X54265143Y-65900197D01*
X54264099Y-65897970D01*
X53897369Y-65094943D01*
X53896357Y-65092667D01*
X53858069Y-65004089D01*
X53857089Y-65001757D01*
X53523375Y-64184335D01*
X53522509Y-64182150D01*
X53487795Y-64091901D01*
X53486992Y-64089746D01*
X53186881Y-63259347D01*
X53186077Y-63257048D01*
X53155133Y-63165634D01*
X53154346Y-63163231D01*
X52926060Y-62440629D01*
X52888361Y-62321297D01*
X52887680Y-62319063D01*
X52860444Y-62226305D01*
X52859831Y-62224138D01*
X52628362Y-61371886D01*
X52627795Y-61369709D01*
X52604368Y-61275929D01*
X52603815Y-61273617D01*
X52407340Y-60412801D01*
X52406825Y-60410435D01*
X52387259Y-60315854D01*
X52386780Y-60313413D01*
X52367577Y-60209998D01*
X52225588Y-59445346D01*
X52225183Y-59443034D01*
X52209483Y-59347686D01*
X52209119Y-59345327D01*
X52083456Y-58471327D01*
X52083149Y-58469023D01*
X52071349Y-58373093D01*
X52071082Y-58370735D01*
X51981168Y-57492279D01*
X51980955Y-57489956D01*
X51973083Y-57393692D01*
X51972914Y-57391338D01*
X51918905Y-56509934D01*
X51918788Y-56507647D01*
X51916218Y-56444692D01*
X52302984Y-56444692D01*
X52323465Y-56587148D01*
X52341867Y-56627442D01*
X52383254Y-56718065D01*
X52477503Y-56826835D01*
X52598578Y-56904645D01*
X52598581Y-56904646D01*
X52598580Y-56904646D01*
X52705738Y-56936109D01*
X52709124Y-56937104D01*
X52736667Y-56945191D01*
X52736669Y-56945192D01*
X52736670Y-56945192D01*
X52880592Y-56945192D01*
X53014720Y-56905809D01*
X53084589Y-56905809D01*
X53137333Y-56937103D01*
X53285870Y-57085638D01*
X54424946Y-58224707D01*
X54458431Y-58286031D01*
X54455652Y-58341613D01*
X54456502Y-58341748D01*
X54455250Y-58349649D01*
X54455198Y-58350701D01*
X54454975Y-58351385D01*
X54435130Y-58476687D01*
X54435130Y-58476693D01*
X54454974Y-58601990D01*
X54454974Y-58601991D01*
X54454976Y-58601994D01*
X54512572Y-58715032D01*
X54512574Y-58715034D01*
X54512576Y-58715037D01*
X54602274Y-58804735D01*
X54602276Y-58804736D01*
X54602280Y-58804740D01*
X54715318Y-58862336D01*
X54715319Y-58862336D01*
X54715321Y-58862337D01*
X54840619Y-58882182D01*
X54840622Y-58882182D01*
X54840625Y-58882182D01*
X54965922Y-58862337D01*
X54965923Y-58862337D01*
X54965924Y-58862336D01*
X54965926Y-58862336D01*
X55078964Y-58804740D01*
X55168672Y-58715032D01*
X55226268Y-58601994D01*
X55226268Y-58601992D01*
X55226269Y-58601991D01*
X55226269Y-58601990D01*
X55246114Y-58476693D01*
X55246114Y-58476686D01*
X55226269Y-58351389D01*
X55226269Y-58351388D01*
X55193644Y-58287359D01*
X55168672Y-58238348D01*
X55168668Y-58238344D01*
X55168667Y-58238342D01*
X55078969Y-58148644D01*
X55078966Y-58148642D01*
X55078964Y-58148640D01*
X54965926Y-58091044D01*
X54965925Y-58091043D01*
X54965922Y-58091042D01*
X54840625Y-58071198D01*
X54833332Y-58071198D01*
X54766293Y-58051513D01*
X54745651Y-58034880D01*
X53581687Y-56870924D01*
X53338202Y-56627441D01*
X53304718Y-56566119D01*
X53303146Y-56522115D01*
X53314278Y-56444692D01*
X53293796Y-56302235D01*
X53234008Y-56171319D01*
X53139759Y-56062549D01*
X53018684Y-55984739D01*
X53018682Y-55984738D01*
X53018680Y-55984737D01*
X53018681Y-55984737D01*
X52880594Y-55944192D01*
X52880592Y-55944192D01*
X52736670Y-55944192D01*
X52736667Y-55944192D01*
X52598580Y-55984737D01*
X52477504Y-56062548D01*
X52383254Y-56171318D01*
X52383253Y-56171320D01*
X52323465Y-56302235D01*
X52302984Y-56444692D01*
X51916218Y-56444692D01*
X51914844Y-56411030D01*
X51914772Y-56408696D01*
X51896763Y-55525986D01*
X51896737Y-55523457D01*
X51896737Y-55480717D01*
X59460089Y-55480717D01*
X59460439Y-55484373D01*
X59479568Y-56263559D01*
X59479390Y-56267229D01*
X59479606Y-56270261D01*
X59479871Y-56275652D01*
X59479957Y-56278812D01*
X59480500Y-56282461D01*
X59537859Y-57060066D01*
X59537881Y-57063713D01*
X59538146Y-57065873D01*
X59538722Y-57071720D01*
X59538926Y-57074464D01*
X59539659Y-57078156D01*
X59635062Y-57851659D01*
X59635249Y-57855283D01*
X59635733Y-57858116D01*
X59636518Y-57863404D01*
X59636875Y-57866228D01*
X59637737Y-57869718D01*
X59771035Y-58637948D01*
X59771404Y-58641607D01*
X59771977Y-58644174D01*
X59773097Y-58649808D01*
X59774272Y-58656525D01*
X59775697Y-58661697D01*
X59775931Y-58663047D01*
X59950691Y-59441272D01*
X59950694Y-59441284D01*
X60163417Y-60209983D01*
X60163422Y-60209998D01*
X60413612Y-60967314D01*
X60413613Y-60967316D01*
X60700651Y-61711438D01*
X60700669Y-61711481D01*
X61023863Y-62440610D01*
X61023873Y-62440629D01*
X61382480Y-63153054D01*
X61415668Y-63211639D01*
X61775603Y-63847014D01*
X61775623Y-63847048D01*
X62188737Y-64499428D01*
X62202320Y-64520878D01*
X62661584Y-65172977D01*
X63152286Y-65801752D01*
X63152291Y-65801758D01*
X63412765Y-66103722D01*
X63673245Y-66405693D01*
X64223215Y-66983346D01*
X64800873Y-67533311D01*
X64800878Y-67533316D01*
X64800883Y-67533320D01*
X64800904Y-67533339D01*
X65404815Y-68054282D01*
X65769732Y-68339066D01*
X66033590Y-68544983D01*
X66685685Y-69004238D01*
X67359528Y-69430947D01*
X68053506Y-69824080D01*
X68765933Y-70182684D01*
X68765947Y-70182690D01*
X69495085Y-70505894D01*
X69495090Y-70505896D01*
X69495097Y-70505899D01*
X70239245Y-70792956D01*
X70996577Y-71043137D01*
X71765267Y-71255870D01*
X72543484Y-71430616D01*
X72925482Y-71496900D01*
X73329296Y-71566971D01*
X73329315Y-71566973D01*
X73329334Y-71566977D01*
X74120929Y-71664610D01*
X74916355Y-71723287D01*
X75713705Y-71742857D01*
X76511053Y-71723285D01*
X77306483Y-71664609D01*
X77306499Y-71664607D01*
X77306500Y-71664607D01*
X77533234Y-71636642D01*
X78098072Y-71566976D01*
X78098095Y-71566971D01*
X78098116Y-71566969D01*
X78421247Y-71510900D01*
X78883922Y-71430620D01*
X79662128Y-71255868D01*
X79948246Y-71176689D01*
X88116982Y-71176689D01*
X88137463Y-71319145D01*
X88188370Y-71430614D01*
X88197252Y-71450062D01*
X88291501Y-71558832D01*
X88412576Y-71636642D01*
X88412579Y-71636643D01*
X88412578Y-71636643D01*
X88550665Y-71677188D01*
X88550667Y-71677189D01*
X88688183Y-71677189D01*
X88755222Y-71696874D01*
X88789758Y-71730065D01*
X89906166Y-73324454D01*
X89928493Y-73390659D01*
X89917386Y-73447088D01*
X89901572Y-73481715D01*
X89901571Y-73481716D01*
X89881090Y-73624173D01*
X89901571Y-73766629D01*
X89961359Y-73897544D01*
X89961360Y-73897546D01*
X90055609Y-74006316D01*
X90176684Y-74084126D01*
X90176687Y-74084127D01*
X90176686Y-74084127D01*
X90314773Y-74124672D01*
X90314775Y-74124673D01*
X90314776Y-74124673D01*
X90458699Y-74124673D01*
X90458699Y-74124672D01*
X90596790Y-74084126D01*
X90717865Y-74006316D01*
X90812114Y-73897546D01*
X90871902Y-73766630D01*
X90892384Y-73624173D01*
X90871902Y-73481716D01*
X90812114Y-73350800D01*
X90717865Y-73242030D01*
X90596790Y-73164220D01*
X90596788Y-73164219D01*
X90596786Y-73164218D01*
X90596787Y-73164218D01*
X90458700Y-73123673D01*
X90458698Y-73123673D01*
X90314776Y-73123673D01*
X90314774Y-73123673D01*
X90310209Y-73125013D01*
X90240339Y-73125007D01*
X90181564Y-73087228D01*
X90173708Y-73077157D01*
X89195288Y-71679836D01*
X89083321Y-71519932D01*
X89060995Y-71453727D01*
X89072103Y-71397297D01*
X89107794Y-71319145D01*
X89128276Y-71176689D01*
X89107794Y-71034232D01*
X89048006Y-70903316D01*
X88953757Y-70794546D01*
X88832682Y-70716736D01*
X88832680Y-70716735D01*
X88832678Y-70716734D01*
X88832679Y-70716734D01*
X88694592Y-70676189D01*
X88694590Y-70676189D01*
X88550668Y-70676189D01*
X88550665Y-70676189D01*
X88412578Y-70716734D01*
X88291502Y-70794545D01*
X88197252Y-70903315D01*
X88197251Y-70903317D01*
X88137463Y-71034232D01*
X88116982Y-71176689D01*
X79948246Y-71176689D01*
X80430829Y-71043141D01*
X81188164Y-70792955D01*
X81932308Y-70505898D01*
X82661476Y-70182684D01*
X83373896Y-69824076D01*
X84067872Y-69430947D01*
X84741720Y-69004238D01*
X85393815Y-68544981D01*
X86022592Y-68054280D01*
X86626536Y-67533312D01*
X87204187Y-66983341D01*
X87754155Y-66405692D01*
X88275122Y-65801750D01*
X88765822Y-65172974D01*
X88765826Y-65172968D01*
X88766759Y-65171773D01*
X88766882Y-65171869D01*
X88775331Y-65162312D01*
X88776585Y-65160432D01*
X88778350Y-65157856D01*
X89230552Y-64515787D01*
X89233143Y-64512652D01*
X89234325Y-64510767D01*
X89238355Y-64504733D01*
X89239589Y-64502996D01*
X89241483Y-64499433D01*
X89657824Y-63841951D01*
X89660230Y-63838735D01*
X89661478Y-63836516D01*
X89665040Y-63830576D01*
X89666211Y-63828740D01*
X89667898Y-63825165D01*
X90051549Y-63147924D01*
X90053789Y-63144604D01*
X90054981Y-63142222D01*
X90058182Y-63136233D01*
X90059496Y-63133928D01*
X90061012Y-63130220D01*
X90410628Y-62435656D01*
X90412772Y-62432137D01*
X90413851Y-62429676D01*
X90416890Y-62423248D01*
X90418004Y-62421056D01*
X90419358Y-62417214D01*
X90734555Y-61706137D01*
X90736495Y-61702554D01*
X90737391Y-61700204D01*
X90740114Y-61693630D01*
X90741139Y-61691342D01*
X90742305Y-61687427D01*
X90882120Y-61324979D01*
X91022295Y-60961594D01*
X91024002Y-60958012D01*
X91024807Y-60955559D01*
X91027052Y-60949283D01*
X91027863Y-60947193D01*
X91028811Y-60943414D01*
X91273092Y-60203973D01*
X91274617Y-60200317D01*
X91275277Y-60197911D01*
X91277229Y-60191478D01*
X91277952Y-60189307D01*
X91278715Y-60185457D01*
X91486363Y-59435092D01*
X91487693Y-59431410D01*
X91488290Y-59428737D01*
X91489854Y-59422494D01*
X91490506Y-59420147D01*
X91491075Y-59416315D01*
X91506472Y-59347749D01*
X91661659Y-58656678D01*
X91662824Y-58652886D01*
X91663268Y-58650292D01*
X91664577Y-58643717D01*
X91665146Y-58641210D01*
X91665524Y-58637250D01*
X91798540Y-57870657D01*
X91799532Y-57866773D01*
X91799852Y-57864119D01*
X91800844Y-57857428D01*
X91801268Y-57855020D01*
X91801453Y-57851064D01*
X91896757Y-57078370D01*
X91897537Y-57074472D01*
X91897694Y-57072253D01*
X91898379Y-57065316D01*
X91898629Y-57063342D01*
X91898631Y-57059403D01*
X91955894Y-56283079D01*
X91956495Y-56279171D01*
X91956565Y-56276187D01*
X91956881Y-56269765D01*
X91957098Y-56266877D01*
X91956886Y-56262937D01*
X91975982Y-55485024D01*
X91976379Y-55481099D01*
X91976311Y-55478517D01*
X91976312Y-55471889D01*
X91976373Y-55469605D01*
X91975990Y-55465726D01*
X91956893Y-54687779D01*
X91957115Y-54683805D01*
X91956879Y-54680647D01*
X91956566Y-54674266D01*
X91956503Y-54671559D01*
X91955919Y-54667694D01*
X91898656Y-53891373D01*
X91898663Y-53887530D01*
X91898316Y-53884715D01*
X91897713Y-53878592D01*
X91897525Y-53876046D01*
X91896787Y-53872322D01*
X91801485Y-53099632D01*
X91801311Y-53095738D01*
X91800782Y-53092689D01*
X91799881Y-53086613D01*
X91799581Y-53084179D01*
X91798666Y-53080500D01*
X91694727Y-52481498D01*
X91665554Y-52313379D01*
X91665186Y-52309450D01*
X91664537Y-52306574D01*
X91663287Y-52300293D01*
X91662831Y-52297646D01*
X91661691Y-52293918D01*
X91491138Y-51534409D01*
X91490576Y-51530548D01*
X91489856Y-51527961D01*
X91488289Y-51521702D01*
X91487715Y-51519131D01*
X91486390Y-51515452D01*
X91278724Y-50765025D01*
X91277969Y-50761211D01*
X91277184Y-50758845D01*
X91275305Y-50752650D01*
X91274598Y-50750081D01*
X91273084Y-50746451D01*
X91028853Y-50007144D01*
X91027921Y-50003415D01*
X91026982Y-50000984D01*
X91024875Y-49995093D01*
X91024071Y-49992652D01*
X91022419Y-49989164D01*
X90901051Y-49674535D01*
X90742339Y-49263096D01*
X90741218Y-49259317D01*
X90739925Y-49256404D01*
X90737537Y-49250638D01*
X90736563Y-49248108D01*
X90734728Y-49244688D01*
X90424616Y-48545088D01*
X90419362Y-48533235D01*
X90418032Y-48529460D01*
X90416794Y-48527015D01*
X90413927Y-48520953D01*
X90412921Y-48518668D01*
X90410872Y-48515268D01*
X90067273Y-47832661D01*
X90061001Y-47820200D01*
X90059512Y-47816562D01*
X90058052Y-47813990D01*
X90055080Y-47808430D01*
X90053961Y-47806201D01*
X90051824Y-47803002D01*
X89766971Y-47300156D01*
X89668041Y-47125517D01*
X89666422Y-47122066D01*
X89664749Y-47119418D01*
X89661745Y-47114407D01*
X89660279Y-47111825D01*
X89658021Y-47108788D01*
X89452801Y-46784714D01*
X89241428Y-46450922D01*
X89239579Y-46447449D01*
X89238194Y-46445493D01*
X89234471Y-46439920D01*
X89233363Y-46438161D01*
X89230902Y-46435152D01*
X88888274Y-45948661D01*
X88778383Y-45792629D01*
X88776547Y-45789947D01*
X88775903Y-45788980D01*
X88775743Y-45789141D01*
X88758298Y-45771666D01*
X88757996Y-45771541D01*
X88757150Y-45771191D01*
X88752194Y-45769136D01*
X88701938Y-45730882D01*
X88275123Y-45183965D01*
X87754182Y-44580048D01*
X87754172Y-44580036D01*
X87204197Y-44002389D01*
X87204189Y-44002381D01*
X86626531Y-43452404D01*
X86465511Y-43313506D01*
X86022589Y-42931435D01*
X85475674Y-42504623D01*
X85437368Y-42454241D01*
X85435372Y-42449413D01*
X85434897Y-42448264D01*
X85434896Y-42448263D01*
X85417695Y-42431054D01*
X85417142Y-42430684D01*
X85405193Y-42418734D01*
X85403201Y-42416692D01*
X85400840Y-42415073D01*
X85174638Y-42255764D01*
X84758114Y-41962415D01*
X84755239Y-41960070D01*
X84753232Y-41958798D01*
X84748237Y-41955460D01*
X84746136Y-41953981D01*
X84742810Y-41952197D01*
X84084813Y-41535528D01*
X84081806Y-41533285D01*
X84078891Y-41531625D01*
X84074160Y-41528789D01*
X84071771Y-41527284D01*
X84068459Y-41525709D01*
X83425796Y-41161639D01*
X83390551Y-41141672D01*
X83387404Y-41139565D01*
X83384828Y-41138266D01*
X83379604Y-41135473D01*
X83377373Y-41134210D01*
X83373919Y-41132772D01*
X82677767Y-40782362D01*
X82674558Y-40780444D01*
X82672074Y-40779340D01*
X82666798Y-40776844D01*
X82664381Y-40775630D01*
X82660854Y-40774364D01*
X81948745Y-40458709D01*
X81945380Y-40456904D01*
X81942705Y-40455871D01*
X81937144Y-40453567D01*
X81934707Y-40452487D01*
X81931078Y-40451385D01*
X81204266Y-40171024D01*
X81200876Y-40169419D01*
X81198059Y-40168484D01*
X81192705Y-40166569D01*
X81190539Y-40165737D01*
X81187039Y-40164839D01*
X80446949Y-39920343D01*
X80443439Y-39918880D01*
X80440489Y-39918061D01*
X80434905Y-39916367D01*
X80432743Y-39915655D01*
X80429159Y-39914922D01*
X79677447Y-39706895D01*
X79673941Y-39705650D01*
X79671433Y-39705085D01*
X79665765Y-39703665D01*
X79663414Y-39703016D01*
X79659765Y-39702462D01*
X78899127Y-39531655D01*
X78895560Y-39530577D01*
X78892808Y-39530096D01*
X78887174Y-39528976D01*
X78884607Y-39528403D01*
X78880948Y-39528034D01*
X78113054Y-39394794D01*
X78109432Y-39393889D01*
X78106638Y-39393541D01*
X78100898Y-39392690D01*
X78098405Y-39392260D01*
X78094715Y-39392067D01*
X77320780Y-39296609D01*
X77317128Y-39295896D01*
X77314767Y-39295721D01*
X77308793Y-39295132D01*
X77306736Y-39294879D01*
X77303078Y-39294856D01*
X76525806Y-39237527D01*
X76522115Y-39236968D01*
X76518652Y-39236873D01*
X76513269Y-39236608D01*
X76510235Y-39236392D01*
X76506562Y-39236570D01*
X75727376Y-39217439D01*
X75723720Y-39217089D01*
X75721042Y-39217150D01*
X75715383Y-39217149D01*
X75712981Y-39217093D01*
X75709360Y-39217432D01*
X74930133Y-39236562D01*
X74926425Y-39236375D01*
X74923177Y-39236606D01*
X74917780Y-39236872D01*
X74914912Y-39236950D01*
X74911314Y-39237475D01*
X74133582Y-39294846D01*
X74129906Y-39294862D01*
X74127591Y-39295146D01*
X74121725Y-39295723D01*
X74119588Y-39295882D01*
X74115992Y-39296574D01*
X73341908Y-39392044D01*
X73338214Y-39392231D01*
X73335475Y-39392702D01*
X73329861Y-39393535D01*
X73327318Y-39393852D01*
X73323768Y-39394728D01*
X72555658Y-39528006D01*
X72551995Y-39528371D01*
X72549155Y-39529002D01*
X72543726Y-39530081D01*
X72541195Y-39530525D01*
X72537712Y-39531565D01*
X71776726Y-39702455D01*
X71773131Y-39702999D01*
X71770508Y-39703719D01*
X71765183Y-39705052D01*
X71762424Y-39705678D01*
X71758964Y-39706907D01*
X71007355Y-39914904D01*
X71003806Y-39915627D01*
X71001401Y-39916416D01*
X70996103Y-39918023D01*
X70993360Y-39918788D01*
X70989957Y-39920191D01*
X70249433Y-40164824D01*
X70245992Y-40165705D01*
X70243594Y-40166623D01*
X70238532Y-40168433D01*
X70235899Y-40169310D01*
X70232618Y-40170848D01*
X69505401Y-40451368D01*
X69501894Y-40452432D01*
X69499024Y-40453694D01*
X69494080Y-40455742D01*
X69491328Y-40456812D01*
X69488107Y-40458525D01*
X68775572Y-40774368D01*
X68772132Y-40775603D01*
X68769457Y-40776941D01*
X68764548Y-40779262D01*
X68761805Y-40780486D01*
X68758653Y-40782371D01*
X68062571Y-41132751D01*
X68059187Y-41134158D01*
X68056621Y-41135604D01*
X68051801Y-41138180D01*
X68049399Y-41139396D01*
X68046391Y-41141390D01*
X67367557Y-41525949D01*
X67364326Y-41527500D01*
X67362298Y-41528779D01*
X67357517Y-41531644D01*
X67355225Y-41532948D01*
X67352279Y-41535117D01*
X66693218Y-41952456D01*
X66690073Y-41954158D01*
X66687948Y-41955646D01*
X66683497Y-41958620D01*
X66681327Y-41960002D01*
X66678544Y-41962261D01*
X66044685Y-42408675D01*
X66036780Y-42413032D01*
X66031143Y-42418662D01*
X66027348Y-42425970D01*
X66019516Y-42438390D01*
X66016967Y-42436783D01*
X66005186Y-42460752D01*
X65990110Y-42474671D01*
X65404794Y-42931447D01*
X64800872Y-43452403D01*
X64223208Y-44002382D01*
X63673243Y-44580024D01*
X63152289Y-45183958D01*
X62711356Y-45748962D01*
X62679727Y-45777570D01*
X62668994Y-45784336D01*
X62661670Y-45788136D01*
X62656032Y-45793779D01*
X62651674Y-45801685D01*
X62205057Y-46435829D01*
X62202844Y-46438571D01*
X62201650Y-46440447D01*
X62198616Y-46444986D01*
X62196990Y-46447305D01*
X62195254Y-46450535D01*
X61778115Y-47109275D01*
X61775946Y-47112221D01*
X61774642Y-47114513D01*
X61771777Y-47119294D01*
X61770500Y-47121319D01*
X61768946Y-47124556D01*
X61384096Y-47803913D01*
X61382129Y-47806912D01*
X61381269Y-47808618D01*
X61378503Y-47813794D01*
X61377167Y-47816155D01*
X61375728Y-47819621D01*
X61025370Y-48515655D01*
X61023485Y-48518807D01*
X61022261Y-48521550D01*
X61019940Y-48526459D01*
X61018602Y-48529134D01*
X61017367Y-48532574D01*
X60701525Y-49245108D01*
X60699812Y-49248329D01*
X60698742Y-49251081D01*
X60696694Y-49256025D01*
X60695432Y-49258895D01*
X60694368Y-49262402D01*
X60413848Y-49989614D01*
X60412310Y-49992895D01*
X60411433Y-49995528D01*
X60409623Y-50000590D01*
X60408705Y-50002988D01*
X60407824Y-50006429D01*
X60163191Y-50746954D01*
X60161788Y-50750357D01*
X60161023Y-50753100D01*
X60159416Y-50758398D01*
X60158627Y-50760803D01*
X60157904Y-50764351D01*
X59949783Y-51516405D01*
X59948587Y-51519813D01*
X59948064Y-51522123D01*
X59946703Y-51527561D01*
X59945981Y-51530190D01*
X59945436Y-51533801D01*
X59774566Y-52294713D01*
X59773526Y-52298196D01*
X59773082Y-52300727D01*
X59772003Y-52306156D01*
X59771372Y-52308996D01*
X59771007Y-52312659D01*
X59637730Y-53080763D01*
X59636854Y-53084313D01*
X59636537Y-53086856D01*
X59635704Y-53092470D01*
X59635233Y-53095209D01*
X59635046Y-53098903D01*
X59539616Y-53872645D01*
X59538908Y-53876266D01*
X59538719Y-53878793D01*
X59538154Y-53884535D01*
X59537859Y-53886947D01*
X59537844Y-53890598D01*
X59480472Y-54668304D01*
X59479949Y-54671890D01*
X59479870Y-54674770D01*
X59479607Y-54680129D01*
X59479372Y-54683442D01*
X59479559Y-54687138D01*
X59460432Y-55466357D01*
X59460093Y-55469975D01*
X59460149Y-55472379D01*
X59460150Y-55478038D01*
X59460089Y-55480717D01*
X51896737Y-55480717D01*
X51896737Y-55426961D01*
X51896763Y-55424432D01*
X51914773Y-54541714D01*
X51914843Y-54539395D01*
X51918788Y-54442762D01*
X51918904Y-54440497D01*
X51972915Y-53559068D01*
X51973082Y-53556742D01*
X51980957Y-53460444D01*
X51981167Y-53458156D01*
X52071084Y-52579662D01*
X52071346Y-52577348D01*
X52083153Y-52481370D01*
X52083453Y-52479114D01*
X52209123Y-51605062D01*
X52209478Y-51602763D01*
X52225189Y-51507351D01*
X52225582Y-51505105D01*
X52386795Y-50636925D01*
X52387251Y-50634602D01*
X52406833Y-50539944D01*
X52407330Y-50537661D01*
X52603826Y-49676757D01*
X52604357Y-49674535D01*
X52627808Y-49580661D01*
X52628350Y-49578578D01*
X52859846Y-48726227D01*
X52860429Y-48724165D01*
X52887697Y-48631301D01*
X52888344Y-48629174D01*
X53154360Y-47787141D01*
X53155117Y-47784831D01*
X53186098Y-47693308D01*
X53186858Y-47691134D01*
X53467534Y-46914512D01*
X58442462Y-46914512D01*
X58462306Y-47039809D01*
X58462306Y-47039810D01*
X58480759Y-47076026D01*
X58519904Y-47152851D01*
X58519906Y-47152853D01*
X58519908Y-47152856D01*
X58609606Y-47242554D01*
X58609608Y-47242555D01*
X58609612Y-47242559D01*
X58722650Y-47300155D01*
X58722651Y-47300155D01*
X58722653Y-47300156D01*
X58847951Y-47320001D01*
X58847954Y-47320001D01*
X58847957Y-47320001D01*
X58973254Y-47300156D01*
X58973255Y-47300156D01*
X58973256Y-47300155D01*
X58973258Y-47300155D01*
X59086296Y-47242559D01*
X59149819Y-47179035D01*
X59211140Y-47145552D01*
X59215956Y-47144604D01*
X59789794Y-47043428D01*
X59831684Y-47046360D01*
X59832133Y-47043530D01*
X59967074Y-47064902D01*
X59967077Y-47064902D01*
X59967080Y-47064902D01*
X60092377Y-47045057D01*
X60092378Y-47045057D01*
X60092379Y-47045056D01*
X60092381Y-47045056D01*
X60205419Y-46987460D01*
X60295127Y-46897752D01*
X60352723Y-46784714D01*
X60352723Y-46784712D01*
X60352724Y-46784711D01*
X60352724Y-46784710D01*
X60372569Y-46659413D01*
X60372569Y-46649651D01*
X60375142Y-46649651D01*
X60382243Y-46594680D01*
X60396458Y-46570313D01*
X60938396Y-45845652D01*
X60994308Y-45803756D01*
X61018301Y-45797443D01*
X61026364Y-45796167D01*
X61139402Y-45738571D01*
X61229110Y-45648863D01*
X61286706Y-45535825D01*
X61286706Y-45535823D01*
X61286707Y-45535822D01*
X61286707Y-45535821D01*
X61306552Y-45410524D01*
X61306552Y-45410517D01*
X61286707Y-45285220D01*
X61286707Y-45285219D01*
X61286706Y-45285217D01*
X61229110Y-45172179D01*
X61229106Y-45172175D01*
X61229105Y-45172173D01*
X61139407Y-45082475D01*
X61139404Y-45082473D01*
X61139402Y-45082471D01*
X61026364Y-45024875D01*
X61026363Y-45024874D01*
X61026360Y-45024873D01*
X60901063Y-45005029D01*
X60901057Y-45005029D01*
X60775759Y-45024873D01*
X60775758Y-45024873D01*
X60721641Y-45052448D01*
X60662718Y-45082471D01*
X60662717Y-45082472D01*
X60662712Y-45082475D01*
X60573014Y-45172173D01*
X60573011Y-45172178D01*
X60573010Y-45172179D01*
X60567006Y-45183963D01*
X60515412Y-45285219D01*
X60515412Y-45285220D01*
X60495568Y-45410517D01*
X60495568Y-45420278D01*
X60492997Y-45420278D01*
X60485886Y-45475262D01*
X60471674Y-45499620D01*
X59929741Y-46224276D01*
X59873828Y-46266174D01*
X59849838Y-46272486D01*
X59841775Y-46273763D01*
X59841773Y-46273763D01*
X59841773Y-46273764D01*
X59728735Y-46331360D01*
X59728734Y-46331361D01*
X59728729Y-46331364D01*
X59639027Y-46421067D01*
X59639026Y-46421067D01*
X59634071Y-46430792D01*
X59586093Y-46481584D01*
X59545121Y-46496605D01*
X59114098Y-46572601D01*
X59044659Y-46564856D01*
X59036273Y-46560970D01*
X58973254Y-46528861D01*
X58973255Y-46528861D01*
X58847957Y-46509017D01*
X58847951Y-46509017D01*
X58722653Y-46528861D01*
X58722652Y-46528861D01*
X58652010Y-46564856D01*
X58609612Y-46586459D01*
X58609611Y-46586460D01*
X58609606Y-46586463D01*
X58519908Y-46676161D01*
X58519905Y-46676166D01*
X58462306Y-46789207D01*
X58462306Y-46789208D01*
X58442462Y-46914505D01*
X58442462Y-46914512D01*
X53467534Y-46914512D01*
X53487016Y-46860605D01*
X53487771Y-46858581D01*
X53522535Y-46768201D01*
X53523346Y-46766155D01*
X53857124Y-45948575D01*
X53858033Y-45946413D01*
X53896403Y-45857647D01*
X53897334Y-45855552D01*
X54264148Y-45052342D01*
X54265108Y-45050295D01*
X54307109Y-44963079D01*
X54308117Y-44961041D01*
X54707387Y-44173460D01*
X54708424Y-44171464D01*
X54753987Y-44085960D01*
X54755020Y-44084067D01*
X55186127Y-43313349D01*
X55187208Y-43311462D01*
X55236231Y-43227868D01*
X55237350Y-43226005D01*
X55699554Y-42473480D01*
X55700695Y-42471665D01*
X55753106Y-42390112D01*
X55754259Y-42388358D01*
X56246744Y-41655356D01*
X56248075Y-41653417D01*
X56303602Y-41574307D01*
X56304954Y-41572422D01*
X56826926Y-40860118D01*
X56828274Y-40858317D01*
X56887068Y-40781426D01*
X56888407Y-40779711D01*
X57439045Y-40089233D01*
X57440446Y-40087513D01*
X57502276Y-40013145D01*
X57503785Y-40011366D01*
X58082068Y-39343992D01*
X58083580Y-39342283D01*
X58148328Y-39270570D01*
X58150031Y-39268723D01*
X58754964Y-38625587D01*
X58756501Y-38623986D01*
X58824252Y-38554838D01*
X58825860Y-38553230D01*
X59456603Y-37935224D01*
X59458213Y-37933679D01*
X59528690Y-37867388D01*
X59530393Y-37865818D01*
X60185863Y-37274015D01*
X60187458Y-37272604D01*
X60260695Y-37209143D01*
X60262362Y-37207729D01*
X60941407Y-36643168D01*
X60943098Y-36641790D01*
X61018818Y-36581406D01*
X61020642Y-36579982D01*
X61722139Y-36043597D01*
X61723865Y-36042305D01*
X61801992Y-35985054D01*
X61803741Y-35983800D01*
X61826699Y-35967686D01*
X70586524Y-35967686D01*
X71532555Y-35967686D01*
X71500005Y-36018335D01*
X71461524Y-36149391D01*
X71461524Y-36285981D01*
X71500005Y-36417037D01*
X71532555Y-36467686D01*
X70586525Y-36467686D01*
X70586525Y-36992672D01*
X70597018Y-37095383D01*
X70652165Y-37261805D01*
X70652167Y-37261810D01*
X70744208Y-37411031D01*
X70868178Y-37535001D01*
X71017399Y-37627042D01*
X71017404Y-37627044D01*
X71183826Y-37682191D01*
X71183833Y-37682192D01*
X71286543Y-37692685D01*
X71686523Y-37692685D01*
X71686524Y-37692684D01*
X71686524Y-36625704D01*
X71801325Y-36678132D01*
X71902549Y-36692686D01*
X71970499Y-36692686D01*
X72071723Y-36678132D01*
X72186524Y-36625704D01*
X72186524Y-37692685D01*
X72586496Y-37692685D01*
X72586510Y-37692684D01*
X72689221Y-37682191D01*
X72855643Y-37627044D01*
X72855648Y-37627042D01*
X73004869Y-37535001D01*
X73128839Y-37411031D01*
X73220880Y-37261810D01*
X73220882Y-37261805D01*
X73276029Y-37095383D01*
X73276030Y-37095376D01*
X73286523Y-36992672D01*
X73286523Y-36661874D01*
X73306207Y-36594835D01*
X73359011Y-36549080D01*
X73428170Y-36539136D01*
X73491725Y-36568161D01*
X73528836Y-36624752D01*
X73558547Y-36719448D01*
X73558553Y-36719460D01*
X73652363Y-36888474D01*
X73652366Y-36888479D01*
X73778282Y-37035152D01*
X73778283Y-37035154D01*
X73931148Y-37153480D01*
X73931151Y-37153482D01*
X74104708Y-37238616D01*
X74104712Y-37238617D01*
X74104710Y-37238617D01*
X74291841Y-37287069D01*
X74291844Y-37287069D01*
X74291850Y-37287071D01*
X74484914Y-37296862D01*
X74675998Y-37267589D01*
X74857277Y-37200450D01*
X75021331Y-37098195D01*
X75161443Y-36965009D01*
X75271877Y-36806344D01*
X75348111Y-36628698D01*
X75387024Y-36439342D01*
X75387024Y-36390893D01*
X75986024Y-36390893D01*
X76000678Y-36535008D01*
X76058546Y-36719445D01*
X76058553Y-36719460D01*
X76152363Y-36888474D01*
X76152366Y-36888479D01*
X76278282Y-37035152D01*
X76278283Y-37035154D01*
X76431148Y-37153480D01*
X76431151Y-37153482D01*
X76604708Y-37238616D01*
X76604712Y-37238617D01*
X76604710Y-37238617D01*
X76791841Y-37287069D01*
X76791844Y-37287069D01*
X76791850Y-37287071D01*
X76984914Y-37296862D01*
X77175998Y-37267589D01*
X77357277Y-37200450D01*
X77521331Y-37098195D01*
X77661443Y-36965009D01*
X77771877Y-36806344D01*
X77848111Y-36628698D01*
X77887024Y-36439342D01*
X77887024Y-36390893D01*
X78486024Y-36390893D01*
X78500678Y-36535008D01*
X78558546Y-36719445D01*
X78558553Y-36719460D01*
X78652363Y-36888474D01*
X78652366Y-36888479D01*
X78778282Y-37035152D01*
X78778283Y-37035154D01*
X78931148Y-37153480D01*
X78931151Y-37153482D01*
X79104708Y-37238616D01*
X79104712Y-37238617D01*
X79104710Y-37238617D01*
X79291841Y-37287069D01*
X79291844Y-37287069D01*
X79291850Y-37287071D01*
X79484914Y-37296862D01*
X79675998Y-37267589D01*
X79857277Y-37200450D01*
X80021331Y-37098195D01*
X80161443Y-36965009D01*
X80271877Y-36806344D01*
X80348111Y-36628698D01*
X80387024Y-36439342D01*
X80387024Y-36044480D01*
X80384366Y-36018335D01*
X80372369Y-35900363D01*
X80314501Y-35715926D01*
X80314499Y-35715922D01*
X80314498Y-35715918D01*
X80220683Y-35546895D01*
X80220682Y-35546894D01*
X80220681Y-35546892D01*
X80094765Y-35400219D01*
X80094764Y-35400217D01*
X79941899Y-35281891D01*
X79941895Y-35281889D01*
X79934920Y-35278467D01*
X79768340Y-35196756D01*
X79768338Y-35196755D01*
X79768335Y-35196754D01*
X79768337Y-35196754D01*
X79581206Y-35148302D01*
X79581200Y-35148301D01*
X79452488Y-35141773D01*
X79388134Y-35138510D01*
X79388133Y-35138510D01*
X79388131Y-35138510D01*
X79197057Y-35167781D01*
X79197045Y-35167784D01*
X79015775Y-35234920D01*
X79015766Y-35234924D01*
X78851720Y-35337174D01*
X78711604Y-35470363D01*
X78601170Y-35629028D01*
X78524937Y-35806673D01*
X78486024Y-35996029D01*
X78486024Y-36390893D01*
X77887024Y-36390893D01*
X77887024Y-36044480D01*
X77884366Y-36018335D01*
X77872369Y-35900363D01*
X77814501Y-35715926D01*
X77814499Y-35715922D01*
X77814498Y-35715918D01*
X77720683Y-35546895D01*
X77720682Y-35546894D01*
X77720681Y-35546892D01*
X77594765Y-35400219D01*
X77594764Y-35400217D01*
X77441899Y-35281891D01*
X77441895Y-35281889D01*
X77434920Y-35278467D01*
X77268340Y-35196756D01*
X77268338Y-35196755D01*
X77268335Y-35196754D01*
X77268337Y-35196754D01*
X77081206Y-35148302D01*
X77081200Y-35148301D01*
X76952488Y-35141773D01*
X76888134Y-35138510D01*
X76888133Y-35138510D01*
X76888131Y-35138510D01*
X76697057Y-35167781D01*
X76697045Y-35167784D01*
X76515775Y-35234920D01*
X76515766Y-35234924D01*
X76351720Y-35337174D01*
X76211604Y-35470363D01*
X76101170Y-35629028D01*
X76024937Y-35806673D01*
X75986024Y-35996029D01*
X75986024Y-36390893D01*
X75387024Y-36390893D01*
X75387024Y-36044480D01*
X75384366Y-36018335D01*
X75372369Y-35900363D01*
X75314501Y-35715926D01*
X75314499Y-35715922D01*
X75314498Y-35715918D01*
X75220683Y-35546895D01*
X75220682Y-35546894D01*
X75220681Y-35546892D01*
X75094765Y-35400219D01*
X75094764Y-35400217D01*
X74941899Y-35281891D01*
X74941895Y-35281889D01*
X74935383Y-35278695D01*
X74768340Y-35196756D01*
X74768337Y-35196755D01*
X74762694Y-35193987D01*
X74763823Y-35191683D01*
X74716868Y-35156668D01*
X74695290Y-35110556D01*
X74694303Y-35106358D01*
X74680867Y-35075927D01*
X74650437Y-35007004D01*
X74574214Y-34930777D01*
X74507206Y-34884873D01*
X74507204Y-34884872D01*
X74401486Y-34860003D01*
X74401479Y-34860002D01*
X74293916Y-34875005D01*
X74199033Y-34927852D01*
X74129648Y-35011405D01*
X74095129Y-35114384D01*
X74093542Y-35125763D01*
X74092134Y-35125566D01*
X74078518Y-35181344D01*
X74027882Y-35229487D01*
X74017831Y-35233911D01*
X74015768Y-35234923D01*
X73851720Y-35337174D01*
X73711604Y-35470363D01*
X73601170Y-35629028D01*
X73524474Y-35807752D01*
X73479947Y-35861596D01*
X73413378Y-35882819D01*
X73345903Y-35864684D01*
X73298945Y-35812947D01*
X73286523Y-35758852D01*
X73286523Y-35442714D01*
X73286522Y-35442698D01*
X73276029Y-35339988D01*
X73220882Y-35173566D01*
X73220880Y-35173561D01*
X73128839Y-35024340D01*
X73004869Y-34900370D01*
X72855648Y-34808329D01*
X72855643Y-34808327D01*
X72689221Y-34753180D01*
X72689214Y-34753179D01*
X72586510Y-34742686D01*
X72186524Y-34742686D01*
X72186524Y-35809667D01*
X72071723Y-35757240D01*
X71970499Y-35742686D01*
X71902549Y-35742686D01*
X71801325Y-35757240D01*
X71686524Y-35809667D01*
X71686524Y-34742686D01*
X71286552Y-34742686D01*
X71286536Y-34742687D01*
X71183826Y-34753180D01*
X71017404Y-34808327D01*
X71017399Y-34808329D01*
X70868178Y-34900370D01*
X70744208Y-35024340D01*
X70652167Y-35173561D01*
X70652165Y-35173566D01*
X70597018Y-35339988D01*
X70597017Y-35339995D01*
X70586524Y-35442699D01*
X70586524Y-35967686D01*
X61826699Y-35967686D01*
X62526540Y-35476469D01*
X62528463Y-35475148D01*
X62608745Y-35421209D01*
X62610693Y-35419929D01*
X63353505Y-34942553D01*
X63355452Y-34941329D01*
X63437897Y-34890691D01*
X63439801Y-34889548D01*
X64201581Y-34442799D01*
X64203523Y-34441687D01*
X64287953Y-34394460D01*
X64289982Y-34393352D01*
X65069315Y-33978066D01*
X65071277Y-33977047D01*
X65157589Y-33933290D01*
X65159686Y-33932254D01*
X65955287Y-33549113D01*
X65957190Y-33548220D01*
X66045370Y-33507949D01*
X66047365Y-33507063D01*
X66858014Y-33156656D01*
X66860072Y-33155793D01*
X66949637Y-33119228D01*
X66951663Y-33118424D01*
X67775907Y-32801382D01*
X67778050Y-32800583D01*
X67869076Y-32767686D01*
X67871205Y-32766941D01*
X68707572Y-32483826D01*
X68709813Y-32483092D01*
X68802022Y-32453961D01*
X68804249Y-32453283D01*
X69651521Y-32204501D01*
X69653652Y-32203899D01*
X69747114Y-32178515D01*
X69749207Y-32177970D01*
X70605932Y-31963952D01*
X70608231Y-31963402D01*
X70702461Y-31941895D01*
X70704782Y-31941390D01*
X71569417Y-31762516D01*
X71571762Y-31762056D01*
X71666866Y-31744396D01*
X71669116Y-31744002D01*
X72540363Y-31600539D01*
X72542621Y-31600190D01*
X72638397Y-31586420D01*
X72640727Y-31586109D01*
X73517073Y-31478306D01*
X73519339Y-31478050D01*
X73615642Y-31468193D01*
X73617939Y-31467983D01*
X74497930Y-31396016D01*
X74500303Y-31395846D01*
X74596809Y-31389932D01*
X74599098Y-31389815D01*
X75481461Y-31353794D01*
X75483653Y-31353728D01*
X75580315Y-31351756D01*
X75582842Y-31351730D01*
X76465612Y-31351730D01*
X76468139Y-31351756D01*
G37*
%TD.AperFunction*%
%TD*%
M02*
