%TF.GenerationSoftware,KiCad,Pcbnew,7.0.10*%
%TF.CreationDate,2024-07-08T18:10:28-07:00*%
%TF.ProjectId,Thermistor Ring,54686572-6d69-4737-946f-722052696e67,rev?*%
%TF.SameCoordinates,Original*%
%TF.FileFunction,Paste,Top*%
%TF.FilePolarity,Positive*%
%FSLAX46Y46*%
G04 Gerber Fmt 4.6, Leading zero omitted, Abs format (unit mm)*
G04 Created by KiCad (PCBNEW 7.0.10) date 2024-07-08 18:10:28*
%MOMM*%
%LPD*%
G01*
G04 APERTURE LIST*
G04 Aperture macros list*
%AMRoundRect*
0 Rectangle with rounded corners*
0 $1 Rounding radius*
0 $2 $3 $4 $5 $6 $7 $8 $9 X,Y pos of 4 corners*
0 Add a 4 corners polygon primitive as box body*
4,1,4,$2,$3,$4,$5,$6,$7,$8,$9,$2,$3,0*
0 Add four circle primitives for the rounded corners*
1,1,$1+$1,$2,$3*
1,1,$1+$1,$4,$5*
1,1,$1+$1,$6,$7*
1,1,$1+$1,$8,$9*
0 Add four rect primitives between the rounded corners*
20,1,$1+$1,$2,$3,$4,$5,0*
20,1,$1+$1,$4,$5,$6,$7,0*
20,1,$1+$1,$6,$7,$8,$9,0*
20,1,$1+$1,$8,$9,$2,$3,0*%
%AMRotRect*
0 Rectangle, with rotation*
0 The origin of the aperture is its center*
0 $1 length*
0 $2 width*
0 $3 Rotation angle, in degrees counterclockwise*
0 Add horizontal line*
21,1,$1,$2,0,0,$3*%
G04 Aperture macros list end*
%ADD10RotRect,0.803400X0.229998X30.000000*%
%ADD11RotRect,0.812800X0.229998X30.000000*%
%ADD12RotRect,0.497036X0.419336X30.000000*%
%ADD13RotRect,0.494072X0.418672X30.000000*%
%ADD14RotRect,0.803400X0.229998X145.000000*%
%ADD15RotRect,0.812800X0.229998X145.000000*%
%ADD16RotRect,0.497036X0.419336X145.000000*%
%ADD17RotRect,0.494072X0.418672X145.000000*%
%ADD18RotRect,0.803400X0.229998X325.000000*%
%ADD19RotRect,0.812800X0.229998X325.000000*%
%ADD20RotRect,0.497036X0.419336X325.000000*%
%ADD21RotRect,0.494072X0.418672X325.000000*%
%ADD22R,0.229998X0.803400*%
%ADD23R,0.229998X0.812800*%
%ADD24R,0.419336X0.497036*%
%ADD25R,0.418672X0.494072*%
%ADD26RotRect,0.803400X0.229998X215.000000*%
%ADD27RotRect,0.812800X0.229998X215.000000*%
%ADD28RotRect,0.497036X0.419336X215.000000*%
%ADD29RotRect,0.494072X0.418672X215.000000*%
%ADD30RoundRect,0.250000X0.536362X0.020994X0.286362X0.454006X-0.536362X-0.020994X-0.286362X-0.454006X0*%
%ADD31RoundRect,0.225000X0.327703X0.075733X-0.040915X0.333843X-0.327703X-0.075733X0.040915X-0.333843X0*%
%ADD32RoundRect,0.250000X-0.020994X0.536362X-0.454006X0.286362X0.020994X-0.536362X0.454006X-0.286362X0*%
%ADD33RoundRect,0.250000X-0.250000X-0.475000X0.250000X-0.475000X0.250000X0.475000X-0.250000X0.475000X0*%
%ADD34RoundRect,0.250000X0.250000X0.475000X-0.250000X0.475000X-0.250000X-0.475000X0.250000X-0.475000X0*%
%ADD35RoundRect,0.250000X0.245703X-0.477237X0.532491X-0.067661X-0.245703X0.477237X-0.532491X0.067661X0*%
%ADD36RotRect,1.805236X0.612132X235.000000*%
%ADD37RoundRect,0.250000X-0.519182X-0.043082X-0.218055X-0.473137X0.519182X0.043082X0.218055X0.473137X0*%
%ADD38RoundRect,0.250000X-0.450000X0.262500X-0.450000X-0.262500X0.450000X-0.262500X0.450000X0.262500X0*%
%ADD39RoundRect,0.250000X-0.245703X0.477237X-0.532491X0.067661X0.245703X-0.477237X0.532491X-0.067661X0*%
G04 APERTURE END LIST*
D10*
%TO.C,U2*%
X64116586Y-39424106D03*
X64364085Y-39852788D03*
D11*
X64618156Y-40283450D03*
X64868156Y-40716464D03*
X67287831Y-39319464D03*
X67037830Y-38886450D03*
X66787830Y-38453438D03*
X66537830Y-38020424D03*
D12*
X65556002Y-39810883D03*
D13*
X65247783Y-39274069D03*
X65851102Y-38924976D03*
X66161102Y-39461912D03*
%TD*%
D14*
%TO.C,U6*%
X66484721Y-73804505D03*
X66768640Y-73399025D03*
D15*
X67051579Y-72986753D03*
X67338367Y-72577176D03*
X65049656Y-70974604D03*
X64762868Y-71384181D03*
X64476079Y-71793757D03*
X64189291Y-72203334D03*
D16*
X66226937Y-72336492D03*
D17*
X65870676Y-72842700D03*
X65299317Y-72443440D03*
X65654934Y-71935566D03*
%TD*%
D18*
%TO.C,U7*%
X84067545Y-38050872D03*
X83783626Y-38456352D03*
D19*
X83500687Y-38868624D03*
X83213899Y-39278201D03*
X85502610Y-40880773D03*
X85789398Y-40471196D03*
X86076187Y-40061620D03*
X86362975Y-39652043D03*
D20*
X84325329Y-39518885D03*
D21*
X84681590Y-39012677D03*
X85252949Y-39411937D03*
X84897332Y-39919811D03*
%TD*%
D22*
%TO.C,U5*%
X95134640Y-54576163D03*
X94639641Y-54576163D03*
D23*
X94139641Y-54580863D03*
X93639640Y-54580863D03*
X93639640Y-57374863D03*
X94139641Y-57374863D03*
X94639641Y-57374863D03*
X95139642Y-57374863D03*
D24*
X94079973Y-55629345D03*
D25*
X94698977Y-55630827D03*
X94699641Y-56327863D03*
X94079641Y-56327863D03*
%TD*%
D22*
%TO.C,U3*%
X55417642Y-57332780D03*
X55912641Y-57332780D03*
D23*
X56412641Y-57328080D03*
X56912642Y-57328080D03*
X56912642Y-54534080D03*
X56412641Y-54534080D03*
X55912641Y-54534080D03*
X55412640Y-54534080D03*
D24*
X56472309Y-56279598D03*
D25*
X55853305Y-56278116D03*
X55852641Y-55581080D03*
X56472641Y-55581080D03*
%TD*%
D26*
%TO.C,U4*%
X86516352Y-72235367D03*
X86232433Y-71829888D03*
D27*
X85941794Y-71423008D03*
X85655006Y-71013431D03*
X83366295Y-72616003D03*
X83653083Y-73025580D03*
X83939872Y-73435156D03*
X84226660Y-73844733D03*
D28*
X85048704Y-71975515D03*
D29*
X85402536Y-72483424D03*
X84831938Y-72883771D03*
X84476321Y-72375897D03*
%TD*%
D30*
%TO.C,C1*%
X82037632Y-75503272D03*
X81087632Y-73857824D03*
%TD*%
D31*
%TO.C,C8*%
X57237848Y-47051075D03*
X55968162Y-46162031D03*
%TD*%
D32*
%TO.C,C3*%
X66075926Y-36199867D03*
X64430478Y-37149867D03*
%TD*%
D33*
%TO.C,C2*%
X55319894Y-51609985D03*
X57219894Y-51609985D03*
%TD*%
D34*
%TO.C,C6*%
X95473387Y-60189733D03*
X93573387Y-60189733D03*
%TD*%
D35*
%TO.C,C5*%
X61792191Y-71215347D03*
X62881987Y-69658959D03*
%TD*%
D31*
%TO.C,C7*%
X60988312Y-42295598D03*
X59718626Y-41406554D03*
%TD*%
D36*
%TO.C,U1*%
X59140848Y-43461138D03*
X58362653Y-42916239D03*
X57584458Y-42371341D03*
X56264678Y-44256182D03*
X57821068Y-45345979D03*
%TD*%
D37*
%TO.C,R3*%
X60938071Y-37918522D03*
X61984847Y-39413474D03*
%TD*%
D38*
%TO.C,R2*%
X83070187Y-34278995D03*
X83070187Y-36103995D03*
%TD*%
D39*
%TO.C,C4*%
X89642365Y-41397337D03*
X88552569Y-42953725D03*
%TD*%
M02*
