M48
; DRILL file {KiCad 7.0.10} date Mon 24 Jun 2024 01:56:17 PM PDT
; FORMAT={-:-/ absolute / metric / decimal}
; #@! TF.CreationDate,2024-06-24T13:56:17-07:00
; #@! TF.GenerationSoftware,Kicad,Pcbnew,7.0.10
; #@! TF.FileFunction,Plated,1,2,PTH
FMAT,2
METRIC
; #@! TA.AperFunction,Plated,PTH,ViaDrill
T1C0.300
; #@! TA.AperFunction,Plated,PTH,ViaDrill
T2C0.400
; #@! TA.AperFunction,Plated,PTH,ComponentDrill
T3C0.950
%
G90
G05
T1
X52.436Y-51.036
X53.526Y-52.646
X54.385Y-58.933
X54.445Y-55.954
X54.973Y-59.89
X55.076Y-45.387
X55.216Y-47.157
X56.286Y-69.536
X56.67Y-58.59
X56.919Y-53.262
X57.219Y-50.022
X57.833Y-57.33
X57.858Y-55.927
X57.949Y-54.542
X57.996Y-64.126
X58.392Y-47.37
X58.579Y-51.612
X59.511Y-47.115
X59.683Y-39.862
X60.214Y-72.076
X60.398Y-40.339
X60.445Y-45.866
X61.051Y-46.816
X61.26Y-66.072
X61.637Y-69.099
X63.281Y-37.816
X63.323Y-71.055
X63.391Y-38.696
X63.759Y-41.372
X63.902Y-70.502
X64.803Y-73.815
X65.049Y-38.194
X65.349Y-41.592
X66.469Y-71.343
X66.562Y-40.829
X67.543Y-37.802
X67.593Y-77.729
X67.769Y-40.152
X68.363Y-73.582
X68.469Y-38.792
X68.806Y-72.869
X69.831Y-36.694
X70.651Y-39.344
X71.531Y-34.904
X71.976Y-78.266
X73.761Y-38.994
X74.196Y-75.506
X74.536Y-32.706
X74.676Y-79.706
X78.27Y-38.451
X78.446Y-32.646
X79.586Y-74.619
X81.111Y-39.936
X82.244Y-38.36
X82.352Y-73.216
X82.739Y-39.983
X82.895Y-71.919
X83.903Y-40.755
X84.002Y-71.12
X85.216Y-34.996
X85.816Y-38.019
X85.835Y-73.694
X86.436Y-69.509
X86.865Y-70.467
X87.206Y-40.692
X87.209Y-42.078
X88.386Y-38.326
X89.861Y-64.106
X90.013Y-43.973
X91.736Y-70.326
X91.773Y-65.01
X92.281Y-39.136
X92.507Y-54.544
X92.543Y-56.037
X92.543Y-65.14
X92.856Y-50.337
X93.594Y-58.736
X93.791Y-53.233
X93.796Y-61.469
X95.536Y-45.226
X96.326Y-55.719
X96.786Y-63.026
X97.886Y-53.676
X99.341Y-56.014
T2
X52.353Y-56.901
X69.117Y-75.443
X88.167Y-71.633
X89.931Y-74.08
X94.771Y-51.567
X98.581Y-51.059
T3
X71.481Y-36.674
X73.981Y-36.674
X76.481Y-36.674
X78.981Y-36.674
M30
