%TF.GenerationSoftware,KiCad,Pcbnew,7.0.10*%
%TF.CreationDate,2024-06-24T13:55:56-07:00*%
%TF.ProjectId,Thermistor Ring,54686572-6d69-4737-946f-722052696e67,rev?*%
%TF.SameCoordinates,Original*%
%TF.FileFunction,Legend,Top*%
%TF.FilePolarity,Positive*%
%FSLAX46Y46*%
G04 Gerber Fmt 4.6, Leading zero omitted, Abs format (unit mm)*
G04 Created by KiCad (PCBNEW 7.0.10) date 2024-06-24 13:55:56*
%MOMM*%
%LPD*%
G01*
G04 APERTURE LIST*
%ADD10C,0.150000*%
%ADD11C,0.152400*%
%ADD12C,0.120000*%
G04 APERTURE END LIST*
D10*
X64928088Y-74912155D02*
X65392412Y-74249032D01*
X65392412Y-74249032D02*
X65408031Y-74143704D01*
X65408031Y-74143704D02*
X65396337Y-74077384D01*
X65396337Y-74077384D02*
X65345636Y-73983751D01*
X65345636Y-73983751D02*
X65189607Y-73874498D01*
X65189607Y-73874498D02*
X65084279Y-73858879D01*
X65084279Y-73858879D02*
X65017959Y-73870573D01*
X65017959Y-73870573D02*
X64924325Y-73921274D01*
X64924325Y-73921274D02*
X64460002Y-74584397D01*
X63718864Y-74065447D02*
X63874893Y-74174700D01*
X63874893Y-74174700D02*
X63980221Y-74190319D01*
X63980221Y-74190319D02*
X64046541Y-74178625D01*
X64046541Y-74178625D02*
X64206495Y-74116229D01*
X64206495Y-74116229D02*
X64354755Y-73987514D01*
X64354755Y-73987514D02*
X64573260Y-73675456D01*
X64573260Y-73675456D02*
X64588879Y-73570128D01*
X64588879Y-73570128D02*
X64577185Y-73503808D01*
X64577185Y-73503808D02*
X64526484Y-73410174D01*
X64526484Y-73410174D02*
X64370455Y-73300921D01*
X64370455Y-73300921D02*
X64265127Y-73285302D01*
X64265127Y-73285302D02*
X64198807Y-73296996D01*
X64198807Y-73296996D02*
X64105173Y-73347698D01*
X64105173Y-73347698D02*
X63968607Y-73542734D01*
X63968607Y-73542734D02*
X63952988Y-73648062D01*
X63952988Y-73648062D02*
X63964682Y-73714382D01*
X63964682Y-73714382D02*
X64015384Y-73808016D01*
X64015384Y-73808016D02*
X64171413Y-73917268D01*
X64171413Y-73917268D02*
X64276740Y-73932887D01*
X64276740Y-73932887D02*
X64343061Y-73921193D01*
X64343061Y-73921193D02*
X64436694Y-73870492D01*
X67658563Y-35414084D02*
X67641133Y-35479133D01*
X67641133Y-35479133D02*
X67541225Y-35591801D01*
X67541225Y-35591801D02*
X67458746Y-35639420D01*
X67458746Y-35639420D02*
X67311219Y-35669609D01*
X67311219Y-35669609D02*
X67181121Y-35634749D01*
X67181121Y-35634749D02*
X67092263Y-35576080D01*
X67092263Y-35576080D02*
X66955785Y-35434933D01*
X66955785Y-35434933D02*
X66884357Y-35311215D01*
X66884357Y-35311215D02*
X66830358Y-35122448D01*
X66830358Y-35122448D02*
X66823978Y-35016160D01*
X66823978Y-35016160D02*
X66858838Y-34886062D01*
X66858838Y-34886062D02*
X66958746Y-34773394D01*
X66958746Y-34773394D02*
X67041225Y-34725775D01*
X67041225Y-34725775D02*
X67188752Y-34695586D01*
X67188752Y-34695586D02*
X67253801Y-34713016D01*
X67494857Y-34463870D02*
X68030968Y-34154347D01*
X68030968Y-34154347D02*
X67932769Y-34650928D01*
X67932769Y-34650928D02*
X68056487Y-34579499D01*
X68056487Y-34579499D02*
X68162775Y-34573119D01*
X68162775Y-34573119D02*
X68227824Y-34590549D01*
X68227824Y-34590549D02*
X68316682Y-34649218D01*
X68316682Y-34649218D02*
X68435730Y-34855415D01*
X68435730Y-34855415D02*
X68442110Y-34961703D01*
X68442110Y-34961703D02*
X68424680Y-35026752D01*
X68424680Y-35026752D02*
X68366011Y-35115610D01*
X68366011Y-35115610D02*
X68118575Y-35258467D01*
X68118575Y-35258467D02*
X68012287Y-35264847D01*
X68012287Y-35264847D02*
X67947238Y-35247417D01*
X56103227Y-50289565D02*
X56055608Y-50337185D01*
X56055608Y-50337185D02*
X55912751Y-50384804D01*
X55912751Y-50384804D02*
X55817513Y-50384804D01*
X55817513Y-50384804D02*
X55674656Y-50337185D01*
X55674656Y-50337185D02*
X55579418Y-50241946D01*
X55579418Y-50241946D02*
X55531799Y-50146708D01*
X55531799Y-50146708D02*
X55484180Y-49956232D01*
X55484180Y-49956232D02*
X55484180Y-49813375D01*
X55484180Y-49813375D02*
X55531799Y-49622899D01*
X55531799Y-49622899D02*
X55579418Y-49527661D01*
X55579418Y-49527661D02*
X55674656Y-49432423D01*
X55674656Y-49432423D02*
X55817513Y-49384804D01*
X55817513Y-49384804D02*
X55912751Y-49384804D01*
X55912751Y-49384804D02*
X56055608Y-49432423D01*
X56055608Y-49432423D02*
X56103227Y-49480042D01*
X56484180Y-49480042D02*
X56531799Y-49432423D01*
X56531799Y-49432423D02*
X56627037Y-49384804D01*
X56627037Y-49384804D02*
X56865132Y-49384804D01*
X56865132Y-49384804D02*
X56960370Y-49432423D01*
X56960370Y-49432423D02*
X57007989Y-49480042D01*
X57007989Y-49480042D02*
X57055608Y-49575280D01*
X57055608Y-49575280D02*
X57055608Y-49670518D01*
X57055608Y-49670518D02*
X57007989Y-49813375D01*
X57007989Y-49813375D02*
X56436561Y-50384804D01*
X56436561Y-50384804D02*
X57055608Y-50384804D01*
X85624177Y-36943221D02*
X85159853Y-37606344D01*
X85159853Y-37606344D02*
X85144234Y-37711672D01*
X85144234Y-37711672D02*
X85155928Y-37777992D01*
X85155928Y-37777992D02*
X85206629Y-37871625D01*
X85206629Y-37871625D02*
X85362658Y-37980878D01*
X85362658Y-37980878D02*
X85467986Y-37996497D01*
X85467986Y-37996497D02*
X85534306Y-37984803D01*
X85534306Y-37984803D02*
X85627940Y-37934102D01*
X85627940Y-37934102D02*
X86092263Y-37270979D01*
X86404321Y-37489484D02*
X86950423Y-37871868D01*
X86950423Y-37871868D02*
X86025781Y-38445202D01*
X94356720Y-61979313D02*
X94309101Y-62026933D01*
X94309101Y-62026933D02*
X94166244Y-62074552D01*
X94166244Y-62074552D02*
X94071006Y-62074552D01*
X94071006Y-62074552D02*
X93928149Y-62026933D01*
X93928149Y-62026933D02*
X93832911Y-61931694D01*
X93832911Y-61931694D02*
X93785292Y-61836456D01*
X93785292Y-61836456D02*
X93737673Y-61645980D01*
X93737673Y-61645980D02*
X93737673Y-61503123D01*
X93737673Y-61503123D02*
X93785292Y-61312647D01*
X93785292Y-61312647D02*
X93832911Y-61217409D01*
X93832911Y-61217409D02*
X93928149Y-61122171D01*
X93928149Y-61122171D02*
X94071006Y-61074552D01*
X94071006Y-61074552D02*
X94166244Y-61074552D01*
X94166244Y-61074552D02*
X94309101Y-61122171D01*
X94309101Y-61122171D02*
X94356720Y-61169790D01*
X95213863Y-61074552D02*
X95023387Y-61074552D01*
X95023387Y-61074552D02*
X94928149Y-61122171D01*
X94928149Y-61122171D02*
X94880530Y-61169790D01*
X94880530Y-61169790D02*
X94785292Y-61312647D01*
X94785292Y-61312647D02*
X94737673Y-61503123D01*
X94737673Y-61503123D02*
X94737673Y-61884075D01*
X94737673Y-61884075D02*
X94785292Y-61979313D01*
X94785292Y-61979313D02*
X94832911Y-62026933D01*
X94832911Y-62026933D02*
X94928149Y-62074552D01*
X94928149Y-62074552D02*
X95118625Y-62074552D01*
X95118625Y-62074552D02*
X95213863Y-62026933D01*
X95213863Y-62026933D02*
X95261482Y-61979313D01*
X95261482Y-61979313D02*
X95309101Y-61884075D01*
X95309101Y-61884075D02*
X95309101Y-61645980D01*
X95309101Y-61645980D02*
X95261482Y-61550742D01*
X95261482Y-61550742D02*
X95213863Y-61503123D01*
X95213863Y-61503123D02*
X95118625Y-61455504D01*
X95118625Y-61455504D02*
X94928149Y-61455504D01*
X94928149Y-61455504D02*
X94832911Y-61503123D01*
X94832911Y-61503123D02*
X94785292Y-61550742D01*
X94785292Y-61550742D02*
X94737673Y-61645980D01*
X61364657Y-69959711D02*
X61376351Y-70026031D01*
X61376351Y-70026031D02*
X61333419Y-70170366D01*
X61333419Y-70170366D02*
X61278793Y-70248380D01*
X61278793Y-70248380D02*
X61157846Y-70338089D01*
X61157846Y-70338089D02*
X61025205Y-70361477D01*
X61025205Y-70361477D02*
X60919877Y-70345858D01*
X60919877Y-70345858D02*
X60736535Y-70275613D01*
X60736535Y-70275613D02*
X60619514Y-70193673D01*
X60619514Y-70193673D02*
X60490798Y-70045413D01*
X60490798Y-70045413D02*
X60440097Y-69951780D01*
X60440097Y-69951780D02*
X60416708Y-69819139D01*
X60416708Y-69819139D02*
X60459641Y-69674804D01*
X60459641Y-69674804D02*
X60514267Y-69596789D01*
X60514267Y-69596789D02*
X60635214Y-69507081D01*
X60635214Y-69507081D02*
X60701534Y-69495387D01*
X61142470Y-68699623D02*
X60869338Y-69089695D01*
X60869338Y-69089695D02*
X61232097Y-69401834D01*
X61232097Y-69401834D02*
X61220403Y-69335514D01*
X61220403Y-69335514D02*
X61236022Y-69230186D01*
X61236022Y-69230186D02*
X61372588Y-69035150D01*
X61372588Y-69035150D02*
X61466222Y-68984449D01*
X61466222Y-68984449D02*
X61532542Y-68972755D01*
X61532542Y-68972755D02*
X61637870Y-68988374D01*
X61637870Y-68988374D02*
X61832906Y-69124939D01*
X61832906Y-69124939D02*
X61883607Y-69218573D01*
X61883607Y-69218573D02*
X61895301Y-69284893D01*
X61895301Y-69284893D02*
X61879682Y-69390221D01*
X61879682Y-69390221D02*
X61743116Y-69585257D01*
X61743116Y-69585257D02*
X61649483Y-69635959D01*
X61649483Y-69635959D02*
X61583162Y-69647653D01*
X63770573Y-37545204D02*
X64175335Y-38246273D01*
X64175335Y-38246273D02*
X64264193Y-38304942D01*
X64264193Y-38304942D02*
X64329242Y-38322371D01*
X64329242Y-38322371D02*
X64435530Y-38315992D01*
X64435530Y-38315992D02*
X64600488Y-38220754D01*
X64600488Y-38220754D02*
X64659157Y-38131895D01*
X64659157Y-38131895D02*
X64676586Y-38066846D01*
X64676586Y-38066846D02*
X64670207Y-37960558D01*
X64670207Y-37960558D02*
X64265445Y-37259490D01*
X64684218Y-37127683D02*
X64701647Y-37062634D01*
X64701647Y-37062634D02*
X64760316Y-36973776D01*
X64760316Y-36973776D02*
X64966513Y-36854728D01*
X64966513Y-36854728D02*
X65072801Y-36848348D01*
X65072801Y-36848348D02*
X65137850Y-36865778D01*
X65137850Y-36865778D02*
X65226708Y-36924447D01*
X65226708Y-36924447D02*
X65274327Y-37006926D01*
X65274327Y-37006926D02*
X65304517Y-37154453D01*
X65304517Y-37154453D02*
X65095359Y-37935039D01*
X65095359Y-37935039D02*
X65631470Y-37625515D01*
X96934821Y-55215958D02*
X96125298Y-55215958D01*
X96125298Y-55215958D02*
X96030060Y-55263577D01*
X96030060Y-55263577D02*
X95982441Y-55311196D01*
X95982441Y-55311196D02*
X95934821Y-55406434D01*
X95934821Y-55406434D02*
X95934821Y-55596910D01*
X95934821Y-55596910D02*
X95982441Y-55692148D01*
X95982441Y-55692148D02*
X96030060Y-55739767D01*
X96030060Y-55739767D02*
X96125298Y-55787386D01*
X96125298Y-55787386D02*
X96934821Y-55787386D01*
X96934821Y-56739767D02*
X96934821Y-56263577D01*
X96934821Y-56263577D02*
X96458631Y-56215958D01*
X96458631Y-56215958D02*
X96506250Y-56263577D01*
X96506250Y-56263577D02*
X96553869Y-56358815D01*
X96553869Y-56358815D02*
X96553869Y-56596910D01*
X96553869Y-56596910D02*
X96506250Y-56692148D01*
X96506250Y-56692148D02*
X96458631Y-56739767D01*
X96458631Y-56739767D02*
X96363393Y-56787386D01*
X96363393Y-56787386D02*
X96125298Y-56787386D01*
X96125298Y-56787386D02*
X96030060Y-56739767D01*
X96030060Y-56739767D02*
X95982441Y-56692148D01*
X95982441Y-56692148D02*
X95934821Y-56596910D01*
X95934821Y-56596910D02*
X95934821Y-56358815D01*
X95934821Y-56358815D02*
X95982441Y-56263577D01*
X95982441Y-56263577D02*
X96030060Y-56215958D01*
X59139338Y-39352381D02*
X59338218Y-38806199D01*
X58811580Y-38884294D02*
X59630732Y-38310718D01*
X59630732Y-38310718D02*
X59849237Y-38622776D01*
X59849237Y-38622776D02*
X59864856Y-38728103D01*
X59864856Y-38728103D02*
X59853162Y-38794424D01*
X59853162Y-38794424D02*
X59802461Y-38888057D01*
X59802461Y-38888057D02*
X59685439Y-38969997D01*
X59685439Y-38969997D02*
X59580111Y-38985616D01*
X59580111Y-38985616D02*
X59513791Y-38973922D01*
X59513791Y-38973922D02*
X59420157Y-38923220D01*
X59420157Y-38923220D02*
X59201652Y-38611163D01*
X60149682Y-39051855D02*
X60504753Y-39558949D01*
X60504753Y-39558949D02*
X60001503Y-39504404D01*
X60001503Y-39504404D02*
X60083442Y-39621426D01*
X60083442Y-39621426D02*
X60099062Y-39726753D01*
X60099062Y-39726753D02*
X60087367Y-39793074D01*
X60087367Y-39793074D02*
X60036666Y-39886707D01*
X60036666Y-39886707D02*
X59841630Y-40023273D01*
X59841630Y-40023273D02*
X59736302Y-40038892D01*
X59736302Y-40038892D02*
X59669982Y-40027198D01*
X59669982Y-40027198D02*
X59576348Y-39976497D01*
X59576348Y-39976497D02*
X59412469Y-39742453D01*
X59412469Y-39742453D02*
X59396850Y-39637126D01*
X59396850Y-39637126D02*
X59408544Y-39570805D01*
X85175006Y-35358161D02*
X84698815Y-35691494D01*
X85175006Y-35929589D02*
X84175006Y-35929589D01*
X84175006Y-35929589D02*
X84175006Y-35548637D01*
X84175006Y-35548637D02*
X84222625Y-35453399D01*
X84222625Y-35453399D02*
X84270244Y-35405780D01*
X84270244Y-35405780D02*
X84365482Y-35358161D01*
X84365482Y-35358161D02*
X84508339Y-35358161D01*
X84508339Y-35358161D02*
X84603577Y-35405780D01*
X84603577Y-35405780D02*
X84651196Y-35453399D01*
X84651196Y-35453399D02*
X84698815Y-35548637D01*
X84698815Y-35548637D02*
X84698815Y-35929589D01*
X84270244Y-34977208D02*
X84222625Y-34929589D01*
X84222625Y-34929589D02*
X84175006Y-34834351D01*
X84175006Y-34834351D02*
X84175006Y-34596256D01*
X84175006Y-34596256D02*
X84222625Y-34501018D01*
X84222625Y-34501018D02*
X84270244Y-34453399D01*
X84270244Y-34453399D02*
X84365482Y-34405780D01*
X84365482Y-34405780D02*
X84460720Y-34405780D01*
X84460720Y-34405780D02*
X84603577Y-34453399D01*
X84603577Y-34453399D02*
X85175006Y-35024827D01*
X85175006Y-35024827D02*
X85175006Y-34405780D01*
X90672597Y-43481911D02*
X90684291Y-43548231D01*
X90684291Y-43548231D02*
X90641359Y-43692566D01*
X90641359Y-43692566D02*
X90586733Y-43770580D01*
X90586733Y-43770580D02*
X90465786Y-43860289D01*
X90465786Y-43860289D02*
X90333145Y-43883677D01*
X90333145Y-43883677D02*
X90227817Y-43868058D01*
X90227817Y-43868058D02*
X90044475Y-43797813D01*
X90044475Y-43797813D02*
X89927454Y-43715873D01*
X89927454Y-43715873D02*
X89798738Y-43567613D01*
X89798738Y-43567613D02*
X89748037Y-43473980D01*
X89748037Y-43473980D02*
X89724648Y-43341339D01*
X89724648Y-43341339D02*
X89767581Y-43197004D01*
X89767581Y-43197004D02*
X89822207Y-43118989D01*
X89822207Y-43118989D02*
X89943154Y-43029281D01*
X89943154Y-43029281D02*
X90009474Y-43017587D01*
X90696147Y-42452022D02*
X91242249Y-42834407D01*
X90247523Y-42428553D02*
X90696066Y-43033287D01*
X90696066Y-43033287D02*
X91051137Y-42526193D01*
X53617460Y-56692984D02*
X54426983Y-56692984D01*
X54426983Y-56692984D02*
X54522221Y-56645365D01*
X54522221Y-56645365D02*
X54569841Y-56597746D01*
X54569841Y-56597746D02*
X54617460Y-56502508D01*
X54617460Y-56502508D02*
X54617460Y-56312032D01*
X54617460Y-56312032D02*
X54569841Y-56216794D01*
X54569841Y-56216794D02*
X54522221Y-56169175D01*
X54522221Y-56169175D02*
X54426983Y-56121556D01*
X54426983Y-56121556D02*
X53617460Y-56121556D01*
X53617460Y-55740603D02*
X53617460Y-55121556D01*
X53617460Y-55121556D02*
X53998412Y-55454889D01*
X53998412Y-55454889D02*
X53998412Y-55312032D01*
X53998412Y-55312032D02*
X54046031Y-55216794D01*
X54046031Y-55216794D02*
X54093650Y-55169175D01*
X54093650Y-55169175D02*
X54188888Y-55121556D01*
X54188888Y-55121556D02*
X54426983Y-55121556D01*
X54426983Y-55121556D02*
X54522221Y-55169175D01*
X54522221Y-55169175D02*
X54569841Y-55216794D01*
X54569841Y-55216794D02*
X54617460Y-55312032D01*
X54617460Y-55312032D02*
X54617460Y-55597746D01*
X54617460Y-55597746D02*
X54569841Y-55692984D01*
X54569841Y-55692984D02*
X54522221Y-55740603D01*
X87024804Y-74076961D02*
X86560481Y-73413838D01*
X86560481Y-73413838D02*
X86466847Y-73363137D01*
X86466847Y-73363137D02*
X86400527Y-73351442D01*
X86400527Y-73351442D02*
X86295199Y-73367062D01*
X86295199Y-73367062D02*
X86139170Y-73476314D01*
X86139170Y-73476314D02*
X86088469Y-73569948D01*
X86088469Y-73569948D02*
X86076775Y-73636268D01*
X86076775Y-73636268D02*
X86092394Y-73741596D01*
X86092394Y-73741596D02*
X86556717Y-74404719D01*
X85624388Y-74650618D02*
X85242003Y-74104517D01*
X86037929Y-74826110D02*
X85823268Y-74104436D01*
X85823268Y-74104436D02*
X85316174Y-74459507D01*
D11*
%TO.C,U6*%
X67046848Y-71908793D02*
X65777436Y-71019941D01*
X64480810Y-72871717D02*
X65750222Y-73760569D01*
X67041124Y-74290336D02*
G75*
G03*
X67125817Y-74169381I57795J49660D01*
G01*
D12*
%TO.C,C1*%
X81056729Y-75274299D02*
X80795477Y-74821797D01*
X82329787Y-74539299D02*
X82068535Y-74086797D01*
%TO.C,C3*%
X65846953Y-37180770D02*
X65394451Y-37442022D01*
X65111953Y-35907712D02*
X64659451Y-36168964D01*
%TO.C,C2*%
X56008642Y-50874985D02*
X56531146Y-50874985D01*
X56008642Y-52344985D02*
X56531146Y-52344985D01*
D11*
%TO.C,U7*%
X83505418Y-39946584D02*
X84774830Y-40835436D01*
X86071456Y-38983660D02*
X84802044Y-38094808D01*
X83511142Y-37565041D02*
G75*
G03*
X83426449Y-37685996I-57795J-49660D01*
G01*
D12*
%TO.C,C6*%
X94663967Y-60699733D02*
X94382807Y-60699733D01*
X94663967Y-59679733D02*
X94382807Y-59679733D01*
%TO.C,C5*%
X61838688Y-70259785D02*
X61999955Y-70029473D01*
X62674223Y-70844833D02*
X62835490Y-70614521D01*
D11*
%TO.C,U2*%
X65597118Y-40734729D02*
X66939168Y-39959896D01*
X65808868Y-38002159D02*
X64466818Y-38776992D01*
X63441127Y-39723057D02*
G75*
G03*
X63514956Y-39850933I20581J-73368D01*
G01*
%TO.C,U5*%
X93259341Y-55203030D02*
X93259341Y-56752696D01*
X95519941Y-56752696D02*
X95519941Y-55203030D01*
X95213469Y-53841723D02*
G75*
G03*
X95065813Y-53841723I-73828J18860D01*
G01*
D12*
%TO.C,R3*%
X61933297Y-38058419D02*
X62193774Y-38430419D01*
X60729144Y-38901577D02*
X60989621Y-39273577D01*
%TO.C,R2*%
X83805187Y-34964431D02*
X83805187Y-35418559D01*
X82335187Y-34964431D02*
X82335187Y-35418559D01*
%TO.C,C4*%
X89849392Y-42383105D02*
X89549696Y-42811115D01*
X88645238Y-41539947D02*
X88345542Y-41967957D01*
D11*
%TO.C,U3*%
X57292941Y-56705913D02*
X57292941Y-55156247D01*
X55032341Y-55156247D02*
X55032341Y-56705913D01*
X55338813Y-58067220D02*
G75*
G03*
X55486469Y-58067220I73828J-18860D01*
G01*
%TO.C,U4*%
X84927226Y-71058768D02*
X83657814Y-71947620D01*
X84954440Y-73799396D02*
X86223852Y-72910544D01*
X87163185Y-71878684D02*
G75*
G03*
X87078492Y-71757729I-26897J71295D01*
G01*
%TD*%
M02*
