%TF.GenerationSoftware,KiCad,Pcbnew,7.0.10*%
%TF.CreationDate,2024-04-18T21:21:43-07:00*%
%TF.ProjectId,Thermistor Ring,54686572-6d69-4737-946f-722052696e67,rev?*%
%TF.SameCoordinates,Original*%
%TF.FileFunction,Legend,Top*%
%TF.FilePolarity,Positive*%
%FSLAX46Y46*%
G04 Gerber Fmt 4.6, Leading zero omitted, Abs format (unit mm)*
G04 Created by KiCad (PCBNEW 7.0.10) date 2024-04-18 21:21:43*
%MOMM*%
%LPD*%
G01*
G04 APERTURE LIST*
%ADD10C,0.150000*%
%ADD11C,0.120000*%
%ADD12C,0.152400*%
%ADD13C,0.250000*%
G04 APERTURE END LIST*
D10*
X61159869Y-69816317D02*
X61171563Y-69882637D01*
X61171563Y-69882637D02*
X61128631Y-70026972D01*
X61128631Y-70026972D02*
X61074005Y-70104986D01*
X61074005Y-70104986D02*
X60953058Y-70194695D01*
X60953058Y-70194695D02*
X60820417Y-70218083D01*
X60820417Y-70218083D02*
X60715089Y-70202464D01*
X60715089Y-70202464D02*
X60531747Y-70132219D01*
X60531747Y-70132219D02*
X60414726Y-70050279D01*
X60414726Y-70050279D02*
X60286010Y-69902019D01*
X60286010Y-69902019D02*
X60235309Y-69808386D01*
X60235309Y-69808386D02*
X60211920Y-69675745D01*
X60211920Y-69675745D02*
X60254853Y-69531410D01*
X60254853Y-69531410D02*
X60309479Y-69453395D01*
X60309479Y-69453395D02*
X60430426Y-69363687D01*
X60430426Y-69363687D02*
X60496746Y-69351993D01*
X60937682Y-68556229D02*
X60664550Y-68946301D01*
X60664550Y-68946301D02*
X61027309Y-69258440D01*
X61027309Y-69258440D02*
X61015615Y-69192120D01*
X61015615Y-69192120D02*
X61031234Y-69086792D01*
X61031234Y-69086792D02*
X61167800Y-68891756D01*
X61167800Y-68891756D02*
X61261434Y-68841055D01*
X61261434Y-68841055D02*
X61327754Y-68829361D01*
X61327754Y-68829361D02*
X61433082Y-68844980D01*
X61433082Y-68844980D02*
X61628118Y-68981545D01*
X61628118Y-68981545D02*
X61678819Y-69075179D01*
X61678819Y-69075179D02*
X61690513Y-69141499D01*
X61690513Y-69141499D02*
X61674894Y-69246827D01*
X61674894Y-69246827D02*
X61538328Y-69441863D01*
X61538328Y-69441863D02*
X61444695Y-69492565D01*
X61444695Y-69492565D02*
X61378374Y-69504259D01*
X94356720Y-62229313D02*
X94309101Y-62276933D01*
X94309101Y-62276933D02*
X94166244Y-62324552D01*
X94166244Y-62324552D02*
X94071006Y-62324552D01*
X94071006Y-62324552D02*
X93928149Y-62276933D01*
X93928149Y-62276933D02*
X93832911Y-62181694D01*
X93832911Y-62181694D02*
X93785292Y-62086456D01*
X93785292Y-62086456D02*
X93737673Y-61895980D01*
X93737673Y-61895980D02*
X93737673Y-61753123D01*
X93737673Y-61753123D02*
X93785292Y-61562647D01*
X93785292Y-61562647D02*
X93832911Y-61467409D01*
X93832911Y-61467409D02*
X93928149Y-61372171D01*
X93928149Y-61372171D02*
X94071006Y-61324552D01*
X94071006Y-61324552D02*
X94166244Y-61324552D01*
X94166244Y-61324552D02*
X94309101Y-61372171D01*
X94309101Y-61372171D02*
X94356720Y-61419790D01*
X95213863Y-61324552D02*
X95023387Y-61324552D01*
X95023387Y-61324552D02*
X94928149Y-61372171D01*
X94928149Y-61372171D02*
X94880530Y-61419790D01*
X94880530Y-61419790D02*
X94785292Y-61562647D01*
X94785292Y-61562647D02*
X94737673Y-61753123D01*
X94737673Y-61753123D02*
X94737673Y-62134075D01*
X94737673Y-62134075D02*
X94785292Y-62229313D01*
X94785292Y-62229313D02*
X94832911Y-62276933D01*
X94832911Y-62276933D02*
X94928149Y-62324552D01*
X94928149Y-62324552D02*
X95118625Y-62324552D01*
X95118625Y-62324552D02*
X95213863Y-62276933D01*
X95213863Y-62276933D02*
X95261482Y-62229313D01*
X95261482Y-62229313D02*
X95309101Y-62134075D01*
X95309101Y-62134075D02*
X95309101Y-61895980D01*
X95309101Y-61895980D02*
X95261482Y-61800742D01*
X95261482Y-61800742D02*
X95213863Y-61753123D01*
X95213863Y-61753123D02*
X95118625Y-61705504D01*
X95118625Y-61705504D02*
X94928149Y-61705504D01*
X94928149Y-61705504D02*
X94832911Y-61753123D01*
X94832911Y-61753123D02*
X94785292Y-61800742D01*
X94785292Y-61800742D02*
X94737673Y-61895980D01*
X90672597Y-43481911D02*
X90684291Y-43548231D01*
X90684291Y-43548231D02*
X90641359Y-43692566D01*
X90641359Y-43692566D02*
X90586733Y-43770580D01*
X90586733Y-43770580D02*
X90465786Y-43860289D01*
X90465786Y-43860289D02*
X90333145Y-43883677D01*
X90333145Y-43883677D02*
X90227817Y-43868058D01*
X90227817Y-43868058D02*
X90044475Y-43797813D01*
X90044475Y-43797813D02*
X89927454Y-43715873D01*
X89927454Y-43715873D02*
X89798738Y-43567613D01*
X89798738Y-43567613D02*
X89748037Y-43473980D01*
X89748037Y-43473980D02*
X89724648Y-43341339D01*
X89724648Y-43341339D02*
X89767581Y-43197004D01*
X89767581Y-43197004D02*
X89822207Y-43118989D01*
X89822207Y-43118989D02*
X89943154Y-43029281D01*
X89943154Y-43029281D02*
X90009474Y-43017587D01*
X90696147Y-42452022D02*
X91242249Y-42834407D01*
X90247523Y-42428553D02*
X90696066Y-43033287D01*
X90696066Y-43033287D02*
X91051137Y-42526193D01*
X56103227Y-50289565D02*
X56055608Y-50337185D01*
X56055608Y-50337185D02*
X55912751Y-50384804D01*
X55912751Y-50384804D02*
X55817513Y-50384804D01*
X55817513Y-50384804D02*
X55674656Y-50337185D01*
X55674656Y-50337185D02*
X55579418Y-50241946D01*
X55579418Y-50241946D02*
X55531799Y-50146708D01*
X55531799Y-50146708D02*
X55484180Y-49956232D01*
X55484180Y-49956232D02*
X55484180Y-49813375D01*
X55484180Y-49813375D02*
X55531799Y-49622899D01*
X55531799Y-49622899D02*
X55579418Y-49527661D01*
X55579418Y-49527661D02*
X55674656Y-49432423D01*
X55674656Y-49432423D02*
X55817513Y-49384804D01*
X55817513Y-49384804D02*
X55912751Y-49384804D01*
X55912751Y-49384804D02*
X56055608Y-49432423D01*
X56055608Y-49432423D02*
X56103227Y-49480042D01*
X56484180Y-49480042D02*
X56531799Y-49432423D01*
X56531799Y-49432423D02*
X56627037Y-49384804D01*
X56627037Y-49384804D02*
X56865132Y-49384804D01*
X56865132Y-49384804D02*
X56960370Y-49432423D01*
X56960370Y-49432423D02*
X57007989Y-49480042D01*
X57007989Y-49480042D02*
X57055608Y-49575280D01*
X57055608Y-49575280D02*
X57055608Y-49670518D01*
X57055608Y-49670518D02*
X57007989Y-49813375D01*
X57007989Y-49813375D02*
X56436561Y-50384804D01*
X56436561Y-50384804D02*
X57055608Y-50384804D01*
X67658563Y-35414084D02*
X67641133Y-35479133D01*
X67641133Y-35479133D02*
X67541225Y-35591801D01*
X67541225Y-35591801D02*
X67458746Y-35639420D01*
X67458746Y-35639420D02*
X67311219Y-35669609D01*
X67311219Y-35669609D02*
X67181121Y-35634749D01*
X67181121Y-35634749D02*
X67092263Y-35576080D01*
X67092263Y-35576080D02*
X66955785Y-35434933D01*
X66955785Y-35434933D02*
X66884357Y-35311215D01*
X66884357Y-35311215D02*
X66830358Y-35122448D01*
X66830358Y-35122448D02*
X66823978Y-35016160D01*
X66823978Y-35016160D02*
X66858838Y-34886062D01*
X66858838Y-34886062D02*
X66958746Y-34773394D01*
X66958746Y-34773394D02*
X67041225Y-34725775D01*
X67041225Y-34725775D02*
X67188752Y-34695586D01*
X67188752Y-34695586D02*
X67253801Y-34713016D01*
X67494857Y-34463870D02*
X68030968Y-34154347D01*
X68030968Y-34154347D02*
X67932769Y-34650928D01*
X67932769Y-34650928D02*
X68056487Y-34579499D01*
X68056487Y-34579499D02*
X68162775Y-34573119D01*
X68162775Y-34573119D02*
X68227824Y-34590549D01*
X68227824Y-34590549D02*
X68316682Y-34649218D01*
X68316682Y-34649218D02*
X68435730Y-34855415D01*
X68435730Y-34855415D02*
X68442110Y-34961703D01*
X68442110Y-34961703D02*
X68424680Y-35026752D01*
X68424680Y-35026752D02*
X68366011Y-35115610D01*
X68366011Y-35115610D02*
X68118575Y-35258467D01*
X68118575Y-35258467D02*
X68012287Y-35264847D01*
X68012287Y-35264847D02*
X67947238Y-35247417D01*
X85624177Y-36943221D02*
X85159853Y-37606344D01*
X85159853Y-37606344D02*
X85144234Y-37711672D01*
X85144234Y-37711672D02*
X85155928Y-37777992D01*
X85155928Y-37777992D02*
X85206629Y-37871625D01*
X85206629Y-37871625D02*
X85362658Y-37980878D01*
X85362658Y-37980878D02*
X85467986Y-37996497D01*
X85467986Y-37996497D02*
X85534306Y-37984803D01*
X85534306Y-37984803D02*
X85627940Y-37934102D01*
X85627940Y-37934102D02*
X86092263Y-37270979D01*
X86404321Y-37489484D02*
X86950423Y-37871868D01*
X86950423Y-37871868D02*
X86025781Y-38445202D01*
X64870730Y-74994070D02*
X65335054Y-74330947D01*
X65335054Y-74330947D02*
X65350673Y-74225619D01*
X65350673Y-74225619D02*
X65338979Y-74159299D01*
X65338979Y-74159299D02*
X65288278Y-74065666D01*
X65288278Y-74065666D02*
X65132249Y-73956413D01*
X65132249Y-73956413D02*
X65026921Y-73940794D01*
X65026921Y-73940794D02*
X64960601Y-73952488D01*
X64960601Y-73952488D02*
X64866967Y-74003189D01*
X64866967Y-74003189D02*
X64402644Y-74666312D01*
X63661506Y-74147362D02*
X63817535Y-74256615D01*
X63817535Y-74256615D02*
X63922863Y-74272234D01*
X63922863Y-74272234D02*
X63989183Y-74260540D01*
X63989183Y-74260540D02*
X64149137Y-74198144D01*
X64149137Y-74198144D02*
X64297397Y-74069429D01*
X64297397Y-74069429D02*
X64515902Y-73757371D01*
X64515902Y-73757371D02*
X64531521Y-73652043D01*
X64531521Y-73652043D02*
X64519827Y-73585723D01*
X64519827Y-73585723D02*
X64469126Y-73492089D01*
X64469126Y-73492089D02*
X64313097Y-73382836D01*
X64313097Y-73382836D02*
X64207769Y-73367217D01*
X64207769Y-73367217D02*
X64141449Y-73378911D01*
X64141449Y-73378911D02*
X64047815Y-73429613D01*
X64047815Y-73429613D02*
X63911249Y-73624649D01*
X63911249Y-73624649D02*
X63895630Y-73729977D01*
X63895630Y-73729977D02*
X63907324Y-73796297D01*
X63907324Y-73796297D02*
X63958026Y-73889931D01*
X63958026Y-73889931D02*
X64114055Y-73999183D01*
X64114055Y-73999183D02*
X64219382Y-74014802D01*
X64219382Y-74014802D02*
X64285703Y-74003108D01*
X64285703Y-74003108D02*
X64379336Y-73952407D01*
X63149292Y-42869113D02*
X63554054Y-43570182D01*
X63554054Y-43570182D02*
X63642912Y-43628851D01*
X63642912Y-43628851D02*
X63707961Y-43646280D01*
X63707961Y-43646280D02*
X63814249Y-43639901D01*
X63814249Y-43639901D02*
X63979207Y-43544663D01*
X63979207Y-43544663D02*
X64037876Y-43455804D01*
X64037876Y-43455804D02*
X64055305Y-43390755D01*
X64055305Y-43390755D02*
X64048926Y-43284467D01*
X64048926Y-43284467D02*
X63644164Y-42583399D01*
X64062937Y-42451592D02*
X64080366Y-42386543D01*
X64080366Y-42386543D02*
X64139035Y-42297685D01*
X64139035Y-42297685D02*
X64345232Y-42178637D01*
X64345232Y-42178637D02*
X64451520Y-42172257D01*
X64451520Y-42172257D02*
X64516569Y-42189687D01*
X64516569Y-42189687D02*
X64605427Y-42248356D01*
X64605427Y-42248356D02*
X64653046Y-42330835D01*
X64653046Y-42330835D02*
X64683236Y-42478362D01*
X64683236Y-42478362D02*
X64474078Y-43258948D01*
X64474078Y-43258948D02*
X65010189Y-42949424D01*
X96934821Y-55215958D02*
X96125298Y-55215958D01*
X96125298Y-55215958D02*
X96030060Y-55263577D01*
X96030060Y-55263577D02*
X95982441Y-55311196D01*
X95982441Y-55311196D02*
X95934821Y-55406434D01*
X95934821Y-55406434D02*
X95934821Y-55596910D01*
X95934821Y-55596910D02*
X95982441Y-55692148D01*
X95982441Y-55692148D02*
X96030060Y-55739767D01*
X96030060Y-55739767D02*
X96125298Y-55787386D01*
X96125298Y-55787386D02*
X96934821Y-55787386D01*
X96934821Y-56739767D02*
X96934821Y-56263577D01*
X96934821Y-56263577D02*
X96458631Y-56215958D01*
X96458631Y-56215958D02*
X96506250Y-56263577D01*
X96506250Y-56263577D02*
X96553869Y-56358815D01*
X96553869Y-56358815D02*
X96553869Y-56596910D01*
X96553869Y-56596910D02*
X96506250Y-56692148D01*
X96506250Y-56692148D02*
X96458631Y-56739767D01*
X96458631Y-56739767D02*
X96363393Y-56787386D01*
X96363393Y-56787386D02*
X96125298Y-56787386D01*
X96125298Y-56787386D02*
X96030060Y-56739767D01*
X96030060Y-56739767D02*
X95982441Y-56692148D01*
X95982441Y-56692148D02*
X95934821Y-56596910D01*
X95934821Y-56596910D02*
X95934821Y-56358815D01*
X95934821Y-56358815D02*
X95982441Y-56263577D01*
X95982441Y-56263577D02*
X96030060Y-56215958D01*
X53517460Y-56692984D02*
X54326983Y-56692984D01*
X54326983Y-56692984D02*
X54422221Y-56645365D01*
X54422221Y-56645365D02*
X54469841Y-56597746D01*
X54469841Y-56597746D02*
X54517460Y-56502508D01*
X54517460Y-56502508D02*
X54517460Y-56312032D01*
X54517460Y-56312032D02*
X54469841Y-56216794D01*
X54469841Y-56216794D02*
X54422221Y-56169175D01*
X54422221Y-56169175D02*
X54326983Y-56121556D01*
X54326983Y-56121556D02*
X53517460Y-56121556D01*
X53517460Y-55740603D02*
X53517460Y-55121556D01*
X53517460Y-55121556D02*
X53898412Y-55454889D01*
X53898412Y-55454889D02*
X53898412Y-55312032D01*
X53898412Y-55312032D02*
X53946031Y-55216794D01*
X53946031Y-55216794D02*
X53993650Y-55169175D01*
X53993650Y-55169175D02*
X54088888Y-55121556D01*
X54088888Y-55121556D02*
X54326983Y-55121556D01*
X54326983Y-55121556D02*
X54422221Y-55169175D01*
X54422221Y-55169175D02*
X54469841Y-55216794D01*
X54469841Y-55216794D02*
X54517460Y-55312032D01*
X54517460Y-55312032D02*
X54517460Y-55597746D01*
X54517460Y-55597746D02*
X54469841Y-55692984D01*
X54469841Y-55692984D02*
X54422221Y-55740603D01*
X87024804Y-74076961D02*
X86560481Y-73413838D01*
X86560481Y-73413838D02*
X86466847Y-73363137D01*
X86466847Y-73363137D02*
X86400527Y-73351442D01*
X86400527Y-73351442D02*
X86295199Y-73367062D01*
X86295199Y-73367062D02*
X86139170Y-73476314D01*
X86139170Y-73476314D02*
X86088469Y-73569948D01*
X86088469Y-73569948D02*
X86076775Y-73636268D01*
X86076775Y-73636268D02*
X86092394Y-73741596D01*
X86092394Y-73741596D02*
X86556717Y-74404719D01*
X85624388Y-74650618D02*
X85242003Y-74104517D01*
X86037929Y-74826110D02*
X85823268Y-74104436D01*
X85823268Y-74104436D02*
X85316174Y-74459507D01*
X92490672Y-48756867D02*
X92157339Y-48756867D01*
X92157339Y-49280677D02*
X92157339Y-48280677D01*
X92157339Y-48280677D02*
X92633529Y-48280677D01*
X93014482Y-49280677D02*
X93014482Y-48280677D01*
X93014482Y-48280677D02*
X93252577Y-48280677D01*
X93252577Y-48280677D02*
X93395434Y-48328296D01*
X93395434Y-48328296D02*
X93490672Y-48423534D01*
X93490672Y-48423534D02*
X93538291Y-48518772D01*
X93538291Y-48518772D02*
X93585910Y-48709248D01*
X93585910Y-48709248D02*
X93585910Y-48852105D01*
X93585910Y-48852105D02*
X93538291Y-49042581D01*
X93538291Y-49042581D02*
X93490672Y-49137819D01*
X93490672Y-49137819D02*
X93395434Y-49233058D01*
X93395434Y-49233058D02*
X93252577Y-49280677D01*
X93252577Y-49280677D02*
X93014482Y-49280677D01*
X94538291Y-49280677D02*
X93966863Y-49280677D01*
X94252577Y-49280677D02*
X94252577Y-48280677D01*
X94252577Y-48280677D02*
X94157339Y-48423534D01*
X94157339Y-48423534D02*
X94062101Y-48518772D01*
X94062101Y-48518772D02*
X93966863Y-48566391D01*
X55440018Y-47976895D02*
X55373698Y-47988589D01*
X55373698Y-47988589D02*
X55229363Y-47945657D01*
X55229363Y-47945657D02*
X55151349Y-47891031D01*
X55151349Y-47891031D02*
X55061640Y-47770084D01*
X55061640Y-47770084D02*
X55038252Y-47637443D01*
X55038252Y-47637443D02*
X55053871Y-47532115D01*
X55053871Y-47532115D02*
X55124116Y-47348773D01*
X55124116Y-47348773D02*
X55206056Y-47231752D01*
X55206056Y-47231752D02*
X55354316Y-47103036D01*
X55354316Y-47103036D02*
X55447949Y-47052335D01*
X55447949Y-47052335D02*
X55580590Y-47028946D01*
X55580590Y-47028946D02*
X55724925Y-47071879D01*
X55724925Y-47071879D02*
X55802940Y-47126505D01*
X55802940Y-47126505D02*
X55892648Y-47247452D01*
X55892648Y-47247452D02*
X55904342Y-47313772D01*
X56181237Y-47914581D02*
X56130536Y-47820947D01*
X56130536Y-47820947D02*
X56118842Y-47754627D01*
X56118842Y-47754627D02*
X56134461Y-47649299D01*
X56134461Y-47649299D02*
X56161774Y-47610292D01*
X56161774Y-47610292D02*
X56255407Y-47559591D01*
X56255407Y-47559591D02*
X56321728Y-47547896D01*
X56321728Y-47547896D02*
X56427055Y-47563516D01*
X56427055Y-47563516D02*
X56583084Y-47672768D01*
X56583084Y-47672768D02*
X56633786Y-47766402D01*
X56633786Y-47766402D02*
X56645480Y-47832722D01*
X56645480Y-47832722D02*
X56629861Y-47938050D01*
X56629861Y-47938050D02*
X56602547Y-47977057D01*
X56602547Y-47977057D02*
X56508914Y-48027758D01*
X56508914Y-48027758D02*
X56442594Y-48039452D01*
X56442594Y-48039452D02*
X56337266Y-48023833D01*
X56337266Y-48023833D02*
X56181237Y-47914581D01*
X56181237Y-47914581D02*
X56075909Y-47898962D01*
X56075909Y-47898962D02*
X56009589Y-47910656D01*
X56009589Y-47910656D02*
X55915955Y-47961357D01*
X55915955Y-47961357D02*
X55806703Y-48117386D01*
X55806703Y-48117386D02*
X55791084Y-48222714D01*
X55791084Y-48222714D02*
X55802778Y-48289034D01*
X55802778Y-48289034D02*
X55853479Y-48382668D01*
X55853479Y-48382668D02*
X56009508Y-48491920D01*
X56009508Y-48491920D02*
X56114836Y-48507539D01*
X56114836Y-48507539D02*
X56181156Y-48495845D01*
X56181156Y-48495845D02*
X56274790Y-48445144D01*
X56274790Y-48445144D02*
X56384042Y-48289115D01*
X56384042Y-48289115D02*
X56399661Y-48183787D01*
X56399661Y-48183787D02*
X56387967Y-48117467D01*
X56387967Y-48117467D02*
X56337266Y-48023833D01*
X57590671Y-64336867D02*
X57257338Y-64336867D01*
X57257338Y-64860677D02*
X57257338Y-63860677D01*
X57257338Y-63860677D02*
X57733528Y-63860677D01*
X58114481Y-64860677D02*
X58114481Y-63860677D01*
X58114481Y-63860677D02*
X58352576Y-63860677D01*
X58352576Y-63860677D02*
X58495433Y-63908296D01*
X58495433Y-63908296D02*
X58590671Y-64003534D01*
X58590671Y-64003534D02*
X58638290Y-64098772D01*
X58638290Y-64098772D02*
X58685909Y-64289248D01*
X58685909Y-64289248D02*
X58685909Y-64432105D01*
X58685909Y-64432105D02*
X58638290Y-64622581D01*
X58638290Y-64622581D02*
X58590671Y-64717819D01*
X58590671Y-64717819D02*
X58495433Y-64813058D01*
X58495433Y-64813058D02*
X58352576Y-64860677D01*
X58352576Y-64860677D02*
X58114481Y-64860677D01*
X59019243Y-63860677D02*
X59638290Y-63860677D01*
X59638290Y-63860677D02*
X59304957Y-64241629D01*
X59304957Y-64241629D02*
X59447814Y-64241629D01*
X59447814Y-64241629D02*
X59543052Y-64289248D01*
X59543052Y-64289248D02*
X59590671Y-64336867D01*
X59590671Y-64336867D02*
X59638290Y-64432105D01*
X59638290Y-64432105D02*
X59638290Y-64670200D01*
X59638290Y-64670200D02*
X59590671Y-64765438D01*
X59590671Y-64765438D02*
X59543052Y-64813058D01*
X59543052Y-64813058D02*
X59447814Y-64860677D01*
X59447814Y-64860677D02*
X59162100Y-64860677D01*
X59162100Y-64860677D02*
X59066862Y-64813058D01*
X59066862Y-64813058D02*
X59019243Y-64765438D01*
X58045054Y-40561802D02*
X57978734Y-40573496D01*
X57978734Y-40573496D02*
X57834399Y-40530564D01*
X57834399Y-40530564D02*
X57756385Y-40475938D01*
X57756385Y-40475938D02*
X57666676Y-40354991D01*
X57666676Y-40354991D02*
X57643288Y-40222350D01*
X57643288Y-40222350D02*
X57658907Y-40117022D01*
X57658907Y-40117022D02*
X57729152Y-39933680D01*
X57729152Y-39933680D02*
X57811092Y-39816659D01*
X57811092Y-39816659D02*
X57959352Y-39687943D01*
X57959352Y-39687943D02*
X58052985Y-39637242D01*
X58052985Y-39637242D02*
X58185626Y-39613853D01*
X58185626Y-39613853D02*
X58329961Y-39656786D01*
X58329961Y-39656786D02*
X58407976Y-39711412D01*
X58407976Y-39711412D02*
X58497684Y-39832359D01*
X58497684Y-39832359D02*
X58509378Y-39898679D01*
X58837055Y-40011857D02*
X59383157Y-40394241D01*
X59383157Y-40394241D02*
X58458515Y-40967575D01*
X60798070Y-45095903D02*
X60134947Y-44631579D01*
X60134947Y-44631579D02*
X60029619Y-44615960D01*
X60029619Y-44615960D02*
X59963299Y-44627654D01*
X59963299Y-44627654D02*
X59869666Y-44678355D01*
X59869666Y-44678355D02*
X59760413Y-44834384D01*
X59760413Y-44834384D02*
X59744794Y-44939712D01*
X59744794Y-44939712D02*
X59756488Y-45006032D01*
X59756488Y-45006032D02*
X59807189Y-45099666D01*
X59807189Y-45099666D02*
X60470312Y-45563989D01*
X59077584Y-45809565D02*
X59405342Y-45341478D01*
X59241463Y-45575522D02*
X60060615Y-46149098D01*
X60060615Y-46149098D02*
X59998219Y-45989144D01*
X59998219Y-45989144D02*
X59974831Y-45856503D01*
X59974831Y-45856503D02*
X59990450Y-45751176D01*
X59139338Y-39352381D02*
X59338218Y-38806199D01*
X58811580Y-38884294D02*
X59630732Y-38310718D01*
X59630732Y-38310718D02*
X59849237Y-38622776D01*
X59849237Y-38622776D02*
X59864856Y-38728103D01*
X59864856Y-38728103D02*
X59853162Y-38794424D01*
X59853162Y-38794424D02*
X59802461Y-38888057D01*
X59802461Y-38888057D02*
X59685439Y-38969997D01*
X59685439Y-38969997D02*
X59580111Y-38985616D01*
X59580111Y-38985616D02*
X59513791Y-38973922D01*
X59513791Y-38973922D02*
X59420157Y-38923220D01*
X59420157Y-38923220D02*
X59201652Y-38611163D01*
X60149682Y-39051855D02*
X60504753Y-39558949D01*
X60504753Y-39558949D02*
X60001503Y-39504404D01*
X60001503Y-39504404D02*
X60083442Y-39621426D01*
X60083442Y-39621426D02*
X60099062Y-39726753D01*
X60099062Y-39726753D02*
X60087367Y-39793074D01*
X60087367Y-39793074D02*
X60036666Y-39886707D01*
X60036666Y-39886707D02*
X59841630Y-40023273D01*
X59841630Y-40023273D02*
X59736302Y-40038892D01*
X59736302Y-40038892D02*
X59669982Y-40027198D01*
X59669982Y-40027198D02*
X59576348Y-39976497D01*
X59576348Y-39976497D02*
X59412469Y-39742453D01*
X59412469Y-39742453D02*
X59396850Y-39637126D01*
X59396850Y-39637126D02*
X59408544Y-39570805D01*
X85175006Y-35358161D02*
X84698815Y-35691494D01*
X85175006Y-35929589D02*
X84175006Y-35929589D01*
X84175006Y-35929589D02*
X84175006Y-35548637D01*
X84175006Y-35548637D02*
X84222625Y-35453399D01*
X84222625Y-35453399D02*
X84270244Y-35405780D01*
X84270244Y-35405780D02*
X84365482Y-35358161D01*
X84365482Y-35358161D02*
X84508339Y-35358161D01*
X84508339Y-35358161D02*
X84603577Y-35405780D01*
X84603577Y-35405780D02*
X84651196Y-35453399D01*
X84651196Y-35453399D02*
X84698815Y-35548637D01*
X84698815Y-35548637D02*
X84698815Y-35929589D01*
X84270244Y-34977208D02*
X84222625Y-34929589D01*
X84222625Y-34929589D02*
X84175006Y-34834351D01*
X84175006Y-34834351D02*
X84175006Y-34596256D01*
X84175006Y-34596256D02*
X84222625Y-34501018D01*
X84222625Y-34501018D02*
X84270244Y-34453399D01*
X84270244Y-34453399D02*
X84365482Y-34405780D01*
X84365482Y-34405780D02*
X84460720Y-34405780D01*
X84460720Y-34405780D02*
X84603577Y-34453399D01*
X84603577Y-34453399D02*
X85175006Y-35024827D01*
X85175006Y-35024827D02*
X85175006Y-34405780D01*
X73330674Y-73866865D02*
X72997341Y-73866865D01*
X72997341Y-74390675D02*
X72997341Y-73390675D01*
X72997341Y-73390675D02*
X73473531Y-73390675D01*
X73854484Y-74390675D02*
X73854484Y-73390675D01*
X73854484Y-73390675D02*
X74092579Y-73390675D01*
X74092579Y-73390675D02*
X74235436Y-73438294D01*
X74235436Y-73438294D02*
X74330674Y-73533532D01*
X74330674Y-73533532D02*
X74378293Y-73628770D01*
X74378293Y-73628770D02*
X74425912Y-73819246D01*
X74425912Y-73819246D02*
X74425912Y-73962103D01*
X74425912Y-73962103D02*
X74378293Y-74152579D01*
X74378293Y-74152579D02*
X74330674Y-74247817D01*
X74330674Y-74247817D02*
X74235436Y-74343056D01*
X74235436Y-74343056D02*
X74092579Y-74390675D01*
X74092579Y-74390675D02*
X73854484Y-74390675D01*
X74806865Y-73485913D02*
X74854484Y-73438294D01*
X74854484Y-73438294D02*
X74949722Y-73390675D01*
X74949722Y-73390675D02*
X75187817Y-73390675D01*
X75187817Y-73390675D02*
X75283055Y-73438294D01*
X75283055Y-73438294D02*
X75330674Y-73485913D01*
X75330674Y-73485913D02*
X75378293Y-73581151D01*
X75378293Y-73581151D02*
X75378293Y-73676389D01*
X75378293Y-73676389D02*
X75330674Y-73819246D01*
X75330674Y-73819246D02*
X74759246Y-74390675D01*
X74759246Y-74390675D02*
X75378293Y-74390675D01*
D11*
%TO.C,C5*%
X61585164Y-70229579D02*
X61884860Y-69801569D01*
X62789318Y-71072737D02*
X63089014Y-70644727D01*
%TO.C,C6*%
X94784639Y-60924733D02*
X94262135Y-60924733D01*
X94784639Y-59454733D02*
X94262135Y-59454733D01*
%TO.C,C4*%
X89849392Y-42383105D02*
X89549696Y-42811115D01*
X88645238Y-41539947D02*
X88345542Y-41967957D01*
%TO.C,C2*%
X56008642Y-50874985D02*
X56531146Y-50874985D01*
X56008642Y-52344985D02*
X56531146Y-52344985D01*
%TO.C,C3*%
X65846953Y-37180770D02*
X65394451Y-37442022D01*
X65111953Y-35907712D02*
X64659451Y-36168964D01*
%TO.C,C1*%
X81056729Y-75274299D02*
X80795477Y-74821797D01*
X82329787Y-74539299D02*
X82068535Y-74086797D01*
D12*
%TO.C,U7*%
X83511142Y-37565041D02*
G75*
G03*
X83426449Y-37685996I-57795J-49660D01*
G01*
X86071456Y-38983660D02*
X84802044Y-38094808D01*
X83505418Y-39946584D02*
X84774830Y-40835436D01*
%TO.C,U6*%
X67041124Y-74290336D02*
G75*
G03*
X67125817Y-74169381I57795J49660D01*
G01*
X64480810Y-72871717D02*
X65750222Y-73760569D01*
X67046848Y-71908793D02*
X65777436Y-71019941D01*
%TO.C,U2*%
X63441127Y-39723057D02*
G75*
G03*
X63514956Y-39850933I20581J-73368D01*
G01*
X65808868Y-38002159D02*
X64466818Y-38776992D01*
X65597118Y-40734729D02*
X66939168Y-39959896D01*
%TO.C,U5*%
X95213469Y-53841723D02*
G75*
G03*
X95065813Y-53841723I-73828J18860D01*
G01*
X95519941Y-56752696D02*
X95519941Y-55203030D01*
X93259341Y-55203030D02*
X93259341Y-56752696D01*
%TO.C,U3*%
X55338813Y-58067220D02*
G75*
G03*
X55486469Y-58067220I73828J-18860D01*
G01*
X55032341Y-55156247D02*
X55032341Y-56705913D01*
X57292941Y-56705913D02*
X57292941Y-55156247D01*
%TO.C,U4*%
X87163185Y-71878684D02*
G75*
G03*
X87078492Y-71757729I-26897J71295D01*
G01*
X84954440Y-73799396D02*
X86223852Y-72910544D01*
X84927226Y-71058768D02*
X83657814Y-71947620D01*
D11*
%TO.C,C8*%
X56425637Y-47104954D02*
X56195325Y-46943687D01*
X57010685Y-46269419D02*
X56780373Y-46108152D01*
%TO.C,C7*%
X60176101Y-42349477D02*
X59945789Y-42188210D01*
X60761149Y-41513942D02*
X60530837Y-41352675D01*
D10*
%TO.C,U1*%
X59898328Y-43686927D02*
X58292314Y-45980552D01*
X57113212Y-41736768D02*
X55507198Y-44030393D01*
D13*
X60899839Y-44178588D02*
G75*
G03*
X60649837Y-44178588I-125001J0D01*
G01*
X60649837Y-44178588D02*
G75*
G03*
X60899839Y-44178588I125001J0D01*
G01*
D11*
%TO.C,R3*%
X61933297Y-38058419D02*
X62193774Y-38430419D01*
X60729144Y-38901577D02*
X60989621Y-39273577D01*
%TO.C,R2*%
X83805187Y-34964431D02*
X83805187Y-35418559D01*
X82335187Y-34964431D02*
X82335187Y-35418559D01*
%TD*%
M02*
