%TF.GenerationSoftware,KiCad,Pcbnew,7.0.10*%
%TF.CreationDate,2024-04-18T21:21:43-07:00*%
%TF.ProjectId,Thermistor Ring,54686572-6d69-4737-946f-722052696e67,rev?*%
%TF.SameCoordinates,Original*%
%TF.FileFunction,Copper,L2,Bot*%
%TF.FilePolarity,Positive*%
%FSLAX46Y46*%
G04 Gerber Fmt 4.6, Leading zero omitted, Abs format (unit mm)*
G04 Created by KiCad (PCBNEW 7.0.10) date 2024-04-18 21:21:43*
%MOMM*%
%LPD*%
G01*
G04 APERTURE LIST*
G04 Aperture macros list*
%AMRoundRect*
0 Rectangle with rounded corners*
0 $1 Rounding radius*
0 $2 $3 $4 $5 $6 $7 $8 $9 X,Y pos of 4 corners*
0 Add a 4 corners polygon primitive as box body*
4,1,4,$2,$3,$4,$5,$6,$7,$8,$9,$2,$3,0*
0 Add four circle primitives for the rounded corners*
1,1,$1+$1,$2,$3*
1,1,$1+$1,$4,$5*
1,1,$1+$1,$6,$7*
1,1,$1+$1,$8,$9*
0 Add four rect primitives between the rounded corners*
20,1,$1+$1,$2,$3,$4,$5,0*
20,1,$1+$1,$4,$5,$6,$7,0*
20,1,$1+$1,$6,$7,$8,$9,0*
20,1,$1+$1,$8,$9,$2,$3,0*%
G04 Aperture macros list end*
%TA.AperFunction,ComponentPad*%
%ADD10RoundRect,0.250000X-0.600000X-0.725000X0.600000X-0.725000X0.600000X0.725000X-0.600000X0.725000X0*%
%TD*%
%TA.AperFunction,ComponentPad*%
%ADD11O,1.700000X1.950000*%
%TD*%
%TA.AperFunction,ViaPad*%
%ADD12C,0.600000*%
%TD*%
%TA.AperFunction,ViaPad*%
%ADD13C,0.800000*%
%TD*%
%TA.AperFunction,Conductor*%
%ADD14C,0.380000*%
%TD*%
%TA.AperFunction,Conductor*%
%ADD15C,0.160000*%
%TD*%
G04 APERTURE END LIST*
D10*
%TO.P,J1,1,Pin_1*%
%TO.N,GND*%
X71480530Y-36673544D03*
D11*
%TO.P,J1,2,Pin_2*%
%TO.N,/Power 3.3-5V*%
X73980530Y-36673544D03*
%TO.P,J1,3,Pin_3*%
%TO.N,/SDA*%
X76480530Y-36673544D03*
%TO.P,J1,4,Pin_4*%
%TO.N,/SCL*%
X78980530Y-36673544D03*
%TD*%
D12*
%TO.N,GND*%
X66561825Y-40828516D03*
X53525850Y-52645543D03*
X71975845Y-78265542D03*
X63391293Y-38695847D03*
X63759075Y-41371685D03*
X82895206Y-71919186D03*
X82352347Y-73215627D03*
X68806102Y-72869259D03*
X78270194Y-38451496D03*
X86865072Y-70466910D03*
X65349079Y-41591686D03*
X82243868Y-38359788D03*
X92543381Y-65139727D03*
X83902614Y-40755461D03*
X96785843Y-63025543D03*
X91773379Y-65009730D03*
X64803259Y-73815459D03*
X58579066Y-51611690D03*
X67542940Y-37801883D03*
X92281293Y-39135846D03*
X70650525Y-39343542D03*
X61260285Y-66071860D03*
X91735843Y-70325542D03*
X85834856Y-73694057D03*
X54444927Y-55953936D03*
X57995837Y-64125543D03*
X85815570Y-38019295D03*
X92507400Y-54543504D03*
X82739199Y-39983091D03*
X87206095Y-40692478D03*
X56919071Y-53261689D03*
X85215848Y-34995547D03*
X93594005Y-58735858D03*
X60398437Y-40338703D03*
X88385842Y-38325547D03*
X57219078Y-50021680D03*
X86435552Y-69509297D03*
X79585561Y-74619294D03*
X63281292Y-37815849D03*
X61051294Y-46815848D03*
X84001516Y-71119588D03*
X78445844Y-32645540D03*
X92542936Y-56037107D03*
X63322769Y-71054674D03*
X81111294Y-39935849D03*
X89861293Y-64105846D03*
X69830530Y-36693542D03*
X59682513Y-39861802D03*
X61637009Y-69099373D03*
X95535843Y-45225547D03*
X57949065Y-54541691D03*
X57857848Y-55926563D03*
X96325952Y-55718909D03*
X54973384Y-59889737D03*
X66469046Y-71342705D03*
X56285847Y-69535540D03*
X74195841Y-75505546D03*
X55076125Y-45387320D03*
X93795566Y-61469299D03*
X92855790Y-50337233D03*
X90012898Y-43972565D03*
X87209222Y-42078066D03*
X97885847Y-53675543D03*
X68362922Y-73582204D03*
X73760531Y-38993549D03*
X52435844Y-51035545D03*
X74675841Y-79705546D03*
X93791321Y-53232902D03*
X67769072Y-40151684D03*
X56669882Y-58589974D03*
X99340530Y-56013547D03*
X57833368Y-57329723D03*
X63901987Y-70502221D03*
X55216462Y-47156845D03*
X68469074Y-38791685D03*
X71530531Y-34903544D03*
X65049077Y-38194474D03*
X60214005Y-72075857D03*
X74535843Y-32705537D03*
D13*
%TO.N,/SDA*%
X98580627Y-51058561D03*
X88166636Y-71632548D03*
X89930742Y-74080030D03*
X52352634Y-56900549D03*
X69116629Y-75442545D03*
X94770629Y-51566542D03*
D12*
X54384629Y-58932547D03*
X67592631Y-77728550D03*
%TO.N,/VDD*%
X59511081Y-47115267D03*
X60445065Y-45866379D03*
X58391958Y-47370369D03*
%TD*%
D14*
%TO.N,/Power 3.3-5V*%
X73931832Y-35611077D02*
X73950623Y-35629872D01*
D15*
%TO.N,/SDA*%
X89930742Y-74080030D02*
X89873289Y-74069889D01*
X98580627Y-51058561D02*
X94770629Y-51566542D01*
X67592631Y-77728550D02*
X69116629Y-75442545D01*
X89873289Y-74069889D02*
X88166636Y-71632548D01*
X52352634Y-56900549D02*
X52444192Y-56900553D01*
X54384639Y-58840983D02*
X54384629Y-58932547D01*
X52444192Y-56900553D02*
X54384639Y-58840983D01*
D14*
%TO.N,/VDD*%
X60445065Y-45866379D02*
X59511081Y-47115267D01*
X59511081Y-47115267D02*
X59532799Y-47169220D01*
X59532799Y-47169220D02*
X58391958Y-47370369D01*
%TD*%
%TA.AperFunction,Conductor*%
%TO.N,GND*%
G36*
X76012143Y-31807611D02*
G01*
X76108798Y-31809583D01*
X76111003Y-31809650D01*
X76993347Y-31845670D01*
X76995658Y-31845788D01*
X77092140Y-31851700D01*
X77094542Y-31851872D01*
X77974469Y-31923834D01*
X77976871Y-31924054D01*
X78073113Y-31933905D01*
X78075377Y-31934160D01*
X78951697Y-32041960D01*
X78954106Y-32042281D01*
X79049786Y-32056038D01*
X79052135Y-32056401D01*
X79923252Y-32199842D01*
X79925700Y-32200271D01*
X80020712Y-32217914D01*
X80023000Y-32218363D01*
X80887644Y-32397238D01*
X80890038Y-32397759D01*
X80984245Y-32419262D01*
X80986500Y-32419800D01*
X81843198Y-32633812D01*
X81845391Y-32634383D01*
X81938755Y-32659740D01*
X81940991Y-32660372D01*
X82788178Y-32909129D01*
X82790463Y-32909825D01*
X82882618Y-32938939D01*
X82884912Y-32939690D01*
X83721247Y-33222795D01*
X83723469Y-33223572D01*
X83814318Y-33256406D01*
X83816563Y-33257243D01*
X84640663Y-33574228D01*
X84642881Y-33575107D01*
X84732344Y-33611630D01*
X84734555Y-33612559D01*
X85544992Y-33962875D01*
X85547303Y-33963903D01*
X85635014Y-34003959D01*
X85637304Y-34005033D01*
X86432754Y-34388101D01*
X86434856Y-34389139D01*
X86521051Y-34432836D01*
X86523266Y-34433988D01*
X87302366Y-34849148D01*
X87304543Y-34850337D01*
X87388920Y-34897534D01*
X87390969Y-34898708D01*
X88152493Y-35345306D01*
X88154662Y-35346608D01*
X88236937Y-35397142D01*
X88239078Y-35398488D01*
X88424433Y-35517608D01*
X88981713Y-35875750D01*
X88983713Y-35877064D01*
X89063947Y-35930971D01*
X89065987Y-35932372D01*
X89788535Y-36439527D01*
X89790589Y-36441001D01*
X89868485Y-36498082D01*
X89870482Y-36499576D01*
X90424956Y-36923544D01*
X90571758Y-37035793D01*
X90573709Y-37037316D01*
X90649228Y-37097541D01*
X90651161Y-37099115D01*
X90710614Y-37148544D01*
X91329993Y-37663498D01*
X91331859Y-37665082D01*
X91404902Y-37728373D01*
X91406741Y-37730001D01*
X92062019Y-38321632D01*
X92063793Y-38323266D01*
X92108945Y-38365736D01*
X92134124Y-38389420D01*
X92135948Y-38391171D01*
X92766531Y-39009019D01*
X92768320Y-39010808D01*
X92835803Y-39079682D01*
X92837547Y-39081497D01*
X93442480Y-39724633D01*
X93444154Y-39726451D01*
X93508812Y-39798067D01*
X93510487Y-39799960D01*
X93673778Y-39988407D01*
X94088641Y-40467184D01*
X94090190Y-40469009D01*
X94151966Y-40543313D01*
X94153491Y-40545185D01*
X94445799Y-40911727D01*
X94703930Y-41235414D01*
X94705486Y-41237407D01*
X94764108Y-41314073D01*
X94765605Y-41316073D01*
X94968497Y-41592946D01*
X95287426Y-42028170D01*
X95288900Y-42030226D01*
X95344349Y-42109225D01*
X95345781Y-42111310D01*
X95838087Y-42844046D01*
X95839476Y-42846159D01*
X95891648Y-42927339D01*
X95892994Y-42929481D01*
X96355034Y-43681740D01*
X96356336Y-43683910D01*
X96405143Y-43767135D01*
X96406400Y-43769329D01*
X96837348Y-44539760D01*
X96838561Y-44541981D01*
X96883972Y-44627201D01*
X96885138Y-44629445D01*
X97284288Y-45416789D01*
X97285409Y-45419055D01*
X97327314Y-45506072D01*
X97328365Y-45508314D01*
X97695071Y-46311289D01*
X97696099Y-46313600D01*
X97734394Y-46402194D01*
X97735374Y-46404526D01*
X98069057Y-47221872D01*
X98069989Y-47224224D01*
X98104618Y-47314253D01*
X98105502Y-47316623D01*
X98405563Y-48146885D01*
X98406398Y-48149273D01*
X98437326Y-48240641D01*
X98438113Y-48243044D01*
X98704070Y-49084886D01*
X98704807Y-49087306D01*
X98731977Y-49179837D01*
X98732665Y-49182271D01*
X98964055Y-50034233D01*
X98964693Y-50036682D01*
X98988079Y-50130299D01*
X98988667Y-50132759D01*
X99079717Y-50531677D01*
X99075444Y-50601415D01*
X99034145Y-50657773D01*
X98968933Y-50682856D01*
X98900512Y-50668702D01*
X98891787Y-50663585D01*
X98790677Y-50598606D01*
X98652590Y-50558061D01*
X98652588Y-50558061D01*
X98508666Y-50558061D01*
X98508663Y-50558061D01*
X98370576Y-50598606D01*
X98249500Y-50676417D01*
X98249499Y-50676417D01*
X98249499Y-50676418D01*
X98236917Y-50690938D01*
X98155250Y-50785187D01*
X98111753Y-50880431D01*
X98065997Y-50933234D01*
X98015347Y-50951830D01*
X95289151Y-51315310D01*
X95220098Y-51304658D01*
X95179050Y-51273601D01*
X95163985Y-51256215D01*
X95101757Y-51184399D01*
X94980682Y-51106589D01*
X94980680Y-51106588D01*
X94980678Y-51106587D01*
X94980679Y-51106587D01*
X94842592Y-51066042D01*
X94842590Y-51066042D01*
X94698668Y-51066042D01*
X94698665Y-51066042D01*
X94560578Y-51106587D01*
X94439502Y-51184398D01*
X94345252Y-51293168D01*
X94345251Y-51293170D01*
X94285463Y-51424085D01*
X94264982Y-51566542D01*
X94285463Y-51708998D01*
X94301755Y-51744671D01*
X94345252Y-51839915D01*
X94439501Y-51948685D01*
X94560576Y-52026495D01*
X94560579Y-52026496D01*
X94560578Y-52026496D01*
X94698665Y-52067041D01*
X94698667Y-52067042D01*
X94698668Y-52067042D01*
X94842591Y-52067042D01*
X94842591Y-52067041D01*
X94980682Y-52026495D01*
X95101757Y-51948685D01*
X95196006Y-51839915D01*
X95239503Y-51744671D01*
X95285258Y-51691867D01*
X95335905Y-51673271D01*
X98062104Y-51309791D01*
X98131156Y-51320443D01*
X98172203Y-51351499D01*
X98249499Y-51440704D01*
X98370574Y-51518514D01*
X98370577Y-51518515D01*
X98370576Y-51518515D01*
X98508663Y-51559060D01*
X98508665Y-51559061D01*
X98508666Y-51559061D01*
X98652589Y-51559061D01*
X98652589Y-51559060D01*
X98790680Y-51518514D01*
X98911755Y-51440704D01*
X99006004Y-51331934D01*
X99016469Y-51309018D01*
X99062222Y-51256215D01*
X99129261Y-51236530D01*
X99196301Y-51256214D01*
X99242057Y-51309017D01*
X99251179Y-51337891D01*
X99366854Y-51960833D01*
X99367290Y-51963325D01*
X99382966Y-52058526D01*
X99383352Y-52061026D01*
X99508989Y-52934848D01*
X99509323Y-52937354D01*
X99521102Y-53033101D01*
X99521385Y-53035615D01*
X99573604Y-53545790D01*
X99611283Y-53913908D01*
X99611505Y-53916324D01*
X99618094Y-53996891D01*
X99619370Y-54012492D01*
X99619550Y-54015014D01*
X99673548Y-54896222D01*
X99673677Y-54898749D01*
X99677612Y-54995149D01*
X99677689Y-54997676D01*
X99696682Y-55928537D01*
X99696682Y-55933597D01*
X99677689Y-56864458D01*
X99677612Y-56866985D01*
X99673677Y-56963385D01*
X99673548Y-56965912D01*
X99619550Y-57847120D01*
X99619370Y-57849642D01*
X99611506Y-57945793D01*
X99611283Y-57948226D01*
X99521386Y-58826518D01*
X99521102Y-58829033D01*
X99509323Y-58924780D01*
X99508989Y-58927286D01*
X99383352Y-59801108D01*
X99382966Y-59803608D01*
X99367290Y-59898809D01*
X99366854Y-59901301D01*
X99205683Y-60769250D01*
X99205196Y-60771732D01*
X99185639Y-60866267D01*
X99185101Y-60868738D01*
X98988667Y-61729375D01*
X98988079Y-61731835D01*
X98964693Y-61825452D01*
X98964055Y-61827901D01*
X98732665Y-62679863D01*
X98731977Y-62682297D01*
X98704807Y-62774828D01*
X98704070Y-62777248D01*
X98438113Y-63619090D01*
X98437326Y-63621493D01*
X98406398Y-63712861D01*
X98405563Y-63715249D01*
X98105502Y-64545511D01*
X98104618Y-64547881D01*
X98069989Y-64637910D01*
X98069057Y-64640262D01*
X97735374Y-65457608D01*
X97734394Y-65459940D01*
X97696099Y-65548534D01*
X97695071Y-65550845D01*
X97328365Y-66353820D01*
X97327291Y-66356112D01*
X97285409Y-66443079D01*
X97284288Y-66445345D01*
X96885138Y-67232689D01*
X96883972Y-67234933D01*
X96838561Y-67320153D01*
X96837348Y-67322374D01*
X96406400Y-68092805D01*
X96405143Y-68094999D01*
X96356336Y-68178224D01*
X96355034Y-68180394D01*
X95892994Y-68932653D01*
X95891648Y-68934795D01*
X95839476Y-69015975D01*
X95838087Y-69018088D01*
X95345781Y-69750824D01*
X95344349Y-69752909D01*
X95288900Y-69831908D01*
X95287426Y-69833964D01*
X94765625Y-70546035D01*
X94764108Y-70548061D01*
X94705486Y-70624727D01*
X94703930Y-70626720D01*
X94153526Y-71316906D01*
X94151929Y-71318867D01*
X94090234Y-71393073D01*
X94088597Y-71395002D01*
X93510487Y-72062174D01*
X93508812Y-72064067D01*
X93444154Y-72135683D01*
X93442439Y-72137545D01*
X92837555Y-72780628D01*
X92835803Y-72782452D01*
X92768320Y-72851326D01*
X92766531Y-72853115D01*
X92135948Y-73470963D01*
X92134124Y-73472714D01*
X92063836Y-73538828D01*
X92061975Y-73540543D01*
X91406768Y-74132109D01*
X91404874Y-74133785D01*
X91331890Y-74197026D01*
X91329961Y-74198663D01*
X90651161Y-74763019D01*
X90649200Y-74764616D01*
X90573752Y-74824784D01*
X90571758Y-74826341D01*
X89870511Y-75362536D01*
X89868485Y-75364052D01*
X89790589Y-75421133D01*
X89788535Y-75422607D01*
X89065987Y-75929762D01*
X89063902Y-75931194D01*
X88983791Y-75985019D01*
X88981676Y-75986408D01*
X88239078Y-76463646D01*
X88236937Y-76464992D01*
X88154662Y-76515526D01*
X88152493Y-76516828D01*
X87391042Y-76963384D01*
X87388846Y-76964642D01*
X87304564Y-77011785D01*
X87302345Y-77012997D01*
X86523266Y-77428146D01*
X86521023Y-77429312D01*
X86434975Y-77472936D01*
X86432705Y-77474057D01*
X85637304Y-77857101D01*
X85635014Y-77858175D01*
X85547303Y-77898231D01*
X85544992Y-77899259D01*
X84734615Y-78249549D01*
X84732283Y-78250529D01*
X84642946Y-78287001D01*
X84640594Y-78287933D01*
X83816640Y-78604862D01*
X83814270Y-78605746D01*
X83723533Y-78638539D01*
X83721146Y-78639374D01*
X82884967Y-78922426D01*
X82882563Y-78923213D01*
X82790528Y-78952289D01*
X82788108Y-78953026D01*
X81941091Y-79201733D01*
X81938657Y-79202421D01*
X81845516Y-79227718D01*
X81843068Y-79228356D01*
X80986602Y-79442309D01*
X80984141Y-79442897D01*
X80890076Y-79464366D01*
X80887605Y-79464904D01*
X80023097Y-79643752D01*
X80020614Y-79644239D01*
X79925721Y-79661859D01*
X79923230Y-79662295D01*
X79052212Y-79805721D01*
X79049712Y-79806107D01*
X78954153Y-79819846D01*
X78951646Y-79820180D01*
X78075511Y-79927958D01*
X78072996Y-79928242D01*
X77976921Y-79938075D01*
X77974403Y-79938306D01*
X77094600Y-80010257D01*
X77092078Y-80010438D01*
X76995768Y-80016340D01*
X76993241Y-80016469D01*
X76111164Y-80052479D01*
X76108636Y-80052556D01*
X76018249Y-80054400D01*
X76012142Y-80054525D01*
X76009614Y-80054551D01*
X75126848Y-80054551D01*
X75124319Y-80054525D01*
X75117264Y-80054381D01*
X75027824Y-80052556D01*
X75025296Y-80052479D01*
X74143219Y-80016469D01*
X74140692Y-80016340D01*
X74044382Y-80010438D01*
X74041860Y-80010257D01*
X73162057Y-79938306D01*
X73159539Y-79938075D01*
X73063464Y-79928242D01*
X73060949Y-79927958D01*
X72184814Y-79820180D01*
X72182307Y-79819846D01*
X72086748Y-79806107D01*
X72084248Y-79805721D01*
X71213230Y-79662295D01*
X71210739Y-79661859D01*
X71115846Y-79644239D01*
X71113363Y-79643752D01*
X70248855Y-79464904D01*
X70246384Y-79464366D01*
X70152319Y-79442897D01*
X70149858Y-79442309D01*
X69293392Y-79228356D01*
X69290944Y-79227718D01*
X69197803Y-79202421D01*
X69195369Y-79201733D01*
X68348352Y-78953026D01*
X68345932Y-78952289D01*
X68253897Y-78923213D01*
X68251493Y-78922426D01*
X67415314Y-78639374D01*
X67412927Y-78638539D01*
X67322190Y-78605746D01*
X67319820Y-78604862D01*
X66495866Y-78287933D01*
X66493514Y-78287001D01*
X66404177Y-78250529D01*
X66401845Y-78249549D01*
X65591468Y-77899259D01*
X65589157Y-77898231D01*
X65501446Y-77858175D01*
X65499156Y-77857101D01*
X65232223Y-77728553D01*
X67187139Y-77728553D01*
X67206983Y-77853850D01*
X67206983Y-77853851D01*
X67219862Y-77879126D01*
X67264581Y-77966892D01*
X67264583Y-77966894D01*
X67264585Y-77966897D01*
X67354283Y-78056595D01*
X67354285Y-78056596D01*
X67354289Y-78056600D01*
X67467327Y-78114196D01*
X67467328Y-78114196D01*
X67467330Y-78114197D01*
X67592628Y-78134042D01*
X67592631Y-78134042D01*
X67592634Y-78134042D01*
X67717931Y-78114197D01*
X67717932Y-78114197D01*
X67717933Y-78114196D01*
X67717935Y-78114196D01*
X67830973Y-78056600D01*
X67920681Y-77966892D01*
X67978277Y-77853854D01*
X67978277Y-77853852D01*
X67978278Y-77853851D01*
X67978278Y-77853850D01*
X67998123Y-77728553D01*
X67998123Y-77728546D01*
X67978278Y-77603249D01*
X67978278Y-77603248D01*
X67974333Y-77595506D01*
X67961437Y-77526836D01*
X67981643Y-77470429D01*
X68963086Y-75998261D01*
X69016650Y-75953401D01*
X69066259Y-75943045D01*
X69188591Y-75943045D01*
X69188591Y-75943044D01*
X69326682Y-75902498D01*
X69447757Y-75824688D01*
X69542006Y-75715918D01*
X69601794Y-75585002D01*
X69622276Y-75442545D01*
X69601794Y-75300088D01*
X69542006Y-75169172D01*
X69447757Y-75060402D01*
X69326682Y-74982592D01*
X69326680Y-74982591D01*
X69326678Y-74982590D01*
X69326679Y-74982590D01*
X69188592Y-74942045D01*
X69188590Y-74942045D01*
X69044668Y-74942045D01*
X69044665Y-74942045D01*
X68906578Y-74982590D01*
X68785502Y-75060401D01*
X68691252Y-75169171D01*
X68691251Y-75169173D01*
X68631463Y-75300088D01*
X68610982Y-75442545D01*
X68631463Y-75585002D01*
X68631464Y-75585003D01*
X68673208Y-75676410D01*
X68683152Y-75745568D01*
X68663588Y-75796704D01*
X67682454Y-77268409D01*
X67628889Y-77313270D01*
X67598678Y-77322099D01*
X67467330Y-77342902D01*
X67467329Y-77342902D01*
X67391968Y-77381301D01*
X67354289Y-77400500D01*
X67354288Y-77400501D01*
X67354283Y-77400504D01*
X67264585Y-77490202D01*
X67264582Y-77490207D01*
X67206983Y-77603248D01*
X67206983Y-77603249D01*
X67187139Y-77728546D01*
X67187139Y-77728553D01*
X65232223Y-77728553D01*
X64703755Y-77474057D01*
X64701528Y-77472957D01*
X64660476Y-77452145D01*
X64615437Y-77429312D01*
X64613194Y-77428146D01*
X63834115Y-77012997D01*
X63831896Y-77011785D01*
X63747614Y-76964642D01*
X63745418Y-76963384D01*
X62983967Y-76516828D01*
X62981798Y-76515526D01*
X62899523Y-76464992D01*
X62897382Y-76463646D01*
X62154784Y-75986408D01*
X62152703Y-75985041D01*
X62072555Y-75931192D01*
X62070473Y-75929762D01*
X61347925Y-75422607D01*
X61345871Y-75421133D01*
X61267975Y-75364052D01*
X61265949Y-75362536D01*
X60564702Y-74826341D01*
X60562708Y-74824784D01*
X60487260Y-74764616D01*
X60485299Y-74763019D01*
X59806499Y-74198663D01*
X59804570Y-74197026D01*
X59731586Y-74133785D01*
X59729692Y-74132109D01*
X59074451Y-73540512D01*
X59072660Y-73538861D01*
X59034158Y-73502646D01*
X59002336Y-73472714D01*
X59000512Y-73470963D01*
X58369929Y-72853115D01*
X58368140Y-72851326D01*
X58300657Y-72782452D01*
X58298905Y-72780628D01*
X57751558Y-72198715D01*
X57693973Y-72137493D01*
X57692306Y-72135683D01*
X57627648Y-72064067D01*
X57625973Y-72062174D01*
X57377138Y-71775004D01*
X57047806Y-71394935D01*
X57046286Y-71393143D01*
X56984477Y-71318800D01*
X56982987Y-71316972D01*
X56432526Y-70626716D01*
X56430974Y-70624727D01*
X56420079Y-70610479D01*
X56372319Y-70548017D01*
X56370879Y-70546094D01*
X55849025Y-69833951D01*
X55847560Y-69831908D01*
X55792111Y-69752909D01*
X55790679Y-69750824D01*
X55298373Y-69018088D01*
X55296984Y-69015975D01*
X55287250Y-69000829D01*
X55244768Y-68934726D01*
X55243511Y-68932724D01*
X54781412Y-68180371D01*
X54780124Y-68178224D01*
X54731317Y-68094999D01*
X54730060Y-68092805D01*
X54672085Y-67989159D01*
X54299070Y-67322298D01*
X54297940Y-67320229D01*
X54252467Y-67234893D01*
X54251344Y-67232733D01*
X53852160Y-66445321D01*
X53851080Y-66443139D01*
X53809107Y-66355981D01*
X53808144Y-66353924D01*
X53441365Y-65550791D01*
X53440384Y-65548586D01*
X53402048Y-65459898D01*
X53401104Y-65457652D01*
X53067364Y-64640164D01*
X53066511Y-64638011D01*
X53031808Y-64547790D01*
X53030992Y-64545602D01*
X52730882Y-63715206D01*
X52730078Y-63712907D01*
X52699134Y-63621493D01*
X52698347Y-63619090D01*
X52670005Y-63529380D01*
X52432362Y-62777156D01*
X52431681Y-62774922D01*
X52404445Y-62682164D01*
X52403832Y-62679997D01*
X52172377Y-61827795D01*
X52171795Y-61825561D01*
X52148362Y-61731757D01*
X52147807Y-61729434D01*
X51951353Y-60868714D01*
X51950821Y-60866267D01*
X51931264Y-60771732D01*
X51930777Y-60769250D01*
X51769589Y-59901205D01*
X51769184Y-59898893D01*
X51753484Y-59803545D01*
X51753120Y-59801187D01*
X51627457Y-58927187D01*
X51627152Y-58924894D01*
X51615336Y-58828843D01*
X51615093Y-58826692D01*
X51525159Y-57948034D01*
X51524970Y-57945987D01*
X51517078Y-57849485D01*
X51516914Y-57847186D01*
X51462905Y-56965788D01*
X51462789Y-56963508D01*
X51460219Y-56900549D01*
X51846987Y-56900549D01*
X51867468Y-57043005D01*
X51885870Y-57083299D01*
X51927257Y-57173922D01*
X52021506Y-57282692D01*
X52142581Y-57360502D01*
X52142584Y-57360503D01*
X52142583Y-57360503D01*
X52249741Y-57391966D01*
X52253127Y-57392961D01*
X52280670Y-57401048D01*
X52280672Y-57401049D01*
X52280673Y-57401049D01*
X52424595Y-57401049D01*
X52558723Y-57361666D01*
X52628592Y-57361666D01*
X52681336Y-57392960D01*
X53186146Y-57897765D01*
X53968952Y-58680565D01*
X54002437Y-58741888D01*
X53999659Y-58797470D01*
X54000509Y-58797605D01*
X53999258Y-58805500D01*
X53999206Y-58806552D01*
X53998983Y-58807237D01*
X53979137Y-58932544D01*
X53979137Y-58932550D01*
X53998981Y-59057847D01*
X53998981Y-59057848D01*
X53998983Y-59057851D01*
X54056579Y-59170889D01*
X54056581Y-59170891D01*
X54056583Y-59170894D01*
X54146281Y-59260592D01*
X54146283Y-59260593D01*
X54146287Y-59260597D01*
X54259325Y-59318193D01*
X54259326Y-59318193D01*
X54259328Y-59318194D01*
X54384626Y-59338039D01*
X54384629Y-59338039D01*
X54384632Y-59338039D01*
X54509929Y-59318194D01*
X54509930Y-59318194D01*
X54509931Y-59318193D01*
X54509933Y-59318193D01*
X54622971Y-59260597D01*
X54712679Y-59170889D01*
X54770275Y-59057851D01*
X54770275Y-59057849D01*
X54770276Y-59057848D01*
X54770276Y-59057847D01*
X54790121Y-58932550D01*
X54790121Y-58932543D01*
X54770276Y-58807246D01*
X54770276Y-58807245D01*
X54765295Y-58797470D01*
X54712679Y-58694205D01*
X54712675Y-58694201D01*
X54712674Y-58694199D01*
X54622976Y-58604501D01*
X54622973Y-58604499D01*
X54622971Y-58604497D01*
X54509933Y-58546901D01*
X54509932Y-58546900D01*
X54509929Y-58546899D01*
X54384632Y-58527055D01*
X54377338Y-58527055D01*
X54310299Y-58507370D01*
X54289657Y-58490737D01*
X52882206Y-57083299D01*
X52848721Y-57021976D01*
X52847149Y-56977972D01*
X52858281Y-56900549D01*
X52837799Y-56758092D01*
X52778011Y-56627176D01*
X52683762Y-56518406D01*
X52562687Y-56440596D01*
X52562685Y-56440595D01*
X52562683Y-56440594D01*
X52562684Y-56440594D01*
X52424597Y-56400049D01*
X52424595Y-56400049D01*
X52280673Y-56400049D01*
X52280670Y-56400049D01*
X52142583Y-56440594D01*
X52021507Y-56518405D01*
X51927257Y-56627175D01*
X51927256Y-56627177D01*
X51867468Y-56758092D01*
X51846987Y-56900549D01*
X51460219Y-56900549D01*
X51458845Y-56866895D01*
X51458773Y-56864550D01*
X51440764Y-55981844D01*
X51440738Y-55979315D01*
X51440738Y-55936575D01*
X59004094Y-55936575D01*
X59004444Y-55940231D01*
X59023574Y-56719421D01*
X59023396Y-56723093D01*
X59023612Y-56726127D01*
X59023877Y-56731510D01*
X59023972Y-56734972D01*
X59024531Y-56738663D01*
X59081864Y-57515939D01*
X59081887Y-57519597D01*
X59082140Y-57521654D01*
X59082729Y-57527628D01*
X59082903Y-57529988D01*
X59083617Y-57533640D01*
X59179077Y-58307575D01*
X59179270Y-58311265D01*
X59179700Y-58313758D01*
X59180551Y-58319498D01*
X59180898Y-58322287D01*
X59181805Y-58325916D01*
X59287062Y-58932550D01*
X59314920Y-59093109D01*
X59315041Y-59093803D01*
X59315411Y-59097470D01*
X59315982Y-59100030D01*
X59317102Y-59105664D01*
X59318281Y-59112408D01*
X59319707Y-59117581D01*
X59319939Y-59118919D01*
X59319941Y-59118932D01*
X59494695Y-59897129D01*
X59494698Y-59897141D01*
X59707421Y-60665839D01*
X59707426Y-60665854D01*
X59957620Y-61423172D01*
X59957626Y-61423188D01*
X60244652Y-62167284D01*
X60244675Y-62167341D01*
X60567873Y-62896481D01*
X60567877Y-62896489D01*
X60926474Y-63608888D01*
X60926487Y-63608913D01*
X61319610Y-64302871D01*
X61319630Y-64302905D01*
X61746328Y-64976740D01*
X61746332Y-64976746D01*
X62205573Y-65628816D01*
X62205576Y-65628821D01*
X62696294Y-66257616D01*
X63217242Y-66861541D01*
X63217249Y-66861548D01*
X63217251Y-66861550D01*
X63767220Y-67439204D01*
X64344877Y-67989168D01*
X64467564Y-68094999D01*
X64948822Y-68510138D01*
X65577576Y-69000829D01*
X65577575Y-69000829D01*
X65577585Y-69000836D01*
X65577594Y-69000843D01*
X66229680Y-69460092D01*
X66229696Y-69460103D01*
X66816843Y-69831908D01*
X66903536Y-69886805D01*
X67597512Y-70279935D01*
X68309938Y-70638541D01*
X69039103Y-70961759D01*
X69783249Y-71248814D01*
X70540580Y-71498994D01*
X71309273Y-71711725D01*
X71309292Y-71711729D01*
X71309295Y-71711730D01*
X71591077Y-71775004D01*
X72087490Y-71886473D01*
X72536973Y-71964468D01*
X72873303Y-72022829D01*
X72873317Y-72022831D01*
X72873340Y-72022835D01*
X73664934Y-72120467D01*
X74460359Y-72179144D01*
X75257710Y-72198715D01*
X76055056Y-72179142D01*
X76850487Y-72120467D01*
X76850503Y-72120465D01*
X76850504Y-72120465D01*
X77077228Y-72092501D01*
X77642078Y-72022833D01*
X77642101Y-72022828D01*
X77642122Y-72022826D01*
X77965253Y-71966757D01*
X78427928Y-71886477D01*
X79206134Y-71711726D01*
X79492247Y-71632548D01*
X87660989Y-71632548D01*
X87681470Y-71775004D01*
X87741258Y-71905919D01*
X87741259Y-71905921D01*
X87835508Y-72014691D01*
X87956583Y-72092501D01*
X87956586Y-72092502D01*
X87956585Y-72092502D01*
X88094672Y-72133047D01*
X88094674Y-72133048D01*
X88232190Y-72133048D01*
X88299229Y-72152733D01*
X88333765Y-72185924D01*
X89450172Y-73780309D01*
X89472499Y-73846514D01*
X89461391Y-73902943D01*
X89445578Y-73937566D01*
X89445576Y-73937573D01*
X89425095Y-74080030D01*
X89445576Y-74222486D01*
X89505364Y-74353401D01*
X89505365Y-74353403D01*
X89599614Y-74462173D01*
X89720689Y-74539983D01*
X89720692Y-74539984D01*
X89720691Y-74539984D01*
X89858778Y-74580529D01*
X89858780Y-74580530D01*
X89858781Y-74580530D01*
X90002704Y-74580530D01*
X90002704Y-74580529D01*
X90140795Y-74539983D01*
X90261870Y-74462173D01*
X90356119Y-74353403D01*
X90415907Y-74222487D01*
X90436389Y-74080030D01*
X90415907Y-73937573D01*
X90356119Y-73806657D01*
X90261870Y-73697887D01*
X90140795Y-73620077D01*
X90140793Y-73620076D01*
X90140791Y-73620075D01*
X90140792Y-73620075D01*
X90002705Y-73579530D01*
X90002703Y-73579530D01*
X89858781Y-73579530D01*
X89858776Y-73579530D01*
X89854217Y-73580869D01*
X89784347Y-73580865D01*
X89725571Y-73543087D01*
X89717714Y-73533014D01*
X88739287Y-72135683D01*
X88627328Y-71975791D01*
X88605002Y-71909586D01*
X88616110Y-71853156D01*
X88651801Y-71775004D01*
X88660899Y-71711723D01*
X88672283Y-71632548D01*
X88651801Y-71490091D01*
X88592013Y-71359175D01*
X88497764Y-71250405D01*
X88376689Y-71172595D01*
X88376687Y-71172594D01*
X88376685Y-71172593D01*
X88376686Y-71172593D01*
X88238599Y-71132048D01*
X88238597Y-71132048D01*
X88094675Y-71132048D01*
X88094672Y-71132048D01*
X87956585Y-71172593D01*
X87835509Y-71250404D01*
X87741259Y-71359174D01*
X87741258Y-71359176D01*
X87681470Y-71490091D01*
X87660989Y-71632548D01*
X79492247Y-71632548D01*
X79974833Y-71498999D01*
X80732168Y-71248813D01*
X81476312Y-70961755D01*
X82205481Y-70638544D01*
X82917901Y-70279931D01*
X83611877Y-69886805D01*
X84285725Y-69460094D01*
X84937819Y-69000840D01*
X85566598Y-68510139D01*
X86170542Y-67989170D01*
X86748192Y-67439197D01*
X87298162Y-66861548D01*
X87819127Y-66257606D01*
X88309825Y-65628833D01*
X88309825Y-65628832D01*
X88310763Y-65627631D01*
X88310885Y-65627726D01*
X88319380Y-65618104D01*
X88320589Y-65616291D01*
X88322354Y-65613714D01*
X88774640Y-64971525D01*
X88777149Y-64968482D01*
X88778464Y-64966396D01*
X88782192Y-64960818D01*
X88783572Y-64958868D01*
X88785431Y-64955380D01*
X88986402Y-64638011D01*
X89201828Y-64297812D01*
X89204235Y-64294595D01*
X89205483Y-64292376D01*
X89209045Y-64286436D01*
X89210216Y-64284600D01*
X89211903Y-64281025D01*
X89595554Y-63603780D01*
X89597793Y-63600460D01*
X89598985Y-63598078D01*
X89602186Y-63592089D01*
X89603501Y-63589783D01*
X89605018Y-63586072D01*
X89954630Y-62891526D01*
X89956779Y-62887998D01*
X89957859Y-62885534D01*
X89960898Y-62879106D01*
X89962012Y-62876914D01*
X89963370Y-62873064D01*
X90006873Y-62774922D01*
X90278558Y-62162002D01*
X90280499Y-62158416D01*
X90281396Y-62156063D01*
X90284119Y-62149489D01*
X90285144Y-62147201D01*
X90286310Y-62143286D01*
X90566302Y-61417445D01*
X90568008Y-61413868D01*
X90568812Y-61411415D01*
X90571057Y-61405139D01*
X90571868Y-61403048D01*
X90572819Y-61399261D01*
X90764448Y-60819202D01*
X90817097Y-60659830D01*
X90818622Y-60656174D01*
X90819282Y-60653768D01*
X90821234Y-60647335D01*
X90821957Y-60645164D01*
X90822720Y-60641314D01*
X91030278Y-59891274D01*
X91031652Y-59887504D01*
X91032272Y-59884715D01*
X91033893Y-59878247D01*
X91034541Y-59875926D01*
X91035113Y-59872030D01*
X91205664Y-59112536D01*
X91206829Y-59108744D01*
X91207273Y-59106150D01*
X91208582Y-59099575D01*
X91209151Y-59097067D01*
X91209529Y-59093109D01*
X91237389Y-58932550D01*
X91342609Y-58326160D01*
X91343553Y-58322417D01*
X91343879Y-58319762D01*
X91344805Y-58313519D01*
X91345287Y-58310755D01*
X91345467Y-58306864D01*
X91440762Y-57534229D01*
X91441542Y-57530331D01*
X91441699Y-57528112D01*
X91442384Y-57521175D01*
X91442634Y-57519201D01*
X91442636Y-57515262D01*
X91499900Y-56738936D01*
X91500501Y-56735028D01*
X91500571Y-56732044D01*
X91500887Y-56725622D01*
X91501104Y-56722734D01*
X91500892Y-56718794D01*
X91519989Y-55940876D01*
X91520386Y-55936953D01*
X91520318Y-55934392D01*
X91520318Y-55927763D01*
X91520379Y-55925453D01*
X91519997Y-55921579D01*
X91500898Y-55143634D01*
X91501120Y-55139661D01*
X91500884Y-55136503D01*
X91500571Y-55130122D01*
X91500508Y-55127415D01*
X91499924Y-55123549D01*
X91442653Y-54347135D01*
X91442658Y-54343177D01*
X91442373Y-54340921D01*
X91441701Y-54334101D01*
X91441560Y-54332106D01*
X91440802Y-54328267D01*
X91395921Y-53964371D01*
X91345484Y-53555432D01*
X91345306Y-53551473D01*
X91344836Y-53548796D01*
X91343864Y-53542240D01*
X91343572Y-53539835D01*
X91342615Y-53536033D01*
X91209552Y-52769195D01*
X91209179Y-52765223D01*
X91208579Y-52762581D01*
X91207271Y-52756010D01*
X91206888Y-52753772D01*
X91205755Y-52750036D01*
X91035143Y-51990267D01*
X91034581Y-51986404D01*
X91033861Y-51983817D01*
X91032294Y-51977558D01*
X91031720Y-51974987D01*
X91030395Y-51971308D01*
X90822730Y-51220883D01*
X90821975Y-51217069D01*
X90821190Y-51214703D01*
X90819311Y-51208508D01*
X90818604Y-51205939D01*
X90817090Y-51202309D01*
X90710757Y-50880431D01*
X90572846Y-50462963D01*
X90571903Y-50459194D01*
X90571045Y-50456981D01*
X90568836Y-50450806D01*
X90568082Y-50448511D01*
X90566408Y-50444978D01*
X90286344Y-49718953D01*
X90285223Y-49715175D01*
X90283930Y-49712262D01*
X90281542Y-49706496D01*
X90280569Y-49703968D01*
X90278737Y-49700555D01*
X89963371Y-48989096D01*
X89962065Y-48985391D01*
X89960711Y-48982706D01*
X89958018Y-48977011D01*
X89956890Y-48974461D01*
X89954874Y-48971116D01*
X89852094Y-48766931D01*
X89605084Y-48276213D01*
X89603595Y-48272560D01*
X89602048Y-48269832D01*
X89599093Y-48264303D01*
X89598139Y-48262404D01*
X89596069Y-48259281D01*
X89310976Y-47756016D01*
X89212045Y-47581376D01*
X89210425Y-47577925D01*
X89208752Y-47575277D01*
X89205748Y-47570266D01*
X89204282Y-47567684D01*
X89202024Y-47564647D01*
X88984964Y-47221872D01*
X88785551Y-46906963D01*
X88783722Y-46903516D01*
X88782064Y-46901164D01*
X88778582Y-46895953D01*
X88777512Y-46894260D01*
X88775158Y-46891363D01*
X88322385Y-46248484D01*
X88320550Y-46245803D01*
X88319907Y-46244837D01*
X88319747Y-46244997D01*
X88302302Y-46227522D01*
X88301999Y-46227397D01*
X88301996Y-46227396D01*
X88296197Y-46224991D01*
X88245945Y-46186739D01*
X87819137Y-45639830D01*
X87808964Y-45628037D01*
X87298165Y-45035880D01*
X86748191Y-44458233D01*
X86170536Y-43908263D01*
X85566593Y-43387295D01*
X85019678Y-42960478D01*
X84981378Y-42910109D01*
X84979377Y-42905269D01*
X84979026Y-42904420D01*
X84979025Y-42904419D01*
X84978902Y-42904121D01*
X84978901Y-42904120D01*
X84978901Y-42904119D01*
X84961798Y-42886987D01*
X84961180Y-42886574D01*
X84949233Y-42874627D01*
X84947211Y-42872556D01*
X84944819Y-42870913D01*
X84329178Y-42437329D01*
X84302122Y-42418274D01*
X84299244Y-42415927D01*
X84297237Y-42414655D01*
X84292242Y-42411317D01*
X84290144Y-42409840D01*
X84286819Y-42408056D01*
X83814982Y-42109273D01*
X83628638Y-41991273D01*
X83625565Y-41988989D01*
X83623131Y-41987610D01*
X83617924Y-41984489D01*
X83616129Y-41983352D01*
X83612796Y-41981755D01*
X82934140Y-41597294D01*
X82931060Y-41595249D01*
X82928824Y-41594121D01*
X82923656Y-41591358D01*
X82921160Y-41589946D01*
X82917653Y-41588496D01*
X82593900Y-41425533D01*
X82222273Y-41238472D01*
X82219001Y-41236496D01*
X82216081Y-41235198D01*
X82210806Y-41232702D01*
X82208387Y-41231487D01*
X82204860Y-41230221D01*
X81492751Y-40914565D01*
X81489386Y-40912760D01*
X81486711Y-40911727D01*
X81481150Y-40909423D01*
X81478713Y-40908343D01*
X81475084Y-40907241D01*
X80748153Y-40626833D01*
X80744739Y-40625221D01*
X80742262Y-40624403D01*
X80736580Y-40622370D01*
X80734644Y-40621623D01*
X80731085Y-40620709D01*
X79990471Y-40376046D01*
X79987030Y-40374628D01*
X79984448Y-40373910D01*
X79978907Y-40372229D01*
X79976713Y-40371506D01*
X79973130Y-40370775D01*
X79221906Y-40162880D01*
X79218368Y-40161608D01*
X79215405Y-40160939D01*
X79209829Y-40159542D01*
X79207458Y-40158889D01*
X79203842Y-40158337D01*
X78443132Y-39987512D01*
X78439565Y-39986434D01*
X78436813Y-39985953D01*
X78431179Y-39984833D01*
X78428619Y-39984261D01*
X78424953Y-39983892D01*
X77657059Y-39850654D01*
X77653430Y-39849747D01*
X77650643Y-39849400D01*
X77644903Y-39848549D01*
X77642410Y-39848119D01*
X77638720Y-39847926D01*
X76864787Y-39752466D01*
X76861135Y-39751752D01*
X76858775Y-39751578D01*
X76852801Y-39750989D01*
X76850744Y-39750736D01*
X76847086Y-39750713D01*
X76069472Y-39693360D01*
X76065823Y-39692817D01*
X76062662Y-39692731D01*
X76057271Y-39692466D01*
X76054239Y-39692250D01*
X76050569Y-39692428D01*
X75271382Y-39673299D01*
X75267726Y-39672949D01*
X75265047Y-39673010D01*
X75259388Y-39673009D01*
X75256984Y-39672953D01*
X75253366Y-39673292D01*
X74474139Y-39692419D01*
X74470431Y-39692232D01*
X74467183Y-39692463D01*
X74461786Y-39692729D01*
X74458918Y-39692807D01*
X74455321Y-39693332D01*
X73677584Y-39750704D01*
X73673909Y-39750720D01*
X73671594Y-39751004D01*
X73665728Y-39751581D01*
X73663590Y-39751740D01*
X73659996Y-39752432D01*
X72885915Y-39847900D01*
X72882221Y-39848087D01*
X72879482Y-39848558D01*
X72873868Y-39849391D01*
X72871325Y-39849708D01*
X72867775Y-39850584D01*
X72099664Y-39983864D01*
X72096002Y-39984229D01*
X72093162Y-39984860D01*
X72087733Y-39985939D01*
X72085202Y-39986383D01*
X72081719Y-39987423D01*
X71320731Y-40158311D01*
X71317136Y-40158855D01*
X71314513Y-40159575D01*
X71309188Y-40160908D01*
X71306427Y-40161534D01*
X71302968Y-40162763D01*
X70551359Y-40370761D01*
X70547811Y-40371484D01*
X70545406Y-40372273D01*
X70540108Y-40373880D01*
X70537365Y-40374645D01*
X70533962Y-40376048D01*
X69793439Y-40620680D01*
X69789997Y-40621562D01*
X69787599Y-40622479D01*
X69782537Y-40624289D01*
X69779904Y-40625166D01*
X69776623Y-40626704D01*
X69049406Y-40907225D01*
X69045899Y-40908289D01*
X69043029Y-40909551D01*
X69038085Y-40911599D01*
X69035331Y-40912670D01*
X69032109Y-40914383D01*
X68319580Y-41230222D01*
X68316139Y-41231457D01*
X68313463Y-41232796D01*
X68308554Y-41235117D01*
X68305810Y-41236341D01*
X68302657Y-41238227D01*
X67606579Y-41588609D01*
X67603192Y-41590017D01*
X67600625Y-41591464D01*
X67595805Y-41594040D01*
X67593408Y-41595254D01*
X67590395Y-41597251D01*
X66911562Y-41981808D01*
X66908326Y-41983361D01*
X66906303Y-41984637D01*
X66901522Y-41987502D01*
X66899230Y-41988806D01*
X66896284Y-41990975D01*
X66237333Y-42408244D01*
X66234091Y-42409994D01*
X66232168Y-42411347D01*
X66227280Y-42414613D01*
X66225321Y-42415855D01*
X66222469Y-42418174D01*
X65588687Y-42864533D01*
X65580785Y-42868888D01*
X65575148Y-42874518D01*
X65571353Y-42881826D01*
X65563521Y-42894246D01*
X65560974Y-42892640D01*
X65549200Y-42916601D01*
X65534115Y-42930530D01*
X64948798Y-43387304D01*
X64344875Y-43908261D01*
X63767237Y-44458215D01*
X63767208Y-44458243D01*
X63217249Y-45035881D01*
X62696287Y-45639825D01*
X62255410Y-46204754D01*
X62223911Y-46233280D01*
X62213111Y-46240107D01*
X62205736Y-46243934D01*
X62200043Y-46249626D01*
X62195679Y-46257543D01*
X61749062Y-46891687D01*
X61746849Y-46894429D01*
X61745655Y-46896305D01*
X61742621Y-46900844D01*
X61740995Y-46903163D01*
X61739259Y-46906393D01*
X61322222Y-47564972D01*
X61320091Y-47567856D01*
X61318509Y-47570623D01*
X61315931Y-47574926D01*
X61314287Y-47577547D01*
X61312758Y-47580756D01*
X60928103Y-48259771D01*
X60926136Y-48262770D01*
X60925276Y-48264476D01*
X60922510Y-48269652D01*
X60921173Y-48272015D01*
X60919733Y-48275483D01*
X60569376Y-48971511D01*
X60567490Y-48974664D01*
X60566266Y-48977408D01*
X60563945Y-48982317D01*
X60562606Y-48984993D01*
X60561371Y-48988434D01*
X60245532Y-49700964D01*
X60243817Y-49704188D01*
X60242747Y-49706940D01*
X60240699Y-49711884D01*
X60239436Y-49714756D01*
X60238373Y-49718259D01*
X59957848Y-50445473D01*
X59956313Y-50448749D01*
X59955435Y-50451384D01*
X59953625Y-50456446D01*
X59952708Y-50458844D01*
X59951826Y-50462286D01*
X59707196Y-51202810D01*
X59705793Y-51206213D01*
X59705028Y-51208956D01*
X59703421Y-51214254D01*
X59702632Y-51216659D01*
X59701909Y-51220208D01*
X59493912Y-51971824D01*
X59492683Y-51975284D01*
X59492057Y-51978043D01*
X59490724Y-51983368D01*
X59490004Y-51985991D01*
X59489460Y-51989586D01*
X59318572Y-52750572D01*
X59317532Y-52754055D01*
X59317088Y-52756586D01*
X59316009Y-52762015D01*
X59315378Y-52764855D01*
X59315013Y-52768517D01*
X59181734Y-53536622D01*
X59180858Y-53540172D01*
X59180541Y-53542715D01*
X59179708Y-53548329D01*
X59179237Y-53551068D01*
X59179050Y-53554763D01*
X59083621Y-54328502D01*
X59082913Y-54332122D01*
X59082724Y-54334651D01*
X59082159Y-54340393D01*
X59081864Y-54342805D01*
X59081849Y-54346456D01*
X59024478Y-55124161D01*
X59023955Y-55127747D01*
X59023876Y-55130627D01*
X59023613Y-55135986D01*
X59023378Y-55139299D01*
X59023565Y-55142995D01*
X59004437Y-55922214D01*
X59004098Y-55925835D01*
X59004154Y-55928237D01*
X59004155Y-55933896D01*
X59004094Y-55936575D01*
X51440738Y-55936575D01*
X51440738Y-55882819D01*
X51440764Y-55880290D01*
X51458773Y-54997580D01*
X51458845Y-54995246D01*
X51462789Y-54898617D01*
X51462904Y-54896360D01*
X51516915Y-54014935D01*
X51517077Y-54012664D01*
X51524972Y-53916130D01*
X51525157Y-53914116D01*
X51615096Y-53035419D01*
X51615333Y-53033315D01*
X51627155Y-52937215D01*
X51627453Y-52934975D01*
X51753124Y-52060918D01*
X51753479Y-52058620D01*
X51769190Y-51963208D01*
X51769583Y-51960962D01*
X51930790Y-51092813D01*
X51931250Y-51090471D01*
X51950839Y-50995782D01*
X51951344Y-50993464D01*
X52147817Y-50132655D01*
X52148351Y-50130422D01*
X52171807Y-50036525D01*
X52172363Y-50034391D01*
X52403847Y-49182084D01*
X52404430Y-49180022D01*
X52431698Y-49087158D01*
X52432345Y-49085031D01*
X52698361Y-48242998D01*
X52699118Y-48240688D01*
X52730099Y-48149165D01*
X52730859Y-48146991D01*
X53011534Y-47370372D01*
X57986466Y-47370372D01*
X58006310Y-47495669D01*
X58006310Y-47495670D01*
X58008204Y-47499387D01*
X58063908Y-47608711D01*
X58063910Y-47608713D01*
X58063912Y-47608716D01*
X58153610Y-47698414D01*
X58153612Y-47698415D01*
X58153616Y-47698419D01*
X58266654Y-47756015D01*
X58266655Y-47756015D01*
X58266657Y-47756016D01*
X58391955Y-47775861D01*
X58391958Y-47775861D01*
X58391961Y-47775861D01*
X58517258Y-47756016D01*
X58517259Y-47756016D01*
X58517260Y-47756015D01*
X58517262Y-47756015D01*
X58630300Y-47698419D01*
X58693823Y-47634895D01*
X58755144Y-47601412D01*
X58759964Y-47600463D01*
X59333801Y-47499286D01*
X59375686Y-47502222D01*
X59376136Y-47499387D01*
X59511078Y-47520759D01*
X59511081Y-47520759D01*
X59511084Y-47520759D01*
X59636381Y-47500914D01*
X59636382Y-47500914D01*
X59636383Y-47500913D01*
X59636385Y-47500913D01*
X59749423Y-47443317D01*
X59839131Y-47353609D01*
X59896727Y-47240571D01*
X59896727Y-47240569D01*
X59896728Y-47240568D01*
X59896728Y-47240567D01*
X59916573Y-47115270D01*
X59916573Y-47105508D01*
X59919146Y-47105508D01*
X59926246Y-47050541D01*
X59940466Y-47026165D01*
X60482402Y-46301509D01*
X60538312Y-46259614D01*
X60562306Y-46253301D01*
X60570369Y-46252025D01*
X60683407Y-46194429D01*
X60773115Y-46104721D01*
X60830711Y-45991683D01*
X60830711Y-45991681D01*
X60830712Y-45991680D01*
X60830712Y-45991679D01*
X60850557Y-45866382D01*
X60850557Y-45866375D01*
X60830712Y-45741078D01*
X60830712Y-45741077D01*
X60830711Y-45741075D01*
X60773115Y-45628037D01*
X60773111Y-45628033D01*
X60773110Y-45628031D01*
X60683412Y-45538333D01*
X60683409Y-45538331D01*
X60683407Y-45538329D01*
X60570369Y-45480733D01*
X60570368Y-45480732D01*
X60570365Y-45480731D01*
X60445068Y-45460887D01*
X60445062Y-45460887D01*
X60319764Y-45480731D01*
X60319763Y-45480731D01*
X60269728Y-45506226D01*
X60206723Y-45538329D01*
X60206722Y-45538330D01*
X60206717Y-45538333D01*
X60117019Y-45628031D01*
X60117016Y-45628036D01*
X60117015Y-45628037D01*
X60111010Y-45639823D01*
X60059417Y-45741077D01*
X60059417Y-45741078D01*
X60039573Y-45866375D01*
X60039573Y-45876136D01*
X60037002Y-45876136D01*
X60029891Y-45931120D01*
X60015679Y-45955478D01*
X59473745Y-46680133D01*
X59417832Y-46722031D01*
X59393842Y-46728343D01*
X59385779Y-46729620D01*
X59385777Y-46729620D01*
X59385777Y-46729621D01*
X59272739Y-46787217D01*
X59272738Y-46787218D01*
X59272733Y-46787221D01*
X59183031Y-46876924D01*
X59183030Y-46876924D01*
X59178076Y-46886648D01*
X59130101Y-46937442D01*
X59089124Y-46952466D01*
X58658102Y-47028461D01*
X58588663Y-47020716D01*
X58580277Y-47016830D01*
X58517258Y-46984721D01*
X58517259Y-46984721D01*
X58391961Y-46964877D01*
X58391955Y-46964877D01*
X58266657Y-46984721D01*
X58266656Y-46984721D01*
X58196014Y-47020716D01*
X58153616Y-47042319D01*
X58153615Y-47042320D01*
X58153610Y-47042323D01*
X58063912Y-47132021D01*
X58063909Y-47132026D01*
X58006310Y-47245067D01*
X58006310Y-47245068D01*
X57986466Y-47370365D01*
X57986466Y-47370372D01*
X53011534Y-47370372D01*
X53031017Y-47316463D01*
X53031783Y-47314409D01*
X53066537Y-47224056D01*
X53067335Y-47222041D01*
X53401133Y-46404411D01*
X53402018Y-46402307D01*
X53440414Y-46313478D01*
X53441327Y-46311425D01*
X53808180Y-45508131D01*
X53809073Y-45506226D01*
X53851117Y-45418921D01*
X53852119Y-45416895D01*
X54251388Y-44629317D01*
X54252425Y-44627321D01*
X54297984Y-44541824D01*
X54299022Y-44539923D01*
X54730102Y-43769254D01*
X54731317Y-43767135D01*
X54780165Y-43683841D01*
X54781359Y-43681850D01*
X55243567Y-42929320D01*
X55244712Y-42927497D01*
X55297051Y-42846056D01*
X55298300Y-42844156D01*
X55790746Y-42111212D01*
X55792077Y-42109273D01*
X55847604Y-42030163D01*
X55848956Y-42028278D01*
X56370951Y-41315943D01*
X56372247Y-41314212D01*
X56431040Y-41237321D01*
X56432449Y-41235516D01*
X56983071Y-40545059D01*
X56984397Y-40543430D01*
X57046368Y-40468893D01*
X57047721Y-40467299D01*
X57626017Y-39799909D01*
X57627648Y-39798067D01*
X57692403Y-39726345D01*
X57693882Y-39724739D01*
X58299013Y-39081392D01*
X58300546Y-39079796D01*
X58368253Y-39010694D01*
X58369812Y-39009135D01*
X59000587Y-38391098D01*
X59002262Y-38389490D01*
X59072765Y-38323175D01*
X59074339Y-38321725D01*
X59729821Y-37729910D01*
X59731463Y-37728457D01*
X59804697Y-37664999D01*
X59806364Y-37663585D01*
X60485378Y-37099050D01*
X60487136Y-37097618D01*
X60562846Y-37037241D01*
X60564607Y-37035866D01*
X61266074Y-36499504D01*
X61267895Y-36498141D01*
X61345899Y-36440980D01*
X61347849Y-36439581D01*
X61370697Y-36423544D01*
X70130530Y-36423544D01*
X71076561Y-36423544D01*
X71044011Y-36474193D01*
X71005530Y-36605249D01*
X71005530Y-36741839D01*
X71044011Y-36872895D01*
X71076561Y-36923544D01*
X70130531Y-36923544D01*
X70130531Y-37448530D01*
X70141024Y-37551241D01*
X70196171Y-37717663D01*
X70196173Y-37717668D01*
X70288214Y-37866889D01*
X70412184Y-37990859D01*
X70561405Y-38082900D01*
X70561410Y-38082902D01*
X70727832Y-38138049D01*
X70727839Y-38138050D01*
X70830549Y-38148543D01*
X71230529Y-38148543D01*
X71230530Y-38148542D01*
X71230530Y-37081562D01*
X71345331Y-37133990D01*
X71446555Y-37148544D01*
X71514505Y-37148544D01*
X71615729Y-37133990D01*
X71730530Y-37081562D01*
X71730530Y-38148543D01*
X72130502Y-38148543D01*
X72130516Y-38148542D01*
X72233227Y-38138049D01*
X72399649Y-38082902D01*
X72399654Y-38082900D01*
X72548875Y-37990859D01*
X72672845Y-37866889D01*
X72764886Y-37717668D01*
X72764888Y-37717663D01*
X72820035Y-37551241D01*
X72820036Y-37551234D01*
X72830529Y-37448530D01*
X72830529Y-37117732D01*
X72850213Y-37050693D01*
X72903017Y-37004938D01*
X72972176Y-36994994D01*
X73035731Y-37024019D01*
X73072842Y-37080610D01*
X73102553Y-37175306D01*
X73102559Y-37175318D01*
X73196369Y-37344332D01*
X73196372Y-37344337D01*
X73322288Y-37491010D01*
X73322289Y-37491012D01*
X73475154Y-37609338D01*
X73475157Y-37609340D01*
X73648714Y-37694474D01*
X73648718Y-37694475D01*
X73648716Y-37694475D01*
X73835847Y-37742927D01*
X73835850Y-37742927D01*
X73835856Y-37742929D01*
X74028920Y-37752720D01*
X74220004Y-37723447D01*
X74401283Y-37656308D01*
X74565337Y-37554053D01*
X74705449Y-37420867D01*
X74815883Y-37262202D01*
X74892117Y-37084556D01*
X74931030Y-36895200D01*
X74931030Y-36846751D01*
X75530030Y-36846751D01*
X75544684Y-36990866D01*
X75602552Y-37175303D01*
X75602559Y-37175318D01*
X75696369Y-37344332D01*
X75696372Y-37344337D01*
X75822288Y-37491010D01*
X75822289Y-37491012D01*
X75975154Y-37609338D01*
X75975157Y-37609340D01*
X76148714Y-37694474D01*
X76148718Y-37694475D01*
X76148716Y-37694475D01*
X76335847Y-37742927D01*
X76335850Y-37742927D01*
X76335856Y-37742929D01*
X76528920Y-37752720D01*
X76720004Y-37723447D01*
X76901283Y-37656308D01*
X77065337Y-37554053D01*
X77205449Y-37420867D01*
X77315883Y-37262202D01*
X77392117Y-37084556D01*
X77431030Y-36895200D01*
X77431030Y-36846751D01*
X78030030Y-36846751D01*
X78044684Y-36990866D01*
X78102552Y-37175303D01*
X78102559Y-37175318D01*
X78196369Y-37344332D01*
X78196372Y-37344337D01*
X78322288Y-37491010D01*
X78322289Y-37491012D01*
X78475154Y-37609338D01*
X78475157Y-37609340D01*
X78648714Y-37694474D01*
X78648718Y-37694475D01*
X78648716Y-37694475D01*
X78835847Y-37742927D01*
X78835850Y-37742927D01*
X78835856Y-37742929D01*
X79028920Y-37752720D01*
X79220004Y-37723447D01*
X79401283Y-37656308D01*
X79565337Y-37554053D01*
X79705449Y-37420867D01*
X79815883Y-37262202D01*
X79892117Y-37084556D01*
X79931030Y-36895200D01*
X79931030Y-36500338D01*
X79928372Y-36474193D01*
X79916375Y-36356221D01*
X79858507Y-36171784D01*
X79858505Y-36171780D01*
X79858504Y-36171776D01*
X79764689Y-36002753D01*
X79764688Y-36002752D01*
X79764687Y-36002750D01*
X79638771Y-35856077D01*
X79638770Y-35856075D01*
X79485905Y-35737749D01*
X79485901Y-35737747D01*
X79478926Y-35734325D01*
X79312346Y-35652614D01*
X79312344Y-35652613D01*
X79312341Y-35652612D01*
X79312343Y-35652612D01*
X79125212Y-35604160D01*
X79125206Y-35604159D01*
X78996494Y-35597631D01*
X78932140Y-35594368D01*
X78932139Y-35594368D01*
X78932137Y-35594368D01*
X78741063Y-35623639D01*
X78741051Y-35623642D01*
X78559781Y-35690778D01*
X78559772Y-35690782D01*
X78395726Y-35793032D01*
X78255610Y-35926221D01*
X78145176Y-36084886D01*
X78068943Y-36262531D01*
X78030030Y-36451887D01*
X78030030Y-36846751D01*
X77431030Y-36846751D01*
X77431030Y-36500338D01*
X77428372Y-36474193D01*
X77416375Y-36356221D01*
X77358507Y-36171784D01*
X77358505Y-36171780D01*
X77358504Y-36171776D01*
X77264689Y-36002753D01*
X77264688Y-36002752D01*
X77264687Y-36002750D01*
X77138771Y-35856077D01*
X77138770Y-35856075D01*
X76985905Y-35737749D01*
X76985901Y-35737747D01*
X76978926Y-35734325D01*
X76812346Y-35652614D01*
X76812344Y-35652613D01*
X76812341Y-35652612D01*
X76812343Y-35652612D01*
X76625212Y-35604160D01*
X76625206Y-35604159D01*
X76496494Y-35597631D01*
X76432140Y-35594368D01*
X76432139Y-35594368D01*
X76432137Y-35594368D01*
X76241063Y-35623639D01*
X76241051Y-35623642D01*
X76059781Y-35690778D01*
X76059772Y-35690782D01*
X75895726Y-35793032D01*
X75755610Y-35926221D01*
X75645176Y-36084886D01*
X75568943Y-36262531D01*
X75530030Y-36451887D01*
X75530030Y-36846751D01*
X74931030Y-36846751D01*
X74931030Y-36500338D01*
X74928372Y-36474193D01*
X74916375Y-36356221D01*
X74858507Y-36171784D01*
X74858505Y-36171780D01*
X74858504Y-36171776D01*
X74764689Y-36002753D01*
X74764688Y-36002752D01*
X74764687Y-36002750D01*
X74638771Y-35856077D01*
X74638770Y-35856075D01*
X74485905Y-35737749D01*
X74485901Y-35737747D01*
X74479389Y-35734553D01*
X74312346Y-35652614D01*
X74312343Y-35652613D01*
X74306700Y-35649845D01*
X74307830Y-35647541D01*
X74260877Y-35612533D01*
X74239291Y-35566407D01*
X74238312Y-35562245D01*
X74238312Y-35562241D01*
X74194454Y-35462882D01*
X74118237Y-35386648D01*
X74051232Y-35340739D01*
X74051230Y-35340738D01*
X73945512Y-35315861D01*
X73837942Y-35330855D01*
X73743058Y-35383693D01*
X73743055Y-35383696D01*
X73673664Y-35467240D01*
X73650646Y-35535891D01*
X73641813Y-35562240D01*
X73639138Y-35570217D01*
X73637549Y-35581599D01*
X73636150Y-35581403D01*
X73622517Y-35637216D01*
X73571875Y-35685352D01*
X73561823Y-35689776D01*
X73559772Y-35690782D01*
X73395726Y-35793032D01*
X73255610Y-35926221D01*
X73145176Y-36084886D01*
X73068480Y-36263610D01*
X73023953Y-36317454D01*
X72957384Y-36338677D01*
X72889909Y-36320542D01*
X72842951Y-36268805D01*
X72830529Y-36214710D01*
X72830529Y-35898572D01*
X72830528Y-35898556D01*
X72820035Y-35795846D01*
X72764888Y-35629424D01*
X72764886Y-35629419D01*
X72672845Y-35480198D01*
X72548875Y-35356228D01*
X72399654Y-35264187D01*
X72399649Y-35264185D01*
X72233227Y-35209038D01*
X72233220Y-35209037D01*
X72130516Y-35198544D01*
X71730530Y-35198544D01*
X71730530Y-36265525D01*
X71615729Y-36213098D01*
X71514505Y-36198544D01*
X71446555Y-36198544D01*
X71345331Y-36213098D01*
X71230530Y-36265525D01*
X71230530Y-35198544D01*
X70830558Y-35198544D01*
X70830542Y-35198545D01*
X70727832Y-35209038D01*
X70561410Y-35264185D01*
X70561405Y-35264187D01*
X70412184Y-35356228D01*
X70288214Y-35480198D01*
X70196173Y-35629419D01*
X70196171Y-35629424D01*
X70141024Y-35795846D01*
X70141023Y-35795853D01*
X70130530Y-35898557D01*
X70130530Y-36423544D01*
X61370697Y-36423544D01*
X62070565Y-35932308D01*
X62072422Y-35931033D01*
X62152835Y-35877005D01*
X62154650Y-35875813D01*
X62897465Y-35398435D01*
X62899446Y-35397189D01*
X62981904Y-35346544D01*
X62983860Y-35345369D01*
X63745584Y-34898654D01*
X63747456Y-34897581D01*
X63832001Y-34850291D01*
X63834011Y-34849193D01*
X64613262Y-34433952D01*
X64615330Y-34432877D01*
X64701680Y-34389101D01*
X64703623Y-34388141D01*
X65499223Y-34005001D01*
X65501377Y-34003991D01*
X65589203Y-33963882D01*
X65591387Y-33962910D01*
X66401978Y-33612528D01*
X66404047Y-33611659D01*
X66493646Y-33575080D01*
X66495727Y-33574255D01*
X67319964Y-33257217D01*
X67322079Y-33256429D01*
X67413053Y-33223550D01*
X67415149Y-33222817D01*
X68251609Y-32939669D01*
X68253786Y-32938957D01*
X68346052Y-32909808D01*
X68348226Y-32909146D01*
X69195524Y-32660356D01*
X69197655Y-32659754D01*
X69291117Y-32634370D01*
X69293210Y-32633825D01*
X70150008Y-32419789D01*
X70152171Y-32419272D01*
X70246464Y-32397750D01*
X70248776Y-32397247D01*
X71113498Y-32218355D01*
X71115712Y-32217921D01*
X71210794Y-32200265D01*
X71213175Y-32199848D01*
X72084358Y-32056395D01*
X72086646Y-32056042D01*
X72182381Y-32042278D01*
X72184739Y-32041963D01*
X73061108Y-31934157D01*
X73063327Y-31933907D01*
X73159608Y-31924052D01*
X73161972Y-31923835D01*
X74041934Y-31851871D01*
X74044307Y-31851701D01*
X74140813Y-31845787D01*
X74143102Y-31845670D01*
X75025465Y-31809649D01*
X75027657Y-31809583D01*
X75124319Y-31807611D01*
X75126846Y-31807585D01*
X76009616Y-31807585D01*
X76012143Y-31807611D01*
G37*
%TD.AperFunction*%
%TD*%
M02*
