%TF.GenerationSoftware,KiCad,Pcbnew,7.0.10*%
%TF.CreationDate,2024-04-18T21:21:43-07:00*%
%TF.ProjectId,Thermistor Ring,54686572-6d69-4737-946f-722052696e67,rev?*%
%TF.SameCoordinates,Original*%
%TF.FileFunction,Profile,NP*%
%FSLAX46Y46*%
G04 Gerber Fmt 4.6, Leading zero omitted, Abs format (unit mm)*
G04 Created by KiCad (PCBNEW 7.0.10) date 2024-04-18 21:21:43*
%MOMM*%
%LPD*%
G01*
G04 APERTURE LIST*
%TA.AperFunction,Profile*%
%ADD10C,0.100000*%
%TD*%
G04 APERTURE END LIST*
D10*
X59084003Y-54337668D02*
X59025301Y-55133407D01*
X60925274Y-48267813D02*
X60566517Y-48980528D01*
X90281277Y-49709984D02*
X89957932Y-48980525D01*
X78433713Y-39986935D02*
X77647547Y-39850527D01*
X73668815Y-72109307D02*
X74464563Y-72168001D01*
X76855641Y-72109304D02*
X77647551Y-72011633D01*
X78433708Y-71875219D02*
X79212234Y-71700393D01*
X63350465Y-64532559D02*
X62239440Y-65643579D01*
X65578239Y-68988427D02*
X66230600Y-69447867D01*
X61318557Y-64288587D02*
X61745435Y-64962705D01*
X75262225Y-72187579D02*
X76059896Y-72167999D01*
X91206366Y-59102566D02*
X91342781Y-58316400D01*
X70543210Y-71487585D02*
X71312221Y-71700390D01*
X62204876Y-65615066D02*
X62236416Y-65646605D01*
X85528441Y-45677991D02*
X87190133Y-47339694D01*
X87190133Y-47339694D02*
X88301154Y-46228671D01*
X59025301Y-55133407D02*
X59005721Y-55931079D01*
X74464563Y-72168001D02*
X75262225Y-72187579D01*
X65012157Y-66194262D02*
X66673856Y-67855959D01*
X83866731Y-44016287D02*
X84977754Y-42905269D01*
X59005721Y-55931079D02*
X59025304Y-56728749D01*
X91342781Y-58316400D02*
X91440452Y-57524495D01*
X59705721Y-51212061D02*
X59492910Y-51981072D01*
X72090741Y-39986936D02*
X71312217Y-40161761D01*
X59492910Y-59881082D02*
X59705728Y-60650091D01*
X60566517Y-62881625D02*
X60925267Y-63594340D01*
X88779017Y-46899448D02*
X88319569Y-46247089D01*
X59318084Y-59102564D02*
X59492910Y-59881082D01*
X84293857Y-69447866D02*
X84946217Y-68988425D01*
X91499148Y-55133408D02*
X91440450Y-54337660D01*
X66230600Y-69447867D02*
X66904713Y-69874747D01*
X77647547Y-39850527D02*
X76855643Y-39752850D01*
X89599180Y-48267816D02*
X89205895Y-47573563D01*
X59705728Y-60650091D02*
X59956013Y-61407730D01*
X59956013Y-61407730D02*
X60243174Y-62152171D01*
X91440452Y-57524495D02*
X91499149Y-56728742D01*
X84946217Y-42873732D02*
X84977754Y-42905269D01*
X82212781Y-41235373D02*
X81483324Y-40912027D01*
X75262230Y-39674576D02*
X74464562Y-39694155D01*
X71312217Y-40161761D02*
X70543213Y-40374573D01*
X84946217Y-42873732D02*
X84293856Y-42414288D01*
X91031542Y-59881090D02*
X91206366Y-59102566D01*
X91499149Y-56728742D02*
X91518730Y-55931078D01*
X69785574Y-40624860D02*
X69041133Y-40912025D01*
X91518730Y-55931078D02*
X91499148Y-55133408D01*
X80738879Y-71237294D02*
X81483322Y-70950135D01*
X82212774Y-70626782D02*
X82925482Y-70268032D01*
X73668812Y-39752857D02*
X72876908Y-39850523D01*
X59492910Y-51981072D02*
X59318085Y-52759594D01*
X79212243Y-40161762D02*
X78433713Y-39986935D01*
X85528433Y-66184086D02*
X87190133Y-64522383D01*
X59318085Y-52759594D02*
X59181673Y-53545755D01*
X76855643Y-39752850D02*
X76059897Y-39694158D01*
X60243174Y-62152171D02*
X60566517Y-62881625D01*
X74464562Y-39694155D02*
X73668812Y-39752857D01*
X88319571Y-65615064D02*
X88301191Y-65633443D01*
X79981243Y-40374578D02*
X79212243Y-40161762D01*
X69041133Y-40912025D02*
X68311674Y-41235368D01*
X62204877Y-46247089D02*
X61745434Y-46899448D01*
X81483324Y-40912027D02*
X80738875Y-40624863D01*
X90818734Y-51212066D02*
X90568445Y-50454423D01*
X72876908Y-39850523D02*
X72090741Y-39986936D01*
X89205893Y-64288592D02*
X89599181Y-63594337D01*
X68311673Y-70626782D02*
X69041135Y-70950126D01*
X89957932Y-48980525D02*
X89599180Y-48267816D01*
X60925267Y-63594340D02*
X61318557Y-64288587D01*
X69785575Y-71237294D02*
X70543210Y-71487585D01*
X65022337Y-45677992D02*
X63342954Y-47357376D01*
X70543213Y-40374573D02*
X69785574Y-40624860D01*
X59956006Y-50454421D02*
X59705721Y-51212061D01*
X76059896Y-72167999D02*
X76855641Y-72109304D01*
X69041135Y-70950126D02*
X69785575Y-71237294D01*
X66904715Y-41987413D02*
X66230594Y-42414288D01*
X84293856Y-42414288D02*
X83619735Y-41987411D01*
X61318559Y-47573562D02*
X60925274Y-48267813D01*
X90568443Y-61407729D02*
X90818735Y-60650094D01*
X85528436Y-66184084D02*
X83849060Y-67863466D01*
X91342780Y-53545752D02*
X91206364Y-52759593D01*
X68311674Y-41235368D02*
X67598962Y-41594123D01*
X71312221Y-71700390D02*
X72090739Y-71875215D01*
X65022337Y-45677992D02*
X66686008Y-44014320D01*
X90818735Y-60650094D02*
X91031542Y-59881090D01*
X88319571Y-65615064D02*
X88779014Y-64962712D01*
X65012157Y-66194262D02*
X63350465Y-64532559D01*
X67598960Y-70268032D02*
X68311673Y-70626782D01*
X59181678Y-58316402D02*
X59318084Y-59102564D01*
X88319569Y-46247089D02*
X88301154Y-46228671D01*
X76059897Y-39694158D02*
X75262230Y-39674576D01*
X85528441Y-45677991D02*
X83866731Y-44016287D01*
X60243173Y-49709988D02*
X59956006Y-50454421D01*
X87190133Y-64522383D02*
X88301148Y-65633410D01*
X84960079Y-68974484D02*
X84946175Y-68988386D01*
X80738875Y-40624863D02*
X79981243Y-40374578D01*
X90281277Y-62152169D02*
X90568443Y-61407729D01*
X91031541Y-51981068D02*
X90818734Y-51212066D01*
X91206364Y-52759593D02*
X91031541Y-51981068D01*
X61745434Y-46899448D02*
X61318559Y-47573562D01*
X88779014Y-64962712D02*
X89205893Y-64288592D01*
X66684648Y-44016895D02*
X65573021Y-42905266D01*
X83619737Y-69874747D02*
X84293857Y-69447866D01*
X65578239Y-68988427D02*
X65559816Y-68970006D01*
X91440450Y-54337660D02*
X91342780Y-53545752D01*
X60566517Y-48980528D02*
X60243173Y-49709988D01*
X72876901Y-72011631D02*
X73668815Y-72109307D01*
X89205895Y-47573563D02*
X88779017Y-46899448D01*
X67598962Y-41594123D02*
X66904715Y-41987413D01*
X79981241Y-71487579D02*
X80738879Y-71237294D01*
X82925487Y-41594118D02*
X82212781Y-41235373D01*
X63342954Y-47357376D02*
X62231937Y-46246349D01*
X83849060Y-67863466D02*
X84960079Y-68974484D01*
X66230594Y-42414288D02*
X65578237Y-42873728D01*
X62204877Y-46247089D02*
X62232676Y-46247091D01*
X77647551Y-72011633D02*
X78433708Y-71875219D01*
X72090739Y-71875215D02*
X72876901Y-72011631D01*
X90568445Y-50454423D02*
X90281277Y-49709984D01*
X83619735Y-41987411D02*
X82925487Y-41594118D01*
X82925482Y-70268032D02*
X83619737Y-69874747D01*
X89599181Y-63594337D02*
X89957933Y-62881632D01*
X59084001Y-57524496D02*
X59181678Y-58316402D01*
X59025304Y-56728749D02*
X59084001Y-57524496D01*
X66673856Y-67855959D02*
X65562843Y-68966981D01*
X65578237Y-42873728D02*
X65578238Y-42910484D01*
X81483322Y-70950135D02*
X82212774Y-70626782D01*
X89957933Y-62881632D02*
X90281277Y-62152169D01*
X61745435Y-64962705D02*
X62204876Y-65615066D01*
X59181673Y-53545755D02*
X59084003Y-54337668D01*
X79212234Y-71700393D02*
X79981241Y-71487579D01*
X66904713Y-69874747D02*
X67598960Y-70268032D01*
X99698234Y-55931068D02*
G75*
G03*
X51438228Y-55931068I-24130003J0D01*
G01*
X51438228Y-55931068D02*
G75*
G03*
X99698234Y-55931068I24130003J0D01*
G01*
M02*
